<?xml version="1.0" encoding="UTF-8" standalone="no"?>
<svg width="52px" height="51px" viewBox="0 0 52 51" version="1.1" xmlns="http://www.w3.org/2000/svg" xmlns:xlink="http://www.w3.org/1999/xlink">
    <!-- Generator: Sketch 39.1 (31720) - http://www.bohemiancoding.com/sketch -->
    <title>ico_escolares_grey</title>
    <desc>Created with Sketch.</desc>
    <defs></defs>
    <g id="supermercado_categoria" stroke="none" stroke-width="1" fill="none" fill-rule="evenodd">
        <g id="Subcategorias_papeleria" transform="translate(-326.000000, -14.000000)" fill="#D4D4D4">
            <g id="icon01-copy-3" transform="translate(326.000000, 14.000000)">
                <g id="libretas_dgreen" transform="translate(16.000000, 15.000000)">
                    <path d="M15.6828654,5.59489091 C16.0239824,5.59489091 16.3005124,5.32422669 16.3005124,4.99034545 L16.3005124,1.4028 C16.3005124,1.06891876 16.0239824,0.798254545 15.6828654,0.798254545 L3.20113462,0.798254545 C1.86446708,0.798254545 0.786372172,1.87464871 0.786372172,3.19686061 C0.786372172,4.51861508 1.86458757,5.59489091 3.20113462,5.59489091 L15.6828654,5.59489091 Z M2.02166629,3.19686061 C2.02166629,2.53709517 2.55225303,2.00734545 3.20113462,2.00734545 L15.6828654,2.00734545 L15.0652183,1.4028 L15.0652183,4.99034545 L15.6828654,4.3858 L3.20113462,4.3858 C2.5523109,4.3858 2.02166629,3.85610995 2.02166629,3.19686061 Z" id="Stroke-1"></path>
                    <path d="M0.786199095,4.49732424 L0.786199095,5.30338485 L0.786199095,19.923597 C0.786199095,20.2574782 1.0627291,20.5281424 1.40384615,20.5281424 L15.6826923,20.5281424 C16.0238094,20.5281424 16.3003394,20.2574782 16.3003394,19.923597 L16.3003394,4.49732424 C16.3003394,4.16344301 16.0238094,3.89277879 15.6826923,3.89277879 C15.3415753,3.89277879 15.0650452,4.16344301 15.0650452,4.49732424 L15.0650452,19.923597 L15.6826923,19.3190515 L1.40384615,19.3190515 L2.02149321,19.923597 L2.02149321,5.30338485 L2.02149321,4.49732424 L2.02149321,3.19668788 C2.02149321,2.86280664 1.74496321,2.59214242 1.40384615,2.59214242 C1.0627291,2.59214242 0.786199095,2.86280664 0.786199095,3.19668788 L0.786199095,4.49732424 Z" id="Stroke-3"></path>
                    <path d="M9.6085543,10.1624333 C9.6085543,10.5492068 10.0881253,10.7409214 10.3647627,10.4647371 L11.8711088,8.96085836 L11.2411042,8.96091738 L12.7312965,10.4480992 C13.0079592,10.7242031 13.4874457,10.5324699 13.4874457,10.1457364 L13.4874457,4.90000909 C13.4874457,4.66152249 13.2899243,4.46819091 13.0462692,4.46819091 C12.8026142,4.46819091 12.6050928,4.66152249 12.6050928,4.90000909 L12.6050928,10.1457364 L13.361242,9.84337353 L11.8710497,8.35619171 C11.69807,8.18356144 11.413991,8.18358805 11.241045,8.35625073 L9.73469888,9.86012952 L10.4909072,10.1624333 L10.4909072,4.93282727 C10.4909072,4.69434068 10.2933858,4.50100909 10.0497308,4.50100909 C9.80607573,4.50100909 9.6085543,4.69434068 9.6085543,4.93282727 L9.6085543,10.1624333 Z" id="Stroke-5"></path>
                    <path d="M6.97109615,16.4116485 C7.21475119,16.4116485 7.41227262,16.2183169 7.41227262,15.9798303 C7.41227262,15.7413437 7.21475119,15.5480121 6.97109615,15.5480121 L3.79455769,15.5480121 C3.55090266,15.5480121 3.35338122,15.7413437 3.35338122,15.9798303 C3.35338122,16.2183169 3.55090266,16.4116485 3.79455769,16.4116485 L6.97109615,16.4116485 Z" id="Stroke-7"></path>
                    <path d="M5.59571154,17.9150667 C5.83936658,17.9150667 6.03688801,17.7217351 6.03688801,17.4832485 C6.03688801,17.2447619 5.83936658,17.0514303 5.59571154,17.0514303 L3.79455769,17.0514303 C3.55090266,17.0514303 3.35338122,17.2447619 3.35338122,17.4832485 C3.35338122,17.7217351 3.55090266,17.9150667 3.79455769,17.9150667 L5.59571154,17.9150667 Z" id="Stroke-9"></path>
                </g>
            </g>
        </g>
    </g>
</svg>