<?xml version="1.0" encoding="UTF-8" standalone="no"?>
<svg width="52px" height="51px" viewBox="0 0 52 51" version="1.1" xmlns="http://www.w3.org/2000/svg" xmlns:xlink="http://www.w3.org/1999/xlink">
    <!-- Generator: Sketch 39.1 (31720) - http://www.bohemiancoding.com/sketch -->
    <title>ico_papeleria_green</title>
    <desc>Created with Sketch.</desc>
    <defs></defs>
    <g id="supermercado_categoria" stroke="none" stroke-width="1" fill="none" fill-rule="evenodd">
        <g id="Subcategorias_papeleria" transform="translate(-140.000000, -75.000000)" fill="#44D481">
            <g id="icon01-copy-8" transform="translate(140.000000, 75.000000)">
                <g id="otros_papeleria_yellow" transform="translate(15.000000, 15.000000)">
                    <path d="M0.384703757,11.9768057 L2.56617182,15.5250382 L2.56884401,15.0601864 C1.57469774,16.6364629 1.37172222,18.1957748 2.1003066,19.3813828 L4.62225936,23.4835591 C4.92643986,23.9794494 5.56772481,24.1332416 6.06686611,23.8298981 C6.5655906,23.5285636 6.72065405,22.8933987 6.41646321,22.3974919 C5.77983024,21.3618906 7.42828249,18.7842086 10.3750798,16.9997385 L13.9915108,14.8100686 C18.8950123,11.8410543 21.6399701,7.95125542 20.1999098,5.60791965 L17.6779588,1.5057462 C16.2377823,-0.837057056 11.4963182,-0.19425514 6.59306812,2.77460688 C1.68982517,5.7434646 -1.05549149,9.63397194 0.384703757,11.9768057 Z M16.917431,1.96627939 L19.4393503,6.06840116 C20.5182378,7.82401911 18.0558604,11.3133816 13.5275227,14.0552385 L9.91107104,16.2449209 C6.59745375,18.2515235 4.67352955,21.2599604 5.65570775,22.8576543 C5.70398246,22.9363545 5.68175245,23.0274122 5.6026062,23.0752335 C5.52281218,23.1237251 5.43105922,23.101721 5.38300866,23.0233866 L2.86086791,18.9209041 C2.33389055,18.0633664 2.49203236,16.8484789 3.32401054,15.5293294 L3.470083,15.297723 L3.32668273,15.0644776 L1.14522818,11.516267 C0.0663024503,9.76112749 2.5290105,6.27111706 7.05705915,3.52943522 C11.5851234,0.787743934 15.8384892,0.211113675 16.917431,1.96627939 Z" id="Stroke-1"></path>
                    <path d="M10.6180766,9.22738072 C6.30018785,11.8416825 1.98373597,12.5630632 1.06830592,11.072962 C0.152213642,9.58264369 2.77281957,6.10390467 7.09081707,3.48893245 C11.4087462,0.874606231 15.725214,0.153254017 16.6412445,1.64347178 C17.5572872,3.13370938 14.9359785,6.61307098 10.6180766,9.22738072 Z M6.62680384,2.73411756 C1.92354744,5.58240194 -0.980601549,9.43753188 0.30769908,11.5333665 C1.59529543,13.6292656 6.3788282,12.8298246 11.0820507,9.98221928 C15.7852057,7.13465488 18.6901211,3.27885151 17.4017918,1.18297032 C16.113482,-0.912879273 11.3300218,-0.113485014 6.62680384,2.73411756 Z" id="Stroke-3"></path>
                    <path d="M9.55733398,7.51261917 C7.92448561,8.50144235 6.25835564,8.67201858 5.86973453,8.04017934 C5.4812479,7.40808093 6.39608275,6.01619822 8.02933875,5.02712819 C9.66218711,4.03830502 11.3283171,3.86772879 11.7169382,4.49956803 C12.105443,5.13121813 11.190323,6.5237108 9.55733398,7.51261917 Z M7.69787943,4.4879876 C5.80146506,5.63642153 4.68808595,7.33038096 5.32651884,8.36916161 C5.96517366,9.40751795 7.99281299,9.19993085 9.8887933,8.05175977 C11.7849983,6.90345262 12.8987072,5.20877698 12.2600982,4.17049513 C11.6214991,3.13222942 9.59385974,3.33981652 7.69787943,4.4879876 Z" id="Stroke-5"></path>
                    <path d="M2.64364536,17.0761459 C2.75293085,16.5941614 2.96942263,16.0758769 3.32068019,15.5339409 C3.53899577,15.1974772 3.91619241,14.7770306 4.42120725,14.2984107 C4.66975676,14.0628518 4.94575538,13.8164676 5.24445181,13.5621156 C5.73422554,13.1450535 6.26019282,12.7271949 6.78629345,12.3292512 C6.97050425,12.1899137 7.14147687,12.063092 7.29474607,11.9513251 C7.38626232,11.8845896 7.45120595,11.8379375 7.4851227,11.8138962 L7.41354526,11.8552431 L9.07763617,11.0897694 L8.70300019,10.2875358 L7.03890928,11.0530095 L6.96733185,11.0943564 C6.93025364,11.1206387 6.86208171,11.1696098 6.76723619,11.2387731 C6.60990243,11.353504 6.43477462,11.4834078 6.24626187,11.6259993 C5.70743809,12.0335669 5.16848095,12.4617454 4.66432523,12.8910543 C4.35425656,13.1550903 4.06667677,13.411813 3.80593185,13.6589299 C3.25447652,14.1815631 2.835466,14.648618 2.57152917,15.0553923 C1.85120553,16.1667401 1.62815088,17.1504836 1.67972542,17.8727572 C1.68200805,17.9047242 1.68413531,17.9249763 1.68694838,17.9464922 L2.56968798,17.8270236 C2.5561677,17.6388651 2.57260531,17.3894556 2.64364536,17.0761459 Z" id="Stroke-7"></path>
                    <path d="M9.12648353,6.8003686 C8.10712234,7.41807125 7.10639167,7.58533578 6.95674725,7.34148318 C6.8069913,7.09778349 7.41474488,6.29113793 8.43397101,5.67407351 C9.45324794,5.05697833 10.4542071,4.88967562 10.6038083,5.13312342 C10.7534632,5.37665861 10.1457097,6.18330417 9.12648353,6.8003686 Z M8.10257444,5.13489492 C6.80818693,5.91854877 5.99786782,6.99405098 6.41335376,7.67017605 C6.82870972,8.34701816 8.16346606,8.12392378 9.45798896,7.33948126 C10.7522676,6.55589334 11.5625867,5.48039112 11.1471008,4.80426606 C10.7316006,4.12811782 9.3970727,4.35117401 8.10257444,5.13489492 Z" id="Stroke-9"></path>
                </g>
            </g>
        </g>
    </g>
</svg>