<?xml version="1.0" encoding="UTF-8" standalone="no"?>
<svg width="52px" height="51px" viewBox="0 0 52 51" version="1.1" xmlns="http://www.w3.org/2000/svg" xmlns:xlink="http://www.w3.org/1999/xlink">
    <!-- Generator: Sketch 39.1 (31720) - http://www.bohemiancoding.com/sketch -->
    <title>ico_escritorio_green</title>
    <desc>Created with Sketch.</desc>
    <defs></defs>
    <g id="supermercado_categoria" stroke="none" stroke-width="1" fill="none" fill-rule="evenodd">
        <g id="Subcategorias_papeleria" transform="translate(-77.000000, -75.000000)" fill="#44D481">
            <g id="icon01-copy-7" transform="translate(77.000000, 75.000000)">
                <g id="escritorio_blue" transform="translate(13.000000, 20.000000)">
                    <path d="M17.1530069,3.8957765 L16.6768919,4.2452 L23.0974865,4.2452 L22.6181893,3.88345913 L24.4880811,11.5714591 L24.9673784,10.9998667 L0.749432432,10.9998667 L1.23926525,11.4238785 C1.23828197,11.4137153 1.23640347,11.389197 1.23439657,11.3521009 C1.21408904,10.9767319 1.24039265,10.5370914 1.34749607,10.1307411 C1.53716806,9.41112577 1.90716182,9.0352 2.55748649,9.0352 L15.4034399,8.91717811 L15.7801446,8.9137165 L15.8747906,8.5677765 L17.1530069,3.8957765 Z M15.3939115,7.98388856 L2.5527223,8.10188856 C1.38043278,8.10186667 0.68082518,8.8126909 0.393098526,9.90432554 C0.258461289,10.4151391 0.227040122,10.9403148 0.251906041,11.399942 C0.254609981,11.4499223 0.257442333,11.4868904 0.259599617,11.5091882 L0.300622305,11.9332 L0.749432432,11.9332 L24.9673784,11.9332 L25.5856996,11.9332 L25.4466756,11.3616075 L23.5767837,3.67360754 L23.4888003,3.31186667 L23.0974865,3.31186667 L16.6768919,3.31186667 L16.296376,3.31186667 L16.2007769,3.66129016 L14.9225607,8.33329016 L15.3939115,7.98388856 Z" id="Stroke-1"></path>
                    <polygon id="Stroke-3" points="1.50441622 6.67613333 1.50441622 7.1428 1.99630811 7.1428 15.9287946 7.1428 15.9287946 6.20946667 1.99630811 6.20946667 2.4882 6.67613333 2.4882 4.39946667 1.50441622 4.39946667"></polygon>
                    <path d="M9.58957409,4.02197086 L10.0616796,4.50088477 L10.1565445,1.17355144 L9.63886266,1.62694916 C9.7573394,1.63289173 9.98019775,1.6445955 10.2925112,1.66183893 C10.8134162,1.6905991 11.3939472,1.72445679 12.0191689,1.76318944 C13.8052197,1.87383577 15.5911374,2.00132163 17.2571058,2.14381934 C21.33407,2.49254028 24.3121517,2.93642714 24.504832,3.19224725 L24.4131568,2.92093333 L24.4131568,5.02026667 L24.9050486,4.5536 L23.6268324,4.5536 L23.6268324,5.48693333 L24.9050486,5.48693333 L25.3969405,5.48693333 L25.3969405,5.02026667 L25.3969405,2.92093333 L25.3969405,2.77133593 L25.3052653,2.64961942 C24.8323198,2.02169364 22.2022857,1.62968371 17.3454434,1.21425632 C15.6704683,1.07098823 13.8768038,0.942949371 12.0832724,0.831839609 C11.4556402,0.792957627 10.872807,0.758965666 10.3496671,0.730082103 C10.0355537,0.712739294 9.81096428,0.700944621 9.69080221,0.69491751 L9.1867679,0.669636068 L9.17312038,1.14831523 L9.07825552,4.47564856 L9.06512488,4.93619851 L9.55036105,4.95456247 L16.2618746,5.20856247 L16.3010876,4.27597086 L9.58957409,4.02197086 Z" id="Stroke-5"></path>
                    <path d="M9.69518919,0.933333333 L9.20351133,0.45290166 L9.07843025,4.47423499 L9.59043492,4.02173196 L1.2142187,3.69306529 C1.10282294,3.68867014 1.01421739,3.60247491 1.01253857,3.49695678 L0.983718899,1.81375377 C0.975500708,1.32992218 1.38700178,0.933333333 1.8972973,0.933333333 L9.69518919,0.933333333 Z M6.38548308e-05,1.8288525 L0.0288756956,3.51157956 C0.0384238777,4.11172772 0.541011905,4.60064388 1.17345281,4.62559696 L9.5497813,4.95426804 L10.0471042,4.97378204 L10.061786,4.50176501 L10.1868671,0.480431674 L10.2018106,-1.13686838e-13 L9.69518919,-1.13686838e-13 L1.8972973,-1.13686838e-13 C0.83755659,-1.13686838e-13 -0.0170110264,0.823599274 6.38548308e-05,1.8288525 Z" id="Stroke-7"></path>
                    <path d="M19.7517081,6.5642 C19.4847811,6.5642 19.2682486,6.35877175 19.2682486,6.10553333 C19.2682486,5.85250892 19.4845555,5.64753333 19.7517081,5.64753333 C20.0182209,5.64753333 20.2344649,5.85256852 20.2344649,6.10553333 C20.2344649,6.35871197 20.0179953,6.5642 19.7517081,6.5642 Z M19.7517081,4.98086667 C19.0966464,4.98086667 18.5655459,5.48414534 18.5655459,6.10553333 C18.5655459,6.72696158 19.0966891,7.23086667 19.7517081,7.23086667 C20.4061788,7.23086667 20.9371676,6.72681504 20.9371676,6.10553333 C20.9371676,5.48429182 20.4062214,4.98086667 19.7517081,4.98086667 Z" id="Stroke-9"></path>
                </g>
            </g>
        </g>
    </g>
</svg>