<?xml version="1.0" encoding="UTF-8" standalone="no"?>
<svg width="52px" height="51px" viewBox="0 0 52 51" version="1.1" xmlns="http://www.w3.org/2000/svg" xmlns:xlink="http://www.w3.org/1999/xlink">
    <!-- Generator: Sketch 39.1 (31720) - http://www.bohemiancoding.com/sketch -->
    <title>ico_TODOSpapeleria_green</title>
    <desc>Created with Sketch.</desc>
    <defs></defs>
    <g id="supermercado_categoria" stroke="none" stroke-width="1" fill="none" fill-rule="evenodd">
        <g id="Subcategorias_papeleria" transform="translate(-15.000000, -75.000000)" fill="#44D481">
            <g id="icon01-copy-6" transform="translate(15.000000, 75.000000)">
                <g id="escolar_red" transform="translate(13.000000, 13.000000)">
                    <path d="M1.16702504,19.370324 C0.828264053,19.0542836 0.805840563,18.5196929 1.11695825,18.1763464 L16.5124943,1.18337074 C16.8237675,0.839852695 17.3509641,0.817115842 17.6901961,1.13278413 L23.3547698,6.40932599 C23.6935308,6.72536642 23.7159543,7.25995713 23.4048366,7.60330361 L8.00930056,24.5962793 C7.69812991,24.9401065 7.17061448,24.9627208 6.83180117,24.6470543 L1.16702504,19.370324 Z M8.67034924,25.2117412 L24.0656994,8.21897074 C24.7121304,7.50557575 24.6655747,6.3956559 23.9621496,5.7394096 L18.2971532,0.462474009 C17.5927568,-0.192993756 16.4981479,-0.145785634 15.8516315,0.56770361 L0.456095433,17.5606793 C-0.190335541,18.2740742 -0.14377978,19.3839941 0.559645322,20.0402404 L6.22464163,25.317176 C6.9284526,25.9729045 8.02398533,25.9259395 8.67034924,25.2117412 Z" id="Stroke-1"></path>
                    <polygon id="Stroke-3" points="14.2451474 3.25323166 13.6380577 3.92341834 16.47075 6.56176834 17.0778397 5.89158166"></polygon>
                    <polygon id="Stroke-5" points="12.2938769 5.40747239 11.6867641 6.07763761 16.1124051 10.1999376 16.7195179 9.52977239"></polygon>
                    <polygon id="Stroke-7" points="10.2336731 7.68096666 9.62658334 8.35115334 12.4592756 10.9895033 13.0663654 10.3193167"></polygon>
                    <polygon id="Stroke-9" points="8.28240255 9.83520739 7.67528976 10.5053726 12.1009308 14.6276726 12.7080436 13.9575074"></polygon>
                    <polygon id="Stroke-11" points="6.11380128 12.2283667 5.50671154 12.8985533 8.33940385 15.5369033 8.94649359 14.8667167"></polygon>
                    <polygon id="Stroke-13" points="4.16253075 14.3825424 3.55541796 15.0527076 7.98105899 19.1750076 8.58817178 18.5048424"></polygon>
                </g>
            </g>
        </g>
    </g>
</svg>