<?xml version="1.0" encoding="UTF-8" standalone="no"?>
<svg width="52px" height="51px" viewBox="0 0 52 51" version="1.1" xmlns="http://www.w3.org/2000/svg" xmlns:xlink="http://www.w3.org/1999/xlink">
    <!-- Generator: Sketch 39.1 (31720) - http://www.bohemiancoding.com/sketch -->
    <title>ico_paraescribir_grey</title>
    <desc>Created with Sketch.</desc>
    <defs></defs>
    <g id="supermercado_categoria" stroke="none" stroke-width="1" fill="none" fill-rule="evenodd">
        <g id="Subcategorias_papeleria" transform="translate(-263.000000, -14.000000)" fill="#D4D4D4">
            <g id="icon01-copy-5" transform="translate(263.000000, 14.000000)">
                <g id="escribir_lgreen" transform="translate(13.000000, 12.000000)">
                    <path d="M19.4676922,1.91990793 C19.5175092,1.86373828 19.628754,1.76329581 19.7876194,1.66072692 C20.4045876,1.26239137 21.0649529,1.25690941 21.8209121,1.92657895 C22.6556585,2.66589396 22.7323985,3.32129688 22.4052462,3.93186863 C22.3412404,4.05132416 22.2800877,4.13313243 22.2494951,4.16597344 L6.77925958,21.5537095 L6.91504906,21.447645 L0.942477634,24.5772239 L1.60947451,25.1836575 L4.09793165,19.1550785 L4.01306364,19.2906448 L19.4676922,1.91990793 Z M3.21027406,18.7902794 L0.72181692,24.8188583 C0.55100787,25.2326633 0.991724928,25.6333632 1.38881379,25.4252918 L7.36138522,22.2957129 C7.41269425,22.2688274 7.45869971,22.2328927 7.4971747,22.1896484 L22.9600318,4.81001681 C23.0357968,4.72886735 23.1452479,4.58244672 23.251846,4.38350041 C23.7780151,3.40149891 23.6444567,2.26083448 22.4582292,1.21022096 C21.3523248,0.230551088 20.2210744,0.23994206 19.2661016,0.856504915 C19.0261425,1.01143066 18.8521997,1.16848283 18.7492717,1.28453801 L3.29514208,18.6547131 C3.25944201,18.6948394 3.23075324,18.7406662 3.21027406,18.7902794 Z" id="Stroke-1"></path>
                    <path d="M20.6354939,7.25451252 C20.7782199,7.3646315 20.9211718,7.49065887 21.0532878,7.62894538 C21.6782716,8.28311919 21.8123566,8.88583227 21.2609365,9.50557385 L16.9471079,14.3538896 C16.7711071,14.5516971 16.7891373,14.8544157 16.9873795,15.0300305 C17.1856217,15.2056453 17.4890056,15.1876547 17.6650064,14.9898472 L21.978835,10.1415314 C22.9289273,9.0737218 22.6766895,7.93991049 21.7481468,6.96800017 C21.4601003,6.66650036 21.1738069,6.44561316 20.9721515,6.31777186 C20.7483972,6.17592075 20.4517628,6.2419186 20.3095999,6.46518217 C20.1674371,6.68844575 20.23358,6.98442967 20.4573342,7.12628078 C20.48836,7.14594986 20.5514143,7.18964164 20.6354939,7.25451252 Z" id="Stroke-3"></path>
                    <path d="M21.8015826,1.2687499 C21.6256064,1.46657916 21.6436743,1.7692955 21.8419384,1.94488577 C22.0402024,2.12047604 22.3435841,2.10244778 22.5195602,1.90461852 L23.5049317,0.796881675 C23.6809079,0.599052416 23.66284,0.296336077 23.4645759,0.120745808 C23.2663119,-0.0548444616 22.9629302,-0.0368161979 22.786954,0.161013061 L21.8015826,1.2687499 Z" id="Stroke-5"></path>
                    <path d="M4.14505339,23.370735 C4.28666349,23.4961645 4.5033654,23.4832994 4.62907064,23.3419998 C4.75477588,23.2007002 4.74188243,22.9844736 4.60027233,22.859044 L2.89078661,21.3448861 C2.74917651,21.2194565 2.5324746,21.2323217 2.40676936,21.3736213 C2.28106412,21.5149208 2.29395757,21.7311475 2.43556767,21.8565771 L4.14505339,23.370735 Z" id="Stroke-7"></path>
                </g>
            </g>
        </g>
    </g>
</svg>