<?xml version="1.0" encoding="UTF-8" standalone="no"?>
<svg width="52px" height="51px" viewBox="0 0 52 51" version="1.1" xmlns="http://www.w3.org/2000/svg" xmlns:xlink="http://www.w3.org/1999/xlink">
    <!-- Generator: Sketch 39.1 (31720) - http://www.bohemiancoding.com/sketch -->
    <title>ico_mediasveladas_grey</title>
    <desc>Created with Sketch.</desc>
    <defs></defs>
    <g id="supermercado_categoria" stroke="none" stroke-width="1" fill="none" fill-rule="evenodd">
        <g id="Subcategorias_cosmeticos" transform="translate(-325.000000, -14.000000)" fill="#D4D4D4">
            <g id="icon01-copy-10" transform="translate(325.000000, 14.000000)">
                <g id="medias_veladas_yellow" transform="translate(20.000000, 13.000000)">
                    <path d="M5.98726124,24.9574487 C5.98726124,25.4754801 6.69067656,25.6183135 6.88811908,25.1403741 L11.5917981,13.7544101 C11.6364923,13.6444637 11.6977396,13.4670805 11.7581861,13.2393384 C11.8763403,12.7941732 11.9391697,12.342551 11.9156045,11.908406 C11.8467862,10.6405556 11.0492257,9.82313344 9.47335212,9.82313344 L9.90993847,10.4695266 C9.93258042,10.4107187 9.97465413,10.3002103 10.033388,10.1439807 C10.1310636,9.88416803 10.2398468,9.59061493 10.356968,9.26929334 C10.6915789,8.35128933 11.0261955,7.39413393 11.3387059,6.44538714 C11.4913599,5.9819465 11.6351952,5.53101242 11.7687342,5.09573621 C12.3842688,3.08937298 12.7479726,1.534745 12.7811099,0.565186096 C12.7902753,0.297016814 12.5779581,0.0745749585 12.3128294,0.0745749585 L6.45582185,0.0745749585 C6.19704297,0.0745749585 5.98726124,0.2868894 5.98726124,0.548792536 L5.98726124,24.9574487 Z M6.45582185,1.02301011 L12.3128294,1.02301011 L11.8445488,0.532398975 C11.8152284,1.3902794 11.4649807,2.8873902 10.8737614,4.81449658 C10.7422261,5.24324198 10.6003666,5.68798169 10.4496844,6.14543622 C10.1405759,7.08385501 9.80917241,8.03181949 9.47776313,8.94103986 C9.36177725,9.2592468 9.25410394,9.54980469 9.1575236,9.80670421 C9.09970397,9.96050192 9.05852517,10.0686597 9.03676576,10.1251754 C8.91705979,10.4360879 9.14364989,10.7715686 9.47335212,10.7715686 C10.5372318,10.7715686 10.9376385,11.1819466 10.9798942,11.9604297 C10.997269,12.2805281 10.9476355,12.6372969 10.8531487,12.9932912 C10.8039704,13.1785787 10.7555928,13.3186888 10.7261682,13.3910862 L6.02352461,24.7745233 L6.92438245,24.9574487 L6.92438245,0.548792536 L6.45582185,1.02301011 Z" id="Stroke-1"></path>
                    <path d="M11.8944717,3.5973341 C12.0793137,3.5973341 12.2291578,3.44568093 12.2291578,3.25860726 C12.2291578,3.07153359 12.0793137,2.91988042 11.8944717,2.91988042 L6.28847877,2.91988042 C6.10363672,2.91988042 5.95379263,3.07153359 5.95379263,3.25860726 C5.95379263,3.44568093 6.10363672,3.5973341 6.28847877,3.5973341 L11.8944717,3.5973341 Z" id="Stroke-3"></path>
                    <path d="M6.34433562,4.755405 C6.21363255,4.88768606 6.21363255,5.10215604 6.34433562,5.2344371 C6.47503869,5.36671816 6.68695024,5.36671816 6.8176533,5.2344371 L8.36591141,3.66748673 C8.49661448,3.53520567 8.49661448,3.3207357 8.36591141,3.18845464 C8.23520834,3.05617358 8.02329679,3.05617358 7.89259372,3.18845464 L6.34433562,4.755405 Z" id="Stroke-5"></path>
                    <path d="M6.42865372,6.61842572 C6.29796325,6.75071952 6.29798367,6.9651895 6.42869934,7.09745781 C6.55941501,7.22972611 6.77132655,7.22970544 6.90201702,7.09741163 L10.3740511,3.58278193 C10.5047415,3.45048812 10.5047211,3.23601815 10.3740055,3.10374984 C10.2432898,2.97148153 10.0313782,2.97150221 9.90068778,3.10379601 L6.42865372,6.61842572 Z" id="Stroke-7"></path>
                    <path d="M6.23991354,9.13751414 C6.10921047,9.2697952 6.10921047,9.48426518 6.23991354,9.61654624 C6.37061661,9.7488273 6.58252816,9.7488273 6.71323123,9.61654624 L11.6291013,4.6413264 C11.7598044,4.50904534 11.7598044,4.29457536 11.6291013,4.16229431 C11.4983982,4.03001325 11.2864867,4.03001325 11.1557836,4.16229431 L6.23991354,9.13751414 Z" id="Stroke-9"></path>
                    <path d="M6.32358508,11.0851935 C6.19288201,11.2174745 6.19288201,11.4319445 6.32358508,11.5642256 C6.45428815,11.6965066 6.66619969,11.6965066 6.79690276,11.5642256 L10.7923859,7.52050455 C10.923089,7.38822349 10.923089,7.17375351 10.7923859,7.04147245 C10.6616829,6.90919139 10.4497713,6.90919139 10.3190683,7.04147245 L6.32358508,11.0851935 Z" id="Stroke-11"></path>
                    <path d="M6.34500499,13.095876 C6.21430192,13.2281571 6.21430192,13.442627 6.34500499,13.5749081 C6.47570806,13.7071892 6.68761961,13.7071892 6.81832268,13.5749081 L10.1230137,10.2303193 C10.2537167,10.0980382 10.2537167,9.88356824 10.1230137,9.75128718 C9.99231059,9.61900612 9.78039905,9.61900612 9.64969598,9.75128718 L6.34500499,13.095876 Z" id="Stroke-13"></path>
                    <path d="M6.42867653,14.9588736 C6.29797346,15.0911547 6.29797346,15.3056247 6.42867653,15.4379057 C6.5593796,15.5701868 6.77129114,15.5701868 6.90199421,15.4379057 L11.2107436,11.0771364 C11.3414467,10.9448553 11.3414467,10.7303853 11.2107436,10.5981043 C11.0800406,10.4658232 10.868129,10.4658232 10.7374259,10.5981043 L6.42867653,14.9588736 Z" id="Stroke-15"></path>
                    <path d="M6.23991354,17.4786626 C6.10921047,17.6109437 6.10921047,17.8254136 6.23991354,17.9576947 C6.37061661,18.0899758 6.58252816,18.0899758 6.71323123,17.9576947 L11.6291013,12.9824749 C11.7598044,12.8501938 11.7598044,12.6357238 11.6291013,12.5034428 C11.4983982,12.3711617 11.2864867,12.3711617 11.1557836,12.5034428 L6.23991354,17.4786626 Z" id="Stroke-17"></path>
                    <path d="M6.32391977,19.4260032 C6.1932167,19.5582843 6.1932167,19.7727542 6.32391977,19.9050353 C6.45462284,20.0373164 6.66653438,20.0373164 6.79723745,19.9050353 L10.248521,16.4120841 C10.379224,16.2798031 10.379224,16.0653331 10.248521,15.933052 C10.1178179,15.800771 9.90590635,15.800771 9.77520328,15.933052 L6.32391977,19.4260032 Z" id="Stroke-19"></path>
                    <path d="M6.32358508,21.2893396 C6.19288201,21.4216206 6.19288201,21.6360906 6.32358508,21.7683717 C6.45428815,21.9006527 6.66619969,21.9006527 6.79690276,21.7683717 L9.20262677,19.3336031 C9.33332984,19.2013221 9.33332984,18.9868521 9.20262677,18.854571 C9.0719237,18.72229 8.86001215,18.72229 8.72930908,18.854571 L6.32358508,21.2893396 Z" id="Stroke-21"></path>
                    <path d="M5.98799755,24.9577197 L6.88885539,24.7747942 L2.18517632,13.3888302 C2.1567872,13.3189598 2.10840963,13.1788497 2.05923126,12.9935622 C1.96474446,12.6375678 1.91511104,12.2807991 1.93248583,11.9607007 C1.9747415,11.1822175 2.37514816,10.7718396 3.43902788,10.7718396 C3.76873011,10.7718396 3.99532021,10.4363589 3.87561424,10.1254464 C3.85385483,10.0689307 3.81267603,9.9607729 3.7548564,9.80697519 C3.65827606,9.55007567 3.55060275,9.25951778 3.43461687,8.94131084 C3.10320759,8.03209047 2.77180406,7.084126 2.46269563,6.1457072 C2.31201339,5.68825267 2.17015393,5.24351296 2.03861859,4.81476756 C1.44739926,2.88766118 1.09715159,1.39055038 1.06783117,0.532669957 L0.599550637,1.02328109 L6.45655815,1.02328109 L5.98799755,0.549063517 L5.98799755,24.9577197 Z M6.45655815,0.0748459399 L0.599550637,0.0748459399 C0.334421895,0.0748459399 0.122104678,0.297287795 0.131270099,0.565457078 C0.164407437,1.53501598 0.528111192,3.08964396 1.14364583,5.09600719 C1.27718476,5.5312834 1.42102006,5.98221748 1.57367408,6.44565812 C1.88618448,7.39440491 2.22080111,8.35156032 2.555412,9.26956432 C2.67253318,9.59088592 2.78131643,9.88443901 2.87899197,10.1442517 C2.93772587,10.3004813 2.97979958,10.4109896 3.00244153,10.4697976 L3.43902788,9.82340442 C1.86315431,9.82340442 1.06559376,10.6408266 0.996775469,11.908677 C0.973210296,12.342822 1.03603966,12.7944442 1.15419386,13.2396094 C1.21464039,13.4673515 1.27588771,13.6447347 1.3195464,13.7521541 L6.02426092,25.1406451 C6.22170344,25.6185845 6.92511876,25.4757511 6.92511876,24.9577197 L6.92511876,0.549063517 C6.92511876,0.287160381 6.71533703,0.0748459399 6.45655815,0.0748459399 Z" id="Stroke-23"></path>
                    <path d="M1.01790832,2.9201514 C0.833066264,2.9201514 0.683222173,3.07180458 0.683222173,3.25887824 C0.683222173,3.44595191 0.833066264,3.59760509 1.01790832,3.59760509 L6.62390123,3.59760509 C6.80874328,3.59760509 6.95858737,3.44595191 6.95858737,3.25887824 C6.95858737,3.07180458 6.80874328,2.9201514 6.62390123,2.9201514 L1.01790832,2.9201514 Z" id="Stroke-25"></path>
                    <path d="M6.0947267,5.23470808 C6.22542976,5.36698914 6.43734131,5.36698914 6.56804438,5.23470808 C6.69874745,5.10242702 6.69874745,4.88795704 6.56804438,4.75567599 L5.01978628,3.18872562 C4.88908321,3.05644456 4.67717166,3.05644456 4.54646859,3.18872562 C4.41576552,3.32100668 4.41576552,3.53547665 4.54646859,3.66775771 L6.0947267,5.23470808 Z" id="Stroke-27"></path>
                    <path d="M6.01038579,7.09702825 C6.14108886,7.22930931 6.3530004,7.22930931 6.48370347,7.09702825 C6.61440654,6.96474719 6.61440654,6.75027722 6.48370347,6.61799616 L3.01166941,3.10404391 C2.88096634,2.97176285 2.6690548,2.97176285 2.53835173,3.10404391 C2.40764866,3.23632497 2.40764866,3.45079494 2.53835173,3.583076 L6.01038579,7.09702825 Z" id="Stroke-29"></path>
                    <path d="M6.19914877,9.61681722 C6.32985184,9.74909828 6.54176339,9.74909828 6.67246646,9.61681722 C6.80316953,9.48453616 6.80316953,9.27006619 6.67246646,9.13778513 L1.75659637,4.16256529 C1.62589331,4.03028423 1.41398176,4.03028423 1.28327869,4.16256529 C1.15257562,4.29484635 1.15257562,4.50931632 1.28327869,4.64159738 L6.19914877,9.61681722 Z" id="Stroke-31"></path>
                    <path d="M6.11547724,11.5644966 C6.24618031,11.6967776 6.45809185,11.6967776 6.58879492,11.5644966 C6.71949799,11.4322155 6.71949799,11.2177455 6.58879492,11.0854645 L2.59331173,7.04174343 C2.46260867,6.90946237 2.25069712,6.90946237 2.11999405,7.04174343 C1.98929098,7.17402449 1.98929098,7.38849447 2.11999405,7.52077553 L6.11547724,11.5644966 Z" id="Stroke-33"></path>
                    <path d="M6.09405732,13.5751791 C6.22476039,13.7074601 6.43667194,13.7074601 6.56737501,13.5751791 C6.69807808,13.442898 6.69807808,13.228428 6.56737501,13.096147 L3.26268402,9.75155816 C3.13198095,9.6192771 2.92006941,9.6192771 2.78936634,9.75155816 C2.65866327,9.88383922 2.65866327,10.0983092 2.78936634,10.2305903 L6.09405732,13.5751791 Z" id="Stroke-35"></path>
                    <path d="M6.01038579,15.4381767 C6.14108886,15.5704578 6.3530004,15.5704578 6.48370347,15.4381767 C6.61440654,15.3058956 6.61440654,15.0914257 6.48370347,14.9591446 L2.17495405,10.5983753 C2.04425099,10.4660942 1.83233944,10.4660942 1.70163637,10.5983753 C1.5709333,10.7306563 1.5709333,10.9451263 1.70163637,11.0774074 L6.01038579,15.4381767 Z" id="Stroke-37"></path>
                    <path d="M6.19914877,17.9579657 C6.32985184,18.0902467 6.54176339,18.0902467 6.67246646,17.9579657 C6.80316953,17.8256846 6.80316953,17.6112146 6.67246646,17.4789336 L1.75659637,12.5037137 C1.62589331,12.3714327 1.41398176,12.3714327 1.28327869,12.5037137 C1.15257562,12.6359948 1.15257562,12.8504648 1.28327869,12.9827458 L6.19914877,17.9579657 Z" id="Stroke-39"></path>
                    <path d="M6.11514255,19.9053063 C6.24584562,20.0375873 6.45775716,20.0375873 6.58846023,19.9053063 C6.7191633,19.7730252 6.7191633,19.5585553 6.58846023,19.4262742 L3.13717672,15.933323 C3.00647365,15.8010419 2.7945621,15.8010419 2.66385903,15.933323 C2.53315596,16.0656041 2.53315596,16.280074 2.66385903,16.4123551 L6.11514255,19.9053063 Z" id="Stroke-41"></path>
                    <path d="M6.11547724,21.7686426 C6.24618031,21.9009237 6.45809185,21.9009237 6.58879492,21.7686426 C6.71949799,21.6363616 6.71949799,21.4218916 6.58879492,21.2896105 L4.18307092,18.854842 C4.05236785,18.722561 3.8404563,18.722561 3.70975323,18.854842 C3.57905016,18.9871231 3.57905016,19.201593 3.70975323,19.3338741 L6.11547724,21.7686426 Z" id="Stroke-43"></path>
                </g>
            </g>
        </g>
    </g>
</svg>