<?xml version="1.0" encoding="UTF-8" standalone="no"?>
<svg width="52px" height="51px" viewBox="0 0 52 51" version="1.1" xmlns="http://www.w3.org/2000/svg" xmlns:xlink="http://www.w3.org/1999/xlink">
    <!-- Generator: Sketch 39.1 (31720) - http://www.bohemiancoding.com/sketch -->
    <title>ico_TODOScosmeticos_green</title>
    <desc>Created with Sketch.</desc>
    <defs>
        <polygon id="path-1" points="0 26.5042125 20.8916129 26.5042125 20.8916129 0.0003375 0 0.0003375"></polygon>
    </defs>
    <g id="Supermercado_categoria" stroke="none" stroke-width="1" fill="none" fill-rule="evenodd">
        <g id="Subcategorias_cosmeticos" transform="translate(-15.000000, -75.000000)">
            <g id="icon01-copy-5" transform="translate(15.000000, 75.000000)">
                <g id="accesorios_cosmeticos_red" transform="translate(15.000000, 12.000000)">
                    <path d="M10.2860032,14.9083875 C6.41573313,14.9083875 3.27877742,11.7828307 3.27877742,7.9268625 C3.27877742,4.07089429 6.41573313,0.9453375 10.2860032,0.9453375 C14.155694,0.9453375 17.2925516,4.07099204 17.2925516,7.9268625 C17.2925516,11.782733 14.155694,14.9083875 10.2860032,14.9083875 Z M10.2860032,0.0003375 C5.89196668,0.0003375 2.33039032,3.54897197 2.33039032,7.9268625 C2.33039032,12.304753 5.89196668,15.8533875 10.2860032,15.8533875 C14.6794737,15.8533875 18.2409387,12.304642 18.2409387,7.9268625 C18.2409387,3.54908296 14.6794737,0.0003375 10.2860032,0.0003375 Z" id="Stroke-1" fill="#44D481"></path>
                    <mask id="mask-2" fill="white">
                        <use xlink:href="#path-1"></use>
                    </mask>
                    <g id="Clip-4"></g>
                    <path d="M16.6380968,26.5042125 C16.8999866,26.5042125 17.1122903,26.292667 17.1122903,26.0317125 L17.1122903,23.0590125 C17.1122903,22.798058 16.8999866,22.5865125 16.6380968,22.5865125 L4.39170968,22.5865125 C4.12981981,22.5865125 3.91751613,22.798058 3.91751613,23.0590125 L3.91751613,26.0317125 C3.91751613,26.292667 4.12981981,26.5042125 4.39170968,26.5042125 L16.6380968,26.5042125 Z M4.86590323,26.0317125 L4.86590323,23.0590125 L4.39170968,23.5315125 L16.6380968,23.5315125 L16.1639032,23.0590125 L16.1639032,26.0317125 L16.6380968,25.5592125 L4.39170968,25.5592125 L4.86590323,26.0317125 Z" id="Stroke-3" fill="#44D481" mask="url(#mask-2)"></path>
                    <path d="M8.5965871,23.016825 C8.5965871,23.2777795 8.80889078,23.489325 9.07078065,23.489325 C9.33267051,23.489325 9.54497419,23.2777795 9.54497419,23.016825 L9.54497419,17.743725 C9.54497419,17.4827705 9.33267051,17.271225 9.07078065,17.271225 C8.80889078,17.271225 8.5965871,17.4827705 8.5965871,17.743725 L8.5965871,23.016825 Z" id="Stroke-5" fill="#44D481" mask="url(#mask-2)"></path>
                    <path d="M11.1792484,22.9959 C11.1792484,23.2568545 11.3915521,23.4684 11.6534419,23.4684 C11.9153318,23.4684 12.1276355,23.2568545 12.1276355,22.9959 L12.1276355,17.8281 C12.1276355,17.5671455 11.9153318,17.3556 11.6534419,17.3556 C11.3915521,17.3556 11.1792484,17.5671455 11.1792484,17.8281 L11.1792484,22.9959 Z" id="Stroke-6" fill="#44D481" mask="url(#mask-2)"></path>
                    <path d="M0.475683871,7.4543625 C0.220918431,7.4543625 0.0116818155,7.65495059 0.00184399743,7.90861682 C0.00146264436,7.91877818 0.00146264436,7.91877818 0.000674425389,7.95182421 C-0.00805144847,8.38625044 0.0249831863,8.99808727 0.13541711,9.72655127 C0.307223322,10.8598501 0.629025687,11.9848147 1.13880647,13.0400628 C2.69820884,16.2680315 5.67226916,18.2158875 10.3409419,18.2158875 C15.0070824,18.2158875 18.0184092,16.2710488 19.6451391,13.047385 C20.1954266,11.9568893 20.5459023,10.793486 20.7375682,9.62627222 C20.8565936,8.90142693 20.895175,8.31324887 20.891817,7.93019406 C20.8872316,7.66099086 20.6762673,7.4543625 20.4175548,7.4543625 L17.7668129,7.4543625 C17.504923,7.4543625 17.2926194,7.66590796 17.2926194,7.9268625 C17.2926194,8.18781704 17.504923,8.3993625 17.7668129,8.3993625 L20.4175548,8.3993625 L19.9434313,7.93498376 C19.9463787,8.27069585 19.9112659,8.8059956 19.8016269,9.47367896 C19.6245353,10.5521379 19.3012721,11.6252091 18.7978335,12.622865 C17.3285453,15.5345293 14.6400232,17.2708875 10.3409419,17.2708875 C6.04439293,17.2708875 3.39786253,15.5375467 1.99334353,12.6301872 C1.52796838,11.6668589 1.23170016,10.6311572 1.07316569,9.58540377 C0.971353474,8.91381182 0.941161006,8.35461497 0.948871632,7.97073388 C0.949449676,7.94668977 0.475683871,8.3993625 0.475683871,8.3993625 L2.80465161,8.3993625 C3.06654148,8.3993625 3.27884516,8.18781704 3.27884516,7.9268625 C3.27884516,7.66590796 3.06654148,7.4543625 2.80465161,7.4543625 L0.475683871,7.4543625 Z" id="Stroke-7" fill="#44D481" mask="url(#mask-2)"></path>
                    <path d="M5.56007195,8.67673705 C5.37488785,8.86125977 5.37488785,9.16043023 5.56007195,9.34495295 C5.74525605,9.52947568 6.04549879,9.52947568 6.23068289,9.34495295 L11.0572958,4.53557795 C11.2424799,4.35105523 11.2424799,4.05188477 11.0572958,3.86736205 C10.8721117,3.68283932 10.5718689,3.68283932 10.3866848,3.86736205 L5.56007195,8.67673705 Z" id="Stroke-8" fill="#44D481" mask="url(#mask-2)"></path>
                    <path d="M7.33860163,10.6599218 C7.15343677,10.8444637 7.15346796,11.1436341 7.3386713,11.3281377 C7.52387464,11.5126412 7.82411739,11.5126101 8.00928224,11.3280682 L11.2690242,8.07929324 C11.454189,7.89475134 11.4541578,7.59558089 11.2689545,7.41107734 C11.0837512,7.22657378 10.7835084,7.22660486 10.5983436,7.41114676 L7.33860163,10.6599218 Z" id="Stroke-9" fill="#44D481" mask="url(#mask-2)"></path>
                </g>
            </g>
        </g>
    </g>
</svg>