<?xml version="1.0" encoding="UTF-8" standalone="no"?>
<svg width="52px" height="51px" viewBox="0 0 52 51" version="1.1" xmlns="http://www.w3.org/2000/svg" xmlns:xlink="http://www.w3.org/1999/xlink">
    <!-- Generator: Sketch 39.1 (31720) - http://www.bohemiancoding.com/sketch -->
    <title>ico_fragancias_grey</title>
    <desc>Created with Sketch.</desc>
    <defs></defs>
    <g id="supermercado_categoria" stroke="none" stroke-width="1" fill="none" fill-rule="evenodd">
        <g id="Subcategorias_cosmeticos" transform="translate(-201.000000, -14.000000)" fill="#D4D4D4">
            <g id="icon01-copy-3" transform="translate(201.000000, 14.000000)">
                <g id="tratamiento_facial_lgreen" transform="translate(19.000000, 12.000000)">
                    <g id="Group-5" transform="translate(0.000000, 0.045637)">
                        <path d="M13.3323333,1.59646842 L12.8656667,1.11752105 L12.8656667,4.0521 L10.6788536,20.0262305 L11.141,19.6137842 L2.65833333,19.6137842 L3.1204526,20.0260324 L0.929119268,4.03397979 L0.933604803,4.10847729 L0.980938137,1.12531939 L0.514333333,1.59646842 L13.3323333,1.59646842 Z M0.0477285301,1.10972271 L0.000395196784,4.09288061 L0.00488073183,4.1673781 L2.19621407,20.1594307 C2.22860966,20.3958494 2.42570989,20.5716789 2.65833333,20.5716789 L11.141,20.5716789 C11.3736975,20.5716789 11.5708367,20.3957404 11.6031464,20.1592326 L13.7944797,4.11860106 L13.799,1.11752105 C13.799,0.853005725 13.5900662,0.638573684 13.3323333,0.638573684 L0.514333333,0.638573684 C0.259562955,0.638573684 0.0518767638,0.848282514 0.0477285301,1.10972271 Z" id="Stroke-1"></path>
                        <path d="M13.0946,4.57976316 C13.3523329,4.57976316 13.5612667,4.36533112 13.5612667,4.10081579 C13.5612667,3.83630046 13.3523329,3.62186842 13.0946,3.62186842 L0.657266667,3.62186842 C0.399533783,3.62186842 0.1906,3.83630046 0.1906,4.10081579 C0.1906,4.36533112 0.399533783,4.57976316 0.657266667,4.57976316 L13.0946,4.57976316 Z" id="Stroke-3"></path>
                    </g>
                    <path d="M8.61533333,15.9323211 C8.79942825,15.9323211 8.94866667,15.7791553 8.94866667,15.5902158 L8.94866667,8.98826842 C8.94866667,8.7993289 8.79942825,8.64616316 8.61533333,8.64616316 L4.85066667,8.64616316 C4.66657175,8.64616316 4.51733333,8.7993289 4.51733333,8.98826842 L4.51733333,15.5902158 C4.51733333,15.7791553 4.66657175,15.9323211 4.85066667,15.9323211 L8.61533333,15.9323211 Z M5.184,15.5902158 L5.184,8.98826842 L4.85066667,9.33037368 L8.61533333,9.33037368 L8.282,8.98826842 L8.282,15.5902158 L8.61533333,15.2481105 L4.85066667,15.2481105 L5.184,15.5902158 Z" id="Stroke-6"></path>
                    <g id="Group-21" transform="translate(2.000000, 0.729847)">
                        <path d="M3.32513333,23.6736842 C2.11019955,23.6736842 1.12513333,22.6626952 1.12513333,21.4157895 L1.12513333,19.409 L0.658466667,19.8879474 L9.1538,19.8879474 L8.68713333,19.409 L8.68713333,21.4157895 C8.68713333,22.6626952 7.70206712,23.6736842 6.48713333,23.6736842 L3.32513333,23.6736842 Z M9.62046667,21.4157895 L9.62046667,19.409 C9.62046667,19.1444847 9.41153288,18.9300526 9.1538,18.9300526 L0.658466667,18.9300526 C0.400733783,18.9300526 0.1918,19.1444847 0.1918,19.409 L0.1918,21.4157895 C0.1918,23.1917259 1.59473378,24.6315789 3.32513333,24.6315789 L6.48713333,24.6315789 C8.21753288,24.6315789 9.62046667,23.1917259 9.62046667,21.4157895 Z" id="Stroke-7"></path>
                        <path d="M0.170133333,3.25041053 C0.170133333,3.43935005 0.31937175,3.59251579 0.503466667,3.59251579 C0.687561583,3.59251579 0.8368,3.43935005 0.8368,3.25041053 L0.8368,0.623042105 C0.8368,0.434102586 0.687561583,0.280936842 0.503466667,0.280936842 C0.31937175,0.280936842 0.170133333,0.434102586 0.170133333,0.623042105 L0.170133333,3.25041053 Z" id="Stroke-9"></path>
                        <path d="M1.95706667,3.25041053 C1.95706667,3.43935005 2.10630508,3.59251579 2.2904,3.59251579 C2.47449492,3.59251579 2.62373333,3.43935005 2.62373333,3.25041053 L2.62373333,0.623042105 C2.62373333,0.434102586 2.47449492,0.280936842 2.2904,0.280936842 C2.10630508,0.280936842 1.95706667,0.434102586 1.95706667,0.623042105 L1.95706667,3.25041053 Z" id="Stroke-11"></path>
                        <path d="M3.60106667,3.25041053 C3.60106667,3.43935005 3.75030508,3.59251579 3.9344,3.59251579 C4.11849492,3.59251579 4.26773333,3.43935005 4.26773333,3.25041053 L4.26773333,0.623042105 C4.26773333,0.434102586 4.11849492,0.280936842 3.9344,0.280936842 C3.75030508,0.280936842 3.60106667,0.434102586 3.60106667,0.623042105 L3.60106667,3.25041053 Z" id="Stroke-13"></path>
                        <path d="M5.35226667,3.32375789 C5.35226667,3.51269741 5.50150508,3.66586316 5.6856,3.66586316 C5.86969492,3.66586316 6.01893333,3.51269741 6.01893333,3.32375789 L6.01893333,0.696389474 C6.01893333,0.507449954 5.86969492,0.354284211 5.6856,0.354284211 C5.50150508,0.354284211 5.35226667,0.507449954 5.35226667,0.696389474 L5.35226667,3.32375789 Z" id="Stroke-15"></path>
                        <path d="M6.9248,3.25041053 C6.9248,3.43935005 7.07403842,3.59251579 7.25813333,3.59251579 C7.44222825,3.59251579 7.59146667,3.43935005 7.59146667,3.25041053 L7.59146667,0.623042105 C7.59146667,0.434102586 7.44222825,0.280936842 7.25813333,0.280936842 C7.07403842,0.280936842 6.9248,0.434102586 6.9248,0.623042105 L6.9248,3.25041053 Z" id="Stroke-17"></path>
                        <path d="M8.7832,3.25041053 C8.7832,3.43935005 8.93243842,3.59251579 9.11653333,3.59251579 C9.30062825,3.59251579 9.44986667,3.43935005 9.44986667,3.25041053 L9.44986667,0.623042105 C9.44986667,0.434102586 9.30062825,0.280936842 9.11653333,0.280936842 C8.93243842,0.280936842 8.7832,0.434102586 8.7832,0.623042105 L8.7832,3.25041053 Z" id="Stroke-19"></path>
                    </g>
                </g>
            </g>
        </g>
    </g>
</svg>