<?xml version="1.0" encoding="UTF-8" standalone="no"?>
<svg width="52px" height="51px" viewBox="0 0 52 51" version="1.1" xmlns="http://www.w3.org/2000/svg" xmlns:xlink="http://www.w3.org/1999/xlink">
    <!-- Generator: Sketch 39.1 (31720) - http://www.bohemiancoding.com/sketch -->
    <title>ico_maquillaje_grey</title>
    <desc>Created with Sketch.</desc>
    <defs></defs>
    <g id="supermercado_categoria" stroke="none" stroke-width="1" fill="none" fill-rule="evenodd">
        <g id="Subcategorias_cosmeticos" transform="translate(-77.000000, -75.000000)" fill="#44D481">
            <g id="icon01-copy-6" transform="translate(77.000000, 75.000000)">
                <g id="maquillaje_dgreen" transform="translate(18.000000, 13.000000)">
                    <path d="M10.845187,14.7281086 C10.1893378,14.7281086 9.65666522,15.2630598 9.65666522,15.92188 L9.65666522,24.4067943 C9.65666522,25.065986 10.1897072,25.6013086 10.845187,25.6013086 L15.6214478,25.6013086 C16.2773326,25.6013086 16.8099696,25.0655789 16.8099696,24.4067943 L16.8099696,15.9211371 C16.8099696,15.2624844 16.2774641,14.7281086 15.622187,14.7281086 L13.5910565,14.7281086 L12.8763174,14.7281086 L10.845187,14.7281086 Z M13.5910565,15.7681086 L15.622187,15.7681086 C15.706322,15.7681086 15.775187,15.8372154 15.775187,15.9211371 L15.775187,24.4067943 C15.775187,24.4913797 15.7056618,24.5613086 15.6214478,24.5613086 L10.845187,24.5613086 C10.7610259,24.5613086 10.6914478,24.4914328 10.6914478,24.4067943 L10.6914478,15.92188 C10.6914478,15.8376131 10.7606563,15.7681086 10.845187,15.7681086 L12.8763174,15.7681086 L13.5910565,15.7681086 Z" id="Stroke-1"></path>
                    <path d="M1.18793043,-2.27373675e-13 C0.53261789,-2.27373675e-13 0.000147826087,0.535154787 0.000147826087,1.19377143 L0.000147826087,24.4065714 C0.000147826087,25.0657274 0.53241536,25.6010857 1.18793043,25.6010857 L6.32266957,25.6010857 C6.978018,25.6010857 7.51045217,25.0651525 7.51045217,24.4065714 L7.51045217,1.19377143 C7.51045217,0.535154787 6.97798211,-2.27373675e-13 6.32266957,-2.27373675e-13 L1.18793043,-2.27373675e-13 Z M6.47566957,1.19377143 L6.47566957,24.4065714 C6.47566957,24.4911302 6.40617074,24.5610857 6.32266957,24.5610857 L1.18793043,24.5610857 C1.10408631,24.5610857 1.03493043,24.4915283 1.03493043,24.4065714 L1.03493043,1.19377143 C1.03493043,1.10953093 1.10411254,1.04 1.18793043,1.04 L6.32266957,1.04 C6.40648746,1.04 6.47566957,1.10953093 6.47566957,1.19377143 Z" id="Stroke-3"></path>
                    <path d="M6.89586522,11.1719771 C7.18161254,11.1719771 7.41325652,10.9391652 7.41325652,10.6519771 C7.41325652,10.3647891 7.18161254,10.1319771 6.89586522,10.1319771 L0.551908696,10.1319771 C0.266161369,10.1319771 0.0345173913,10.3647891 0.0345173913,10.6519771 C0.0345173913,10.9391652 0.266161369,11.1719771 0.551908696,11.1719771 L6.89586522,11.1719771 Z" id="Stroke-5"></path>
                    <path d="M6.83429565,3.37197714 C7.12004298,3.37197714 7.35168696,3.13916521 7.35168696,2.85197714 C7.35168696,2.56478907 7.12004298,2.33197714 6.83429565,2.33197714 L0.675121739,2.33197714 C0.389374412,2.33197714 0.157730435,2.56478907 0.157730435,2.85197714 C0.157730435,3.13916521 0.389374412,3.37197714 0.675121739,3.37197714 L6.83429565,3.37197714 Z" id="Stroke-7"></path>
                    <path d="M16.1968609,23.0576914 C16.4826082,23.0576914 16.7142522,22.8248795 16.7142522,22.5376914 C16.7142522,22.2505034 16.4826082,22.0176914 16.1968609,22.0176914 L10.2838174,22.0176914 C9.99807006,22.0176914 9.76642609,22.2505034 9.76642609,22.5376914 C9.76642609,22.8248795 9.99807006,23.0576914 10.2838174,23.0576914 L16.1968609,23.0576914 Z" id="Stroke-9"></path>
                    <path d="M12.6536913,15.2175029 C12.6536913,15.5046909 12.8853353,15.7375029 13.1710826,15.7375029 C13.4568299,15.7375029 13.6884739,15.5046909 13.6884739,15.2175029 L13.6884739,2.40321714 C13.6884739,2.11602907 13.4568299,1.88321714 13.1710826,1.88321714 C12.8853353,1.88321714 12.6536913,2.11602907 12.6536913,2.40321714 L12.6536913,15.2175029 Z" id="Stroke-11"></path>
                    <path d="M15.0180957,2.85517143 C15.303843,2.85517143 15.535487,2.6223595 15.535487,2.33517143 C15.535487,2.04798336 15.303843,1.81517143 15.0180957,1.81517143 L11.4480957,1.81517143 C11.1623483,1.81517143 10.9307043,2.04798336 10.9307043,2.33517143 C10.9307043,2.6223595 11.1623483,2.85517143 11.4480957,2.85517143 L15.0180957,2.85517143 Z" id="Stroke-13"></path>
                    <path d="M15.7335739,4.25337714 C16.0193212,4.25337714 16.2509652,4.02056521 16.2509652,3.73337714 C16.2509652,3.44618907 16.0193212,3.21337714 15.7335739,3.21337714 L10.7333565,3.21337714 C10.4476092,3.21337714 10.2159652,3.44618907 10.2159652,3.73337714 C10.2159652,4.02056521 10.4476092,4.25337714 10.7333565,4.25337714 L15.7335739,4.25337714 Z" id="Stroke-15"></path>
                    <path d="M16.0905739,5.65091429 C16.3763212,5.65091429 16.6079652,5.41810236 16.6079652,5.13091429 C16.6079652,4.84372622 16.3763212,4.61091429 16.0905739,4.61091429 L10.3756174,4.61091429 C10.0898701,4.61091429 9.85822609,4.84372622 9.85822609,5.13091429 C9.85822609,5.41810236 10.0898701,5.65091429 10.3756174,5.65091429 L16.0905739,5.65091429 Z" id="Stroke-17"></path>
                    <path d="M16.0905739,7.04852571 C16.3763212,7.04852571 16.6079652,6.81571378 16.6079652,6.52852571 C16.6079652,6.24133764 16.3763212,6.00852571 16.0905739,6.00852571 L10.3756174,6.00852571 C10.0898701,6.00852571 9.85822609,6.24133764 9.85822609,6.52852571 C9.85822609,6.81571378 10.0898701,7.04852571 10.3756174,7.04852571 L16.0905739,7.04852571 Z" id="Stroke-19"></path>
                    <path d="M15.7335739,8.44673143 C16.0193212,8.44673143 16.2509652,8.2139195 16.2509652,7.92673143 C16.2509652,7.63954336 16.0193212,7.40673143 15.7335739,7.40673143 L10.7333565,7.40673143 C10.4476092,7.40673143 10.2159652,7.63954336 10.2159652,7.92673143 C10.2159652,8.2139195 10.4476092,8.44673143 10.7333565,8.44673143 L15.7335739,8.44673143 Z" id="Stroke-21"></path>
                    <path d="M15.018613,9.84426857 C15.3043604,9.84426857 15.5360043,9.61145664 15.5360043,9.32426857 C15.5360043,9.0370805 15.3043604,8.80426857 15.018613,8.80426857 L11.4478739,8.80426857 C11.1621266,8.80426857 10.9304826,9.0370805 10.9304826,9.32426857 C10.9304826,9.61145664 11.1621266,9.84426857 11.4478739,9.84426857 L15.018613,9.84426857 Z" id="Stroke-23"></path>
                </g>
            </g>
        </g>
    </g>
</svg>