<?xml version="1.0" encoding="UTF-8" standalone="no"?>
<svg width="52px" height="51px" viewBox="0 0 52 51" version="1.1" xmlns="http://www.w3.org/2000/svg" xmlns:xlink="http://www.w3.org/1999/xlink">
    <!-- Generator: Sketch 39.1 (31720) - http://www.bohemiancoding.com/sketch -->
    <title>ico_accesorios_green</title>
    <desc>Created with Sketch.</desc>
    <defs>
        <polygon id="path-1" points="0 25.522575 19.8967742 25.522575 19.8967742 0.000325 0 0.000325"></polygon>
    </defs>
    <g id="supermercado_categoria" stroke="none" stroke-width="1" fill="none" fill-rule="evenodd">
        <g id="Subcategorias_cosmeticos" transform="translate(-263.000000, -75.000000)">
            <g id="icon01-copy-9" transform="translate(263.000000, 75.000000)">
                <g id="accesorios_cosmeticos_red" transform="translate(16.000000, 12.000000)">
                    <path d="M9.79619355,14.356225 C6.11022203,14.356225 3.12264516,11.3464296 3.12264516,7.633275 C3.12264516,3.92012043 6.11022203,0.910325 9.79619355,0.910325 C13.4816133,0.910325 16.4690968,3.92021456 16.4690968,7.633275 C16.4690968,11.3463354 13.4816133,14.356225 9.79619355,14.356225 Z M9.79619355,0.000325 C5.61139684,0.000325 2.21941935,3.41752857 2.21941935,7.633275 C2.21941935,11.8490214 5.61139684,15.266225 9.79619355,15.266225 C13.9804512,15.266225 17.3723226,11.8489146 17.3723226,7.633275 C17.3723226,3.41763544 13.9804512,0.000325 9.79619355,0.000325 Z" id="Stroke-1" fill="#44D481"></path>
                    <mask id="mask-2" fill="white">
                        <use xlink:href="#path-1"></use>
                    </mask>
                    <g id="Clip-4"></g>
                    <path d="M15.8458065,25.522575 C16.0952254,25.522575 16.2974194,25.3188646 16.2974194,25.067575 L16.2974194,22.204975 C16.2974194,21.9536854 16.0952254,21.749975 15.8458065,21.749975 L4.18258065,21.749975 C3.93316173,21.749975 3.73096774,21.9536854 3.73096774,22.204975 L3.73096774,25.067575 C3.73096774,25.3188646 3.93316173,25.522575 4.18258065,25.522575 L15.8458065,25.522575 Z M4.63419355,25.067575 L4.63419355,22.204975 L4.18258065,22.659975 L15.8458065,22.659975 L15.3941935,22.204975 L15.3941935,25.067575 L15.8458065,24.612575 L4.18258065,24.612575 L4.63419355,25.067575 Z" id="Stroke-3" fill="#44D481" mask="url(#mask-2)"></path>
                    <path d="M8.18722581,22.16435 C8.18722581,22.4156396 8.38941979,22.61935 8.63883871,22.61935 C8.88825763,22.61935 9.09045161,22.4156396 9.09045161,22.16435 L9.09045161,17.08655 C9.09045161,16.8352604 8.88825763,16.63155 8.63883871,16.63155 C8.38941979,16.63155 8.18722581,16.8352604 8.18722581,17.08655 L8.18722581,22.16435 Z" id="Stroke-5" fill="#44D481" mask="url(#mask-2)"></path>
                    <path d="M10.6469032,22.1442 C10.6469032,22.3954896 10.8490972,22.5992 11.0985161,22.5992 C11.347935,22.5992 11.550129,22.3954896 11.550129,22.1442 L11.550129,17.1678 C11.550129,16.9165104 11.347935,16.7128 11.0985161,16.7128 C10.8490972,16.7128 10.6469032,16.9165104 10.6469032,17.1678 L10.6469032,22.1442 Z" id="Stroke-6" fill="#44D481" mask="url(#mask-2)"></path>
                    <path d="M0.453032258,7.178275 C0.210398505,7.178275 0.0111255386,7.3714339 0.00175618803,7.61570508 C0.00139299463,7.6254901 0.00139299463,7.6254901 0.000642309894,7.6573122 C-0.00766804616,8.07564858 0.0237935108,8.66482478 0.128968677,9.36630863 C0.29259364,10.4576334 0.599072083,11.5409327 1.08457759,12.5570975 C2.56972271,15.6655118 5.40216111,17.541225 9.84851613,17.541225 C14.2924595,17.541225 17.1603897,15.6684174 18.7096563,12.5641485 C19.2337396,11.5140416 19.567526,10.3937273 19.750065,9.26974362 C19.8634225,8.57174445 19.9001666,8.00535077 19.8969686,7.63648317 C19.8926015,7.37725046 19.6916831,7.178275 19.4452903,7.178275 L16.9207742,7.178275 C16.6713553,7.178275 16.4691613,7.38198544 16.4691613,7.633275 C16.4691613,7.88456456 16.6713553,8.088275 16.9207742,8.088275 L19.4452903,8.088275 L18.9937441,7.64109548 C18.9965511,7.96437378 18.9631103,8.47984761 18.8586923,9.12280196 C18.6900336,10.161318 18.3821639,11.1946458 17.9026986,12.1553515 C16.5033764,14.9591764 13.9428792,16.631225 9.84851613,16.631225 C5.7565647,16.631225 3.23605955,14.962082 1.89842241,12.1624025 C1.45520798,11.234753 1.17304777,10.2374106 1.02206256,9.23038882 C0.925098547,8.58367065 0.896343815,8.04518479 0.903687268,7.67552151 C0.904237787,7.65236792 0.453032258,8.088275 0.453032258,8.088275 L2.67109677,8.088275 C2.92051569,8.088275 3.12270968,7.88456456 3.12270968,7.633275 C3.12270968,7.38198544 2.92051569,7.178275 2.67109677,7.178275 L0.453032258,7.178275 Z" id="Stroke-7" fill="#44D481" mask="url(#mask-2)"></path>
                    <path d="M5.29530661,8.35537641 C5.11894081,8.53306497 5.11894081,8.82115503 5.29530661,8.99884359 C5.47167242,9.17653214 5.7576179,9.17653214 5.93398371,8.99884359 L10.5307579,4.36759359 C10.7071237,4.18990503 10.7071237,3.90181497 10.5307579,3.72412641 C10.3543921,3.54643786 10.0684466,3.54643786 9.89208081,3.72412641 L5.29530661,8.35537641 Z" id="Stroke-8" fill="#44D481" mask="url(#mask-2)"></path>
                    <path d="M6.98914441,10.2651098 C6.81279692,10.4428169 6.81282663,10.7309069 6.98921076,10.908577 C7.16559489,11.0862471 7.45154037,11.0862172 7.62788785,10.9085102 L10.732404,7.78006016 C10.9087515,7.60235314 10.9087218,7.31426308 10.7323376,7.13659299 C10.5559535,6.9589229 10.270008,6.95895283 10.0936605,7.13665984 L6.98914441,10.2651098 Z" id="Stroke-9" fill="#44D481" mask="url(#mask-2)"></path>
                </g>
            </g>
        </g>
    </g>
</svg>