<?xml version="1.0" encoding="UTF-8" standalone="no"?>
<svg width="52px" height="51px" viewBox="0 0 52 51" version="1.1" xmlns="http://www.w3.org/2000/svg" xmlns:xlink="http://www.w3.org/1999/xlink">
    <!-- Generator: Sketch 39.1 (31720) - http://www.bohemiancoding.com/sketch -->
    <title>ico_aguardiente_green</title>
    <desc>Created with Sketch.</desc>
    <defs>
        <polygon id="path-1" points="0 25.5669556 16.7995417 25.5669556 16.7995417 0.000288888889 0 0.000288888889"></polygon>
    </defs>
    <g id="supermercado_categoria" stroke="none" stroke-width="1" fill="none" fill-rule="evenodd">
        <g id="Subcategorias_licores" transform="translate(-139.000000, -136.000000)">
            <g id="icon01-copy-12" transform="translate(139.000000, 136.000000)">
                <g id="aguardiente_ron_blue" transform="translate(17.000000, 13.000000)">
                    <path d="M2.19420417,13.3882667 C1.92007917,13.3882667 1.69837083,13.1622111 1.69837083,12.8827111 C1.69837083,11.9784889 1.96612083,11.2526556 2.49382917,10.7254333 C3.33745417,9.8826 4.53949583,9.89776667 4.58482917,9.89993333 C4.85895417,9.90571111 5.07570417,10.1368222 5.07074583,10.4156 C5.06437083,10.6943778 4.83132917,10.9435444 4.5664125,10.9103222 L4.56570417,10.9103222 C4.52674583,10.9103222 3.71287083,10.9182667 3.18232917,11.4534333 C2.8557875,11.7827667 2.6900375,12.2637667 2.6900375,12.8827111 C2.6900375,13.1622111 2.46832917,13.3882667 2.19420417,13.3882667 L2.19420417,13.3882667 Z" id="Fill-1" fill="#44D481"></path>
                    <path d="M10.5613917,25.3204611 L2.52818333,25.2901278 C1.01589167,24.7361833 0.000141666667,23.2462389 0.000141666667,21.5844056 L0.000141666667,12.9516833 C0.000141666667,10.2874056 2.047225,8.11857222 4.57030833,8.10340556 C4.54764167,7.39562778 4.609975,6.78029444 4.754475,6.26607222 C4.312475,5.88329444 4.0511,5.31129444 4.0511,4.68946111 L4.0511,2.09451667 C4.0511,0.920183333 4.92801667,7.22222223e-05 6.04718333,7.22222223e-05 L8.64818333,7.22222223e-05 C9.76735,7.22222223e-05 10.6442667,0.920183333 10.6442667,2.09451667 L10.6442667,4.68946111 C10.6442667,5.27590556 10.377225,5.85151667 9.94089167,6.24946111 C10.0868083,6.74923889 10.1470167,7.36168333 10.1236417,8.10340556 C12.5900583,8.11785 14.6831833,10.2772944 14.7951,12.9300167 L14.7958083,15.8275722 L13.8034333,15.8275722 L13.8034333,12.9516833 C13.7141833,10.8456833 12.051725,9.11451667 10.09885,9.11451667 L9.06185,9.11451667 L9.10364167,8.56851667 C9.1341,8.18573889 9.225475,7.02223889 8.89539167,6.27329444 L8.71264167,5.85729444 L9.1001,5.62835 C9.37493333,5.46729444 9.6526,5.11340556 9.6526,4.68946111 L9.6526,2.09451667 C9.6526,1.47701667 9.22051667,1.01118333 8.64818333,1.01118333 L6.04718333,1.01118333 C5.47414167,1.01118333 5.04276667,1.47701667 5.04276667,2.09451667 L5.04276667,4.68946111 C5.04276667,5.08812778 5.24676667,5.44418333 5.57543333,5.61823889 L5.98130833,5.83273889 L5.804225,6.26246111 C5.64839167,6.63801667 5.48618333,7.34218333 5.59030833,8.56490556 L5.63776667,9.11451667 L4.59651667,9.11451667 C2.60893333,9.11451667 0.991808333,10.8355722 0.991808333,12.9516833 L0.991808333,21.5844056 C0.991808333,22.7926833 1.71005833,23.8767389 2.78601667,24.30935 L10.5613917,24.30935 L10.5613917,25.3204611 Z" id="Fill-3" fill="#44D481"></path>
                    <mask id="mask-2" fill="white">
                        <use xlink:href="#path-1"></use>
                    </mask>
                    <g id="Clip-7"></g>
                    <polygon id="Fill-6" fill="#44D481" mask="url(#mask-2)" points="5.34720833 6.22151111 9.347875 6.22151111 9.347875 5.49928889 5.34720833 5.49928889"></polygon>
                    <polygon id="Fill-8" fill="#44D481" mask="url(#mask-2)" points="5.046875 9.11473333 9.547625 9.11473333 9.547625 8.39251111 5.046875 8.39251111"></polygon>
                    <path d="M7.42227083,20.23385 C5.33552083,20.23385 3.63764583,18.5026833 3.63764583,16.3742944 C3.63764583,14.2466278 5.33552083,12.5154611 7.42227083,12.5154611 C9.11377083,12.5154611 10.6133125,13.67535 11.0680625,15.3364611 L10.3866458,15.5307389 C10.0161875,14.1809056 8.79714583,13.2376833 7.42227083,13.2376833 C5.7258125,13.2376833 4.34597917,14.6445722 4.34597917,16.3742944 C4.34597917,18.1040167 5.7258125,19.5116278 7.42227083,19.5116278 C8.09802083,19.5116278 8.73977083,19.2920722 9.27810417,18.8760722 L9.7059375,19.4516833 C9.04364583,19.9630167 8.2545625,20.23385 7.42227083,20.23385" id="Fill-9" fill="#44D481" mask="url(#mask-2)"></path>
                    <path d="M9.50923333,16.1840611 L10.54765,23.9392833 C10.54765,24.2736722 10.8239,24.5553389 11.1518583,24.5553389 L14.1020667,24.5553389 C14.430025,24.5553389 14.7069833,24.2736722 14.7069833,23.9392833 L14.71265,23.6605056 L15.7956917,16.1840611 L9.50923333,16.1840611 Z M14.1020667,25.5671722 L11.1518583,25.5671722 C10.2714,25.5671722 9.555275,24.8362833 9.555275,23.9392833 L9.555275,23.7356167 L8.505525,16.1378389 C8.505525,15.9161167 8.59335833,15.7370056 8.65710833,15.6062833 L8.75131667,15.4733944 C8.99498333,15.22495 9.23935833,15.17295 9.40156667,15.17295 L15.90265,15.17295 C16.20865,15.17295 16.4601083,15.3022278 16.6046083,15.53045 C16.7994,15.76445 16.7994,16.0136167 16.7994,16.1378389 L16.7937333,16.2107833 L16.1434833,20.7485056 L15.8020667,20.69795 L16.1434833,20.7506722 L15.69865,23.9392833 C15.69865,24.8362833 14.9832333,25.5671722 14.1020667,25.5671722 L14.1020667,25.5671722 Z" id="Fill-10" fill="#44D481" mask="url(#mask-2)"></path>
                    <path d="M12.6566417,23.7342444 C10.7944333,23.7342444 9.79993333,22.2349111 9.53430833,21.4419111 C9.47055833,21.2534111 9.56901667,21.0497444 9.75318333,20.9847444 C9.939475,20.9204667 10.1399333,21.0194111 10.2036833,21.2071889 C10.228475,21.2815778 10.8418917,23.0120222 12.6566417,23.0120222 C14.4968917,23.0120222 15.1853917,21.3213 15.192475,21.3046889 C15.2661417,21.1190778 15.4743917,21.0302444 15.6528917,21.1039111 C15.8349333,21.1783 15.9227667,21.3891889 15.8498083,21.5740778 C15.8151,21.6621889 14.9700583,23.7342444 12.6566417,23.7342444" id="Fill-11" fill="#44D481" mask="url(#mask-2)"></path>
                    <path d="M10.912725,21.3503333 C10.738475,21.3503333 10.5861833,21.2188889 10.5628083,21.0368889 L10.1300167,17.7486111 C10.1031,17.5507222 10.2398083,17.3687222 10.4331833,17.3427222 C10.6230167,17.3167222 10.8057667,17.4539444 10.8312667,17.6525556 L11.2640583,20.9415556 C11.2902667,21.1387222 11.1542667,21.3207222 10.9601833,21.3474444 C10.9446,21.3496111 10.9283083,21.3503333 10.912725,21.3503333" id="Fill-12" fill="#44D481" mask="url(#mask-2)"></path>
                </g>
            </g>
        </g>
    </g>
</svg>