<?xml version="1.0" encoding="UTF-8" standalone="no"?>
<svg width="52px" height="51px" viewBox="0 0 52 51" version="1.1" xmlns="http://www.w3.org/2000/svg" xmlns:xlink="http://www.w3.org/1999/xlink">
    <!-- Generator: Sketch 39.1 (31720) - http://www.bohemiancoding.com/sketch -->
    <title>ico_vino_green</title>
    <desc>Created with Sketch.</desc>
    <defs></defs>
    <g id="supermercado_categoria" stroke="none" stroke-width="1" fill="none" fill-rule="evenodd">
        <g id="Subcategorias_licores" transform="translate(-387.000000, -136.000000)" fill="#44D481">
            <g id="icon01-copy-16" transform="translate(387.000000, 136.000000)">
                <g id="vino_red" transform="translate(18.000000, 12.000000)">
                    <path d="M8.14460952,16.0685486 C6.77775238,16.0685486 5.8528,15.5054057 5.79641905,15.46992 C5.54575238,15.31332 5.46727619,14.9808343 5.62194286,14.7270343 C5.77584762,14.4740057 6.10422857,14.39532 6.35337143,14.5496057 C6.42422857,14.5912629 7.95718095,15.4961486 9.9160381,14.5804629 C10.181181,14.4562629 10.4996571,14.57352 10.6238476,14.8450629 C10.7472762,15.1158343 10.6307048,15.4367486 10.3625143,15.56172 C9.55413333,15.93972 8.79832381,16.0685486 8.14460952,16.0685486" id="Fill-1"></path>
                    <path d="M12.2606476,26.24778 L12.2591238,26.24778 C11.2038857,26.2392943 10.2149333,25.8150086 9.47512381,25.05438 C8.73455238,24.2922086 8.33150476,23.2847229 8.33988571,22.2162943 L8.37645714,17.3879229 C8.38712381,16.0541229 9.2008381,14.8252371 10.4496,14.2566943 C12.7734095,13.1990657 14.409981,10.5098657 14.4320762,7.71729429 C14.4541714,4.91469429 13.7090286,2.13986571 13.4195048,1.16940857 L5.6176,1.10769429 C5.32426667,1.10538 5.08655238,0.861608571 5.0888381,0.563837143 C5.09112381,0.265294286 5.2976,0.0161228571 5.62674286,0.0276942857 L14.1936,0.09558 L14.3155048,0.45738 C14.3657905,0.603951429 15.5269333,4.08463714 15.4987429,7.72578 C15.4743619,10.9256657 13.577981,14.01678 10.8869333,15.2418086 C10.0038857,15.6437229 9.45074286,16.4691514 9.44388571,17.3964086 L9.40655238,22.22478 C9.40045714,23.0046943 9.69455238,23.7406371 10.2347429,24.2960657 C10.7756952,24.8522657 11.497219,25.1616086 12.2682667,25.16778 L12.2606476,26.24778 Z" id="Fill-5"></path>
                    <path d="M2.96007619,25.46694 L2.9288381,25.46694 C2.63474286,25.4646938 2.39779048,25.2280893 2.40007619,24.9383238 C2.4023619,24.649307 2.6256,24.4209388 2.93798095,24.4186926 L2.95855238,24.4186926 C4.52579048,24.4186926 5.85607619,23.1098808 5.86826667,21.5502383 L5.9056,16.8630748 C5.91321905,15.9638283 5.37302857,15.1536827 4.49607619,14.7501075 C1.8248381,13.5199142 -0.0243047619,10.4919766 7.61904761e-05,7.38616925 C0.0282666667,3.85207789 1.24426667,0.490947369 1.29607619,0.350182714 L1.42407619,-0.000231428572 L2.72845714,0.0102510458 C3.02331429,0.0124972903 3.26026667,0.249101711 3.25798095,0.538867252 C3.25569524,0.826386549 3.01645714,1.05849848 2.72388571,1.05849848 L2.72007619,1.05849848 L2.18140952,1.05475474 C1.87664762,1.99293619 1.0888381,4.67944462 1.06750476,7.39365673 C1.04540952,10.1041251 2.6416,12.7382211 4.94788571,13.8006948 C6.18826667,14.3719897 6.98293333,15.5774742 6.97302857,16.871311 L6.93569524,21.5577258 C6.91740952,23.7201105 5.1376,25.46694 2.96007619,25.46694" id="Fill-7"></path>
                    <path d="M13.0441143,26.2383686 L2.96487619,26.2383686 C2.67078095,26.2383686 2.43154286,25.9969114 2.43154286,25.6983686 C2.43154286,25.3998257 2.67078095,25.1583686 2.96487619,25.1583686 L13.0441143,25.1583686 C13.3389714,25.1583686 13.5774476,25.3998257 13.5774476,25.6983686 C13.5774476,25.9969114 13.3389714,26.2383686 13.0441143,26.2383686" id="Fill-10"></path>
                    <path d="M11.0843429,12.84876 C10.9753905,12.84876 10.8672,12.8017029 10.7917714,12.7099029 C10.6569143,12.54636 10.6790095,12.30336 10.8405333,12.1668171 C11.7898667,11.3645314 12.4870095,10.1611029 12.7529143,8.86510286 C12.795581,8.65527429 13.002819,8.52567429 13.2032,8.56578857 C13.4096762,8.60898857 13.5422476,8.81341714 13.498819,9.02170286 C13.1986286,10.4858743 12.4070095,11.8474457 11.3281524,12.7592743 C11.2572952,12.8194457 11.1704381,12.84876 11.0843429,12.84876" id="Fill-12"></path>
                    <path d="M1.40944762,9.59464286 C1.28220952,9.59464286 1.15725714,9.52984286 1.08487619,9.41104286 C0.975161905,9.22975714 1.03078095,8.99215714 1.20906667,8.8803 C9.05668571,3.98172857 14.5545905,4.4793 14.7808762,4.50167143 C14.9896381,4.52327143 15.142019,4.7115 15.1214476,4.92364286 C15.1008762,5.13501429 14.9081143,5.28775714 14.7046857,5.26924286 C14.6528762,5.26615714 9.21211429,4.79018571 1.60982857,9.53755714 C1.54735238,9.57612857 1.47801905,9.59464286 1.40944762,9.59464286" id="Fill-14"></path>
                </g>
            </g>
        </g>
    </g>
</svg>