<?xml version="1.0" encoding="UTF-8" standalone="no"?>
<svg width="52px" height="51px" viewBox="0 0 52 51" version="1.1" xmlns="http://www.w3.org/2000/svg" xmlns:xlink="http://www.w3.org/1999/xlink">
    <!-- Generator: Sketch 39.1 (31720) - http://www.bohemiancoding.com/sketch -->
    <title>ico_otroslicores_grey</title>
    <desc>Created with Sketch.</desc>
    <defs></defs>
    <g id="supermercado_categoria" stroke="none" stroke-width="1" fill="none" fill-rule="evenodd">
        <g id="Subcategorias_licores" transform="translate(-77.000000, -75.000000)" fill="#D4D4D4">
            <g id="icon01-copy-9" transform="translate(77.000000, 75.000000)">
                <g id="otros_licores_blue" transform="translate(16.000000, 14.000000)">
                    <path d="M19.2211131,8.43693222 C18.8875368,6.93614647 18.2378459,5.34838967 17.3650104,3.73583039 C16.9107267,2.8965433 16.4244924,2.10363939 15.9380099,1.38064074 C15.7674467,1.12715382 15.6088271,0.900234398 15.4661139,0.702870432 C15.3795724,0.583188486 15.316914,0.499122966 15.282104,0.453678009 C15.1763747,0.315646597 15.010193,0.234375 14.8336799,0.234375 L4.87127988,0.234375 C4.69476014,0.234375 4.52857299,0.315652686 4.42284441,0.453692778 C4.38804359,0.499129017 4.32540255,0.583177524 4.23888541,0.702835186 C4.09621312,0.90015829 3.93763904,1.12703163 3.76712495,1.38046826 C3.28078304,2.10332264 2.79468958,2.89607777 2.3405374,3.73521965 C1.46768174,5.34800449 0.818052681,6.93600156 0.484670549,8.43701336 C-0.609551587,13.3636132 1.84897138,16.5472136 8.75353241,16.8478946 L8.21847988,16.3015625 L8.21847988,21.9859375 L8.59564516,21.469031 L1.97644516,23.7018435 C1.37927943,23.9032816 1.52749249,24.765625 2.15927988,24.765625 L17.5464799,24.765625 C18.1782195,24.765625 18.3264833,23.90338 17.7293936,23.7018702 L11.1133936,21.4690577 L11.4904799,21.9859375 L11.4904799,16.3015625 L10.9554326,16.8478943 C17.858693,16.5472071 20.3161336,13.3635157 19.2211131,8.43693222 Z M10.3704799,16.3015625 L10.3704799,21.9859375 C10.3704799,22.2191195 10.5218844,22.4266527 10.7475662,22.5028173 L17.3635662,24.7356298 L17.5464799,23.671875 L2.15927988,23.671875 L2.34211459,24.7356565 L8.96131459,22.502844 C9.18703707,22.4267025 9.33847988,22.2191495 9.33847988,21.9859375 L9.33847988,16.3015625 C9.33847988,16.0090058 9.10270793,15.7682636 8.80342734,15.7552304 C2.59751481,15.4849743 0.630932918,12.9384002 1.57921973,8.66885614 C1.88814908,7.27793997 2.50170266,5.77812826 3.33074248,4.24630241 C3.76718277,3.43988695 4.23529553,2.67645601 4.70315985,1.98106505 C4.86661793,1.73811581 5.01816087,1.521302 5.15379873,1.33370786 C5.23426768,1.22241518 5.29090242,1.14642561 5.31971534,1.10880722 L4.87127988,1.328125 L14.8336799,1.328125 L14.3852557,1.10882199 C14.4140783,1.14645033 14.4707309,1.22245818 14.5512247,1.33377644 C14.6869038,1.52141282 14.8384927,1.73827413 15.0020003,1.9812751 C15.4700055,2.67681328 15.9382591,3.44039609 16.3748306,4.24695979 C17.2038627,5.77859251 17.8174839,7.27819977 18.1265999,8.66893729 C19.0755855,12.9384977 17.1099956,15.4849809 10.9055272,15.7552307 C10.6062487,15.7682664 10.3704799,16.0090078 10.3704799,16.3015625 Z" id="Stroke-1"></path>
                    <path d="M5.38937571,12.3888674 C5.64950195,12.5522429 5.99599655,12.4787533 6.16329306,12.2247238 C6.33058958,11.9706942 6.25533622,11.6323206 5.99520998,11.4689451 C4.57766839,10.5786406 5.77623616,6.88722429 7.75567347,4.22778764 C7.93751573,3.98347681 7.88212167,3.64146644 7.63194738,3.46388611 C7.38177309,3.28630577 7.03155448,3.34040153 6.84971222,3.58471236 C4.48916133,6.75618717 3.12254837,10.9651585 5.38937571,12.3888674 Z" id="Stroke-3"></path>
                </g>
            </g>
        </g>
    </g>
</svg>