<?xml version="1.0" encoding="UTF-8" standalone="no"?>
<svg width="52px" height="51px" viewBox="0 0 52 51" version="1.1" xmlns="http://www.w3.org/2000/svg" xmlns:xlink="http://www.w3.org/1999/xlink">
    <!-- Generator: Sketch 39.1 (31720) - http://www.bohemiancoding.com/sketch -->
    <title>ico_wisky_grey</title>
    <desc>Created with Sketch.</desc>
    <defs></defs>
    <g id="supermercado_categoria" stroke="none" stroke-width="1" fill="none" fill-rule="evenodd">
        <g id="Subcategorias_licores" transform="translate(-139.000000, -75.000000)" fill="#D4D4D4">
            <g id="icon01-copy-20" transform="translate(139.000000, 75.000000)">
                <g id="whiskey_dgreen" transform="translate(20.000000, 11.000000)">
                    <path d="M11.1831569,23.9947872 C11.1049816,23.469495 11.0649882,22.8651028 11.0649882,22.19847 C11.0649882,21.415138 11.1113036,20.2497655 11.2067245,18.6404314 C11.260677,17.7426448 11.3170622,16.8913796 11.4118443,15.5124937 C11.5387082,13.6689411 11.5772924,13.0486598 11.5816621,12.6679469 C11.598714,11.21986 10.499742,9.83615269 9.17065372,9.39681518 C8.91426056,9.312063 8.82527983,8.98114028 8.91834609,8.41362126 C9.12505477,7.15102577 9.06421565,6.11807705 8.71449293,4.98926451 C8.65181088,4.78774575 8.69890776,4.57853923 8.82850829,4.36958685 C8.88374282,4.28053331 8.93582731,4.21845256 8.97132335,4.18325232 C9.16236565,4.00452557 9.27557647,3.74342159 9.27557647,3.46927 L9.27557647,0.99827 C9.27557647,0.446950473 8.8249407,6.99999999e-05 8.26898824,6.99999999e-05 L3.37934118,6.99999999e-05 C2.8238801,6.99999999e-05 2.37345882,0.447163168 2.37345882,0.99827 L2.37345882,3.46857 C2.37345882,3.74200038 2.48608554,4.00333608 2.68581548,4.19177342 C2.71052102,4.21392646 2.79831176,4.32432926 2.86140366,4.44633095 C2.95892103,4.63490166 2.98824004,4.816287 2.9346236,4.98900258 C2.58443784,6.1161252 2.52377632,7.14903515 2.73066111,8.4134498 C2.82364759,8.98048244 2.73439938,9.31152813 2.47813102,9.39596492 C1.14847151,9.83549101 0.0496178567,11.2192951 0.0666689436,12.6680884 C0.0716391063,13.0464043 0.107778034,13.6254838 0.236478505,15.5032968 C0.339872773,17.0107449 0.389305012,17.7553867 0.442329354,18.6400434 C0.537819498,20.2589706 0.584047059,21.418151 0.584047059,22.19847 C0.584047059,22.8667779 0.54401818,23.4717072 0.465865839,23.9941713 L0.954635294,24.06677 L0.46588042,23.9947739 C0.43171463,24.2228632 0.391362611,24.4276297 0.346297394,24.6100448 C0.26397146,24.9432839 0.188192051,25.1314359 0.150152146,25.1961203 C0.0564863644,25.3394518 0.000282352941,25.5281769 0.000282352941,25.72087 L0.000282352941,26.87377 C0.000282352941,27.1381671 0.106014832,27.392286 0.29465312,27.5793523 C0.489874065,27.7729464 0.738604562,27.8790708 1.02098248,27.8710701 L5.82404733,27.8621691 L10.6405178,27.8712691 C10.9087836,27.87127 11.165038,27.7664186 11.3536763,27.5793523 C11.5424112,27.3921903 11.6487529,27.1387332 11.6487529,26.87377 L11.6487529,25.72087 C11.6487529,25.5386711 11.5941606,25.3537602 11.4996538,25.1980209 C11.4199682,25.0663176 11.2852801,24.6766869 11.1831569,23.9947872 Z M10.6605176,26.87377 C10.6519261,26.8893253 5.82404692,26.8821709 5.82404692,26.8821709 L1.00592914,26.8912709 C0.990478711,26.8834501 0.988517647,25.72087 0.988517647,25.72087 C1.09040153,25.5426009 1.20154778,25.2666369 1.30614751,24.8432378 C1.35855711,24.631094 1.40477378,24.3965674 1.44339017,24.1387661 L0.954635294,24.06607 L1.44340475,24.1379687 C1.52911012,23.5650111 1.57228235,22.9125784 1.57228235,22.19847 C1.57228235,21.3948139 1.52540227,20.2192711 1.42885101,18.5823577 C1.37557782,17.6935455 1.32601925,16.9470007 1.22243744,15.4368183 C1.09617004,13.5945052 1.05942329,13.0056862 1.05482865,12.6559862 C1.04303982,11.6542767 1.85156252,10.6360911 2.79018313,10.3258248 C3.65222444,10.0417947 3.8677863,9.24221754 3.7061108,8.25631874 C3.5230581,7.13755817 3.57477825,6.2568969 3.87908359,5.27744686 C4.01712099,4.83278466 3.94676269,4.39750507 3.74074928,3.99913405 C3.62044306,3.76649623 3.45642165,3.56022819 3.3546739,3.47053943 C3.36365958,3.47862963 3.36169412,0.99827 3.36169412,0.99827 C3.36169412,0.988193499 8.26898824,0.98007 8.26898824,0.98007 C8.27915342,0.98007 8.28734118,3.46927 8.28734118,3.46927 C8.18680539,3.57530334 8.08764016,3.69350076 7.98675164,3.85616134 C7.72115396,4.28437924 7.61194791,4.76947751 7.76999913,5.27759942 C8.07389741,6.25850381 8.12578152,7.13941113 7.94290377,8.25644522 C7.78117917,9.24264332 7.99599039,10.0415344 8.85814628,10.3265248 C9.79667762,10.6367616 10.6052888,11.6548778 10.5934925,12.6566485 C10.5894515,13.0087199 10.5503435,13.6374227 10.4258995,15.4458093 C10.3309345,16.8273552 10.2744048,17.6808019 10.2202163,18.5825207 C10.1237299,20.2098204 10.0767529,21.3918408 10.0767529,22.19847 C10.0767529,22.9107535 10.1198769,23.5624571 10.2055771,24.1383106 C10.3262198,24.9438698 10.5032293,25.4559295 10.65258,25.7027729 C10.6571692,25.7103364 10.6605176,26.87377 10.6605176,26.87377 Z" id="Stroke-1"></path>
                    <polygon id="Stroke-3" points="8.54117647 7.76111 8.54117647 7.06111 2.89411765 7.06111 2.89411765 7.76111"></polygon>
                    <path d="M5.79663529,4.57177 C6.14675294,4.57177 6.43051765,4.85317 6.43051765,5.20037 C6.43051765,5.54757 6.14675294,5.82897 5.79663529,5.82897 C5.44651765,5.82897 5.16275294,5.54757 5.16275294,5.20037 C5.16275294,4.85317 5.44651765,4.57177 5.79663529,4.57177" id="Fill-5"></path>
                    <path d="M8.54922353,19.66517 C8.54922353,18.1956456 7.34355116,17.00027 5.86122353,17.00027 C4.3788959,17.00027 3.17322353,18.1956456 3.17322353,19.66517 C3.17322353,21.1352697 4.37877009,22.33077 5.86122353,22.33077 C7.34367697,22.33077 8.54922353,21.1352697 8.54922353,19.66517 Z M3.87910588,19.66517 C3.87910588,18.5822776 4.76871098,17.70027 5.86122353,17.70027 C6.95373608,17.70027 7.84334118,18.5822776 7.84334118,19.66517 C7.84334118,20.7486703 6.95382891,21.63077 5.86122353,21.63077 C4.76861815,21.63077 3.87910588,20.7486703 3.87910588,19.66517 Z" id="Stroke-7"></path>
                    <polygon id="Stroke-9" points="10.6941882 24.41635 10.6941882 23.71635 0.954423529 23.71635 0.954423529 24.41635"></polygon>
                    <path d="M3.37129412,16.52105 L3.59493832,16.52105 L3.69043861,16.3205066 C3.73490962,16.2271208 3.86646394,16.0584038 4.11321448,15.8804739 C4.54909247,15.5661657 5.16635076,15.37375 6.00705882,15.37375 C6.84368007,15.37375 7.43203969,15.5638475 7.82462303,15.8718765 C8.04305831,16.0432653 8.15040996,16.2040545 8.18169585,16.2899502 L8.26586957,16.52105 L8.51364706,16.52105 L10.9891765,16.52105 L10.9891765,15.82105 L8.51364706,15.82105 L8.84559827,16.0521498 C8.77241357,15.8512205 8.59251522,15.5817722 8.26261226,15.3229235 C7.74129855,14.91389 6.99805522,14.67375 6.00705882,14.67375 C5.01953159,14.67375 4.25661341,14.9115718 3.69807964,15.3143261 C3.34818312,15.5666337 3.14426685,15.8281542 3.05214962,16.0215934 L3.37129412,15.82105 L1.21764706,15.82105 L1.21764706,16.52105 L3.37129412,16.52105 Z" id="Stroke-11"></path>
                </g>
            </g>
        </g>
    </g>
</svg>