<?xml version="1.0" encoding="UTF-8" standalone="no"?>
<svg width="52px" height="51px" viewBox="0 0 52 51" version="1.1" xmlns="http://www.w3.org/2000/svg" xmlns:xlink="http://www.w3.org/1999/xlink">
    <!-- Generator: Sketch 39.1 (31720) - http://www.bohemiancoding.com/sketch -->
    <title>ico_tequila_grey</title>
    <desc>Created with Sketch.</desc>
    <defs>
        <polygon id="path-1" points="6.04651212e-20 0.429366667 6.04651212e-20 3.8687 5.18259744 3.8687 5.18259744 0.429366667 0 0.429366667"></polygon>
    </defs>
    <g id="supermercado_categoria" stroke="none" stroke-width="1" fill="none" fill-rule="evenodd">
        <g id="Subcategorias_licores" transform="translate(-201.000000, -14.000000)">
            <g id="icon01-copy-3" transform="translate(201.000000, 14.000000)">
                <g id="tequila_yellow" transform="translate(11.000000, 15.000000)">
                    <g id="Group-3" transform="translate(0.000000, 16.079407)">
                        <mask id="mask-2" fill="white">
                            <use xlink:href="#path-1"></use>
                        </mask>
                        <g id="Clip-2"></g>
                        <path d="M3.59118718,3.84643333 C3.30490513,3.84643333 3.07290513,4.07523333 3.07290513,4.35756667 C3.07290513,4.6399 3.30490513,4.8687 3.59118718,4.8687 C3.87746923,4.8687 4.10946923,4.6399 4.10946923,4.35756667 C4.10946923,4.07523333 3.87746923,3.84643333 3.59118718,3.84643333 M5.66431538,3.84643333 C5.37803333,3.84643333 5.14603333,4.07523333 5.14603333,4.35756667 C5.14603333,4.6399 5.37803333,4.8687 5.66431538,4.8687 C5.95059744,4.8687 6.18259744,4.6399 6.18259744,4.35756667 C6.18259744,4.07523333 5.94985385,3.84643333 5.66431538,3.84643333 M4.62775128,2.6379 C4.34072564,2.6379 4.10946923,2.86596667 4.10946923,3.14903333 C4.10946923,3.43136667 4.34072564,3.66016667 4.62775128,3.66016667 C4.91403333,3.66016667 5.14603333,3.43136667 5.14603333,3.14903333 C5.14603333,2.86596667 4.91403333,2.6379 4.62775128,2.6379 M2.55462308,2.63643333 C2.26834103,2.63643333 2.03634103,2.86523333 2.03634103,3.14756667 C2.03634103,3.43063333 2.26834103,3.6587 2.55462308,3.6587 C2.84164872,3.6587 3.07290513,3.43063333 3.07290513,3.14756667 C3.07290513,2.86523333 2.84090513,2.63643333 2.55462308,2.63643333 M3.59118718,2.4509 C3.87746923,2.4509 4.10946923,2.2221 4.10946923,1.93976667 C4.10946923,1.65816667 3.87746923,1.42936667 3.59118718,1.42936667 C3.30490513,1.42936667 3.07290513,1.65816667 3.07290513,1.93976667 C3.07290513,2.2221 3.30490513,2.4509 3.59118718,2.4509 M1.51805897,3.8457 C1.23252051,3.8457 0.999776923,4.07376667 0.999776923,4.35683333 C0.999776923,4.63916667 1.23252051,4.86723333 1.51805897,4.86723333 C1.80508462,4.86723333 2.03634103,4.63916667 2.03634103,4.35683333 C2.03634103,4.07376667 1.80434103,3.8457 1.51805897,3.8457" id="Fill-1" fill="#D4D4D4" mask="url(#mask-2)"></path>
                    </g>
                    <path d="M23.747082,1.25913617 C23.9007223,0.616274566 23.4058851,0.00022 22.7363179,0.00022 L5.23221538,0.00022 C4.57956903,0.00022 4.08806001,0.586671171 4.21177741,1.21877611 L7.81818219,19.6503481 C7.95887118,20.372722 8.60015545,20.8950867 9.34649744,20.8950867 L17.8397795,20.8950867 C18.5625358,20.8950867 19.1902512,20.4047443 19.355549,19.7108167 L19.5284456,18.9021086 L18.50978,18.6904648 L18.339498,19.4875981 C18.2873397,19.7059619 18.0793678,19.86842 17.8397795,19.86842 L9.34649744,19.86842 C9.09931637,19.86842 8.88703034,19.6955003 8.84043583,19.456259 L5.23394089,1.02422519 C5.23424615,1.02578485 22.7363179,1.02688667 22.7363179,1.02688667 C22.7345585,1.02688667 20.4331949,10.6425705 20.4331949,10.6425705 L21.4464153,10.8782695 L23.747082,1.25913617 Z" id="Stroke-4" fill="#D4D4D4"></path>
                    <path d="M7.03844981,13.2919171 C7.4088475,13.6835855 7.8509987,14.0739537 8.36547861,14.4380351 C9.83577444,15.4785175 11.5966864,16.104 13.6383487,16.104 C14.7698886,16.104 15.8348816,15.9361134 16.8325946,15.6255248 L16.519231,14.6464752 C15.6210821,14.9260695 14.6615364,15.0773333 13.6383487,15.0773333 C11.8282162,15.0773333 10.2747627,14.5255408 8.97239832,13.6038983 C8.51644713,13.2812359 8.12519689,12.9358072 7.79975724,12.5916787 C7.60816416,12.3890831 7.48364757,12.2357658 7.42705218,12.1562771 L6.57508116,12.7462562 C6.65818769,12.86298 6.81254048,13.0530346 7.03844981,13.2919171 Z" id="Stroke-6" fill="#D4D4D4"></path>
                    <polygon id="Stroke-8" fill="#D4D4D4" points="22.6125846 4.09317333 22.6125846 3.06650667 5.25199487 3.06650667 5.25199487 4.09317333"></polygon>
                    <path d="M28.4638367,18.8709948 L28.4394171,18.1708304 C28.3827338,18.2350016 28.2645866,18.3568732 28.0908254,18.5171286 C27.7970253,18.7880926 27.4588223,19.059731 27.0825326,19.3129191 C24.6554205,20.9460118 22.0941271,21.0181506 19.5474146,18.5065652 C17.0027376,15.9969872 17.0802557,13.4798124 18.7424744,11.0966125 C19.0009194,10.7260679 19.2782137,10.3930843 19.5548285,10.1038687 C19.7184411,9.93280287 19.8428762,9.81650065 19.9084104,9.76070109 L19.2001957,9.73512815 L28.4638367,18.8709948 Z M19.5942541,8.67182531 L19.2280973,8.98359224 C19.1368023,9.06132604 18.9867864,9.20153717 18.7975335,9.39941128 C18.486039,9.72509561 18.175224,10.0983318 17.884767,10.5147734 C15.9629344,13.2701939 15.8686899,16.3305075 18.8112983,19.2325281 C21.7548839,22.1355126 24.8648965,22.0479191 27.6692428,20.1610029 C28.0920334,19.8765264 28.4710646,19.5720956 28.8018832,19.2669904 C29.0028932,19.0816042 29.1453628,18.9346435 29.2243727,18.8451963 L29.5435337,18.4838735 L29.199953,18.1450319 L19.936312,9.00916519 L19.5942541,8.67182531 Z" id="Stroke-10" fill="#D4D4D4"></path>
                    <path d="M27.2944834,17.5927792 L27.2770029,17.0927046 C27.2358141,17.1393491 27.1500777,17.2278153 27.0240274,17.344103 C26.8109457,17.5406815 26.5656681,17.7377416 26.2927613,17.9214204 C24.5322536,19.1063225 22.6735766,19.1587857 20.8260756,17.3367675 C18.9799941,15.5161492 19.0362555,13.6892522 20.2421407,11.9603305 C20.4295909,11.6915763 20.6307083,11.4500702 20.8313402,11.2403003 C20.9500363,11.1161981 21.0403418,11.0317955 21.0879652,10.9912465 L20.5820988,10.9729792 L27.2944834,17.5927792 Z M20.86357,10.2134781 L20.6020297,10.4361668 C20.5360056,10.492383 20.4274279,10.5938634 20.2904172,10.7371144 C20.0648709,10.9729334 19.8398101,11.2431914 19.629494,11.5447292 C18.2381687,13.5395231 18.1699597,15.7543777 20.3002782,17.8553125 C22.4312861,19.9569271 24.6819557,19.8933994 26.7119214,18.5271397 C27.0180442,18.3211051 27.2924846,18.1006152 27.5320071,17.8796437 C27.6775193,17.7454014 27.7806269,17.6390109 27.8377612,17.5743088 L28.0656574,17.3162263 L27.8202807,17.0742342 L21.1078961,10.4544342 L20.86357,10.2134781 Z" id="Stroke-12" fill="#D4D4D4"></path>
                    <polygon id="Stroke-14" fill="#D4D4D4" points="24.3223602 14.3165392 23.7965629 13.7979942 20.363409 17.1837942 20.8892064 17.7023392"></polygon>
                    <polygon id="Stroke-16" fill="#D4D4D4" points="23.7137667 14.2959667 23.7137667 13.5626333 19.0068436 13.5626333 19.0068436 14.2959667"></polygon>
                    <polygon id="Stroke-18" fill="#D4D4D4" points="24.7312977 14.5251468 23.99261 14.4410799 23.474328 18.8704132 24.2130156 18.9544801"></polygon>
                </g>
            </g>
        </g>
    </g>
</svg>