<?xml version="1.0" encoding="UTF-8" standalone="no"?>
<svg width="52px" height="51px" viewBox="0 0 52 51" version="1.1" xmlns="http://www.w3.org/2000/svg" xmlns:xlink="http://www.w3.org/1999/xlink">
    <!-- Generator: Sketch 39.1 (31720) - http://www.bohemiancoding.com/sketch -->
    <title>ico_licores_green</title>
    <desc>Created with Sketch.</desc>
    <defs></defs>
    <g id="supermercado_categoria" stroke="none" stroke-width="1" fill="none" fill-rule="evenodd">
        <g id="Subcategorias_licores" transform="translate(-15.000000, -136.000000)" fill="#44D481">
            <g id="icon01-copy-8" transform="translate(15.000000, 136.000000)">
                <g id="licores_lgreen" transform="translate(15.000000, 13.000000)">
                    <path d="M10.33109,9.03556216 C8.89259,9.03556216 7.72289,10.2104811 7.72289,11.6545351 C7.72289,13.0978865 8.89259,14.2721027 10.33109,14.2721027 C11.76959,14.2721027 12.93929,13.0978865 12.93929,11.6545351 C12.93929,10.2104811 11.76959,9.03556216 10.33109,9.03556216 L10.33109,9.03556216 Z M10.33109,15.2565892 C8.35289,15.2565892 6.74289,13.640373 6.74289,11.6545351 C6.74289,9.66799459 8.35289,8.05177838 10.33109,8.05177838 C12.30929,8.05177838 13.91929,9.66799459 13.91929,11.6545351 C13.91929,13.640373 12.30929,15.2565892 10.33109,15.2565892 L10.33109,15.2565892 Z M1.47679,7.40318378 L10.35769,19.1608054 L19.23999,7.40318378 L1.47679,7.40318378 Z M10.35769,20.4671297 C10.20439,20.4671297 10.05949,20.3947514 9.96709,20.2717784 L0.09989,7.20783243 C-0.01281,7.05885946 -0.03171,6.85929189 0.05089,6.69204865 C0.13419,6.52480541 0.30429,6.4186973 0.48979,6.4186973 L20.22629,6.4186973 C20.41179,6.4186973 20.58259,6.52480541 20.66519,6.69204865 C20.74779,6.85929189 20.72889,7.05885946 20.61619,7.20783243 L10.74829,20.2717784 C10.65589,20.3947514 10.51099,20.4671297 10.35769,20.4671297 L10.35769,20.4671297 Z" id="Fill-1"></path>
                    <path d="M11.13154,8.72742703 C11.06084,8.72742703 10.99014,8.71267027 10.92224,8.68034595 C10.67794,8.5644 10.57294,8.27137297 10.68844,8.02542703 L14.32704,0.282345946 C14.44254,0.0356972973 14.73514,-0.0690054054 14.97944,0.0469405405 C15.22444,0.162886486 15.32874,0.456616216 15.21324,0.702562162 L11.57464,8.44564324 C11.49134,8.62342703 11.31494,8.72742703 11.13154,8.72742703" id="Fill-4"></path>
                    <path d="M10.35776,25.0680054 C10.08686,25.0680054 9.86776,24.8480595 9.86776,24.5761135 L9.86776,19.9748162 C9.86776,19.7028703 10.08686,19.4829243 10.35776,19.4829243 C10.62866,19.4829243 10.84776,19.7028703 10.84776,19.9748162 L10.84776,24.5761135 C10.84776,24.8480595 10.62866,25.0680054 10.35776,25.0680054" id="Fill-7"></path>
                    <path d="M14.8141,25.5789405 L5.9031,25.5789405 C5.6322,25.5789405 5.4124,25.3589946 5.4124,25.0870486 C5.4124,24.8151027 5.6322,24.5951568 5.9031,24.5951568 L14.8141,24.5951568 C15.085,24.5951568 15.3041,24.8151027 15.3041,25.0870486 C15.3041,25.3589946 15.085,25.5789405 14.8141,25.5789405" id="Fill-9"></path>
                </g>
            </g>
        </g>
    </g>
</svg>