<?xml version="1.0" encoding="UTF-8" standalone="no"?>
<svg width="52px" height="51px" viewBox="0 0 52 51" version="1.1" xmlns="http://www.w3.org/2000/svg" xmlns:xlink="http://www.w3.org/1999/xlink">
    <!-- Generator: Sketch 39.1 (31720) - http://www.bohemiancoding.com/sketch -->
    <title>ico_vodka_green</title>
    <desc>Created with Sketch.</desc>
    <defs>
        <polygon id="path-1" points="0 26.8183385 10.588875 26.8183385 10.588875 -0.000276923077 0 -0.000276923077"></polygon>
    </defs>
    <g id="supermercado_categoria" stroke="none" stroke-width="1" fill="none" fill-rule="evenodd">
        <g id="Subcategorias_licores" transform="translate(-263.000000, -136.000000)">
            <g id="icon01-copy-14" transform="translate(263.000000, 136.000000)">
                <g id="vodka_lgreen" transform="translate(20.000000, 12.000000)">
                    <polygon id="Stroke-1" stroke="#44D481" stroke-width="1.4" stroke-linecap="round" stroke-linejoin="round" points="3.289 7.35064615 7.299875 7.35064615 7.299875 2.90741538 3.289 2.90741538"></polygon>
                    <path d="M9.62630625,10.1778923 L10.1075562,10.1778923 L9.76726111,9.83521748 C9.67632173,9.9267928 9.62561875,10.0500566 9.62561875,10.1785846 L9.62561875,26.3335846 L10.1068687,25.8489692 L0.48118125,25.8489692 L0.96243125,26.3335846 L0.96243125,10.1785846 C0.96243125,8.88369184 2.00371829,7.83512308 3.28893125,7.83512308 L7.29980625,7.83512308 C8.58501921,7.83512308 9.62630625,8.88369184 9.62630625,10.1778923 Z M3.28893125,6.86589231 C1.47214421,6.86589231 -6.875e-05,8.34840047 -6.875e-05,10.1778923 L-6.875e-05,26.3335846 C-6.875e-05,26.6012303 0.215394214,26.8182 0.48118125,26.8182 L10.1068688,26.8182 C10.3726558,26.8182 10.5881188,26.6012303 10.5881188,26.3335846 L10.5881188,10.1785846 L10.1068688,10.1785846 L10.4471639,10.5212594 C10.5381033,10.4296841 10.5888063,10.3064203 10.5888063,10.1778923 C10.5888063,8.34840047 9.11659329,6.86589231 7.29980625,6.86589231 L3.28893125,6.86589231 Z" id="Stroke-2" fill="#44D481"></path>
                    <mask id="mask-2" fill="white">
                        <use xlink:href="#path-1"></use>
                    </mask>
                    <g id="Clip-5"></g>
                    <path d="M7.9014375,3.39203077 C8.16722454,3.39203077 8.3826875,3.17506107 8.3826875,2.90741538 L8.3826875,0.484338462 C8.3826875,0.216692775 8.16722454,-0.000276923077 7.9014375,-0.000276923077 L2.6874375,-0.000276923077 C2.42165046,-0.000276923077 2.2061875,0.216692775 2.2061875,0.484338462 L2.2061875,2.90741538 C2.2061875,3.17506107 2.42165046,3.39203077 2.6874375,3.39203077 L7.9014375,3.39203077 Z M3.1686875,2.90741538 L3.1686875,0.484338462 L2.6874375,0.968953846 L7.9014375,0.968953846 L7.4201875,0.484338462 L7.4201875,2.90741538 L7.9014375,2.4228 L2.6874375,2.4228 L3.1686875,2.90741538 Z" id="Stroke-4" fill="#44D481" mask="url(#mask-2)"></path>
                    <path d="M10.1069375,24.7756154 L10.1069375,24.0833077 L0.48125,24.0833077 L0.48125,24.7756154 L10.1069375,24.7756154 Z M0.48125,24.7756154 L10.1069375,24.7756154 C10.5652708,24.7756154 10.5652708,24.0833077 10.1069375,24.0833077 L0.48125,24.0833077 C0.0229166667,24.0833077 0.0229166667,24.7756154 0.48125,24.7756154 Z" id="Stroke-6" fill="#44D481" mask="url(#mask-2)"></path>
                    <path d="M7.82106875,15.0819231 L8.13136033,15.2791127 C7.61150767,14.1810648 6.51800379,13.4660769 5.29381875,13.4660769 C4.07001596,13.4660769 2.97781236,14.1806374 2.4570523,15.2789278 L2.76725625,15.0819231 L0.48131875,15.0819231 C0.291470867,15.0819231 0.13756875,15.2369014 0.13756875,15.4280769 L0.13756875,17.8518462 C0.13756875,18.0430216 0.291470867,18.198 0.48131875,18.198 L2.76725625,18.198 L2.45701048,18.0009071 C2.97767541,19.0997949 4.06982719,19.8145385 5.29381875,19.8145385 C6.51819263,19.8145385 7.61164427,19.0993676 8.13140205,18.0007222 L7.82106875,18.198 L10.1070063,18.198 C10.2968541,18.198 10.4507563,18.0430216 10.4507563,17.8518462 L10.4507563,15.4280769 C10.4507563,15.2369014 10.2968541,15.0819231 10.1070063,15.0819231 L7.82106875,15.0819231 Z M9.76325625,15.4280769 L9.76325625,17.8518462 L10.1070063,17.5056923 L7.82106875,17.5056923 C7.68850252,17.5056923 7.56775036,17.582454 7.51073545,17.7029701 C7.10355231,18.5636593 6.24953138,19.1222308 5.29381875,19.1222308 C4.33849878,19.1222308 3.48557786,18.5640485 3.07750202,17.7027852 C3.02044794,17.5823699 2.89974901,17.5056923 2.76725625,17.5056923 L0.48131875,17.5056923 L0.82506875,17.8518462 L0.82506875,15.4280769 L0.48131875,15.7742308 L2.76725625,15.7742308 C2.89971395,15.7742308 3.02038746,15.6975933 3.0774602,15.5772261 C3.4855949,14.7164641 4.33861785,14.1583846 5.29381875,14.1583846 C6.24941219,14.1583846 7.10353553,14.7168534 7.51077717,15.5770411 C7.56781077,15.6975091 7.68853755,15.7742308 7.82106875,15.7742308 L10.1070063,15.7742308 L9.76325625,15.4280769 Z" id="Stroke-7" fill="#44D481" mask="url(#mask-2)"></path>
                    <path d="M3.06621329,11.9723169 L3.55234921,12.4618523 C4.51423195,11.4932431 6.07445644,11.4930552 7.03652579,12.4618523 L7.52266171,11.9723169 C6.29208087,10.7331306 4.29655546,10.7333709 3.06621329,11.9723169 Z M7.52266171,11.9723169 C6.29208087,10.7331306 4.29655546,10.7333709 3.06621329,11.9723169 C2.74212269,12.2986739 3.2282586,12.7882093 3.55234921,12.4618523 C4.51423195,11.4932431 6.07445644,11.4930552 7.03652579,12.4618523 C7.3606164,12.7882093 7.84675231,12.2986739 7.52266171,11.9723169 Z" id="Stroke-8" fill="#44D481" mask="url(#mask-2)"></path>
                    <path d="M7.52231796,21.3080216 L7.03618204,20.8184861 C6.07410002,21.787296 4.5145044,21.7871081 3.55192922,20.8184094 L3.06594578,21.3080983 C4.29697088,22.5469548 6.29174984,22.5471951 7.52231796,21.3080216 Z M3.06594578,21.3080983 C4.29697088,22.5469548 6.29174984,22.5471951 7.52231796,21.3080216 C7.84640856,20.9816646 7.36027265,20.4921291 7.03618204,20.8184861 C6.07410002,21.787296 4.5145044,21.7871081 3.55192922,20.8184094 C3.227737,20.4921548 2.74175356,20.9818437 3.06594578,21.3080983 Z" id="Stroke-9" fill="#44D481" mask="url(#mask-2)"></path>
                </g>
            </g>
        </g>
    </g>
</svg>