<?xml version="1.0" encoding="UTF-8" standalone="no"?>
<svg width="52px" height="51px" viewBox="0 0 52 51" version="1.1" xmlns="http://www.w3.org/2000/svg" xmlns:xlink="http://www.w3.org/1999/xlink">
    <!-- Generator: Sketch 39.1 (31720) - http://www.bohemiancoding.com/sketch -->
    <title>ico_cervezas_green</title>
    <desc>Created with Sketch.</desc>
    <defs></defs>
    <g id="supermercado_categoria" stroke="none" stroke-width="1" fill="none" fill-rule="evenodd">
        <g id="Subcategorias_licores" transform="translate(-77.000000, -136.000000)" fill="#44D481">
            <g id="icon01-copy-11" transform="translate(77.000000, 136.000000)">
                <g id="cerveza_red" transform="translate(16.000000, 12.000000)">
                    <path d="M16.8591975,18.6028378 L14.9912346,18.6028378 C14.5293425,18.6028378 14.1546914,18.9751637 14.1546914,19.4345946 L14.1546914,21.4008108 C14.1546914,21.7531985 14.3779922,22.0676882 14.7118465,22.1852167 C15.0126801,22.2916271 15.2159877,22.5780816 15.2159877,22.8960811 C15.2159877,23.3118923 14.8753955,23.6508108 14.4575309,23.6508108 L1.70907407,23.6508108 C1.29120942,23.6508108 0.950617284,23.3118923 0.950617284,22.8960811 C0.950617284,22.5780816 1.15392482,22.2916271 1.4554309,22.1849794 C1.78861269,22.0676882 2.01191358,21.7531985 2.01191358,21.4008108 L2.01191358,6.86162162 L1.53660494,7.33459459 L14.63,7.33459459 L14.1546914,6.86162162 L14.1546914,8.46837838 C14.1546914,8.92824279 14.5290992,9.30081081 14.9912346,9.30081081 L16.8591975,9.30081081 C18.1827769,9.30081081 19.2601852,10.37275 19.2601852,11.6893243 L19.2601852,16.2136486 C19.2601852,17.5308113 18.1828647,18.6028378 16.8591975,18.6028378 Z M20.2108025,11.6893243 C20.2108025,9.85028399 18.7077536,8.35486486 16.8591975,8.35486486 L14.9912346,8.35486486 C15.0541107,8.35486486 15.1053086,8.40581127 15.1053086,8.46837838 L15.1053086,6.86162162 L15.1053086,6.38864865 L14.63,6.38864865 L1.53660494,6.38864865 L1.0612963,6.38864865 L1.0612963,6.86162162 L1.0612963,21.4008108 C1.0612963,21.3524935 1.0917422,21.3096145 1.13771065,21.293432 C0.456601801,21.5343509 0,22.1776898 0,22.8960811 C0,23.8343239 0.766197989,24.5967568 1.70907407,24.5967568 L14.4575309,24.5967568 C15.4004069,24.5967568 16.1666049,23.8343239 16.1666049,22.8960811 C16.1666049,22.1776898 15.7100031,21.5343509 15.0295667,21.2936693 C15.0748627,21.3096145 15.1053086,21.3524935 15.1053086,21.4008108 L15.1053086,19.4345946 C15.1053086,19.4978707 15.0540776,19.5487838 14.9912346,19.5487838 L16.8591975,19.5487838 C18.7078761,19.5487838 20.2108025,18.0532428 20.2108025,16.2136486 L20.2108025,11.6893243 Z" id="Stroke-2"></path>
                    <path d="M16.2935123,16.6866216 L14.7861049,16.6866216 L15.2614136,17.1595946 L15.2614136,10.7440541 L14.7861049,11.217027 L16.2935123,11.217027 C16.5551514,11.217027 16.768821,11.4295418 16.768821,11.6893243 L16.768821,16.2136486 C16.768821,16.4740545 16.5552042,16.6866216 16.2935123,16.6866216 Z M17.7194383,11.6893243 C17.7194383,10.9070058 17.0800579,10.2710811 16.2935123,10.2710811 L14.7861049,10.2710811 L14.3107963,10.2710811 L14.3107963,10.7440541 L14.3107963,17.1595946 L14.3107963,17.6325676 L14.7861049,17.6325676 L16.2935123,17.6325676 C17.0802156,17.6325676 17.7194383,16.996486 17.7194383,16.2136486 L17.7194383,11.6893243 Z" id="Stroke-6"></path>
                    <path d="M12.3390123,20.5629054 C12.3434869,20.6269173 12.3453659,20.6439159 12.3471015,20.66595 C12.3614703,20.8483673 12.3495158,21.0595263 12.2944625,21.2464142 C12.2000412,21.5669431 12.0188671,21.7230405 11.6260494,21.7230405 L9.36290123,21.7230405 C9.10039552,21.7230405 8.88759259,21.9347978 8.88759259,22.1960135 C8.88759259,22.4572293 9.10039552,22.6689865 9.36290123,22.6689865 L11.6260494,22.6689865 C12.4708166,22.6689865 13.000441,22.2126684 13.2066949,21.5125047 C13.2993792,21.1978722 13.3174252,20.879115 13.294812,20.5920317 C13.2915708,20.5508832 13.2884729,20.5228572 13.2851818,20.4983518 L13.2896296,8.51358108 C13.2896296,8.25236532 13.0768267,8.04060811 12.814321,8.04060811 C12.5518153,8.04060811 12.3390123,8.25236532 12.3390123,8.51358108 L12.3390123,20.5629054 Z" id="Stroke-8"></path>
                    <path d="M8.56200617,14.6210135 C8.56200617,14.8621335 8.36567493,15.0575 8.1233642,15.0575 C7.88105346,15.0575 7.68472222,14.8621335 7.68472222,14.6210135 C7.68472222,14.3798935 7.88105346,14.184527 8.1233642,14.184527 C8.36567493,14.184527 8.56200617,14.3798935 8.56200617,14.6210135 Z M7.00570988,14.6210135 C7.00570988,15.2352989 7.5060453,15.7331757 8.1233642,15.7331757 C8.74068309,15.7331757 9.24101852,15.2352989 9.24101852,14.6210135 C9.24101852,14.0067281 8.74068309,13.5088514 8.1233642,13.5088514 C7.5060453,13.5088514 7.00570988,14.0067281 7.00570988,14.6210135 Z" id="Stroke-10"></path>
                    <path d="M9.87100617,11.1960135 C9.87100617,11.3688903 9.72967493,11.509527 9.55594444,11.509527 C9.38221396,11.509527 9.24088272,11.3688903 9.24088272,11.1960135 C9.24088272,11.0231367 9.38221396,10.8825 9.55594444,10.8825 C9.72967493,10.8825 9.87100617,11.0231367 9.87100617,11.1960135 Z M8.56187037,11.1960135 C8.56187037,11.7420557 9.00720579,12.1852027 9.55594444,12.1852027 C10.1046831,12.1852027 10.5500185,11.7420557 10.5500185,11.1960135 C10.5500185,10.6499714 10.1046831,10.2068243 9.55594444,10.2068243 C9.00720579,10.2068243 8.56187037,10.6499714 8.56187037,11.1960135 Z" id="Stroke-12"></path>
                    <path d="M10.1266543,18.2943243 C10.1266543,18.6057146 9.87328604,18.8578378 9.56035802,18.8578378 C9.24743001,18.8578378 8.99406173,18.6057146 8.99406173,18.2943243 C8.99406173,17.982934 9.24743001,17.7308108 9.56035802,17.7308108 C9.87328604,17.7308108 10.1266543,17.982934 10.1266543,18.2943243 Z M8.31504938,18.2943243 C8.31504938,18.97888 8.87242184,19.5335135 9.56035802,19.5335135 C10.2482942,19.5335135 10.8056667,18.97888 10.8056667,18.2943243 C10.8056667,17.6097687 10.2482942,17.0551351 9.56035802,17.0551351 C8.87242184,17.0551351 8.31504938,17.6097687 8.31504938,18.2943243 Z" id="Stroke-14"></path>
                    <path d="M4.37773982,2.97620167 C4.7743655,3.16391629 5.2211205,3.00335508 5.44956521,2.62784193 C6.10288335,1.54913311 7.07603025,0.945743243 8.12295679,0.945743243 C9.17079698,0.945743243 10.1434898,1.5486952 10.7966029,2.62646717 C11.0247893,3.00299287 11.4718098,3.16411379 11.8701911,2.9755708 C12.0714889,2.88106877 12.2800811,2.83358108 12.4924012,2.83358108 C13.3678546,2.83358108 14.1533786,3.66195546 14.315351,4.81782041 L14.7861049,4.27952703 L1.46048765,4.27952703 L1.93124163,4.81782041 C2.09321395,3.66195546 2.87873801,2.83358108 3.75419136,2.83358108 C3.9665115,2.83358108 4.17510366,2.88106877 4.37773982,2.97620167 Z M0.989733681,4.68717959 L0.914302179,5.22547297 L1.46048765,5.22547297 L14.7861049,5.22547297 L15.3322904,5.22547297 L15.2568589,4.68717959 C15.0341557,3.09792754 13.8864695,1.88763514 12.4924012,1.88763514 C12.1383375,1.88763514 11.7914231,1.96661297 11.4632336,2.12069022 C11.5267432,2.09063036 11.5973996,2.11609729 11.6106603,2.1379784 C10.7928576,0.788434435 9.52061407,-0.000202702703 8.12295679,-0.000202702703 C6.7261318,-0.000202702703 5.45337101,0.788959708 4.63586351,2.13876766 C4.64972218,2.11598527 4.72003146,2.09071651 4.78469732,2.12132109 C4.45516946,1.96661297 4.10825513,1.88763514 3.75419136,1.88763514 C2.36012305,1.88763514 1.2124369,3.09792754 0.989733681,4.68717959 Z" id="Stroke-16"></path>
                </g>
            </g>
        </g>
    </g>
</svg>