<?xml version="1.0" encoding="UTF-8" standalone="no"?>
<svg width="52px" height="51px" viewBox="0 0 52 51" version="1.1" xmlns="http://www.w3.org/2000/svg" xmlns:xlink="http://www.w3.org/1999/xlink">
    <!-- Generator: Sketch 39.1 (31720) - http://www.bohemiancoding.com/sketch -->
    <title>ico_champana_green</title>
    <desc>Created with Sketch.</desc>
    <defs>
        <polygon id="path-1" points="0 28.5259881 9.85428571 28.5259881 9.85428571 0.690821429 0 0.690821429"></polygon>
    </defs>
    <g id="supermercado_categoria" stroke="none" stroke-width="1" fill="none" fill-rule="evenodd">
        <g id="Subcategorias_licores" transform="translate(-15.000000, -197.000000)">
            <g id="icon01-copy-17" transform="translate(15.000000, 197.000000)">
                <g id="champana_yellow" transform="translate(22.000000, 12.000000)">
                    <g id="Group-3" transform="translate(0.000000, 0.216464)" fill="#44D481">
                        <path d="M1.78921429,1.44095476 L0.999928571,16.7267167 C1.00064286,18.6476214 2.50778571,20.2702405 4.50635714,20.4773833 L5.3735,20.4746214 C7.36064286,20.256431 8.85564286,18.629669 8.85492857,16.6797643 L8.06564286,1.44095476 L1.78921429,1.44095476 Z M5.4285,21.4412881 L4.45278571,21.4412881 C1.89207143,21.1789071 -7.14285715e-05,19.1426929 -7.14285715e-05,16.70255 L0.837785714,0.474288095 L9.01707143,0.474288095 L9.85421429,16.6555976 C9.85564286,19.1323357 7.96421429,21.1782167 5.45492857,21.4378357 L5.4285,21.4412881 Z" id="Fill-1"></path>
                    </g>
                    <mask id="mask-2" fill="white">
                        <use xlink:href="#path-1"></use>
                    </mask>
                    <g id="Clip-5"></g>
                    <polygon id="Fill-4" fill="#44D481" mask="url(#mask-2)" points="0.86 7.76889286 8.955 7.76889286 8.955 6.80222619 0.86 6.80222619"></polygon>
                    <path d="M9.14828571,28.5259881 L0.636857143,28.5259881 C0.360428571,28.5259881 0.136857143,28.309869 0.136857143,28.0426548 C0.136857143,27.7754405 0.360428571,27.5593214 0.636857143,27.5593214 L9.14828571,27.5593214 C9.42471429,27.5593214 9.64828571,27.7754405 9.64828571,28.0426548 C9.64828571,28.309869 9.42471429,28.5259881 9.14828571,28.5259881" id="Fill-6" fill="#44D481" mask="url(#mask-2)"></path>
                    <path d="M4.93721429,28.5259881 C4.66078571,28.5259881 4.43721429,28.309869 4.43721429,28.0426548 L4.43721429,21.454131 C4.43721429,21.1876071 4.66078571,20.9707976 4.93721429,20.9707976 C5.21364286,20.9707976 5.43721429,21.1876071 5.43721429,21.454131 L5.43721429,28.0426548 C5.43721429,28.309869 5.21364286,28.5259881 4.93721429,28.5259881" id="Fill-7" fill="#44D481" mask="url(#mask-2)"></path>
                    <path d="M7.04657143,14.3438833 C6.94657143,14.3438833 6.86514286,14.4225976 6.86514286,14.5192643 C6.86514286,14.7132881 7.228,14.7132881 7.228,14.5192643 C7.228,14.4225976 7.14657143,14.3438833 7.04657143,14.3438833 M7.04657143,15.3858119 C6.553,15.3858119 6.15085714,14.9970738 6.15085714,14.5192643 C6.15085714,14.0421452 6.553,13.6534071 7.04657143,13.6534071 C7.54014286,13.6534071 7.94228571,14.0421452 7.94228571,14.5192643 C7.94228571,14.9970738 7.54014286,15.3858119 7.04657143,15.3858119" id="Fill-8" fill="#44D481" mask="url(#mask-2)"></path>
                    <path d="M5.0935,17.3714833 L5.09278571,17.3714833 L5.09278571,17.7167214 L5.0935,17.3714833 Z M5.09278571,18.0619595 C4.69778571,18.0619595 4.37707143,17.7512452 4.37707143,17.3701024 C4.37707143,16.9889595 4.69778571,16.6789357 5.09278571,16.6789357 C5.48778571,16.6789357 5.8085,16.9889595 5.8085,17.3701024 C5.8085,17.7512452 5.48778571,18.0619595 5.09278571,18.0619595 L5.09278571,18.0619595 Z" id="Fill-9" fill="#44D481" mask="url(#mask-2)"></path>
                    <path d="M4.87235714,11.8463619 C4.63092857,11.8463619 4.43521429,12.0362429 4.43521429,12.2696238 C4.43521429,12.5030048 4.63092857,12.6928857 4.87235714,12.6928857 C5.11378571,12.6928857 5.31021429,12.5030048 5.31021429,12.2696238 C5.31021429,12.0362429 5.11378571,11.8463619 4.87235714,11.8463619 M4.87235714,13.3833619 C4.23735714,13.3833619 3.72092857,12.8834571 3.72092857,12.2696238 C3.72092857,11.6557905 4.23735714,11.1558857 4.87235714,11.1558857 C5.50807143,11.1558857 6.0245,11.6557905 6.0245,12.2696238 C6.0245,12.8834571 5.50807143,13.3833619 4.87235714,13.3833619" id="Fill-10" fill="#44D481" mask="url(#mask-2)"></path>
                </g>
            </g>
        </g>
    </g>
</svg>