<?xml version="1.0" encoding="UTF-8" standalone="no"?>
<svg width="52px" height="51px" viewBox="0 0 52 51" version="1.1" xmlns="http://www.w3.org/2000/svg" xmlns:xlink="http://www.w3.org/1999/xlink">
    <!-- Generator: Sketch 39.1 (31720) - http://www.bohemiancoding.com/sketch -->
    <title>ico_ginebra_grey</title>
    <desc>Created with Sketch.</desc>
    <defs></defs>
    <g id="supermercado_categoria" stroke="none" stroke-width="1" fill="none" fill-rule="evenodd">
        <g id="Subcategorias_licores" transform="translate(-325.000000, -14.000000)" fill="#D4D4D4">
            <g id="icon01-copy-5" transform="translate(325.000000, 14.000000)">
                <g id="ginebra_dgreen" transform="translate(21.000000, 11.000000)">
                    <path d="M10.0367987,8.25806234 L7.61484865,6.89551139 C7.71166804,6.95005973 7.73870625,6.99707535 7.73870625,7.10995122 L7.73870625,1.22153659 C7.73870625,0.547562835 7.20612694,-1.13686838e-13 6.55070625,-1.13686838e-13 L4.10870625,-1.13686838e-13 C3.45327151,-1.13686838e-13 2.92139375,0.547577048 2.92139375,1.22153659 L2.92139375,7.17007317 C2.92139375,7.05731253 2.94896443,7.00970627 3.04397719,6.95628394 L0.729712938,8.258533 C0.282400367,8.50905186 -0.0201074123,9.06081602 0.00131621605,9.5864977 L0.77482981,27.0561899 L0.794021708,27.5174224 C0.82171711,28.1739671 1.35703647,28.7015122 1.99601875,28.7015122 L8.77133125,28.7015122 C9.41017394,28.7015122 9.94569753,28.1733881 9.97331942,27.51622 L9.98644181,27.1808902 L10.7659571,9.58688692 C10.7875,9.06056577 10.4847136,8.50891969 10.0367987,8.25806234 Z M9.02483043,27.1384302 L9.01165819,27.4749146 C9.0063548,27.6010395 8.8945816,27.7112683 8.77133125,27.7112683 L1.99601875,27.7112683 C1.87245201,27.7112683 1.76097037,27.6014057 1.75562867,27.474776 L1.73639079,27.0124801 L0.96289519,9.54322471 C0.956897231,9.39597259 1.06546376,9.19795084 1.19073617,9.12779131 L3.50569956,7.82514992 C3.71872113,7.70537544 3.88389375,7.42017203 3.88389375,7.17007317 L3.88389375,1.22153659 C3.88389375,1.09432469 3.98499049,0.990243902 4.10870625,0.990243902 L6.55070625,0.990243902 C6.67469757,0.990243902 6.77620625,1.09460842 6.77620625,1.22153659 L6.77620625,7.10995122 C6.77620625,7.358622 6.94073598,7.64471599 7.15280484,7.76419644 L9.57581385,9.12734227 C9.70178543,9.19789438 9.81042639,9.39582723 9.80438228,9.54351268 L9.02483043,27.1384302 Z" id="Stroke-1"></path>
                    <path d="M6.83375,10.9722561 L7.16843295,11.2452231 C6.97036318,10.3756485 6.21208259,9.74930488 5.3329375,9.74930488 C4.45332274,9.74930488 3.69556352,10.3754215 3.49744205,11.2452231 L3.832125,10.9722561 L1.7909375,10.9722561 L1.43538834,10.9722561 L1.44738317,11.3378457 L1.60138317,16.0316018 L1.61259509,16.3733293 L1.9449375,16.3733293 L8.8240625,16.3733293 L9.15615474,16.3733293 L9.167608,16.0318678 L9.3250455,11.3381117 L9.337317,10.9722561 L8.9815,10.9722561 L6.83375,10.9722561 Z M8.6379545,11.3137176 L8.480517,16.0074737 L8.8240625,15.6660122 L1.9449375,15.6660122 L2.28849183,16.0077397 L2.13449183,11.3139836 L1.7909375,11.6795732 L3.832125,11.6795732 L4.10463213,11.6795732 L4.16680795,11.4066061 C4.29249319,10.8548173 4.77441006,10.456622 5.3329375,10.456622 C5.89104125,10.456622 6.37344365,10.8550888 6.49906705,11.4066061 L6.56124287,11.6795732 L6.83375,11.6795732 L8.9815,11.6795732 L8.6379545,11.3137176 Z" id="Stroke-3"></path>
                    <polygon id="Stroke-5" points="7.18375625 3.81067073 7.18375625 3.10335366 3.48844375 3.10335366 3.48844375 3.81067073"></polygon>
                    <polygon id="Stroke-7" points="9.50406875 24.8533537 9.50406875 24.1460366 1.08219375 24.1460366 1.08219375 24.8533537"></polygon>
                </g>
            </g>
        </g>
    </g>
</svg>