<?xml version="1.0" encoding="UTF-8" standalone="no"?>
<svg width="52px" height="51px" viewBox="0 0 52 51" version="1.1" xmlns="http://www.w3.org/2000/svg" xmlns:xlink="http://www.w3.org/1999/xlink">
    <!-- Generator: Sketch 39.1 (31720) - http://www.bohemiancoding.com/sketch -->
    <title>ico_cigarrillos_green</title>
    <desc>Created with Sketch.</desc>
    <defs></defs>
    <g id="supermercado_categoria" stroke="none" stroke-width="1" fill="none" fill-rule="evenodd">
        <g id="Subcategorias_licores" transform="translate(-139.000000, -197.000000)" fill="#44D481">
            <g id="icon01-copy-19" transform="translate(139.000000, 197.000000)">
                <g id="cigarrillos_lgreen" transform="translate(14.000000, 13.000000)">
                    <path d="M13.2387164,1.06680911 C13.2257109,1.0780743 13.2087147,1.0920875 13.1540887,1.13692766 C13.034923,1.23529204 12.9449766,1.31611012 12.8499226,1.41633918 C12.3117195,1.98384379 12.1198601,2.69397757 12.5047384,3.51509164 C12.882119,4.32103141 13.5935261,4.59664355 14.8591193,4.59061087 C15.1765393,4.59015716 15.3747181,4.65854852 15.4475728,4.73266301 C15.8200634,5.11339249 15.9017058,5.66110205 15.7581423,5.90693601 L16.5846077,6.41116128 C16.9599233,5.76848159 16.8049425,4.72876979 16.1273576,4.03620153 C15.8547826,3.75891127 15.4117882,3.60603422 14.8561981,3.60683292 C13.9210928,3.61128766 13.5494131,3.46729211 13.3728442,3.09020895 C13.1824001,2.68390828 13.2597336,2.39767199 13.5410253,2.10106583 C13.6029503,2.03576947 13.9492643,1.74990728 14.0104061,1.64670649 L13.1870939,1.13712054 C13.2167444,1.08707371 13.2251631,1.0785488 13.2387164,1.06680911 Z" id="Stroke-1"></path>
                    <path d="M16.0577819,0.622298 C16.0484354,0.630398487 16.0359764,0.640673902 15.9920068,0.67678107 C15.8939484,0.757733179 15.8195237,0.824599099 15.7403319,0.908085205 C15.2844046,1.3887364 15.1195797,1.99864351 15.4468146,2.6962844 C15.768959,3.38290502 16.370934,3.61661686 17.4145256,3.6121687 C17.6456081,3.61092587 17.7780465,3.65665027 17.8181181,3.69712613 C18.0833308,3.96861058 18.1411274,4.35683441 18.0498203,4.51313689 L18.8762172,5.01747933 C19.1992753,4.46445837 19.0682721,3.58450063 18.4969345,2.99968519 C18.2560927,2.75639854 17.8780467,2.62587805 17.4099859,2.628396 C16.6985769,2.63142799 16.4360077,2.52948767 16.3147031,2.27093824 C16.182209,1.98847045 16.2324405,1.80259705 16.4313662,1.59288404 C16.4703014,1.55183754 16.7606241,1.3121618 16.8199906,1.21172715 L15.9961719,0.702997172 C16.0271984,0.650507368 16.0387843,0.638762922 16.0577819,0.622298 Z" id="Stroke-3"></path>
                    <polygon id="Stroke-5" points="7.91243207 20.3086754 8.62194293 19.6439084 6.73131793 17.5358003 6.02180707 18.2005672"></polygon>
                    <path d="M2.18729842,24.3643193 L2.86448455,24.433206 L1.04948455,22.1683952 L0.98208608,22.8606673 L17.1170236,9.35612676 L16.4397816,9.28719014 L18.2547816,11.5527037 L18.3222359,10.8604815 L2.18729842,24.3643193 Z M19.3043712,11.3100108 L18.9994684,10.9294261 L17.1844684,8.66391257 L16.8795702,8.28333348 L16.5072264,8.59497595 L0.37228892,22.0995165 L-0.000107529276,22.411203 L0.304890445,22.7917885 L2.11989045,25.0565994 L2.42479114,25.4370635 L2.79707658,25.1254861 L18.9320141,11.6216482 L19.3043712,11.3100108 Z" id="Stroke-7"></path>
                    <path d="M19.4402729,10.5098286 C19.6094253,10.7193748 19.9127461,10.7490881 20.1177588,10.5761953 C20.3227715,10.4033024 20.351842,10.0932743 20.1826896,9.88372814 L18.2920646,7.54162003 C18.1229122,7.33207386 17.8195914,7.3023605 17.6145787,7.47525338 C17.409566,7.64814625 17.3804955,7.95817435 17.5496479,8.16772051 L19.4402729,10.5098286 Z" id="Stroke-9"></path>
                    <path d="M20.7579354,9.39716916 C20.9270878,9.60671533 21.2304086,9.63642869 21.4354213,9.46353581 C21.640434,9.29064294 21.6695045,8.98061484 21.5003521,8.77106868 L19.6097271,6.42896057 C19.4405747,6.2194144 19.1372539,6.18970104 18.9322412,6.36259392 C18.7272285,6.53548679 18.698158,6.84551489 18.8673104,7.05506105 L20.7579354,9.39716916 Z" id="Stroke-11"></path>
                </g>
            </g>
        </g>
    </g>
</svg>