<?xml version="1.0" encoding="UTF-8" standalone="no"?>
<svg width="52px" height="51px" viewBox="0 0 52 51" version="1.1" xmlns="http://www.w3.org/2000/svg" xmlns:xlink="http://www.w3.org/1999/xlink">
    <!-- Generator: Sketch 39.1 (31720) - http://www.bohemiancoding.com/sketch -->
    <title>ico_TODOSaseodelhogar_grey</title>
    <desc>Created with Sketch.</desc>
    <defs></defs>
    <g id="Supermercado_categoria" stroke="none" stroke-width="1" fill="none" fill-rule="evenodd">
        <g id="Subcategorias_aseo-hogar" transform="translate(-15.000000, -14.000000)" fill="#D4D4D4">
            <g id="icon01" transform="translate(15.000000, 14.000000)">
                <g id="aseohogar_dgreen" transform="translate(15.000000, 11.000000)">
                    <path d="M22.3905,27.9881 C22.659948,27.9881 22.8783788,27.7687195 22.8783788,27.4981 C22.8783788,27.2274805 22.659948,27.0081 22.3905,27.0081 L15.6145606,27.0081 C15.3451126,27.0081 15.1266818,27.2274805 15.1266818,27.4981 C15.1266818,27.7687195 15.3451126,27.9881 15.6145606,27.9881 L22.3905,27.9881 Z" id="Stroke-1"></path>
                    <path d="M10.8906854,26.9635642 L11.3753818,26.52944 L2.46462424,26.52944 L2.9493259,26.9636104 L2.38268954,22.0013104 L1.99165898,22.5380238 L6.78332564,21.5965238 C7.2974305,21.4955282 7.6682,21.0426317 7.6682,20.51644 L7.6682,13.03834 L7.18032121,13.52834 L12.9735333,13.52834 L12.488839,12.9824464 L12.2009905,15.5003464 L12.0121178,17.1508936 L10.8906854,26.9635642 Z M13.1703732,15.6121864 L13.4582277,13.0942336 C13.4914782,12.8033814 13.2650291,12.54834 12.9735333,12.54834 L7.18032121,12.54834 C6.9108732,12.54834 6.69244242,12.7677205 6.69244242,13.03834 L6.69244242,20.51644 C6.69244242,20.5741996 6.65185215,20.6237808 6.59600067,20.6347528 L1.80431678,21.5762562 C1.55453736,21.6253346 1.38428737,21.8590131 1.41328622,22.1129696 L1.97992258,27.0752696 C2.00817243,27.3226667 2.21668342,27.50944 2.46462424,27.50944 L11.3753818,27.50944 C11.6233049,27.50944 11.831807,27.3226926 11.8600782,27.0753158 L12.9815024,17.2627158 L13.1703732,15.6121864 Z M0.97589697,12.73244 L0.488018182,13.22244 L5.6602303,13.22244 L5.17235152,12.73244 L5.17235152,19.70794 L5.56654786,19.2270584 L0.394335739,20.2434584 L0.97589697,20.72434 L0.97589697,12.73244 Z M0.581700624,21.2052216 L5.75391275,20.1888216 C5.98289944,20.143823 6.14810909,19.9422832 6.14810909,19.70794 L6.14810909,12.73244 C6.14810909,12.4618205 5.92967832,12.24244 5.6602303,12.24244 L0.488018182,12.24244 C0.218570168,12.24244 0.000139393939,12.4618205 0.000139393939,12.73244 L0.000139393939,20.72434 C0.000139393939,21.0327184 0.280370985,21.2644364 0.581700624,21.2052216 Z" id="Stroke-4"></path>
                    <path d="M5.29808485,9.24833 C5.29808485,8.16067814 4.40697694,7.27923 3.31520606,7.27923 C2.22349869,7.27923 1.33302424,8.16061871 1.33302424,9.24833 C1.33302424,10.3360413 2.22349869,11.21743 3.31520606,11.21743 C4.40697694,11.21743 5.29808485,10.3359819 5.29808485,9.24833 Z M2.30878182,9.24833 C2.30878182,8.70508501 2.75923289,8.25923 3.31520606,8.25923 C3.87138099,8.25923 4.32232727,8.70528795 4.32232727,9.24833 C4.32232727,9.79137205 3.87138099,10.23743 3.31520606,10.23743 C2.75923289,10.23743 2.30878182,9.79157499 2.30878182,9.24833 Z" id="Stroke-6"></path>
                    <path d="M10.4995697,6.71202 C10.4995697,5.46552707 9.49139928,4.45242 8.25044848,4.45242 C7.00949769,4.45242 6.00132727,5.46552707 6.00132727,6.71202 C6.00132727,7.95795122 7.00963541,8.97092 8.25044848,8.97092 C9.49126156,8.97092 10.4995697,7.95795122 10.4995697,6.71202 Z M6.97708485,6.71202 C6.97708485,6.00664632 7.54851308,5.43242 8.25044848,5.43242 C8.95238389,5.43242 9.52381212,6.00664632 9.52381212,6.71202 C9.52381212,7.41677209 8.95230585,7.99092 8.25044848,7.99092 C7.54859112,7.99092 6.97708485,7.41677209 6.97708485,6.71202 Z" id="Stroke-8"></path>
                    <path d="M4.14208389,4.53128108 C4.599651,4.50855723 4.99949129,4.19481255 5.13442721,3.75404749 C5.42904131,2.78601386 4.34421658,1.96133338 3.49647964,2.50558116 C3.05257844,2.7917297 2.87114109,3.36821346 3.07624658,3.85650325 C3.07895584,3.86293547 3.07895584,3.86293547 3.08021366,3.86592141 C3.97947211,3.48554053 3.97947211,3.48554053 3.97939349,3.4853539 C3.97795599,3.4819414 3.97795599,3.4819414 3.97508099,3.4751164 C3.97220599,3.4682914 3.97220599,3.4682914 3.97076849,3.4648789 C3.97068988,3.46469228 3.07201928,3.84646866 3.07201928,3.84646866 C3.07392459,3.85099172 3.07392459,3.85099172 3.07644022,3.8569636 C3.2557385,4.28179541 3.68245633,4.55524527 4.14208389,4.53128108 Z M3.97130755,3.46615859 C3.07204911,3.84653947 3.07204911,3.84653947 3.07212772,3.8467261 C3.07356522,3.8501386 3.07356522,3.8501386 3.07644022,3.8569636 C3.07931522,3.8637886 3.07931522,3.8637886 3.08075272,3.8672011 C3.08083133,3.86738772 3.97950194,3.48561134 3.97950194,3.48561134 C3.97759662,3.48108828 3.97759662,3.48108828 3.97508099,3.4751164 C3.95559558,3.42872729 3.97715931,3.36021251 4.02277224,3.3308093 C4.1059223,3.27742789 4.23036845,3.37203147 4.20152461,3.46680586 C4.18726556,3.51338047 4.14038096,3.55016964 4.09269448,3.55253802 C4.04504893,3.55502069 3.99536783,3.52318399 3.97495134,3.47480892 C3.97256537,3.46914453 3.97256537,3.46914453 3.97130755,3.46615859 Z" id="Stroke-10"></path>
                    <path d="M18.6289235,27.5419626 C18.716556,27.7978699 18.994152,27.9339747 19.2489515,27.8459612 C19.503751,27.7579477 19.6392666,27.4791447 19.5516341,27.2232374 L10.3425735,0.330637433 C10.254941,0.0747301258 9.97734498,-0.0613746838 9.7225455,0.0266388319 C9.46774601,0.114652348 9.3322304,0.393455261 9.41986291,0.649362567 L18.6289235,27.5419626 Z" id="Stroke-12"></path>
                    <path d="M11.777287,16.3789495 C12.1454593,16.5352484 12.514131,16.7454329 12.856571,17.0154444 C13.9358787,17.8664708 14.5249025,19.1043385 14.3807633,20.8594811 C14.3770226,20.9201826 14.3657706,21.020449 14.3415453,21.1532584 C14.3009371,21.3758825 14.2386669,21.597747 14.1521007,21.7999768 C13.9292668,22.320545 13.6068898,22.59726 13.1245667,22.59726 C12.8551187,22.59726 12.6366879,22.8166405 12.6366879,23.08726 C12.6366879,23.3578795 12.8551187,23.57726 13.1245667,23.57726 C14.0528231,23.57726 14.6861222,23.0336625 15.0485251,22.1870432 C15.250537,21.7151178 15.3346308,21.2540943 15.3539985,20.9290292 C15.5254089,18.8433269 14.7870957,17.291719 13.4591137,16.2446148 C12.7466431,15.6828367 12.0357989,15.3810645 11.5405788,15.2609521 C11.27866,15.1974254 11.0150573,15.3591772 10.9518056,15.6222348 C10.8885539,15.8852923 11.0496054,16.1500412 11.3115242,16.2135679 C11.3952955,16.2338861 11.5597544,16.2866011 11.777287,16.3789495 Z" id="Stroke-14"></path>
                </g>
            </g>
        </g>
    </g>
</svg>