<?xml version="1.0" encoding="UTF-8" standalone="no"?>
<svg width="52px" height="51px" viewBox="0 0 52 51" version="1.1" xmlns="http://www.w3.org/2000/svg" xmlns:xlink="http://www.w3.org/1999/xlink">
    <!-- Generator: Sketch 39.1 (31720) - http://www.bohemiancoding.com/sketch -->
    <title>ico_cuidadovidrio_grey</title>
    <desc>Created with Sketch.</desc>
    <defs></defs>
    <g id="supermercado_categoria" stroke="none" stroke-width="1" fill="none" fill-rule="evenodd">
        <g id="Subcategorias_aseo-hogar" transform="translate(-325.000000, -14.000000)" fill="#D4D4D4">
            <g id="icon01-copy-5" transform="translate(325.000000, 14.000000)">
                <g id="cuidado_vidrio_blue" transform="translate(20.000000, 12.000000)">
                    <path d="M3.48822338,8.93258605 L3.07182688,9.16202367 L6.47347394,9.1627342 L5.97949314,8.67122707 L6.02678725,12.7105692 C6.03213232,13.1315915 6.2869948,13.5060798 6.67468119,13.6793758 C7.09344786,13.8531442 8.1015276,14.4121435 8.93909006,15.0519983 C10.3929519,16.1630769 10.9644,17.158317 10.9644,18.0031026 L10.9644,26.1734447 L11.4585176,25.6760763 L0.785576471,25.6760763 L1.27668152,26.1186062 C1.1148118,24.64985 0.999761582,22.8544864 0.998046862,20.9207903 C0.973272197,20.2135196 0.995391633,19.4307319 1.05880074,18.5729866 C1.13361341,17.5609837 1.2629325,16.4793127 1.43132859,15.373429 C1.52863904,14.7343759 1.63291556,14.1270857 1.73714223,13.5717345 C1.7995216,13.2393584 1.84785799,12.9989167 1.87513061,12.8704934 C2.26991189,11.3397978 2.80549828,10.0073648 3.48822338,8.93258605 Z M0.869040498,12.8560994 C0.837932077,13.0108434 0.803320596,13.1886671 0.766082468,13.387083 C0.659833547,13.9532093 0.553634473,14.5716962 0.454501044,15.2227211 C0.28248271,16.3523927 0.150189525,17.45894 0.0732901189,18.4991707 C0.00737189769,19.390857 -0.0157491277,20.2090901 0.0101260648,20.9389713 C0.0115618345,22.8950168 0.128877796,24.7257374 0.294471426,26.2282833 L0.343242069,26.6708132 L0.785576471,26.6708132 L11.4585176,26.6708132 L11.9526353,26.6708132 L11.9526353,26.1734447 L11.9526353,18.0031026 C11.9526353,16.8212571 11.2209052,15.5468682 9.53660216,14.2596805 C8.6262014,13.5641809 7.54429213,12.9642417 7.06335873,12.7649075 C7.03483497,12.7519544 7.01526331,12.7231963 7.01494789,12.6983523 L6.96765981,8.65950451 L6.96190625,8.16809936 L6.47367901,8.16799738 L3.07203195,8.16728685 L2.80141561,8.16723033 L2.65563544,8.39672448 C1.91134664,9.56841972 1.33763484,10.9957012 0.913629165,12.6416871 C0.901343177,12.6973292 0.887821818,12.7626747 0.869040498,12.8560994 Z M6.15845959,3.64802364 L6.03325018,3.68304591 L5.941359,3.77554163 C6.10830157,3.65783675 6.10830157,3.65783675 6.15350838,3.64971309 C6.14547515,3.65092668 6.14547515,3.65092668 6.0662474,3.68379542 L6.28722353,4.12865526 L6.15337767,3.64988169 L5.70937767,3.77564485 L5.34910588,3.87769196 L5.34910588,4.25441842 L5.34910588,6.74907632 L5.84322353,6.25170789 L3.34722353,6.25170789 L3.84134118,6.74907632 L3.84134118,3.41244474 L3.84134118,2.91507632 L3.34722353,2.91507632 L0.8964,2.91507632 L1.38421787,3.49161315 C1.48824546,2.84215674 1.79654782,2.28450518 2.29537023,1.84697453 C2.91692712,1.30046203 3.79279362,0.994523684 4.76251765,0.994523684 C5.83738248,0.994523684 6.88398283,1.25109873 8.03687268,1.74118282 L8.16069894,1.80135906 C8.19397243,1.82503945 8.3207686,1.89616549 8.52464517,2.00732838 C8.62851434,2.06396263 9.03802436,2.28551519 9.1059808,2.32242676 C9.12645837,2.33355176 9.12645837,2.33355176 9.14691418,2.34467482 C9.64531883,2.61575228 9.97952152,2.80861383 10.0150793,2.84115177 L10.3474588,2.47312895 L9.85334118,2.47312895 L9.85334118,2.97902368 L10.2137464,2.50021233 L8.20480524,3.06863338 L8.03146559,3.12456257 L6.15845959,3.64802364 Z M8.49027559,4.02077427 L10.4811712,3.45783504 L10.8415765,3.35585997 L10.8415765,2.97902368 L10.8415765,2.47312895 L10.8415765,2.25310814 L10.6798383,2.10510612 C10.551065,1.98726926 10.2632207,1.82116024 9.61669891,1.46952327 C9.59598867,1.45826187 9.59598867,1.45826187 9.57528053,1.44701161 C9.50602158,1.40939256 9.0974951,1.18837212 8.99533552,1.13267001 C8.80793426,1.03049021 8.68979367,0.96421951 8.632041,0.928585643 L8.44221871,0.834267258 C7.15599503,0.286924453 5.98472632,-0.000213157895 4.76251765,-0.000213157895 C3.56185079,-0.000213157895 2.45387995,0.386798747 1.64568671,1.09741447 C0.973399111,1.68709565 0.549426285,2.45396981 0.40858213,3.33327633 L0.316234534,3.90981316 L0.8964,3.90981316 L3.34722353,3.90981316 L2.85310588,3.41244474 L2.85310588,6.74907632 L2.85310588,7.24644474 L3.34722353,7.24644474 L5.84322353,7.24644474 L6.33734118,7.24644474 L6.33734118,6.74907632 L6.33734118,4.25441842 L5.84322353,4.25441842 L5.97706939,4.733192 L6.42106939,4.60742884 L6.50819966,4.5735151 C6.43108956,4.60549569 6.43108956,4.60549569 6.4249975,4.60617638 C6.47196902,4.59751983 6.47196902,4.59751983 6.64014688,4.47892679 L6.29075294,4.12723421 L6.42304629,4.60644479 L8.31551688,4.07710268 L8.49027559,4.02077427 Z M5.84322353,9.15065526 L6.33734118,9.15065526 L6.33734118,8.65328684 L6.33734118,6.74907632 L6.33734118,6.25170789 L5.84322353,6.25170789 L3.34722353,6.25170789 L2.85310588,6.25170789 L2.85310588,6.74907632 L2.85310588,8.65328684 L2.85310588,9.15065526 L3.34722353,9.15065526 L5.84322353,9.15065526 Z M3.84134118,8.65328684 L3.84134118,6.74907632 L3.34722353,7.24644474 L5.84322353,7.24644474 L5.34910588,6.74907632 L5.34910588,8.65328684 L5.84322353,8.15591842 L3.34722353,8.15591842 L3.84134118,8.65328684 Z" id="Stroke-1"></path>
                    <path d="M2.77411765,12.6668368 C2.77411765,13.0164158 2.47129412,13.2999158 2.09788235,13.2999158 C1.72376471,13.2999158 1.42094118,13.0164158 1.42094118,12.6668368 C1.42094118,12.3172579 1.72376471,12.0337579 2.09788235,12.0337579 C2.47129412,12.0337579 2.77411765,12.3172579 2.77411765,12.6668368" id="Fill-3"></path>
                    <path d="M2.12237647,15.7996184 C2.12237647,16.1491974 1.81955294,16.4326974 1.44614118,16.4326974 C1.07202353,16.4326974 0.7692,16.1491974 0.7692,15.7996184 C0.7692,15.4500395 1.07202353,15.1665395 1.44614118,15.1665395 C1.81955294,15.1665395 2.12237647,15.4500395 2.12237647,15.7996184" id="Fill-5"></path>
                    <path d="M7.65706078,3.77271873 C7.62864838,3.97264747 7.60028594,4.19479393 7.57382767,4.43360727 C7.50024746,5.09774508 7.45513202,5.76150822 7.45263836,6.38508889 C7.44879694,7.34569952 7.54517782,8.12792219 7.77957039,8.69173855 C7.88491405,8.94513598 8.17438856,9.06459546 8.4261298,8.95855875 C8.67787104,8.85252204 8.79654973,8.5611431 8.69120608,8.30774566 C8.51983977,7.89553496 8.4375134,7.22737804 8.44086565,6.38909291 C8.44320066,5.80518478 8.48600844,5.17537321 8.55597456,4.54385634 C8.58125146,4.31570603 8.60831957,4.10369731 8.63533771,3.91357956 C8.65141069,3.80047927 8.66376483,3.72056926 8.67055306,3.67955482 C8.71539834,3.40860022 8.53353616,3.15235466 8.2643525,3.10721435 C7.99516885,3.06207403 7.7405981,3.24513268 7.69575282,3.51608728 C7.68775958,3.56438234 7.67424613,3.65179113 7.65706078,3.77271873 Z" id="Stroke-7"></path>
                    <path d="M4.12503529,23.166 C3.5403941,23.166 3.06621176,22.6888629 3.06621176,22.1002105 L3.06621176,18.4218158 C3.06621176,17.8336012 3.54066521,17.3560263 4.12503529,17.3560263 L8.01444706,17.3560263 C8.59925199,17.3560263 9.07327059,17.8333283 9.07327059,18.4218158 L9.07327059,22.1002105 C9.07327059,22.6891357 8.59952303,23.166 8.01444706,23.166 L4.12503529,23.166 Z M9.77915294,22.1002105 L9.77915294,18.4218158 C9.77915294,17.4409703 8.98915464,16.6455 8.01444706,16.6455 L4.12503529,16.6455 C3.15081715,16.6455 2.36032941,17.4411883 2.36032941,18.4218158 L2.36032941,22.1002105 C2.36032941,23.0813307 3.1506006,23.8765263 4.12503529,23.8765263 L8.01444706,23.8765263 C8.98937109,23.8765263 9.77915294,23.0815485 9.77915294,22.1002105 Z" id="Stroke-9"></path>
                </g>
            </g>
        </g>
    </g>
</svg>