<?xml version="1.0" encoding="UTF-8" standalone="no"?>
<svg width="52px" height="51px" viewBox="0 0 52 51" version="1.1" xmlns="http://www.w3.org/2000/svg" xmlns:xlink="http://www.w3.org/1999/xlink">
    <!-- Generator: Sketch 39.1 (31720) - http://www.bohemiancoding.com/sketch -->
    <title>ico_cuidadopiso_green</title>
    <desc>Created with Sketch.</desc>
    <defs></defs>
    <g id="supermercado_categoria" stroke="none" stroke-width="1" fill="none" fill-rule="evenodd">
        <g id="Subcategorias_aseo-hogar" transform="translate(-201.000000, -136.000000)" fill="#44D481">
            <g id="icon01-copy-12" transform="translate(201.000000, 136.000000)">
                <g id="cuidado_piso_blue" transform="translate(19.000000, 11.000000)">
                    <path d="M1.82891429,14.5667053 C1.34416609,14.5667053 0.950992208,14.1684956 0.950992208,13.6772316 L0.950992208,13.6621789 C0.950992208,13.1709149 1.34416609,12.7727053 1.82891429,12.7727053 L11.9689143,12.7727053 C12.454068,12.7727053 12.8468364,13.1706416 12.8468364,13.6621789 L12.8468364,13.6772316 C12.8468364,14.1687689 12.454068,14.5667053 11.9689143,14.5667053 L1.82891429,14.5667053 Z M13.7922909,13.6772316 L13.7922909,13.6621789 C13.7922909,12.641611 12.9762281,11.8148105 11.9689143,11.8148105 L1.82891429,11.8148105 C0.822079048,11.8148105 0.00553766234,12.6418102 0.00553766234,13.6621789 L0.00553766234,13.6772316 C0.00553766234,14.6976003 0.822079048,15.5246 1.82891429,15.5246 L11.9689143,15.5246 C12.9762281,15.5246 13.7922909,14.6977995 13.7922909,13.6772316 Z" id="Stroke-1"></path>
                    <path d="M4.44647273,11.8146053 C4.33477357,11.8146053 4.24387532,11.722511 4.24387532,11.6093421 L4.24387532,9.39181579 C4.24387532,9.27864691 4.33477357,9.18655263 4.44647273,9.18655263 L9.02247273,9.18655263 C9.13417188,9.18655263 9.22507013,9.27864691 9.22507013,9.39181579 L9.22507013,11.6093421 C9.22507013,11.722511 9.13417188,11.8146053 9.02247273,11.8146053 L4.44647273,11.8146053 Z M10.1705247,11.6093421 L10.1705247,9.39181579 C10.1705247,8.74961625 9.65633201,8.22865789 9.02247273,8.22865789 L4.44647273,8.22865789 C3.81261344,8.22865789 3.29842078,8.74961625 3.29842078,9.39181579 L3.29842078,11.6093421 C3.29842078,12.2515416 3.81261344,12.7725 4.44647273,12.7725 L9.02247273,12.7725 C9.65633201,12.7725 10.1705247,12.2515416 10.1705247,11.6093421 Z" id="Stroke-3"></path>
                    <path d="M0.533574026,24.6577158 L1.00286498,25.1943071 L2.2103455,15.1035703 L1.74105455,15.5248737 L12.0850026,15.5248737 L11.6183981,15.1227616 L13.2371514,25.2134985 L13.7037558,24.6577158 L0.533574026,24.6577158 Z M14.2595188,25.6156105 L14.1703603,25.0598278 L12.5516071,14.969091 L12.4871004,14.5669789 L12.0850026,14.5669789 L1.74105455,14.5669789 L1.32217772,14.5669789 L1.27176359,14.9882824 L0.064283075,25.0790192 L7.33380773e-05,25.6156105 L0.533574026,25.6156105 L13.7037558,25.6156105 L14.2595188,25.6156105 Z" id="Stroke-5"></path>
                    <path d="M9.67774026,24.9697842 C9.67774026,25.2342995 9.88938747,25.4487316 10.1504675,25.4487316 C10.4115476,25.4487316 10.6231948,25.2342995 10.6231948,24.9697842 L10.6231948,21.3003632 C10.6231948,21.0358478 10.4115476,20.8214158 10.1504675,20.8214158 C9.88938747,20.8214158 9.67774026,21.0358478 9.67774026,21.3003632 L9.67774026,24.9697842 Z" id="Stroke-7"></path>
                    <path d="M6.38519481,24.9283895 C6.38519481,25.1929048 6.59684201,25.4073368 6.85792208,25.4073368 C7.11900214,25.4073368 7.33064935,25.1929048 7.33064935,24.9283895 L7.33064935,23.1768105 C7.33064935,22.9122952 7.11900214,22.6978632 6.85792208,22.6978632 C6.59684201,22.6978632 6.38519481,22.9122952 6.38519481,23.1768105 L6.38519481,24.9283895 Z" id="Stroke-9"></path>
                    <path d="M6.0758961,8.22852105 L6.54862338,8.70746842 L6.54862338,1.13941579 C6.54862338,1.03924691 6.62871643,0.9581 6.72758442,0.9581 C6.8264524,0.9581 6.90654545,1.03924691 6.90654545,1.13941579 L6.90654545,8.70746842 L7.37927273,8.22852105 L6.0758961,8.22852105 Z M7.852,9.18641579 L7.852,8.70746842 L7.852,1.13941579 C7.852,0.510216251 7.34861253,0.000205263158 6.72758442,0.000205263158 C6.1065563,0.000205263158 5.60316883,0.510216251 5.60316883,1.13941579 L5.60316883,8.70746842 L5.60316883,9.18641579 L6.0758961,9.18641579 L7.37927273,9.18641579 L7.852,9.18641579 Z" id="Stroke-11"></path>
                </g>
            </g>
        </g>
    </g>
</svg>