<?xml version="1.0" encoding="UTF-8" standalone="no"?>
<svg width="52px" height="51px" viewBox="0 0 52 51" version="1.1" xmlns="http://www.w3.org/2000/svg" xmlns:xlink="http://www.w3.org/1999/xlink">
    <!-- Generator: Sketch 39.1 (31720) - http://www.bohemiancoding.com/sketch -->
    <title>ico_cuidadoropa_green</title>
    <desc>Created with Sketch.</desc>
    <defs></defs>
    <g id="supermercado_categoria" stroke="none" stroke-width="1" fill="none" fill-rule="evenodd">
        <g id="Subcategorias_aseo-hogar" transform="translate(-77.000000, -136.000000)" fill="#44D481">
            <g id="icon01-copy-10" transform="translate(77.000000, 136.000000)">
                <g id="cuidado_ropa_lgreen" transform="translate(16.000000, 13.000000)">
                    <path d="M17.3945114,8.57177093 C17.205193,8.13535023 17.0714354,7.66250078 16.9851119,7.18887486 C16.9334556,6.90545527 16.9094573,6.68806575 16.9028725,6.5715046 L16.9022143,2.37679842 L16.9022143,2.04458378 C16.9022143,1.54051081 16.7421469,1.08994709 16.4401524,0.73284962 C16.0680893,0.210802274 15.5123189,0.00534054054 14.9979286,0.00534054054 C14.9353557,0.00534054054 14.882261,0.00843740327 14.8161152,0.0144626955 L14.8622143,0.504259459 L14.8946136,0.013401346 C14.7844995,0.00244934565 14.7486084,-0.000281081081 14.6957857,-0.000281081081 C14.5887815,-0.000281081081 14.5042464,0.00479631888 14.3986067,0.0144961335 L10.6429286,0.0123675676 L10.3243571,0.0123675676 C9.87398699,0.0123675676 9.45412644,0.194110448 9.15139259,0.520591768 C8.80347917,0.89684118 8.65109958,1.39829746 8.6214497,1.96372859 C8.60682913,2.15623551 8.61364087,2.34198649 8.63193839,2.49799348 C8.63934157,2.6055452 8.63934157,2.6055452 8.64106139,2.63798613 C8.64285868,2.67419692 8.64285868,2.67419692 8.64495097,2.71714461 C8.64947516,2.79568647 8.6520834,2.86104253 8.65533996,2.95875678 C8.65907467,3.04530823 8.6609621,3.11905066 8.66374151,3.25667887 C8.66583263,3.37426258 8.66723469,3.48650477 8.66793692,3.60602164 C8.668553,3.73265826 8.66760025,3.84638449 8.66513309,4.00091274 C8.6625668,4.14553132 8.65910312,4.2695958 8.65321148,4.44182288 C8.64675972,4.59789135 8.63908874,4.74160456 8.62817939,4.91409031 C8.60958011,5.20115707 8.35814885,5.32128483 8.0459848,5.32555014 C5.8334704,5.2764291 4.04199953,5.92572165 2.74508139,7.26590053 C1.78236213,8.26132991 1.19876486,9.52831921 0.909175407,10.9315585 C0.733585989,11.7823973 0.693431442,12.535304 0.718698395,12.9827339 L0.717928571,22.9155568 C0.717928571,24.429162 1.96848405,25.6589081 3.5065,25.6589081 L17.2000714,25.6589081 C18.7379995,25.6589081 19.9879286,24.4292482 19.9879286,22.9155568 L19.9879286,16.3698811 C19.9879286,13.6926777 19.1100793,10.9820694 17.91536,9.464665 C17.7137496,9.20853285 17.5403979,8.90807136 17.3945114,8.57177093 Z M18.9879286,16.3698811 L18.9879286,22.9155568 C18.9879286,23.8859194 18.1857148,24.6751243 17.2000714,24.6751243 L3.5065,24.6751243 C2.52067235,24.6751243 1.71792857,23.8857383 1.71792857,22.9155568 L1.71792857,12.9554486 C1.69632401,12.5592196 1.73209682,11.8884714 1.88918174,11.1272983 C2.14426728,9.89125177 2.65165371,8.78971615 3.46945048,7.94413323 C4.56105143,6.81612024 6.0792254,6.26588018 8.04172215,6.30916292 C8.29837721,6.3059802 8.57776681,6.2570481 8.84653617,6.1286366 C9.29394119,5.91487731 9.59065867,5.52452564 9.62620173,4.97592663 C9.63762823,4.79527342 9.64570879,4.64388685 9.65114771,4.50142396 C9.65872298,4.29725746 9.66233383,4.16792191 9.66429675,4.04368831 C9.66757977,3.85539257 9.66858549,3.73534424 9.66792022,3.6221189 C9.66719193,3.47638515 9.66573298,3.35958811 9.6635455,3.25055296 C9.66063495,3.09307946 9.65862713,3.01463341 9.65538619,2.93492383 C9.65342911,2.89765243 9.65342911,2.89765243 9.64826839,2.86177131 C9.65133431,2.82244241 9.64849915,2.7514003 9.64506465,2.6885545 C9.64174847,2.62783552 9.64174847,2.62783552 9.63979575,2.58850576 C9.63776557,2.54997372 9.63776557,2.54997372 9.63522935,2.51197037 C9.6303315,2.44087146 9.6303315,2.44087146 9.629812,2.43411663 C9.61378896,2.28668002 9.60918993,2.16126809 9.61941959,2.02540715 C9.6389815,1.654751 9.72927377,1.35761392 9.89064514,1.18309925 C10.0031593,1.06175982 10.1547273,0.996151351 10.3243571,0.996151351 L10.6429286,0.996151351 L14.4450714,0.996151351 C14.5689244,0.986917007 14.6257702,0.983502703 14.6957857,0.983502703 C14.7585001,0.988957567 14.7585001,0.988957567 14.7711495,0.990227759 C14.797537,0.992769098 14.797537,0.992769098 14.829815,0.995117573 L14.9083134,0.994056223 C14.9464376,0.990583446 14.9714538,0.989124324 14.9979286,0.989124324 C15.2182919,0.989124324 15.4685745,1.08165086 15.6470988,1.33083132 C15.82147,1.53947737 15.9022143,1.76675957 15.9022143,2.04458378 L15.9022143,2.37696216 L15.9036429,6.59896375 C15.9131241,6.78028993 15.9414325,7.03672283 16.0008096,7.3625035 C16.0995418,7.90421134 16.2529974,8.44669565 16.4747654,8.9579198 C16.6524269,9.3674687 16.8674856,9.74021891 17.1247434,10.0670471 C18.1789394,11.4059739 18.9879286,13.9039572 18.9879286,16.3698811 Z" id="Stroke-1"></path>
                    <path d="M6.73887824,9.53750284 C7.23868808,9.38615326 7.68856924,9.34728108 8.34514286,9.34728108 L8.40942857,9.34728108 C8.55721736,9.34728108 8.54240371,9.33125176 8.54331919,9.34199501 C8.54157143,11.5072575 6.5837166,13.1924703 5.27514286,13.1924703 C5.18042933,13.1924703 5.15328071,13.1836478 5.15561619,13.1860088 C5.1500968,13.1804659 5.12815828,13.10125 5.12862696,13.0765818 C5.13124015,13.036314 5.129119,12.9791369 5.12021489,12.9213228 C4.95166099,11.6707003 5.13751106,10.7589751 5.63843049,10.1962744 C5.90952831,9.89168305 6.2809718,9.67616348 6.73887824,9.53750284 Z M4.13019946,13.0596976 C4.12951149,13.0557915 4.1291494,13.046031 4.12948411,13.0401039 C4.12379944,13.321473 4.21371018,13.6461237 4.44026637,13.8734414 C4.64842203,14.0838757 4.93268915,14.1762541 5.27514286,14.1762541 C7.10849192,14.1762541 9.54157143,12.0819942 9.54157143,9.3009027 C9.49835073,8.7731198 9.11979406,8.3634973 8.40942857,8.3634973 L8.34514286,8.3634973 C7.59518729,8.3634973 7.06549366,8.4092657 6.44469332,8.59725295 C5.82100947,8.78611336 5.29028345,9.09405212 4.88611012,9.5481602 C4.16830877,10.3544921 3.92582289,11.5440558 4.13019946,13.0596976 Z" id="Stroke-3"></path>
                    <path d="M15.044,21.3582973 L5.60542857,21.3582973 C5.32489698,21.3582973 5.09614286,21.1334726 5.09614286,20.857973 L5.09614286,17.1765135 C5.09614286,16.9001249 5.32508649,16.6747838 5.60542857,16.6747838 L15.044,16.6747838 C15.3240965,16.6747838 15.5525714,16.8998834 15.5525714,17.1765135 L15.5525714,20.857973 C15.5525714,21.133714 15.3242862,21.3582973 15.044,21.3582973 Z M16.5525714,17.1765135 C16.5525714,16.3568772 15.8767097,15.691 15.044,15.691 L5.60542857,15.691 C4.77269238,15.691 4.09614286,16.3569036 4.09614286,17.1765135 L4.09614286,20.857973 C4.09614286,21.6770168 4.77283093,22.3420811 5.60542857,22.3420811 L15.044,22.3420811 C15.8765709,22.3420811 16.5525714,21.6770428 16.5525714,20.857973 L16.5525714,17.1765135 Z" id="Stroke-5"></path>
                    <path d="M16.3342143,3.85355135 C16.5314588,3.85355135 16.6913571,3.69624599 16.6913571,3.5022 C16.6913571,3.30815401 16.5314588,3.15084865 16.3342143,3.15084865 L9.16778571,3.15084865 C8.97054116,3.15084865 8.81064286,3.30815401 8.81064286,3.5022 C8.81064286,3.69624599 8.97054116,3.85355135 9.16778571,3.85355135 L16.3342143,3.85355135 Z" id="Stroke-7"></path>
                    <path d="M16.3342143,5.46527027 C16.5314588,5.46527027 16.6913571,5.30796491 16.6913571,5.11391892 C16.6913571,4.91987293 16.5314588,4.76256757 16.3342143,4.76256757 L9.16778571,4.76256757 C8.97054116,4.76256757 8.81064286,4.91987293 8.81064286,5.11391892 C8.81064286,5.30796491 8.97054116,5.46527027 9.16778571,5.46527027 L16.3342143,5.46527027 Z" id="Stroke-9"></path>
                    <path d="M12.4125,5.08707568 C12.4125,5.28112167 12.5723983,5.43842703 12.7696429,5.43842703 C12.9668874,5.43842703 13.1267857,5.28112167 13.1267857,5.08707568 L13.1267857,3.58329189 C13.1267857,3.3892459 12.9668874,3.23194054 12.7696429,3.23194054 C12.5723983,3.23194054 12.4125,3.3892459 12.4125,3.58329189 L12.4125,5.08707568 Z" id="Stroke-11"></path>
                    <path d="M10.7125,4.98588649 C10.7125,5.17993248 10.8723983,5.33723784 11.0696429,5.33723784 C11.2668874,5.33723784 11.4267857,5.17993248 11.4267857,4.98588649 L11.4267857,3.58329189 C11.4267857,3.3892459 11.2668874,3.23194054 11.0696429,3.23194054 C10.8723983,3.23194054 10.7125,3.3892459 10.7125,3.58329189 L10.7125,4.98588649 Z" id="Stroke-13"></path>
                    <path d="M14.3524286,4.98588649 C14.3524286,5.17993248 14.5123269,5.33723784 14.7095714,5.33723784 C14.906816,5.33723784 15.0667143,5.17993248 15.0667143,4.98588649 L15.0667143,3.58329189 C15.0667143,3.3892459 14.906816,3.23194054 14.7095714,3.23194054 C14.5123269,3.23194054 14.3524286,3.3892459 14.3524286,3.58329189 L14.3524286,4.98588649 Z" id="Stroke-15"></path>
                </g>
            </g>
        </g>
    </g>
</svg>