<?xml version="1.0" encoding="UTF-8" standalone="no"?>
<svg width="52px" height="51px" viewBox="0 0 52 51" version="1.1" xmlns="http://www.w3.org/2000/svg" xmlns:xlink="http://www.w3.org/1999/xlink">
    <!-- Generator: Sketch 39.1 (31720) - http://www.bohemiancoding.com/sketch -->
    <title>ico_decoracion_green</title>
    <desc>Created with Sketch.</desc>
    <defs></defs>
    <g id="supermercado_categoria" stroke="none" stroke-width="1" fill="none" fill-rule="evenodd">
        <g id="Subcategorias_aseo-hogar" transform="translate(-139.000000, -197.000000)" fill="#44D481">
            <g id="icon01-copy-19" transform="translate(139.000000, 197.000000)">
                <g id="decoracion_green" transform="translate(20.000000, 12.000000)">
                    <path d="M5.48774286,3.8324 C5.24024286,3.8324 5.0391,4.0372 5.0391,4.2892 C5.0391,4.5412 5.24024286,4.7468 5.48774286,4.7468 C5.73524286,4.7468 5.93717143,4.5412 5.93717143,4.2892 C5.93717143,4.0372 5.73524286,3.8324 5.48774286,3.8324 M5.48774286,5.5468 C4.80731429,5.5468 4.25338571,4.982 4.25338571,4.2892 C4.25338571,3.5964 4.80731429,3.0324 5.48774286,3.0324 C6.16895714,3.0324 6.72288571,3.5964 6.72288571,4.2892 C6.72288571,4.982 6.16895714,5.5468 5.48774286,5.5468" id="Fill-1"></path>
                    <path d="M2.783,1.12072 C2.51585714,1.12072 2.34142857,1.20472 2.26521429,1.37112 C2.12692857,1.67112 2.14814286,2.48952 3.10278571,3.65352 C3.48857143,4.12312 3.48857143,4.80552 3.10278571,5.27592 C2.14735714,6.43912 2.12692857,7.25832 2.26521429,7.55832 C2.34142857,7.72472 2.51507143,7.80872 2.78221429,7.80872 C3.31021429,7.80872 4.00635714,7.47432 4.69071429,6.89192 C5.15114286,6.49832 5.82135714,6.49832 6.28492857,6.89192 C6.96928571,7.47432 7.66464286,7.80792 8.19342857,7.80792 C8.46057143,7.80792 8.63342857,7.72392 8.70964286,7.55832 C8.84871429,7.25752 8.8275,6.43912 7.87364286,5.27592 C7.4855,4.80552 7.4855,4.12232 7.87364286,3.65192 C8.8275,2.48952 8.84871429,1.67112 8.71042857,1.37032 C8.63342857,1.20392 8.46057143,1.12072 8.19342857,1.12072 C7.66542857,1.12072 6.96928571,1.45432 6.28414286,2.03672 C5.82371429,2.43032 5.15271429,2.43032 4.69071429,2.03592 C4.00635714,1.45432 3.311,1.12072 2.783,1.12072 L2.783,1.12072 Z M2.78221429,8.92872 C2.08135714,8.92872 1.52978571,8.60232 1.26892857,8.03352 C0.850142857,7.12232 1.22021429,5.82312 2.25892857,4.55832 C2.30371429,4.50392 2.30371429,4.42552 2.25892857,4.37112 C1.221,3.10552 0.850142857,1.80632 1.26892857,0.89592 C1.53057143,0.32712 2.08292857,0.00072 2.783,0.00072 C3.57578571,0.00072 4.50371429,0.41832 5.3955,1.17672 C5.44971429,1.22232 5.52514286,1.22152 5.57935714,1.17752 C6.47192857,0.41832 7.39985714,-7.99999998e-05 8.19342857,-7.99999998e-05 C8.8935,-7.99999998e-05 9.44507143,0.32712 9.7075,0.89672 C10.1255,1.80552 9.75542857,3.10472 8.7175,4.37032 C8.67271429,4.42552 8.67271429,4.50312 8.71671429,4.55672 C9.75542857,5.82312 10.1255,7.12232 9.70671429,8.03272 C9.44507143,8.60152 8.8935,8.92872 8.19342857,8.92872 C7.39985714,8.92872 6.47114286,8.51032 5.57935714,7.75192 C5.52828571,7.70792 5.44971429,7.70712 5.39707143,7.75112 C4.50371429,8.51032 3.57578571,8.92872 2.78221429,8.92872 L2.78221429,8.92872 Z M1.30742857,11.64952 C1.86607143,12.12392 2.57478571,12.12392 3.135,11.64952 C2.57478571,11.17592 1.86607143,11.17592 1.30742857,11.64952 L1.30742857,11.64952 Z M2.22121429,13.13352 C1.42371429,13.13352 0.674928571,12.72792 0.114714286,11.99272 C-0.0385,11.79032 -0.0385,11.50872 0.114714286,11.30632 C0.674928571,10.57112 1.42292857,10.16632 2.22121429,10.16632 C3.0195,10.16632 3.76671429,10.57112 4.32692857,11.30632 C4.48014286,11.50872 4.48014286,11.79032 4.32692857,11.99272 C3.76671429,12.72792 3.0195,13.13352 2.22121429,13.13352 L2.22121429,13.13352 Z M0.802214286,22.51992 L0.809285714,22.51992 L0.802214286,22.51992 Z M4.07,15.25752 C4.08885714,15.36872 4.10378571,15.48072 4.114,15.59512 C4.1305,15.76952 4.13757143,15.92312 4.13757143,16.07672 C4.13757143,17.72792 3.42492857,18.59032 2.85292857,19.28392 C2.77121429,19.38152 2.69107143,19.47912 2.6125,19.57992 C2.59992857,19.59672 2.53864286,19.66552 2.5245,19.68152 C1.76942857,20.44472 1.35378571,21.45272 1.35221429,22.52072 L1.35221429,22.52072 C1.34985714,23.57992 1.75607143,24.57912 2.49778571,25.33432 C3.24342857,26.09432 4.23657143,26.51272 5.29257143,26.51272 C6.34857143,26.51272 7.34171429,26.09432 8.08735714,25.33432 C8.82907143,24.57832 9.2345,23.57752 9.22664286,22.51512 C9.21957143,21.45112 8.80157143,20.44392 8.05121429,19.67992 C8.03628571,19.66392 7.97578571,19.59512 7.96321429,19.57752 C7.88778571,19.48072 7.80842857,19.38472 7.72828571,19.28792 C7.15628571,18.59432 6.44442857,17.73112 6.44442857,16.07672 C6.44442857,15.89352 6.4515,15.74072 6.46564286,15.59512 C6.47507143,15.48072 6.49,15.36872 6.50885714,15.25752 C6.47507143,15.24632 6.44207143,15.23352 6.40985714,15.22072 C5.86221429,14.98952 5.54478571,14.51912 5.28864286,14.04792 C5.03328571,14.52072 4.71585714,14.98872 4.169,15.21992 C4.13678571,15.23352 4.10378571,15.24632 4.07,15.25752 L4.07,15.25752 Z M5.29257143,27.63272 C3.94271429,27.63272 2.673,27.09752 1.71914286,26.12552 C0.77,25.15832 0.249071429,23.87752 0.251428571,22.51832 C0.253785714,21.15112 0.784928571,19.86152 1.74821429,18.88792 C1.83464286,18.77592 1.92264286,18.66952 2.01064286,18.56312 C2.53785714,17.92312 3.03678571,17.31992 3.03678571,16.07672 C3.03678571,15.95672 3.03128571,15.83752 3.01871429,15.70072 C2.99435714,15.43512 2.9425,15.19032 2.86235714,14.95192 C2.80028571,14.77032 2.83485714,14.56952 2.9535,14.41912 C3.07135714,14.26952 3.25757143,14.18712 3.44457143,14.21352 C3.55614286,14.22472 3.66692857,14.21832 3.74785714,14.18552 C4.04407143,14.05992 4.25228571,13.65512 4.47228571,13.22632 C4.598,12.98312 4.72921429,12.73192 4.85335714,12.56792 C4.95785714,12.43032 5.11814286,12.35032 5.28785714,12.34952 L5.28864286,12.34952 C5.45835714,12.34952 5.61864286,12.42952 5.72314286,12.56632 C5.85042857,12.73272 5.98164286,12.98392 6.10578571,13.22552 C6.32578571,13.65512 6.53321429,14.05992 6.82942857,14.18472 C6.90642857,14.21752 7.01485714,14.22872 7.13271429,14.21352 C7.315,14.19272 7.50592857,14.26872 7.62535714,14.41912 C7.74321429,14.56952 7.77778571,14.77112 7.71571429,14.95352 C7.63635714,15.18792 7.5845,15.43352 7.56014286,15.70152 C7.54835714,15.81592 7.54521429,15.93512 7.54521429,16.07672 C7.54521429,17.32312 8.04257143,17.92792 8.57057143,18.56792 C8.657,18.67192 8.74264286,18.77672 8.82671429,18.88472 C9.78528571,19.86152 10.3172143,21.14712 10.3274286,22.50712 C10.3360714,23.87112 9.8175,25.15672 8.86521429,26.12632 C7.91135714,27.09752 6.64242857,27.63272 5.29257143,27.63272 L5.29257143,27.63272 Z" id="Fill-3"></path>
                    <path d="M5.24299286,13.46992 C5.23356429,13.46992 5.22570714,13.46992 5.21627857,13.46912 C4.91299286,13.45472 4.67806429,13.19232 4.69299286,12.88352 L4.96249286,7.08832 C4.97585,6.77872 5.24299286,6.54352 5.53763571,6.55552 C5.84092143,6.56992 6.07585,6.83312 6.06092143,7.14192 L5.79142143,12.93632 C5.77806429,13.23632 5.53449286,13.46992 5.24299286,13.46992" id="Fill-6"></path>
                    <path d="M9.69712857,27.8504 L0.989057143,27.8504 C0.684985714,27.8504 0.439057143,27.6 0.439057143,27.2904 C0.439057143,26.9808 0.684985714,26.7304 0.989057143,26.7304 L9.69712857,26.7304 C10.0012,26.7304 10.2471286,26.9808 10.2471286,27.2904 C10.2471286,27.6 10.0012,27.8504 9.69712857,27.8504" id="Fill-8"></path>
                </g>
            </g>
        </g>
    </g>
</svg>