<?xml version="1.0" encoding="UTF-8" standalone="no"?>
<svg width="52px" height="51px" viewBox="0 0 52 51" version="1.1" xmlns="http://www.w3.org/2000/svg" xmlns:xlink="http://www.w3.org/1999/xlink">
    <!-- Generator: Sketch 39.1 (31720) - http://www.bohemiancoding.com/sketch -->
    <title>ico_cuidadocina_grey</title>
    <desc>Created with Sketch.</desc>
    <defs></defs>
    <g id="supermercado_categoria" stroke="none" stroke-width="1" fill="none" fill-rule="evenodd">
        <g id="Subcategorias_aseo-hogar" transform="translate(-139.000000, -14.000000)" fill="#D4D4D4">
            <g id="icon01-copy-2" transform="translate(139.000000, 14.000000)">
                <g id="cuidado_cocina_red" transform="translate(21.000000, 13.000000)">
                    <path d="M7.13775421,15.3981724 L6.85013333,15.7656667 L7.31191539,15.8330099 C7.32449205,15.74677 7.3308,15.6609367 7.3308,15.575 L7.3308,15.197 C7.3308,14.2263826 6.63858915,13.395877 5.66701478,13.1337739 L6.01194688,13.5975238 L6.35528021,1.45552376 C6.35546667,0.637037152 5.66636059,-0.000333333333 4.83413333,-0.000333333333 C4.00081667,-0.000333333333 3.3108,0.636767029 3.3108,1.44233333 L3.65565457,13.5975749 L4.00058522,13.1337739 C3.02901085,13.395877 2.3368,14.2263826 2.3368,15.197 L2.3368,15.575 C2.3368,15.6585 2.34264051,15.7417814 2.35410544,15.8290912 L2.8168,15.7683333 L2.52673427,15.4027658 C1.36306719,16.326097 0.433177583,18.8014983 0.00406484379,23.5032519 C0.000133333333,24.8245195 1.07811342,25.8203333 2.3868,25.8203333 L7.28013333,25.8203333 C8.58944239,25.8203333 9.66813333,24.8245789 9.66813333,23.5796667 C9.23278828,18.7863142 8.30390619,16.3108661 7.13775421,15.3981724 Z M7.28013333,24.887 L2.3868,24.887 C1.57777753,24.887 0.933466667,24.2918001 0.933466667,23.5796667 C1.34168219,19.1160475 2.18806796,16.8629364 3.10686573,16.1339009 C3.23530745,16.0319867 3.30084177,15.8701426 3.27949456,15.7075755 C3.27314303,15.6592061 3.27013333,15.6162901 3.27013333,15.575 L3.27013333,15.197 C3.27013333,14.6648315 3.66507633,14.190984 4.24368145,14.0348928 C4.45208599,13.9786712 4.59473696,13.7868597 4.5886121,13.5710917 L4.24394543,1.42909172 C4.24413333,1.16960044 4.50038534,0.933 4.83413333,0.933 C5.16646169,0.933 5.42213333,1.16947674 5.42213333,1.44233333 L5.07898645,13.5711429 C5.07288581,13.7868924 5.21553247,13.9786762 5.42391855,14.0348928 C6.00252367,14.190984 6.39746667,14.6648315 6.39746667,15.197 L6.39746667,15.575 C6.39746667,15.6155633 6.39446598,15.6563941 6.38835128,15.6983234 C6.36418749,15.864018 6.43064984,16.0299581 6.56251246,16.1331609 C7.47938738,16.8507568 8.32452659,19.1030322 8.73473968,23.5881708 C8.7348,24.2916971 8.08991422,24.887 7.28013333,24.887 Z" id="Stroke-1"></path>
                    <path d="M3.35607636,16.3030746 C4.32127901,16.5684103 5.33203061,16.6272676 6.28975452,16.3460948 C6.53613207,16.2737622 6.77417148,16.179422 7.00267313,16.0618837 L6.69772687,15.4690496 C6.50731921,15.5669929 6.30851312,15.645784 6.1019576,15.7064255 C5.28072694,15.947526 4.38886618,15.8955919 3.53278848,15.6602549 C3.25893888,15.5849732 3.05780205,15.5106458 2.95273487,15.4637472 L2.68099846,16.0725195 C2.815119,16.1323866 3.0473589,16.2182077 3.35607636,16.3030746 Z" id="Stroke-3"></path>
                    <path d="M3.55200807,16.2728417 C3.49253326,16.424249 3.42652302,16.6028777 3.35563349,16.8079705 C3.15409453,17.3910496 2.95294052,18.0708468 2.76543717,18.841301 C2.32010505,20.6711777 2.02099839,22.718925 1.93517882,24.9538094 L2.60135451,24.9793906 C2.68540533,22.7905672 2.97808258,20.7868371 3.41319711,18.9989446 C3.59565085,18.2492393 3.79087943,17.589467 3.98572305,17.0257585 C4.10168192,16.690274 4.19093716,16.4630535 4.2403079,16.3502319 L3.62955877,16.0829681 C3.61466169,16.1170108 3.58825978,16.1805544 3.55200807,16.2728417 Z" id="Stroke-5"></path>
                    <path d="M5.58989453,16.3695364 C5.63833004,16.5606187 5.69235216,16.7805351 5.75056449,17.0260509 C5.91702213,17.7281013 6.08352569,18.493868 6.23890745,19.2974039 C6.49268034,20.6097561 6.69125736,21.8915402 6.81351486,23.0928914 C6.89602192,23.9036389 6.94182523,24.6612682 6.94694238,25.3557228 L7.61359095,25.3508105 C7.60830884,24.63397 7.56126415,23.855807 7.47675596,23.0253956 C7.35228963,21.8023395 7.15074972,20.5014305 6.89344881,19.1708335 C6.73620265,18.3576562 6.56774771,17.5829149 6.39924684,16.872247 C6.34022369,16.6233114 6.28538431,16.4000681 6.23612359,16.2057303 C6.20645293,16.0886771 6.18515514,16.006977 6.17362513,15.9638466 L5.52957487,16.1360201 C5.54037542,16.1764218 5.56094745,16.2553377 5.58989453,16.3695364 Z" id="Stroke-7"></path>
                    <polygon id="Stroke-9" points="4.47702069 25.208969 5.14351264 25.224231 5.35151264 16.1408977 4.68502069 16.1256356"></polygon>
                </g>
            </g>
        </g>
    </g>
</svg>