<?xml version="1.0" encoding="UTF-8" standalone="no"?>
<svg width="52px" height="51px" viewBox="0 0 52 51" version="1.1" xmlns="http://www.w3.org/2000/svg" xmlns:xlink="http://www.w3.org/1999/xlink">
    <!-- Generator: Sketch 39.1 (31720) - http://www.bohemiancoding.com/sketch -->
    <title>ico_implementoshogar_grey</title>
    <desc>Created with Sketch.</desc>
    <defs></defs>
    <g id="supermercado_categoria" stroke="none" stroke-width="1" fill="none" fill-rule="evenodd">
        <g id="Subcategorias_aseo-hogar" transform="translate(-15.000000, -75.000000)" fill="#D4D4D4">
            <g id="icon01-copy-7" transform="translate(15.000000, 75.000000)">
                <g id="utensilios_red" transform="translate(17.000000, 13.000000)">
                    <path d="M1.14837226,1.63372128 C0.407353705,2.5868036 0,3.82418016 0,5.14863415 C0,5.8605443 0.146008289,6.55228862 0.42149177,7.27620214 C0.497923727,7.43833706 0.550853385,7.55161734 0.604625258,7.66999525 C0.636354523,7.73984672 0.736602905,7.96401851 0.732833517,7.95563464 C0.81644043,8.14071313 0.873859375,8.26178115 0.945317154,8.4032209 C0.992338933,8.4835982 1.05054835,8.58744424 1.12690347,8.7364389 C1.25592249,8.98819865 1.38529542,9.27095632 1.50604555,9.57729897 C1.89004701,10.5515093 2.09887252,11.5309688 2.04443973,12.4320333 C1.98781915,13.3606784 1.91819829,13.9984275 1.80561953,14.6594958 C1.73703588,15.0622225 1.70092493,15.2413217 1.48007995,16.3007353 C1.43151258,16.5327718 1.40414882,16.663597 1.37952541,16.782357 C1.33931616,16.9762882 1.30491254,17.1452835 1.27201027,17.3114081 C1.10093407,18.1751773 0.98273969,18.9051331 0.911667726,19.6097156 C0.814625086,20.5717623 0.816181305,21.4121137 0.93828279,22.1337618 C1.05633623,22.8350734 1.36672392,23.4801857 1.82139726,24.0686085 C2.25064984,24.6251249 2.65493612,24.985733 3.14611445,25.2100099 C3.55148199,25.3954592 3.83857515,25.4817001 4.19711778,25.4837971 C4.55722605,25.485899 4.85286079,25.4005635 5.28079088,25.2127387 C5.76812735,24.9989986 6.20871579,24.6451405 6.6348837,24.1379656 C7.12141163,23.5587893 7.45325139,22.9136783 7.57438297,22.2006333 C7.69629034,21.4785844 7.69767322,20.6382693 7.6005287,19.6762539 C7.52940148,18.971886 7.41121318,18.2421255 7.24020125,17.3786744 C7.20727642,17.2124346 7.1728492,17.0433232 7.13261205,16.8492576 C7.10797396,16.7304271 7.08058985,16.599505 7.03196351,16.3671866 C6.8112686,15.3084928 6.77505616,15.1288682 6.70651307,14.7261262 C6.59401636,14.0651237 6.52456307,13.4274137 6.46826944,12.498534 C6.46500479,12.4448869 6.46271701,12.390868 6.46138873,12.3363807 C6.44050172,11.4795716 6.65342007,10.5438826 7.02309717,9.60654487 C7.14757389,9.29092694 7.2809715,8.9983869 7.41404639,8.73694573 C7.4929079,8.5820131 7.55313418,8.47351602 7.58542848,8.41928917 C7.65572428,8.27359844 7.79692851,7.97121409 7.82742983,7.9054996 C7.9092396,7.72915496 7.98285015,7.56763266 8.10312155,7.30021298 C8.39175056,6.62456322 8.53457143,5.91152351 8.53457143,5.14863415 C8.53457143,3.82418016 8.12721772,2.5868036 7.386072,1.63355764 C6.60076626,0.622541782 5.47481624,0.00887804878 4.26728571,0.00887804878 C3.05975519,0.00887804878 1.93380517,0.622541782 1.14837226,1.63372128 Z M6.67180083,2.17369336 C7.28992205,2.96870787 7.63457143,4.01561394 7.63457143,5.14863415 C7.63457143,5.79440398 7.51523304,6.39020635 7.27708236,6.94785939 C7.16150311,7.20465166 7.08928721,7.36311373 7.01281172,7.527962 C6.97915358,7.60047979 6.83817207,7.90238718 6.78843787,8.0092947 C6.76750907,8.039978 6.69786103,8.1654483 6.60974127,8.33856985 C6.46451405,8.62388567 6.31960954,8.94166027 6.18433762,9.28465006 C5.77517289,10.3221109 5.53748845,11.3666368 5.56164884,12.3577239 C5.56323439,12.4227649 5.56597188,12.4874022 5.56988005,12.5516238 C5.62798242,13.5103491 5.70081206,14.1790602 5.81893451,14.8731182 C5.89010074,15.291273 5.926939,15.4740019 6.15043709,16.5461427 C6.19921936,16.7792083 6.22641046,16.9092077 6.25086568,17.0271563 C6.29061213,17.2188551 6.32453891,17.3855083 6.35690136,17.5489086 C6.52298107,18.3874566 6.63706186,19.0918551 6.70496088,19.7642543 C6.79488364,20.6547531 6.79362271,21.4209596 6.68668557,22.054342 C6.59421221,22.5986881 6.33377574,23.104988 5.94193253,23.571449 C5.5986752,23.9799535 5.26467392,24.2482062 4.91503694,24.4015529 C4.59436549,24.5423004 4.4042223,24.5971855 4.20244839,24.5960078 C4.00209634,24.594836 3.82297365,24.5410287 3.5244691,24.4044677 C3.18563541,24.2497527 2.88557709,23.982112 2.53740863,23.5307196 C2.16595026,23.0499905 1.91813613,22.5349316 1.82606432,21.9879679 C1.71884194,21.3542579 1.71742309,20.5880852 1.80724505,19.6976219 C1.87508836,19.0250471 1.98917163,18.3204811 2.15530992,17.4816436 C2.18764992,17.3183579 2.2215532,17.1518204 2.26127184,16.9602553 C2.28571241,16.8423772 2.31288319,16.7124746 2.36160637,16.4796914 C2.58524857,15.4068594 2.62198135,15.2246762 2.69318277,14.8065778 C2.81137688,14.1125359 2.88437377,13.4438612 2.94283114,12.4850893 C3.00611271,11.4375458 2.77186763,10.3388602 2.34486761,9.25556269 C2.21301174,8.92104483 2.07173538,8.61227101 1.93010511,8.33590244 C1.84407065,8.16802011 1.77597707,8.04654065 1.7348309,7.97829935 C1.68561148,7.87813654 1.63352206,7.76830584 1.57104113,7.63006767 C1.56025729,7.60616853 1.45893813,7.37960229 1.42594244,7.30696281 C1.36944581,7.18258641 1.3136429,7.06315677 1.24910139,6.92940549 C1.02425938,6.3339901 0.9,5.74528571 0.9,5.14863415 C0.9,4.01561394 1.24464938,2.96870787 1.86264343,2.173857 C2.48628082,1.37097585 3.35651331,0.896682927 4.26728571,0.896682927 C5.17805812,0.896682927 6.04829061,1.37097585 6.67180083,2.17369336 Z" id="Stroke-1"></path>
                    <path d="M10.2806447,1.13876595 C9.56186973,2.062284 9.11192143,3.72183365 9.11192143,5.14857073 C9.11192143,5.85993236 9.2581491,6.55111241 9.53405606,7.27613872 C9.61048801,7.43827364 9.66341767,7.55155393 9.71718954,7.66993184 C9.74891881,7.7397833 9.84916719,7.9639551 9.8453978,7.95557123 C9.92900472,8.14064971 9.98642366,8.26171774 10.0578814,8.40315748 C10.1048849,8.48350445 10.1630632,8.58729641 10.2393786,8.73621835 C10.368332,8.98785814 10.4976395,9.27048732 10.6183288,9.57669812 C11.0023492,10.5510286 11.2110808,11.5306406 11.1563691,12.431839 C11.1000559,13.3610417 11.0305815,13.9987145 10.9180205,14.6594025 C10.8493424,15.0625151 10.8118832,15.2480311 10.592038,16.3004965 C10.5433425,16.5335927 10.5156301,16.6663164 10.4912691,16.7839947 C10.4509232,16.9788897 10.4164895,17.1482832 10.3835489,17.3148463 C10.2129189,18.1776329 10.0950487,18.9062472 10.0240592,19.6096285 C9.92695839,20.5717281 9.92835293,21.4119804 10.0501784,22.1335458 C10.1689017,22.8349393 10.4791042,23.4796667 10.9330842,24.0682414 C11.3627567,24.6253019 11.7671131,24.985819 12.2589051,25.2100498 C12.6624894,25.3951314 12.9504634,25.4816369 13.3096873,25.4837337 C13.669118,25.4858358 13.9639037,25.4007454 14.3930126,25.2128255 C14.880947,24.9988231 15.3216521,24.6447272 15.7470439,24.1376177 C16.2340501,23.5578723 16.5659296,22.9130334 16.6863701,22.200182 C16.8082112,21.4785244 16.8096844,20.6381963 16.7126956,19.6762569 C16.6416061,18.9711877 16.5233695,18.240636 16.3523029,17.3766154 C16.3194415,17.2106397 16.2850749,17.0417693 16.2449687,16.8482802 C16.2202095,16.728832 16.1930619,16.5990174 16.1445278,16.3671232 C15.9246739,15.3146165 15.8872148,15.1291004 15.8185367,14.7259878 C15.7059756,14.0652998 15.6365013,13.427627 15.5801909,12.4984706 C15.5769502,12.4449525 15.5746781,12.3909314 15.5733653,12.3364418 C15.5527253,11.4797655 15.7657241,10.5442316 16.1353792,9.60702082 C16.2599171,9.29127188 16.3933804,8.99860317 16.5265211,8.73704115 C16.6054225,8.58203526 16.6656801,8.47348344 16.6979928,8.41922575 C16.7466413,8.32006752 16.902225,7.98639933 16.9398838,7.905069 C17.0196801,7.73264806 17.0929603,7.57159648 17.215043,7.30014957 C17.5039521,6.62384388 17.6471357,5.91073673 17.6471357,5.14857073 C17.6471357,3.72183365 17.1971874,2.062284 16.4987635,1.16312128 C15.9633594,0.482432821 14.8028644,0.0506794147 13.5537206,0.00405883788 C12.2277224,-0.0454301013 10.9972762,0.34071833 10.2806447,1.13876595 Z M15.7860359,1.70523085 C16.3477371,2.42838786 16.7471357,3.9014946 16.7471357,5.14857073 C16.7471357,5.79348267 16.627492,6.38935264 16.3890038,6.94779598 C16.2714957,7.20887702 16.1994804,7.3671485 16.1249599,7.52817155 C16.0841662,7.61627452 15.9291021,7.94882823 15.9010022,8.00923129 C15.880057,8.03994211 15.8103794,8.16546367 15.7222213,8.33865487 C15.5769296,8.62408802 15.4319605,8.9419876 15.296628,9.28510477 C14.887508,10.3223735 14.6497463,11.366671 14.6736194,12.357536 C14.6751864,12.4225748 14.6779048,12.4872098 14.6817935,12.5514292 C14.739923,13.5106024 14.8127798,14.1793209 14.9309836,14.8731297 C15.0022994,15.2917242 15.0404155,15.4804938 15.263038,16.5462547 C15.3116846,16.7786883 15.3386379,16.9075735 15.3632122,17.0261303 C15.4028273,17.2172497 15.4366928,17.3836582 15.4689919,17.546794 C15.6351233,18.3858877 15.7492508,19.0910502 15.8171144,19.7641245 C15.9068963,20.6545858 15.905553,21.4208439 15.798607,22.0542786 C15.7066943,22.5982823 15.4463255,23.1041766 15.053854,23.5713856 C14.7112353,23.9798209 14.3773392,24.2480985 14.0276012,24.4014895 C13.7060029,24.5423272 13.5161767,24.5971209 13.3150179,24.5959444 C13.1140474,24.5947713 12.9346056,24.5408682 12.6374104,24.4045769 C12.297575,24.2496291 11.9975911,23.9821685 11.6493301,23.5306562 C11.2783894,23.0497402 11.0305172,22.5345604 10.9379194,21.9875114 C10.8310188,21.3543453 10.8297472,20.5881806 10.9196318,19.6975821 C10.9874016,19.0261012 11.1011797,18.3227825 11.2668964,17.4848403 C11.2992766,17.3211103 11.3332129,17.154164 11.3730708,16.961626 C11.3972528,16.8448124 11.4247753,16.7129985 11.4735643,16.4794531 C11.6961416,15.4139085 11.7342578,15.2251389 11.8055735,14.8065443 C11.9237773,14.1127356 11.9966341,13.444017 12.0547623,12.484866 C12.1183547,11.4373866 11.8842021,10.3384694 11.4571589,9.25498246 C11.3253634,8.92059298 11.1841514,8.6119441 11.0425854,8.33569209 C10.9565892,8.16787894 10.888525,8.04645014 10.8473952,7.97823593 C10.7981758,7.87807312 10.7460863,7.76824243 10.6836054,7.63000425 C10.6728216,7.60610511 10.5715024,7.37953888 10.5385067,7.3068994 C10.4820101,7.18252299 10.4262072,7.06309335 10.3616657,6.92934208 C10.1363685,6.3327306 10.0119214,5.74450178 10.0119214,5.14857073 C10.0119214,3.9014946 10.4113201,2.42838786 10.974692,1.70309336 C11.4675919,1.15588771 12.4393912,0.850909889 13.5196937,0.891228967 C14.528242,0.928870032 15.4430887,1.26923181 15.7860359,1.70523085 Z" id="Stroke-3"></path>
                    <path d="M13.0580357,4.45341951 C13.0580357,4.62853419 13.2019442,4.77049268 13.3794643,4.77049268 C13.5569844,4.77049268 13.7008929,4.62853419 13.7008929,4.45341951 L13.7008929,0.730980488 C13.7008929,0.555865811 13.5569844,0.413907317 13.3794643,0.413907317 C13.2019442,0.413907317 13.0580357,0.555865811 13.0580357,0.730980488 L13.0580357,4.45341951 Z" id="Stroke-5"></path>
                    <path d="M11.3718214,4.45341951 C11.3718214,4.62853419 11.5157299,4.77049268 11.69325,4.77049268 C11.8707701,4.77049268 12.0146786,4.62853419 12.0146786,4.45341951 L12.0146786,0.730980488 C12.0146786,0.555865811 11.8707701,0.413907317 11.69325,0.413907317 C11.5157299,0.413907317 11.3718214,0.555865811 11.3718214,0.730980488 L11.3718214,4.45341951 Z" id="Stroke-7"></path>
                    <path d="M14.7281143,4.45341951 C14.7281143,4.62853419 14.8720228,4.77049268 15.0495429,4.77049268 C15.227063,4.77049268 15.3709714,4.62853419 15.3709714,4.45341951 L15.3709714,0.730980488 C15.3709714,0.555865811 15.227063,0.413907317 15.0495429,0.413907317 C14.8720228,0.413907317 14.7281143,0.555865811 14.7281143,0.730980488 L14.7281143,4.45341951 Z" id="Stroke-9"></path>
                    <path d="M4.22807143,8.01161463 C3.10039865,8.01161463 2.14457143,6.75955379 2.14457143,5.17824878 C2.14457143,3.59694377 3.10039865,2.34488293 4.22807143,2.34488293 C5.35574421,2.34488293 6.31157143,3.59694377 6.31157143,5.17824878 C6.31157143,6.75955379 5.35574421,8.01161463 4.22807143,8.01161463 Z M4.22807143,1.71073659 C2.69933192,1.71073659 1.50171429,3.27952446 1.50171429,5.17824878 C1.50171429,7.0769731 2.69933192,8.64576098 4.22807143,8.64576098 C5.75681093,8.64576098 6.95442857,7.0769731 6.95442857,5.17824878 C6.95442857,3.27952446 5.75681093,1.71073659 4.22807143,1.71073659 Z" id="Stroke-11"></path>
                </g>
            </g>
        </g>
    </g>
</svg>