<?xml version="1.0" encoding="UTF-8" standalone="no"?>
<svg width="52px" height="51px" viewBox="0 0 52 51" version="1.1" xmlns="http://www.w3.org/2000/svg" xmlns:xlink="http://www.w3.org/1999/xlink">
    <!-- Generator: Sketch 39.1 (31720) - http://www.bohemiancoding.com/sketch -->
    <title>ico_paraasado_green</title>
    <desc>Created with Sketch.</desc>
    <defs></defs>
    <g id="supermercado_categoria" stroke="none" stroke-width="1" fill="none" fill-rule="evenodd">
        <g id="Subcategorias_aseo-hogar" transform="translate(-77.000000, -197.000000)" fill="#44D481">
            <g id="icon01-copy-17" transform="translate(77.000000, 197.000000)">
                <g id="asado_yellow" transform="translate(17.000000, 13.000000)">
                    <path d="M7.983144,18.4923556 C4.58326985,18.4923556 1.80109525,15.7500197 1.73705431,12.345374 L1.233144,12.8604667 L14.732424,12.8604667 L14.2285118,12.3454733 C14.1651459,15.7496948 11.3826417,18.4923556 7.983144,18.4923556 Z M15.2459222,11.8493556 L14.732424,11.8493556 L1.233144,11.8493556 L0.719544862,11.8493556 L0.729233688,12.3644482 C0.80363101,16.3196762 4.03367333,19.5034667 7.983144,19.5034667 C11.9322712,19.5034667 15.1627194,16.3192761 15.2363362,12.3643489 L15.2459222,11.8493556 Z" id="Stroke-1"></path>
                    <path d="M14.964461,3.13023863 C17.2128512,5.68850315 17.0016541,9.59575604 14.4974729,11.8948832 L15.2158304,11.9334977 L6.28927043,1.77616434 L6.23732723,2.49592544 C8.82543792,0.292587048 12.7158784,0.572422533 14.964461,3.13023863 Z M5.19352703,2.05836507 L5.53312957,2.44479122 L14.4596896,12.6021246 L14.7992576,12.9885114 L15.1780471,12.640739 C18.0872682,9.96973856 18.3324665,5.43344495 15.7205421,2.46154377 C13.1084567,-0.509765444 8.59175082,-0.83464757 5.58507277,1.72503012 L5.19352703,2.05836507 Z" id="Stroke-3"></path>
                    <path d="M4.43963198,6.4571773 C4.41136547,6.45418568 4.41136547,6.45418568 4.35448709,6.44785837 C4.10143514,6.42094123 3.89177637,6.42495154 3.6595144,6.49085601 C3.24840492,6.60750858 2.92806428,6.89995052 2.76298848,7.36607311 C2.53608081,8.00508471 2.77223864,8.53594206 3.42035098,9.18510429 C3.54077889,9.30590408 3.581352,9.38874882 3.581352,9.40658333 C3.58065547,9.68157182 3.41719091,9.90307998 3.31511404,9.92867796 L3.55958996,10.9095998 C4.12071335,10.768886 4.58750949,10.1363382 4.58935038,9.40786484 C4.589352,9.0941716 4.42917791,8.76711803 4.13285382,8.46987935 C3.73040592,8.06677933 3.64910329,7.88401978 3.71269345,7.70493862 C3.76671977,7.55238569 3.83214395,7.49265935 3.93388852,7.46378926 C4.01521298,7.4407134 4.11213419,7.43885951 4.248192,7.45333198 C4.29471098,7.45854657 4.29471098,7.45854657 4.34648172,7.46396182 C4.43252406,7.47197189 4.48087732,7.47285448 4.56494998,7.45225426 L4.32575402,6.47002351 C4.39151463,6.45391027 4.4077146,6.45420597 4.43963198,6.4571773 Z" id="Stroke-5"></path>
                    <path d="M6.69800336,6.4571692 C6.66970016,6.45417849 6.66970016,6.45417849 6.61281207,6.44785495 C6.35978242,6.42095664 6.15035472,6.42494648 5.91824792,6.4907661 C5.50710006,6.60735723 5.18674581,6.89983323 5.02162848,7.36607311 C4.79480645,8.00484352 5.03062799,8.53546259 5.67801018,9.18484287 C5.79991924,9.30638135 5.839992,9.38820445 5.839992,9.40658333 C5.83929547,9.68157182 5.67583091,9.90307998 5.57375404,9.92867796 L5.81822996,10.9095998 C6.37935335,10.768886 6.84614949,10.1363382 6.84799038,9.40786484 C6.847992,9.09324582 6.68764244,8.76583396 6.38967558,8.4687811 C5.98898366,8.0668491 5.90773709,7.88403722 5.97133345,7.70493862 C6.02539754,7.55227903 6.0907914,7.49257595 6.19246455,7.46374402 C6.27368587,7.44071171 6.37048408,7.43886759 6.50658126,7.4533354 C6.55316778,7.45855376 6.55316778,7.45855376 6.60502745,7.46396993 C6.69062587,7.47192363 6.739082,7.47280507 6.82273441,7.45246311 L6.58524959,6.46981467 C6.65044987,6.45395976 6.66663079,6.45425409 6.69800336,6.4571692 Z" id="Stroke-7"></path>
                    <path d="M1.96833429,24.7233437 C1.9057935,24.9954155 2.07497328,25.266829 2.34620789,25.3295628 C2.6174425,25.3922966 2.88802092,25.2225947 2.95056171,24.950523 L5.08968171,15.6446896 C5.1522225,15.3726179 4.98304272,15.1012043 4.71180811,15.0384705 C4.4405735,14.9757367 4.16999508,15.1454386 4.10745429,15.4175104 L1.96833429,24.7233437 Z" id="Stroke-9"></path>
                    <path d="M12.5478375,23.2561468 C12.5964372,23.5310687 12.8580174,23.7144175 13.1320934,23.6656679 C13.4061694,23.6169183 13.5889541,23.3545307 13.5403545,23.0796088 L12.1903545,15.442831 C12.1417548,15.1679091 11.8801746,14.9845603 11.6060986,15.0333099 C11.3320226,15.0820595 11.1492379,15.3444471 11.1978375,15.619369 L12.5478375,23.2561468 Z" id="Stroke-11"></path>
                    <path d="M12.4669732,21.895173 C12.7453221,21.8939602 12.9699883,21.6666342 12.9687792,21.3874263 C12.9675702,21.1082183 12.7409437,20.8828586 12.4625948,20.8840714 L3.34595479,20.9237937 C3.06760591,20.9250065 2.84293969,21.1523324 2.84414875,21.4315404 C2.84535782,21.7107484 3.07198432,21.936108 3.35033321,21.9348952 L12.4669732,21.895173 Z" id="Stroke-13"></path>
                    <path d="M13.4889966,24.7791959 C13.2870472,24.9181895 13.012056,24.8666716 12.8741358,24.6645516 C12.7356093,24.4623736 12.7869867,24.1864372 12.9888996,24.0474683 C13.1899622,23.9091906 13.4656378,23.9607127 13.6032882,24.1624373 C13.7415122,24.3650024 13.6902203,24.6410385 13.4889966,24.7791959 Z M12.4187527,23.2136407 C11.7577722,23.668568 11.5891416,24.574245 12.0428743,25.2364582 C12.4949347,25.8989474 13.3979217,26.0681165 14.0588196,25.6132461 C14.7192987,25.1597703 14.8875359,24.2543734 14.4350958,23.5913293 C13.9826824,22.9283245 13.0791533,22.7594603 12.4187527,23.2136407 Z" id="Stroke-15"></path>
                </g>
            </g>
        </g>
    </g>
</svg>