<?xml version="1.0" encoding="UTF-8" standalone="no"?>
<svg width="52px" height="51px" viewBox="0 0 52 51" version="1.1" xmlns="http://www.w3.org/2000/svg" xmlns:xlink="http://www.w3.org/1999/xlink">
    <!-- Generator: Sketch 39.1 (31720) - http://www.bohemiancoding.com/sketch -->
    <title>ico_cuidadoaire_grey</title>
    <desc>Created with Sketch.</desc>
    <defs></defs>
    <g id="supermercado_categoria" stroke="none" stroke-width="1" fill="none" fill-rule="evenodd">
        <g id="Subcategorias_aseo-hogar" transform="translate(-387.000000, -14.000000)" fill="#D4D4D4">
            <g id="icon01-copy-6" transform="translate(387.000000, 14.000000)">
                <g id="cuidado_aire_yellow" transform="translate(21.000000, 12.000000)">
                    <path d="M8.13099,7.70068421 L8.62099,8.19805263 L8.62099,6.37768421 C8.62099,5.8756268 8.21820953,5.46678947 7.72359,5.46678947 L1.87579,5.46678947 C1.3805817,5.46678947 0.97839,5.87551344 0.97839,6.37768421 L0.97839,8.19805263 L1.46839,7.70068421 L0.89719,7.70068421 C0.402570473,7.70068421 -0.00021,8.10952153 -0.00021,8.61157895 L-0.00021,25.4887105 C-0.00021,25.9907679 0.402570473,26.3996053 0.89719,26.3996053 L8.72179,26.3996053 C9.21357443,26.3996053 9.59889,25.9940652 9.59889,25.5093158 L9.59889,8.61157895 C9.59889,8.10952153 9.19610953,7.70068421 8.70149,7.70068421 L8.13099,7.70068421 Z M8.61889,8.61157895 L8.61889,25.5093158 C8.61889,25.4525898 8.66423146,25.4048684 8.72179,25.4048684 L0.89719,25.4048684 C0.943809527,25.4048684 0.97979,25.44139 0.97979,25.4887105 L0.97979,8.61157895 C0.97979,8.65889952 0.943809527,8.69542105 0.89719,8.69542105 L1.46839,8.69542105 L1.95839,8.69542105 L1.95839,8.19805263 L1.95839,6.37768421 C1.95839,6.4246276 1.92208101,6.46152632 1.87579,6.46152632 L7.72359,6.46152632 C7.67697047,6.46152632 7.64099,6.42500478 7.64099,6.37768421 L7.64099,8.19805263 L7.64099,8.69542105 L8.13099,8.69542105 L8.70149,8.69542105 C8.65487047,8.69542105 8.61889,8.65889952 8.61889,8.61157895 Z" id="Stroke-1"></path>
                    <polygon id="Stroke-3" points="8.13064 8.69542105 8.13064 7.70068421 1.46804 7.70068421 1.46804 8.69542105"></polygon>
                    <path d="M2.66448,5.43211579 C2.54831705,5.43211579 2.45448,5.33680183 2.45448,5.21895789 L2.45448,1.83543158 C2.45448,1.71719952 2.54799953,1.62227368 2.66448,1.62227368 L6.73428,1.62227368 C6.8503781,1.62227368 6.94428,1.71752182 6.94428,1.83543158 L6.94428,5.21895789 C6.94428,5.33647943 6.85006047,5.43211579 6.73428,5.43211579 L2.66448,5.43211579 Z M7.92428,5.21895789 L7.92428,1.83543158 C7.92428,1.16798993 7.39146566,0.627536842 6.73428,0.627536842 L2.66448,0.627536842 C2.00676047,0.627536842 1.47448,1.16782153 1.47448,1.83543158 L1.47448,5.21895789 C1.47448,5.88602604 2.00692638,6.42685263 2.66448,6.42685263 L6.73428,6.42685263 C7.39129953,6.42685263 7.92428,5.88585742 7.92428,5.21895789 Z" id="Stroke-5"></path>
                    <path d="M7.24367,3.48705 C7.24367,3.76344474 7.02317,3.98726053 6.75087,3.98726053 C6.47857,3.98726053 6.25737,3.76344474 6.25737,3.48705 C6.25737,3.21065526 6.47857,2.98683947 6.75087,2.98683947 C7.02317,2.98683947 7.24367,3.21065526 7.24367,3.48705" id="Fill-7"></path>
                    <path d="M9.04606334,2.11917346 C8.82475085,2.27725791 8.77159584,2.58751777 8.9273383,2.81215827 C9.08308075,3.03679876 9.38874418,3.09075309 9.61005666,2.93266864 L12.4499567,0.904116013 C12.6712691,0.746031565 12.7244242,0.4357717 12.5686817,0.211131207 C12.4129392,-0.0135092848 12.1072758,-0.0674636191 11.8859633,0.0906208288 L9.04606334,2.11917346 Z" id="Stroke-9"></path>
                    <path d="M12.0434633,7.1502818 C12.2647758,7.30836625 12.5704392,7.25441192 12.7261817,7.02977142 C12.8819242,6.80513093 12.8287691,6.49487107 12.6074567,6.33678662 L9.76755666,4.30823399 C9.54624418,4.15014954 9.24058075,4.20410387 9.0848383,4.42874437 C8.92909584,4.65338486 8.98225085,4.96364472 9.20356334,5.12172917 L12.0434633,7.1502818 Z" id="Stroke-11"></path>
                    <path d="M13.32506,4.14457105 C13.5956795,4.14457105 13.81506,3.92189163 13.81506,3.64720263 C13.81506,3.37251364 13.5956795,3.14983421 13.32506,3.14983421 L9.85376,3.14983421 C9.58314047,3.14983421 9.36376,3.37251364 9.36376,3.64720263 C9.36376,3.92189163 9.58314047,4.14457105 9.85376,4.14457105 L13.32506,4.14457105 Z" id="Stroke-13"></path>
                    <path d="M2.00844,22.8197605 C2.00844,23.015967 2.16514034,23.1750237 2.35844,23.1750237 C2.55173966,23.1750237 2.70844,23.015967 2.70844,22.8197605 L2.70844,13.5829184 C2.70844,13.386712 2.55173966,13.2276553 2.35844,13.2276553 C2.16514034,13.2276553 2.00844,13.386712 2.00844,13.5829184 L2.00844,22.8197605 Z" id="Stroke-15"></path>
                </g>
            </g>
        </g>
    </g>
</svg>