<?xml version="1.0" encoding="UTF-8" standalone="no"?>
<svg width="52px" height="51px" viewBox="0 0 52 51" version="1.1" xmlns="http://www.w3.org/2000/svg" xmlns:xlink="http://www.w3.org/1999/xlink">
    <!-- Generator: Sketch 39.1 (31720) - http://www.bohemiancoding.com/sketch -->
    <title>ico_cuidadobano_green</title>
    <desc>Created with Sketch.</desc>
    <defs></defs>
    <g id="supermercado_categoria" stroke="none" stroke-width="1" fill="none" fill-rule="evenodd">
        <g id="Subcategorias_aseo-hogar" transform="translate(-263.000000, -136.000000)" fill="#44D481">
            <g id="icon01-copy-13" transform="translate(263.000000, 136.000000)">
                <g id="cuidado_bano_dgreen" transform="translate(16.000000, 12.000000)">
                    <path d="M14.494336,9.57975053 L14.3913151,8.91995196 L5.22940886,21.948127 L5.8708755,21.8422249 L4.16003175,20.5691749 L4.26299405,21.22891 L13.4242441,8.20073501 L12.782836,8.30670053 L14.494336,9.57975053 Z M12.6798059,7.64691499 L3.51855595,20.67509 C3.36988184,20.8865188 3.4159779,21.1818812 3.62151825,21.3348251 L5.332362,22.6078751 C5.53792761,22.7608378 5.82512927,22.7134226 5.97382864,22.501973 L15.1357349,9.47379804 C15.2844387,9.2623421 15.2383128,8.96692825 15.032714,8.81399947 L13.321214,7.54094947 C13.1156428,7.38804128 12.8284828,7.43548232 12.6798059,7.64691499 Z" id="Stroke-1"></path>
                    <path d="M19.315854,3.24717094 L15.0356675,9.33449716 L15.677086,9.22851709 L12.645211,6.97334209 L12.7482316,7.63314072 L17.0289504,1.54599072 C17.4854542,0.896162553 18.3675737,0.75050588 18.9993791,1.22058263 C19.6311417,1.69062757 19.772758,2.5979868 19.315854,3.24717094 Z M16.2843964,0.992335552 L12.0038121,7.07929428 C11.8551082,7.29075015 11.901234,7.58616404 12.1068327,7.73909291 L15.1387077,9.99426791 C15.3442845,10.1471804 15.6314532,10.0997322 15.7801262,9.88828784 L20.0601887,3.80113784 C20.8146372,2.72919283 20.5807857,1.23086735 19.5378522,0.454902372 C18.4948537,-0.321110954 17.0381132,-0.0805721603 16.2843964,0.992335552 Z" id="Stroke-2"></path>
                    <path d="M4.78620539,13.7640124 C4.5806419,13.6110687 4.29345842,13.6584867 4.14476313,13.8699234 C3.99606784,14.0813601 4.04216862,14.3767488 4.24773211,14.5296926 L11.5563884,19.9674926 C11.7619518,20.1204363 12.0491353,20.0730183 12.1978306,19.8615816 C12.3465259,19.6501449 12.3004251,19.3547562 12.0948616,19.2018124 L4.78620539,13.7640124 Z" id="Stroke-4"></path>
                    <path d="M3.97521164,14.9173174 C3.76964815,14.7643737 3.48246467,14.8117917 3.33376938,15.0232284 C3.18507409,15.2346651 3.23117487,15.5300538 3.43673836,15.6829976 L10.7453946,21.1207976 C10.9509581,21.2737413 11.2381416,21.2263233 11.3868369,21.0148866 C11.5355322,20.8034499 11.4894314,20.5080612 11.2838679,20.3551174 L3.97521164,14.9173174 Z" id="Stroke-6"></path>
                    <path d="M3.14275852,16.1685649 C2.93719503,16.0156212 2.65001155,16.0630392 2.50131626,16.2744759 C2.35262097,16.4859126 2.39872175,16.7813013 2.60428523,16.9342451 L9.91294148,22.3720451 C10.118505,22.5249888 10.4056885,22.4775708 10.5543837,22.2661341 C10.703079,22.0546974 10.6569783,21.7593087 10.4514148,21.6063649 L3.14275852,16.1685649 Z" id="Stroke-8"></path>
                    <path d="M2.34036164,17.3770174 C2.13479815,17.2240737 1.84761467,17.2714917 1.69891938,17.4829284 C1.55022409,17.6943651 1.59632487,17.9897538 1.80188836,18.1426976 L9.11054461,23.5804976 C9.3161081,23.7334413 9.60329158,23.6860233 9.75198687,23.4745866 C9.90068216,23.2631499 9.85458138,22.9677612 9.64901789,22.8148174 L2.34036164,17.3770174 Z" id="Stroke-10"></path>
                    <path d="M1.52825227,18.4644424 C1.32268878,18.3114987 1.0355053,18.3589167 0.886810007,18.5703534 C0.738114716,18.7817901 0.784215498,19.0771788 0.989778985,19.2301226 L8.29843523,24.6679226 C8.50399872,24.8208663 8.7911822,24.7734483 8.93987749,24.5620116 C9.08857278,24.3505749 9.042472,24.0551862 8.83690852,23.9022424 L1.52825227,18.4644424 Z" id="Stroke-12"></path>
                    <path d="M4.97330313,22.0173327 C5.12200032,21.8058973 5.07590219,21.5105082 4.87034008,21.3575625 C4.66477797,21.2046168 4.37759406,21.252032 4.22889687,21.4634673 L1.67542812,25.0942923 C1.52673093,25.3057277 1.57282906,25.6011168 1.77839117,25.7540625 C1.98395328,25.9070082 2.27113719,25.859593 2.41983438,25.6481577 L4.97330313,22.0173327 Z" id="Stroke-14"></path>
                    <path d="M5.01020985,22.0309171 C5.2469883,21.9371951 5.36506892,21.6637873 5.27395031,21.4202438 C5.18283169,21.1767003 4.9170186,21.0552459 4.68024015,21.1489679 L0.614771402,22.7581679 C0.377992952,22.8518899 0.259912325,23.1252977 0.351030941,23.3688412 C0.442149557,23.6123847 0.707962649,23.7338391 0.944741098,23.6401171 L5.01020985,22.0309171 Z" id="Stroke-16"></path>
                    <path d="M4.68850337,22.1536385 C4.9390216,22.1948745 5.17460657,22.0194153 5.21469713,21.7617394 C5.25478769,21.5040635 5.08420236,21.2617475 4.83368413,21.2205115 L0.531965381,20.5124365 C0.281447151,20.4712005 0.0458621794,20.6466597 0.00577161903,20.9043356 C-0.0343189413,21.1620115 0.136266389,21.4043275 0.386784619,21.4455635 L4.68850337,22.1536385 Z" id="Stroke-18"></path>
                    <path d="M5.0497522,21.4238065 C5.06217384,21.1631649 4.86682104,20.9415157 4.6134195,20.9287392 C4.36001796,20.9159626 4.1445257,21.1168969 4.13210405,21.3775385 L3.9188228,25.8527885 C3.90640116,26.1134301 4.10175396,26.3350793 4.3551555,26.3478558 C4.60855704,26.3606324 4.8240493,26.1596981 4.83647095,25.8990565 L5.0497522,21.4238065 Z" id="Stroke-20"></path>
                    <path d="M4.93575193,21.2964422 C4.81925918,21.0646229 4.54211668,20.9738305 4.31673684,21.0936516 C4.09135699,21.2134727 4.00308656,21.4985336 4.11957932,21.7303528 L6.11982932,25.7108278 C6.23632207,25.9426471 6.51346457,26.0334395 6.73884441,25.9136184 C6.96422426,25.7937973 7.05249469,25.5087364 6.93600193,25.2769172 L4.93575193,21.2964422 Z" id="Stroke-22"></path>
                    <path d="M18.5142671,1.91873302 C18.1419728,1.64155271 17.6201894,1.72743715 17.3512578,2.11112947 C17.0812448,2.49439192 17.164641,3.03042435 17.5382704,3.30779198 C17.9105866,3.58498859 18.4312479,3.49894468 18.7014679,3.11538665 C18.9714136,2.7317944 18.8876533,2.1959201 18.5142671,1.91873302 Z M17.9226961,2.76073048 C17.843126,2.70166043 17.8254951,2.58833699 17.8831242,2.50653665 C17.9400898,2.42526387 18.0509039,2.4070241 18.1298414,2.46579452 C18.2093883,2.52484737 18.2271143,2.63825289 18.1699685,2.71945688 C18.1123161,2.80129028 18.0017222,2.8195669 17.9226961,2.76073048 Z" id="Stroke-24"></path>
                </g>
            </g>
        </g>
    </g>
</svg>