<?xml version="1.0" encoding="UTF-8" standalone="no"?>
<svg width="52px" height="51px" viewBox="0 0 52 51" version="1.1" xmlns="http://www.w3.org/2000/svg" xmlns:xlink="http://www.w3.org/1999/xlink">
    <!-- Generator: Sketch 39.1 (31720) - http://www.bohemiancoding.com/sketch -->
    <title>ico_carnesrojas_grey</title>
    <desc>Created with Sketch.</desc>
    <defs></defs>
    <g id="supermercado_categoria" stroke="none" stroke-width="1" fill="none" fill-rule="evenodd">
        <g id="Subcategorias_carnes-y-mariscos" transform="translate(-138.000000, -14.000000)" fill="#D4D4D4">
            <g id="icon01-copy-4" transform="translate(138.000000, 14.000000)">
                <g id="carnes_rojas_blue" transform="translate(13.000000, 15.000000)">
                    <path d="M6.10545441,0.337048782 C4.24052336,0.632073365 2.55295973,1.693615 1.71967063,3.06372875 C0.803464009,4.559713 0.939116743,6.10671131 2.27098188,7.49589178 C3.98514829,9.28506782 6.5418166,10.3329082 10.8750333,11.3496651 C11.3685575,11.4653281 11.8597393,11.5760059 12.5970417,11.7390297 C12.8649778,11.7982207 12.8649778,11.7982207 13.1334345,11.8574745 C13.4020938,11.9168249 13.5123863,11.941235 13.6710423,11.9764974 C14.0785581,12.0670706 14.4202197,12.1440873 14.7471139,12.2193718 C17.5119257,12.8561141 19.4155812,13.4299818 21.1376073,14.2209389 C21.8068663,14.5276179 22.7523032,14.6709164 23.5296158,14.5840804 C23.930297,14.5405367 24.3055277,14.4328565 24.5863468,14.2782537 C24.895144,14.1062708 25.0942462,13.8922966 25.1879995,13.6081479 C25.5519462,12.541474 25.0821229,10.4466363 24.0886567,8.43403759 C23.1102397,6.44691172 21.6885743,4.5303262 20.4670802,3.58581086 C17.2425352,1.09196755 13.8427668,-0.0224613771 9.91442069,0.000320505744 C8.72496678,0.00569573916 7.47202153,0.119246837 6.10545441,0.337048782 Z M19.7868674,4.44300239 C20.8599952,5.27279409 22.1856656,7.05996618 23.0968488,8.91054244 C23.9742656,10.6880448 24.389189,12.538096 24.1409324,13.2657575 C24.1387943,13.27215 24.1288654,13.2828205 24.0467138,13.3285764 C23.9064583,13.4057854 23.6715923,13.4731851 23.4072474,13.5019141 C22.8263126,13.5668097 22.084554,13.4543824 21.6024754,13.2334766 C19.7969014,12.4041441 17.8304026,11.8113319 14.9977141,11.1589575 C14.6676998,11.0829545 14.3233951,11.005342 13.9133179,10.9141994 C13.754072,10.8788059 13.6433239,10.854295 13.3742151,10.7948454 C13.1056084,10.7355584 13.1056084,10.7355584 12.8381252,10.6764675 C12.1050378,10.5143756 11.6177373,10.4045724 11.1299614,10.2902566 C6.9947147,9.31995182 4.59420808,8.33611374 3.07222835,6.74753426 C2.08794708,5.72089549 1.99943843,4.71153335 2.66447099,3.62566305 C3.32513847,2.53938288 4.72628291,1.65800981 6.28062483,1.41211886 C7.59426791,1.20275227 8.79097693,1.09429771 9.9201855,1.08919429 C13.6037249,1.06783259 16.7609062,2.10274256 19.7868674,4.44300239 Z" id="Stroke-1"></path>
                    <path d="M7.73709948,2.82096866 C6.74848489,3.53294206 6.18901739,4.62618674 6.40553263,5.78055615 C6.6169205,6.89835384 7.46282214,7.77773928 8.62412746,8.31355338 C9.57994381,8.749116 10.6802272,8.93529915 11.8150291,8.86055899 C12.965331,8.7820382 13.9928422,8.44613111 14.7934806,7.87084257 C15.7801542,7.16055144 16.3332362,6.07526184 16.1165991,4.92112602 C15.906748,3.80143113 15.0531752,2.91004438 13.8949734,2.37974929 C12.9471533,1.94620867 11.85354,1.7637056 10.7149118,1.83886873 C9.55740875,1.91788128 8.53302678,2.24843957 7.73709948,2.82096866 Z M13.4310579,3.36764825 C14.2927379,3.76217775 14.8956419,4.39179082 15.0320037,5.11937177 C15.1636309,5.82061648 14.8126129,6.50940438 14.1439642,6.99075446 C13.5212395,7.43820509 12.692337,7.70918434 11.7402693,7.77417478 C10.7861406,7.83701387 9.87000262,7.68199068 9.0887941,7.32600185 C8.22376648,6.92688039 7.62709914,6.30659484 7.48997887,5.5815188 C7.35872893,4.88174532 7.71566957,4.18425448 8.38693276,3.70082888 C9.00349041,3.25732467 9.82943118,2.99080146 10.7897549,2.92524744 C11.7481792,2.86198134 12.6572002,3.01367951 13.4310579,3.36764825 Z" id="Stroke-3"></path>
                    <path d="M9.48334954,3.9586433 C8.94502065,4.34650389 8.63475494,4.95279051 8.75892793,5.6007188 C8.87505863,6.21525005 9.32772043,6.68726371 9.93586272,6.96624784 C10.4182524,7.18639941 10.9688451,7.27938493 11.5342477,7.24124442 C12.1081831,7.20328327 12.630195,7.03233239 13.0433526,6.7352608 C13.578568,6.34997686 13.8852252,5.74923115 13.7636101,5.10092918 C13.6493933,4.48543975 13.1934908,4.00869109 12.5862256,3.73019261 C12.1052224,3.51168823 11.5566706,3.42015712 10.9924999,3.45834182 C10.4157966,3.49629482 9.89577324,3.66405676 9.48334954,3.9586433 Z M12.1233134,4.71854821 C12.4322258,4.86022273 12.6373653,5.07474227 12.6788278,5.29817261 C12.7155967,5.49418509 12.6112003,5.69869925 12.3936967,5.85527293 C12.1584894,6.02439332 11.8361827,6.12994382 11.4597787,6.15484019 C11.0738432,6.18087386 10.7082622,6.11913359 10.3997167,5.97832126 C10.0879863,5.83531438 9.88539845,5.6240656 9.84299182,5.39966508 C9.8059484,5.20636493 9.91302981,4.99711839 10.1317868,4.8395038 C10.3641257,4.67355418 10.6856024,4.56984433 11.0669105,4.5447497 C11.4528306,4.51863049 11.8169768,4.57939175 12.1233134,4.71854821 Z" id="Stroke-5"></path>
                    <path d="M24.2866664,13.5558247 C24.3059601,13.7986091 24.3252695,14.0678891 24.3432948,14.3560862 C24.3877468,15.0668057 24.4170115,15.771758 24.4239767,16.4282819 C24.4327706,17.257173 24.405025,17.9534469 24.335389,18.4665332 C24.2988549,18.7357216 24.2517092,18.9448806 24.1987366,19.0812411 C23.4924357,19.3760579 22.1060963,19.3195 21.3781986,18.9874061 C19.4825936,18.1212917 17.4695753,17.5400189 14.2093872,16.8115768 C13.9969674,16.7641147 13.7753935,16.7150402 13.5102001,16.6566383 C13.3502609,16.6214158 13.1614765,16.5799465 12.8140131,16.5036293 C6.94957646,15.2145991 4.5222245,14.3462849 2.66828248,12.4200535 C2.35116707,12.0892976 2.05279536,11.7013167 1.88726663,11.389137 C1.86257265,11.3422151 1.90035832,9.85187486 2.01041835,8.10080434 C2.03212994,7.75536988 2.05620187,7.39508107 2.08223482,7.02373599 C2.1242877,6.42387583 2.16935625,5.82439603 2.21442377,5.2538608 C2.24145516,4.91165511 2.26246464,4.65531764 2.27443784,4.51334983 C2.29970967,4.21369821 2.07412615,3.95055835 1.77058295,3.92561051 C1.46703974,3.90066267 1.20048248,4.1233541 1.17521065,4.42300572 C1.16308527,4.56677801 1.14192225,4.82498875 1.11473185,5.16920739 C1.06942972,5.74271273 1.02412863,6.34528568 0.981836509,6.94855849 C0.955630128,7.32237743 0.931387204,7.68522553 0.909505186,8.03337153 C0.759613984,10.4181617 0.730824859,11.5536605 0.909247039,11.8926477 C1.12854963,12.3062478 1.4857477,12.7707222 1.86790748,13.1693186 C3.93401306,15.3159877 6.48143778,16.2272544 12.5742838,17.5664901 C12.9220138,17.6428659 13.1104379,17.684256 13.2700351,17.7194032 C13.5342043,17.7775796 13.754722,17.8264201 13.9658893,17.8736024 C17.1551324,18.5861929 19.1085592,19.1502582 20.9151702,19.9757106 C21.9056677,20.4276123 23.5879983,20.4962456 24.6160441,20.1427735 C25.3909486,19.8770609 25.5511347,18.6967893 25.5269465,16.4168784 C25.5197624,15.7397139 25.4897559,15.016895 25.4442286,14.2889824 C25.4258097,13.9944923 25.4060717,13.7192353 25.386318,13.4706634 C25.3744219,13.3209674 25.365122,13.2129886 25.35972,13.154208 C25.3321991,12.8547495 25.0639773,12.6340144 24.7606297,12.6611824 C24.4572822,12.6883504 24.2336804,12.9531335 24.2612012,13.252592 C24.2662118,13.3071129 24.275134,13.4107069 24.2866664,13.5558247 Z" id="Stroke-7"></path>
                </g>
            </g>
        </g>
    </g>
</svg>