<?xml version="1.0" encoding="UTF-8" standalone="no"?>
<svg width="52px" height="51px" viewBox="0 0 52 51" version="1.1" xmlns="http://www.w3.org/2000/svg" xmlns:xlink="http://www.w3.org/1999/xlink">
    <!-- Generator: Sketch 39.1 (31720) - http://www.bohemiancoding.com/sketch -->
    <title>ico_mariscos_grey</title>
    <desc>Created with Sketch.</desc>
    <defs></defs>
    <g id="supermercado_categoria" stroke="none" stroke-width="1" fill="none" fill-rule="evenodd">
        <g id="Subcategorias_carnes-y-mariscos" transform="translate(-200.000000, -14.000000)" fill="#D4D4D4">
            <g id="icon01-copy-2" transform="translate(200.000000, 14.000000)">
                <g id="mariscos_dgreen" transform="translate(13.000000, 13.000000)">
                    <path d="M22.5118179,1.85488462 L12.6185752,5.5102438 C11.7202492,5.84204662 11.0505135,6.34993382 10.5909116,6.98804292 L10.8991782,6.77211647 C9.45330462,7.18299473 7.7916464,7.81909706 6.1683825,8.70894054 C3.75507175,10.0318732 1.896561,11.6749751 0.858232922,13.6852888 C-0.194060745,15.7236243 -0.277456405,17.9629831 0.60113818,20.3084043 C1.31407214,22.2109446 2.66131547,23.7118317 4.3963419,24.5274215 C5.31482015,24.9584042 6.31245033,25.1817313 7.30538182,25.1817313 C7.42938088,25.1817313 7.52526568,25.1772042 7.72878749,25.1643311 L7.69238182,24.5967313 L7.62287936,25.1612778 C7.97456508,25.2039753 8.49798644,25.258257 9.10662058,25.3075158 C10.0547428,25.3842505 10.9822504,25.4295438 11.8332,25.4295438 C13.1438905,25.4295438 14.1665397,25.3235922 14.8479655,25.0710946 C15.875499,24.6916398 16.6640086,23.779203 17.2733083,22.5335722 C17.632851,21.7985357 17.8678262,21.081341 17.980092,20.6010925 L18.1849905,19.7385663 C18.2900295,19.2963934 17.8563802,18.9164311 17.4276642,19.0749992 L16.5841187,19.3869992 L16.7840182,19.9199813 L17.3275621,20.0992176 C17.5586523,19.4081235 17.6258855,18.9562455 17.3875482,18.5884516 L17.180897,18.266885 C17.0356898,18.0409357 16.7513295,17.9463343 16.4983614,18.0398181 L9.18790683,20.7413806 L9.38765455,21.2744188 L9.77500768,20.8554787 C9.66234703,20.7527541 9.54659819,20.6594968 9.42308477,20.5733569 L9.31963228,20.5105029 C8.63300456,20.1773971 8.12151094,19.5987993 7.84123071,18.8519828 C7.83257268,18.8290517 7.82475503,18.8058178 7.8114223,18.7639335 C7.7970984,18.7188079 7.7970984,18.7188079 7.78476696,18.6810546 L7.75252742,18.6035507 C7.27087625,17.6514029 8.08900843,16.5054149 9.90556492,15.3248856 C10.4432774,14.9754413 11.0224626,14.6543846 11.601934,14.3700805 C11.9489868,14.1998071 12.217007,14.0805038 12.3655853,14.0194375 C12.3935986,14.0132949 12.4672448,13.9902438 12.5345507,13.96876 C13.0442358,13.8083404 13.2087515,13.7552211 13.4271125,13.6775244 L13.2339273,13.1421063 L13.0861612,13.6916005 C13.433029,13.7835867 13.7928652,13.8311063 14.1666545,13.8311063 C14.754243,13.8311063 15.3655018,13.7140196 15.9854693,13.4850618 C18.8161676,12.4393339 24.2324084,6.41936941 25.9451341,2.46980965 L26.3878179,1.44838764 C26.5870581,0.988672894 26.1343668,0.515964976 25.6620201,0.690497346 L23.4169292,1.52005985 L24.1290705,1.79905781 C23.8069479,1.15832883 23.3761958,0.673022892 22.8410212,0.366181055 C22.0486171,-0.0872532932 21.1137275,-0.114981694 20.1002657,0.258969194 L12.1742628,3.18813344 C11.8778169,3.29768915 11.7269335,3.62514963 11.8372554,3.9195369 C11.9475772,4.21392417 12.2773276,4.36375976 12.5737735,4.25420406 L20.4995008,1.32514156 C21.2114884,1.06242983 21.7936773,1.07969729 22.2687089,1.35152263 C22.5965453,1.53948753 22.8773517,1.85585749 23.1042386,2.30715469 C23.2349675,2.56718546 23.5420835,2.68750533 23.8163799,2.58615265 L26.0614708,1.75659015 L25.335673,0.99869986 L24.8930366,2.02001236 C23.2938727,5.7076978 18.0868793,11.4950911 15.5861474,12.4189214 C15.0897758,12.6022345 14.6127634,12.6936063 14.1666545,12.6936063 C13.8933188,12.6936063 13.6327945,12.6592017 13.3816934,12.592612 C13.2692428,12.5627911 13.150312,12.5677012 13.0407421,12.6066881 C12.8412289,12.6776785 12.6826097,12.7288939 12.1862471,12.8851251 C12.1206426,12.9060609 12.0506084,12.9279814 11.9768077,12.950726 C11.882659,12.986847 11.8027528,13.0209612 11.6927642,13.0699202 C11.511807,13.1504694 11.3107673,13.2441795 11.094559,13.350257 C10.4765547,13.6534664 9.8582642,13.9962001 9.27833269,14.3730814 C7.01818803,15.8418862 5.88008656,17.4360671 6.72896349,19.1141618 L7.24074545,18.8588563 L6.69672395,19.0366579 C6.73817893,19.166291 6.7512883,19.2052519 6.76830238,19.2503077 C7.14868125,20.2638439 7.86115223,21.0697858 8.77759006,21.5114673 C8.84613362,21.5609748 8.92328308,21.6231331 9.00030142,21.6933588 C9.15885986,21.8379333 9.38566054,21.8820101 9.58740226,21.8074569 L16.8978568,19.1058944 L16.6981091,18.5728563 L16.2153211,18.8788275 L16.4231393,19.2022025 C16.3550459,19.3614161 16.3090207,19.5357512 16.2404743,19.7407449 C16.0889309,20.1939478 16.533284,20.619638 16.9839176,20.4529633 L17.8274631,20.1409633 L17.0701367,19.4773962 L16.8647731,20.3418962 C16.7698406,20.7479805 16.5600052,21.3884431 16.2429781,22.0365622 C15.7501819,23.0440174 15.1405762,23.7494327 14.4481214,24.0051474 C13.929303,24.1973917 13.0157165,24.2920438 11.8332,24.2920438 C11.0171012,24.2920438 10.1192157,24.248197 9.19966579,24.1737748 C8.60746897,24.1258464 8.09911436,24.0731271 7.76188427,24.0321847 L7.65597615,24.0291314 C7.47654284,24.040481 7.39711002,24.0442313 7.30538182,24.0442313 C6.4820758,24.0442313 5.651532,23.8583078 4.88606473,23.4991234 C3.42687673,22.8131977 2.28543918,21.5415872 1.67469416,19.9117489 C0.905210943,17.8576021 0.976249224,15.9500664 1.87749098,14.2043246 C2.79582921,12.426324 4.49063466,10.9279533 6.72194931,9.70478758 C8.2603797,8.86144827 9.84494094,8.25485957 11.2143128,7.86572103 C11.3386744,7.8303808 11.4473268,7.75427487 11.5225793,7.64979458 C11.8491095,7.1964416 12.333341,6.82922961 13.0179479,6.57636538 L22.9114612,2.9209062 L23.8165821,2.58607788 C24.1129926,2.47642773 24.2637702,2.14891919 24.1533533,1.85456709 C24.0429363,1.56021498 23.7131375,1.41048446 23.416727,1.52013462 L22.5118179,1.85488462 Z" id="Stroke-1"></path>
                    <path d="M18.2718818,6.9580875 C18.2718818,7.4212125 17.8824273,7.795775 17.4029727,7.795775 C16.9227,7.795775 16.5332455,7.4212125 16.5332455,6.9580875 C16.5332455,6.4949625 16.9227,6.1204 17.4029727,6.1204 C17.8824273,6.1204 18.2718818,6.4949625 18.2718818,6.9580875" id="Fill-3"></path>
                    <path d="M10.3680176,7.54121391 C9.85201844,9.36343067 10.4322123,11.5073078 12.8609393,13.573989 C13.1011296,13.7783746 13.4626881,13.7507013 13.6685029,13.512179 C13.8743177,13.2736567 13.8464509,12.914609 13.6062607,12.7102235 C11.5274205,10.9412722 11.0718188,9.25777597 11.4707035,7.84914099 C11.5115191,7.70500338 11.5491594,7.61153515 11.5672638,7.57606693 C11.710276,7.29589392 11.5974969,6.95363965 11.3153646,6.81162064 C11.0332323,6.66960162 10.6885847,6.78159756 10.5455725,7.06177057 C10.4951482,7.16055612 10.4299952,7.32234413 10.3680176,7.54121391 Z" id="Stroke-5"></path>
                    <path d="M9.22564311,21.9899621 C9.4589516,22.3561995 9.52715233,22.6960722 9.38457209,22.9831348 C9.19078244,23.3732994 8.61608787,23.7503271 7.53878092,24.0490116 C7.23412319,24.1334783 7.05610191,24.4472109 7.14115928,24.749753 C7.22621665,25.052295 7.54214316,25.22908 7.8468009,25.1446134 C9.20817322,24.7671714 10.0499797,24.2149053 10.4118614,23.486314 C10.7644986,22.7763352 10.6184902,22.0487144 10.1936579,21.3818314 C10.0468355,21.1513559 9.89908552,20.9772896 9.79001224,20.8701478 C9.56513301,20.6492506 9.20250754,20.6512126 8.98006559,20.8745302 C8.75762363,21.0978478 8.75959944,21.457955 8.98447867,21.6788522 C9.03660793,21.7300584 9.13066177,21.8408645 9.22564311,21.9899621 Z" id="Stroke-7"></path>
                    <path d="M5.65606665,9.56558775 C5.52857618,10.1708257 5.52178854,10.8139805 5.71963728,11.4301451 C5.96895629,12.2066048 6.51854286,12.8279028 7.40258232,13.2181501 C7.60903798,13.3092871 7.85080119,13.2169652 7.94257558,13.0119432 C8.03434996,12.8069213 7.94138242,12.566837 7.73492677,12.4756999 C7.06708694,12.1808911 6.67836599,11.7414488 6.49914927,11.1833103 C6.35049392,10.7203497 6.35586229,10.2116752 6.45691459,9.73194768 C6.48330116,9.60668223 6.5087639,9.51776954 6.52345401,9.47569483 C6.59746734,9.26370944 6.48441714,9.03227834 6.27094934,8.958779 C6.05748154,8.88527966 5.82443204,8.99754478 5.75041871,9.20953017 C5.72488595,9.28265987 5.69001439,9.40442699 5.65606665,9.56558775 Z" id="Stroke-9"></path>
                    <path d="M1.6193579,12.7864617 C1.55760556,13.324667 1.6042077,13.9256485 1.84461454,14.5052784 C2.24717014,15.4758549 3.11168275,16.1405877 4.49148621,16.3459382 C4.71492559,16.3791918 4.92320485,16.2262736 4.95669096,16.0043859 C4.99017708,15.7824982 4.83618953,15.5756653 4.61275016,15.5424118 C3.5157538,15.3791503 2.89347172,14.900671 2.60113891,14.1958457 C2.42128899,13.7622209 2.38482766,13.2920152 2.43227986,12.8784434 C2.43851467,12.8241036 2.44429959,12.7881315 2.44718737,12.7737803 C2.49145963,12.5537643 2.34774389,12.3397655 2.12618928,12.2958007 C1.90463468,12.2518359 1.68913943,12.3945536 1.64486717,12.6145697 C1.63765076,12.6504325 1.62827938,12.7087061 1.6193579,12.7864617 Z" id="Stroke-11"></path>
                    <path d="M0.943673065,18.8712227 C1.85801851,19.525282 2.93749895,19.7764731 4.12138121,19.3751062 C4.3351988,19.3026165 4.44935674,19.0717222 4.3763601,18.8593895 C4.30336346,18.6470567 4.07085457,18.5336916 3.85703698,18.6061813 C2.95115332,18.9132994 2.13772718,18.7240182 1.42188611,18.2119551 C1.13419333,18.0061597 0.933304751,17.8019698 0.835855472,17.6765154 C0.697859656,17.4988621 0.440968419,17.4659366 0.262072835,17.6029741 C0.0831772512,17.7400116 0.0500214385,17.9951189 0.188017255,18.1727721 C0.330180398,18.3557903 0.584519637,18.6143093 0.943673065,18.8712227 Z" id="Stroke-13"></path>
                    <path d="M3.68282741,23.7138009 C4.02178076,23.7191985 4.46173416,23.6639381 4.9036233,23.4875322 C5.48285857,23.2562967 5.91761201,22.8584104 6.11594317,22.2675488 C6.18738998,22.0546968 6.07155181,21.8246293 5.85721136,21.7536787 C5.64287091,21.682728 5.41119456,21.7977617 5.33974774,22.0106137 C5.22499912,22.352469 4.97097705,22.58495 4.5984498,22.733666 C4.2757455,22.8624922 3.93556168,22.905221 3.69594582,22.9014053 C3.46924045,22.8944493 3.28049704,23.0706106 3.27349643,23.2948685 C3.26649581,23.5191265 3.44388899,23.7065592 3.66971518,23.7135112 C3.67389561,23.7136328 3.67389561,23.7136328 3.68282741,23.7138009 Z" id="Stroke-15"></path>
                    <path d="M11.0303845,15.2082325 C11.5698037,16.3051519 12.7180675,16.7619236 14.4884535,16.2315496 C14.7047596,16.1667484 14.8272113,15.9400835 14.7619569,15.7252795 C14.6967025,15.5104755 14.4684527,15.3888742 14.2521465,15.4536754 C12.8560214,15.871928 12.1241186,15.5807819 11.7655845,14.8516958 C11.6754698,14.6684458 11.6162837,14.4678525 11.5832869,14.2665532 C11.5636879,14.1469883 11.5573909,14.0573534 11.5573909,14.0144875 C11.5573909,13.7901218 11.3742347,13.6082375 11.1483,13.6082375 C10.9223653,13.6082375 10.7392091,13.7901218 10.7392091,14.0144875 C10.7392091,14.3246299 10.8108808,14.7618674 11.0303845,15.2082325 Z" id="Stroke-17"></path>
                    <path d="M9.12093612,16.5782495 C9.52073227,16.8194613 9.73161757,17.1061972 9.71646531,17.4494128 C9.70656954,17.6735632 9.8815279,17.8632393 10.1072458,17.8730664 C10.3329636,17.8828934 10.5239662,17.7091501 10.533862,17.4849997 C10.5644099,16.7930552 10.1748925,16.2634374 9.54576565,15.883862 C9.20725076,15.6796235 8.87424208,15.5575353 8.63956457,15.4992734 C8.42037575,15.4448567 8.19826618,15.577197 8.14346898,15.7948637 C8.08867177,16.0125303 8.22193751,16.2330975 8.44112634,16.2875141 C8.60295155,16.3276895 8.86469694,16.423651 9.12093612,16.5782495 Z" id="Stroke-19"></path>
                    <path d="M7.71991594,18.5644382 C7.86849523,18.4794563 8.01090019,18.414891 8.13584257,18.3788202 C8.38645577,18.3064682 8.44939471,18.3337457 8.49824377,18.566221 C8.54439477,18.7858559 8.76110197,18.9267523 8.98227285,18.8809218 C9.20344374,18.8350913 9.3453254,18.619889 9.29917441,18.400254 C9.14170063,17.6508281 8.57593419,17.405627 7.90743817,17.5986217 C7.7117392,17.6551199 7.51239849,17.7454995 7.31156285,17.8603701 C7.11353492,17.9736348 6.95309641,18.0864648 6.85297021,18.1660095 C6.67654487,18.3061697 6.64794067,18.5618197 6.78908094,18.7370199 C6.93022121,18.91222 7.187659,18.9406256 7.36408434,18.8004655 C7.43441269,18.7445935 7.5628075,18.6542985 7.71991594,18.5644382 Z" id="Stroke-21"></path>
                    <path d="M9.82530856,22.1665658 C9.61443343,22.2471084 9.50923461,22.482162 9.59034043,22.6915728 C9.67144625,22.9009835 9.90814358,23.0054517 10.1190187,22.9249092 L16.766746,20.3858467 C16.9776211,20.3053041 17.0828199,20.0702505 17.0017141,19.8608397 C16.9206083,19.651429 16.683911,19.5469608 16.4730358,19.6275033 L9.82530856,22.1665658 Z" id="Stroke-23"></path>
                </g>
            </g>
        </g>
    </g>
</svg>