<?xml version="1.0" encoding="UTF-8" standalone="no"?>
<svg width="52px" height="51px" viewBox="0 0 52 51" version="1.1" xmlns="http://www.w3.org/2000/svg" xmlns:xlink="http://www.w3.org/1999/xlink">
    <!-- Generator: Sketch 39.1 (31720) - http://www.bohemiancoding.com/sketch -->
    <title>ico_carnesblancas_green</title>
    <desc>Created with Sketch.</desc>
    <defs></defs>
    <g id="supermercado_categoria" stroke="none" stroke-width="1" fill="none" fill-rule="evenodd">
        <g id="Subcategorias_carnes-y-mariscos" transform="translate(-262.000000, -14.000000)" fill="#44D481">
            <g id="icon01-copy-5" transform="translate(262.000000, 14.000000)">
                <g id="carnes_blancas_red" transform="translate(11.000000, 11.000000)">
                    <path d="M21.7215495,3.77254074 L22.0380478,3.52048031 L21.8746977,3.15208391 C21.6005502,2.53381099 21.7713772,1.80485927 22.3036322,1.38068184 C22.5020506,1.22293267 22.7354507,1.11876941 22.9830833,1.07404304 C23.5246192,0.977083921 24.0801541,1.17627373 24.4297688,1.60776599 C24.6992516,1.9398656 24.806534,2.36106873 24.7389594,2.78021639 L24.6468404,3.35160672 L25.2295942,3.38706345 C25.6577198,3.41311206 26.0534235,3.61008066 26.3209881,3.94168411 C26.8440252,4.58741974 26.7414949,5.52838667 26.0932706,6.04488792 C25.5574604,6.47309887 24.8012722,6.48539532 24.2542747,6.08882321 L23.9261177,5.85090996 L23.6093757,6.1035627 L20.0185649,8.9678127 L20.6828405,9.7857873 L24.2736513,6.9215373 L23.6287523,6.93627679 C24.5606764,7.61192003 25.846431,7.59101224 26.7577117,6.86273011 C27.8614967,5.98324151 28.0360033,4.38171541 27.1477961,3.2851475 C26.6906783,2.71862163 26.0163336,2.38295452 25.2945139,2.33903655 L25.7851487,2.94588361 C25.8992625,2.2380652 25.7155711,1.51687147 25.2556117,0.950036665 C24.6603806,0.21540605 23.7141904,-0.123855191 22.7939322,0.0409132089 C22.3741279,0.116735886 21.9778572,0.293585997 21.6402027,0.562033285 C20.7302403,1.28722196 20.439904,2.52614253 20.9047618,3.57451609 L21.0579099,2.95405926 L17.3361802,5.91805926 L17.9998198,6.73654074 L21.7215495,3.77254074 Z" id="Stroke-1"></path>
                    <path d="M15.8978951,7.37936791 C15.8910818,7.4261648 15.8782927,7.47912448 15.8513426,7.57474602 C15.7104918,8.07449746 15.6923802,8.21402095 15.8996008,8.50258894 C16.1264683,8.81774454 16.4587687,8.8280988 16.7703017,8.69531747 C16.9098237,8.63585051 17.0474047,8.54785886 17.2208039,8.41887573 C17.2727199,8.37995351 17.2727199,8.37995351 17.3225861,8.3417087 C17.3549104,8.3168286 17.4009294,8.2810506 17.4717061,8.22608521 C17.5230495,8.18640339 17.5597516,8.15872771 17.5906469,8.13656853 C17.5947656,8.13361447 17.6093677,8.12552556 17.5069472,8.13245569 L17.4708649,7.608675 L17.2896162,8.10198822 C17.1018162,8.03421509 17.0075513,7.81775753 17.0415226,7.67037368 C17.0410693,7.67234043 17.0333487,7.69366961 17.0166549,7.73316686 C17.0146805,7.73783835 16.9551161,7.87487126 16.9345635,7.92480659 C16.8353331,8.16589976 16.7758602,8.37986203 16.7592063,8.62401475 C16.7452575,8.82851009 16.8526631,9.02235265 17.0342606,9.12042449 C17.6030139,9.42758014 18.1012621,9.3331149 18.577048,9.0010408 C18.6250055,8.96756894 18.7685669,8.85983729 18.7837808,8.85018571 C18.7682844,8.86001651 18.7435341,8.87177507 18.6922517,8.88268778 C18.5655781,8.90964343 18.4193098,8.8807052 18.3040076,8.78477904 L18.6445946,8.382675 L18.168243,8.6123445 C18.1235862,8.52136942 18.1213494,8.45733919 18.1304327,8.41173305 C18.1281905,8.42299071 18.1178583,8.45362563 18.0992254,8.49753636 C18.0590748,8.59215586 18.0136431,8.68041405 17.88127,8.92657111 C17.7122892,9.24110587 17.6369794,9.39411812 17.5791499,9.56014572 C17.4426572,9.9520136 17.4577053,10.3046509 17.8602547,10.5125177 C18.02878,10.5965559 18.140864,10.6120035 18.4113513,10.6266093 C18.5240553,10.6326952 18.565132,10.6356877 18.614682,10.6423542 C18.7422287,10.6595144 18.7692861,10.6763045 18.7997379,10.7518011 L19.1998178,10.039869 C18.4756941,10.1661523 18.0087439,10.5136144 17.8908523,11.1117792 C17.3602075,13.7861198 14.5240457,18.3727895 11.8976465,20.4655149 C8.30669891,23.3258745 5.11226779,23.0421296 3.04844846,20.4949603 C0.983366967,17.9500886 1.3923226,14.79854 4.9826565,11.9365159 C7.45920108,9.96354989 12.3880457,8.3553933 15.2823691,8.33466129 C15.7723743,8.334675 16.5585522,7.53308001 16.6025571,6.84619135 L16.0738919,6.812925 L15.8385155,7.28325239 C15.9182836,7.32246287 15.9091523,7.30204847 15.8978951,7.37936791 Z M15.5452267,6.77965865 C15.5397896,6.86452862 15.4607104,7.0028026 15.325876,7.14028113 C15.2652754,7.20207004 15.1997468,7.25712183 15.1443856,7.29500768 C15.1581402,7.28559489 15.1600089,7.284675 15.2785405,7.284675 C12.1499306,7.30707149 6.98902472,8.99094378 4.3187638,11.1182361 C0.279559654,14.3380757 -0.214935827,18.1488229 2.22260764,21.1526922 C4.65848357,24.1590545 8.52115057,24.5021555 12.5614237,21.2838868 C15.3806915,19.0374829 18.3511691,14.2335963 18.9305317,11.3137256 C18.9520036,11.2047825 19.049533,11.13221 19.3834254,11.073981 C19.7145082,11.0162419 19.9082889,10.6714141 19.7835053,10.3620489 C19.5934149,9.89077445 19.2305062,9.66557663 18.7571993,9.60189759 C18.6694328,9.59008942 18.6110105,9.58583323 18.4689902,9.57816438 C18.3623826,9.57240775 18.3204016,9.56662188 18.3429864,9.57787597 C18.593394,9.70711869 18.5994374,9.84873958 18.5806183,9.90276896 C18.6136304,9.8079918 18.6750061,9.68329048 18.8040919,9.44300492 C18.9663806,9.14120753 19.0178834,9.04115557 19.0758368,8.90458139 C19.1999915,8.61199616 19.242207,8.4000383 19.1209462,8.1530055 C19.0884079,8.08671853 19.0421494,8.02796553 18.9851816,7.98057096 C18.7149323,7.75573586 18.4574268,7.81053207 18.2126067,7.96584422 C18.1552844,8.00220913 17.9845959,8.13029752 17.9670276,8.1425593 C17.7887615,8.26697987 17.6994825,8.2839067 17.5411989,8.19842551 L17.8162532,8.69483525 C17.8240695,8.58024529 17.8554028,8.46751899 17.9155483,8.32138772 C17.9313843,8.28291199 17.9881838,8.15224002 17.9938473,8.13884023 C18.0323906,8.04764706 18.0569575,7.97977782 18.0743757,7.90420977 C18.1512769,7.570576 18.009147,7.24420776 17.6521135,7.11536178 C17.5826106,7.09027963 17.508578,7.07990105 17.4347826,7.08489431 C17.2576533,7.0968795 17.1499042,7.15656759 16.9695126,7.28595065 C16.9261972,7.31701791 16.8806949,7.35132946 16.8201913,7.39809092 C16.7459405,7.45574833 16.7025676,7.489469 16.6727356,7.51243077 C16.628101,7.54665906 16.628101,7.54665906 16.5848288,7.5790984 C16.4741882,7.66139852 16.3938197,7.71279916 16.3517374,7.73073546 C16.3639081,7.72554805 16.3899231,7.71917337 16.4417571,7.72078848 C16.560876,7.72450014 16.684713,7.78531635 16.7624219,7.89326636 C16.816238,7.96820806 16.8249287,8.02701702 16.8212088,8.05567363 C16.8251338,8.02543688 16.8327951,7.99541352 16.8717425,7.85722458 C16.9102405,7.72063027 16.9313967,7.63302227 16.9464946,7.5293226 C17.0195105,7.02781597 16.8268043,6.59699528 16.3092683,6.34259761 C15.970175,6.17591446 15.5692108,6.40528134 15.5452267,6.77965865 Z" id="Stroke-3"></path>
                    <path d="M11.0880082,18.0999321 C11.2644826,17.8686722 11.2183812,17.5394156 10.9850378,17.3645169 C10.7516945,17.1896182 10.4194716,17.235308 10.2429972,17.4665679 C8.89125575,19.2379505 6.26969551,19.4371549 5.51418455,17.78007 C5.39371602,17.5158427 5.07992875,17.3984313 4.81332108,17.5178242 C4.5467134,17.6372172 4.42824422,17.9482028 4.54871275,18.21243 C5.68716583,20.7094334 9.30657227,20.4344056 11.0880082,18.0999321 Z" id="Stroke-5"></path>
                </g>
            </g>
        </g>
    </g>
</svg>