<?xml version="1.0" encoding="UTF-8" standalone="no"?>
<svg width="52px" height="51px" viewBox="0 0 52 51" version="1.1" xmlns="http://www.w3.org/2000/svg" xmlns:xlink="http://www.w3.org/1999/xlink">
    <!-- Generator: Sketch 39.1 (31720) - http://www.bohemiancoding.com/sketch -->
    <title>ico_jugosynectares_grey</title>
    <desc>Created with Sketch.</desc>
    <defs></defs>
    <g id="supermercado_categoria" stroke="none" stroke-width="1" fill="none" fill-rule="evenodd">
        <g id="Subcategorias_bebidas" transform="translate(-325.000000, -14.000000)" fill="#D4D4D4">
            <g id="icon01-copy-5" transform="translate(325.000000, 14.000000)">
                <g id="jugos_nectar_lgreen" transform="translate(18.000000, 12.000000)">
                    <path d="M3.53706428,22.7963433 L4.00139476,23.1834935 L2.5987281,15.8621221 L1.8870171,16.357698 L10.1583504,21.872898 L9.95202809,21.3903229 L9.67136143,23.1025515 L10.1250643,22.7024004 L3.53706428,22.7963433 Z M10.5917052,23.2621571 L10.8723719,21.5499285 C10.9033175,21.3611427 10.8222348,21.1714954 10.6660496,21.0673534 L2.39471624,15.5521534 C2.04880448,15.3215047 1.60330296,15.6317146 1.68300524,16.0477294 L3.0856719,23.3691008 C3.12924784,23.5965502 3.32464009,23.7594646 3.55000239,23.756251 L10.1380024,23.6623082 C10.3633311,23.659095 10.5542394,23.4907202 10.5917052,23.2621571 Z" id="Stroke-1"></path>
                    <path d="M10.2866898,19.1586531 L10.9897202,18.8863491 L2.07505353,12.9398348 L2.2709089,13.2145877 L1.81024224,11.5016734 C1.74152835,11.246172 1.48445335,11.0963423 1.23604917,11.1670194 C0.987644977,11.2376966 0.841977208,11.5021166 0.910691097,11.757618 L1.37135776,13.4705323 C1.40178425,13.5836682 1.47146183,13.6814144 1.56721313,13.7452852 L10.4818798,19.6917995 C10.7455814,19.8677012 11.0995113,19.7306139 11.1849102,19.4194955 L11.5109102,18.2318384 C11.580939,17.9767149 11.4366351,17.7115049 11.1885984,17.6394753 C10.9405617,17.5674456 10.6827187,17.7158725 10.6126898,17.9709959 L10.2866898,19.1586531 Z" id="Stroke-3"></path>
                    <path d="M10.7858743,16.2945622 L11.499903,15.9714589 L1.15456964,9.07385885 L1.35861247,9.38392882 L0.924612469,7.11627168 L0.473203661,7.68893672 L12.7812037,7.51339386 L12.3145409,6.95376225 L10.7858743,16.2945622 Z M12.768263,6.55348614 L0.460263006,6.729029 C0.169012347,6.73318296 -0.047405777,7.00773474 0.00885419756,7.30169404 L0.442854198,9.56935118 C0.467257014,9.6968563 0.540879668,9.80873562 0.646897027,9.87942115 L10.9922304,16.7770211 C11.2739438,16.9648495 11.6505308,16.794441 11.7062591,16.4539178 L13.2349257,7.11311775 C13.2832806,6.81764868 13.059538,6.54933183 12.768263,6.55348614 Z" id="Stroke-5"></path>
                    <path d="M10.4951664,0.757692229 C10.605317,0.518026049 10.5057207,0.231892278 10.2727119,0.118594565 C10.0397031,0.00529685133 9.76151749,0.107738734 9.65136694,0.347404914 L6.83136694,6.48317634 C6.72121638,6.72284252 6.82081266,7.00897629 7.05382144,7.12227401 C7.28683023,7.23557172 7.56501584,7.13312984 7.6751664,6.89346366 L10.4951664,0.757692229 Z" id="Stroke-7"></path>
                    <path d="M15.1570278,0.95967923 C15.4147357,0.955989954 15.6207416,0.738116696 15.6171548,0.473045689 C15.613568,0.207974682 15.4017468,-0.00391707755 15.1440389,-0.000227801445 L10.0667055,0.0724579128 C9.80899761,0.0761471889 9.60299173,0.294020447 9.60657853,0.559091454 C9.61016532,0.824162461 9.82198655,1.03605422 10.0796945,1.03236494 L15.1570278,0.95967923 Z" id="Stroke-9"></path>
                </g>
            </g>
        </g>
    </g>
</svg>