<?xml version="1.0" encoding="UTF-8" standalone="no"?>
<svg width="52px" height="51px" viewBox="0 0 52 51" version="1.1" xmlns="http://www.w3.org/2000/svg" xmlns:xlink="http://www.w3.org/1999/xlink">
    <!-- Generator: Sketch 39.1 (31720) - http://www.bohemiancoding.com/sketch -->
    <title>ico_soya_grey</title>
    <desc>Created with Sketch.</desc>
    <defs></defs>
    <g id="supermercado_categoria" stroke="none" stroke-width="1" fill="none" fill-rule="evenodd">
        <g id="Subcategorias_bebidas" transform="translate(-15.000000, -75.000000)" fill="#D4D4D4">
            <g id="icon01-copy-7" transform="translate(15.000000, 75.000000)">
                <g id="soya_blue" transform="translate(20.000000, 13.000000)">
                    <path d="M10.6981836,14.1172977 C10.9579014,13.6899794 11.5210811,13.5506017 11.9555827,13.8057628 C12.3905317,14.0609242 12.5323982,14.6142235 12.2726807,15.0411023 C12.0128967,15.4685295 11.4502496,15.6078096 11.015097,15.3525289 C10.5803326,15.0974758 10.4384661,14.5441765 10.6981836,14.1172977 Z M13.0882224,15.519783 C13.6170844,14.6505312 13.3282294,13.5239563 12.4428113,13.0045289 C11.5580371,12.4849452 10.4113448,12.7687325 9.88264187,13.638617 C9.3537799,14.5078688 9.64263489,15.6344437 10.528053,16.1538711 C11.413579,16.6733619 12.5595027,16.3896951 13.0882224,15.519783 Z" id="Stroke-1"></path>
                    <path d="M12.4940907,17.6238977 C12.7538085,17.1965794 13.3169883,17.0572017 13.7514898,17.3123628 C14.1864388,17.5675242 14.3283054,18.1208235 14.0685879,18.5477023 C13.8088039,18.9751295 13.2461567,19.1144096 12.8110041,18.8591289 C12.3762397,18.6040758 12.2343732,18.0507765 12.4940907,17.6238977 Z M14.8841296,19.026383 C15.4129915,18.1571312 15.1241365,17.0305563 14.2387184,16.5111289 C13.3539443,15.9915452 12.2072519,16.2753325 11.678549,17.145217 C11.149687,18.0144688 11.438542,19.1410437 12.3239601,19.6604711 C13.2094862,20.1799619 14.3554099,19.8962951 14.8841296,19.026383 Z" id="Stroke-3"></path>
                    <path d="M14.6980907,21.0751644 C14.9578085,20.6478461 15.5209883,20.5084684 15.9554898,20.7636295 C16.3904388,21.0187908 16.5323054,21.5720902 16.2725879,21.9989689 C16.0128039,22.4263962 15.4501567,22.5656762 15.0150041,22.3103955 C14.5802397,22.0553425 14.4383732,21.5020431 14.6980907,21.0751644 Z M17.0881296,22.4776497 C17.6169915,21.6083979 17.3281365,20.4818229 16.4427184,19.9623955 C15.5579443,19.4428118 14.4112519,19.7265992 13.882549,20.5964837 C13.353687,21.4657354 13.642542,22.5923104 14.5279601,23.1117378 C15.4134862,23.6312285 16.5594099,23.3475618 17.0881296,22.4776497 Z" id="Stroke-5"></path>
                    <path d="M18.1521295,24.5566152 L18.1831424,23.6713968 C18.1312234,23.6864136 18.0180435,23.7124117 17.8516307,23.7394912 C16.3427,23.9850319 14.6082689,23.7153378 12.9571748,22.5247177 C11.9531125,21.8006786 11.0512281,20.7686924 10.279455,19.3860137 C8.6704794,16.5036143 8.81484024,14.1064571 10.0085056,12.1880276 C10.2049813,11.8722567 10.4150083,11.5988224 10.6238165,11.3694707 C10.7456979,11.235598 10.8368876,11.1486928 10.8822776,11.1103841 L10.1275914,10.9191904 C10.170017,11.0311712 10.2546292,11.2468547 10.3824281,11.561347 C10.5945776,12.0834127 10.8519118,12.6944928 11.1554311,13.3896933 C11.2588437,13.6265562 11.5381203,13.7362098 11.7792128,13.6346115 C12.0203054,13.5330132 12.1319171,13.2586362 12.0285046,13.0217734 C11.7281802,12.3338906 11.4739139,11.7300956 11.264713,11.2152863 C11.1397016,10.9076536 11.057767,10.6987954 11.0179158,10.5936096 C10.9026025,10.2892442 10.5139758,10.1907888 10.2632296,10.4024159 C9.98571121,10.6366384 9.58973756,11.0715697 9.19795371,11.701235 C7.83299553,13.8949621 7.66724106,16.6473674 9.44648667,19.834797 C10.2834021,21.3341821 11.2764711,22.4705069 12.395054,23.2771279 C14.2772354,24.6343873 16.2657899,24.9435961 18.006865,24.6602798 C18.2129464,24.6267452 18.3636433,24.5921292 18.4514362,24.5667365 C18.8898125,24.4399432 18.9109142,23.8376242 18.4824491,23.6815181 C18.1486424,23.5598997 17.7763548,23.1856113 17.0182114,22.2503451 C16.8547831,22.0487357 16.5559431,22.0154593 16.3507334,22.1760204 C16.1455238,22.3365815 16.1116533,22.6301787 16.2750815,22.8317882 C17.1618647,23.925748 17.5831767,24.3493241 18.1521295,24.5566152 Z" id="Stroke-7"></path>
                    <path d="M14.6654482,20.458065 C14.7990883,20.679848 15.0904263,20.7532026 15.3161697,20.621907 C15.5419132,20.4906115 15.6165776,20.2043847 15.4829375,19.9826017 C15.211007,19.5313182 15.1001781,19.3345558 14.7753598,18.7319391 C14.6525901,18.5041715 14.3651264,18.4173079 14.1332915,18.5379237 C13.9014567,18.6585395 13.8130419,18.94096 13.9358116,19.1687276 C14.2671086,19.783364 14.3848365,19.9923747 14.6654482,20.458065 Z" id="Stroke-9"></path>
                    <path d="M12.4429304,16.2337421 C12.4471945,16.2425589 12.4471945,16.2425589 12.4514616,16.2513637 C12.4876335,16.3259629 12.5244529,16.4005273 12.5827986,16.5175919 C12.6662901,16.6848571 12.7285108,16.8094934 12.7851867,16.9232966 C12.9004811,17.1548042 13.184971,17.2506533 13.4206126,17.1373815 C13.6562543,17.0241098 13.7538149,16.744611 13.6385205,16.5131034 C13.5815975,16.3988038 13.5191145,16.2736422 13.4360033,16.1071394 C13.3790306,15.9928296 13.3435302,15.9209364 13.309117,15.8499643 C13.3050945,15.8416644 13.3050945,15.8416644 13.3010776,15.8333586 C13.2367566,15.7002932 13.1743532,15.5666033 13.0243678,15.2410846 C12.9161833,15.006288 12.6347433,14.9021101 12.395754,15.0083966 C12.1567646,15.1146831 12.0507263,15.3911855 12.1589108,15.6259821 C12.3112113,15.9565253 12.3753645,16.0939638 12.4429304,16.2337421 Z" id="Stroke-11"></path>
                    <path d="M9.21361895,2.74826642 L8.76022143,2.8874 L9.15910319,3.14078674 C9.32036034,2.89576443 9.40757857,2.61203067 9.40757857,2.31673333 C9.40661984,1.9356246 9.26180732,1.57580453 9.00502514,1.29614838 L8.65232857,1.60873333 L9.1229729,1.67178616 C9.13207855,1.6061829 9.13682857,1.54060364 9.13682857,1.4754 C9.13682857,0.655402171 8.43346841,-0.000887674915 7.58032328,6.69693492e-05 L4.81816664,0.00140005632 C3.96521579,0.0014 3.26279364,0.65796704 3.2637932,1.47795888 C3.26379286,1.54017922 3.26807049,1.60275101 3.27606574,1.66755464 L3.74761429,1.6114 L3.39375368,1.30008746 C3.1378142,1.58088883 2.99372143,1.93993732 2.99372143,2.3194 C2.99372143,2.61423408 3.08106423,2.89862038 3.24219681,3.1434534 L3.64107857,2.89006667 L3.18750544,2.75148666 C2.86098634,3.78301621 2.37707198,7.70965242 2.44935786,9.21275752 L2.59695282,8.85213892 C1.46461018,9.90727173 0.684582382,11.1219319 0.685221484,12.422292 L0.689971476,22.8542754 C0.628354144,23.3162698 0.756697375,23.8840031 1.1888119,24.4103697 C2.01956354,25.4213164 3.66604358,25.8794717 6.20973851,25.8780666 C8.75411673,25.8766607 10.399569,25.4172683 11.2289893,24.4054404 C11.3935337,24.2047091 11.3612926,23.9109348 11.1569768,23.7492772 C10.952661,23.5876196 10.6536408,23.619295 10.4890964,23.8200263 C9.88732299,24.5541428 8.49282483,24.9434716 6.20920427,24.9447334 C3.92620175,24.9459946 2.53086097,24.5577221 1.92812866,23.8242536 C1.6720441,23.5123122 1.60060876,23.1963141 1.6364,22.9111853 L1.63522138,12.4218579 C1.63474154,11.4455395 2.29103097,10.4235649 3.25070433,9.52932775 C3.3509391,9.43592758 3.40481915,9.30428251 3.39829928,9.16870915 C3.33114119,7.77223065 3.80166661,3.95423657 4.0946517,3.02864667 C4.13648517,2.89648762 4.11645077,2.75290338 4.03996033,2.63667993 C3.97713633,2.54122195 3.94372143,2.43242375 3.94372143,2.3194 C3.94372143,2.17325442 3.99926543,2.03485061 4.10147489,1.92271254 C4.19273432,1.82258819 4.23562423,1.68866934 4.21916283,1.55524536 C4.21554003,1.52588163 4.21379286,1.50032449 4.21379286,1.4774 C4.21343518,1.18370388 4.47979401,0.934733333 4.8184,0.934733333 L7.58109764,0.933399944 C7.91987736,0.933020957 8.18682857,1.18210725 8.18682857,1.4754 C8.16278445,1.6818474 8.20593614,1.81927606 8.29963201,1.92131829 C8.40134314,2.03208978 8.4572097,2.17090313 8.45758003,2.31788845 C8.45757857,2.43013916 8.42432949,2.53830334 8.36133967,2.63401326 C8.28473712,2.75040707 8.26476177,2.89423207 8.30682391,3.02653358 C8.60072331,3.9509597 9.07301028,7.76800286 9.00638442,9.16556691 C8.99411102,9.42301757 9.19659333,9.64149757 9.45864132,9.65355565 C9.72068931,9.66561374 9.94307074,9.46668375 9.95534415,9.20923309 C10.0270609,7.70488131 9.54130148,3.77895343 9.21361895,2.74826642 Z" id="Stroke-13"></path>
                    <path d="M3.41009286,14.8032 L3.41009286,22.2672" id="Fill-15"></path>
                    <path d="M3.07080714,22.2672 C3.07080714,22.4512949 3.22271053,22.6005333 3.41009286,22.6005333 C3.59747518,22.6005333 3.74937857,22.4512949 3.74937857,22.2672 L3.74937857,14.8032 C3.74937857,14.6191051 3.59747518,14.4698667 3.41009286,14.4698667 C3.22271053,14.4698667 3.07080714,14.6191051 3.07080714,14.8032 L3.07080714,22.2672 Z" id="Stroke-17"></path>
                    <path d="M4.89995642,2.14631477 C5.13736983,2.25370778 5.45532326,2.31453333 5.8653,2.31453333 C6.26769874,2.31421046 6.60005317,2.25795193 6.86692368,2.16183232 C7.04268475,2.09852789 7.16291314,2.02892827 7.23260183,1.97099543 C7.37564693,1.85208075 7.39348708,1.64175479 7.27244892,1.50121925 C7.15141076,1.36068372 6.93732898,1.34315656 6.79428388,1.46207124 C6.78437885,1.47030538 6.73315912,1.49995623 6.63335701,1.53590228 C6.4423467,1.60469907 6.18886358,1.64760684 5.86502281,1.64786678 C5.54852674,1.64786667 5.32676142,1.60544222 5.18375072,1.5407519 C5.12518016,1.51425774 5.11031604,1.50192403 5.12058556,1.51654474 C5.01415881,1.36502502 4.80285847,1.32695633 4.64863304,1.43151594 C4.49440761,1.53607556 4.45565912,1.74366887 4.56208587,1.89518859 C4.6207036,1.97864264 4.73027251,2.06955893 4.89995642,2.14631477 Z" id="Stroke-19"></path>
                </g>
            </g>
        </g>
    </g>
</svg>