<?xml version="1.0" encoding="UTF-8" standalone="no"?>
<svg width="52px" height="51px" viewBox="0 0 52 51" version="1.1" xmlns="http://www.w3.org/2000/svg" xmlns:xlink="http://www.w3.org/1999/xlink">
    <!-- Generator: Sketch 39.1 (31720) - http://www.bohemiancoding.com/sketch -->
    <title>ico_aguas_grey</title>
    <desc>Created with Sketch.</desc>
    <defs>
        <polygon id="path-1" points="0 25.4095263 12.7338421 25.4095263 12.7338421 0 0 0"></polygon>
    </defs>
    <g id="supermercado_categoria" stroke="none" stroke-width="1" fill="none" fill-rule="evenodd">
        <g id="Subcategorias_bebidas" transform="translate(-263.000000, -14.000000)">
            <g id="icon01-copy-4" transform="translate(263.000000, 14.000000)">
                <g id="agua_yellow" transform="translate(21.000000, 13.000000)">
                    <path d="M7.74026842,20.0502421 C7.74026842,20.8685579 7.07726842,21.5308737 6.25963684,21.5308737 C5.44132105,21.5308737 4.78037368,20.8685579 4.78037368,20.0502421 C4.78037368,19.2339789 5.96953158,17.6144526 6.25963684,15.9737158 C6.63800526,17.6267684 7.74026842,19.2339789 7.74026842,20.0502421 L7.74026842,20.0502421 Z" id="Stroke-1" stroke="#D4D4D4" stroke-linecap="round" stroke-linejoin="round"></path>
                    <path d="M10.6619842,12.0553789 C11.5377737,12.0553789 12.2548263,11.3383263 12.2548263,10.4625368 L12.2548263,6.03843158 C12.2548263,5.16195789 11.5377737,4.44558947 10.6619842,4.44558947 L2.07172105,4.44558947 C1.19593158,4.44558947 0.478878947,5.16195789 0.478878947,6.03843158 L0.478878947,10.4625368 C0.478878947,11.2890632 1.11724737,11.9725895 1.92461579,12.0478526 L1.92461579,13.8924842 C1.11724737,13.9670632 0.478878947,14.6512737 0.478878947,15.4778 L0.478878947,23.3380105 C0.478878947,24.2138 1.19593158,24.9308526 2.07172105,24.9308526 L10.6619842,24.9308526 C11.5377737,24.9308526 12.2548263,24.2138 12.2548263,23.3380105 L12.2548263,15.4778 C12.2548263,14.6013263 11.5377737,13.8849579 10.6619842,13.8849579 L10.5080368,13.8849579 L10.5080368,12.0553789 L10.6619842,12.0553789 L10.6619842,12.0553789 Z" id="Stroke-3" stroke="#D4D4D4" stroke-width="1.4" stroke-linecap="round" stroke-linejoin="round"></path>
                    <mask id="mask-2" fill="white">
                        <use xlink:href="#path-1"></use>
                    </mask>
                    <g id="Clip-6"></g>
                    <path d="M8.31042105,4.80657895 C8.57493638,4.80657895 8.78936842,4.59214691 8.78936842,4.32763158 L8.78936842,0.478947368 C8.78936842,0.214432041 8.57493638,0 8.31042105,0 L4.46173684,0 C4.19722151,0 3.98278947,0.214432041 3.98278947,0.478947368 L3.98278947,4.32763158 C3.98278947,4.59214691 4.19722151,4.80657895 4.46173684,4.80657895 L8.31042105,4.80657895 Z M4.94068421,4.32763158 L4.94068421,0.478947368 L4.46173684,0.957894737 L8.31042105,0.957894737 L7.83147368,0.478947368 L7.83147368,4.32763158 L8.31042105,3.84868421 L4.46173684,3.84868421 L4.94068421,4.32763158 Z" id="Stroke-5" fill="#D4D4D4" mask="url(#mask-2)"></path>
                    <path d="M5.07595263,12.2327947 C5.26489215,12.2327947 5.41805789,12.079629 5.41805789,11.8906895 C5.41805789,11.70175 5.26489215,11.5485842 5.07595263,11.5485842 L1.6679,11.5485842 C1.47896048,11.5485842 1.32579474,11.70175 1.32579474,11.8906895 C1.32579474,12.079629 1.47896048,12.2327947 1.6679,12.2327947 L5.07595263,12.2327947 Z" id="Stroke-7" fill="#D4D4D4" mask="url(#mask-2)"></path>
                    <path d="M11.2746263,12.2327947 C11.4635658,12.2327947 11.6167316,12.079629 11.6167316,11.8906895 C11.6167316,11.70175 11.4635658,11.5485842 11.2746263,11.5485842 L7.91720526,11.5485842 C7.72826574,11.5485842 7.5751,11.70175 7.5751,11.8906895 C7.5751,12.079629 7.72826574,12.2327947 7.91720526,12.2327947 L11.2746263,12.2327947 Z" id="Stroke-8" fill="#D4D4D4" mask="url(#mask-2)"></path>
                    <path d="M5.11871579,14.3709526 C5.30765531,14.3709526 5.46082105,14.2177869 5.46082105,14.0288474 C5.46082105,13.8399078 5.30765531,13.6867421 5.11871579,13.6867421 L1.71066316,13.6867421 C1.52172364,13.6867421 1.36855789,13.8399078 1.36855789,14.0288474 C1.36855789,14.2177869 1.52172364,14.3709526 1.71066316,14.3709526 L5.11871579,14.3709526 Z" id="Stroke-9" fill="#D4D4D4" mask="url(#mask-2)"></path>
                    <path d="M11.3173895,14.3709526 C11.506329,14.3709526 11.6594947,14.2177869 11.6594947,14.0288474 C11.6594947,13.8399078 11.506329,13.6867421 11.3173895,13.6867421 L7.95996842,13.6867421 C7.7710289,13.6867421 7.61786316,13.8399078 7.61786316,14.0288474 C7.61786316,14.2177869 7.7710289,14.3709526 7.95996842,14.3709526 L11.3173895,14.3709526 Z" id="Stroke-10" fill="#D4D4D4" mask="url(#mask-2)"></path>
                </g>
            </g>
        </g>
    </g>
</svg>