<?xml version="1.0" encoding="UTF-8" standalone="no"?>
<svg width="52px" height="51px" viewBox="0 0 52 51" version="1.1" xmlns="http://www.w3.org/2000/svg" xmlns:xlink="http://www.w3.org/1999/xlink">
    <!-- Generator: Sketch 39.1 (31720) - http://www.bohemiancoding.com/sketch -->
    <title>ico_lechenepolvo_green</title>
    <desc>Created with Sketch.</desc>
    <defs></defs>
    <g id="supermercado_categoria" stroke="none" stroke-width="1" fill="none" fill-rule="evenodd">
        <g id="Subcategorias_bebidas" transform="translate(-325.000000, -197.000000)" fill="#44D481">
            <g id="icon01-copy-27" transform="translate(325.000000, 197.000000)">
                <g id="leche_polvo_blue" transform="translate(18.000000, 12.000000)">
                    <path d="M0.000142282773,6.86457692 C0.000149785039,6.86639344 0.000144,23.87372 0.000144,23.87372 C0.000144,24.1609081 0.225792486,24.39372 0.504144,24.39372 L16.943904,24.39372 C17.2222555,24.39372 17.447904,24.1609081 17.447904,23.87372 L17.447904,6.83554857 C17.4470343,6.71646316 17.4375952,6.53474073 17.4118469,6.31541969 C17.3783758,6.03031548 17.1272309,5.82718799 16.8508991,5.86172174 C16.5745673,5.89625549 16.3776899,6.15537325 16.4111611,6.44047745 C16.4318528,6.61672785 16.4393337,6.76074827 16.4399188,6.83953313 L16.439904,23.87372 L16.943904,23.35372 L0.504144,23.35372 L1.008144,23.87372 L1.008144,6.86377714 C1.00781561,6.76931896 1.01447642,6.61761796 1.03491356,6.43886668 C1.0675225,6.15365612 0.869862545,5.89517332 0.593427702,5.86152918 C0.316992858,5.82788504 0.0664633751,6.03181991 0.0338544391,6.31703047 C0.00811908323,6.54212199 -0.000313863269,6.73418386 0.000142282773,6.86457692 Z" id="Stroke-1"></path>
                    <path d="M16.68888,4.21950286 C16.9672315,4.21950286 17.19288,3.98669093 17.19288,3.69950286 C17.19288,3.41231479 16.9672315,3.17950286 16.68888,3.17950286 L0.75888,3.17950286 C0.480528486,3.17950286 0.25488,3.41231479 0.25488,3.69950286 C0.25488,3.98669093 0.480528486,4.21950286 0.75888,4.21950286 L16.68888,4.21950286 Z" id="Stroke-3"></path>
                    <path d="M0.419328,5.49677143 C0.419328,5.7839595 0.644976486,6.01677143 0.923328,6.01677143 L16.524288,6.01677143 C16.8026395,6.01677143 17.028288,5.7839595 17.028288,5.49677143 L17.028288,4.96117143 C17.028288,4.67398336 16.8026395,4.44117143 16.524288,4.44117143 C16.2459365,4.44117143 16.020288,4.67398336 16.020288,4.96117143 L16.020288,5.49677143 L16.524288,4.97677143 L0.923328,4.97677143 L1.427328,5.49677143 L1.427328,4.96117143 C1.427328,4.67398336 1.20167951,4.44117143 0.923328,4.44117143 C0.644976486,4.44117143 0.419328,4.67398336 0.419328,4.96117143 L0.419328,5.49677143 Z" id="Stroke-5"></path>
                    <path d="M1.47429055,25.5747119 C1.56199564,25.7437953 1.73278204,25.8493486 1.918656,25.8493486 L15.528096,25.8493486 C15.7137934,25.8493486 15.8844475,25.7439938 15.9722291,25.5751593 C15.985209,25.5504752 15.985209,25.5504752 15.9990382,25.525274 C16.0758007,25.3867881 16.1790296,25.2343139 16.3018886,25.0748893 C16.4121104,24.9318631 16.5313466,24.7918208 16.650596,24.6615514 C16.7216084,24.5839767 16.7757849,24.5279702 16.8043689,24.4996776 C17.0052334,24.3008609 17.0118527,23.9716859 16.8191534,23.7644448 C16.6264541,23.5572036 16.3074076,23.5503742 16.1065431,23.749191 C16.066619,23.7887081 16.0009061,23.8566407 15.9177751,23.9474539 C15.7801188,24.097831 15.6424493,24.2595232 15.5128925,24.4276391 C15.360468,24.6254285 15.2289248,24.8197242 15.124025,25.0089719 C15.1036911,25.0460237 15.1036911,25.0460237 15.0839629,25.0835379 L15.528096,24.8093486 L1.918656,24.8093486 L2.36302145,25.0839853 C2.0625446,24.5047069 1.70136192,24.054704 1.3141752,23.723919 C1.09978282,23.5407573 0.782070216,23.5715922 0.604544246,23.7927907 C0.427018275,24.0139892 0.45690441,24.3417879 0.671296796,24.5249496 C0.959427321,24.771108 1.2365481,25.1163769 1.47429055,25.5747119 Z" id="Stroke-7"></path>
                    <path d="M14.0081998,2.3525875 C13.9427831,2.30158145 13.8583906,2.22445158 13.7709915,2.13414939 C13.56157,1.91777179 13.3755142,1.67005473 13.2698506,1.45676894 C13.0866165,1.0869041 13.1178018,1.03866896 13.8946595,1.03999928 C14.7211668,1.0415718 14.7390213,1.06981359 14.5354487,1.43622829 C14.4167848,1.64981407 14.2152028,1.89814487 13.9857107,2.12478391 C13.8929159,2.21642509 13.8023843,2.29744069 13.731009,2.35415597 C13.7037645,2.37580461 13.6824687,2.39133861 13.6716271,2.3982419 C13.724552,2.36454257 13.7573259,2.34907946 13.8728763,2.34747562 C14.0007398,2.34550606 13.9946454,2.34201903 14.0081998,2.3525875 Z M15.4099633,1.95342885 C16.0139024,0.866385663 15.4680621,0.00299106045 13.8964254,8.84129452e-07 C12.3858012,-0.00258598031 11.8360687,0.847697328 12.3723014,1.93010249 C12.7027778,2.59718114 13.4737261,3.39373748 13.8871776,3.38737066 C14.2510314,3.38232094 15.0599087,2.58349979 15.4099633,1.95342885 Z" id="Stroke-9"></path>
                    <path d="M5.36054704,17.5210237 C5.5351144,17.0363764 6.11520356,15.3192145 6.07039687,15.4494164 C6.93440857,12.9387214 7.56410424,12.0002629 8.611488,12.0002629 C9.72853016,12.0002629 10.3853474,12.890649 11.1804051,15.2686756 C11.3576188,15.7987237 12.0079541,17.8973256 12.0472495,18.020966 L12.389328,17.5338057 L4.832928,17.5338057 L5.16790798,18.0412856 C5.23149154,17.8746351 5.29528777,17.7022015 5.36054704,17.5210237 Z M4.30432492,18.2766629 L4.832928,18.2766629 L12.389328,18.2766629 L12.8862357,18.2766629 L12.7314065,17.7895026 C12.6943825,17.6730087 12.0414199,15.5659287 11.8610482,15.0264349 C10.9727146,12.3694191 10.1524081,11.2574057 8.611488,11.2574057 C7.11890725,11.2574057 6.35947392,12.3892171 5.39189565,15.2008617 C5.43444141,15.0772298 4.85718801,16.7859973 4.68564509,17.262248 C4.62193321,17.4391298 4.55977054,17.6071481 4.49794802,17.769183 L4.30432492,18.2766629 Z" id="Stroke-11"></path>
                    <path d="M10.57572,15.84492 C10.6614,15.8196629 10.75284,15.8642343 10.7802,15.9459486 C10.80684,16.02692 10.75932,16.1138343 10.67364,16.1390914 C10.58724,16.1643486 10.4958,16.1197771 10.46916,16.0380629 C10.4418,15.9570914 10.49004,15.8701771 10.57572,15.84492" id="Fill-13"></path>
                    <path d="M9.762048,15.6165657 C9.852048,15.5898229 9.947808,15.6373657 9.975888,15.7220514 C10.003968,15.8067371 9.954288,15.8973657 9.864288,15.9241086 C9.774288,15.9508514 9.678528,15.9033086 9.650448,15.8186229 C9.622368,15.7339371 9.672048,15.6433086 9.762048,15.6165657" id="Fill-15"></path>
                    <path d="M9.997128,16.5347371 C10.104408,16.5027943 10.218888,16.5592514 10.252728,16.6610229 C10.286568,16.7620514 10.226808,16.8705086 10.119528,16.9024514 C10.012248,16.9343943 9.897768,16.8779371 9.863928,16.7761657 C9.830088,16.6751371 9.889848,16.56668 9.997128,16.5347371" id="Fill-17"></path>
                    <polygon id="Stroke-19" points="17.116272 9.86893143 17.116272 9.12607429 0.376272 9.12607429 0.376272 9.86893143"></polygon>
                    <polygon id="Stroke-21" points="0.549072 20.2545943 0.549072 20.9974514 17.116272 20.9974514 17.116272 20.2545943"></polygon>
                </g>
            </g>
        </g>
    </g>
</svg>