<?xml version="1.0" encoding="UTF-8" standalone="no"?>
<svg width="52px" height="51px" viewBox="0 0 52 51" version="1.1" xmlns="http://www.w3.org/2000/svg" xmlns:xlink="http://www.w3.org/1999/xlink">
    <!-- Generator: Sketch 39.1 (31720) - http://www.bohemiancoding.com/sketch -->
    <title>ico_gaseosas_green</title>
    <desc>Created with Sketch.</desc>
    <defs></defs>
    <g id="supermercado_categoria" stroke="none" stroke-width="1" fill="none" fill-rule="evenodd">
        <g id="Subcategorias_bebidas" transform="translate(-77.000000, -136.000000)" fill="#44D481">
            <g id="icon01-copy-16" transform="translate(77.000000, 136.000000)">
                <g id="gaseosa_red" transform="translate(22.000000, 12.000000)">
                    <path d="M3.44966875,17.762 C3.44966875,17.8359051 3.38769587,17.896 3.31148125,17.896 C3.23526663,17.896 3.17329375,17.8359051 3.17329375,17.762 C3.17329375,17.6880949 3.23526663,17.628 3.31148125,17.628 C3.38769587,17.628 3.44966875,17.6880949 3.44966875,17.762 Z M2.48579375,17.762 C2.48579375,18.2040949 2.85557087,18.5626667 3.31148125,18.5626667 C3.76739163,18.5626667 4.13716875,18.2040949 4.13716875,17.762 C4.13716875,17.3199051 3.76739163,16.9613333 3.31148125,16.9613333 C2.85557087,16.9613333 2.48579375,17.3199051 2.48579375,17.762 Z" id="Stroke-1"></path>
                    <path d="M5.0359375,15.2038667 C5.0359375,15.1921201 5.04648005,15.1818667 5.0593125,15.1818667 C5.07214495,15.1818667 5.0826875,15.1921201 5.0826875,15.2038667 C5.0826875,15.2162872 5.07213688,15.2265333 5.0593125,15.2265333 C5.04648812,15.2265333 5.0359375,15.2162872 5.0359375,15.2038667 Z M4.3951875,15.2038667 C4.3951875,15.5598684 4.69199244,15.8485333 5.0593125,15.8485333 C5.42663256,15.8485333 5.7234375,15.5598684 5.7234375,15.2038667 C5.7234375,14.8483185 5.42641225,14.5598667 5.0593125,14.5598667 C4.69221275,14.5598667 4.3951875,14.8483185 4.3951875,15.2038667 Z" id="Stroke-3"></path>
                    <path d="M5.6238875,19.7812667 C5.6238875,19.9776117 5.4590234,20.1372667 5.256075,20.1372667 C5.0531266,20.1372667 4.8882625,19.9776117 4.8882625,19.7812667 C4.8882625,19.5843082 5.05307155,19.4246 5.256075,19.4246 C5.45907845,19.4246 5.6238875,19.5843082 5.6238875,19.7812667 Z M4.2007625,19.7812667 C4.2007625,20.346001 4.67363616,20.8039333 5.256075,20.8039333 C5.83851384,20.8039333 6.3113875,20.346001 6.3113875,19.7812667 C6.3113875,19.2160188 5.83867155,18.7579333 5.256075,18.7579333 C4.67347845,18.7579333 4.2007625,19.2160188 4.2007625,19.7812667 Z" id="Stroke-5"></path>
                    <path d="M8.38804433,7.25734642 C8.42939827,7.31337299 8.46304327,7.35863075 8.53785972,7.45903656 C9.9162253,9.30462586 10.229986,10.3982998 9.45911084,12.7609638 L9.43669375,12.9017333 L9.43669375,22.5284 C9.43669375,22.5815506 9.44605733,22.6343106 9.46438046,22.6844034 C10.0375452,24.251354 10.0132678,25.6574765 9.45120689,26.4378586 C9.15941304,26.8426578 8.73300833,27.0597333 8.23219375,27.0597333 C7.74550724,27.0597333 7.43868762,26.9297286 7.24651859,26.7253306 C7.06815258,26.5356141 6.7652547,26.5212301 6.56862578,26.6931389 C6.29898563,26.9288801 5.94643904,27.0597333 5.42306875,27.0597333 C4.89969846,27.0597333 4.54715187,26.9288801 4.27751172,26.6931389 C4.0808828,26.5212301 3.77798492,26.5356141 3.59961891,26.7253306 C3.40744988,26.9297286 3.10063026,27.0597333 2.61394375,27.0597333 C2.11312881,27.0597333 1.68654747,26.8426362 1.39390246,26.4373863 C0.83273407,25.6563099 0.808637624,24.2512302 1.38175704,22.6844034 C1.40008017,22.6343106 1.40944375,22.5815506 1.40944375,22.5284 L1.40944375,12.9017333 L1.38703577,12.7609917 C0.6488526,10.4980322 0.944893417,9.30353925 2.1497192,7.67213512 C2.19350216,7.61285045 2.22854754,7.56579371 2.30796475,7.45945619 C2.38309423,7.35863075 2.41673923,7.31337299 2.45809317,7.25734642 C3.30914537,6.10433563 3.65688125,5.3180795 3.65688125,4.0984 L3.17563125,4.56506667 L7.67050625,4.56506667 L7.18925625,4.0984 C7.18925625,5.3180795 7.53699213,6.10433563 8.38804433,7.25734642 Z M7.67050625,3.63173333 L3.17563125,3.63173333 C2.90984421,3.63173333 2.69438125,3.84066712 2.69438125,4.0984 C2.69438125,5.08525822 2.42032867,5.70491104 1.67541561,6.71412387 C1.63518462,6.76862906 1.6025345,6.81254855 1.52810972,6.9124301 C1.44850013,7.01902288 1.41229293,7.06763964 1.36718811,7.12871418 C-0.00090030873,8.98118541 -0.369846781,10.4698448 0.469351734,13.042475 L0.44694375,12.9017333 L0.44694375,22.5284 L0.474630455,22.3723966 C-0.192378007,24.1959026 -0.163102538,25.9029745 0.604824567,26.9718301 C1.07756393,27.6264739 1.79789402,27.9930667 2.61394375,27.9930667 C3.37000989,27.9930667 3.93543662,27.7534857 4.31089359,27.354136 L3.95525625,27.0397333 L3.63300078,27.3863277 C4.07978632,27.7769437 4.6620678,27.9930667 5.42306875,27.9930667 C6.1840697,27.9930667 6.76635118,27.7769437 7.21313672,27.3863277 L6.89088125,27.0397333 L6.53524391,27.354136 C6.91070088,27.7534857 7.47612761,27.9930667 8.23219375,27.9930667 C9.04842415,27.9930667 9.76885562,27.626307 10.2401982,26.9724237 C11.0091673,25.9047643 11.0386645,24.1963099 10.371507,22.3723966 L10.3991937,22.5284 L10.3991937,12.9017333 L10.3767767,13.0425029 C11.253857,10.3543296 10.8579588,8.97434949 9.31771475,6.91201048 C9.243603,6.81254855 9.21095288,6.76862906 9.17072189,6.71412387 C8.42580883,5.70491104 8.15175625,5.08525822 8.15175625,4.0984 C8.15175625,3.84066712 7.93629329,3.63173333 7.67050625,3.63173333 Z" id="Stroke-7"></path>
                    <path d="M9.9180125,13.4059333 C10.1078604,13.4059333 10.2617625,13.2566949 10.2617625,13.0726 C10.2617625,12.8885051 10.1078604,12.7392667 9.9180125,12.7392667 L0.806575,12.7392667 C0.616727117,12.7392667 0.462825,12.8885051 0.462825,13.0726 C0.462825,13.2566949 0.616727117,13.4059333 0.806575,13.4059333 L9.9180125,13.4059333 Z" id="Stroke-9"></path>
                    <path d="M9.68680625,22.8616 C9.87665413,22.8616 10.0305562,22.7123616 10.0305562,22.5282667 C10.0305562,22.3441718 9.87665413,22.1949333 9.68680625,22.1949333 L0.92805625,22.1949333 C0.738208367,22.1949333 0.58430625,22.3441718 0.58430625,22.5282667 C0.58430625,22.7123616 0.738208367,22.8616 0.92805625,22.8616 L9.68680625,22.8616 Z" id="Stroke-11"></path>
                    <path d="M6.493025,0.933333333 C6.82084787,0.933333333 7.1000875,1.21767364 7.1000875,1.57666667 L7.1000875,2.68733333 L7.5813375,2.22066667 L3.2274,2.22066667 L3.70865,2.68733333 L3.70865,1.57666667 C3.70865,1.21738928 3.98748888,0.933333333 4.3157125,0.933333333 L6.493025,0.933333333 Z M2.74615,1.57666667 L2.74615,2.68733333 C2.74615,2.94506622 2.96161296,3.154 3.2274,3.154 L7.5813375,3.154 C7.84712454,3.154 8.0625875,2.94506622 8.0625875,2.68733333 L8.0625875,1.57666667 C8.0625875,0.712134434 7.36322777,0 6.493025,0 L4.3157125,0 C3.44501026,0 2.74615,0.711935919 2.74615,1.57666667 Z" id="Stroke-13"></path>
                </g>
            </g>
        </g>
    </g>
</svg>