<?xml version="1.0" encoding="UTF-8" standalone="no"?>
<svg width="52px" height="51px" viewBox="0 0 52 51" version="1.1" xmlns="http://www.w3.org/2000/svg" xmlns:xlink="http://www.w3.org/1999/xlink">
    <!-- Generator: Sketch 39.1 (31720) - http://www.bohemiancoding.com/sketch -->
    <title>ico_teliquido_green</title>
    <desc>Created with Sketch.</desc>
    <defs></defs>
    <g id="supermercado_categoria" stroke="none" stroke-width="1" fill="none" fill-rule="evenodd">
        <g id="Subcategorias_bebidas" transform="translate(-201.000000, -136.000000)" fill="#44D481">
            <g id="icon01-copy-18" transform="translate(201.000000, 136.000000)">
                <g id="te_liquido_dgreen" transform="translate(19.000000, 11.000000)">
                    <path d="M11.511827,26.0374018 L11.994713,25.6153154 L3.77558261,25.6153154 L4.25677975,26.0256174 L1.71138844,9.7016943 C1.67014802,9.43721414 1.42127675,9.25608185 1.15551891,9.297124 C0.88976107,9.33816615 0.707753741,9.58584092 0.748994164,9.85032108 L3.29438547,26.1742442 C3.33120472,26.4103708 3.53547544,26.5845462 3.77558261,26.5845462 L11.994713,26.5845462 C12.239363,26.5845462 12.4460323,26.4038983 12.4775991,26.1624598 L14.6118599,9.83853671 C14.6465606,9.57312829 14.4584956,9.32997706 14.191805,9.29544324 C13.9251144,9.26090942 13.6807885,9.44807025 13.6460879,9.71347867 L11.511827,26.0374018 Z" id="Stroke-1"></path>
                    <path d="M0.486817391,7.8804 C0.217878731,7.8804 -0.000139130435,8.0973697 -0.000139130435,8.36501538 C-0.000139130435,8.63266107 0.217878731,8.84963077 0.486817391,8.84963077 L14.871513,8.84963077 C15.1404517,8.84963077 15.3584696,8.63266107 15.3584696,8.36501538 C15.3584696,8.0973697 15.1404517,7.8804 14.871513,7.8804 L0.486817391,7.8804 Z" id="Stroke-3"></path>
                    <path d="M6.02504348,12.9054462 C6.29398214,12.9054462 6.512,12.6884765 6.512,12.4208308 C6.512,12.1531851 6.29398214,11.9362154 6.02504348,11.9362154 L1.86782609,11.9362154 C1.59888743,11.9362154 1.38086957,12.1531851 1.38086957,12.4208308 C1.38086957,12.6884765 1.59888743,12.9054462 1.86782609,12.9054462 L6.02504348,12.9054462 Z" id="Stroke-5"></path>
                    <path d="M13.4504348,12.9054462 C13.7193734,12.9054462 13.9373913,12.6884765 13.9373913,12.4208308 C13.9373913,12.1531851 13.7193734,11.9362154 13.4504348,11.9362154 L9.78295652,11.9362154 C9.51401786,11.9362154 9.296,12.1531851 9.296,12.4208308 C9.296,12.6884765 9.51401786,12.9054462 9.78295652,12.9054462 L13.4504348,12.9054462 Z" id="Stroke-8"></path>
                    <path d="M6.30587826,22.5815538 C6.57481692,22.5815538 6.79283478,22.3645841 6.79283478,22.0969385 C6.79283478,21.8292928 6.57481692,21.6123231 6.30587826,21.6123231 L3.29231304,21.6123231 C3.02337438,21.6123231 2.80535652,21.8292928 2.80535652,22.0969385 C2.80535652,22.3645841 3.02337438,22.5815538 3.29231304,22.5815538 L6.30587826,22.5815538 Z" id="Stroke-9"></path>
                    <path d="M12.5099826,22.5815538 C12.7789213,22.5815538 12.9969391,22.3645841 12.9969391,22.0969385 C12.9969391,21.8292928 12.7789213,21.6123231 12.5099826,21.6123231 L9.61537391,21.6123231 C9.34643525,21.6123231 9.12841739,21.8292928 9.12841739,22.0969385 C9.12841739,22.3645841 9.34643525,22.5815538 9.61537391,22.5815538 L12.5099826,22.5815538 Z" id="Stroke-10"></path>
                    <path d="M12.2967126,0.721876725 C12.428343,0.488480396 12.3449314,0.193080764 12.1104075,0.0620831789 C11.8758837,-0.068914406 11.579057,0.0140961771 11.4474266,0.247492506 L8.14307875,6.10649251 C8.01144833,6.33988883 8.09485993,6.63528847 8.32938377,6.76628605 C8.56390762,6.89728364 8.86073431,6.81427305 8.99236473,6.58087672 L12.2967126,0.721876725 Z" id="Stroke-11"></path>
                    <path d="M7.28325929,14.7607084 C6.59688836,14.6454718 5.87269704,14.6528308 5.18755536,14.7337025 C4.99834802,14.7560359 4.85707184,14.7786551 4.77616663,14.7944176 C4.53225222,14.8419387 4.41568263,15.1213533 4.55404882,15.326829 C4.58099712,15.3668476 4.63021751,15.4432159 4.69421447,15.5481894 C4.80148738,15.7241479 4.90881835,15.9135342 5.00866166,16.1083122 C5.12369847,16.3327303 5.22103129,16.5494721 5.2949383,16.751615 C5.3633953,16.9388516 5.40986106,17.1086676 5.43181191,17.2556901 C5.56028695,18.116867 5.83062084,18.6615019 6.24688091,19.0063824 C6.24228296,19.0025711 6.3680903,19.1088767 6.41516455,19.1469704 C6.4996843,19.215366 6.58154796,19.2762127 6.67000498,19.3345818 C7.24085632,19.711263 7.92859564,19.8764075 8.80857694,19.7371347 C8.9982919,19.707109 9.12762797,19.5297133 9.09745714,19.3409104 C9.06728631,19.1521076 8.88903366,19.0233933 8.69931871,19.0534191 C7.99744271,19.1645035 7.48440845,19.0413103 7.05442903,18.7575847 C6.98638107,18.7126826 6.92216468,18.6649527 6.85404429,18.6098279 C6.8138513,18.5773026 6.6925775,18.4748278 6.69203526,18.4743783 C6.41847762,18.2477298 6.22490787,17.8577497 6.11991566,17.1539798 C6.0903938,16.9562482 6.03199673,16.7428274 5.9486607,16.5148952 C5.86411823,16.2836633 5.75546831,16.0417205 5.62833916,15.7937122 C5.52014723,15.5826474 5.40458332,15.378734 5.28896133,15.1890806 C5.21922135,15.0746869 5.16442413,14.9896658 5.13193379,14.9414172 L4.90981598,15.4738285 C4.97436336,15.461253 5.09857918,15.4413652 5.26949004,15.4211915 C5.89435475,15.3474347 6.55607762,15.3407104 7.16753555,15.4433696 C8.7919765,15.716101 9.5637203,16.6387396 9.15503085,18.5865212 C9.11576476,18.7736603 9.23637238,18.9570449 9.4244155,18.9961222 C9.61245863,19.0351995 9.79672915,18.9151717 9.83599524,18.7280326 C10.3321268,16.363509 9.27054165,15.0943581 7.28325929,14.7607084 Z" id="Stroke-13"></path>
                    <path d="M7.55641798,17.1029711 C7.85673304,17.376794 8.15710752,17.6792397 8.43660114,18.0005344 C9.05308654,18.7092216 9.47587397,19.403776 9.61959778,20.028519 C9.62861343,20.0677085 9.63649314,20.1065166 9.64322835,20.1449342 C9.67624569,20.3332647 9.85642112,20.4592996 10.0456614,20.426441 C10.2349018,20.3935824 10.3615455,20.2142732 10.3285282,20.0259427 C10.3196875,19.9755159 10.3094045,19.9248714 10.2977049,19.874015 C10.1236168,19.1172836 9.64685565,18.3340612 8.96254537,17.5474053 C8.66410177,17.2043264 8.34525782,16.8832839 8.02635444,16.5925125 C7.83432414,16.4174221 7.68382056,16.2904197 7.595316,16.2202446 C7.44507237,16.1011168 7.2262371,16.1257556 7.10653375,16.2752769 C6.98683039,16.4247982 7.01158819,16.6425814 7.16183182,16.7617092 C7.23845219,16.8224613 7.37691721,16.939305 7.55641798,17.1029711 Z" id="Stroke-15"></path>
                    <path d="M1.6845913,6.5187 L1.33676522,6.86485385 L14.1562435,6.86485385 L13.8084174,6.5187 L13.8084174,7.07531538 L14.5040696,7.07531538 L14.5040696,6.5187 C14.5040696,6.32752451 14.3483425,6.17254615 14.1562435,6.17254615 L1.33676522,6.17254615 C1.14466617,6.17254615 0.98893913,6.32752451 0.98893913,6.5187 L0.98893913,7.07531538 L1.6845913,7.07531538 L1.6845913,6.5187 Z" id="Stroke-17"></path>
                </g>
            </g>
        </g>
    </g>
</svg>