<?xml version="1.0" encoding="UTF-8" standalone="no"?>
<svg width="52px" height="51px" viewBox="0 0 52 51" version="1.1" xmlns="http://www.w3.org/2000/svg" xmlns:xlink="http://www.w3.org/1999/xlink">
    <!-- Generator: Sketch 39.1 (31720) - http://www.bohemiancoding.com/sketch -->
    <title>ico_refrescosenpolvo_grey</title>
    <desc>Created with Sketch.</desc>
    <defs></defs>
    <g id="supermercado_categoria" stroke="none" stroke-width="1" fill="none" fill-rule="evenodd">
        <g id="Subcategorias_bebidas" transform="translate(-201.000000, -75.000000)" fill="#D4D4D4">
            <g id="icon01-copy-11" transform="translate(201.000000, 75.000000)">
                <g id="refrescos_polvo_red" transform="translate(14.000000, 12.000000)">
                    <path d="M0.759712815,17.9707281 L0.979516847,18.7370615 L6.63330473,9.68600886 L6.55663738,9.78205143 L15.4914859,0.914919852 L14.7361122,0.903635432 L23.9012637,10.5552933 L23.9160835,9.80174874 L15.031235,18.4452751 L15.5813078,18.3276683 L14.1957017,17.818642 C14.1472581,17.8034174 13.8432167,17.6888272 13.8432167,17.6888272 L13.6617424,18.1907842 L14.1683487,18.0328766 L14.116076,17.8626924 L14.0531485,17.7279938 C14.0359518,17.7015328 14.026825,17.6726439 14.0259225,17.6406402 L14.0546646,16.7460502 C14.0640835,16.4429264 13.8214101,16.1927099 13.5203658,16.1951435 L12.2930931,16.2050646 L12.8231366,16.6696975 L12.58147,14.8159869 C12.5497575,14.5727357 12.3576463,14.3825152 12.1156637,14.3547651 L10.0793001,14.1212388 L10.5473878,14.6030436 L10.3670847,12.6302805 C10.3533686,12.4802073 10.2773645,12.3429522 10.1578099,12.2523533 L7.14265843,9.96745856 C6.72531848,9.65119655 6.15329581,10.0690338 6.32198832,10.5669218 L7.66138226,14.5200797 L7.9424637,13.8618155 L6.60079703,14.4807366 C6.34229827,14.599984 6.2231462,14.9033746 6.33068651,15.1685047 L6.79129257,16.3040836 L6.80659595,15.8657186 L5.78765656,17.9468502 L6.26019052,17.648951 L4.95034203,17.6565826 C4.66331731,17.6582549 4.42971,17.8896729 4.42324077,18.1787439 L4.37021047,20.5483491 L5.12940978,20.0785702 L0.759712815,17.9707281 Z M5.43054711,20.5724298 L5.48357741,18.2028245 L4.95647615,18.7249858 L6.26632463,18.7173542 C6.46711997,18.7161843 6.65003738,18.6008679 6.7388586,18.4194551 L7.75779799,16.3383235 C7.82496082,16.2011469 7.8305324,16.041549 7.77310137,15.8999585 L7.3124953,14.7643795 L7.04238479,15.4521477 L8.38405145,14.8332266 C8.63160161,14.7190298 8.75308106,14.4345373 8.66513289,14.1749624 L7.32573895,10.2218045 L6.50506884,10.8212678 L9.52022035,13.1061625 L9.31094557,12.7282353 L9.4912486,14.7009985 C9.51428258,14.9530219 9.70971045,15.1541767 9.95933628,15.1828033 L11.9956999,15.4163297 L11.5298937,14.9551078 L11.7715603,16.8088183 C11.806432,17.0763021 12.0338052,17.2756161 12.3016039,17.2734512 L13.5288766,17.2635302 L12.9945778,16.7126234 L12.9657899,17.6390971 C12.9722596,17.9020142 13.0419764,18.1226893 13.1657909,18.3132062 L13.6094697,18.0206 L13.1028634,18.1785076 L13.1551361,18.3486918 C13.2041532,18.5082765 13.3244527,18.6355755 13.4802681,18.6927412 L13.7257226,18.7827939 C13.7448622,18.7940396 13.8097362,18.8182441 13.8753857,18.8361551 L15.2179346,19.3314264 C15.4085289,19.4014446 15.6220756,19.3557878 15.7680074,19.2138197 L24.6528559,10.5702934 C24.8628245,10.3660278 24.8694482,10.0292318 24.6676757,9.81674878 L15.5025242,0.165090884 C15.2979637,-0.0503281226 14.9579621,-0.0554073591 14.7471505,0.153806463 L5.81230201,9.02093804 L5.73563467,9.11698061 L0.081846789,18.1680332 C-0.0869853524,18.4383137 0.0157367877,18.7964482 0.301650822,18.9343666 L4.67134779,21.0422088 C5.01867198,21.20975 5.42186771,20.9602597 5.43054711,20.5724298 Z" id="Stroke-1"></path>
                    <path d="M10.9705303,28.0558974 C10.9705303,27.6415026 11.3046212,27.30495 11.7159848,27.30495 C12.1281061,27.30495 12.462197,27.6415026 12.462197,28.0558974 C12.462197,28.4695289 12.1281061,28.8068447 11.7159848,28.8068447 C11.3046212,28.8068447 10.9705303,28.4695289 10.9705303,28.0558974" id="Fill-3"></path>
                    <path d="M13.0075758,26.5418684 C13.0075758,26.2129474 13.2734848,25.9450789 13.6007576,25.9450789 C13.9272727,25.9450789 14.1931818,26.2129474 14.1931818,26.5418684 C14.1931818,26.8715526 13.9272727,27.1386579 13.6007576,27.1386579 C13.2734848,27.1386579 13.0075758,26.8715526 13.0075758,26.5418684" id="Fill-6"></path>
                    <path d="M9.82712121,25.2229789 C9.82712121,24.8307158 10.1437879,24.5117158 10.5339394,24.5117158 C10.9248485,24.5117158 11.2415152,24.8307158 11.2415152,25.2229789 C11.2415152,25.6160053 10.9248485,25.9350053 10.5339394,25.9350053 C10.1437879,25.9350053 9.82712121,25.6160053 9.82712121,25.2229789" id="Fill-8"></path>
                    <path d="M11.8422727,24.7257816 C11.8422727,24.3335184 12.1589394,24.0145184 12.5490909,24.0145184 C12.94,24.0145184 13.2574242,24.3335184 13.2574242,24.7257816 C13.2574242,25.1188079 12.94,25.4378079 12.5490909,25.4378079 C12.1589394,25.4378079 11.8422727,25.1188079 11.8422727,24.7257816" id="Fill-10"></path>
                    <path d="M10.5574242,23.4127684 C10.5574242,23.0830842 10.8233333,22.8159789 11.1506061,22.8159789 C11.4778788,22.8159789 11.7430303,23.0830842 11.7430303,23.4127684 C11.7430303,23.7416895 11.4778788,24.0095579 11.1506061,24.0095579 C10.8233333,24.0095579 10.5574242,23.7416895 10.5574242,23.4127684" id="Fill-12"></path>
                    <path d="M13.5234091,22.9167921 C13.5234091,22.5878711 13.7893182,22.3200026 14.1165909,22.3200026 C14.4438636,22.3200026 14.7090152,22.5878711 14.7090152,22.9167921 C14.7090152,23.2464763 14.4438636,23.5135816 14.1165909,23.5135816 C13.7893182,23.5135816 13.5234091,23.2464763 13.5234091,22.9167921" id="Fill-14"></path>
                    <path d="M12.1766667,22.1108974 C12.1766667,21.82395 12.4084848,21.5911868 12.6940909,21.5911868 C12.9789394,21.5911868 13.2107576,21.82395 13.2107576,22.1108974 C13.2107576,22.3978447 12.9789394,22.6306079 12.6940909,22.6306079 C12.4084848,22.6306079 12.1766667,22.3978447 12.1766667,22.1108974" id="Fill-16"></path>
                    <path d="M10.2064394,21.7250447 C10.2064394,21.3533868 10.5064394,21.0519395 10.8753788,21.0519395 C11.2450758,21.0519395 11.5450758,21.3533868 11.5450758,21.7250447 C11.5450758,22.0967026 11.2450758,22.3989132 10.8753788,22.3989132 C10.5064394,22.3989132 10.2064394,22.0967026 10.2064394,21.7250447" id="Fill-18"></path>
                    <path d="M12.6818182,20.7235526 C12.6818182,20.3312895 12.9992424,20.0115263 13.3886364,20.0115263 C13.7795455,20.0115263 14.0962121,20.3312895 14.0962121,20.7235526 C14.0962121,21.1165789 13.7795455,21.4355789 13.3886364,21.4355789 C12.9992424,21.4355789 12.6818182,21.1165789 12.6818182,20.7235526" id="Fill-20"></path>
                    <path d="M11.8059848,19.3730684 C11.8059848,19.0441474 12.0718939,18.7762789 12.3991667,18.7762789 C12.7264394,18.7762789 12.9915909,19.0441474 12.9915909,19.3730684 C12.9915909,19.7027526 12.7264394,19.9698579 12.3991667,19.9698579 C12.0718939,19.9698579 11.8059848,19.7027526 11.8059848,19.3730684" id="Fill-22"></path>
                    <polygon id="Stroke-24" points="22.9122323 11.3304934 23.4479192 10.7908593 14.2562526 1.53146452 13.7205656 2.07109864"></polygon>
                </g>
            </g>
        </g>
    </g>
</svg>