<?xml version="1.0" encoding="UTF-8" standalone="no"?>
<svg width="52px" height="51px" viewBox="0 0 52 51" version="1.1" xmlns="http://www.w3.org/2000/svg" xmlns:xlink="http://www.w3.org/1999/xlink">
    <!-- Generator: Sketch 39.1 (31720) - http://www.bohemiancoding.com/sketch -->
    <title>ico_maltas_green</title>
    <desc>Created with Sketch.</desc>
    <defs></defs>
    <g id="supermercado_categoria" stroke="none" stroke-width="1" fill="none" fill-rule="evenodd">
        <g id="Subcategorias_bebidas" transform="translate(-139.000000, -136.000000)" fill="#44D481">
            <g id="icon01-copy-17" transform="translate(139.000000, 136.000000)">
                <g id="maltas_blue" transform="translate(19.000000, 6.000000)">
                    <path d="M5.29028759,10.3464692 C5.53367708,10.4630021 5.85963392,10.5290043 6.27993043,10.5290043 C6.6924582,10.5286539 7.03317854,10.4676074 7.30676661,10.3633074 C7.48695188,10.2946154 7.61020661,10.2190924 7.68164948,10.1562291 C7.82829525,10.027194 7.84658446,9.79896796 7.72249958,9.64647196 C7.59841469,9.49397595 7.37894413,9.47495711 7.23229835,9.60399219 C7.22214399,9.61292712 7.16963498,9.64510144 7.06732069,9.68410673 C6.87150233,9.75875857 6.61163863,9.80531806 6.27964626,9.80560012 C5.95518347,9.8056 5.72783597,9.75956496 5.58122546,9.68936908 C5.52118058,9.6606201 5.5059423,9.64723671 5.51647032,9.66310174 C5.40736464,9.49868672 5.19074552,9.45737815 5.03263799,9.57083645 C4.87453045,9.68429475 4.83480661,9.90955559 4.94391229,10.0739706 C5.00400553,10.1645271 5.11633246,10.263181 5.29028759,10.3464692 Z" id="Stroke-1"></path>
                    <path d="M9.44076497,10.667227 L8.98073043,10.8332681 L9.37614662,11.1288114 C9.54937829,10.8781784 9.64438261,10.5837882 9.64438261,10.2762468 C9.64333724,9.87985657 9.48703577,9.51006363 9.214452,9.2266055 L8.87012174,9.58467234 L9.35150972,9.66103388 C9.36158077,9.59237873 9.36681739,9.52359305 9.36681739,9.45445957 C9.36681739,8.61243981 8.63610071,7.9635234 7.77168696,7.9635234 L4.93944772,7.96497027 C4.07512455,7.96497021 3.34486968,8.61497945 3.34594826,9.45730406 C3.34594783,9.52218274 3.35059549,9.58689226 3.35926294,9.65449142 L3.84194783,9.58756596 L3.49694962,9.23019507 C3.22493086,9.5141663 3.06907826,9.8842025 3.06907826,10.2791404 C3.06907826,10.5857939 3.16394337,10.8797527 3.3367156,11.130837 L3.73273043,10.8361617 L3.27248477,10.6707546 C2.9340718,11.6890186 2.43642896,15.5343141 2.51113956,17.0138224 L2.6810536,16.6023176 C1.50763478,17.6451746 0.701797522,18.8402296 0.702469635,20.1430291 L0.707339191,30.3285411 C0.641775327,30.7902089 0.779649405,31.3707655 1.23524613,31.899056 C2.08806871,32.8883582 3.76447722,33.3326615 6.36604771,33.3311403 C8.96767839,33.3296187 10.6432944,32.8842781 11.4951297,31.8951846 C11.674551,31.6868526 11.6575934,31.366714 11.4572537,31.1801348 C11.256914,30.9935557 10.9490569,31.0111899 10.7696356,31.2195218 C10.1542567,31.9340581 8.71341406,32.3170013 6.36550003,32.3183745 C4.01778391,32.3197473 2.57657272,31.937779 1.96036796,31.2229613 C1.71027975,30.9329697 1.64324719,30.6507106 1.67672531,30.3971762 L1.67638255,20.1425057 C1.67590782,19.2223007 2.33964166,18.2379847 3.31379858,17.3722185 C3.42885597,17.2699631 3.4916494,17.1178874 3.48371262,16.9607138 C3.41547343,15.6093601 3.89624811,11.8944052 4.1929761,11.0015688 C4.24453014,10.8464459 4.22058957,10.6749607 4.12874527,10.5414864 C4.07174766,10.4586536 4.0429913,10.3695462 4.0429913,10.2791404 C4.0429913,10.1601796 4.09182331,10.0442393 4.18694604,9.94493685 C4.2937517,9.83343815 4.3446344,9.67663764 4.32463272,9.5206405 C4.31954786,9.21184198 4.58255475,8.97773617 4.93968696,8.97773617 L7.77192619,8.9762893 C8.12932724,8.97628936 8.39290435,9.21036026 8.39290435,9.45445957 C8.36537541,9.66754656 8.41626185,9.82884001 8.52579148,9.94273918 C8.62109513,10.0418448 8.67015511,10.1579156 8.6704714,10.277638 C8.67046957,10.3672115 8.64182986,10.4559575 8.58531425,10.5377247 C8.49285474,10.6714959 8.46875066,10.8436772 8.5206959,10.9993091 C8.8183275,11.891036 9.30091454,15.605622 9.23321494,16.9580504 C9.21923432,17.2373399 9.42562387,17.4755344 9.6941989,17.4900728 C9.96277392,17.5046111 10.1918305,17.2899879 10.2058111,17.0106985 C10.2799348,15.5299376 9.78037842,11.6847348 9.44076497,10.667227 Z" id="Stroke-3"></path>
                    <path d="M4.20793043,3.28468936 C4.20793043,3.34855397 4.15883943,3.39971064 4.09801739,3.39971064 C4.03719535,3.39971064 3.98810435,3.34855397 3.98810435,3.28468936 C3.98810435,3.22152123 4.03722099,3.17039149 4.09801739,3.17039149 C4.15881379,3.17039149 4.20793043,3.22152123 4.20793043,3.28468936 Z M3.29245217,3.28468936 C3.29245217,3.74773965 3.65267007,4.12311489 4.09801739,4.12311489 C4.54336471,4.12311489 4.90358261,3.74773965 4.90358261,3.28468936 C4.90358261,2.82216601 4.54317546,2.44698723 4.09801739,2.44698723 C3.65285932,2.44698723 3.29245217,2.82216601 3.29245217,3.28468936 Z" id="Stroke-5"></path>
                    <path d="M5.71568696,0.678553191 C5.71568696,0.653854452 5.73506617,0.633702128 5.75881739,0.633702128 C5.78256861,0.633702128 5.80194783,0.653854452 5.80194783,0.678553191 C5.80194783,0.703251931 5.78256861,0.723404255 5.75881739,0.723404255 C5.73506617,0.723404255 5.71568696,0.703251931 5.71568696,0.678553191 Z M5.10629565,0.678553191 C5.10629565,1.05337959 5.39837052,1.35710638 5.75881739,1.35710638 C6.11926426,1.35710638 6.41133913,1.05337959 6.41133913,0.678553191 C6.41133913,0.303726793 6.11926426,0 5.75881739,0 C5.39837052,0 5.10629565,0.303726793 5.10629565,0.678553191 Z" id="Stroke-7"></path>
                    <path d="M6.27346087,5.34183404 C6.27346087,5.53079289 6.12703127,5.68328085 5.9458087,5.68328085 C5.76458612,5.68328085 5.61815652,5.53079289 5.61815652,5.34183404 C5.61815652,5.15354437 5.76463816,5.00111064 5.9458087,5.00111064 C6.12697924,5.00111064 6.27346087,5.15354437 6.27346087,5.34183404 Z M4.92250435,5.34183404 C4.92250435,5.93008785 5.38016634,6.40668511 5.9458087,6.40668511 C6.51145105,6.40668511 6.96911304,5.93008785 6.96911304,5.34183404 C6.96911304,4.75413441 6.51128816,4.27770638 5.9458087,4.27770638 C5.38032923,4.27770638 4.92250435,4.75413441 4.92250435,5.34183404 Z" id="Stroke-9"></path>
                    <path d="M8.84606876,25.0508141 C8.52164464,24.8425355 8.10330435,25.0852181 8.10330435,25.4816979 L8.10330435,26.9285064 C8.10330435,27.8041701 8.53984872,28.6176699 9.25622574,29.0774968 L10.9306269,30.152454 L10.6994819,29.7196151 L10.6939167,31.2185087 L10.6995971,31.4935242 C10.7137846,32.1611201 11.6733913,32.1500951 11.6733913,31.4823362 L11.6733913,29.7215702 L11.6733913,28.5981234 L11.6733913,28.2747617 C11.6733913,27.3994095 11.2371297,26.5866851 10.5208342,26.1260053 L8.84606876,25.0508141 Z M10.6994783,28.2747617 L10.6994783,28.5981234 L10.6994783,29.7215702 L10.6994783,31.4823362 L11.1864348,31.4823362 L11.6732724,31.4711481 L11.6677072,31.2092758 L11.6733877,29.7235253 C11.6740422,29.5472426 11.5864892,29.383292 11.4422427,29.2906865 L9.76780789,28.2157077 C9.33875937,27.9403107 9.07721739,27.4529277 9.07721739,26.9285064 L9.07721739,25.4816979 L8.33445298,25.9125816 L10.0088878,26.9875604 C10.4380841,27.2635947 10.6994783,27.7505536 10.6994783,28.2747617 Z" id="Stroke-11"></path>
                    <path d="M12.0470957,28.5984128 L12.0470957,29.7218596 L12.0470957,31.4819021 L12.5340522,31.4819021 L13.0209808,31.4764866 L13.0181982,31.2059334 L13.0265652,29.7596046 L12.8019481,30.1832047 L14.4708177,29.0735025 C15.181019,28.6173686 15.6171826,27.8041334 15.6171826,26.9287957 L15.6171826,25.4819872 C15.6171826,25.0855075 15.1988423,24.8428248 14.8744182,25.0511035 L13.1999834,26.1260822 C12.4833467,26.5855175 12.0470957,27.3989158 12.0470957,28.2750511 L12.0470957,28.5984128 Z M13.7113407,26.9880156 L15.386034,25.912871 L14.6432696,25.4819872 L14.6432696,26.9287957 C14.6432696,27.453037 14.3819682,27.9402383 13.9525734,28.216065 L12.2772867,29.3299613 C12.1382073,29.4224411 12.0536546,29.581897 12.0526695,29.7535614 L12.0443217,31.2083273 L12.0471235,31.4873177 C12.0540302,32.1588558 13.0210087,32.1534786 13.0210087,31.4819021 L13.0210087,29.7218596 L13.0210087,28.5984128 L13.0210087,28.2750511 C13.0210087,27.7501607 13.2822221,27.2631232 13.7113407,26.9880156 Z" id="Stroke-13"></path>
                    <path d="M8.84606876,20.6593162 C8.52164464,20.4510376 8.10330435,20.6937202 8.10330435,21.0902 L8.10330435,22.5370085 C8.10330435,23.4126722 8.53984872,24.226172 9.25622574,24.685999 L10.9306269,25.7609561 C11.255051,25.9692348 11.6733913,25.7265521 11.6733913,25.3300723 L11.6733913,23.8832638 C11.6733913,23.0079116 11.2371297,22.1951872 10.5208342,21.7345074 L8.84606876,20.6593162 Z M10.6994783,23.8832638 L10.6994783,25.3300723 L11.4422427,24.8991886 L9.76780789,23.8242099 C9.33875937,23.5488129 9.07721739,23.0614298 9.07721739,22.5370085 L9.07721739,21.0902 L8.33445298,21.5210838 L10.0088878,22.5960625 C10.4380841,22.8720968 10.6994783,23.3590557 10.6994783,23.8832638 Z" id="Stroke-15"></path>
                    <path d="M12.0470957,25.330217 C12.0470957,25.7266968 12.4654359,25.9693794 12.7898601,25.7611008 L14.4642948,24.6861221 C15.181019,24.2257261 15.6171826,23.4124908 15.6171826,22.5371532 L15.6171826,21.0903447 C15.6171826,20.6938649 15.1988423,20.4511823 14.8744182,20.6594609 L13.1999834,21.7344396 C12.4833467,22.193875 12.0470957,23.0072733 12.0470957,23.8834085 L12.0470957,25.330217 Z M13.7113407,22.596373 L15.386034,21.5212284 L14.6432696,21.0903447 L14.6432696,22.5371532 C14.6432696,23.0613944 14.3819682,23.5485957 13.9525734,23.8244224 L12.2782443,24.8993333 L13.0210087,25.330217 L13.0210087,23.8834085 C13.0210087,23.3585181 13.2822221,22.8714807 13.7113407,22.596373 Z" id="Stroke-17"></path>
                    <path d="M8.84606876,16.1064269 C8.52164464,15.8981482 8.10330435,16.1408309 8.10330435,16.5373106 L8.10330435,17.9841191 C8.10330435,18.8597829 8.53984872,19.6732826 9.25622574,20.1331096 L10.9306269,21.2080667 C11.255051,21.4163454 11.6733913,21.1736627 11.6733913,20.777183 L11.6733913,19.3303745 C11.6733913,18.4547108 11.2368469,17.641211 10.5204699,17.181384 L8.84606876,16.1064269 Z M10.6994783,19.3303745 L10.6994783,20.777183 L11.4422427,20.3462992 L9.76780789,19.2713205 C9.33875937,18.9959235 9.07721739,18.5085404 9.07721739,17.9841191 L9.07721739,16.5373106 L8.33445298,16.9681944 L10.0088878,18.0431731 C10.4379363,18.3185701 10.6994783,18.8059532 10.6994783,19.3303745 Z" id="Stroke-19"></path>
                    <path d="M12.0470261,19.3303745 L12.0470261,20.777183 C12.0470261,21.1736627 12.4653664,21.4163454 12.7897905,21.2080667 L14.4642253,20.133088 C15.1808515,19.6721958 15.617113,18.8594714 15.617113,17.9841191 L15.617113,16.5373106 C15.617113,16.1408309 15.1987728,15.8981482 14.8743486,16.1064269 L13.1999139,17.1814056 C12.4829953,17.6419265 12.0470261,18.454551 12.0470261,19.3303745 Z M15.3859644,16.9681944 L14.6432,16.5373106 L14.6432,17.9841191 C14.6432,18.5083273 14.3818058,18.9952861 13.9522788,19.271533 L12.2781747,20.3462992 L13.0209391,20.777183 L13.0209391,19.3303745 C13.0209391,18.8056972 13.2820053,18.319083 13.7116353,18.0431052 L15.3859644,16.9681944 Z" id="Stroke-21"></path>
                </g>
            </g>
        </g>
    </g>
</svg>