<?xml version="1.0" encoding="UTF-8" standalone="no"?>
<svg width="52px" height="51px" viewBox="0 0 52 51" version="1.1" xmlns="http://www.w3.org/2000/svg" xmlns:xlink="http://www.w3.org/1999/xlink">
    <!-- Generator: Sketch 39.1 (31720) - http://www.bohemiancoding.com/sketch -->
    <title>ico_energeticas_green</title>
    <desc>Created with Sketch.</desc>
    <defs></defs>
    <g id="supermercado_categoria" stroke="none" stroke-width="1" fill="none" fill-rule="evenodd">
        <g id="Subcategorias_bebidas" transform="translate(-139.000000, -197.000000)" fill="#44D481">
            <g id="icon01-copy-24" transform="translate(139.000000, 197.000000)">
                <g id="energeticas_yellow" transform="translate(20.000000, 11.000000)">
                    <path d="M7.0336275e-05,8.56147118 C7.7292235e-05,8.5631915 7.22222222e-05,25.9387692 7.22222222e-05,25.9387692 C7.22222222e-05,26.2163277 0.226417154,26.4413333 0.505627778,26.4413333 L12.2482389,26.4413333 C12.5274495,26.4413333 12.7537944,26.2163277 12.7537944,25.9387692 L12.7537944,8.53138462 C12.7529348,8.41163692 12.7433474,8.22757472 12.7171277,8.00543424 C12.6845902,7.72976684 12.4334106,7.53251504 12.1561023,7.56486001 C11.878794,7.59720499 11.6803681,7.84689835 11.7129056,8.12256576 C11.7343526,8.30427143 11.7420985,8.45297846 11.7426966,8.53502629 L11.7426833,25.9387692 L12.2482389,25.4362051 L0.505627778,25.4362051 L1.01118333,25.9387692 L1.01118333,8.56082051 C1.01084903,8.46264769 1.01776918,8.30558486 1.0389734,8.1210287 C1.07065696,7.84526302 0.871458634,7.59617814 0.594051489,7.56468206 C0.316644343,7.53318598 0.0660768205,7.73120562 0.0343932632,8.0069713 C0.00820108452,8.23494141 -0.000380664726,8.42971637 7.0336275e-05,8.56147118 Z" id="Stroke-1"></path>
                    <path d="M11.98665,5.83010256 C12.2658606,5.83010256 12.4922056,5.60509695 12.4922056,5.32753846 C12.4922056,5.04997997 12.2658606,4.82497436 11.98665,4.82497436 L0.766927778,4.82497436 C0.487717154,4.82497436 0.261372222,5.04997997 0.261372222,5.32753846 C0.261372222,5.60509695 0.487717154,5.83010256 0.766927778,5.83010256 L11.98665,5.83010256 Z" id="Stroke-3"></path>
                    <path d="M0.430011111,7.16354872 C0.430011111,7.44110721 0.656356043,7.66611282 0.935566667,7.66611282 L11.8180111,7.66611282 C12.0972217,7.66611282 12.3235667,7.44110721 12.3235667,7.16354872 L12.3235667,6.61647179 C12.3235667,6.33891331 12.0972217,6.11390769 11.8180111,6.11390769 C11.5388005,6.11390769 11.3124556,6.33891331 11.3124556,6.61647179 L11.3124556,7.16354872 L11.8180111,6.66098462 L0.935566667,6.66098462 L1.44112222,7.16354872 L1.44112222,6.61647179 C1.44112222,6.33891331 1.21477729,6.11390769 0.935566667,6.11390769 C0.656356043,6.11390769 0.430011111,6.33891331 0.430011111,6.61647179 L0.430011111,7.16354872 Z" id="Stroke-5"></path>
                    <path d="M1.50745664,27.6563151 C1.5942867,27.8231933 1.76750188,27.9279897 1.9565,27.9279897 L10.7965,27.9279897 C10.9853277,27.9279897 11.1584164,27.8233803 11.2453254,27.6567336 C11.2589523,27.630902 11.2589523,27.630902 11.2734548,27.6045718 C11.3529987,27.4616168 11.4596864,27.3047184 11.5865579,27.1408453 C11.6999864,26.9943358 11.8226076,26.8509903 11.945231,26.7176676 C12.0182565,26.6382705 12.0740052,26.5809132 12.1035143,26.5518451 C12.3018444,26.3564788 12.3033044,26.0382762 12.1067752,25.8411196 C11.910246,25.643963 11.5901492,25.6425116 11.3918191,25.8378779 C11.3511096,25.877979 11.283976,25.9470498 11.1990098,26.0394295 C11.0583139,26.1924016 10.9176157,26.3568792 10.7852795,26.5278109 C10.6296258,26.7288605 10.4954251,26.9262203 10.3886767,27.1180666 C10.3678521,27.1558716 10.3678521,27.1558716 10.3476746,27.1941177 L10.7965,26.9228615 L1.9565,26.9228615 L2.40554336,27.1945362 C2.09951393,26.6063802 1.73108927,26.1493847 1.33538,25.8129383 C1.1231941,25.6325302 0.804063216,25.6572733 0.622581218,25.8682037 C0.441099219,26.0791341 0.465989651,26.3963766 0.678175552,26.5767847 C0.976086797,26.8300797 1.26222603,27.185008 1.50745664,27.6563151 Z" id="Stroke-7"></path>
                    <path d="M11.2788722,2.96986667 L1.47470556,2.96986667 C0.905476456,2.96986667 0.449872222,3.43711856 0.449872222,4.00586667 C0.449872222,4.28342516 0.676217154,4.50843077 0.955427778,4.50843077 C1.2346384,4.50843077 1.46098333,4.28342516 1.46098333,4.00586667 C1.46098333,3.98534355 1.47107403,3.97499487 1.47470556,3.97499487 L11.2788722,3.97499487 C11.2821408,3.97499487 11.2918722,3.98499431 11.2918722,4.00586667 C11.2918722,4.28342516 11.5182172,4.50843077 11.7974278,4.50843077 C12.0766384,4.50843077 12.3029833,4.28342516 12.3029833,4.00586667 C12.3029833,3.43718577 11.8481882,2.96986667 11.2788722,2.96986667 Z" id="Stroke-9"></path>
                    <path d="M9.2961962,2.40257841 C9.22851369,2.35001642 9.14138505,2.27070038 9.05119721,2.17788046 C8.83480156,1.95516943 8.64243611,1.70002271 8.53248623,1.47887922 C8.33198819,1.07561514 8.37841531,1.00412011 9.18064596,1.00541472 C10.0339883,1.00672618 10.0670523,1.0588243 9.84388028,1.45892473 C9.7205408,1.68004638 9.51232532,1.93557137 9.27545438,2.1686193 C9.17983051,2.26269985 9.08652728,2.34588232 9.01288456,2.40417751 C8.98463924,2.42653636 8.96249012,2.44263076 8.95105765,2.44988145 C9.00541783,2.41540521 9.03854199,2.39984458 9.15820408,2.3982794 C9.29016608,2.39636663 9.28276921,2.39215106 9.2961962,2.40257841 Z M10.7281503,1.94634194 C11.3333498,0.861346867 10.7884462,0.00275625806 9.18224825,0.000287780074 C7.63863743,-0.00220325557 7.08903831,0.844147051 7.62604432,1.9242336 C7.96233484,2.60061869 8.74823486,3.40945475 9.17222439,3.40331071 C9.545676,3.39842646 10.3712648,2.58616235 10.7281503,1.94634194 Z" id="Stroke-11"></path>
                    <path d="M12.4239556,12.0077641 C12.6233917,12.0077641 12.7850667,11.8470458 12.7850667,11.6487897 C12.7850667,11.4505337 12.6233917,11.2898154 12.4239556,11.2898154 L0.566511111,11.2898154 C0.367074951,11.2898154 0.2054,11.4505337 0.2054,11.6487897 C0.2054,11.8470458 0.367074951,12.0077641 0.566511111,12.0077641 L12.4239556,12.0077641 Z" id="Stroke-13"></path>
                    <path d="M11.8050111,22.3768103 C12.0044473,22.3768103 12.1661222,22.216092 12.1661222,22.0178359 C12.1661222,21.8195798 12.0044473,21.6588615 11.8050111,21.6588615 L0.743455556,21.6588615 C0.544019396,21.6588615 0.382344444,21.8195798 0.382344444,22.0178359 C0.382344444,22.216092 0.544019396,22.3768103 0.743455556,22.3768103 L11.8050111,22.3768103 Z" id="Stroke-15"></path>
                    <path d="M4.33002898,17.2275186 C4.22266496,17.4650479 4.39746082,17.7336205 4.65941667,17.7336205 L6.13925,17.7336205 L5.77910671,17.3483819 L5.58916227,19.9222281 C5.5608846,20.3054051 6.0761766,20.458954 6.26459733,20.123497 L8.38937511,16.3406252 C8.5219479,16.1045978 8.35443757,15.813103 8.0825759,15.8067454 L6.39402034,15.7672583 L6.74449664,16.0870899 L6.51699664,14.0201155 C6.47697284,13.6564752 5.97946191,13.5783572 5.8286401,13.9120314 L4.33002898,17.2275186 Z M5.79905892,14.0982024 L6.02655892,16.1651768 C6.04624486,16.3440354 6.1960883,16.4807769 6.37703521,16.4850084 L8.06559077,16.5244956 L7.75879156,15.9906158 L5.63401378,19.7734876 L6.30944884,19.9747565 L6.49939329,17.4009104 C6.5147464,17.1928678 6.34909334,17.0156718 6.13925,17.0156718 L4.65941667,17.0156718 L4.98880435,17.5217737 L6.48741546,14.2062866 L5.79905892,14.0982024 Z" id="Stroke-17"></path>
                </g>
            </g>
        </g>
    </g>
</svg>