<?xml version="1.0" encoding="UTF-8" standalone="no"?>
<svg width="52px" height="51px" viewBox="0 0 52 51" version="1.1" xmlns="http://www.w3.org/2000/svg" xmlns:xlink="http://www.w3.org/1999/xlink">
    <!-- Generator: Sketch 39.1 (31720) - http://www.bohemiancoding.com/sketch -->
    <title>ico_TODASbebidastodas_grey</title>
    <desc>Created with Sketch.</desc>
    <defs></defs>
    <g id="supermercado_categoria" stroke="none" stroke-width="1" fill="none" fill-rule="evenodd">
        <g id="Subcategorias_bebidas" transform="translate(-15.000000, -14.000000)" fill="#D4D4D4">
            <g id="icon01" transform="translate(15.000000, 14.000000)">
                <g id="bebidas_red" transform="translate(21.000000, 11.000000)">
                    <path d="M0.00646517407,8.15234895 C0.00647154713,8.15397452 0.00646666667,24.6853385 0.00646666667,24.6853385 C0.00646666667,24.9529841 0.21540045,25.1699538 0.473133333,25.1699538 L11.5311333,25.1699538 C11.7888662,25.1699538 11.9978,24.9529841 11.9978,24.6853385 L11.9978,8.12395385 C11.9974015,8.0100908 11.9886661,7.83329467 11.9637197,7.62029143 C11.9326031,7.35460353 11.6999727,7.16541612 11.4441251,7.19772951 C11.1882775,7.2300429 11.006097,7.47162068 11.0372136,7.73730857 C11.0572673,7.9085361 11.0641985,8.04881689 11.0644698,8.12572898 L11.0644667,24.6853385 L11.5311333,24.2007231 L0.473133333,24.2007231 L0.9398,24.6853385 L0.9398,8.15164615 C0.939494763,8.05919782 0.945993821,7.91055981 0.965904338,7.73571018 C0.996170866,7.46991641 0.813218623,7.22896843 0.557269065,7.1975378 C0.301319507,7.16610718 0.0692955244,7.35609605 0.0390289956,7.62188982 C0.0141907121,7.84001397 0.00604657052,8.02627619 0.00646517407,8.15234895 Z" id="Stroke-1"></path>
                    <path d="M11.2852667,5.55985385 C11.5429995,5.55985385 11.7519333,5.34288415 11.7519333,5.07523846 C11.7519333,4.80759278 11.5429995,4.59062308 11.2852667,4.59062308 L0.719266667,4.59062308 C0.461533783,4.59062308 0.2526,4.80759278 0.2526,5.07523846 C0.2526,5.34288415 0.461533783,5.55985385 0.719266667,5.55985385 L11.2852667,5.55985385 Z" id="Stroke-3"></path>
                    <path d="M0.4114,6.82220769 C0.4114,7.08985338 0.620333783,7.30682308 0.878066667,7.30682308 L11.1267333,7.30682308 C11.3844662,7.30682308 11.5934,7.08985338 11.5934,6.82220769 L11.5934,6.30159231 C11.5934,6.03394662 11.3844662,5.81697692 11.1267333,5.81697692 C10.8690005,5.81697692 10.6600667,6.03394662 10.6600667,6.30159231 L10.6600667,6.82220769 L11.1267333,6.33759231 L0.878066667,6.33759231 L1.34473333,6.82220769 L1.34473333,6.30159231 C1.34473333,6.03394662 1.13579955,5.81697692 0.878066667,5.81697692 C0.620333783,5.81697692 0.4114,6.03394662 0.4114,6.30159231 L0.4114,6.82220769 Z" id="Stroke-5"></path>
                    <path d="M1.42831009,26.3283116 C1.50950516,26.485933 1.66766374,26.5843385 1.8398,26.5843385 L10.1644667,26.5843385 C10.3364461,26.5843385 10.4944872,26.4861105 10.5757503,26.3287116 C10.5882957,26.304684 10.5882957,26.304684 10.6016435,26.2801806 C10.676318,26.1444608 10.7766524,25.9952796 10.8960347,25.8394019 C11.0027913,25.7000095 11.1182309,25.5635956 11.2336826,25.4367122 C11.302455,25.3611302 11.3549658,25.3065208 11.3827706,25.2788363 C11.5688076,25.0936041 11.5750215,24.7868304 11.3966497,24.5936382 C11.218278,24.4004459 10.9228663,24.3939931 10.7368294,24.5792253 C10.698509,24.6173799 10.6353007,24.6831142 10.5552914,24.7710458 C10.4227735,24.9166852 10.2902436,25.0732946 10.165562,25.2360917 C10.0187063,25.4278415 9.89206871,25.6161313 9.79126371,25.799343 C9.77193289,25.8348267 9.77193289,25.8348267 9.75318304,25.8707345 L10.1644667,25.6151077 L1.8398,25.6151077 L2.25128991,25.8711345 C1.96228668,25.3101017 1.61453281,24.8743981 1.24217981,24.5552695 C1.04340244,24.3849055 0.749269294,24.4141368 0.585215054,24.6205594 C0.421160814,24.8269821 0.449309478,25.132428 0.648086855,25.3027921 C0.928098116,25.5427783 1.19759703,25.8804357 1.42831009,26.3283116 Z" id="Stroke-7"></path>
                    <path d="M10.6189333,2.82565385 L1.38626667,2.82565385 C0.858603076,2.82565385 0.430266667,3.26962784 0.430266667,3.81773077 C0.430266667,4.08537646 0.63920045,4.30234615 0.896933333,4.30234615 C1.15466622,4.30234615 1.3636,4.08537646 1.3636,3.81773077 C1.3636,3.80532824 1.37367578,3.79488462 1.38626667,3.79488462 L10.6189333,3.79488462 C10.6305383,3.79488462 10.6402667,3.80499671 10.6402667,3.81773077 C10.6402667,4.08537646 10.8492005,4.30234615 11.1069333,4.30234615 C11.3646662,4.30234615 11.5736,4.08537646 11.5736,3.81773077 C11.5736,3.26990982 11.1462012,2.82565385 10.6189333,2.82565385 Z" id="Stroke-9"></path>
                    <path d="M11.7985082,13.6994392 C11.9934937,13.5244133 12.0149293,13.2183803 11.8463859,13.0158953 C11.6778424,12.8134104 11.383144,12.7911504 11.1881585,12.9661762 L0.161491817,22.8640993 C-0.0334937113,23.0391252 -0.0549292787,23.3451581 0.113614137,23.5476431 C0.282157553,23.7501281 0.576855989,23.7723881 0.771841517,23.5973622 L11.7985082,13.6994392 Z" id="Stroke-11"></path>
                    <path d="M11.798496,8.49025013 C11.9934873,8.31523128 12.0149331,8.00919906 11.8463964,7.80670804 C11.6778598,7.60421701 11.3831621,7.5819464 11.1881707,7.75696525 L0.161504034,17.654196 C-0.033487326,17.8292149 -0.0549330915,18.1352471 0.113603576,18.3377381 C0.282140244,18.5402291 0.576837938,18.5624997 0.771829299,18.3874809 L11.798496,8.49025013 Z" id="Stroke-13"></path>
                    <path d="M8.73965657,2.28249407 C8.67566469,2.23229036 8.5934561,2.15668711 8.50841039,2.06826319 C8.30477563,1.85653957 8.12384562,1.61410857 8.02074945,1.40464889 C7.83680503,1.03093043 7.87730891,0.967896791 8.64239083,0.969160925 C9.45528476,0.97065351 9.48299017,1.01477693 9.27835109,1.38550039 C9.16264347,1.59511592 8.96679149,1.83798489 8.74387869,2.05960764 C8.65377507,2.14918982 8.56581593,2.22843879 8.49629994,2.28405867 C8.46948829,2.30551072 8.44838722,2.3210105 8.4372614,2.32814526 C8.48536269,2.29729893 8.51491959,2.28325221 8.62176602,2.28181743 C8.73874872,2.28008153 8.730607,2.27539439 8.73965657,2.28249407 Z M10.0880822,1.86751499 C10.6634041,0.825263827 10.1469049,0.00269112873 8.64395846,-6.84732543e-05 C7.19958842,-0.00245499274 6.67885678,0.807926855 7.18968388,1.84577035 C7.50560487,2.48762459 8.2453279,3.25673118 8.63446599,3.25095825 C8.97650561,3.24636566 9.7532249,2.47414141 10.0880822,1.86751499 Z" id="Stroke-15"></path>
                </g>
            </g>
        </g>
    </g>
</svg>