<?xml version="1.0" encoding="UTF-8" standalone="no"?>
<svg width="52px" height="51px" viewBox="0 0 52 51" version="1.1" xmlns="http://www.w3.org/2000/svg" xmlns:xlink="http://www.w3.org/1999/xlink">
    <!-- Generator: Sketch 39.1 (31720) - http://www.bohemiancoding.com/sketch -->
    <title>ico_bebidas_grey</title>
    <desc>Created with Sketch.</desc>
    <defs></defs>
    <g id="supermercado_categoria" stroke="none" stroke-width="1" fill="none" fill-rule="evenodd">
        <g id="Subcategorias_bebidas" transform="translate(-387.000000, -75.000000)" fill="#D4D4D4">
            <g id="icon01-copy-14" transform="translate(387.000000, 75.000000)">
                <g id="hidratantes_lgreen" transform="translate(20.000000, 12.000000)">
                    <path d="M11.261875,17.4072236 L11.4465765,17.80395 L11.4465765,11.1837 L11.2633226,11.5791914 L12.226852,10.7541914 C12.4420992,10.5694726 12.5699294,10.2992743 12.5699294,10.01595 L12.5699294,8.57745 C12.5699294,8.47845929 12.5670231,8.43570296 12.5363422,8.34543042 L12.0285176,8.51145 L12.557734,8.43256147 C12.3937081,7.37412324 12.0291732,6.66558223 11.130321,5.3432324 C10.7885607,4.83516283 10.6523411,4.6228574 10.5097792,4.36169315 C10.3083026,3.99260087 10.1933673,3.67704945 10.1539373,3.36676907 L9.62275294,3.4317 L9.62275294,3.9567 L9.92328235,3.9567 C10.4706318,3.9567 10.9189294,3.51752597 10.9189294,2.9802 L10.9189294,0.9762 C10.9189294,0.439500506 10.4705054,-0.0003 9.92328235,-0.0003 L3.40645882,-0.0003 C2.85987424,-0.0003 2.41081176,0.439623889 2.41081176,0.9762 L2.41081176,2.9742 C2.41081176,3.51077611 2.85987424,3.9507 3.40645882,3.9507 L3.72610588,3.9507 L3.72610588,3.4257 L3.19342226,3.37391431 C3.14426862,3.86026432 2.91989286,4.32245609 2.44697511,4.98681114 C2.3591071,5.11024816 2.28959015,5.20484767 2.11489443,5.4402589 C2.0823965,5.48389738 2.0823965,5.48389738 2.04918366,5.5285374 C1.0912208,6.81674534 0.726381982,7.55061324 0.767078452,8.60334092 L0.766694118,10.01595 C0.766694118,10.301025 0.889095319,10.5646165 1.10911009,10.7536241 L2.07976156,11.5801372 L1.8954,11.1837 L1.8954,17.80995 L2.07994358,17.4133579 L1.11106122,18.2376079 C0.894533106,18.4219859 0.766694118,18.6935715 0.766694118,18.97695 L0.766694118,26.0187 C0.766694118,26.5553995 1.21511816,26.9952 1.76234118,26.9952 L11.5804,26.9952 C12.127623,26.9952 12.5760471,26.5553995 12.5760471,26.0187 L12.5760471,18.97095 C12.5760471,18.6871298 12.4533509,18.4234134 12.2350916,18.2345351 L11.261875,17.4072236 Z M11.5054588,18.97095 L11.5054588,26.0187 C11.5054588,25.9755005 11.5363535,25.9452 11.5804,25.9452 L1.76234118,25.9452 C1.80638772,25.9452 1.83728235,25.9755005 1.83728235,26.0187 L1.83728235,18.97695 C1.83728235,18.9995439 1.82927029,19.016565 1.81274997,19.0306324 L2.78144466,18.2065421 C2.89865889,18.1068254 2.96598824,17.9621317 2.96598824,17.80995 L2.96598824,11.1837 C2.96598824,11.0316008 2.89873159,10.8869772 2.78162668,10.7872628 L1.81274432,9.96226278 C1.82610399,9.97373293 1.83728235,9.99780557 1.83728235,10.01595 L1.83728235,8.58345 C1.80829492,7.82366026 2.09221682,7.25255557 2.91415598,6.14726369 C2.94699802,6.10312204 2.94699802,6.10312204 2.97997686,6.05883651 C3.15944237,5.81699896 3.2314865,5.71896041 3.32479513,5.58788041 C3.89361332,4.78880439 4.18742745,4.18357647 4.2587895,3.47748569 C4.29000949,3.16857993 4.04261214,2.9007 3.72610588,2.9007 L3.40645882,2.9007 C3.45087023,2.9007 3.4814,2.93060848 3.4814,2.9742 L3.4814,0.9762 C3.4814,1.01979152 3.45087023,1.0497 3.40645882,1.0497 L9.92328235,1.0497 C9.87923581,1.0497 9.84834118,1.01939949 9.84834118,0.9762 L9.84834118,2.9802 C9.84834118,2.93735803 9.87963611,2.9067 9.92328235,2.9067 L9.62275294,2.9067 C9.30085181,2.9067 9.05175652,3.18334411 9.09156859,3.49663093 C9.1491066,3.9494056 9.30701715,4.38294445 9.56594307,4.85728018 C9.729463,5.15683824 9.87630671,5.38570177 10.2381151,5.92356365 C11.0557033,7.1263726 11.3658513,7.72920269 11.4993013,8.59033853 L11.5206931,8.67746958 C11.5002083,8.61719704 11.4993412,8.60444071 11.4993412,8.57745 L11.4993412,10.01595 C11.4993412,9.99319896 11.507213,9.97656002 11.5223181,9.96359724 L10.5592421,10.7882086 C10.4428027,10.8879072 10.3759882,11.0321036 10.3759882,11.1837 L10.3759882,17.80395 C10.3759882,17.9562032 10.4433807,18.1009577 10.5606897,18.2006764 L11.5303368,19.0249264 C11.5159113,19.0124703 11.5054588,18.9900043 11.5054588,18.97095 Z" id="Stroke-1"></path>
                    <path d="M10.2366429,3.64897223 C10.4478091,3.64976786 10.6196507,3.48252086 10.6204619,3.2754156 C10.6212731,3.06831035 10.4507468,2.89977339 10.2395806,2.89897777 L3.07352179,2.87197777 C2.86235565,2.87118214 2.69051405,3.03842914 2.68970282,3.2455344 C2.6888916,3.45263965 2.85941795,3.62117661 3.07058409,3.62197223 L10.2366429,3.64897223 Z" id="Stroke-3"></path>
                    <path d="M5.64011738,14.0533703 C5.40707276,14.2885507 5.57239641,14.6831309 5.90671014,14.6896509 L7.63723955,14.7234009 L7.37203392,14.0857277 L5.86938686,15.5864777 C5.72143023,15.7342476 5.72362765,15.9716747 5.87429494,16.116786 C6.02496222,16.2618973 6.26704474,16.2597421 6.41500138,16.1119723 L7.91764843,14.6112223 C8.15259841,14.3765689 7.98770347,13.9800876 7.6524428,13.9735491 L5.92191339,13.9397991 L6.18850615,14.5760797 L7.50915321,13.2433297 C7.65632565,13.0948085 7.65287149,12.8573958 7.50143811,12.7130536 C7.35000474,12.5687114 7.10793689,12.5720991 6.96076444,12.7206203 L5.64011738,14.0533703 Z" id="Stroke-5"></path>
                    <path d="M2.75408824,25.014225 C2.75408824,25.2213318 2.92527348,25.389225 3.13644118,25.389225 C3.34760887,25.389225 3.51879412,25.2213318 3.51879412,25.014225 L3.51879412,19.547475 C3.51879412,19.3403682 3.34760887,19.172475 3.13644118,19.172475 C2.92527348,19.172475 2.75408824,19.3403682 2.75408824,19.547475 L2.75408824,25.014225 Z" id="Stroke-7"></path>
                </g>
            </g>
        </g>
    </g>
</svg>