<?xml version="1.0" encoding="UTF-8" standalone="no"?>
<svg width="52px" height="51px" viewBox="0 0 52 51" version="1.1" xmlns="http://www.w3.org/2000/svg" xmlns:xlink="http://www.w3.org/1999/xlink">
    <!-- Generator: Sketch 39.1 (31720) - http://www.bohemiancoding.com/sketch -->
    <title>ico_aromaticasyte_grey</title>
    <desc>Created with Sketch.</desc>
    <defs>
        <polygon id="path-1" points="0 26.495025 20.77875 26.495025 20.77875 -0.000225 0 -0.000225"></polygon>
    </defs>
    <g id="supermercado_categoria" stroke="none" stroke-width="1" fill="none" fill-rule="evenodd">
        <g id="Subcategorias_bebidas" transform="translate(-263.000000, -75.000000)">
            <g id="icon01-copy-12" transform="translate(263.000000, 75.000000)">
                <g id="aromaticas_te_dgreen" transform="translate(16.000000, 12.000000)">
                    <path d="M0,7.6686 L4.71525,24.1026 L14.499,24.1026 L19.215,7.6686 L0,7.6686 Z M1.3935,8.7186 L17.82225,8.7186 L13.70775,23.0526 L5.5065,23.0526 L1.3935,8.7186 Z" id="Fill-1" fill="#D4D4D4"></path>
                    <polygon id="Fill-2" fill="#D4D4D4" points="17.73225 10.812075 17.73225 11.862075 19.728 11.862075 19.728 17.871825 15.71475 17.871825 15.71475 18.921825 20.77875 18.921825 20.77875 10.812075"></polygon>
                    <path d="M7.315425,6.6852 L7.060425,5.6667 C7.253925,5.61795 7.717425,5.22195 7.719675,4.52895 C7.719675,4.4487 7.645425,4.23645 7.369425,3.9612 C6.624675,3.21645 5.987175,2.3802 6.367425,1.3137 C6.719925,0.3237 7.518675,-0.11055 8.720925,0.02445 L8.807925,0.03345 L8.791425,0.39795 L8.957925,1.0647 C8.839425,1.09395 8.735925,1.08195 8.605425,1.0677 C7.972425,0.99795 7.568175,1.07295 7.356675,1.6662 C7.223925,2.03895 7.304925,2.4117 8.111925,3.21795 C8.535675,3.64095 8.769675,4.10745 8.769675,4.53045 C8.766675,5.65245 8.027175,6.5067 7.315425,6.6852 L7.315425,6.6852 Z" id="Fill-3" fill="#D4D4D4"></path>
                    <path d="M10.997325,6.6852 L10.742325,5.6667 C10.935825,5.61795 11.399325,5.22195 11.401575,4.52895 C11.401575,4.44795 11.328075,4.2357 11.052075,3.9612 C10.305825,3.21645 9.669075,2.38095 10.050825,1.31295 C10.401825,0.3252 11.184825,-0.11205 12.402825,0.02445 L12.490575,0.03345 L12.474075,0.39645 L12.639075,1.06545 C12.523575,1.0932 12.419325,1.0827 12.287325,1.0677 C11.651325,0.99795 11.250075,1.07445 11.040825,1.66545 C10.906575,2.0397 10.986825,2.41245 11.793825,3.2172 C12.217575,3.63945 12.451575,4.1067 12.451575,4.53045 C12.448575,5.6532 11.709075,6.50745 10.997325,6.6852" id="Fill-5" fill="#D4D4D4"></path>
                    <path d="M5.90115,17.221125 L8.86365,17.221125 L8.86365,13.666125 L7.4334,12.265875 L5.90115,13.708125 L5.90115,17.221125 Z M9.23865,17.971125 L5.52615,17.971125 C5.31915,17.971125 5.15115,17.803125 5.15115,17.596125 L5.15115,13.546125 C5.15115,13.442625 5.1939,13.344375 5.2689,13.273125 L7.06365,11.584125 L7.06365,8.033625 C7.06365,7.826625 7.2309,7.658625 7.43865,7.658625 C7.64565,7.658625 7.81365,7.826625 7.81365,8.033625 L7.81365,11.587875 L9.50115,13.240125 C9.57315,13.311375 9.61365,13.408125 9.61365,13.508625 L9.61365,17.596125 C9.61365,17.803125 9.4464,17.971125 9.23865,17.971125 L9.23865,17.971125 Z" id="Fill-7" fill="#D4D4D4"></path>
                    <mask id="mask-2" fill="white">
                        <use xlink:href="#path-1"></use>
                    </mask>
                    <g id="Clip-10"></g>
                    <polygon id="Fill-9" fill="#D4D4D4" mask="url(#mask-2)" points="0.213 26.495025 18.12975 26.495025 18.12975 25.445025 0.213 25.445025"></polygon>
                </g>
            </g>
        </g>
    </g>
</svg>