<?xml version="1.0" encoding="UTF-8" standalone="no"?>
<svg width="52px" height="51px" viewBox="0 0 52 51" version="1.1" xmlns="http://www.w3.org/2000/svg" xmlns:xlink="http://www.w3.org/1999/xlink">
    <!-- Generator: Sketch 39.1 (31720) - http://www.bohemiancoding.com/sketch -->
    <title>ico_cafe_grey</title>
    <desc>Created with Sketch.</desc>
    <defs>
        <polygon id="path-1" points="0 19.9815172 21.5875 19.9815172 21.5875 0.000137931034 0 0.000137931034"></polygon>
    </defs>
    <g id="supermercado_categoria" stroke="none" stroke-width="1" fill="none" fill-rule="evenodd">
        <g id="Subcategorias_bebidas" transform="translate(-387.000000, -14.000000)">
            <g id="icon01-copy-6" transform="translate(387.000000, 14.000000)">
                <g id="cafe_bebidas_red" transform="translate(16.000000, 15.000000)">
                    <path d="M0.9681375,7.72062069 C1.0575125,11.7033793 2.3170125,17.8144138 9.1947625,17.8144138 C15.582325,17.8144138 17.0907,12.4378621 17.1835125,7.72062069 L0.9681375,7.72062069 L0.9681375,7.72062069 Z M9.1947625,18.779931 C0.8966375,18.779931 0.0001375,10.7082069 0.0001375,7.23786207 L0.0001375,6.75510345 L18.150825,6.75510345 L18.150825,7.23786207 C18.150825,14.6806207 14.9697625,18.779931 9.1947625,18.779931 L9.1947625,18.779931 Z" id="Fill-1" fill="#D4D4D4"></path>
                    <mask id="mask-2" fill="white">
                        <use xlink:href="#path-1"></use>
                    </mask>
                    <g id="Clip-4"></g>
                    <polygon id="Fill-3" fill="#D4D4D4" mask="url(#mask-2)" points="0.8635 19.9815172 17.2871875 19.9815172 17.2871875 19.016 0.8635 19.016"></polygon>
                    <path d="M19.1969938,10.7856552 C18.4091188,10.7856552 17.7683688,11.4284138 17.7683688,12.218069 C17.7683688,13.0084138 18.4091188,13.6511724 19.1969938,13.6511724 C19.9848688,13.6511724 20.6249313,13.0084138 20.6249313,12.218069 C20.6249313,11.4284138 19.9848688,10.7856552 19.1969938,10.7856552 M19.1969938,14.6173793 C17.8783688,14.6173793 16.8051813,13.5408276 16.8051813,12.218069 C16.8051813,10.896 17.8783688,9.82013793 19.1969938,9.82013793 C20.5149313,9.82013793 21.5881188,10.896 21.5881188,12.218069 C21.5881188,13.5408276 20.5149313,14.6173793 19.1969938,14.6173793" id="Fill-5" fill="#D4D4D4" mask="url(#mask-2)"></path>
                    <path d="M11.7170625,6.10793103 L11.4833125,5.17137931 C11.6579375,5.12724138 12.0773125,4.76724138 12.0800625,4.13551724 C12.0800625,4.0637931 12.013375,3.87137931 11.76175,3.62172414 C11.0831875,2.94034483 10.503625,2.1762069 10.850125,1.20103448 C11.1705,0.294827586 11.89375,-0.101724138 12.9958125,0.0224137931 L13.0755625,0.03 L13.0590625,0.364482759 L13.20825,0.979655172 C13.101,1.00586207 13.0075,0.994827586 12.88925,0.981724138 C12.315875,0.916896552 11.947375,0.985862069 11.7569375,1.52448276 C11.636625,1.8637931 11.7101875,2.20310345 12.4416875,2.93758621 C12.82875,3.32310345 13.04325,3.75 13.04325,4.13758621 C13.0384375,5.16448276 12.3646875,5.94517241 11.7170625,6.10793103" id="Fill-6" fill="#D4D4D4" mask="url(#mask-2)"></path>
                    <path d="M5.01730625,6.10793103 L4.78355625,5.17137931 C4.95818125,5.12724138 5.37755625,4.76724138 5.37961875,4.1362069 C5.37961875,4.0637931 5.31361875,3.87137931 5.06268125,3.62034483 C4.38411875,2.94103448 3.80386875,2.17689655 4.15105625,1.20034483 C4.47074375,0.294827586 5.19330625,-0.101724138 6.29674375,0.0224137931 L6.37580625,0.03 L6.35930625,0.365862069 L6.50918125,0.979655172 C6.40330625,1.00517241 6.30911875,0.994827586 6.18949375,0.981724138 C5.62024375,0.917586207 5.24899375,0.984482759 5.05786875,1.52448276 C4.93755625,1.8637931 5.01043125,2.2037931 5.74330625,2.93689655 C6.12968125,3.32517241 6.34280625,3.75137931 6.34280625,4.13758621 C6.33936875,5.16448276 5.66561875,5.94517241 5.01730625,6.10793103" id="Fill-7" fill="#D4D4D4" mask="url(#mask-2)"></path>
                    <path d="M8.36749375,6.10793103 L8.13374375,5.17137931 C8.30836875,5.12724138 8.72774375,4.76724138 8.72980625,4.1362069 C8.72980625,4.0637931 8.66380625,3.87068966 8.41286875,3.62172414 C7.73361875,2.94103448 7.15405625,2.17758621 7.50055625,1.20103448 C7.82093125,0.294827586 8.54349375,-0.101724138 9.64624375,0.0224137931 L9.72599375,0.03 L9.70949375,0.364482759 L9.85868125,0.979655172 C9.75074375,1.00586207 9.65793125,0.994827586 9.53968125,0.981724138 C8.96630625,0.916896552 8.59780625,0.985862069 8.40736875,1.52448276 C8.28705625,1.8637931 8.36061875,2.2037931 9.09280625,2.93758621 C9.47918125,3.32310345 9.69299375,3.75 9.69299375,4.13758621 C9.68955625,5.16448276 9.01580625,5.94517241 8.36749375,6.10793103" id="Fill-8" fill="#D4D4D4" mask="url(#mask-2)"></path>
                </g>
            </g>
        </g>
    </g>
</svg>