<?xml version="1.0" encoding="UTF-8" standalone="no"?>
<svg width="52px" height="51px" viewBox="0 0 52 51" version="1.1" xmlns="http://www.w3.org/2000/svg" xmlns:xlink="http://www.w3.org/1999/xlink">
    <!-- Generator: Sketch 39.1 (31720) - http://www.bohemiancoding.com/sketch -->
    <title>ico_cardiovascular_green</title>
    <desc>Created with Sketch.</desc>
    <defs></defs>
    <g id="supermercado_categoria" stroke="none" stroke-width="1" fill="none" fill-rule="evenodd">
        <g id="Subcategorias_minifarmacia" transform="translate(-77.000000, -319.000000)" fill="#44D481">
            <g id="icon01-copy-27" transform="translate(77.000000, 319.000000)">
                <g id="cardiovascular_red" transform="translate(11.000000, 12.000000)">
                    <path d="M28.4033909,11.9764667 L28.4033909,11.5431333 L28.4033909,11.1098 L28.3937242,11.1098 L28.3937242,11.5431333 L28.3937242,11.9764667 L28.4033909,11.9764667 Z M28.3937242,11.9764667 L28.4033909,11.9764667 C28.9892495,11.9764667 28.9892495,11.1098 28.4033909,11.1098 L28.3937242,11.1098 C27.8078657,11.1098 27.8078657,11.9764667 28.3937242,11.9764667 Z" id="Stroke-1"></path>
                    <path d="M19.9853939,8.66666667e-05 C17.6186762,0.0129523866 15.6679043,0.841325055 14.1020334,2.16148846 L14.9014818,2.16148846 C13.3353749,0.841126167 11.3871994,0.0129537398 9.06792212,0.000961671258 C5.59684251,8.66666667e-05 2.73097399,1.7478327 1.17634338,4.77332257 C-0.677281178,8.38162081 -0.203825152,13.0917524 2.34599768,16.5196599 C4.48467442,19.3955369 6.33132185,20.8403033 11.4151416,24.0612987 L11.5855992,24.1705348 C12.0925436,24.4915264 12.5446149,24.7793312 12.9896789,25.0647916 L13.7301772,25.5403863 C13.9588437,25.6881915 14.2262689,25.7660867 14.5017576,25.7660867 C14.7759449,25.7660867 15.042512,25.6880473 15.2723963,25.5409898 L16.0141562,25.0645863 C16.4392617,24.791364 16.8516669,24.528673 17.4277085,24.1634683 L17.5888363,24.061562 C22.6724958,20.8382231 24.5187195,19.3934359 26.6574232,16.5197866 C29.2073272,13.0926851 29.680813,8.38251989 27.8272007,4.77424558 C26.2714512,1.74748271 23.4027657,8.66666667e-05 19.9853939,8.66666667e-05 Z M25.6655592,15.8019178 C23.6431721,18.5192794 21.8855749,19.8947107 16.9240842,23.0405879 L16.7629819,23.142478 C16.1844031,23.5092908 15.7700855,23.7732 15.3425865,24.0479607 L14.6019347,24.5236537 C14.572044,24.5427737 14.5379555,24.5527533 14.5017576,24.5527533 C14.4646521,24.5527533 14.431802,24.5431848 14.4030818,24.5246211 L13.6607622,24.0478537 C13.2131786,23.7607771 12.7591302,23.4717136 12.2531,23.1513115 L12.0827947,23.0421719 C7.11813635,19.896665 5.36033487,18.5214092 3.3380447,15.8020371 C1.05783231,12.7365861 0.633468123,8.51483992 2.27380679,5.32172775 C3.6194705,2.70291149 6.06186585,1.21342 9.00757576,1.21342 C11.0650198,1.22463789 12.7429518,1.93792937 14.1020334,3.08375154 C14.332196,3.27779837 14.6713192,3.27779837 14.9014818,3.08375154 C16.2602396,1.93820234 17.9406383,1.2246405 19.9481892,1.21427836 C22.9380207,1.21342 25.3831472,2.70281447 26.7297708,5.32271597 C28.3700513,8.51571484 27.945667,12.7374256 25.6655592,15.8019178 Z" id="Stroke-4"></path>
                    <path d="M14.3435758,9.37646667 C13.886291,9.37646667 13.6226884,9.67917107 13.3074813,10.2329537 L12.8983156,11.0798164 L13.7139404,11.1345629 L13.1154858,9.27729622 C12.9694648,8.80501877 12.5304488,8.5098 12.022697,8.5098 C11.50664,8.5098 11.0777891,8.79434868 10.890449,9.22452698 L9.65610715,12.0429806 L10.4920937,12.1389416 L9.81630585,8.39060826 C9.722441,7.88076538 9.29738117,7.48908945 8.77713634,7.43254152 C8.73905897,7.4276209 8.69500193,7.4256 8.64463636,7.4256 C8.16715891,7.4256 7.73730607,7.70782768 7.55094639,8.14261257 L5.99878446,11.7770661 L6.80229407,11.7628543 L6.3936577,10.8944543 C6.20582842,10.4792419 5.78559853,10.2431333 5.31139394,10.2431333 L0.439393939,10.2431333 C0.196723367,10.2431333 0,10.4371433 0,10.6764667 C0,10.9157901 0.196723367,11.1098 0.439393939,11.1098 L5.31139394,11.1098 C5.45667641,11.1098 5.55343196,11.1641627 5.5938376,11.2534578 L6.00516048,12.1276791 C6.16572276,12.4688927 6.66061725,12.4601394 6.80867009,12.1134673 L8.36060948,8.47953395 C8.40951591,8.36543417 8.52095522,8.29226667 8.64463636,8.29226667 C8.81434165,8.30850018 8.92717818,8.4124746 8.95137176,8.54388201 L9.62687597,12.2906584 C9.70315288,12.7137369 10.2900952,12.7811107 10.4628625,12.3866194 L11.6975595,9.56735273 C11.7479221,9.45171021 11.8613237,9.37646667 11.9805152,9.37646667 C12.1569447,9.37646667 12.2459437,9.43631452 12.2764453,9.53494518 L12.8764233,11.3970371 C12.9971796,11.7717969 13.5209174,11.8069513 13.6920481,11.4517836 L14.0875026,10.6310503 C14.2121757,10.4140544 14.361018,10.2431333 14.3435758,10.2431333 L27.6818182,10.2431333 C27.9244888,10.2431333 28.1212121,10.0491234 28.1212121,9.8098 C28.1212121,9.57047661 27.9244888,9.37646667 27.6818182,9.37646667 L14.3435758,9.37646667 Z" id="Stroke-6"></path>
                    <path d="M19.9853939,8.66666667e-05 C17.6186762,0.0129523866 15.6679043,0.841325055 14.1020334,2.16148846 L14.9014818,2.16148846 C13.3353749,0.841126167 11.3871994,0.0129537398 9.06792212,0.000961671258 C5.59684251,8.66666667e-05 2.73097399,1.7478327 1.17634338,4.77332257 C-0.677281178,8.38162081 -0.203825152,13.0917524 2.34599768,16.5196599 C4.48467442,19.3955369 6.33132185,20.8403033 11.4151416,24.0612987 L11.5855992,24.1705348 C12.0925436,24.4915264 12.5446149,24.7793312 12.9896789,25.0647916 L13.7301772,25.5403863 C13.9588437,25.6881915 14.2262689,25.7660867 14.5017576,25.7660867 C14.7759449,25.7660867 15.042512,25.6880473 15.2723963,25.5409898 L16.0141562,25.0645863 C16.4392617,24.791364 16.8516669,24.528673 17.4277085,24.1634683 L17.5888363,24.061562 C22.6724958,20.8382231 24.5187195,19.3934359 26.6574232,16.5197866 C29.2073272,13.0926851 29.680813,8.38251989 27.8272007,4.77424558 C26.2714512,1.74748271 23.4027657,8.66666667e-05 19.9853939,8.66666667e-05 Z M25.6655592,15.8019178 C23.6431721,18.5192794 21.8855749,19.8947107 16.9240842,23.0405879 L16.7629819,23.142478 C16.1844031,23.5092908 15.7700855,23.7732 15.3425865,24.0479607 L14.6019347,24.5236537 C14.572044,24.5427737 14.5379555,24.5527533 14.5017576,24.5527533 C14.4646521,24.5527533 14.431802,24.5431848 14.4030818,24.5246211 L13.6607622,24.0478537 C13.2131786,23.7607771 12.7591302,23.4717136 12.2531,23.1513115 L12.0827947,23.0421719 C7.11813635,19.896665 5.36033487,18.5214092 3.3380447,15.8020371 C1.05783231,12.7365861 0.633468123,8.51483992 2.27380679,5.32172775 C3.6194705,2.70291149 6.06186585,1.21342 9.00757576,1.21342 C11.0650198,1.22463789 12.7429518,1.93792937 14.1020334,3.08375154 C14.332196,3.27779837 14.6713192,3.27779837 14.9014818,3.08375154 C16.2602396,1.93820234 17.9406383,1.2246405 19.9481892,1.21427836 C22.9380207,1.21342 25.3831472,2.70281447 26.7297708,5.32271597 C28.3700513,8.51571484 27.945667,12.7374256 25.6655592,15.8019178 Z" id="Stroke-8"></path>
                    <path d="M19.3161389,19.7455101 C19.6034031,19.5666235 19.6892322,19.1919458 19.5078438,18.9086439 C19.3264553,18.625342 18.9465373,18.5406967 18.6592732,18.7195833 L14.8180914,21.1115833 C14.5308272,21.2904698 14.4449981,21.6651476 14.6263865,21.9484494 C14.807775,22.2317513 15.187693,22.3163966 15.4749571,22.1375101 L19.3161389,19.7455101 Z" id="Stroke-10"></path>
                </g>
            </g>
        </g>
    </g>
</svg>