<?xml version="1.0" encoding="UTF-8" standalone="no"?>
<svg width="52px" height="51px" viewBox="0 0 52 51" version="1.1" xmlns="http://www.w3.org/2000/svg" xmlns:xlink="http://www.w3.org/1999/xlink">
    <!-- Generator: Sketch 39.1 (31720) - http://www.bohemiancoding.com/sketch -->
    <title>ico_TODASminifarmacia_green</title>
    <desc>Created with Sketch.</desc>
    <defs></defs>
    <g id="supermercado_categoria" stroke="none" stroke-width="1" fill="none" fill-rule="evenodd">
        <g id="Subcategorias_minifarmacia" transform="translate(-15.000000, -197.000000)" fill="#44D481">
            <g id="icon01-copy-7" transform="translate(15.000000, 197.000000)">
                <g id="farmacia_yellow" transform="translate(18.000000, 13.000000)">
                    <path d="M6.07174615,2.163785 L6.07174615,1.309035 C6.07174615,1.08842456 6.25129187,0.909935 6.47320769,0.909935 L9.91047692,0.909935 C10.1326252,0.909935 10.3125923,1.08865559 10.3125923,1.309035 L10.3125923,2.163785 C10.3125923,2.38416441 10.1326252,2.562885 9.91047692,2.562885 C9.65770044,2.562885 9.45278462,2.76659544 9.45278462,3.017885 C9.45278462,3.26917456 9.65770044,3.472885 9.91047692,3.472885 C10.6379629,3.472885 11.2279769,2.88695775 11.2279769,2.163785 L11.2279769,1.309035 C11.2279769,0.585862253 10.6379629,-6.5e-05 9.91047692,-6.5e-05 L6.47320769,-6.5e-05 C5.7457389,-6.5e-05 5.15636154,0.585845439 5.15636154,1.309035 L5.15636154,2.163785 C5.15636154,2.88697456 5.7457389,3.472885 6.47320769,3.472885 C6.72598417,3.472885 6.9309,3.26917456 6.9309,3.017885 C6.9309,2.76659544 6.72598417,2.562885 6.47320769,2.562885 C6.25129187,2.562885 6.07174615,2.38439544 6.07174615,2.163785 Z M9.45278462,5.381935 C9.45278462,7.22640422 10.1704867,8.99595299 11.4492338,10.301949 L13.4126376,12.3084007 C14.7284562,13.6525431 15.4681692,15.4768682 15.4681692,17.380285 L15.4681692,21.754785 C15.4681692,23.4251595 14.1473147,24.774685 12.5245538,24.774685 L3.85913077,24.774685 C2.23636993,24.774685 0.915515385,23.4251595 0.915515385,21.754785 L0.915515385,17.401085 C0.915515385,15.5045932 1.65019231,13.6856622 2.95750063,12.3426418 L4.94772448,10.2991279 C6.21831561,8.99358244 6.9309,7.22958168 6.9309,5.391685 L6.9309,4.497935 C6.9309,4.24664544 6.72598417,4.042935 6.47320769,4.042935 C6.22043121,4.042935 6.01551538,4.24664544 6.01551538,4.497935 L6.01551538,5.391685 C6.01551538,6.99427203 5.39467924,8.53115024 4.28996178,9.66625888 L2.29976783,11.7097421 C0.826557528,13.2231964 0.000130769231,15.2692838 0.000130769231,17.401085 L0.000130769231,21.754785 C0.000130769231,23.9222482 1.72512425,25.684685 3.85913077,25.684685 L12.5245538,25.684685 C14.6585604,25.684685 16.3835538,23.9222482 16.3835538,21.754785 L16.3835538,17.380285 C16.3835538,15.240693 15.5514146,13.1884207 14.0687154,11.6738056 L12.1052778,9.6673193 C10.993409,8.53175757 10.3681692,6.99018173 10.3681692,5.381935 L10.3681692,4.498585 C10.3681692,4.24729544 10.1632534,4.043585 9.91047692,4.043585 C9.65770044,4.043585 9.45278462,4.24729544 9.45278462,4.498585 L9.45278462,5.381935 Z" id="Stroke-1"></path>
                    <path d="M6.90278462,3.472885 L8.19216923,3.472885 L9.91047692,3.472885 C10.1632534,3.472885 10.3681692,3.26917456 10.3681692,3.017885 C10.3681692,2.76659544 10.1632534,2.562885 9.91047692,2.562885 L8.19216923,2.562885 L6.90278462,2.562885 L6.47320769,2.562885 C6.22043121,2.562885 6.01551538,2.76659544 6.01551538,3.017885 C6.01551538,3.26917456 6.22043121,3.472885 6.47320769,3.472885 L6.90278462,3.472885 Z" id="Stroke-3"></path>
                    <path d="M0.602976923,21.94699 L1.06066923,22.40199 L1.06066923,16.15614 L0.601573935,16.6111379 L15.7459586,16.6572879 L15.2897729,16.2119717 L15.4225036,22.4116717 L15.8800923,21.94699 L0.602976923,21.94699 Z M16.337681,22.3923083 L16.2049502,16.1926083 C16.1996639,15.9456897 15.9971992,15.7480492 15.7487645,15.7472921 L0.604379911,15.7011421 C0.351056544,15.7003702 0.145284615,15.9043056 0.145284615,16.15614 L0.145284615,22.40199 C0.145284615,22.6532796 0.350200441,22.85699 0.602976923,22.85699 L15.8800923,22.85699 C16.1366808,22.85699 16.3431408,22.6473297 16.337681,22.3923083 Z" id="Stroke-5"></path>
                    <path d="M7.70139231,20.52505 C7.70139231,20.7045425 7.84776075,20.85005 8.02831538,20.85005 C8.20887001,20.85005 8.35523846,20.7045425 8.35523846,20.52505 L8.35523846,18.31115 C8.35523846,18.1316575 8.20887001,17.98615 8.02831538,17.98615 C7.84776075,17.98615 7.70139231,18.1316575 7.70139231,18.31115 L7.70139231,20.52505 Z" id="Stroke-7"></path>
                    <path d="M6.84302308,19.164275 C6.66246845,19.164275 6.5161,19.3097825 6.5161,19.489275 C6.5161,19.6687675 6.66246845,19.814275 6.84302308,19.814275 L9.27467692,19.814275 C9.45523155,19.814275 9.6016,19.6687675 9.6016,19.489275 C9.6016,19.3097825 9.45523155,19.164275 9.27467692,19.164275 L6.84302308,19.164275 Z" id="Stroke-9"></path>
                </g>
            </g>
        </g>
    </g>
</svg>