<?xml version="1.0" encoding="UTF-8" standalone="no"?>
<svg width="52px" height="51px" viewBox="0 0 52 51" version="1.1" xmlns="http://www.w3.org/2000/svg" xmlns:xlink="http://www.w3.org/1999/xlink">
    <!-- Generator: Sketch 39.1 (31720) - http://www.bohemiancoding.com/sketch -->
    <title>ico_otrosfarmacia_grey</title>
    <desc>Created with Sketch.</desc>
    <defs></defs>
    <g id="supermercado_categoria" stroke="none" stroke-width="1" fill="none" fill-rule="evenodd">
        <g id="Subcategorias_minifarmacia" transform="translate(-139.000000, -136.000000)" fill="#D4D4D4">
            <g id="icon01-copy-23" transform="translate(139.000000, 136.000000)">
                <g id="otros_mini_farmacia_blue" transform="translate(21.000000, 12.000000)">
                    <path d="M8.71911622,8.71187573 L8.52555505,7.6670518 L7.17517989,0.358154396 L7.10905385,0.000247619047 L6.72915294,0.000247619047 L3.99985882,0.000247619047 L3.6185926,0.000247619047 L3.55355606,0.359662784 L2.23096783,7.66875802 L2.04142192,8.71285781 L1.85243621,9.75743684 L1.90369381,9.61936459 L0.067340866,12.7517455 L0.00954271738,12.8503354 L0.00944720681,12.9633735 L-0.000258675542,24.4504211 C-0.000258823529,25.2670086 0.691018721,25.927819 1.54427059,25.927819 L9.18474118,25.927819 C10.0375281,25.927819 10.7292706,25.2668348 10.7292706,24.4507714 L10.7389763,12.9640741 L10.7390714,12.8514984 L10.6818811,12.7531133 L8.86105761,9.62073239 L8.9112927,9.75620906 L8.71911622,8.71187573 Z M8.03233968,9.97825672 L8.06936592,10.0419533 L9.89018945,13.1743343 L9.83309427,12.9633735 L9.82338838,24.4504211 C9.82338824,24.7879494 9.53747207,25.0611524 9.18474118,25.0611524 L1.54427059,25.0611524 C1.19115765,25.0611524 0.905623529,24.7882028 0.905623529,24.4507714 L0.915329264,12.9640741 L0.857435605,13.1757021 L2.69378855,10.0433211 L2.73179517,9.97849088 L2.74504614,9.90524887 L2.93398732,8.86091554 L3.12353102,7.81682791 L4.44616159,0.507499121 L3.99985882,0.866914286 L6.72915294,0.866914286 L6.28312599,0.509007509 L7.63353776,7.81810275 L7.82704495,8.86263391 L8.01913083,9.90647665 L8.03233968,9.97825672 Z" id="Stroke-1"></path>
                    <path d="M3.85446656,17.0368966 C3.14229851,17.9161765 2.72330995,18.8180099 2.74959611,19.7136013 C2.76660438,21.1908279 3.88068352,22.243056 5.37479686,22.2728677 C6.88654172,22.2430492 8.00103267,21.1908659 8.01967905,19.7066461 C8.04549382,18.8179097 7.62623834,17.9161759 6.91381314,17.0368461 C6.47928655,16.5005201 5.98147439,16.0340778 5.66667691,15.793859 L5.38479978,15.5787613 L5.1024893,15.7933382 C4.79058407,16.0304092 4.28919182,16.500162 3.85446656,17.0368966 Z M5.38424118,16.1326286 L5.10180545,16.4713982 C5.3637514,16.6712865 5.81105361,17.0904017 6.19783098,17.567792 C6.79393105,18.3035444 7.13303253,19.0328832 7.11400344,19.6894268 C7.10114317,20.7086365 6.38341023,21.3862433 5.37478676,21.4063896 C4.38403618,21.3862441 3.66697302,20.7089906 3.65527231,19.6966467 C3.63585139,19.0327251 3.97470033,18.3033846 4.57053049,17.5677415 C4.95732645,17.090183 5.40763594,16.6682895 5.66599305,16.471919 L5.38424118,16.1326286 Z" id="Stroke-3"></path>
                    <path d="M9.83555294,7.97772857 C10.0142333,7.97772857 10.1590824,7.83915004 10.1590824,7.66820476 C10.1590824,7.49725948 10.0142333,7.35868095 9.83555294,7.35868095 L1.18114118,7.35868095 C1.00246082,7.35868095 0.857611765,7.49725948 0.857611765,7.66820476 C0.857611765,7.83915004 1.00246082,7.97772857 1.18114118,7.97772857 L9.83555294,7.97772857 Z" id="Stroke-5"></path>
                    <path d="M8.46534118,10.1408667 C8.64402154,10.1408667 8.78887059,10.0022881 8.78887059,9.83134286 C8.78887059,9.66039758 8.64402154,9.52181905 8.46534118,9.52181905 L2.29887059,9.52181905 C2.12019023,9.52181905 1.97534118,9.66039758 1.97534118,9.83134286 C1.97534118,10.0022881 2.12019023,10.1408667 2.29887059,10.1408667 L8.46534118,10.1408667 Z" id="Stroke-7"></path>
                    <path d="M10.2862294,13.2735571 C10.4649098,13.2735571 10.6097588,13.1349786 10.6097588,12.9640333 C10.6097588,12.7930881 10.4649098,12.6545095 10.2862294,12.6545095 L0.462582353,12.6545095 C0.283901993,12.6545095 0.139052941,12.7930881 0.139052941,12.9640333 C0.139052941,13.1349786 0.283901993,13.2735571 0.462582353,13.2735571 L10.2862294,13.2735571 Z" id="Stroke-9"></path>
                </g>
            </g>
        </g>
    </g>
</svg>