<?xml version="1.0" encoding="UTF-8" standalone="no"?>
<svg width="52px" height="51px" viewBox="0 0 52 51" version="1.1" xmlns="http://www.w3.org/2000/svg" xmlns:xlink="http://www.w3.org/1999/xlink">
    <!-- Generator: Sketch 39.1 (31720) - http://www.bohemiancoding.com/sketch -->
    <title>ico_estomago_grey</title>
    <desc>Created with Sketch.</desc>
    <defs></defs>
    <g id="supermercado_categoria" stroke="none" stroke-width="1" fill="none" fill-rule="evenodd">
        <g id="Subcategorias_minifarmacia" transform="translate(-201.000000, -14.000000)" fill="#D4D4D4">
            <g id="icon01-copy-3" transform="translate(201.000000, 14.000000)">
                <g id="estomago_blue" transform="translate(11.000000, 13.000000)">
                    <path d="M21.8352714,6.43830891 C21.6333186,6.19655312 21.2722512,6.16314954 21.0288048,6.36369992 C20.7853584,6.5642503 20.7517212,6.9228103 20.953674,7.16456609 C22.556084,9.08279565 23.4939574,11.4515023 23.3328594,14.2521268 C23.3148204,14.5657276 23.5561983,14.8344731 23.8719921,14.8523868 C24.1877858,14.8703006 24.4584107,14.6305989 24.4764497,14.3169982 C24.6555616,11.2032089 23.6102229,8.56308624 21.8352714,6.43830891 Z" id="Stroke-1"></path>
                    <path d="M15.2754777,24.7384973 C12.4595926,24.8283151 10.017093,23.543995 7.82017187,20.9124776 C7.38697735,20.2288897 6.56887179,19.7861625 5.67499091,19.7861625 C4.53792289,19.7861625 3.52951591,20.4988146 3.16876855,21.5589615 C3.00762719,22.0300108 2.8781575,22.8819458 2.85733134,23.760528 L3.4299,23.2051625 L1.39426364,23.2051625 L1.96686002,23.7617537 C1.89759195,20.5448618 2.6908902,17.874345 4.77325632,17.1448277 C5.5326182,16.8766195 6.48166332,16.9689324 7.31169037,17.4020197 C8.35648654,17.9657503 9.46287885,18.2806739 10.6164488,18.3272554 C11.8671013,18.327725 13.0554759,17.8947934 14.0332246,17.1111964 L14.1158164,17.0299479 L15.3954528,15.4853854 L15.4584281,15.3918562 C15.7511549,14.8472536 15.9531866,14.2694519 16.058064,13.6771609 L16.0666604,13.5867397 L16.0887513,12.0421772 L16.0826051,11.9506129 C15.9992455,11.3927837 15.8474148,10.8638235 15.6224485,10.377898 L15.5907463,10.3086246 C15.2419134,9.56576363 15.2186235,8.71129525 15.5233052,7.96405957 C16.4974914,5.57836095 17.8678962,4.112225 19.6200818,4.112225 C22.9259093,4.07599232 26.1807818,9.69188436 25.7091174,13.9717884 C25.6157682,19.5330401 20.4658577,24.8558133 15.2754777,24.7384973 Z M19.613755,2.9747597 C17.268028,2.974725 15.5927386,4.76704359 14.4616956,7.53687106 C14.0373628,8.57755239 14.0696143,9.7608045 14.5502977,10.7843611 L14.5806901,10.8508254 C14.7593905,11.2368296 14.8815295,11.6623474 14.9495586,12.1175871 L15.5160818,12.0341 L14.9434123,12.0260228 L14.9213214,13.5705853 L15.4939909,13.5786625 L14.9299178,13.4801641 C14.8461324,13.9533392 14.684031,14.4169419 14.4479173,14.8562188 L14.9531727,15.1240375 L14.5108927,14.7626896 L13.2312563,16.3072521 L13.3138481,16.2260036 C12.5361425,16.8492801 11.6002665,17.190225 10.6397182,17.190225 C9.68861104,17.151349 8.75258016,16.8849171 7.85148711,16.3987769 C6.74054249,15.8190518 5.46103608,15.6945952 4.39079193,16.0726106 C1.65538387,17.0309066 0.742390388,20.104359 0.821667254,23.7860713 C0.828327355,24.0953744 1.08272647,24.3426625 1.39426364,24.3426625 L3.4299,24.3426625 C3.74095727,24.3426625 3.9951485,24.0961086 4.00246866,23.787297 C4.02074513,23.0162771 4.1332645,22.2758784 4.25364455,21.9239811 C4.45681818,21.3269065 5.02741094,20.9236625 5.67499091,20.9236625 C6.17865123,20.9236625 6.63185587,21.1689194 6.89621621,21.5810421 C9.34655337,24.5230616 12.1127397,25.9775832 15.281009,25.8755512 C21.0963161,26.0078579 26.7510736,20.163292 26.8510973,14.0428916 C27.3848869,9.22174524 23.7380197,2.92951345 19.613755,2.9747597 Z M10.1479909,0.5689125 L9.57526364,1.1376625 L11.9087182,1.1376625 L11.3359909,0.5689125 L11.3359909,5.8111625 C11.3359909,6.96421948 12.0358011,7.99228662 13.0866309,8.43298156 L12.7511245,7.78227489 C12.5466913,8.67023074 12.5576374,9.59026307 12.7893283,10.4595608 L13.447394,9.75481713 C11.5483792,9.40518939 10.1479909,7.75280118 10.1479909,5.8111625 L10.1479909,0.5689125 Z M13.2385878,10.8732579 C13.651913,10.9493552 14.0042112,10.5720677 13.8966535,10.1685142 C13.7129611,9.47930517 13.7042375,8.74608758 13.8677664,8.03580011 C13.9296996,7.76679294 13.7882469,7.49244874 13.53226,7.38509344 C12.9019649,7.12076151 12.4814455,6.50299085 12.4814455,5.8111625 L12.4814455,0.5689125 C12.4814455,0.254800549 12.2250267,0.0001625 11.9087182,0.0001625 L9.57526364,0.0001625 C9.2589551,0.0001625 9.00253636,0.254800549 9.00253636,0.5689125 L9.00253636,5.8111625 C9.00253636,8.3038786 10.7994914,10.4241956 13.2385878,10.8732579 Z" id="Stroke-3"></path>
                    <path d="M15.5235273,12.3228625 C15.2072187,12.3228625 14.9508,12.5775005 14.9508,12.8916125 C14.9508,13.2057245 15.2072187,13.4603625 15.5235273,13.4603625 L17.8758,13.4603625 C18.1921085,13.4603625 18.4485273,13.2057245 18.4485273,12.8916125 C18.4485273,12.5775005 18.1921085,12.3228625 17.8758,12.3228625 L15.5235273,12.3228625 Z" id="Stroke-5"></path>
                    <path d="M15.0083793,15.265758 C14.7847154,15.0436473 14.4220846,15.0436473 14.1984207,15.265758 C13.9747567,15.4878687 13.9747567,15.8479813 14.1984207,16.070092 L15.8004207,17.660967 C16.0240846,17.8830777 16.3867154,17.8830777 16.6103793,17.660967 C16.8340433,17.4388563 16.8340433,17.0787437 16.6103793,16.856633 L15.0083793,15.265758 Z" id="Stroke-7"></path>
                </g>
            </g>
        </g>
    </g>
</svg>