<?xml version="1.0" encoding="UTF-8" standalone="no"?>
<svg width="52px" height="51px" viewBox="0 0 52 51" version="1.1" xmlns="http://www.w3.org/2000/svg" xmlns:xlink="http://www.w3.org/1999/xlink">
    <!-- Generator: Sketch 39.1 (31720) - http://www.bohemiancoding.com/sketch -->
    <title>ico_saludsexual_green</title>
    <desc>Created with Sketch.</desc>
    <defs></defs>
    <g id="supermercado_categoria" stroke="none" stroke-width="1" fill="none" fill-rule="evenodd">
        <g id="Subcategorias_minifarmacia" transform="translate(-263.000000, -197.000000)" fill="#44D481">
            <g id="icon01-copy-11" transform="translate(263.000000, 197.000000)">
                <g id="salud_sexual-lgreen" transform="translate(20.000000, 12.000000)">
                    <path d="M11.6238353,6.46512222 C11.6238353,3.84158409 9.94067414,1.57374093 7.51565009,0.918379951 L7.88901352,1.28184014 C7.65129105,0.509859385 6.9409856,0.000233333334 6.15236471,0.000233333334 C5.36374381,0.000233333334 4.65343837,0.509859385 4.41571589,1.28184014 L4.78907932,0.918379951 C2.37502707,1.57077581 0.680894118,3.86471338 0.680894118,6.46512222 L0.680894118,24.8510111 L1.21618824,24.8510111 L1.05499439,24.3318383 C1.02967604,24.3402817 1.02967604,24.3402817 1.0112979,24.347034 C0.386739576,24.5904059 0.000305882353,25.1642772 0.000305882353,25.8201222 C0.000305882353,26.709615 0.68199108,27.4036778 1.55648235,27.4036778 L10.7482471,27.4036778 C11.6227383,27.4036778 12.3044235,26.709615 12.3044235,25.8201222 C12.3044235,25.1389894 11.8873245,24.5479288 11.257816,24.3345058 L11.0885412,24.8510111 L11.6238353,24.8510111 L11.6238353,6.46512222 Z M10.5532471,25.2434245 L10.9192663,25.3675165 C11.1107926,25.4324499 11.2338353,25.6068106 11.2338353,25.8201222 C11.2338353,26.1084928 11.0312182,26.3147889 10.7482471,26.3147889 L1.55648235,26.3147889 C1.27351121,26.3147889 1.07089412,26.1084928 1.07089412,25.8201222 C1.07089412,25.6144138 1.18480732,25.4452476 1.36512456,25.3748776 C1.38109749,25.368935 1.75148235,25.2500275 1.75148235,25.2500275 L1.75148235,24.8510111 L1.75148235,6.46512222 C1.75148235,4.35342345 3.12393606,2.49505507 5.06400303,1.97075338 L5.34917519,1.89368582 L5.43736646,1.60729319 C5.5326426,1.29789314 5.82362286,1.08912222 6.15236471,1.08912222 C6.48110656,1.08912222 6.77208681,1.29789314 6.86736295,1.60729319 L6.95555422,1.89368582 L7.24072638,1.97075338 C9.19280127,2.4983002 10.5532471,4.33132591 10.5532471,6.46512222 L10.5532471,24.8510111 L10.5532471,25.2434245 Z" id="Stroke-1"></path>
                    <path d="M1.21618824,24.3065667 C0.920553457,24.3065667 0.680894118,24.5503227 0.680894118,24.8510111 C0.680894118,25.1516995 0.920553457,25.3954556 1.21618824,25.3954556 L11.0885412,25.3954556 C11.384176,25.3954556 11.6238353,25.1516995 11.6238353,24.8510111 C11.6238353,24.5503227 11.384176,24.3065667 11.0885412,24.3065667 L1.21618824,24.3065667 Z" id="Stroke-3"></path>
                    <path d="M3.12298235,22.8283222 C3.12298235,23.0430996 3.2941676,23.2172111 3.50533529,23.2172111 C3.71650299,23.2172111 3.88768824,23.0430996 3.88768824,22.8283222 L3.88768824,6.54398889 C3.88768824,6.32921149 3.71650299,6.1551 3.50533529,6.1551 C3.2941676,6.1551 3.12298235,6.32921149 3.12298235,6.54398889 L3.12298235,22.8283222 Z" id="Stroke-5"></path>
                </g>
            </g>
        </g>
    </g>
</svg>