<?xml version="1.0" encoding="UTF-8" standalone="no"?>
<svg width="52px" height="51px" viewBox="0 0 52 51" version="1.1" xmlns="http://www.w3.org/2000/svg" xmlns:xlink="http://www.w3.org/1999/xlink">
    <!-- Generator: Sketch 39.1 (31720) - http://www.bohemiancoding.com/sketch -->
    <title>ico_nervioso_green</title>
    <desc>Created with Sketch.</desc>
    <defs></defs>
    <g id="supermercado_categoria" stroke="none" stroke-width="1" fill="none" fill-rule="evenodd">
        <g id="Subcategorias_minifarmacia" transform="translate(-139.000000, -258.000000)" fill="#44D481">
            <g id="icon01-copy-28" transform="translate(139.000000, 258.000000)">
                <g id="nervioso_red" transform="translate(10.000000, 12.000000)">
                    <path d="M26.7757833,5.24081754 L27.0619311,5.56763212 C26.0436693,2.43291855 22.9481,0.445071598 19.5808946,0.776349668 C18.9033975,0.86010717 18.2729703,1.02280201 17.6373812,1.27318558 L18.1771143,1.34093711 C16.7378234,0.298594304 14.9989349,-0.159517889 13.2608833,0.0488725584 C11.6595949,0.210798195 10.1690292,0.933923201 8.9997802,2.08545626 L9.39576,2.47543636 L9.39576,1.92392121 C8.96418611,1.92392121 8.75831123,1.93095735 8.46897321,1.96685131 C5.71727002,2.2544521 3.41389991,4.10397735 2.51814698,6.70908694 L2.70466943,6.45070633 C0.801087937,7.90940763 -0.216041909,10.2808911 0.0388578826,12.6576096 C0.464800644,16.3554743 3.66837876,19.0330093 7.4793645,18.8262377 L7.02769228,18.6393793 C8.54318895,20.3397783 10.7837545,21.1839408 13.0791784,20.9328536 C13.4896964,20.8967038 13.956136,20.7947609 14.4629738,20.6451159 L14.30216,20.1168303 L13.870161,20.4677694 C15.2665093,22.1349536 17.4233325,23.0547703 19.6296098,22.9294301 L19.277247,22.8313547 L22.742847,25.2091729 C22.9662228,25.3545472 23.2271616,25.4231939 23.49176,25.4231939 C23.8984775,25.4231939 24.2913504,25.2299144 24.55172,24.9103699 L26.1309804,22.6955946 C26.333097,22.4316075 26.4079148,22.0802779 26.3387445,21.7354087 C26.27218,21.4102828 26.0833954,21.1400683 25.8129921,20.94068 L24.8881339,20.3450983 L24.6987929,21.3464329 C26.6731476,20.9323785 28.4550785,19.8556192 29.6943483,18.310998 C31.1451169,16.555097 31.8134391,14.2998498 31.5637747,12.0043929 C31.2312469,9.09480086 29.4035755,6.51413265 26.7757833,5.24081754 Z M28.8205838,17.6209913 C27.7395541,18.9682917 26.1866862,19.9066362 24.4655271,20.2675913 L23.1477812,20.5439441 L24.2761861,21.268926 L25.1713861,21.8440775 C25.2028413,21.8687107 25.2320627,21.9105364 25.2404093,21.9513014 C25.2488368,21.9933414 25.2421027,22.0249629 25.2251141,22.0471948 L23.6565396,24.2484296 C23.6264235,24.2835618 23.5520242,24.3201636 23.49176,24.3201636 C23.4359071,24.3201636 23.3891491,24.3078627 23.3713873,24.29632 L19.917473,21.9263059 L19.7585169,21.8172429 L19.5651102,21.8282305 C17.7139967,21.9333935 15.9025049,21.1608497 14.734159,19.7658912 L14.4975401,19.4833777 L14.1413462,19.5885447 C13.7005128,19.7187018 13.3017786,19.8058473 12.967318,19.8354004 C11.0218707,20.0480811 9.14232648,19.3399381 7.86942772,17.9117359 L7.68973627,17.7101207 L7.4177555,17.7248775 C4.20038063,17.8994417 1.51090381,15.6515901 1.15219085,12.5375107 C0.938323037,10.5432228 1.79530013,8.54514261 3.39245057,7.3212573 L3.52507484,7.21962824 L3.57897302,7.0628767 C4.33583253,4.86170948 6.27393907,3.30547805 8.59807982,3.06247557 C8.83827544,3.03278407 9.00893389,3.02695152 9.39576,3.02695152 L9.62771959,3.02695152 L9.7917398,2.86541647 C10.7826166,1.88955295 12.0358553,1.28156354 13.385793,1.1449727 C14.8490537,0.969627206 16.302624,1.352572 17.5136057,2.22957198 L17.7643546,2.41116576 L18.0533388,2.29732351 C18.6014646,2.08139517 19.1392357,1.94261215 19.7064584,1.87233541 C22.5348773,1.59424644 25.1384066,3.26612563 25.9951889,5.90372546 L26.0677272,6.12703405 L26.2813367,6.23054003 C28.5650178,7.33711376 30.1608132,9.59037348 30.450474,12.1248212 C30.6681717,14.1264446 30.0867526,16.088438 28.8205838,17.6209913 Z" id="Stroke-1"></path>
                    <path d="M3.42271393,7.38969776 C3.96780427,7.32762678 4.55247381,7.32944097 5.08654022,7.43551753 C6.01748309,7.62042189 6.58597324,8.07269861 6.7418773,8.90386537 C6.79806008,9.20339094 7.09015426,9.40134933 7.39428791,9.34601781 C7.69842157,9.29068629 7.89942547,9.00301778 7.8432427,8.70349221 C7.59363049,7.37274198 6.64799179,6.62041519 5.30795955,6.35425728 C4.64148893,6.22188253 3.94605261,6.21972463 3.29407131,6.29396759 C3.13389699,6.31220709 3.0135905,6.33091755 2.9423009,6.34448618 C2.6386402,6.40228229 2.44004838,6.69157115 2.49873366,6.99063093 C2.55741894,7.28969071 2.8511584,7.48527357 3.1548191,7.42747746 C3.19950928,7.41897152 3.29210899,7.40457011 3.42271393,7.38969776 Z" id="Stroke-3"></path>
                    <path d="M17.7562574,2.41389997 C17.9371211,2.5618791 18.118343,2.73126174 18.2862117,2.91749565 C19.2611452,3.99908925 19.3443462,5.00801831 18.0095789,6.06038785 C17.829663,6.20223882 17.6247963,6.34305228 17.3942034,6.4824265 C17.1306068,6.64174873 17.0480628,6.98135451 17.2098361,7.24095722 C17.3716095,7.50055993 17.71644,7.58185332 17.9800366,7.42253108 C18.2492691,7.25980241 18.4922266,7.0928075 18.7095353,6.92147499 C20.6215862,5.41395814 20.4793438,3.68906895 19.1237924,2.18521693 C18.7667372,1.78909899 18.4110071,1.4980475 18.1613354,1.33012586 C17.905931,1.15834855 17.5574894,1.22300467 17.3830693,1.47453936 C17.2086493,1.72607404 17.2743001,2.06923622 17.5297046,2.24101353 C17.56961,2.26785273 17.6497008,2.32671739 17.7562574,2.41389997 Z" id="Stroke-5"></path>
                    <path d="M7.95513689,17.9501977 C7.92439378,17.5683557 7.94292643,17.1379614 8.04407127,16.7459921 C8.23879578,15.9913709 8.66209023,15.6075478 9.50185294,15.6381501 C10.1189984,15.6600135 10.9298696,15.9102465 11.94195,16.4261431 C12.2166194,16.5661527 12.5545293,16.4603631 12.696693,16.1898553 C12.8388566,15.9193476 12.7314394,15.5865575 12.45677,15.4465478 C11.3093852,14.8616813 10.3457392,14.5643024 9.54269087,14.5358534 C8.12289581,14.4841136 7.2733555,15.254436 6.95857548,16.4743115 C6.82243169,17.0019132 6.79902962,17.5453932 6.83864128,18.0373863 C6.8449563,18.1158215 6.85156682,18.1746527 6.85661347,18.210682 C6.89887781,18.512418 7.18150831,18.7232804 7.48788636,18.6816564 C7.79426441,18.6400325 8.00837087,18.3616842 7.96610653,18.0599483 C7.96391772,18.0443218 7.95967506,18.0065636 7.95513689,17.9501977 Z" id="Stroke-7"></path>
                    <path d="M8.68727032,12.4864414 C8.34939368,13.4020216 8.38795478,14.4210479 9.05937931,15.3962864 C9.23294713,15.6483922 9.58116798,15.7141917 9.83715235,15.5432537 C10.0931367,15.3723157 10.1599485,15.0293709 9.98638069,14.7772651 C9.53979082,14.1285971 9.51497242,13.4727391 9.73990575,12.8632135 C9.78897587,12.730243 9.83512993,12.6396551 9.85808555,12.6031744 C10.0210037,12.3442669 9.93995996,12.0043109 9.67706935,11.8438612 C9.41417875,11.6834115 9.06899257,11.7632273 8.90607445,12.0221347 C8.84478408,12.1195366 8.76456917,12.2769766 8.68727032,12.4864414 Z" id="Stroke-9"></path>
                    <path d="M25.4395827,6.62094065 C24.8703003,7.35617874 23.801693,7.71095084 21.9864575,7.41594108 C21.681305,7.36634809 21.3931085,7.56977191 21.3427525,7.8703009 C21.2923965,8.1708299 21.4989499,8.45465986 21.8041025,8.50425286 C24.0080108,8.86242923 25.4946743,8.36886465 26.3301885,7.28978355 C26.7260075,6.77857643 26.8904805,6.26639349 26.9256683,5.89419616 C26.9543408,5.59091451 26.7279436,5.32216471 26.4199961,5.29392667 C26.1120486,5.26568863 25.8391642,5.48865553 25.8104917,5.79193718 C25.7931009,5.97588756 25.6896874,6.2979262 25.4395827,6.62094065 Z" id="Stroke-11"></path>
                    <path d="M24.9260422,11.0810367 C25.0540856,10.5643832 25.1263444,10.0429007 25.1127542,9.54412778 C25.0906333,8.73227367 24.8419001,8.05397433 24.2899082,7.59376164 C24.0538554,7.39695722 23.7005009,7.42587489 23.5006687,7.65835106 C23.3008366,7.89082722 23.3301991,8.23882789 23.5662518,8.4356323 C23.8375272,8.6618029 23.9788077,9.04707712 23.9931572,9.57371642 C24.0037276,9.96165537 23.9443103,10.3904614 23.8379832,10.8194902 C23.7789123,11.0578405 23.7206205,11.2395751 23.6845427,11.3355062 C23.5771225,11.6211372 23.7251532,11.9384487 24.0151786,12.0442413 C24.3052039,12.1500339 24.6273971,12.0042461 24.7348173,11.7186151 C24.7849059,11.5854292 24.8558636,11.3642067 24.9260422,11.0810367 Z" id="Stroke-13"></path>
                </g>
            </g>
        </g>
    </g>
</svg>