<?xml version="1.0" encoding="UTF-8" standalone="no"?>
<svg width="52px" height="51px" viewBox="0 0 52 51" version="1.1" xmlns="http://www.w3.org/2000/svg" xmlns:xlink="http://www.w3.org/1999/xlink">
    <!-- Generator: Sketch 39.1 (31720) - http://www.bohemiancoding.com/sketch -->
    <title>ico_parasitologia_grey</title>
    <desc>Created with Sketch.</desc>
    <defs></defs>
    <g id="supermercado_categoria" stroke="none" stroke-width="1" fill="none" fill-rule="evenodd">
        <g id="Subcategorias_minifarmacia" transform="translate(-77.000000, -75.000000)" fill="#D4D4D4">
            <g id="icon01-copy-15" transform="translate(77.000000, 75.000000)">
                <g id="parasitologia_dgreen" transform="translate(12.000000, 12.000000)">
                    <path d="M18.3507085,9.36031063 C19.1316938,9.36031063 19.7647085,9.98850234 19.7647085,10.7635392 C19.7647085,11.5385761 19.1316938,12.1667678 18.3507085,12.1667678 C17.569508,12.1667678 16.9359307,11.5383626 16.9359307,10.7635392 C16.9359307,9.98871582 17.569508,9.36031063 18.3507085,9.36031063 Z M18.3507085,13.2467678 C19.7332043,13.2467678 20.8535974,12.134911 20.8535974,10.7635392 C20.8535974,9.39216739 19.7332043,8.28031063 18.3507085,8.28031063 C16.9681313,8.28031063 15.8470418,9.39224829 15.8470418,10.7635392 C15.8470418,12.1348301 16.9681313,13.2467678 18.3507085,13.2467678 Z M8.4845974,10.4241106 C8.94425957,10.4241106 9.31681962,10.7937736 9.31681962,11.2495392 C9.31681962,11.7060041 8.94433222,12.0757392 8.4845974,12.0757392 C8.02532415,12.0757392 7.65237518,11.7056904 7.65237518,11.2495392 C7.65237518,10.7940873 8.02539688,10.4241106 8.4845974,10.4241106 Z M8.4845974,13.1557392 C9.54589924,13.1557392 10.4057085,12.3022831 10.4057085,11.2495392 C10.4057085,10.1974004 9.54573144,9.34411063 8.4845974,9.34411063 C7.42402015,9.34411063 6.56348629,10.1976197 6.56348629,11.2495392 C6.56348629,12.3020636 7.42385232,13.1557392 8.4845974,13.1557392 Z M17.7533752,16.5315106 C18.2133535,16.5315106 18.5855974,16.9007158 18.5855974,17.3569392 C18.5855974,17.8131626 18.2133535,18.1823678 17.7533752,18.1823678 C17.2933969,18.1823678 16.921153,17.8131626 16.921153,17.3569392 C16.921153,16.9007158 17.2933969,16.5315106 17.7533752,16.5315106 Z M17.7533752,19.2623678 C18.8147302,19.2623678 19.6744863,18.4096301 19.6744863,17.3569392 C19.6744863,16.3042483 18.8147302,15.4515106 17.7533752,15.4515106 C16.6920201,15.4515106 15.8322641,16.3042483 15.8322641,17.3569392 C15.8322641,18.4096301 16.6920201,19.2623678 17.7533752,19.2623678 Z M13.1512641,15.0526821 C13.6109262,15.0526821 13.9834863,15.422345 13.9834863,15.8781106 C13.9834863,16.3345755 13.6109989,16.7043106 13.1512641,16.7043106 C12.6919908,16.7043106 12.3190418,16.3342618 12.3190418,15.8781106 C12.3190418,15.4226587 12.6920635,15.0526821 13.1512641,15.0526821 Z M13.1512641,17.7843106 C14.2125659,17.7843106 15.0723752,16.9308545 15.0723752,15.8781106 C15.0723752,14.8259718 14.2123981,13.9726821 13.1512641,13.9726821 C12.0906868,13.9726821 11.230153,14.8261912 11.230153,15.8781106 C11.230153,16.9306351 12.090519,17.7843106 13.1512641,17.7843106 Z M7.59481962,16.6418249 C7.59481962,16.186373 7.96784132,15.8163963 8.42704185,15.8163963 C8.88694736,15.8163963 9.26004185,16.1863008 9.26004185,16.6418249 C9.26004185,17.0980483 8.88702015,17.4680249 8.42704185,17.4680249 C7.9677686,17.4680249 7.59481962,17.0979761 7.59481962,16.6418249 Z M10.3489307,16.6418249 C10.3489307,15.589739 9.48822902,14.7363963 8.42704185,14.7363963 C7.36646459,14.7363963 6.50593074,15.5899054 6.50593074,16.6418249 C6.50593074,17.6943493 7.36629676,18.5480249 8.42704185,18.5480249 C9.48839688,18.5480249 10.3489307,17.6945158 10.3489307,16.6418249 Z M12.672153,7.8691392 C12.672153,8.03607686 12.5363535,8.17076777 12.3680418,8.17076777 C12.1994275,8.17076777 12.063153,8.03577663 12.063153,7.8691392 C12.063153,7.70220154 12.1997302,7.5667392 12.3680418,7.5667392 C12.5360508,7.5667392 12.672153,7.70190133 12.672153,7.8691392 Z M10.9742641,7.8691392 C10.9742641,8.63255041 11.5983591,9.25076777 12.3680418,9.25076777 C13.1377302,9.25076777 13.7610418,8.63254439 13.7610418,7.8691392 C13.7610418,7.10573962 13.1377363,6.4867392 12.3680418,6.4867392 C11.5983535,6.4867392 10.9742641,7.10573401 10.9742641,7.8691392 Z M12.994153,12.0680249 C12.9487459,12.0680249 12.9124863,12.0320922 12.9124863,11.9877963 C12.9124863,11.9427444 12.9487302,11.9067963 12.994153,11.9067963 C13.0388134,11.9067963 13.0750418,11.9427599 13.0750418,11.9877963 C13.0750418,12.0320769 13.0387979,12.0680249 12.994153,12.0680249 Z M12.994153,10.8267963 C12.3473535,10.8267963 11.8235974,11.3462769 11.8235974,11.9877963 C11.8235974,12.6287674 12.3475784,13.1480249 12.994153,13.1480249 C13.6401747,13.1480249 14.1639307,12.6285444 14.1639307,11.9877963 C14.1639307,11.3464999 13.6403995,10.8267963 12.994153,10.8267963 Z M27.2845391,10.6751173 C27.0518654,9.36611974 26.1931857,8.34917194 25.2061197,8.52230445 C24.4610871,8.65218798 24.0124734,9.40140102 23.9450741,10.3434594 L24.3068328,9.87250862 L22.7147217,10.4302515 L23.4222352,10.8007793 C23.2078058,10.0002009 22.8920558,9.23143031 22.4840446,8.51108249 L22.0290182,7.78509459 C21.5258386,7.05648257 20.945961,6.41506269 20.2899159,5.85581252 L20.2948612,6.67059861 L21.4871945,5.62917004 L20.8770841,5.70346561 C21.6621816,6.10656392 22.4892434,6.11432711 22.949027,5.5711146 C23.5376948,4.87497114 23.1273085,3.76054546 22.2165106,3.00148347 C21.303583,2.24329527 20.1264284,2.03623485 19.537665,2.73117032 C19.0775907,3.27606719 19.2290155,4.08333129 19.766486,4.77930072 L19.7338839,4.1697787 L18.8962172,5.53212156 L19.6831004,5.37789164 C19.0116316,4.88928193 18.2819024,4.48638887 17.5073508,4.17812393 L16.4208645,3.81892794 C15.5917499,3.59735413 14.7637458,3.48401537 13.9213416,3.47434678 L14.4541985,4.08938886 L14.6190873,2.92453172 L14.1890208,3.37850251 C15.0452944,3.20480961 15.6883752,2.69526842 15.6883752,1.99085349 C15.6883752,1.10984447 14.6901428,0.539796344 13.5487085,0.539796344 C12.4067615,0.539796344 11.4090418,1.10974356 11.4090418,1.99085349 C11.4090418,2.69508285 12.0518893,3.204702 12.907487,3.37847581 L12.4775688,2.9246511 L12.6455688,4.10956538 L13.1492416,3.49551477 C12.3265209,3.54878511 11.5219513,3.70170297 10.7492364,3.94946388 L9.63881942,4.38111804 C8.9061731,4.71907527 8.24685089,5.1226356 7.64283846,5.59649942 L8.45175096,5.74942597 L7.60863985,4.30531168 L7.58986909,4.8763726 C8.06882834,4.16696552 8.17421155,3.38682144 7.72490372,2.85568073 C7.10116257,2.11889085 5.83913565,2.34095039 4.85576088,3.15842115 C3.87321786,3.97698069 3.43351837,5.17196082 4.05658598,5.90819784 C4.50538249,6.44002893 5.29875244,6.47278991 6.08665526,6.12746423 L5.51618312,6.04682649 L6.82673867,7.13994078 L6.79328045,6.34372017 C6.21675264,6.91226472 5.71234413,7.54752543 5.29201959,8.23584637 L4.91571477,8.91445813 C4.51712952,9.70422328 4.23206041,10.5198489 4.05902089,11.3658973 L4.77389666,10.9640727 L3.26967443,10.437187 L3.63153927,10.9093558 C3.56627716,9.96718415 3.11722296,9.21599737 2.37151346,9.08473339 C1.38308869,8.91282736 0.525444149,9.92924198 0.292755011,11.2383268 C0.059901693,12.5473769 0.515498371,13.794306 1.50334185,13.9661098 C2.24828354,14.0972398 2.92889589,13.5440772 3.31663708,12.6803237 L2.81405182,13.0006573 L4.4388296,13.0160859 L4.44404185,12.4761106 L3.90189394,12.4265644 C3.87354706,12.7317001 3.85915296,13.0366074 3.85915296,13.3408821 C3.85915296,13.8779197 3.90320499,14.4114164 3.98991209,14.938989 L4.15191504,15.7209664 C4.36216948,16.5570573 4.67181221,17.3397185 5.07696873,18.0749291 L5.35770051,17.3125319 L3.88692273,17.8787605 L4.48291641,18.0147459 C3.81387769,17.3000457 2.95972479,16.9868363 2.28765326,17.3724225 C1.41985401,17.8687013 1.42144612,19.1942095 2.0909291,20.3459403 C2.76145071,21.4977959 3.91891999,22.1624726 4.78728377,21.6646257 C5.45914439,21.2791606 5.61238589,20.3900777 5.32290426,19.4582198 L5.14364115,20.0381529 L6.39508559,19.0406958 L5.60562879,18.9260278 C6.05297807,19.5703678 6.57520998,20.1601342 7.160111,20.6815136 L8.07077747,21.4019957 C8.73675715,21.8664561 9.42379491,22.2346411 10.1465655,22.5178292 L9.87284665,21.7494956 L9.08573554,23.1280385 L9.61489927,22.8569434 C8.67167768,22.7612299 7.85341869,23.0692837 7.5950663,23.7723752 C7.25242166,24.7072666 8.1130734,25.7222699 9.37236494,26.1772396 C10.6320575,26.6313962 11.9479141,26.4025118 12.291508,25.4684513 C12.5489503,24.7643712 12.1217392,24.0066172 11.337526,23.4788166 L11.5671966,24.0237967 L11.8627521,22.4377396 L11.1842683,22.8606083 C11.9486362,23.0671443 12.7363229,23.1832881 13.5351347,23.2041801 L14.592529,23.1763962 C15.4463967,23.1086837 16.2518709,22.9420158 17.0242063,22.6800614 L16.3145684,22.2769694 L16.5619017,23.480398 L17.0953752,23.3725392 L16.7783577,22.9335243 C16.1887026,23.3523973 15.8681757,23.9486513 16.0792359,24.5214214 C16.3647443,25.300162 17.4145028,25.4821207 18.4028618,25.1259313 C19.3907274,24.76852 20.076971,23.9595268 19.7909316,23.1807583 C19.581504,22.6084434 18.9488885,22.3553277 18.2263763,22.4106255 L18.2682641,22.9490249 L18.746767,22.6914247 L18.144767,21.5913675 L17.8899021,22.3413084 C18.6671238,21.994008 19.3960606,21.5478926 20.0583937,21.0157823 L20.780838,20.3762651 C21.3867178,19.7830672 21.8986432,19.1397713 22.3250174,18.4411837 L21.5101511,18.5759085 L22.46604,19.3681656 L22.289805,18.812032 C22.0825564,19.5675626 22.2268288,20.2856981 22.7943714,20.6103465 C23.5545008,21.0452504 24.5362108,20.4820965 25.0973768,19.517617 C25.6595127,18.5532117 25.6608667,17.4271745 24.8995588,16.9929618 C24.3325191,16.668012 23.6327879,16.903126 23.0777178,17.4591375 L23.6518092,17.3320104 L22.4602536,16.899239 L22.7629406,17.6418983 C23.1360747,16.8785918 23.4085126,16.070412 23.5720941,15.2333512 L23.7030015,14.35613 C23.7393959,14.0018875 23.7562641,13.6715633 23.7562641,13.3408821 C23.7562641,12.8322227 23.7173192,12.3286422 23.6402147,11.8336095 L23.102153,11.9160535 L23.1075205,12.4560272 L24.7641871,12.4398272 L24.2614225,12.1194413 C24.6481657,12.9812247 25.3287138,13.5336602 26.0741818,13.4037004 C27.0613999,13.2305415 27.5172629,11.9834395 27.2845391,10.6751173 Z M25.2562168,11.6802656 C25.1679764,11.4836387 24.9704383,11.3577579 24.7534521,11.3598797 L23.0967855,11.3760797 C22.7651474,11.3793227 22.5134563,11.673407 22.5640912,11.9984974 C22.6326934,12.4389425 22.6673752,12.8873986 22.6673752,13.3408821 C22.6673752,13.6353496 22.6523427,13.9297259 22.6226462,14.223531 L22.4989711,15.0518627 C22.3575871,15.7724479 22.1152394,16.4913657 21.7831431,17.1707229 C21.6425449,17.4583395 21.7832109,17.8034714 22.0858301,17.9133822 L23.2773856,18.3461537 C23.4773483,18.4187799 23.7016466,18.3691111 23.851477,18.2190267 C24.0983225,17.9717625 24.3080451,17.9012944 24.3557796,17.9286492 C24.4558464,17.9857237 24.4552744,18.4613849 24.1544751,18.977439 C23.8539024,19.4940348 23.4387234,19.7322006 23.3384217,19.6748135 C23.2914869,19.6479656 23.2481474,19.4322377 23.3405009,19.0955607 C23.3963522,18.8919532 23.3275161,18.6747317 23.1642659,18.539427 L22.208377,17.7471699 C21.9524777,17.5350761 21.566209,17.5989393 21.3935108,17.8818947 C21.0136586,18.5042589 20.5574943,19.0774842 20.0352488,19.58963 L19.3529124,20.1935276 C18.7831938,20.6504151 18.1342386,21.0475811 17.4426261,21.3566272 C17.1540204,21.4855902 17.0367582,21.8306347 17.1877611,22.106568 L17.7897611,23.2066251 C17.8922072,23.3938288 18.0960335,23.503812 18.3101518,23.4874243 C18.6006269,23.4651927 18.7599531,23.5289407 18.7675962,23.5498272 C18.7928099,23.6184751 18.5275188,23.9312193 18.0303541,24.1110945 C17.5329709,24.2903433 17.1273877,24.220042 17.1022627,24.1515122 C17.0943779,24.1301125 17.1749532,23.9802238 17.4123926,23.8115541 C17.5869594,23.6875471 17.6717369,23.4733579 17.6288487,23.2646804 L17.3815153,22.0612518 C17.3159277,21.7421277 16.9825804,21.5527782 16.6718773,21.6581599 C15.9849024,21.8911624 15.2682863,22.0394439 14.5338237,22.0983534 L13.5346658,22.1245679 C12.8525924,22.1059536 12.1513302,22.002553 11.4704821,21.8185844 C11.1631457,21.7355406 10.8498913,21.9307781 10.7919983,22.2414531 L10.4964427,23.8275103 C10.4571665,24.0382802 10.5472926,24.2521383 10.7261133,24.3724904 C11.1456786,24.6548713 11.3185741,24.9615399 11.2682158,25.0992657 C11.1859865,25.322803 10.5139904,25.4396923 9.74470561,25.1623423 C8.97585662,24.8845646 8.53611539,24.365959 8.6182826,24.1417691 C8.66865952,24.0046716 8.99946902,23.8801303 9.50407331,23.931335 C9.71907684,23.9531525 9.92673473,23.8467676 10.033237,23.6602399 L10.8203481,22.2816971 C10.9833102,21.9962861 10.8542004,21.6338726 10.5466293,21.5133635 C9.90391441,21.2615419 9.29237616,20.9338173 8.72253753,20.5374525 L7.86319511,19.8574541 C7.36680951,19.4136869 6.90127874,18.8879542 6.50245491,18.3135078 C6.32293947,18.0549425 5.95972661,18.0021861 5.7129981,18.1988398 L4.46155366,19.1962969 C4.28763756,19.3349158 4.2165939,19.5647488 4.28229055,19.7762301 C4.43986975,20.2834866 4.37621591,20.652796 4.24220882,20.7296796 C4.03442983,20.8488026 3.44345521,20.5094355 3.03409588,19.8062176 C2.62539511,19.1031178 2.62458228,18.426404 2.83221716,18.3076612 C2.96625419,18.230761 3.32105309,18.3608623 3.68494506,18.7495897 C3.8367513,18.9117566 4.07294793,18.9656486 4.28093874,18.8855751 L5.75171652,18.3193465 C6.05814878,18.2013744 6.1900997,17.8430288 6.0324483,17.5569493 C5.67155044,16.9020519 5.39592756,16.2053802 5.21334165,15.4809985 L5.06050199,14.743112 C4.98729673,14.2947801 4.94804185,13.8193796 4.94804185,13.3408821 C4.94804185,13.0700016 4.96087557,12.7981475 4.98618975,12.5256568 C5.0153983,12.2112459 4.76758101,11.9391581 4.4492541,11.9361354 L2.82447632,11.9207068 C2.60756752,11.9186471 2.41012141,12.0444936 2.32189106,12.2410404 C2.11404574,12.704048 1.83826229,12.9281889 1.69251346,12.9025334 C1.45542926,12.861299 1.22294839,12.2250188 1.36509462,11.4259039 C1.50724837,10.6261618 1.94525045,10.1070753 2.18234185,10.1483098 C2.32811785,10.1739713 2.5102492,10.4786442 2.5452111,10.9833798 C2.56009562,11.1982637 2.70230676,11.3838238 2.90707593,11.4555485 L4.41129815,11.9824342 C4.72318162,12.091678 5.06041607,11.9021219 5.12617392,11.5806097 C5.28003863,10.8283134 5.53360573,10.1028198 5.87989665,9.41589169 L6.23492448,8.77553455 C6.59771411,8.18236759 7.04712719,7.61636905 7.56102547,7.1095868 C7.78780896,6.88594361 7.77232719,6.51751671 7.52756724,6.3133662 L6.21701169,5.22025191 C6.05795628,5.08758623 5.83662874,5.056301 5.64653955,5.13961417 C5.25206936,5.31250439 4.96381488,5.30060137 4.89110087,5.21443423 C4.75759277,5.05667587 4.97303894,4.47115349 5.55565893,3.98577078 C6.13889342,3.50093351 6.75721665,3.39213665 6.89086506,3.55000788 C6.96347218,3.63583906 6.92508749,3.91999808 6.68510349,4.27544866 C6.56950948,4.44665991 6.56222765,4.66819424 6.66633273,4.84650958 L7.50944385,6.29062386 C7.67574039,6.57546321 8.05807881,6.64774506 8.31835634,6.44355041 C8.8560785,6.02169308 9.4432336,5.66230505 10.0681684,5.37304953 L11.1158198,4.96587465 C11.7714536,4.7567352 12.4873519,4.62067035 13.2201754,4.57322077 C13.5361605,4.55276106 13.7679443,4.27018274 13.7238482,3.95917016 L13.5558482,2.77425588 C13.52377,2.54800648 13.3516031,2.36626587 13.1259301,2.32043116 C12.7166329,2.237302 12.4979307,2.06392519 12.4979307,1.99085349 C12.4979307,1.86580724 12.9285845,1.61979634 13.5487085,1.61979634 C14.1683269,1.61979634 14.5994863,1.86601315 14.5994863,1.99085349 C14.5994863,2.06392119 14.3807163,2.23726225 13.9708407,2.32040446 C13.7450643,2.36620262 13.5728144,2.54802658 13.5407741,2.77437526 L13.3758852,3.9392324 C13.330246,4.26165053 13.5805041,4.55050717 13.908742,4.55427448 C14.6599889,4.56289682 15.3974447,4.66384117 16.1080843,4.85292623 L17.1328859,5.19172189 C17.7913854,5.45487183 18.4409797,5.81352131 19.0389833,6.24867248 C19.2961827,6.43582952 19.6597758,6.36456489 19.8258665,6.09444256 L20.6635331,4.7320997 C20.7805831,4.54173496 20.7676313,4.29959054 20.6309311,4.12257769 C20.3669613,3.78076374 20.3132969,3.49467251 20.3718962,3.42526933 C20.3964223,3.39632155 20.4953741,3.37243877 20.6770532,3.40439597 C20.9350402,3.44977565 21.2400152,3.59911867 21.5167341,3.8289339 C21.7920951,4.0584217 21.9933653,4.33029698 22.083252,4.57438931 C22.1465785,4.74635575 22.1400385,4.84716374 22.1148931,4.87690001 C22.0570233,4.94527036 21.7636154,4.9425163 21.3776663,4.74435564 C21.1783022,4.64199472 20.9360332,4.67149678 20.7675558,4.81865122 L19.5752225,5.86007979 C19.3270784,6.07681809 19.3294109,6.4611064 19.5801678,6.67486588 C20.1646296,7.17309436 20.6812334,7.74452528 21.1178281,8.3759072 L21.5471766,9.06095524 C21.8980185,9.68148526 22.1790551,10.3657377 22.3698485,11.0780705 C22.4514473,11.382722 22.777692,11.5535777 23.077362,11.4485984 L24.6694731,10.8908555 C24.8738128,10.8192719 25.0158924,10.6343075 25.0312318,10.4199047 C25.0673618,9.91490601 25.2491164,9.61136447 25.3951818,9.58590044 C25.6318239,9.54439344 26.0701434,10.0635021 26.2121995,10.8626945 C26.3542944,11.6615213 26.1213956,12.2986614 25.8851197,12.3401045 C25.7391016,12.3655599 25.4632766,12.1416588 25.2562168,11.6802656 Z" id="Page-1"></path>
                </g>
            </g>
        </g>
    </g>
</svg>