<?xml version="1.0" encoding="UTF-8" standalone="no"?>
<svg width="52px" height="51px" viewBox="0 0 52 51" version="1.1" xmlns="http://www.w3.org/2000/svg" xmlns:xlink="http://www.w3.org/1999/xlink">
    <!-- Generator: Sketch 39.1 (31720) - http://www.bohemiancoding.com/sketch -->
    <title>ico_cuidadointimo_green</title>
    <desc>Created with Sketch.</desc>
    <defs></defs>
    <g id="supermercado_categoria" stroke="none" stroke-width="1" fill="none" fill-rule="evenodd">
        <g id="Subcategorias_minifarmacia" transform="translate(-15.000000, -319.000000)" fill="#44D481">
            <g id="icon01-copy-25" transform="translate(15.000000, 319.000000)">
                <g id="intimo_yellow" transform="translate(19.000000, 12.000000)">
                    <path d="M6.46796509,5.20041085 C6.28125374,4.37959267 5.87798332,3.65097701 5.33786808,3.04039787 C4.88663033,2.52936118 4.93798176,1.74951168 5.45222629,1.30077638 C5.96634122,0.852216403 6.7502083,0.902517249 7.2007737,1.41387275 C8.14464027,2.48362283 8.81169951,3.80584309 9.00132628,5.32179515 L9.02064678,5.47554622 L9.51678571,5.41385526 L9.51678571,4.91648684 L6.00321429,4.91648684 L6.00321429,5.41385526 L6.49153652,5.3069898 L6.46796509,5.20041085 Z M6.00321429,5.91122368 L9.51678571,5.91122368 C9.81753471,5.91122368 10.050228,5.64902021 10.0129247,5.3521643 L9.99363894,5.19869062 C9.7772286,3.4686194 9.02008497,1.96783721 7.9525744,0.757952907 C7.13777627,-0.166777635 5.7218661,-0.257636763 4.79279956,0.552964221 C3.86330627,1.36405004 3.77054803,2.77272481 4.58683381,3.69718588 C5.02287287,4.19011127 5.34544766,4.77292873 5.49197241,5.4170474 L5.51489205,5.52072073 C5.56533003,5.7487776 5.76846815,5.91122368 6.00321429,5.91122368 Z M1.83753007,25.8791447 C1.76935666,25.8791447 1.71392857,25.8240084 1.71392857,25.7562237 L1.71392857,23.6438289 C1.71392857,23.576733 1.76937868,23.5216184 1.8375,23.5216184 L1.89392857,23.5216184 C2.15555229,23.5216184 2.3729426,23.3209961 2.39252587,23.0614794 L3.25966873,11.5701373 C3.26021693,11.562013 3.27812441,11.4724575 3.27812441,11.4724575 C3.28193445,11.4542378 3.29162005,11.4347888 3.30603775,11.418459 L4.81505852,9.71207465 C4.89535297,9.62127854 4.93964286,9.50449323 4.93964286,9.38356579 L4.93964286,6.51588158 C4.93964286,6.44809689 4.99507095,6.39296053 5.06321429,6.39296053 L10.4910714,6.39296053 C10.5585223,6.39296053 10.6139286,6.44811879 10.6139286,6.51588158 L10.6139286,9.38356579 C10.6139286,9.50445302 10.6581891,9.62120231 10.7384354,9.71198697 L12.2470068,11.4186712 C12.2605545,11.4342038 12.2708239,11.4546345 12.275263,11.4757157 L12.2914714,11.5535331 C12.2927679,11.5595853 13.160329,23.0614489 13.160329,23.0614489 C13.1798971,23.3209785 13.397293,23.5216184 13.6589286,23.5216184 L13.7160714,23.5216184 C13.7841928,23.5216184 13.8396429,23.576733 13.8396429,23.6438289 L13.8396429,25.7569342 C13.8396429,25.8247189 13.7842148,25.8798553 13.7160714,25.8798553 L1.83753007,25.8791447 Z M14.8396429,25.7569342 L14.8396429,23.6438289 C14.8396429,23.0271787 14.3363004,22.5268816 13.7160714,22.5268816 L13.6589286,22.5268816 L13.6589286,23.02425 L14.1575282,22.9870511 L13.2910996,11.495709 C13.2870002,11.4440078 13.2802334,11.3956077 13.2697785,11.3475082 L13.2542429,11.2728353 C13.2144335,11.0837724 13.1267159,10.9092605 13.0000166,10.7641322 L11.4894217,9.05514461 L11.6139286,9.38356579 L11.6139286,6.51588158 C11.6139286,5.89891696 11.1109843,5.39822368 10.4910714,5.39822368 L5.06321429,5.39822368 C4.4427862,5.39822368 3.93964286,5.8987189 3.93964286,6.51588158 L3.93964286,9.38356579 L4.0642272,9.05505693 L2.55494148,10.7617411 C2.42540212,10.9084599 2.3375365,11.0848969 2.29784747,11.2759299 L2.2811613,11.3603056 C2.27233029,11.3976826 2.2648329,11.4517526 2.26184125,11.5053189 L1.39533127,22.9870206 L1.89392857,23.02425 L1.89392857,22.5268816 L1.8375,22.5268816 C1.21727102,22.5268816 0.713928571,23.0271787 0.713928571,23.6438289 L0.713928571,25.7562237 C0.713928571,26.3733864 1.21707191,26.8738816 1.8375,26.8738816 L13.7160414,26.8745921 C14.3364995,26.8745921 14.8396429,26.3740969 14.8396429,25.7569342 Z" id="Stroke-1"></path>
                    <path d="M10.5405,11.87055 C10.7377446,11.87055 10.8976429,11.7114933 10.8976429,11.5152868 C10.8976429,11.3190804 10.7377446,11.1600237 10.5405,11.1600237 L4.33264286,11.1600237 C4.1353983,11.1600237 3.9755,11.3190804 3.9755,11.5152868 C3.9755,11.7114933 4.1353983,11.87055 4.33264286,11.87055 L10.5405,11.87055 Z" id="Stroke-3"></path>
                    <path d="M11.0373571,7.79482895 C11.2346017,7.79482895 11.3945,7.63577221 11.3945,7.43956579 C11.3945,7.24335937 11.2346017,7.08430263 11.0373571,7.08430263 L4.58092857,7.08430263 C4.38368402,7.08430263 4.22378571,7.24335937 4.22378571,7.43956579 C4.22378571,7.63577221 4.38368402,7.79482895 4.58092857,7.79482895 L11.0373571,7.79482895 Z" id="Stroke-5"></path>
                    <path d="M11.0545,9.56105526 C11.2517446,9.56105526 11.4116429,9.40199853 11.4116429,9.20579211 C11.4116429,9.00958568 11.2517446,8.85052895 11.0545,8.85052895 L4.38021429,8.85052895 C4.18296973,8.85052895 4.02307143,9.00958568 4.02307143,9.20579211 C4.02307143,9.40199853 4.18296973,9.56105526 4.38021429,9.56105526 L11.0545,9.56105526 Z" id="Stroke-7"></path>
                    <path d="M11.2235714,23.3567763 C11.420816,23.3567763 11.5807143,23.1977196 11.5807143,23.0015132 C11.5807143,22.8053067 11.420816,22.64625 11.2235714,22.64625 L4.14642857,22.64625 C3.94918402,22.64625 3.78928571,22.8053067 3.78928571,23.0015132 C3.78928571,23.1977196 3.94918402,23.3567763 4.14642857,23.3567763 L11.2235714,23.3567763 Z" id="Stroke-9"></path>
                </g>
            </g>
        </g>
    </g>
</svg>