<?xml version="1.0" encoding="UTF-8" standalone="no"?>
<svg width="52px" height="51px" viewBox="0 0 52 51" version="1.1" xmlns="http://www.w3.org/2000/svg" xmlns:xlink="http://www.w3.org/1999/xlink">
    <!-- Generator: Sketch 39.1 (31720) - http://www.bohemiancoding.com/sketch -->
    <title>ico_gripatos_grey</title>
    <desc>Created with Sketch.</desc>
    <defs></defs>
    <g id="supermercado_categoria" stroke="none" stroke-width="1" fill="none" fill-rule="evenodd">
        <g id="Subcategorias_minifarmacia" transform="translate(-325.000000, -75.000000)" fill="#D4D4D4">
            <g id="icon01-copy-19" transform="translate(325.000000, 75.000000)">
                <g id="gripa_dgreen" transform="translate(14.000000, 13.000000)">
                    <path d="M23.9987224,4.86961025 C25.1040085,3.71520825 25.0383646,1.8717129 23.8648321,0.774914846 L23.5483553,1.105455 L23.2341298,1.43808515 C23.6913887,1.85973886 24.3192799,1.19952433 23.8747005,0.784014846 C22.7051536,-0.309058223 20.8675694,-0.251138496 19.7585373,0.907175921 L6.28483027,14.9816498 L6.73532073,14.8539532 C4.83860527,14.3665955 2.85646129,14.9259316 1.48683262,16.3563698 C-0.571708507,18.5067934 -0.482858594,21.8866859 1.69040431,23.9181701 C3.86773196,25.9527428 7.3129675,25.8673981 9.36841105,23.7209605 C10.6946522,22.3351171 11.146635,20.3215667 10.6339971,18.5089575 L10.5250382,18.9440602 L23.9987224,4.86961025 Z M9.74692397,18.7538525 C10.1747143,20.2664536 9.79716737,21.9483975 8.69925062,23.0956555 C6.9942333,24.8761534 4.13190265,24.9470586 2.32335311,23.2570853 C0.520154807,21.5715235 0.446443986,18.7675292 2.15596626,16.9817029 C3.29452957,15.792589 4.93135354,15.3306979 6.50349506,15.7346568 C6.66599188,15.7764101 6.83861077,15.7274793 6.95398552,15.6069602 L20.4276697,1.53251025 C21.1882735,0.73810734 22.442982,0.698559562 23.2417469,1.44509515 L23.5582237,1.114555 L23.8724492,0.781924853 C23.4151903,0.360271141 22.787299,1.02048567 23.2318785,1.43599515 C24.0380721,2.18947377 24.0832126,3.45716436 23.3295899,4.24427592 L9.8558829,18.3187498 C9.7447629,18.4348244 9.70340522,18.5999769 9.74692397,18.7538525 Z" id="Stroke-1"></path>
                    <path d="M6.51222182,22.7705562 C5.83548344,22.9481875 5.04413169,22.978827 4.18327427,22.7665918 C3.93649956,22.7057521 3.68652981,22.8540816 3.62495119,23.097895 C3.56337257,23.3417084 3.71350366,23.5886786 3.96027836,23.6495182 C4.98291491,23.9016384 5.92989271,23.8649734 6.74871391,23.6500479 C7.00221926,23.5835075 7.18762877,23.5147733 7.29620813,23.4640669 C7.52615642,23.3566814 7.62445587,23.0854553 7.5157661,22.8582664 C7.40707633,22.6310775 7.13255595,22.5339576 6.90260766,22.6413431 C6.84245299,22.6694352 6.70902547,22.7188989 6.51222182,22.7705562 Z" id="Stroke-3"></path>
                    <path d="M22.108853,6.10331746 C22.2936574,6.27596896 22.5851325,6.2679149 22.759881,6.08532821 C22.9346295,5.90274151 22.9264776,5.61476405 22.7416733,5.44211254 L21.6535154,4.42551254 C21.468711,4.25286104 21.1772359,4.2609151 21.0024874,4.44350179 C20.8277389,4.62608849 20.8358908,4.91406595 21.0206951,5.08671746 L22.108853,6.10331746 Z" id="Stroke-5"></path>
                    <path d="M21.0201688,7.25563746 C21.2049732,7.42828896 21.4964483,7.4202349 21.6711968,7.23764821 C21.8459453,7.05506151 21.8377934,6.76708405 21.6529891,6.59443254 L20.5648312,5.57783254 C20.3800268,5.40518104 20.0885517,5.4132351 19.9138032,5.59582179 C19.7390547,5.77840849 19.7472066,6.06638595 19.9320109,6.23903746 L21.0201688,7.25563746 Z" id="Stroke-7"></path>
                    <path d="M19.9320767,8.43779246 C20.1168811,8.61044396 20.4083562,8.6023899 20.5831047,8.41980321 C20.7578532,8.23721651 20.7497013,7.94923905 20.564897,7.77658754 L19.4767391,6.75998754 C19.2919347,6.58733604 19.0004596,6.5953901 18.8257111,6.77797679 C18.6509626,6.96056349 18.6591145,7.24854095 18.8439188,7.42119246 L19.9320767,8.43779246 Z" id="Stroke-9"></path>
                    <path d="M18.8433925,9.59011246 C19.0281969,9.76276396 19.319672,9.7547099 19.4944205,9.57212321 C19.669169,9.38953651 19.6610171,9.10155905 19.4762128,8.92890754 L18.3880549,7.91230754 C18.2032505,7.73965604 17.9117754,7.7477101 17.7370269,7.93029679 C17.5622784,8.11288349 17.5704303,8.40086095 17.7552346,8.57351246 L18.8433925,9.59011246 Z" id="Stroke-11"></path>
                    <path d="M17.8722741,10.5590025 C18.0570784,10.731654 18.3485536,10.7235999 18.5233021,10.5410132 C18.6980506,10.3584265 18.6898987,10.070449 18.5050943,9.89779754 L17.4169364,8.88119754 C17.2321321,8.70854604 16.9406569,8.7166001 16.7659084,8.89918679 C16.59116,9.08177349 16.5993118,9.36975095 16.7841162,9.54240246 L17.8722741,10.5590025 Z" id="Stroke-13"></path>
                    <path d="M16.7836557,11.7113225 C16.96846,11.883974 17.2599352,11.8759199 17.4346837,11.6933332 C17.6094321,11.5107465 17.6012803,11.222769 17.4164759,11.0501175 L16.328318,10.0335175 C16.1435137,9.86086604 15.8520385,9.8689201 15.67729,10.0515068 C15.5025415,10.2340935 15.5106934,10.522071 15.6954978,10.6947225 L16.7836557,11.7113225 Z" id="Stroke-15"></path>
                </g>
            </g>
        </g>
    </g>
</svg>