<?xml version="1.0" encoding="UTF-8" standalone="no"?>
<svg width="52px" height="51px" viewBox="0 0 52 51" version="1.1" xmlns="http://www.w3.org/2000/svg" xmlns:xlink="http://www.w3.org/1999/xlink">
    <!-- Generator: Sketch 39.1 (31720) - http://www.bohemiancoding.com/sketch -->
    <title>ico_cuidadoherida_green</title>
    <desc>Created with Sketch.</desc>
    <defs></defs>
    <g id="supermercado_categoria" stroke="none" stroke-width="1" fill="none" fill-rule="evenodd">
        <g id="Subcategorias_minifarmacia" transform="translate(-325.000000, -197.000000)" fill="#44D481">
            <g id="icon01-copy-12" transform="translate(325.000000, 197.000000)">
                <g id="herida_blue" transform="translate(13.000000, 13.000000)">
                    <path d="M0.983798346,17.8045042 C0.983633386,17.8007373 17.7936796,0.988122795 17.7936796,0.988122795 C21.3752615,1.15133078 24.1923148,3.9683841 24.3602951,7.53796551 C24.3605166,7.54248654 7.55041775,24.3551313 7.55041775,24.3551313 C3.96928736,24.1925719 1.15243121,21.3753216 0.983798346,17.8045042 Z M8.24732965,25.0494951 L25.0511931,8.24563631 C25.2505079,8.04632144 25.356804,7.77209242 25.3429394,7.49064146 C25.1511532,3.41515958 21.9284768,0.192483181 17.8512435,0.000683894035 C17.5634767,-0.00659503613 17.2927869,0.0963689305 17.0968296,0.293696631 L0.292904232,17.0976177 C0.0941584744,17.2963635 -0.0113956468,17.5688917 0.00104487956,17.8494947 C0.193679971,21.9286049 3.41613082,25.1515067 7.49223272,25.342574 C7.80477969,25.3438162 8.05962829,25.2385766 8.24732965,25.0494951 Z" id="Stroke-1"></path>
                    <path d="M11.2632586,16.6154635 L8.72827193,14.0797699 C8.34047446,13.6914532 8.34047446,13.0591738 8.72840364,12.6707253 L12.6697413,8.72798242 C13.0423891,8.35687357 13.7073973,8.35720816 14.0795874,8.7283701 L16.613789,11.2646802 C16.8015791,11.4519509 16.9044973,11.7010428 16.9044973,11.9685027 C16.9044973,12.2365955 16.8018225,12.4856971 16.6138922,12.6736273 L12.6730912,16.6158338 C12.4849605,16.8029229 12.2359017,16.9056919 11.9687135,16.9056919 C11.7016243,16.9056919 11.4525452,16.8031858 11.2632586,16.6154635 Z M13.1693321,17.1133626 L17.1108223,13.1704689 C17.4308024,12.8504889 17.6072,12.4225268 17.6072,11.9685027 C17.6072,11.514735 17.4302636,11.0864977 17.1104332,10.7675533 L14.5762327,8.23124416 C13.9294998,7.58629701 12.820886,7.58573921 12.1733253,8.23062773 L8.23130739,12.17405 C7.56927689,12.8369667 7.56927689,13.9136603 8.23118554,14.5764551 L10.7673713,17.1133436 C11.0893736,17.4326893 11.5163189,17.6083946 11.9687135,17.6083946 C12.4216037,17.6083946 12.8488051,17.4321188 13.1693321,17.1133626 Z" id="Stroke-3"></path>
                    <path d="M18.8383351,2.55404324 C18.9852,2.55404324 19.1046595,2.6735027 19.1046595,2.82036757 C19.1046595,2.96793514 18.9852,3.08669189 18.8383351,3.08669189 C18.6914703,3.08669189 18.5720108,2.96793514 18.5720108,2.82036757 C18.5720108,2.6735027 18.6914703,2.55404324 18.8383351,2.55404324" id="Fill-5"></path>
                    <path d="M17.5538649,3.83851351 C17.7007297,3.83851351 17.8201892,3.95797297 17.8201892,4.10483784 C17.8201892,4.25240541 17.7007297,4.37116216 17.5538649,4.37116216 C17.407,4.37116216 17.2875405,4.25240541 17.2875405,4.10483784 C17.2875405,3.95797297 17.407,3.83851351 17.5538649,3.83851351" id="Fill-7"></path>
                    <path d="M16.2708703,5.12354595 C16.4177351,5.12354595 16.5364919,5.2423027 16.5364919,5.38916757 C16.5364919,5.53603243 16.4177351,5.65549189 16.2708703,5.65549189 C16.1240054,5.65549189 16.0052486,5.53603243 16.0052486,5.38916757 C16.0052486,5.2423027 16.1240054,5.12354595 16.2708703,5.12354595" id="Fill-9"></path>
                    <path d="M14.9858378,6.40752432 C15.1327027,6.40752432 15.2514595,6.52628108 15.2514595,6.67314595 C15.2514595,6.82001081 15.1327027,6.93947027 14.9858378,6.93947027 C14.838973,6.93947027 14.7202162,6.82001081 14.7202162,6.67314595 C14.7202162,6.52628108 14.838973,6.40752432 14.9858378,6.40752432" id="Fill-11"></path>
                    <path d="M22.5233784,6.23908649 C22.6702432,6.23908649 22.789,6.35784324 22.789,6.50470811 C22.789,6.65157297 22.6702432,6.77103243 22.5233784,6.77103243 C22.3765135,6.77103243 22.2577568,6.65157297 22.2577568,6.50470811 C22.2577568,6.35784324 22.3765135,6.23908649 22.5233784,6.23908649" id="Fill-13"></path>
                    <path d="M21.2383459,7.52257297 C21.3852108,7.52257297 21.5046703,7.64203243 21.5046703,7.7888973 C21.5046703,7.93646486 21.3852108,8.05522162 21.2383459,8.05522162 C21.0914811,8.05522162 20.9720216,7.93646486 20.9720216,7.7888973 C20.9720216,7.64203243 21.0914811,7.52257297 21.2383459,7.52257297" id="Fill-15"></path>
                    <path d="M19.9548595,8.80704324 C20.1017243,8.80704324 20.2211838,8.9265027 20.2211838,9.07336757 C20.2211838,9.22093514 20.1017243,9.33969189 19.9548595,9.33969189 C19.8079946,9.33969189 19.6885351,9.22093514 19.6885351,9.07336757 C19.6885351,8.9265027 19.8079946,8.80704324 19.9548595,8.80704324" id="Fill-17"></path>
                    <path d="M18.669827,10.0915838 C18.8166919,10.0915838 18.9354486,10.2103405 18.9354486,10.3572054 C18.9354486,10.5040703 18.8166919,10.6235297 18.669827,10.6235297 C18.5229622,10.6235297 18.4042054,10.5040703 18.4042054,10.3572054 C18.4042054,10.2103405 18.5229622,10.0915838 18.669827,10.0915838" id="Fill-19"></path>
                    <path d="M20.3324216,5.38698919 C20.2291243,5.49169189 20.059773,5.49169189 19.9578811,5.38698919 C19.8524757,5.28369189 19.8524757,5.11574595 19.9578811,5.01104324 C20.059773,4.90774595 20.2291243,4.90774595 20.3324216,5.01104324 C20.4371243,5.11504324 20.4371243,5.28369189 20.3324216,5.38698919" id="Fill-21"></path>
                    <path d="M18.861173,6.21723243 C19.0080378,6.21723243 19.1267946,6.33598919 19.1267946,6.48285405 C19.1267946,6.62971892 19.0080378,6.74917838 18.861173,6.74917838 C18.7143081,6.74917838 18.5955514,6.62971892 18.5955514,6.48285405 C18.5955514,6.33598919 18.7143081,6.21723243 18.861173,6.21723243" id="Fill-23"></path>
                    <path d="M17.5767027,7.50071892 C17.7235676,7.50071892 17.843027,7.62017838 17.843027,7.76704324 C17.843027,7.91461081 17.7235676,8.03336757 17.5767027,8.03336757 C17.4298378,8.03336757 17.3103784,7.91461081 17.3103784,7.76704324 C17.3103784,7.62017838 17.4298378,7.50071892 17.5767027,7.50071892" id="Fill-25"></path>
                    <path d="M6.78044865,14.6134757 C6.92731351,14.6134757 7.04607027,14.7322324 7.04607027,14.8790973 C7.04607027,15.0259622 6.92731351,15.1454216 6.78044865,15.1454216 C6.63358378,15.1454216 6.51482703,15.0259622 6.51482703,14.8790973 C6.51482703,14.7322324 6.63358378,14.6134757 6.78044865,14.6134757" id="Fill-27"></path>
                    <path d="M5.49541622,15.8974541 C5.64228108,15.8974541 5.76103784,16.0162108 5.76103784,16.1630757 C5.76103784,16.3099405 5.64228108,16.4294 5.49541622,16.4294 C5.34855135,16.4294 5.22979459,16.3099405 5.22979459,16.1630757 C5.22979459,16.0162108 5.34855135,15.8974541 5.49541622,15.8974541" id="Fill-29"></path>
                    <path d="M4.39927027,17.6356595 C4.29597297,17.7396595 4.12732432,17.7396595 4.02402703,17.6356595 C3.91932432,17.5323622 3.91932432,17.3637135 4.02402703,17.2604162 C4.12802703,17.1550108 4.29597297,17.1550108 4.39927027,17.2604162 C4.50397297,17.3637135 4.50397297,17.5323622 4.39927027,17.6356595" id="Fill-31"></path>
                    <path d="M2.92696757,18.465973 C3.07383243,18.465973 3.19329189,18.5854324 3.19329189,18.7322973 C3.19329189,18.8798649 3.07383243,18.9986216 2.92696757,18.9986216 C2.7801027,18.9986216 2.66064324,18.8798649 2.66064324,18.7322973 C2.66064324,18.5854324 2.7801027,18.465973 2.92696757,18.465973" id="Fill-33"></path>
                    <path d="M10.4644378,18.2974649 C10.6113027,18.2974649 10.7300595,18.4162216 10.7300595,18.5630865 C10.7300595,18.7099514 10.6113027,18.8294108 10.4644378,18.8294108 C10.317573,18.8294108 10.1988162,18.7099514 10.1988162,18.5630865 C10.1988162,18.4162216 10.317573,18.2974649 10.4644378,18.2974649" id="Fill-35"></path>
                    <path d="M9.18045946,19.5819351 C9.32732432,19.5819351 9.44608108,19.7006919 9.44608108,19.8475568 C9.44608108,19.9944216 9.32732432,20.1138811 9.18045946,20.1138811 C9.03359459,20.1138811 8.91483784,19.9944216 8.91483784,19.8475568 C8.91483784,19.7006919 9.03359459,19.5819351 9.18045946,19.5819351" id="Fill-37"></path>
                    <path d="M7.89697297,20.8654216 C8.04383784,20.8654216 8.1632973,20.9848811 8.1632973,21.1317459 C8.1632973,21.2793135 8.04383784,21.3980703 7.89697297,21.3980703 C7.75010811,21.3980703 7.63064865,21.2793135 7.63064865,21.1317459 C7.63064865,20.9848811 7.75010811,20.8654216 7.89697297,20.8654216" id="Fill-39"></path>
                    <path d="M6.61144865,22.1504541 C6.75831351,22.1504541 6.87707027,22.2692108 6.87707027,22.4160757 C6.87707027,22.5622378 6.75831351,22.6809946 6.61144865,22.6809946 C6.46458378,22.6809946 6.34582703,22.5622378 6.34582703,22.4160757 C6.34582703,22.2692108 6.46458378,22.1504541 6.61144865,22.1504541" id="Fill-41"></path>
                    <path d="M8.27355135,17.4453676 C8.17025405,17.550773 8.00160541,17.550773 7.89830811,17.4453676 C7.79360541,17.3420703 7.79360541,17.1741243 7.89830811,17.0701243 C8.00230811,16.9661243 8.17025405,16.9661243 8.27355135,17.0701243 C8.37895676,17.1741243 8.37895676,17.3420703 8.27355135,17.4453676" id="Fill-43"></path>
                    <path d="M6.8023027,18.2751189 C6.94916757,18.2751189 7.06862703,18.3945784 7.06862703,18.5414432 C7.06862703,18.6890108 6.94916757,18.8077676 6.8023027,18.8077676 C6.65543784,18.8077676 6.53597838,18.6890108 6.53597838,18.5414432 C6.53597838,18.3945784 6.65543784,18.2751189 6.8023027,18.2751189" id="Fill-45"></path>
                    <path d="M5.70657838,20.0148703 C5.60187568,20.1188703 5.43322703,20.1188703 5.32922703,20.0148703 C5.22452432,19.9108703 5.22452432,19.7415189 5.32922703,19.6375189 C5.43322703,19.535627 5.60187568,19.535627 5.70657838,19.6375189 C5.80987568,19.7415189 5.80987568,19.9108703 5.70657838,20.0148703" id="Fill-47"></path>
                </g>
            </g>
        </g>
    </g>
</svg>