<?xml version="1.0" encoding="UTF-8" standalone="no"?>
<svg width="52px" height="51px" viewBox="0 0 52 51" version="1.1" xmlns="http://www.w3.org/2000/svg" xmlns:xlink="http://www.w3.org/1999/xlink">
    <!-- Generator: Sketch 39.1 (31720) - http://www.bohemiancoding.com/sketch -->
    <title>ico_dolor_green</title>
    <desc>Created with Sketch.</desc>
    <defs></defs>
    <g id="supermercado_categoria" stroke="none" stroke-width="1" fill="none" fill-rule="evenodd">
        <g id="Subcategorias_minifarmacia" transform="translate(-77.000000, -197.000000)" fill="#44D481">
            <g id="icon01-copy-8" transform="translate(77.000000, 197.000000)">
                <g id="dolor_red" transform="translate(18.000000, 13.000000)">
                    <path d="M1.70147826,0.805257143 L1.70147826,5.93617143 C1.70147826,6.37295424 2.0686601,6.74068571 2.50269565,6.74068571 L3.92108696,6.74068571 L3.40369565,6.22068571 L3.40369565,8.216 C3.40369565,8.26389874 3.37511599,8.30632982 3.19552446,8.44052133 C3.14234138,8.4801191 3.07783207,8.52302809 3.00138362,8.56965602 C2.89725115,8.63316916 2.77628919,8.70064863 2.60760506,8.79036983 C2.5643164,8.81339459 2.23605666,8.98593382 2.13500284,9.04011254 C1.50323513,9.37991539 1.11297387,9.64151535 0.761822978,10.0142473 C0.2869083,10.5193991 0.0177391304,11.1630166 0.0177391304,11.8953714 L4.97700512e-07,24.7483073 C-9.56191648e-14,25.1855309 0.366904847,25.5542857 0.801217391,25.5542857 L16.1167391,25.5542857 C16.5513307,25.5542857 16.9172174,25.1852525 16.9172174,24.7490286 L16.8994778,11.8946502 C16.8994783,11.1623709 16.6304262,10.5184737 16.1553944,10.0142473 C15.8042435,9.64151535 15.4139823,9.37991539 14.7828235,9.04043953 C14.6820025,8.98638513 14.3555173,8.81469722 14.3099215,8.79043064 C14.1414456,8.70076599 14.0203771,8.63320367 13.9160658,8.56960733 C13.8394502,8.52289651 13.7746959,8.47988005 13.7204717,8.4396116 C13.5426018,8.30670373 13.5142609,8.26451396 13.5142609,8.216 L13.5142609,6.22068571 L12.9968696,6.74068571 L14.4145217,6.74068571 C14.8485573,6.74068571 15.2157391,6.37295424 15.2157391,5.93617143 L15.2157391,0.805257143 C15.2157391,0.368754787 14.8488343,-1.13686838e-13 14.4145217,-1.13686838e-13 L2.50269565,-1.13686838e-13 C2.02934607,-1.13686838e-13 1.70147826,0.389900974 1.70147826,0.805257143 Z M14.4145217,1.04 C14.2773396,1.04 14.1809565,0.943130927 14.1809565,0.805257143 L14.1809565,5.93617143 C14.1809565,5.79775384 14.2778796,5.70068571 14.4145217,5.70068571 L12.9968696,5.70068571 L12.4794783,5.70068571 L12.4794783,6.22068571 L12.4794783,8.216 C12.4794783,8.65324472 12.6885512,8.96448136 13.1043071,9.27513581 C13.1871489,9.33665935 13.2775413,9.39670718 13.3793745,9.45879267 C13.5042675,9.53493721 13.6409356,9.61120489 13.8256675,9.70952115 C13.8748837,9.7357145 14.1994519,9.90639435 14.2951768,9.95771603 C14.8346891,10.2478993 15.1489009,10.4585218 15.4039969,10.7292955 C15.7015463,11.0451318 15.8646957,11.435582 15.8646957,11.8953714 L15.8824353,24.7497498 C15.8824348,24.6116974 15.9790159,24.5142857 16.1167391,24.5142857 L0.801217391,24.5142857 C0.938399501,24.5142857 1.03478261,24.6111548 1.03478261,24.7490286 L1.05252124,11.8960927 C1.05252174,11.4361899 1.21588885,11.0455586 1.51358989,10.728903 C1.76831654,10.4585218 2.0825283,10.2478993 2.62264955,9.95738905 C2.7185141,9.905993 3.0446902,9.73454898 3.0916305,9.70958195 C3.27669493,9.61114825 3.41335218,9.53491306 3.53823459,9.45874398 C3.64018638,9.39656089 3.73061741,9.33640981 3.81220898,9.27565893 C4.22909296,8.96416247 4.43847826,8.65329651 4.43847826,8.216 L4.43847826,6.22068571 L4.43847826,5.70068571 L3.92108696,5.70068571 L2.50269565,5.70068571 C2.63933782,5.70068571 2.73626087,5.79775384 2.73626087,5.93617143 L2.73626087,0.805257143 C2.73626087,0.929143972 2.64304201,1.04 2.50269565,1.04 L14.4145217,1.04 Z" id="Stroke-1"></path>
                    <path d="M12.9966478,6.74098286 C13.2823952,6.74098286 13.5140391,6.50817093 13.5140391,6.22098286 C13.5140391,5.93379479 13.2823952,5.70098286 12.9966478,5.70098286 L3.92086522,5.70098286 C3.63511789,5.70098286 3.40347391,5.93379479 3.40347391,6.22098286 C3.40347391,6.50817093 3.63511789,6.74098286 3.92086522,6.74098286 L12.9966478,6.74098286 Z" id="Stroke-3"></path>
                    <path d="M16.4072913,15.3949714 C16.6930386,15.3949714 16.9246826,15.1621595 16.9246826,14.8749714 C16.9246826,14.5877834 16.6930386,14.3549714 16.4072913,14.3549714 L0.595813043,14.3549714 C0.310065716,14.3549714 0.0784217391,14.5877834 0.0784217391,14.8749714 C0.0784217391,15.1621595 0.310065716,15.3949714 0.595813043,15.3949714 L16.4072913,15.3949714 Z" id="Stroke-5"></path>
                    <path d="M16.2661174,22.1649257 C16.5518647,22.1649257 16.7835087,21.9321138 16.7835087,21.6449257 C16.7835087,21.3577376 16.5518647,21.1249257 16.2661174,21.1249257 L0.595813043,21.1249257 C0.310065716,21.1249257 0.0784217391,21.3577376 0.0784217391,21.6449257 C0.0784217391,21.9321138 0.310065716,22.1649257 0.595813043,22.1649257 L16.2661174,22.1649257 Z" id="Stroke-7"></path>
                </g>
            </g>
        </g>
    </g>
</svg>