<?xml version="1.0" encoding="UTF-8" standalone="no"?>
<svg width="52px" height="51px" viewBox="0 0 52 51" version="1.1" xmlns="http://www.w3.org/2000/svg" xmlns:xlink="http://www.w3.org/1999/xlink">
    <!-- Generator: Sketch 39.1 (31720) - http://www.bohemiancoding.com/sketch -->
    <title>ico_vitaminas_green</title>
    <desc>Created with Sketch.</desc>
    <defs></defs>
    <g id="supermercado_categoria" stroke="none" stroke-width="1" fill="none" fill-rule="evenodd">
        <g id="Subcategorias_minifarmacia" transform="translate(-139.000000, -197.000000)" fill="#44D481">
            <g id="icon01-copy-9" transform="translate(139.000000, 197.000000)">
                <g id="vitaminas_minerales_naturales_red" transform="translate(13.000000, 13.000000)">
                    <path d="M11.7554534,3.19383462 C14.5100512,0.439262872 19.0262147,0.439262872 21.7880324,3.19734636 C24.5447874,5.95484827 24.5447874,10.4710951 21.7874383,13.2329252 L17.1121625,17.9033622 L17.8948085,17.8886543 L6.69319557,7.50962207 L6.71190499,8.31964107 L11.7554534,3.19383462 Z M5.92583669,8.33779728 L17.1274496,18.7168295 C17.3499239,18.9229667 17.6955232,18.916472 17.9100955,18.7021217 L22.585902,14.031154 C25.7839223,10.8279371 25.7839223,5.5974098 22.5861627,2.3987841 C19.3831401,-0.799908034 14.1525294,-0.799908034 10.9538913,2.39873004 L5.90712727,7.52777829 C5.68380575,7.75474208 5.69227432,8.12138637 5.92583669,8.33779728 Z" id="Stroke-1"></path>
                    <path d="M13.2324397,21.7836494 C10.4754236,24.5406655 5.95841199,24.5406655 3.1965909,21.7833254 C1.85612007,20.4428543 1.12919355,18.640305 1.12919355,16.7658871 C1.12919355,14.8914692 1.85612007,13.0889198 3.19691512,11.7481248 L7.43301533,7.51605675 L8.35816588,6.67233648 L7.58398949,6.66008145 L8.34931208,7.40443629 L11.7245554,10.7095513 L18.4822243,17.3398087 L18.4784075,16.5376817 L13.2324397,21.7836494 Z M19.272937,16.533901 L12.5148725,9.90325584 L9.13786398,6.59641644 L8.3711718,5.850725 C8.15700999,5.64243064 7.81764277,5.63705854 7.59699541,5.83846997 L6.65344703,6.69976029 L2.39875886,10.9495884 C0.843288004,12.5050592 0.000161290322,14.5957485 0.000161290322,16.7658871 C0.000161290322,18.9360257 0.843288004,21.026715 2.39856875,22.5819958 C5.60158801,25.7798184 10.8329635,25.7798184 14.0307861,22.5819958 L19.2767538,17.336028 C19.4986961,17.1140858 19.4969813,16.7537211 19.272937,16.533901 Z" id="Stroke-3"></path>
                    <path d="M22.1862097,2.79862903 L21.7870905,3.19785625 C24.5456025,5.95562144 24.5456025,10.4723415 21.7870365,13.2309075 L13.2338483,21.7824827 C10.4744709,24.5411134 5.95681942,24.5411134 3.19742561,21.7824663 C0.439693078,19.023987 0.439693078,14.5079484 3.19753367,11.7493611 L11.7514554,3.19785867 C14.5100869,0.439227219 19.027655,0.439227219 21.78623,3.19780222 C21.8920974,3.30366953 22.0356842,3.36314516 22.1854032,3.36314516 L22.1862097,2.79862903 Z M22.1854032,2.79862903 L22.5845764,2.39945585 C19.3850869,-0.80003367 14.152655,-0.80003367 10.9531655,2.39945585 L2.39918973,10.9510123 C-0.799531788,14.1505999 -0.799531788,19.3813355 2.39907924,22.5808127 C5.5994709,25.7803382 10.8318194,25.7803382 14.032103,22.5809208 L22.5853452,14.0292915 C25.7848814,10.8297553 25.7848814,5.59808823 22.5853288,2.39940182 C22.4794659,2.29356756 22.3359022,2.2341129 22.1862097,2.2341129 L22.1854032,2.79862903 Z" id="Stroke-5"></path>
                    <path d="M15.2289125,1.98990636 C14.0940866,2.26517293 13.0621374,2.84450122 12.230133,3.67736164 L10.8836762,5.02220551 C10.7261124,5.17958061 10.7259595,5.43488902 10.8833345,5.59245282 C11.0407096,5.75001661 11.2960181,5.75016958 11.4535818,5.59279449 L12.800356,4.2476332 C13.5278432,3.51939797 14.4281315,3.01398308 15.4193255,2.77355614 C15.6755153,2.71119924 15.9383248,2.66667444 16.2058832,2.64022093 C16.4274981,2.61830985 16.5893901,2.42089302 16.567479,2.19927809 C16.5455679,1.97766317 16.3481511,1.81577122 16.1265362,1.8376823 C15.8216744,1.867824 15.5216481,1.91865401 15.2289125,1.98990636 Z" id="Stroke-7"></path>
                    <path d="M12.754156,21.3038334 L14.6509302,19.4070592 C14.8083996,19.2495897 14.8083996,18.9942813 14.6509302,18.8368118 C14.4934607,18.6793423 14.2381522,18.6793423 14.0806827,18.8368118 L12.1839086,20.733586 C11.6114929,21.3060016 10.9309682,21.7417127 10.1799292,22.0195669 C9.97106887,22.0968368 9.86439375,22.3287911 9.94166365,22.5376515 C10.0189335,22.7465118 10.2508879,22.8531869 10.4597482,22.775917 C11.319789,22.4577366 12.0994127,21.9585766 12.754156,21.3038334 Z" id="Stroke-9"></path>
                </g>
            </g>
        </g>
    </g>
</svg>