<?xml version="1.0" encoding="UTF-8" standalone="no"?>
<svg width="52px" height="51px" viewBox="0 0 52 51" version="1.1" xmlns="http://www.w3.org/2000/svg" xmlns:xlink="http://www.w3.org/1999/xlink">
    <!-- Generator: Sketch 39.1 (31720) - http://www.bohemiancoding.com/sketch -->
    <title>ico_cuidadopiel_grey</title>
    <desc>Created with Sketch.</desc>
    <defs></defs>
    <g id="supermercado_categoria" stroke="none" stroke-width="1" fill="none" fill-rule="evenodd">
        <g id="Subcategorias_minifarmacia" transform="translate(-388.000000, -14.000000)" fill="#D4D4D4">
            <g id="icon01-copy-6" transform="translate(388.000000, 14.000000)">
                <g id="piel_dgreen" transform="translate(12.000000, 14.000000)">
                    <path d="M24.2804,11.184048 C23.9990044,11.184048 23.7616169,11.2902779 23.5703353,11.4818539 C23.4931436,11.5591643 23.435119,11.6534693 23.4009044,11.7572229 C23.3704114,11.849691 23.3516675,11.9385714 23.3426225,12.0306705 C23.3364242,12.0937837 23.3354968,12.1333635 23.3354968,12.221728 L23.3598203,12.4046524 C23.4985521,12.9170925 23.5722808,13.1673783 23.6835572,13.4742409 L23.9206856,14.2167573 C24.321155,15.37474 23.7146232,16.6331872 22.5786144,17.0281005 C22.3262795,17.1026356 22.0944028,17.142168 21.8582065,17.142168 C20.9332331,17.142168 20.0938355,16.5370779 19.7905588,15.6500965 C19.7763629,15.6069385 19.748719,15.4724394 19.748719,15.4724394 L19.5340093,14.5509594 C19.3543378,13.7397691 19.2036974,12.9548625 19.0839212,12.203877 L19.0518737,12.0137299 C18.9380313,11.5403736 18.5803658,11.215128 18.1167226,11.215128 L16.9207226,11.215128 C16.6402787,11.215128 16.4022702,11.3201868 16.2106578,11.5120939 C15.9293978,11.7937866 15.8876521,12.2073664 16.0469824,12.53095 L16.6749806,12.221728 L15.999729,12.4062145 C16.0716905,12.6696055 16.1025638,12.7804453 16.1457828,12.9268519 C16.204507,13.1257834 16.2617931,13.303027 16.3238798,13.4742409 L16.5599583,14.2160963 C16.7557001,14.8030794 16.7258279,15.383132 16.4726621,15.9135797 C16.2160376,16.4512743 15.7795099,16.8404784 15.2266666,17.0254639 C14.96698,17.1025229 14.7341316,17.142168 14.4976903,17.142168 C13.5732106,17.142168 12.7334259,16.5367989 12.4310269,15.6505226 C12.4093651,15.5862109 12.4093651,15.5862109 12.386731,15.5181031 C12.3637463,15.4488311 12.3637463,15.4488311 12.3398472,15.377348 L12.1432996,14.5198794 C12.0455341,14.0951188 11.9790635,13.7486882 11.8388432,12.9657198 C11.7659904,12.5589215 11.7331186,12.378643 11.6893751,12.1509703 L11.661164,11.9826499 C11.5466944,11.5096236 11.1896443,11.184048 10.7260129,11.184048 L9.5300129,11.184048 C9.24861731,11.184048 9.01122981,11.2902779 8.81994817,11.4818539 C8.53868817,11.7635466 8.49694241,12.1771264 8.65627276,12.50071 L9.28427097,12.191488 L8.60901937,12.3759745 C8.65543064,12.5458569 8.67678532,12.6233145 8.70412561,12.7198733 C8.78269033,12.9973435 8.8531578,13.2225142 8.93317008,13.4431609 L9.16924865,14.1850163 C9.36499597,14.7726754 9.33515404,15.351977 9.08195246,15.8824997 C8.82509996,16.420672 8.38845496,16.8101444 7.836639,16.994156 C7.57652414,17.0721351 7.34372077,17.111928 7.10698065,17.111928 C6.18293082,17.111928 5.34278131,16.5061118 5.04026751,15.6201368 C5.01811133,15.5537448 5.00488345,15.5147914 4.98994857,15.4735036 C4.96414167,15.4021599 4.93969525,15.3425375 4.91013632,15.2841288 L4.28556129,15.600208 L4.9672996,15.4413594 L4.75258992,14.5198794 C4.65526144,14.0803676 4.58867328,13.7332832 4.44785046,12.9571488 C4.37524939,12.5570136 4.34229189,12.3780337 4.29866543,12.1509703 L4.27045436,11.9826499 L3.58020645,12.099088 L4.28020645,12.099088 C4.28020645,11.5902221 3.8757643,11.184048 3.36549677,11.184048 L1.58743226,11.184048 C1.20083293,11.184048 0.887432258,11.4974487 0.887432258,11.884048 C0.887432258,12.2706473 1.20083293,12.584048 1.58743226,12.584048 L3.36549677,12.584048 C3.10122325,12.584048 2.88020645,12.3620847 2.88020645,12.099088 L2.88995855,12.2155261 L2.9209908,12.3994861 C2.96622951,12.6358968 2.9985962,12.8116682 3.0703413,13.2070859 C3.21430956,14.000556 3.28328343,14.3600757 3.38742261,14.8301374 L3.60382298,15.7590566 L3.66098626,15.9162872 C3.66008517,15.9145066 3.66525068,15.9271048 3.67343207,15.9497224 C3.68286626,15.9758034 3.69118867,16.0003112 3.71424314,16.069188 C4.21069493,17.5231784 5.58189883,18.511928 7.10698065,18.511928 C7.49278588,18.511928 7.8576581,18.4495607 8.25984123,18.3285 C9.19423047,18.0172342 9.92583874,17.3646646 10.3454282,16.4855163 C10.7570007,15.6231655 10.8061491,14.6690813 10.5002467,13.751008 L10.258132,12.9917997 C10.1823777,12.7813258 10.1213355,12.5862725 10.051169,12.3384627 C10.025391,12.2474215 10.0053694,12.1747991 9.95952257,12.0070015 L9.91226917,11.882266 C10.0034724,12.0674905 9.9798422,12.3015979 9.81065828,12.4710421 C9.74847341,12.5333227 9.63511971,12.584048 9.5300129,12.584048 L10.7260129,12.584048 C10.4982102,12.584048 10.3321238,12.4326024 10.2912125,12.2664287 L10.3117005,12.3994861 C10.356784,12.6350892 10.3889534,12.8115156 10.460768,13.2125167 C10.6050042,14.0179093 10.6743823,14.379493 10.7793983,14.835743 L10.9945327,15.7590566 C11.0351343,15.8901849 11.0351343,15.8901849 11.058069,15.9593029 C11.0813542,16.0293751 11.0813542,16.0293751 11.1055718,16.1012628 C11.601198,17.5538573 12.9722098,18.542168 14.4976903,18.542168 C14.8823875,18.542168 15.245921,18.4802722 15.6488672,18.3600845 C16.5856979,18.0470165 17.3168372,17.3951395 17.7361379,16.5165963 C18.1477105,15.6542453 18.1968935,14.6992197 17.8908807,13.781861 L17.6488417,13.0228797 C17.5884878,12.8548749 17.5397071,12.7039472 17.4885011,12.5304841 C17.4488935,12.3963111 17.419657,12.2913478 17.3502322,12.0372415 L17.3029788,11.912506 C17.3941821,12.0977305 17.3705519,12.3318379 17.201368,12.5012821 C17.137946,12.5648016 17.0239327,12.615128 16.9207226,12.615128 L18.1167226,12.615128 C17.8895541,12.615128 17.7224232,12.4631463 17.6816586,12.2964348 L17.7024102,12.4305661 C17.8256889,13.2036906 17.9815826,14.0159691 18.168842,14.8612174 L18.3852423,15.7901366 L19.0669806,15.631288 L18.3669806,15.631288 C18.3669806,15.789932 18.3870189,15.8642222 18.4610675,16.0886602 C18.9620972,17.5543822 20.3323809,18.542168 21.8582065,18.542168 C22.2427901,18.542168 22.6052776,18.4803679 23.0085446,18.3600845 C24.9053505,17.7014337 25.8962636,15.6454624 25.2488878,13.7744768 L25.0083079,13.0222187 C24.9058346,12.7381414 24.8399879,12.5146126 24.7111732,12.0388036 L24.0354968,12.221728 L24.7354968,12.221728 C24.7354968,12.1801025 24.735752,12.16921 24.7359194,12.1675055 C24.7349074,12.1778098 24.7323182,12.1900876 24.7304763,12.1956731 L24.0656903,11.976448 L24.5610454,12.4710421 C24.4988605,12.5333227 24.3855068,12.584048 24.2804,12.584048 L26.6237548,12.584048 C27.0103542,12.584048 27.3237548,12.2706473 27.3237548,11.884048 C27.3237548,11.4974487 27.0103542,11.184048 26.6237548,11.184048 L24.2804,11.184048 Z" id="Stroke-1"></path>
                    <path d="M0.887096774,21.7543 C0.887096774,22.1408993 1.20049745,22.4543 1.58709677,22.4543 L26.8045806,22.4543 C27.19118,22.4543 27.5045806,22.1408993 27.5045806,21.7543 L27.5045806,14.05486 C27.5045806,13.6682607 27.19118,13.35486 26.8045806,13.35486 C26.4179813,13.35486 26.1045806,13.6682607 26.1045806,14.05486 L26.1045806,21.7543 L26.8045806,21.0543 L1.58709677,21.0543 L2.28709677,21.7543 L2.28709677,13.84486 C2.28709677,13.4582607 1.9736961,13.14486 1.58709677,13.14486 C1.20049745,13.14486 0.887096774,13.4582607 0.887096774,13.84486 L0.887096774,21.7543 Z" id="Stroke-3"></path>
                    <path d="M6.57763654,15.0654665 C6.55472991,14.987204 6.44481708,14.6831887 6.41782224,14.5991167 C6.28850654,14.1963793 6.13947359,13.6491561 5.99922777,13.0489323 C5.83421477,12.3427099 5.69021152,11.5978948 5.57745147,10.8419317 C5.49551583,10.3034577 5.45347794,9.97140666 5.42822845,9.60916832 C5.39712633,9.17219579 5.36622599,8.72832698 5.33686909,8.29627996 C5.33801935,8.20120753 5.33622255,8.09823228 5.33098696,7.87407841 C5.32102403,7.44753004 5.32102403,7.26616042 5.3366868,7.05205591 C5.33801935,6.60664057 5.3676558,6.18843085 5.42377194,5.81888036 C5.43421919,5.74766213 5.43963132,5.69965377 5.45116274,5.58632275 C5.45580524,5.54079514 5.45580524,5.54079514 5.46040334,5.49880743 C5.47164454,5.3994185 5.48353942,5.33197155 5.50215553,5.26735344 C5.52559802,5.14525674 5.52559802,5.14525674 5.53590475,5.08140067 C5.5487399,5.00167849 5.5487399,5.00167849 5.561504,4.92217404 C5.58443545,4.77934049 5.58443545,4.77934049 5.60746203,4.63721194 C5.65621424,4.33355408 5.72235955,4.06329237 5.8393395,3.65699469 C5.89024426,3.51912131 5.91984985,3.40116137 5.97148455,3.15516979 C5.97424173,3.17057594 5.97853346,3.15853062 6.03113924,3.00602918 C6.05365587,2.94075461 6.0671399,2.90531878 6.08196309,2.87325485 C6.20366368,2.54708209 6.28270027,2.35612874 6.35090696,2.2295329 C6.49905828,1.94043427 6.59571582,1.73516102 6.64586128,1.62010559 L6.18750323,1.420336 L5.70770142,1.27965825 C5.67783692,1.38151543 5.61743341,1.57864331 5.52692615,1.86051668 C5.45136976,2.09582745 5.38992844,2.31942173 5.33121582,2.58363222 C5.3181245,2.63666494 5.30251189,2.70596244 5.28425697,2.79124137 C5.26245184,2.89425905 5.26245184,2.89425905 5.24111601,2.99652359 C5.23587278,3.02176067 5.23587278,3.02176067 5.23468091,3.02762582 C5.18427171,3.27569432 5.16582581,3.40103618 5.16582581,3.581656 C5.16048122,3.61217493 5.15749563,3.63784234 5.13205646,3.84972253 C5.09054639,4.19545554 5.07356774,4.39180705 5.07356774,4.620736 C5.07356774,4.68260933 5.07031271,4.73742635 5.06003074,4.86729282 C5.04766755,5.02344635 5.04337419,5.09574933 5.04337419,5.192776 L5.04337419,5.786656 C5.04337419,6.21736045 5.0759293,6.66551311 5.13994158,7.10814089 C5.15482898,7.32871753 5.18365752,7.52750136 5.25750312,7.96423412 C5.29313715,8.1749785 5.30807106,8.2665916 5.32445771,8.37990089 L5.33051496,8.41359625 C5.35442313,8.52453392 5.37223152,8.61422895 5.41179072,8.81928894 C5.49711334,9.26156931 5.54065785,9.4622249 5.61493275,9.71902039 C5.68502025,10.046623 5.76643422,10.3374526 5.94036844,10.9103204 C5.94718064,10.9327545 5.94718064,10.9327545 5.95398319,10.9551529 C6.14364564,11.6481597 6.39046312,12.3510436 6.70458804,13.1359534 C7.00106866,13.8803309 7.1856455,14.3294659 7.32631815,14.6404997 C7.40972318,14.7967052 7.4638447,14.9182947 7.49450987,15.0044599 C7.52516417,15.0883223 7.55371985,15.1547049 7.57479747,15.1992705 C7.58833245,15.2258181 7.53711229,15.2978303 7.31428023,15.3430393 C7.0096518,15.4215477 6.68977036,15.3126771 6.64790192,15.2138354 L6.18750323,15.408856 L6.68750323,15.408856 C6.68750323,15.2377252 6.60235788,15.0648678 6.43669513,14.9527613 L6.15647097,15.366856 L6.60615787,15.1482658 C6.60309374,15.1419622 6.5912844,15.1122672 6.57763654,15.0654665 Z M5.8762468,15.7809507 C5.75713244,15.7003442 5.68750323,15.5589868 5.68750323,15.408856 L5.72710453,15.6038766 C5.98712655,16.2177286 6.82501381,16.5029007 7.5396174,16.3169403 C8.3216556,16.1590324 8.83872838,15.4320626 8.46606162,14.7466581 C8.4696737,14.7524471 8.4525197,14.7125697 8.43514125,14.6650583 C8.38863536,14.5343256 8.31331666,14.3651145 8.22115839,14.1956181 C8.10527876,13.9361479 7.92430597,13.4957828 7.6333046,12.7651639 C7.33175135,12.0116653 7.0966878,11.3422542 6.91463687,10.6777431 C6.90402653,10.6421586 6.90402653,10.6421586 6.89723606,10.6197962 C6.73083499,10.0717394 6.65474236,9.79991884 6.58382362,9.47383645 C6.51246752,9.22304624 6.4733115,9.04261302 6.39368637,8.62986631 C6.3527575,8.41770645 6.33401072,8.32328508 6.30808795,8.20299938 C6.29625168,8.11292856 6.28047492,8.01614497 6.2435074,7.79751413 C6.17492684,7.39191951 6.14909376,7.21379052 6.13346099,7.00009609 C6.07245507,6.56955459 6.04337419,6.16922797 6.04337419,5.786656 L6.04337419,5.192776 C6.04337419,5.13090267 6.04662923,5.07608565 6.05691119,4.94621918 C6.06927439,4.79006565 6.07356774,4.71776267 6.07356774,4.620736 C6.07356774,4.44322275 6.08794991,4.27689849 6.12492578,3.96893033 C6.15155512,3.74713734 6.15470384,3.72006754 6.16346724,3.63016378 C6.16582581,3.48811342 6.17706877,3.4117163 6.21465259,3.2267627 C6.24139153,3.09841847 6.24139153,3.09841847 6.26210432,3.00056063 C6.27850271,2.9239546 6.29214318,2.86341057 6.30498539,2.81091983 C6.35919008,2.56751704 6.41254455,2.373352 6.47904805,2.16623532 C6.5722182,1.87606869 6.63510501,1.67083657 6.66730503,1.56101375 C6.84343259,0.960305253 5.9792553,0.646705325 5.72914517,1.22056641 C5.68703256,1.31719098 5.59917398,1.50377773 5.46567804,1.76449531 C5.37339104,1.93555423 5.27898166,2.16364841 5.1647223,2.47886521 C5.14194279,2.5235469 5.11846608,2.58524337 5.0858027,2.67993282 C5.04140768,2.80863171 5.03876326,2.81605362 5.01981441,2.86206879 C4.95027281,3.15240319 4.92928405,3.23603041 4.88853905,3.34895031 C4.75115326,3.82219274 4.6766027,4.12679722 4.62027664,4.47763796 C4.59713552,4.62047151 4.59713552,4.62047151 4.57414761,4.76365796 C4.56140096,4.84305351 4.56140096,4.84305351 4.54865345,4.92223133 C4.53844228,4.98549526 4.53844228,4.98549526 4.52818958,5.04862006 C4.50466204,5.11747691 4.4837383,5.23611981 4.46673878,5.38642088 C4.46116104,5.43737222 4.46116104,5.43737222 4.4562994,5.48509556 C4.44627077,5.5836572 4.44193382,5.6221281 4.43472651,5.67129126 C4.37120013,6.08959765 4.33801935,6.5578226 4.33801935,7.015576 C4.3205344,7.23632491 4.3205344,7.43824419 4.33125963,7.89742915 C4.33631448,8.11384491 4.33801935,8.21155187 4.33801935,8.330176 C4.36860037,8.79720595 4.39957502,9.24214224 4.43070048,9.679435 C4.45824902,10.0746641 4.50310869,10.4290039 4.58861263,10.9909135 C4.7052734,11.7730425 4.85441966,12.5444583 5.0254561,13.2764597 C5.17157462,13.9018175 5.32764232,14.4748712 5.46570034,14.9048353 C5.50183373,15.0173682 5.60575628,15.3048146 5.61544336,15.3378538 C5.64810636,15.4499525 5.68042772,15.5312256 5.70678406,15.5854462 C5.74514052,15.6643537 5.80358479,15.7317792 5.8762468,15.7809507 Z" id="Stroke-5"></path>
                    <path d="M13.9683462,15.0654665 C13.9454396,14.987204 13.8355268,14.6831887 13.8085319,14.5991167 C13.6792162,14.1963793 13.5301833,13.6491561 13.3899374,13.0489323 C13.2249245,12.3427099 13.0809212,11.5978948 12.9681612,10.8419317 C12.8862255,10.3034577 12.8441876,9.97140666 12.8189381,9.60916832 C12.787836,9.17219579 12.7569357,8.72832698 12.7275788,8.29627996 C12.728729,8.20120753 12.7269322,8.09823228 12.7216966,7.87407841 C12.7117337,7.44753004 12.7117337,7.26616042 12.7273965,7.05205591 C12.728729,6.60664057 12.7583655,6.18843085 12.8144816,5.81888036 C12.8249289,5.74766213 12.830341,5.69965377 12.8418724,5.58632275 C12.8465149,5.54079514 12.8465149,5.54079514 12.851113,5.49880743 C12.8623542,5.3994185 12.8742491,5.33197155 12.8928652,5.26735344 C12.9163077,5.14525674 12.9163077,5.14525674 12.9266144,5.08140067 C12.9394496,5.00167849 12.9394496,5.00167849 12.9522137,4.92217404 C12.9751451,4.77934049 12.9751451,4.77934049 12.9981717,4.63721194 C13.0469239,4.33355408 13.1130692,4.06329237 13.2300492,3.65699469 C13.2809539,3.51912131 13.3105595,3.40116137 13.3621942,3.15516979 C13.3649514,3.17057594 13.3692431,3.15853062 13.4218489,3.00602918 C13.4443655,2.94075461 13.4578496,2.90531878 13.4726728,2.87325485 C13.5943734,2.54708209 13.6734099,2.35612874 13.7416166,2.2295329 C13.889768,1.94043427 13.9864255,1.73516102 14.036571,1.62010559 L13.5782129,1.420336 L13.0984111,1.27965825 C13.0685466,1.38151543 13.0081431,1.57864331 12.9176358,1.86051668 C12.8420794,2.09582745 12.7806381,2.31942173 12.7219255,2.58363222 C12.7088342,2.63666494 12.6932216,2.70596244 12.6749666,2.79124137 C12.6531615,2.89425905 12.6531615,2.89425905 12.6318257,2.99652359 C12.6265825,3.02176067 12.6265825,3.02176067 12.6253906,3.02762582 C12.5749814,3.27569432 12.5565355,3.40103618 12.5565355,3.581656 C12.5511909,3.61217493 12.5482053,3.63784234 12.5227661,3.84972253 C12.4812561,4.19545554 12.4642774,4.39180705 12.4642774,4.620736 C12.4642774,4.68260933 12.4610224,4.73742635 12.4507404,4.86729282 C12.4383772,5.02344635 12.4340839,5.09574933 12.4340839,5.192776 L12.4340839,5.786656 C12.4340839,6.21736045 12.466639,6.66551311 12.5306513,7.10814089 C12.5455387,7.32871753 12.5743672,7.52750136 12.6482128,7.96423412 C12.6838468,8.1749785 12.6987807,8.2665916 12.7151674,8.37990089 L12.7212745,8.41382747 C12.7451328,8.52453392 12.7629412,8.61422895 12.8025004,8.81928894 C12.887823,9.26156931 12.9313675,9.4622249 13.0056424,9.71902039 C13.0757299,10.046623 13.1571439,10.3374526 13.3310781,10.9103204 C13.3378903,10.9327545 13.3378903,10.9327545 13.3446929,10.9551529 C13.5343553,11.6481597 13.7811728,12.3510436 14.0952977,13.1359534 C14.3917783,13.8803309 14.5763552,14.3294659 14.7170278,14.6404997 C14.8004329,14.7967052 14.8545544,14.9182947 14.8852195,15.0044599 C14.9158738,15.0883223 14.9444295,15.1547049 14.9655071,15.1992705 C14.9790421,15.2258181 14.927822,15.2978303 14.7049899,15.3430393 C14.4003615,15.4215477 14.08048,15.3126771 14.0386116,15.2138354 C14.0009602,15.1249492 13.9383836,15.0488624 13.8584371,14.9947613 C13.8813702,15.0104817 13.8813702,15.0104817 13.9188848,15.044832 C13.9822671,15.1018591 14.0471806,15.2116791 14.0471806,15.366856 C14.0471806,15.2911225 14.0299768,15.2163785 13.9968676,15.1482658 C13.9938034,15.1419622 13.9819941,15.1122672 13.9683462,15.0654665 Z M13.5471806,15.366856 L13.0471806,15.366856 C13.0471806,15.5404079 13.1198523,15.6633529 13.2065088,15.74663 C13.2672976,15.8019803 13.2672976,15.8019803 13.2979887,15.8229507 L13.5782129,15.408856 L13.1178142,15.6038766 C13.3778362,16.2177286 14.2157235,16.5029007 14.9303271,16.3169403 C15.7123653,16.1590324 16.2294381,15.4320626 15.8567713,14.7466581 C15.8603834,14.7524471 15.8432294,14.7125697 15.8258509,14.6650583 C15.779345,14.5343256 15.7040263,14.3651145 15.6118681,14.1956181 C15.4959884,13.9361479 15.3150157,13.4957828 15.0240143,12.7651639 C14.722461,12.0116653 14.4873975,11.3422542 14.3053465,10.6777431 C14.2947362,10.6421586 14.2947362,10.6421586 14.2879457,10.6197962 C14.1215447,10.0717394 14.045452,9.79991884 13.9745333,9.47383645 C13.9031772,9.22304624 13.8640212,9.04261302 13.784396,8.62986631 C13.7434672,8.41770645 13.7247204,8.32328508 13.6987976,8.20299938 C13.6869614,8.11292856 13.6711846,8.01614497 13.6342171,7.79751413 C13.5656365,7.39191951 13.5398034,7.21379052 13.5241707,7.00009609 C13.4631648,6.56955459 13.4340839,6.16922797 13.4340839,5.786656 L13.4340839,5.192776 C13.4340839,5.13090267 13.4373389,5.07608565 13.4476209,4.94621918 C13.4599841,4.79006565 13.4642774,4.71776267 13.4642774,4.620736 C13.4642774,4.44322275 13.4786596,4.27689849 13.5156355,3.96893033 C13.5422648,3.74713734 13.5454135,3.72006754 13.5541769,3.63016378 C13.5565355,3.48811342 13.5677784,3.4117163 13.6053623,3.2267627 C13.6321012,3.09841847 13.6321012,3.09841847 13.652814,3.00056063 C13.6692124,2.9239546 13.6828529,2.86341057 13.6956951,2.81091983 C13.7498998,2.56751704 13.8032542,2.373352 13.8697577,2.16623532 C13.9629279,1.87606869 14.0258147,1.67083657 14.0580147,1.56101375 C14.2341423,0.960305253 13.369965,0.646705325 13.1198548,1.22056641 C13.0777422,1.31719098 12.9898837,1.50377773 12.8563877,1.76449531 C12.7641007,1.93555423 12.6696913,2.16364841 12.555432,2.47886521 C12.5326525,2.5235469 12.5091758,2.58524337 12.4765124,2.67993282 C12.4321174,2.80863171 12.4294729,2.81605362 12.4105241,2.86206879 C12.3409825,3.15240319 12.3199937,3.23603041 12.2792487,3.34895031 C12.1418629,3.82219274 12.0673124,4.12679722 12.0109863,4.47763796 C11.9878452,4.62047151 11.9878452,4.62047151 11.9648573,4.76365796 C11.9521106,4.84305351 11.9521106,4.84305351 11.9393631,4.92223133 C11.929152,4.98549526 11.929152,4.98549526 11.9188993,5.04862006 C11.8953717,5.11747691 11.874448,5.23611981 11.8574485,5.38642088 C11.8518707,5.43737222 11.8518707,5.43737222 11.8470091,5.48509556 C11.8369804,5.5836572 11.8326435,5.6221281 11.8254362,5.67129126 C11.7619098,6.08959765 11.728729,6.5578226 11.728729,7.015576 C11.7112441,7.23632491 11.7112441,7.43824419 11.7219693,7.89742915 C11.7270242,8.11384491 11.728729,8.21155187 11.728729,8.330176 C11.7593101,8.79720595 11.7902847,9.24214224 11.8214102,9.679435 C11.8489587,10.0746641 11.8938184,10.4290039 11.9793223,10.9909135 C12.0959831,11.7730425 12.2451293,12.5444583 12.4161658,13.2764597 C12.5622843,13.9018175 12.718352,14.4748712 12.85641,14.9048353 C12.8925434,15.0173682 12.996466,15.3048146 13.006153,15.3378538 C13.038816,15.4499525 13.0711374,15.5312256 13.0974937,15.5854462 L13.5471806,15.366856 Z" id="Stroke-7"></path>
                    <path d="M21.358972,15.0654665 C21.3360654,14.987204 21.2261526,14.6831887 21.1991577,14.5991167 C21.069842,14.1963793 20.9208091,13.6491561 20.7805633,13.0489323 C20.6155503,12.3427099 20.471547,11.5978948 20.358787,10.8419317 C20.2768513,10.3034577 20.2348134,9.97140666 20.2095639,9.60916832 C20.1784618,9.17219579 20.1475615,8.72832698 20.1182046,8.29627996 C20.1193548,8.20120753 20.117558,8.09823228 20.1123224,7.87407841 C20.1023595,7.44753004 20.1023595,7.26616042 20.1180223,7.05205591 C20.1193548,6.60664057 20.1489913,6.18843085 20.2051074,5.81888036 C20.2155547,5.74766213 20.2209668,5.69965377 20.2324982,5.58632275 C20.2371407,5.54079514 20.2371407,5.54079514 20.2417388,5.49880743 C20.25298,5.3994185 20.2648749,5.33197155 20.283491,5.26735344 C20.3069335,5.14525674 20.3069335,5.14525674 20.3172402,5.08140067 C20.3300754,5.00167849 20.3300754,5.00167849 20.3428395,4.92217404 C20.3657709,4.77934049 20.3657709,4.77934049 20.3887975,4.63721194 C20.4375497,4.33355408 20.503695,4.06329237 20.620675,3.65699469 C20.6715797,3.51912131 20.7011853,3.40116137 20.75282,3.15516979 C20.7555772,3.17057594 20.7598689,3.15853062 20.8124747,3.00602918 C20.8349914,2.94075461 20.8484754,2.90531878 20.8632986,2.87325485 C20.9849992,2.54708209 21.0640358,2.35612874 21.1322424,2.2295329 C21.2803938,1.94043427 21.3770513,1.73516102 21.4271968,1.62010559 L20.9688387,1.420336 L20.4890369,1.27965825 C20.4591724,1.38151543 20.3987689,1.57864331 20.3082616,1.86051668 C20.2327052,2.09582745 20.1712639,2.31942173 20.1125513,2.58363222 C20.09946,2.63666494 20.0838474,2.70596244 20.0655925,2.79124137 C20.0437873,2.89425905 20.0437873,2.89425905 20.0224515,2.99652359 C20.0172083,3.02176067 20.0172083,3.02176067 20.0160164,3.02762582 C19.9656072,3.27569432 19.9471613,3.40103618 19.9471613,3.581656 C19.9418167,3.61217493 19.9388311,3.63784234 19.9133919,3.84972253 C19.8718819,4.19545554 19.8549032,4.39180705 19.8549032,4.620736 C19.8549032,4.68260933 19.8516482,4.73742635 19.8413662,4.86729282 C19.829003,5.02344635 19.8247097,5.09574933 19.8247097,5.192776 L19.8247097,5.786656 C19.8247097,6.21736045 19.8572648,6.66551311 19.9212771,7.10814089 C19.9361645,7.32871753 19.964993,7.52750136 20.0388386,7.96423412 C20.0744726,8.1749785 20.0894065,8.2665916 20.1057932,8.37990089 L20.1119003,8.41382747 C20.1357586,8.52453392 20.153567,8.61422895 20.1931262,8.81928894 C20.2784488,9.26156931 20.3219933,9.4622249 20.3962682,9.71902039 C20.4663557,10.046623 20.5477697,10.3374526 20.7217039,10.9103204 C20.7285161,10.9327545 20.7285161,10.9327545 20.7353187,10.9551529 C20.9249811,11.6481597 21.1717986,12.3510436 21.4859235,13.1359534 C21.7824041,13.8803309 21.966981,14.3294659 22.1076536,14.6404997 C22.1910587,14.7967052 22.2451802,14.9182947 22.2758454,15.0044599 C22.3064997,15.0883223 22.3350553,15.1547049 22.356133,15.1992705 C22.3696679,15.2258181 22.3184478,15.2978303 22.0956157,15.3430393 C21.7909873,15.4215477 21.4711058,15.3126771 21.4292374,15.2138354 C21.3509249,15.0289576 21.1696188,14.908856 20.9688387,14.908856 C21.3154651,14.908856 21.4378065,15.1572268 21.4378065,15.366856 C21.4378065,15.2911225 21.4206026,15.2163785 21.3874934,15.1482658 C21.3844292,15.1419622 21.3726199,15.1122672 21.358972,15.0654665 Z M20.9378065,15.366856 L20.4378065,15.366856 C20.4378065,15.6394852 20.5704919,15.908856 20.9688387,15.908856 L20.9688387,15.408856 L20.50844,15.6038766 C20.768462,16.2177286 21.6063493,16.5029007 22.3209529,16.3169403 C23.1029911,16.1590324 23.6200639,15.4320626 23.2473971,14.7466581 C23.2510092,14.7524471 23.2338552,14.7125697 23.2164767,14.6650583 C23.1699708,14.5343256 23.0946521,14.3651145 23.0024939,14.1956181 C22.8866142,13.9361479 22.7056415,13.4957828 22.4146401,12.7651639 C22.1130868,12.0116653 21.8780233,11.3422542 21.6959724,10.6777431 C21.685362,10.6421586 21.685362,10.6421586 21.6785715,10.6197962 C21.5121705,10.0717394 21.4360778,9.79991884 21.3651591,9.47383645 C21.293803,9.22304624 21.254647,9.04261302 21.1750219,8.62986631 C21.134093,8.41770645 21.1153462,8.32328508 21.0894234,8.20299938 C21.0775872,8.11292856 21.0618104,8.01614497 21.0248429,7.79751413 C20.9562623,7.39191951 20.9304292,7.21379052 20.9147965,7.00009609 C20.8537906,6.56955459 20.8247097,6.16922797 20.8247097,5.786656 L20.8247097,5.192776 C20.8247097,5.13090267 20.8279647,5.07608565 20.8382467,4.94621918 C20.8506099,4.79006565 20.8549032,4.71776267 20.8549032,4.620736 C20.8549032,4.44322275 20.8692854,4.27689849 20.9062613,3.96893033 C20.9328906,3.74713734 20.9360393,3.72006754 20.9448027,3.63016378 C20.9471613,3.48811342 20.9584043,3.4117163 20.9959881,3.2267627 C21.022727,3.09841847 21.022727,3.09841847 21.0434398,3.00056063 C21.0598382,2.9239546 21.0734787,2.86341057 21.0863209,2.81091983 C21.1405256,2.56751704 21.19388,2.373352 21.2603835,2.16623532 C21.3535537,1.87606869 21.4164405,1.67083657 21.4486405,1.56101375 C21.6247681,0.960305253 20.7605908,0.646705325 20.5104807,1.22056641 C20.468368,1.31719098 20.3805095,1.50377773 20.2470135,1.76449531 C20.1547265,1.93555423 20.0603171,2.16364841 19.9460578,2.47886521 C19.9232783,2.5235469 19.8998016,2.58524337 19.8671382,2.67993282 C19.8227432,2.80863171 19.8200987,2.81605362 19.8011499,2.86206879 L19.7736825,2.95198393 C19.7316083,3.15240319 19.7106195,3.23603041 19.6698745,3.34895031 C19.5324887,3.82219274 19.4579382,4.12679722 19.4016121,4.47763796 C19.378471,4.62047151 19.378471,4.62047151 19.3554831,4.76365796 C19.3427364,4.84305351 19.3427364,4.84305351 19.3299889,4.92223133 C19.3197778,4.98549526 19.3197778,4.98549526 19.3095251,5.04862006 C19.2859975,5.11747691 19.2650738,5.23611981 19.2480743,5.38642088 C19.2424965,5.43737222 19.2424965,5.43737222 19.2376349,5.48509556 C19.2276063,5.5836572 19.2232693,5.6221281 19.216062,5.67129126 C19.1525356,6.08959765 19.1193548,6.5578226 19.1193548,7.015576 C19.1018699,7.23632491 19.1018699,7.43824419 19.1125951,7.89742915 C19.11765,8.11384491 19.1193548,8.21155187 19.1193548,8.330176 C19.1499359,8.79720595 19.1809105,9.24214224 19.212036,9.679435 C19.2395845,10.0746641 19.2844442,10.4290039 19.3699481,10.9909135 C19.4866089,11.7730425 19.6357551,12.5444583 19.8067916,13.2764597 C19.9529101,13.9018175 20.1089778,14.4748712 20.2470358,14.9048353 C20.2831692,15.0173682 20.3870918,15.3048146 20.3967788,15.3378538 C20.4294418,15.4499525 20.4617632,15.5312256 20.4881195,15.5854462 L20.9378065,15.366856 Z" id="Stroke-9"></path>
                </g>
            </g>
        </g>
    </g>
</svg>