<?xml version="1.0" encoding="UTF-8" standalone="no"?>
<svg width="52px" height="51px" viewBox="0 0 52 51" version="1.1" xmlns="http://www.w3.org/2000/svg" xmlns:xlink="http://www.w3.org/1999/xlink">
    <!-- Generator: Sketch 39.1 (31720) - http://www.bohemiancoding.com/sketch -->
    <title>ico_respiratorio_grey</title>
    <desc>Created with Sketch.</desc>
    <defs></defs>
    <g id="supermercado_categoria" stroke="none" stroke-width="1" fill="none" fill-rule="evenodd">
        <g id="Subcategorias_minifarmacia" transform="translate(-15.000000, -75.000000)" fill="#D4D4D4">
            <g id="icon01-copy-14" transform="translate(15.000000, 75.000000)">
                <g id="metabolismo_yellow" transform="translate(12.000000, 12.000000)">
                    <path d="M10.8730758,12.2502495 L10.7459927,12.3203215 C10.5154393,12.4474796 10.4328313,12.7352927 10.5614827,12.9631701 C10.690134,13.1910475 10.9813271,13.2726966 11.2118805,13.1455385 L11.3354902,13.0773635 L13.8219681,11.7326355 C14.0535815,11.6073734 14.1386039,11.320248 14.0118708,11.091323 C13.8851377,10.8623979 13.5946405,10.7783624 13.363027,10.9036245 L10.8730758,12.2502495 Z" id="Stroke-1"></path>
                    <g id="Group-12" transform="translate(0.000000, 0.662580)">
                        <path d="M13.1144488,10.65582 C13.1144488,10.8368235 13.2190656,11.0019205 13.3838272,11.0809293 L16.1920223,12.4275543 C16.4295608,12.5414621 16.7155487,12.4434747 16.8307942,12.2086933 C16.9460397,11.9739119 16.8469016,11.6912435 16.609363,11.5773357 L13.8011679,10.2307107 L14.0705463,10.65582 L14.0705463,0.48492 C14.0705463,0.223965456 13.8565166,0.01242 13.5924976,0.01242 C13.3284785,0.01242 13.1144488,0.223965456 13.1144488,0.48492 L13.1144488,10.65582 Z" id="Stroke-2"></path>
                        <path d="M21.3737527,7.44008776 C21.1349532,7.23028683 20.8651723,7.02094685 20.5685948,6.8251181 C19.7403817,6.27825274 18.863684,5.93704713 17.9651821,5.91044435 C17.0324565,5.88284472 16.3951762,6.14225998 16.0477015,6.62440773 C15.8459059,6.9044144 15.7817877,7.19131528 15.7901585,7.42791331 C15.8633905,8.51466346 15.9225756,10.2712744 15.9225756,11.3446575 L15.9225756,19.1139075 C15.9225756,20.3816038 16.8494373,21.7971192 18.0196448,22.3176794 C18.0871807,22.3476878 18.2149393,22.4053339 18.3944514,22.4877429 C18.6944436,22.625461 19.0289214,22.7820444 19.3892135,22.9545253 C20.4182327,23.4471427 21.447052,23.9679715 22.4058148,24.4929044 C22.6579696,24.6309619 22.902347,24.7677565 23.1381464,24.9030048 C24.7086381,25.8038409 25.8781335,25.8868745 26.6259263,25.1738223 C27.1760379,24.6492676 27.380039,23.8108512 27.380039,22.7528325 C27.380039,21.2974102 27.1121965,19.0613162 26.4965979,16.7590143 C25.5712441,13.2982458 24.0113221,10.19139 21.6831714,7.73189275 C21.6234752,7.6690596 21.5189865,7.567685 21.3737527,7.44008776 Z M25.5722362,17.0004694 C26.1657597,19.220212 26.4239415,21.3756525 26.4239415,22.7528325 C26.4239415,23.5746189 26.2722704,24.1979662 25.9621029,24.4937239 C25.5880221,24.8504259 24.861354,24.7988328 23.6180379,24.0856651 C23.3765747,23.9471682 23.1266803,23.8072853 22.8691042,23.6662596 C21.8934103,23.1320568 20.8495972,22.6036375 19.8059841,22.1040336 C19.4408549,21.929237 19.1017272,21.7704768 18.7972016,21.6306776 C18.614003,21.5465762 18.4826826,21.487323 18.4118552,21.4558521 C17.5847508,21.0879193 16.8786732,20.0095883 16.8786732,19.1139075 L16.8786732,11.3446575 C16.8786732,10.2502625 16.818779,8.47260818 16.7451186,7.38460986 C16.7440202,7.34820154 16.7638362,7.25953388 16.8264348,7.17267349 C16.9722644,6.97032382 17.3016694,6.83623421 17.936563,6.8550209 C18.6299762,6.87555142 19.3456507,7.15408775 20.0374864,7.61090371 C20.2952892,7.78112972 20.5309467,7.96399127 20.7385587,8.14639187 C20.8611719,8.25411554 20.945333,8.33576832 20.9856057,8.37815648 C23.1935682,10.7106861 24.6843554,13.679848 25.5722362,17.0004694 Z" id="Stroke-4"></path>
                        <path d="M6.64134371,8.14639187 C6.84895569,7.96399127 7.08461327,7.78112972 7.34241604,7.61090371 C8.03425173,7.15408775 8.74992623,6.87555142 9.44334797,6.85502065 C10.078233,6.83623421 10.407638,6.97032382 10.5534676,7.17267349 C10.6160662,7.25953388 10.6358822,7.34820154 10.6342304,7.39488766 C10.5611234,8.47260818 10.5012293,10.2502625 10.5012293,11.3446575 L10.5012293,19.1139075 C10.5012293,20.0095883 9.79515167,21.0879193 8.96785941,21.4559356 C8.89721988,21.487323 8.7658994,21.5465762 8.58270086,21.6306776 C8.27817525,21.7704768 7.93904756,21.929237 7.57391832,22.1040336 C6.53030528,22.6036375 5.48649218,23.1320568 4.51079822,23.6662596 C4.25322214,23.8072853 4.00332771,23.9471682 3.76187319,24.0856602 C2.51849322,24.7988645 1.79180122,24.85054 1.41776884,24.4939478 C1.10761723,24.1982579 0.955960976,23.5749183 0.955960976,22.7528325 C0.955960976,21.3761664 1.21430437,19.2203137 1.80791891,17.0004822 C2.69589806,13.6798694 4.18663778,10.7106772 6.39491999,8.37749924 C6.43456944,8.33576832 6.51873049,8.25411554 6.64134371,8.14639187 Z M0.883564015,16.7590015 C0.267873311,19.0613872 -0.000136585366,21.297906 -0.000136585366,22.7528325 C-0.000136585366,23.8111876 0.203845057,24.6495957 0.754006766,25.1741047 C1.50178633,25.8870171 2.67123673,25.8038567 4.24176471,24.9029999 C4.47755547,24.7677565 4.72193281,24.6309619 4.9740876,24.4929044 C5.93285047,23.9679715 6.9616697,23.4471427 7.99068899,22.9545253 C8.35098106,22.7820444 8.68545888,22.625461 8.98545103,22.4877429 C9.16496314,22.4053339 9.29272171,22.3476878 9.36006985,22.3177629 C10.5304651,21.7971192 11.4573268,20.3816038 11.4573268,19.1139075 L11.4573268,11.3446575 C11.4573268,10.2712744 11.516512,8.51466346 11.5887479,7.44770514 C11.5981148,7.19131528 11.5339965,6.9044144 11.332201,6.62440773 C10.9847262,6.14225998 10.3474459,5.88284472 9.41472883,5.9104441 C8.51621842,5.93704713 7.63952072,6.27825274 6.81130762,6.8251181 C6.51473015,7.02094685 6.24494926,7.23028683 6.00614969,7.44008776 C5.86091597,7.567685 5.75642727,7.6690596 5.69733252,7.73125852 C3.36887037,10.1914123 1.80901272,13.2982706 0.883564015,16.7590015 Z" id="Stroke-6"></path>
                        <path d="M24.6996892,19.8064875 C24.7445168,19.9788836 24.7894466,20.1691413 24.8313719,20.3711262 C24.9184007,20.7904073 24.9805149,21.2022322 25.0069667,21.5830227 C25.0809027,22.6473787 24.8797615,23.1672825 24.4373073,23.1672825 C24.1732883,23.1672825 23.9592585,23.378828 23.9592585,23.6397825 C23.9592585,23.900737 24.1732883,24.1122825 24.4373073,24.1122825 C25.6632434,24.1122825 26.0682852,23.0653425 25.9608187,21.5182923 C25.9311274,21.0908678 25.8629444,20.6388064 25.7679623,20.1812082 C25.7227211,19.9632479 25.6742582,19.7580293 25.625693,19.5712592 C25.5962452,19.4580099 25.5729934,19.3750461 25.5590445,19.3281812 C25.4845317,19.0778349 25.2187981,18.9345926 24.9655119,19.0082405 C24.7122257,19.0818884 24.5673012,19.3445376 24.641814,19.5948838 C24.6527699,19.6316932 24.6731014,19.704237 24.6996892,19.8064875 Z" id="Stroke-8"></path>
                        <path d="M1.60574662,23.1257754 C1.69261189,23.3722015 1.96514394,23.5023685 2.21446398,23.4165115 C2.46378402,23.3306545 2.59547963,23.0612858 2.50861436,22.8148596 C2.31176399,22.2564192 2.38935575,21.2730614 2.63299674,20.1951365 C2.69056071,19.94046 2.5283449,19.6878807 2.27067758,19.6309848 C2.01301026,19.574089 1.7574648,19.734422 1.69990083,19.9890985 C1.41831323,21.2349081 1.33068525,22.3454599 1.60574662,23.1257754 Z" id="Stroke-10"></path>
                    </g>
                </g>
            </g>
        </g>
    </g>
</svg>