<?xml version="1.0" encoding="UTF-8" standalone="no"?>
<svg width="52px" height="51px" viewBox="0 0 52 51" version="1.1" xmlns="http://www.w3.org/2000/svg" xmlns:xlink="http://www.w3.org/1999/xlink">
    <!-- Generator: Sketch 39.1 (31720) - http://www.bohemiancoding.com/sketch -->
    <title>ico_dermatologico_grey</title>
    <desc>Created with Sketch.</desc>
    <defs></defs>
    <g id="supermercado_categoria" stroke="none" stroke-width="1" fill="none" fill-rule="evenodd">
        <g id="Subcategorias_minifarmacia" transform="translate(-388.000000, -75.000000)" fill="#E1E1E1">
            <g id="icon01-copy-20" transform="translate(388.000000, 75.000000)">
                <g id="dermatologia_lgreen" transform="translate(18.000000, 13.000000)">
                    <path d="M12.6429818,20.8457889 L12.4246432,21.2607824 C13.8552206,20.2723651 14.7402737,16.7807793 15.3223131,11.3417755 C15.696464,7.84543558 15.8832244,4.09924111 15.9454333,0.885338092 L15.9519941,0.514729791 C15.9569972,0.232086359 15.7276457,0.000288888889 15.4429818,0.000288888889 L0.509163636,0.000288888889 C0.224499708,0.000288888889 -0.00485172405,0.232086359 0.000151361172,0.514729791 L0.00669681572,0.884507568 C0.0688749446,4.09685858 0.25585696,7.84520732 0.630106133,11.3417857 C1.21225336,16.7807381 2.0972377,20.2723253 3.52745154,21.2607473 L3.30916364,20.8457889 L3.30916364,25.4571778 C3.30916364,25.7363884 3.5370914,25.9627333 3.81825455,25.9627333 L12.1338909,25.9627333 C12.4150541,25.9627333 12.6429818,25.7363884 12.6429818,25.4571778 L12.6429818,20.8457889 Z M12.1338909,24.9516222 L3.81825455,24.9516222 L4.32734545,25.4571778 L4.32734545,20.8457889 C4.32734545,20.6803307 4.24581484,20.5253435 4.10905755,20.4308305 C3.04583571,19.696037 2.18445684,16.297582 1.64258478,11.234917 C1.27202265,7.77278639 1.08635182,4.05072249 1.02470598,0.865906353 L1.01817591,0.496959098 L0.509163636,0.505844444 L0.509163636,1.0114 L15.4429818,1.0114 L15.4429818,0.505844444 L14.9339695,0.496959098 L14.9274241,0.866736876 C14.8657474,4.05311095 14.6802965,7.77303804 14.3098323,11.2349273 C13.7680627,16.2976199 12.9066349,19.6960026 11.8431386,20.4307954 C11.7063519,20.5253044 11.6248,20.680309 11.6248,20.8457889 L11.6248,25.4571778 L12.1338909,24.9516222 Z" id="Stroke-1"></path>
                    <path d="M15.3834182,3.16607778 C15.584249,3.16607778 15.7470545,3.00440283 15.7470545,2.80496667 C15.7470545,2.60553051 15.584249,2.44385556 15.3834182,2.44385556 L0.568872727,2.44385556 C0.368041909,2.44385556 0.205236364,2.60553051 0.205236364,2.80496667 C0.205236364,3.00440283 0.368041909,3.16607778 0.568872727,3.16607778 L15.3834182,3.16607778 Z" id="Stroke-3"></path>
                    <path d="M12.1341818,21.2069 C12.3350126,21.2069 12.4978182,21.045225 12.4978182,20.8457889 C12.4978182,20.6463527 12.3350126,20.4846778 12.1341818,20.4846778 L3.81854545,20.4846778 C3.61771464,20.4846778 3.45490909,20.6463527 3.45490909,20.8457889 C3.45490909,21.045225 3.61771464,21.2069 3.81854545,21.2069 L12.1341818,21.2069 Z" id="Stroke-5"></path>
                    <path d="M12.1341818,24.2787278 C12.3350126,24.2787278 12.4978182,24.1170528 12.4978182,23.9176167 C12.4978182,23.7181805 12.3350126,23.5565056 12.1341818,23.5565056 L3.81854545,23.5565056 C3.61771464,23.5565056 3.45490909,23.7181805 3.45490909,23.9176167 C3.45490909,24.1170528 3.61771464,24.2787278 3.81854545,24.2787278 L12.1341818,24.2787278 Z" id="Stroke-7"></path>
                    <path d="M7.87418182,15.0355111 C6.26773991,15.0355111 4.96509091,13.7419083 4.96509091,12.1466222 C4.96509091,10.5513362 6.26773991,9.25773333 7.87418182,9.25773333 C9.48062373,9.25773333 10.7832727,10.5513362 10.7832727,12.1466222 C10.7832727,13.7419083 9.48062373,15.0355111 7.87418182,15.0355111 Z M7.87418182,8.53551111 C5.86607827,8.53551111 4.23781818,10.1524638 4.23781818,12.1466222 C4.23781818,14.1407806 5.86607827,15.7577333 7.87418182,15.7577333 C9.88228536,15.7577333 11.5105455,14.1407806 11.5105455,12.1466222 C11.5105455,10.1524638 9.88228536,8.53551111 7.87418182,8.53551111 Z" id="Stroke-9"></path>
                    <path d="M8.20756364,7.54267222 C8.20756364,7.34323606 8.04475809,7.18156111 7.84392727,7.18156111 C7.64309645,7.18156111 7.48029091,7.34323606 7.48029091,7.54267222 L7.48029091,8.86650556 C7.48029091,9.06594172 7.64309645,9.22761667 7.84392727,9.22761667 C8.04475809,9.22761667 8.20756364,9.06594172 8.20756364,8.86650556 L8.20756364,7.54267222 Z" id="Stroke-11"></path>
                    <path d="M8.20756364,15.4871167 C8.20756364,15.2876805 8.04475809,15.1260056 7.84392727,15.1260056 C7.64309645,15.1260056 7.48029091,15.2876805 7.48029091,15.4871167 L7.48029091,16.81095 C7.48029091,17.0103862 7.64309645,17.1720611 7.84392727,17.1720611 C8.04475809,17.1720611 8.20756364,17.0103862 8.20756364,16.81095 L8.20756364,15.4871167 Z" id="Stroke-13"></path>
                    <path d="M12.4648727,12.6281278 C12.6657035,12.6281278 12.8285091,12.4664528 12.8285091,12.2670167 C12.8285091,12.0675805 12.6657035,11.9059056 12.4648727,11.9059056 L11.1317818,11.9059056 C10.930951,11.9059056 10.7681455,12.0675805 10.7681455,12.2670167 C10.7681455,12.4664528 10.930951,12.6281278 11.1317818,12.6281278 L12.4648727,12.6281278 Z" id="Stroke-15"></path>
                    <path d="M4.46487273,12.6281278 C4.66570355,12.6281278 4.82850909,12.4664528 4.82850909,12.2670167 C4.82850909,12.0675805 4.66570355,11.9059056 4.46487273,11.9059056 L3.13178182,11.9059056 C2.930951,11.9059056 2.76814545,12.0675805 2.76814545,12.2670167 C2.76814545,12.4664528 2.930951,12.6281278 3.13178182,12.6281278 L4.46487273,12.6281278 Z" id="Stroke-17"></path>
                    <path d="M10.8863612,15.6635941 C11.02837,15.8046168 11.2586118,15.8046168 11.4006206,15.6635941 C11.5426295,15.5225715 11.5426295,15.2939285 11.4006206,15.1529059 L10.4580752,14.2169059 C10.3160664,14.0758832 10.0858245,14.0758832 9.94381572,14.2169059 C9.80180688,14.3579285 9.80180688,14.5865715 9.94381572,14.7275941 L10.8863612,15.6635941 Z" id="Stroke-19"></path>
                    <path d="M5.22948844,10.0460052 C5.37149728,10.1870279 5.60173909,10.1870279 5.74374792,10.0460052 C5.88575675,9.90498257 5.88575675,9.67633966 5.74374792,9.535317 L4.80120247,8.599317 C4.65919363,8.45829433 4.42895182,8.45829433 4.28694299,8.599317 C4.14493416,8.74033966 4.14493416,8.96898257 4.28694299,9.11000523 L5.22948844,10.0460052 Z" id="Stroke-21"></path>
                    <path d="M4.2872339,15.1980448 C4.14522506,15.3390674 4.14522506,15.5677103 4.2872339,15.708733 C4.42924273,15.8497557 4.65948454,15.8497557 4.80149337,15.708733 L5.74403883,14.772733 C5.88604766,14.6317103 5.88604766,14.4030674 5.74403883,14.2620448 C5.60203,14.1210221 5.37178819,14.1210221 5.22977935,14.2620448 L4.2872339,15.1980448 Z" id="Stroke-23"></path>
                    <path d="M9.9440339,9.58045588 C9.80202506,9.72147855 9.80202506,9.95012145 9.9440339,10.0911441 C10.0860427,10.2321668 10.3162845,10.2321668 10.4582934,10.0911441 L11.4008388,9.15514412 C11.5428477,9.01412145 11.5428477,8.78547855 11.4008388,8.64445588 C11.25883,8.50343322 11.0285882,8.50343322 10.8865794,8.64445588 L9.9440339,9.58045588 Z" id="Stroke-25"></path>
                </g>
            </g>
        </g>
    </g>
</svg>