<?xml version="1.0" encoding="UTF-8" standalone="no"?>
<svg width="20px" height="36px" viewBox="0 0 20 36" version="1.1" xmlns="http://www.w3.org/2000/svg" xmlns:xlink="http://www.w3.org/1999/xlink">
    <!-- Generator: Sketch 39.1 (31720) - http://www.bohemiancoding.com/sketch -->
    <title>_bt_arrowcarousel_left_grey</title>
    <desc>Created with Sketch.</desc>
    <defs></defs>
    <g id="Home-Page" stroke="none" stroke-width="1" fill="none" fill-rule="evenodd">
        <g id="Desktop---Search---autocomplete" transform="translate(-19.000000, -1775.000000)" fill="#D4D4D4">
            <g id="Carrusel-02" transform="translate(19.000000, 1543.000000)">
                <g id="_bt_arrowcarousel_left_grey" transform="translate(0.000000, 232.000000)">
                    <path d="M19.3884444,16.5493333 L3.384,0.555555556 C3.00888889,0.197333333 2.51733333,0 2,0 C0.897777778,0 0,0.896888889 0,2 C0,2.58311111 0.254222222,3.13511111 0.697777778,3.51644444 L15.1768889,17.9937778 L0.551111111,32.6195556 C0.199111111,32.9866667 0,33.4808889 0,34 C0,35.1031111 0.897777778,36 2,36 C2.52,36 3.01333333,35.8008889 3.38844444,35.4391111 L19.3804444,19.4471111 C19.7831111,19.0577778 20,18.5466667 20,18 C20,17.4408889 19.7831111,16.9297778 19.3884444,16.5493333 Z" id="Page-1" transform="translate(10.000000, 18.000000) scale(-1, 1) translate(-10.000000, -18.000000) "></path>
                </g>
            </g>
        </g>
    </g>
</svg>