<?xml version="1.0" encoding="UTF-8" standalone="no"?>
<svg width="32px" height="32px" viewBox="0 0 32 32" version="1.1" xmlns="http://www.w3.org/2000/svg" xmlns:xlink="http://www.w3.org/1999/xlink">
    <!-- Generator: Sketch 40.3 (33839) - http://www.bohemiancoding.com/sketch -->
    <title>_icon_basket_green</title>
    <desc>Created with Sketch.</desc>
    <defs></defs>
    <g id="Supermercado_listas" stroke="none" stroke-width="1" fill="none" fill-rule="evenodd">
        <g id="Supermercado_Lista-interna" transform="translate(-755.000000, -1191.000000)" fill="#FFFFFF">
            <g id="bt_agregar" transform="translate(475.000000, 1177.000000)">
                <g id="_icon_basket_green" transform="translate(280.000000, 14.000000)">
                    <g transform="translate(3.000000, 4.000000)">
                        <path d="M24.2093913,9.10112903 L22.8624783,9.10112903 L21.9683043,4.0458871 C21.7343043,2.42741935 20.2941304,1.16008065 18.6906087,1.16008065 L17.3583913,1.16008065 C17.022087,0.580887097 16.3958261,0.189677419 15.6774348,0.189677419 L10.322,0.189677419 C9.6036087,0.189677419 8.97791304,0.580322581 8.6416087,1.16008065 L7.44617391,1.16008065 C5.84717391,1.16008065 4.39908696,2.42346774 4.14926087,4.03572581 L3.18952174,9.10112903 L1.79117391,9.10112903 C0.836521739,9.10112903 0.0599130435,9.93209677 0.0599130435,10.9533065 C0.0599130435,11.9609677 0.815608696,12.7834677 1.7516087,12.8049194 L3.52017391,21.2969355 L3.5393913,21.3669355 C3.744,21.978871 4.31656522,22.3904032 4.96317391,22.3904032 L21.0368261,22.3904032 C21.6828696,22.3904032 22.2543043,21.978871 22.4611739,21.3669355 L22.4730435,21.3325 L24.2478261,12.8054839 C25.1838261,12.7834677 25.940087,11.9609677 25.940087,10.953871 C25.9406522,9.93209677 25.1640435,9.10112903 24.2093913,9.10112903 L24.2093913,9.10112903 Z M6.06986957,4.33266129 C6.1716087,3.67612903 6.81482609,3.10032258 7.44673913,3.10032258 L8.64217391,3.10032258 C8.97847826,3.67951613 9.60473913,4.07016129 10.3225652,4.07016129 L15.678,4.07016129 C16.3963913,4.07016129 17.0226522,3.67951613 17.3589565,3.10032258 L18.6911739,3.10032258 C19.318,3.10032258 19.9510435,3.67104839 20.0448696,4.32306452 L20.8994783,9.10112903 L5.15591304,9.10112903 L6.06986957,4.33266129 L6.06986957,4.33266129 Z M21.2781739,20.9994355 C21.2363478,21.0942742 21.1419565,21.156371 21.0362609,21.156371 L4.96317391,21.156371 C4.85804348,21.156371 4.76308696,21.0948387 4.72126087,21 L2.85434783,12.0315323 L23.1462174,12.0315323 L21.2781739,20.9994355 L21.2781739,20.9994355 Z M24.2093913,11.5714516 L23.2423043,11.5714516 L23.2411739,11.5731452 L2.75826087,11.5731452 L2.75769565,11.5714516 L1.79117391,11.5714516 C1.52269565,11.5714516 1.2966087,11.288629 1.2966087,10.9533065 C1.2966087,10.6179839 1.52269565,10.3362903 1.79117391,10.3362903 L24.2093913,10.3362903 C24.4778696,10.3362903 24.7039565,10.6185484 24.7039565,10.9533065 C24.7033913,11.2880645 24.4778696,11.5714516 24.2093913,11.5714516 L24.2093913,11.5714516 Z" id="Shape"></path>
                        <path d="M7.86556522,16.0621774 C8.12726087,16.0621774 8.33921739,15.8516129 8.33921739,15.5902419 C8.33921739,15.328871 8.12726087,15.1171774 7.86556522,15.1171774 L5.88108696,15.1171774 C5.61995652,15.1171774 5.408,15.328871 5.408,15.5902419 C5.408,15.8516129 5.61995652,16.0627419 5.88108696,16.0621774 L7.86556522,16.0621774 Z M7.86613043,19.2409677 L6.73004348,19.2409677 C6.46891304,19.2409677 6.2563913,19.4520968 6.2563913,19.7134677 C6.2563913,19.9742742 6.46891304,20.1859677 6.73004348,20.1859677 L7.86613043,20.1859677 C8.12669565,20.1859677 8.33865217,19.9742742 8.33865217,19.7134677 C8.33921739,19.4520968 8.12726087,19.2409677 7.86613043,19.2409677 Z M7.86613043,17.1793548 L6.30556522,17.1793548 C6.04443478,17.1793548 5.83191304,17.3904839 5.83191304,17.6524194 C5.83191304,17.9132258 6.04386957,18.1243548 6.30556522,18.1243548 L7.86613043,18.1243548 C8.12669565,18.1243548 8.33865217,17.9132258 8.33865217,17.6524194 C8.33921739,17.3904839 8.12726087,17.1793548 7.86613043,17.1793548 Z M5.4566087,14.0016935 L7.86669565,14.0016935 C8.12726087,14.0016935 8.33921739,13.79 8.33921739,13.528629 C8.33921739,13.2672581 8.12726087,13.056129 7.86669565,13.056129 L5.4566087,13.056129 C5.19547826,13.056129 4.98352174,13.2678226 4.98352174,13.528629 C4.98352174,13.7894355 5.19491304,14.0016935 5.4566087,14.0016935 Z M11.7706522,19.2409677 L10.6345652,19.2409677 C10.3734348,19.2409677 10.160913,19.4520968 10.160913,19.7134677 C10.160913,19.9742742 10.3734348,20.1859677 10.6345652,20.1859677 L11.7706522,20.1859677 C12.0317826,20.1859677 12.2437391,19.9742742 12.2437391,19.7134677 C12.2437391,19.4520968 12.0317826,19.2409677 11.7706522,19.2409677 Z M11.876913,17.1793548 L10.3174783,17.1793548 C10.056913,17.1793548 9.8443913,17.3904839 9.8443913,17.6524194 C9.8443913,17.9132258 10.0563478,18.1243548 10.3174783,18.1243548 L11.876913,18.1243548 C12.1386087,18.1243548 12.3505652,17.9132258 12.3505652,17.6524194 C12.3505652,17.3904839 12.1386087,17.1793548 11.876913,17.1793548 Z M11.9848696,15.1171774 L9.99982609,15.1171774 C9.73869565,15.1171774 9.52617391,15.3294355 9.52617391,15.5902419 C9.52617391,15.8516129 9.73813043,16.0627419 9.99982609,16.0627419 L11.9848696,16.0627419 C12.2454348,16.0627419 12.4579565,15.8516129 12.4579565,15.5902419 C12.4579565,15.3294355 12.246,15.1171774 11.9848696,15.1171774 Z M9.68273913,14.0016935 L12.0922609,14.0016935 C12.3528261,14.0016935 12.5653478,13.79 12.5653478,13.528629 C12.5653478,13.2672581 12.3533913,13.056129 12.0922609,13.056129 L9.68273913,13.056129 C9.42104348,13.056129 9.20965217,13.2678226 9.20965217,13.528629 C9.20965217,13.7894355 9.42104348,14.0016935 9.68273913,14.0016935 Z M15.3914348,19.2409677 L14.255913,19.2409677 C13.9942174,19.2409677 13.7828261,19.4520968 13.7828261,19.7134677 C13.7828261,19.9742742 13.9942174,20.1859677 14.255913,20.1859677 L15.3914348,20.1859677 C15.6525652,20.1859677 15.8645217,19.9742742 15.8645217,19.7134677 C15.8645217,19.4520968 15.6525652,19.2409677 15.3914348,19.2409677 Z M15.7000435,17.1793548 L14.1400435,17.1793548 C13.8783478,17.1793548 13.6663913,17.3904839 13.6663913,17.6524194 C13.6663913,17.9132258 13.8783478,18.1243548 14.1400435,18.1243548 L15.7000435,18.1243548 C15.9606087,18.1243548 16.1736957,17.9132258 16.1736957,17.6524194 C16.1736957,17.3904839 15.9606087,17.1793548 15.7000435,17.1793548 Z M16.008087,15.1171774 L14.0236087,15.1171774 C13.7624783,15.1171774 13.551087,15.3294355 13.551087,15.5902419 C13.551087,15.8516129 13.7624783,16.0627419 14.0236087,16.0627419 L16.008087,16.0627419 C16.270913,16.0627419 16.4828696,15.8516129 16.4823043,15.5902419 C16.4823043,15.3294355 16.2703478,15.1171774 16.008087,15.1171774 Z M13.9083043,14.0016935 L16.3172609,14.0016935 C16.5789565,14.0016935 16.790913,13.79 16.790913,13.528629 C16.790913,13.2672581 16.5789565,13.056129 16.3172609,13.056129 L13.9083043,13.056129 C13.6466087,13.056129 13.4346522,13.2678226 13.4346522,13.528629 C13.4346522,13.7894355 13.6471739,14.0016935 13.9083043,14.0016935 Z M19.2693913,19.2409677 L18.135,19.2409677 C17.8727391,19.2409677 17.6613478,19.4520968 17.6613478,19.7134677 C17.6613478,19.9742742 17.8727391,20.1859677 18.135,20.1859677 L19.2693913,20.1859677 C19.531087,20.1859677 19.7436087,19.9742742 19.7436087,19.7134677 C19.7436087,19.4520968 19.531087,19.2409677 19.2693913,19.2409677 Z M19.6944348,17.1793548 L18.135,17.1793548 C17.8727391,17.1793548 17.6613478,17.3904839 17.6613478,17.6524194 C17.6613478,17.9132258 17.8727391,18.1243548 18.135,18.1243548 L19.6944348,18.1243548 C19.9561304,18.1243548 20.168087,17.9132258 20.168087,17.6524194 C20.168087,17.3904839 19.9561304,17.1793548 19.6944348,17.1793548 Z M18.1338696,16.0627419 L20.118913,16.0627419 C20.3806087,16.0627419 20.5931304,15.8516129 20.5925652,15.5902419 C20.5925652,15.3294355 20.3806087,15.1171774 20.118913,15.1171774 L18.1338696,15.1171774 C17.8727391,15.1171774 17.6607826,15.3294355 17.6607826,15.5902419 C17.6607826,15.8516129 17.8727391,16.0627419 18.1338696,16.0627419 Z M18.135,14.0016935 L20.5433913,14.0016935 C20.805087,14.0016935 21.0170435,13.79 21.0170435,13.528629 C21.0170435,13.2672581 20.805087,13.056129 20.5433913,13.056129 L18.135,13.056129 C17.8727391,13.056129 17.6613478,13.2678226 17.6613478,13.528629 C17.6613478,13.7894355 17.8727391,14.0016935 18.135,14.0016935 Z" id="Combined-Shape"></path>
                    </g>
                </g>
            </g>
        </g>
    </g>
</svg>