<?xml version="1.0" encoding="UTF-8" standalone="no"?>
<svg width="29px" height="28px" viewBox="0 0 29 28" version="1.1" xmlns="http://www.w3.org/2000/svg" xmlns:xlink="http://www.w3.org/1999/xlink">
    <!-- Generator: Sketch 41.1 (35376) - http://www.bohemiancoding.com/sketch -->
    <title>_icon_close_white</title>
    <desc>Created with Sketch.</desc>
    <defs></defs>
    <g id="Page-1" stroke="none" stroke-width="1" fill="none" fill-rule="evenodd">
        <g id="Artboard" transform="translate(-1231.000000, -36.000000)" fill="#FFFFFF">
            <g id="banner_up_concurso">
                <g id="_icon_delete_grey" transform="translate(1231.000000, 36.000000)">
                    <path d="M22.6705105,6.92024938 C23.1098298,6.48093344 23.1098298,5.76852163 22.6705105,5.32948695 C22.2311911,4.89017102 21.519055,4.89017102 21.0797356,5.32948695 L14,12.408886 L6.92054563,5.32948695 C6.48122627,4.89017102 5.76880889,4.89017102 5.32948952,5.32948695 C4.89017016,5.76880288 4.89017016,6.4812147 5.32948952,6.92024938 L12.4092251,13.9999297 L5.32948952,21.07961 C4.89017016,21.5189259 4.89017016,22.2313377 5.32948952,22.6703724 C5.54914921,22.8900304 5.83715371,23 6.12487695,23 C6.4126002,23 6.70088595,22.8900304 6.92054563,22.6703724 L14,15.5909734 L21.0797356,22.6703724 C21.2993953,22.8900304 21.5873998,23 21.875123,23 C22.1628463,23 22.451132,22.8900304 22.6705105,22.6703724 C23.1098298,22.2310565 23.1098298,21.5186447 22.6705105,21.07961 L15.5910561,13.9999297 L22.6705105,6.92024938 Z" id="_icon_close_white"></path>
                </g>
            </g>
        </g>
    </g>
</svg>