<?xml version="1.0" encoding="UTF-8" standalone="no"?>
<svg width="32px" height="32px" viewBox="0 0 32 32" version="1.1" xmlns="http://www.w3.org/2000/svg" xmlns:xlink="http://www.w3.org/1999/xlink">
    <!-- Generator: Sketch 40.3 (33839) - http://www.bohemiancoding.com/sketch -->
    <title>_icon_delete_grey</title>
    <desc>Created with Sketch.</desc>
    <defs></defs>
    <g id="Supermercado_listas" stroke="none" stroke-width="1" fill="none" fill-rule="evenodd">
        <g id="lista_product-modal" transform="translate(-997.000000, -262.000000)" fill="#D4D4D4">
            <g id="modal-[detalles]" transform="translate(209.000000, 242.000000)">
                <g id="_icon_delete_grey" transform="translate(788.000000, 20.000000)">
                    <path d="M26.6155956,7.24030844 C27.1281348,6.72776918 27.1281348,5.89661557 26.6155956,5.38440444 C26.1030563,4.87186519 25.2722308,4.87186519 24.7596916,5.38440444 L16.5,13.6437679 L8.24063657,5.38440444 C7.72809731,4.87186519 6.8969437,4.87186519 6.38440444,5.38440444 C5.87186519,5.8969437 5.87186519,6.72809731 6.38440444,7.24030844 L14.644096,15.5 L6.38440444,23.7596916 C5.87186519,24.2722308 5.87186519,25.1033844 6.38440444,25.6155956 C6.64067407,25.8718652 6.97667932,26.0001641 7.31235644,26.0001641 C7.64803356,26.0001641 7.98436694,25.8718652 8.24063657,25.6155956 L16.5,17.3562321 L24.7596916,25.6155956 C25.0159612,25.8718652 25.3519664,26.0001641 25.6876436,26.0001641 C26.0233207,26.0001641 26.3596541,25.8718652 26.6155956,25.6155956 C27.1281348,25.1030563 27.1281348,24.2719027 26.6155956,23.7596916 L18.3562321,15.5 L26.6155956,7.24030844 Z"></path>
                </g>
            </g>
        </g>
    </g>
</svg>