<?xml version="1.0" encoding="UTF-8" standalone="no"?>
<svg width="22px" height="22px" viewBox="0 0 22 22" version="1.1" xmlns="http://www.w3.org/2000/svg" xmlns:xlink="http://www.w3.org/1999/xlink">
    <!-- Generator: Sketch 40.3 (33839) - http://www.bohemiancoding.com/sketch -->
    <title>_icon_back_white</title>
    <desc>Created with Sketch.</desc>
    <defs></defs>
    <g id="Supermercado_listas" stroke="none" stroke-width="1" fill="none" fill-rule="evenodd">
        <g id="Supermercado_crear-lista" transform="translate(-35.000000, -231.000000)" fill="#FFFFFF">
            <g id="bt_back-to-lists-copy" transform="translate(24.000000, 218.000000)">
                <g id="_icon_back_green" transform="translate(11.000000, 13.000000)">
                    <path d="M4.53375796,9.98726115 L11.6840764,2.79681529 C12.0875796,2.39363057 12.0872611,1.71687898 11.683758,1.3133758 C11.488535,1.11751592 11.2286624,1 10.9522293,1 C10.6757962,1 10.4156051,1.10286624 10.2200637,1.29840764 L1.30318471,10.2130573 C1.10764331,10.4085987 1,10.6671975 1,10.9436306 C1,11.2200637 1.10732484,11.4796178 1.30286624,11.6748408 L10.2200637,20.5917197 C10.6111465,20.9824841 11.2926752,20.9824841 11.6840764,20.5914013 C11.8796178,20.3961783 11.9872611,20.1359873 11.9872611,19.8595541 C11.9872611,19.583121 11.8796178,19.2834395 11.6840764,19.0882166 L4.53375796,11.8980892 L19.9649682,11.8980892 C20.2414013,11.8980892 20.5015924,11.8302548 20.6971338,11.6343949 C20.8923567,11.439172 21,11.2388535 21,10.9627389 C21,10.3917197 20.5356688,9.98726115 19.9649682,9.98726115 L4.53375796,9.98726115 Z"></path>
                </g>
            </g>
        </g>
    </g>
</svg>