<?xml version="1.0" encoding="UTF-8"?>
<svg width="31px" height="31px" viewBox="0 0 31 31" version="1.1" xmlns="http://www.w3.org/2000/svg" xmlns:xlink="http://www.w3.org/1999/xlink">
    <!-- Generator: sketchtool 39 (31667) - http://www.bohemiancoding.com/sketch -->
    <title>E9DE1CC5-B395-4485-98B7-FE76D533159B</title>
    <desc>Created with sketchtool.</desc>
    <defs></defs>
    <g id="Page-1" stroke="none" stroke-width="1" fill="none" fill-rule="evenodd">
        <g id="Antojos---Mom---Step-2" transform="translate(-539.000000, -600.000000)" fill="#FFFFFF">
            <g id="Modal-2" transform="translate(492.645125, 560.381250)">
                <g id="btn-back" transform="translate(0.000000, 31.500000)">
                    <path d="M52.3006369,22.5590234 L63.0261146,11.7108437 C63.6313694,11.1025615 63.6308917,10.0815507 63.0256369,9.47278806 C62.7328025,9.17729552 62.3429936,9 61.9283439,9 C61.5136943,9 61.1234076,9.15519364 60.8300955,9.4502057 L47.4547771,22.8996807 C47.161465,23.1946927 47,23.584839 47,24.0018919 C47,24.4189447 47.1609873,24.8105324 47.4542994,25.105064 L60.8300955,38.5579023 C61.4167197,39.147446 62.4390127,39.147446 63.0261146,38.5574218 C63.3194268,38.2628902 63.4808917,37.8703416 63.4808917,37.4532887 C63.4808917,37.0362359 63.3194268,36.5841083 63.0261146,36.2895767 L52.3006369,25.4418774 L75.4474522,25.4418774 C75.8621019,25.4418774 76.2523885,25.3395361 76.5457006,25.0440436 C76.838535,24.749512 77,24.4472928 77,24.0307204 C77,23.1692275 76.3035032,22.5590234 75.4474522,22.5590234 L52.3006369,22.5590234 Z" id="Fill-1"></path>
                </g>
            </g>
        </g>
    </g>
</svg>