<?xml version="1.0" encoding="UTF-8" standalone="no"?>
<svg width="29px" height="40px" viewBox="0 0 29 40" version="1.1" xmlns="http://www.w3.org/2000/svg" xmlns:xlink="http://www.w3.org/1999/xlink">
    <!-- Generator: sketchtool 39 (31667) - http://www.bohemiancoding.com/sketch -->
    <title>12CE63AC-9F90-4D3D-86B8-5B87F1E2F91A</title>
    <desc>Created with sketchtool.</desc>
    <defs></defs>
    <g id="iconos" stroke="none" stroke-width="1" fill="none" fill-rule="evenodd" stroke-linecap="round" stroke-linejoin="round">
        <g transform="translate(-136.000000, -362.000000)" id="Page-1" stroke="#C7766C">
            <g transform="translate(136.000000, 362.000000)">
                <path d="M23.801,8.7078 C23.801,9.7288 22.866,11.4938 22.193,10.7268 C21.7,10.1638 21.078,9.6118 20.228,8.7608 C19.473,9.3228 18.421,9.7938 17.407,9.7938 C16.594,9.7938 15.83,9.5808 15.168,9.2038 C15.212,9.3838 15.235,9.5698 15.235,9.7638 C15.235,11.0768 14.172,12.1398 12.859,12.1398 C11.548,12.1398 10.483,11.0768 10.483,9.7638 C10.483,8.4508 11.548,7.3878 12.859,7.3878 C13.058,7.3878 13.25,7.4128 13.435,7.4568 C13.067,6.8018 12.859,6.0488 12.859,5.2458 C12.859,2.7368 14.896,0.6998 17.407,0.6998 C19.917,0.6998 21.953,2.7368 21.953,5.2458 C21.953,5.8228 21.846,6.3758 21.647,6.8848 C21.747,6.8688 21.849,6.8598 21.953,6.8598 C22.974,6.8598 23.801,7.6868 23.801,8.7078 L23.801,8.7078 Z" id="Stroke-1" stroke-width="1.4"></path>
                <path d="M5.1814,6.4199 C5.1814,7.2629 4.4984,7.9459 3.6554,7.9459 C2.8124,7.9459 2.1294,7.2629 2.1294,6.4199 C2.1294,5.5769 2.8124,4.8939 3.6554,4.8939 C4.4984,4.8939 5.1814,5.5769 5.1814,6.4199 L5.1814,6.4199 Z" id="Stroke-3" stroke-width="1.4"></path>
                <path d="M10.7095,4.9284 C10.7095,6.0924 9.7655,7.0364 8.6015,7.0364 C7.4375,7.0364 6.4935,6.0924 6.4935,4.9284 C6.4935,3.7644 7.4375,2.8204 8.6015,2.8204 C9.7655,2.8204 10.7095,3.7644 10.7095,4.9284 L10.7095,4.9284 Z" id="Stroke-5" stroke-width="1.4"></path>
                <path d="M24.1975,33.285 C24.1975,33.906 23.6935,34.41 23.0725,34.41 C22.4515,34.41 21.9475,33.906 21.9475,33.285 C21.9475,32.664 22.4515,32.16 23.0725,32.16 C23.6935,32.16 24.1975,32.664 24.1975,33.285 L24.1975,33.285 Z" id="Stroke-7" stroke-width="1.4"></path>
                <path d="M25.0177,39.1011 L5.8077,39.1011 C5.5847,39.1011 5.4617,37.8801 5.4617,37.2761 C5.4617,34.8731 7.4107,32.8611 9.8147,32.8611 C11.7767,32.8611 13.2207,34.1321 13.7647,35.9161 C13.7647,35.9201 13.9817,36.0841 13.9837,36.0841 C14.4547,35.8631 14.9827,35.6431 15.5377,35.6431 C16.9927,35.6431 18.7437,36.1321 19.3287,37.3641 L19.5417,37.3681 C20.1207,36.4661 21.5407,36.1551 22.6517,36.4311 C23.9547,36.7551 25.0647,38.1011 25.0177,39.1011 L25.0177,39.1011 Z" id="Stroke-9"></path>
                <path d="M8.351,33.1985 C8.122,33.0545 7.902,32.8895 7.712,32.6795 L1.479,25.7825 C0.943,25.1895 0.695,24.4415 0.712,23.7015 C0.695,24.1745 0.786,24.5245 0.807,24.6115 L1.528,28.6495 L1.532,28.6545 C1.593,29.3405 1.866,30.0125 2.363,30.5625 L6.257,34.8715 C6.76,34.1125 7.494,33.5285 8.351,33.1985 L8.351,33.1985 Z" id="Stroke-11" stroke-width="1.4"></path>
                <path d="M27.9798,22.1654 C27.9858,21.8194 27.4038,17.1934 27.4038,17.1934 C27.3818,16.9964 27.3238,16.8004 27.2488,16.6064 C27.6168,17.7034 27.3318,18.9624 26.4188,19.7874 L11.9378,32.8744 C11.7908,33.0074 11.6338,33.1204 11.4708,33.2184 C12.6018,33.7044 13.4298,34.6894 13.8098,35.9384 C13.8098,35.9424 14.0268,36.1054 14.0288,36.1054 C14.0818,36.0804 14.1388,36.0574 14.1938,36.0324 L26.9018,24.5474 C27.5998,23.9164 27.9608,23.0544 27.9798,22.1834 L27.9818,22.1814 L27.9798,22.1654 L27.9798,22.1654 Z" id="Stroke-13" stroke-width="1.4"></path>
                <path d="M7.7005,32.6604 C7.8905,32.8714 8.1105,33.0364 8.3395,33.1794 C8.8145,32.9974 9.3225,32.8834 9.8595,32.8834 C10.4495,32.8834 10.9845,33.0094 11.4705,33.2184 C11.6335,33.1204 11.7915,33.0074 11.9375,32.8744 L26.4185,19.7874 C27.3315,18.9624 27.6165,17.7034 27.2485,16.6064 C27.0735,16.1514 26.7795,15.7124 26.4425,15.3394 L22.4185,10.8864 C22.3565,10.8554 22.2965,10.8144 22.2385,10.7484 C21.7445,10.1854 21.1235,9.6334 20.2725,8.7824 C19.5175,9.3444 18.4655,9.8154 17.4525,9.8154 C16.6595,9.8154 15.9145,9.6104 15.2645,9.2504 L15.2215,9.2904 C15.2555,9.4504 15.2805,9.6144 15.2805,9.7854 C15.2805,11.0984 14.2175,12.1614 12.9045,12.1614 C12.6505,12.1614 12.4105,12.1114 12.1815,12.0374 L10.2175,13.8114 L1.8925,21.3364 C1.1325,22.0034 0.8405,22.7094 0.7415,23.2974 C0.7305,23.3684 0.7165,23.4394 0.7105,23.5104 C0.7045,23.5704 0.7025,23.6264 0.7005,23.6824 C0.6835,24.4234 0.9315,25.1714 1.4675,25.7634 L7.7005,32.6604 L7.7005,32.6604 Z" id="Stroke-15" stroke-width="1.4"></path>
            </g>
        </g>
    </g>
</svg>