<?xml version="1.0" encoding="UTF-8" standalone="no"?>
<svg width="33px" height="40px" viewBox="0 0 33 40" version="1.1" xmlns="http://www.w3.org/2000/svg" xmlns:xlink="http://www.w3.org/1999/xlink">
    <!-- Generator: sketchtool 39 (31667) - http://www.bohemiancoding.com/sketch -->
    <title>8953D175-87E9-4236-8A8F-F020ACEBE027</title>
    <desc>Created with sketchtool.</desc>
    <defs>
        <polygon id="path-1" points="0.4035 1 10.1255 1 10.1255 0.3 0.4035 0.3"></polygon>
    </defs>
    <g id="iconos" stroke="none" stroke-width="1" fill="none" fill-rule="evenodd">
        <g transform="translate(-426.000000, -361.000000)" id="aseohogar">
            <g transform="translate(426.000000, 361.000000)">
                <g id="Group-3" transform="translate(22.000000, 38.983000)">
                    <mask id="mask-2" fill="white">
                        <use xlink:href="#path-1"></use>
                    </mask>
                    <g id="Clip-2"></g>
                    <path d="M0.4035,0.3 L10.1255,0.3" id="Stroke-1" stroke="#696A69" stroke-width="1.4" stroke-linecap="round" stroke-linejoin="round" mask="url(#mask-2)"></path>
                </g>
                <path d="M17.9302,24.5812 L16.3212,38.5992 L3.5362,38.5992 L2.7232,31.5102 L9.5982,30.1652 C10.0072,30.0852 10.3022,29.7262 10.3022,29.3092 L10.3022,18.6262 L18.6142,18.6262 L18.2012,22.2232 L17.9302,24.5812 L17.9302,24.5812 Z M0.7002,29.6062 L0.7002,18.1892 L8.1212,18.1892 L8.1212,28.1542 L0.7002,29.6062 L0.7002,29.6062 Z" id="Stroke-4" stroke="#61B5AA" stroke-width="1.4" stroke-linecap="round" stroke-linejoin="round"></path>
                <path d="M4.7566,15.3249 C5.9386,15.3249 6.9016,14.3769 6.9016,13.2119 C6.9016,12.0469 5.9386,11.0989 4.7566,11.0989 C3.5746,11.0989 2.6126,12.0469 2.6126,13.2119 C2.6126,14.3769 3.5746,15.3249 4.7566,15.3249 L4.7566,15.3249 Z" id="Stroke-6" stroke="#61B5AA" stroke-width="1.4" stroke-linecap="round" stroke-linejoin="round"></path>
                <path d="M11.8376,12.1156 C13.2316,12.1156 14.3646,10.9816 14.3646,9.5886 C14.3646,8.1946 13.2316,7.0606 11.8376,7.0606 C10.4436,7.0606 9.3106,8.1946 9.3106,9.5886 C9.3106,10.9816 10.4436,12.1156 11.8376,12.1156 L11.8376,12.1156 Z" id="Stroke-8" stroke="#61B5AA" stroke-width="1.4" stroke-linecap="round" stroke-linejoin="round"></path>
                <path d="M5.0587,5.2372 C5.2007,5.5722 5.5407,5.7932 5.9067,5.7742 C6.2707,5.7562 6.5907,5.5052 6.6977,5.1572 C6.9297,4.3982 6.0617,3.7422 5.3937,4.1692 C5.0447,4.3932 4.8967,4.8532 5.0587,5.2372 C5.0807,5.2892 5.0367,5.1852 5.0587,5.2372 L5.0587,5.2372 Z" id="Stroke-10" stroke="#61B5AA" stroke-width="1.4" stroke-linecap="round" stroke-linejoin="round"></path>
                <path d="M14.1774,0.7 L27.3904,39.118" id="Stroke-12" stroke="#61B5AA" stroke-width="1.4" stroke-linecap="round" stroke-linejoin="round"></path>
                <path d="M16.3939,22.4818 C16.3939,22.4818 21.8309,23.7948 21.3309,29.8568 C21.3309,29.8568 21.1439,32.9818 18.8309,32.9818" id="Stroke-14" stroke="#61B5AA" stroke-width="1.4" stroke-linecap="round" stroke-linejoin="round"></path>
            </g>
        </g>
    </g>
</svg>