<?xml version="1.0" encoding="UTF-8" standalone="no"?>
<svg width="19px" height="38px" viewBox="0 0 19 38" version="1.1" xmlns="http://www.w3.org/2000/svg" xmlns:xlink="http://www.w3.org/1999/xlink">
    <!-- Generator: sketchtool 39 (31667) - http://www.bohemiancoding.com/sketch -->
    <title>1AFAEE37-E4AB-4ECD-8C41-781A09BA29E1</title>
    <desc>Created with sketchtool.</desc>
    <defs></defs>
    <g id="iconos" stroke="none" stroke-width="1" fill="none" fill-rule="evenodd">
        <g transform="translate(-283.000000, -363.000000)" id="bebes">
            <g transform="translate(283.000000, 362.000000)">
                <g id="Group-9" transform="translate(0.000000, 0.737100)" stroke="#78A2CC" stroke-width="1.4">
                    <path d="M0.7,19.9622 L0.7,19.5292 C0.7,18.4392 1.155,17.4142 1.98,16.6432 L3.455,15.2662 L15.352,15.2662 L16.826,16.6432 C17.652,17.4142 18.107,18.4392 18.107,19.5292 L18.107,34.3742 L18.107,34.3742 C18.107,35.9872 16.701,37.3002 14.974,37.3002 L3.833,37.3002 C2.106,37.3002 0.7,35.9872 0.7,34.3742 L0.7,32.6042 L0.7,21.8272 L0.7,19.8932 L0.7,19.9622 Z M1.938,9.4102 C1.938,9.0482 2.233,8.7532 2.595,8.7532 L3.499,8.7532 L3.501,8.7532 L3.503,8.7532 L15.3,8.7532 L15.305,8.7532 L16.212,8.7532 C16.574,8.7532 16.869,9.0482 16.869,9.4102 L16.869,11.8862 C16.869,12.2482 16.574,12.5432 16.212,12.5432 L2.595,12.5432 C2.233,12.5432 1.938,12.2482 1.938,11.8862 L1.938,9.4102 L1.938,9.4102 L1.938,9.4102 Z M6.662,5.9152 C7.503,5.4852 7.85,4.4872 7.47,3.5952 C7.371,3.3622 7.32,3.1142 7.32,2.8582 C7.32,2.3172 7.553,1.8012 7.957,1.4412 C8.368,1.0762 8.898,0.9112 9.45,0.9772 C10.267,1.0732 10.954,1.7302 11.085,2.5392 C11.143,2.8952 11.103,3.2552 10.969,3.5782 C10.593,4.4862 10.933,5.4892 11.762,5.9112 C12.848,6.4652 13.728,7.3742 14.259,8.4672 L4.168,8.4672 C4.697,7.3782 5.576,6.4722 6.662,5.9152 L6.662,5.9152 Z" id="Stroke-1"></path>
                    <path d="M13.7531,22.2811 L17.9731,22.2811" id="Stroke-3"></path>
                    <path d="M13.7531,30.9439 L17.9731,30.9439" id="Stroke-5"></path>
                    <path d="M14.1974,26.4274 L17.9734,26.4274" id="Stroke-7"></path>
                </g>
                <path d="M4.8375,32.5334 L4.8375,22.0264 L4.8375,32.5334 Z" id="Fill-10" fill="#78A2CC"></path>
                <path d="M4.8372,22.0272 L4.8372,32.5332" id="Stroke-11" stroke="#78A2CC" stroke-width="1.4" stroke-linecap="round" stroke-linejoin="round"></path>
            </g>
        </g>
    </g>
</svg>