<?xml version="1.0" encoding="UTF-8" standalone="no"?>
<svg width="18px" height="39px" viewBox="0 0 18 39" version="1.1" xmlns="http://www.w3.org/2000/svg" xmlns:xlink="http://www.w3.org/1999/xlink">
    <!-- Generator: sketchtool 39 (31667) - http://www.bohemiancoding.com/sketch -->
    <title>6F1C91A7-AE06-4807-A3A0-93782A1E112F</title>
    <desc>Created with sketchtool.</desc>
    <defs></defs>
    <g id="iconos" stroke="none" stroke-width="1" fill="none" fill-rule="evenodd" stroke-linecap="round" stroke-linejoin="round">
        <g transform="translate(-139.000000, -260.000000)" id="Page-1" stroke="#C7766C" stroke-width="1.4">
            <g transform="translate(139.000000, 260.000000)">
                <path d="M0.7537,11.0916 C0.7077,11.4806 0.7097,11.7746 0.7097,11.7746 L0.7097,35.6566 L17.2967,35.6566 L17.2967,11.7346 C17.2967,11.7346 17.2957,11.4616 17.2507,11.0916" id="Stroke-1"></path>
                <path d="M1.0789,7.3309 L16.9279,7.3309" id="Stroke-3"></path>
                <polyline id="Stroke-5" points="1.3171 9.1023 1.3171 9.8543 16.6901 9.8543 16.6901 9.1023"></polyline>
                <path d="M1.4177,36.0086 C1.8127,36.3346 2.3157,36.8696 2.7597,37.6996 L15.2467,37.6996 C15.6917,36.8696 16.5897,36.0086 16.5897,36.0086" id="Stroke-7"></path>
                <path d="M16.6604,5.5145 C16.6604,5.1095 16.3324,4.7815 15.9284,4.7815 L2.0794,4.7815 C1.6744,4.7815 1.3454,5.1095 1.3454,5.5145" id="Stroke-9"></path>
                <path d="M0.7,33.5555 L17.24,19.2585" id="Stroke-11"></path>
                <path d="M0.7,26.0301 L17.24,11.7341" id="Stroke-13"></path>
                <path d="M12.9417,3.9959 C12.5917,4.0009 9.1937,0.6939 12.9647,0.6999 C16.9237,0.7069 13.1737,3.9929 12.9417,3.9959 L12.9417,3.9959 Z" id="Stroke-15"></path>
            </g>
        </g>
    </g>
</svg>