<?xml version="1.0" encoding="UTF-8" standalone="no"?>
<svg width="120px" height="50px" viewBox="0 0 120 50" version="1.1" xmlns="http://www.w3.org/2000/svg" xmlns:xlink="http://www.w3.org/1999/xlink">
    <!-- Generator: Sketch 41.2 (35397) - http://www.bohemiancoding.com/sketch -->
    <title>bt_back</title>
    <desc>Created with Sketch.</desc>
    <defs>
        <rect id="path-1" x="0" y="0" width="120" height="50" rx="2"></rect>
        <mask id="mask-2" maskContentUnits="userSpaceOnUse" maskUnits="objectBoundingBox" x="0" y="0" width="120" height="50" fill="white">
            <use xlink:href="#path-1"></use>
        </mask>
    </defs>
    <g id="Restaurante_página" stroke="none" stroke-width="1" fill="none" fill-rule="evenodd">
        <g id="Restaurante_page_mosaic" transform="translate(-23.000000, -140.000000)">
            <g id="bt_back-to-lists" transform="translate(23.000000, 140.000000)">
                <g id="bt_agregar">
                    <use id="Frame_foto_producto-Copy-3" stroke="#FFFFFF" mask="url(#mask-2)" stroke-width="1.9" xlink:href="#path-1"></use>
                    <path d="M44.036,20.6 L47.384,29 L48.848,29 L52.244,20.6 L50.768,20.6 L48.152,27.428 L45.56,20.6 L44.036,20.6 Z M58.592,20.564 C56.084,20.564 54.14,22.388 54.14,24.8 C54.14,27.2 56.084,29.06 58.592,29.06 C61.1,29.06 63.044,27.2 63.044,24.8 C63.044,22.4 61.1,20.564 58.592,20.564 Z M58.604,21.836 C60.248,21.836 61.592,23.132 61.592,24.8 C61.592,26.468 60.248,27.788 58.604,27.788 C56.96,27.788 55.58,26.468 55.58,24.8 C55.58,23.132 56.948,21.836 58.604,21.836 Z M66.056,20.6 L66.056,29 L71.108,29 L71.108,27.716 L67.472,27.716 L67.472,20.6 L66.056,20.6 Z M72.896,20.6 L76.244,29 L77.708,29 L81.104,20.6 L79.628,20.6 L77.012,27.428 L74.42,20.6 L72.896,20.6 Z M83.744,20.6 L83.744,29 L89.888,29 L89.888,27.728 L85.16,27.728 L85.16,25.412 L89.264,25.412 L89.264,24.14 L85.16,24.14 L85.16,21.872 L89.744,21.872 L89.744,20.6 L83.744,20.6 Z M100.052,29 L98.168,26.192 C99.284,25.76 99.908,24.812 99.908,23.468 C99.908,21.644 98.672,20.6 96.524,20.6 L93.116,20.6 L93.116,29 L94.532,29 L94.532,26.468 L96.524,26.468 C96.656,26.468 96.788,26.468 96.908,26.456 L98.444,29 L100.052,29 Z M94.532,25.196 L94.532,21.872 L96.524,21.872 C97.82,21.872 98.564,22.4 98.564,23.504 C98.564,24.644 97.82,25.196 96.524,25.196 L94.532,25.196 Z" id="VOLVER" fill="#FFFFFF"></path>
                </g>
                <g id="_icon_back_white" transform="translate(11.000000, 15.000000)" fill="#FFFFFF">
                    <path d="M4.53375796,9.98726115 L11.6840764,2.79681529 C12.0875796,2.39363057 12.0872611,1.71687898 11.683758,1.3133758 C11.488535,1.11751592 11.2286624,1 10.9522293,1 C10.6757962,1 10.4156051,1.10286624 10.2200637,1.29840764 L1.30318471,10.2130573 C1.10764331,10.4085987 1,10.6671975 1,10.9436306 C1,11.2200637 1.10732484,11.4796178 1.30286624,11.6748408 L10.2200637,20.5917197 C10.6111465,20.9824841 11.2926752,20.9824841 11.6840764,20.5914013 C11.8796178,20.3961783 11.9872611,20.1359873 11.9872611,19.8595541 C11.9872611,19.583121 11.8796178,19.2834395 11.6840764,19.0882166 L4.53375796,11.8980892 L19.9649682,11.8980892 C20.2414013,11.8980892 20.5015924,11.8302548 20.6971338,11.6343949 C20.8923567,11.439172 21,11.2388535 21,10.9627389 C21,10.3917197 20.5356688,9.98726115 19.9649682,9.98726115 L4.53375796,9.98726115 Z"></path>
                </g>
            </g>
        </g>
    </g>
</svg>