<?xml version="1.0" encoding="UTF-8"?>
<svg width="22px" height="22px" viewBox="0 0 22 22" version="1.1" xmlns="http://www.w3.org/2000/svg" xmlns:xlink="http://www.w3.org/1999/xlink">
    <!-- Generator: sketchtool 39 (31667) - http://www.bohemiancoding.com/sketch -->
    <title>1E327CF0-9B81-4A88-879C-0110675D82A9</title>
    <desc>Created with sketchtool.</desc>
    <defs></defs>
    <g id="Page-1" stroke="none" stroke-width="1" fill="none" fill-rule="evenodd">
        <g id="Checkout---Step-2---Supermarket" transform="translate(-1348.000000, -65.000000)" fill="#ffffff">
            <g id="checkout-container" transform="translate(29.000000, 28.000000)">
                <g id="btn-close" transform="translate(1319.000000, 37.000000)">
                    <g id="ico-close" >
                        <path fill="#ffffff" d="M12.5632143,11.015 L21.3907143,2.23571429 C21.8139286,1.81678571 21.8139286,1.13857143 21.3907143,0.720714286 C20.9685714,0.301785714 20.2828571,0.301785714 19.8607143,0.720714286 L11.0407143,9.4925 L2.13928571,0.59 C1.71714286,0.166785714 1.03142857,0.166785714 0.609285714,0.59 C0.187142857,1.01428571 0.187142857,1.70107143 0.609285714,2.12428571 L9.50428571,11.0203571 L0.577142857,19.8982143 C0.155,20.3171429 0.155,20.9953571 0.577142857,21.4132143 C0.999285714,21.8321429 1.685,21.8321429 2.10714286,21.4132143 L11.0267857,12.5428571 L19.8928571,21.41 C20.315,21.8332143 21.0007143,21.8332143 21.4228571,21.41 C21.845,20.9857143 21.845,20.2989286 21.4228571,19.8757143 L12.5632143,11.015 L12.5632143,11.015 Z" id="Close"></path>
                    </g>
                </g>
            </g>
        </g>
    </g>
</svg>
