<?xml version="1.0" encoding="UTF-8"?>
<svg width="143px" height="25px" viewBox="0 0 143 25" version="1.1" xmlns="http://www.w3.org/2000/svg" xmlns:xlink="http://www.w3.org/1999/xlink">
    <!-- Generator: sketchtool 41.1 (35376) - http://www.bohemiancoding.com/sketch -->
    <title>C58E94F2-7178-4D9E-84CE-209178DB90D8</title>
    <desc>Created with sketchtool.</desc>
    <defs></defs>
    <g id="Page-1" stroke="none" stroke-width="1" fill="none" fill-rule="evenodd">
        <g id="Diligencias---Rappifavor" transform="translate(-439.000000, -493.000000)" fill="#FFFFFF">
            <g id="btn-addRappiFavor" transform="translate(439.000000, 490.000000)">
                <text id="AGREGAR-OTRA-DILIGEN" font-family="Montserrat-Regular, Montserrat" font-size="12" font-weight="normal" line-spacing="14.4" letter-spacing="1.28571439">
                    <tspan x="31" y="12">AGREGAR OTRA </tspan>
                    <tspan x="31" y="26.4">DILIGENCIA</tspan>
                </text>
                <g id="icon-add" transform="translate(0.000000, 5.000000)">
                    <path d="M11,0 C4.92479167,0 0,4.92525 0,11 C0,17.0752083 4.92479167,22 11,22 C17.0752083,22 22,17.0756667 22,11 C22,4.92525 17.0752083,0 11,0 Z M11.0132917,20.0951667 C5.96108333,20.0951667 1.86541667,15.9995 1.86541667,10.94775 C1.86541667,5.896 5.96108333,1.79941667 11.0132917,1.79941667 C16.0650417,1.79941667 20.1611667,5.89508333 20.1611667,10.9472917 C20.1611667,15.9995 16.0655,20.0951667 11.0132917,20.0951667 Z" id="Shape"></path>
                    <path d="M14.9233333,10.0384167 L11.9634167,10.0384167 L11.9670833,7.02441667 C11.9551667,6.81633333 11.8657917,6.40383333 11.3570417,6.40291667 L10.6333333,6.402 C10.0920417,6.40154167 10.04575,6.93595833 10.043,7.07575 L10.0393333,10.0379583 L7.011125,10.0379583 C6.45195833,10.0379583 6.40475,10.46925 6.40245833,10.5925417 L6.40245833,11.4216667 C6.40520833,11.534875 6.4515,11.9615833 7.011125,11.9615833 L10.0370417,11.9615833 L10.033375,14.9875 C10.0324583,15.5462083 10.46375,15.5943333 10.5875,15.5970833 L11.416625,15.598 C11.5298333,15.59525 11.9565417,15.5489583 11.9574583,14.99025 L11.961125,11.9620417 L14.9774167,11.9620417 C15.1855,11.9496667 15.598,11.8598333 15.598,11.3510833 L15.598,10.6278333 C15.5975417,10.0865417 15.063125,10.0411667 14.9233333,10.0384167 Z" id="Shape"></path>
                </g>
            </g>
        </g>
    </g>
</svg>