<?xml version="1.0" encoding="UTF-8" standalone="no"?>
<svg width="22px" height="22px" viewBox="0 0 22 22" version="1.1" xmlns="http://www.w3.org/2000/svg" xmlns:xlink="http://www.w3.org/1999/xlink">
    <!-- Generator: sketchtool 39.1 (31720) - http://www.bohemiancoding.com/sketch -->
    <title>E939E29C-30E0-4381-B6B4-93E084071505</title>
    <desc>Created with sketchtool.</desc>
    <defs></defs>
    <g id="Desktop" stroke="none" stroke-width="1" fill="none" fill-rule="evenodd">
        <g id="Login-register" transform="translate(-665.000000, -477.000000)" fill="#BBBBBB">
            <g id="modal-_morning" transform="translate(245.000000, 175.000000)">
                <g id="Group-5" transform="translate(420.000000, 302.000000)">
                    <g id="_ico_lock_gris">
                        <path d="M18.2727273,10.0909091 L16.4545455,10.0909091 L16.4545455,6.45454545 C16.4545455,3.44204545 14.0125,1 11,1 C7.9875,1 5.54545455,3.44204545 5.54545455,6.45454545 L5.54545455,10.0909091 L3.72727273,10.0909091 C2.22045455,10.0909091 1,11.3113636 1,12.8181818 L1,18.2727273 C1,19.7795455 2.22045455,21 3.72727273,21 L18.2727273,21 C19.7795455,21 21,19.7795455 21,18.2727273 L21,12.8181818 C21,11.3113636 19.7795455,10.0909091 18.2727273,10.0909091 L18.2727273,10.0909091 Z M7.36363636,6.45454545 C7.36363636,4.44636364 8.99181818,2.81818182 11,2.81818182 C13.0081818,2.81818182 14.6363636,4.44636364 14.6363636,6.45454545 L14.6363636,10.0909091 L7.36363636,10.0909091 L7.36363636,6.45454545 L7.36363636,6.45454545 Z M19.1818182,18.2727273 C19.1818182,18.775 18.775,19.1818182 18.2727273,19.1818182 L3.72727273,19.1818182 C3.225,19.1818182 2.81818182,18.775 2.81818182,18.2727273 L2.81818182,12.8181818 C2.81818182,12.3159091 3.225,11.9090909 3.72727273,11.9090909 L18.2727273,11.9090909 C18.775,11.9090909 19.1818182,12.3159091 19.1818182,12.8181818 L19.1818182,18.2727273 L19.1818182,18.2727273 Z" id="Shape"></path>
                    </g>
                </g>
            </g>
        </g>
    </g>
</svg>