<?xml version="1.0" encoding="UTF-8" standalone="no"?>
<svg width="30px" height="33px" viewBox="0 0 30 33" version="1.1" xmlns="http://www.w3.org/2000/svg" xmlns:xlink="http://www.w3.org/1999/xlink">
    <!-- Generator: sketchtool 39 (31667) - http://www.bohemiancoding.com/sketch -->
    <title>48E80D3A-09B4-4D19-B3D7-A522057E9393</title>
    <desc>Created with sketchtool.</desc>
    <defs></defs>
    <g id="iconos" stroke="none" stroke-width="1" fill="none" fill-rule="evenodd" stroke-linecap="round">
        <g transform="translate(-561.000000, -476.000000)" id="carnes" stroke="#D5A74F">
            <g transform="translate(561.000000, 476.000000)">
                <path d="M19.0666,5.7902 C18.8766,5.1852 18.4276,4.6882 17.7196,4.3642 C17.0006,4.0362 15.8666,3.8732 14.6366,4.1962 C13.4086,4.5192 12.6136,5.1642 12.2016,5.7742 C11.8006,6.3772 11.6956,7.0142 11.8826,7.6202 C12.0736,8.2242 12.5316,8.7202 13.2396,9.0442 C13.9576,9.3722 15.0806,9.5322 16.3096,9.2102 C17.5386,8.8882 18.3456,8.2382 18.7536,7.6292 C19.1556,7.0272 19.2536,6.3952 19.0666,5.7902 L19.0666,5.7902 Z" id="Stroke-1" stroke-linejoin="round"></path>
                <path d="M17.1064,6.2886 C17.0214,6.0126 16.8154,5.7876 16.4954,5.6396 C16.1684,5.4906 15.6514,5.4166 15.0954,5.5636 C14.5364,5.7106 14.1734,6.0036 13.9874,6.2806 C13.8044,6.5546 13.7564,6.8446 13.8424,7.1196 C13.9284,7.3946 14.1374,7.6196 14.4584,7.7666 C14.7854,7.9166 15.2954,7.9886 15.8534,7.8426 C16.4124,7.6966 16.7794,7.4006 16.9654,7.1246 C17.1464,6.8516 17.1924,6.5636 17.1064,6.2886 L17.1064,6.2886 Z" id="Stroke-3" stroke-linejoin="round"></path>
                <path d="M0.7,25.295 C0.7,25.295 3.112,29.312 9.003,25.671 C14.907,22.021 27.304,11.502 26.695,5.14" id="Stroke-5" stroke-width="1.4"></path>
                <path d="M27.6297,7.1414 L26.6957,5.1404 C25.2307,1.3004 20.2487,0.7744 19.9157,0.7494 C17.2657,0.5084 13.9027,1.1494 10.5607,2.7104 C4.2697,5.6474 0.4307,10.7294 1.9867,14.0604 C2.4477,15.0474 3.3337,15.7684 4.5127,16.2204 C5.1957,16.6734 6.1087,17.9384 2.9507,20.9564 C2.9307,20.9754 2.9137,20.9934 2.8947,21.0124 C1.1497,22.5964 0.3057,24.4024 0.8777,25.7614 C0.8367,25.6924 2.9887,29.8034 2.9887,29.8034 C2.9897,29.8054 2.9907,29.8074 2.9917,29.8094 C3.3177,30.5094 3.9697,30.9994 4.8677,31.2604 C4.8967,31.2724 4.9007,31.2854 4.9007,31.2854 C4.9007,31.2854 11.9587,34.3354 24.0357,19.9834 C29.9307,12.9784 28.8557,9.7664 27.6297,7.1414 L27.6297,7.1414 Z" id="Stroke-7" stroke-width="1.4"></path>
            </g>
        </g>
    </g>
</svg>