<?xml version="1.0" encoding="UTF-8" standalone="no"?>
<svg width="15px" height="40px" viewBox="0 0 15 40" version="1.1" xmlns="http://www.w3.org/2000/svg" xmlns:xlink="http://www.w3.org/1999/xlink">
    <!-- Generator: sketchtool 39 (31667) - http://www.bohemiancoding.com/sketch -->
    <title>4DB970F8-AF7B-44FB-AA6D-ACDB273DE3AA</title>
    <desc>Created with sketchtool.</desc>
    <defs></defs>
    <g id="iconos" stroke="none" stroke-width="1" fill="none" fill-rule="evenodd" stroke-linecap="round" stroke-linejoin="round">
        <g transform="translate(-285.000000, -472.000000)" id="colorete" stroke="#78A2CC" stroke-width="1.4">
            <g transform="translate(285.000000, 472.000000)">
                <path d="M2.4204,19.7283 C1.3844,19.8333 0.7114,19.9753 0.7114,20.1283 L0.7004,37.5643 C0.7004,37.5893 0.7024,37.7633 0.7024,37.7633 C0.9224,38.3613 3.6974,38.8113 7.1024,38.8133 C10.5074,38.8153 13.3204,38.3693 13.6364,37.7713 L13.6474,20.1373 C13.6474,19.9873 13.0524,19.8513 12.0724,19.7453" id="Stroke-1"></path>
                <path d="M12.0292,0.8654 C12.0252,0.8554 12.0342,0.8384 12.0292,0.8294 C11.7572,0.3594 9.3972,1.2114 6.7572,2.7334 C4.4062,4.0884 2.6372,5.5124 2.4662,6.1414 L2.4312,6.1614 L2.4222,20.7694 C2.4222,21.2644 4.5712,21.6674 7.2332,21.6684 C9.8952,21.6704 12.0452,21.2704 12.0462,20.7754 L12.0582,0.8494 L12.0292,0.8654 L12.0292,0.8654 Z" id="Stroke-3"></path>
                <path d="M3.1034,26.9147 L3.0654,34.4287" id="Stroke-5"></path>
                <path d="M4.9941,7.3695 C4.9941,7.3695 7.8521,6.4995 9.8411,4.1215" id="Stroke-7"></path>
            </g>
        </g>
    </g>
</svg>