<?xml version="1.0" encoding="UTF-8" standalone="no"?>
<svg width="26px" height="35px" viewBox="0 0 26 35" version="1.1" xmlns="http://www.w3.org/2000/svg" xmlns:xlink="http://www.w3.org/1999/xlink">
    <!-- Generator: sketchtool 39 (31667) - http://www.bohemiancoding.com/sketch -->
    <title>D550840F-8A8C-4215-832C-956BA3B016BA</title>
    <desc>Created with sketchtool.</desc>
    <defs></defs>
    <g id="iconos" stroke="none" stroke-width="1" fill="none" fill-rule="evenodd">
        <g transform="translate(-562.000000, -262.000000)" id="despensa" stroke-width="1.4" stroke="#D5A74F">
            <g transform="translate(562.000000, 261.000000)">
                <polygon id="Stroke-1" points="20.2199 28.511 5.7709 28.513 5.7699 17.584 20.2189 17.582"></polygon>
                <g id="Group-8" transform="translate(0.000000, 0.908200)" stroke-linecap="round">
                    <path d="M1.2191,13.8686 C1.2191,13.8896 1.2131,13.9096 1.2131,13.9306 L1.2141,30.3076 C1.2151,32.5126 3.0021,34.3006 5.2071,34.2996 L20.2121,34.2986 C22.4171,34.2986 24.2041,32.5106 24.2041,30.3056 L24.2021,13.9286" id="Stroke-2"></path>
                    <path d="M23.7662,4.992 L1.7662,4.992 C1.2142,4.992 0.7662,4.544 0.7662,3.992 L0.7662,1.792 C0.7662,1.24 1.2142,0.792 1.7662,0.792 L23.7662,0.792 C24.3182,0.792 24.7662,1.24 24.7662,1.792 L24.7662,3.992 C24.7662,4.544 24.3182,4.992 23.7662,4.992 L23.7662,4.992 Z" id="Stroke-4"></path>
                    <path d="M1.821,5.5447 L0.717,9.8887 C0.717,9.8887 0.408,11.7357 2.437,11.7357 C4.467,11.7357 4.173,9.8887 4.173,9.8887 C4.173,9.8887 4.14,8.0977 5.897,8.0977 C7.654,8.0977 7.592,9.7447 7.592,9.7447 C7.592,9.7447 7.643,11.7347 9.289,11.7347 C10.936,11.7347 11.001,9.7517 11.001,9.7517 C11.001,9.7517 11.064,8.1037 12.718,8.1037 C14.373,8.1037 14.414,10.0907 14.414,10.0907 C14.414,10.0907 14.327,11.7377 16.053,11.7377 C17.779,11.7377 17.717,9.7487 17.717,9.7487 C17.717,9.7487 17.593,8.1017 19.233,8.1017 C20.873,8.1017 20.717,10.0857 20.717,10.0857 C20.717,10.0857 20.813,11.7327 22.703,11.7327 C24.592,11.7327 24.717,9.9177 24.717,9.9177 L23.779,4.9917" id="Stroke-6"></path>
                </g>
            </g>
        </g>
    </g>
</svg>