<?xml version="1.0" encoding="UTF-8"?>
<svg width="19px" height="16px" viewBox="0 0 19 16" version="1.1" xmlns="http://www.w3.org/2000/svg" xmlns:xlink="http://www.w3.org/1999/xlink">
    <!-- Generator: sketchtool 41.1 (35376) - http://www.bohemiancoding.com/sketch -->
    <title>4D1D07AD-FB66-4463-8515-619419990FB9</title>
    <desc>Created with sketchtool.</desc>
    <defs></defs>
    <g id="Page-1" stroke="none" stroke-width="1" fill="none" fill-rule="evenodd">
        <g id="Desktop---Lo-que-quieras---Home---Step-2" transform="translate(-259.000000, -1090.000000)" fill="#FFFFFF">
            <g id="Modal-2" transform="translate(229.000000, 1070.000000)">
                <g id="btn-back" transform="translate(2.000000, 15.791557)">
                    <path d="M31.4472913,11.309273 L37.8962992,5.87087153 C38.2602264,5.56592795 38.2599392,5.05407557 37.896012,4.74889111 C37.7199367,4.60075501 37.4855527,4.51187335 37.2362324,4.51187335 C36.9869121,4.51187335 36.7522408,4.58967491 36.5758783,4.73757014 L28.533576,11.480051 C28.3572135,11.6279462 28.2601279,11.8235341 28.2601279,12.0326107 C28.2601279,12.2416873 28.3569262,12.4379978 28.5332887,12.5856521 L36.5758783,19.3298191 C36.9286033,19.6253687 37.543287,19.6253687 37.8962992,19.3295782 C38.0726617,19.1819239 38.1697473,18.9851317 38.1697473,18.776055 C38.1697473,18.5669784 38.0726617,18.3403181 37.8962992,18.1926638 L31.4472913,12.7545032 L45.3649926,12.7545032 C45.6143129,12.7545032 45.8489842,12.7031975 46.0253467,12.5550614 C46.2014219,12.4074071 46.2985075,12.2558988 46.2985075,12.047063 C46.2985075,11.61518 45.8797183,11.309273 45.3649926,11.309273 L31.4472913,11.309273 Z" id="Fill-1"></path>
                </g>
            </g>
        </g>
    </g>
</svg>