<?xml version="1.0" encoding="UTF-8" standalone="no"?>
<svg width="29px" height="37px" viewBox="0 0 29 37" version="1.1" xmlns="http://www.w3.org/2000/svg" xmlns:xlink="http://www.w3.org/1999/xlink">
    <!-- Generator: sketchtool 39 (31667) - http://www.bohemiancoding.com/sketch -->
    <title>41388E54-94F5-45CA-A43D-82F2A06A0291</title>
    <desc>Created with sketchtool.</desc>
    <defs></defs>
    <g id="iconos" stroke="none" stroke-width="1" fill="none" fill-rule="evenodd">
        <g transform="translate(-418.000000, -474.000000)" id="frutasverduras" stroke="#61B5AA">
            <g transform="translate(418.000000, 474.000000)">
                <path d="M3.5576,11.5398 C1.2286,13.0338 -0.1564,15.4688 1.2906,20.6798 C3.1236,27.2718 8.0086,35.6998 14.1146,35.6998 C20.2196,35.6998 25.1076,27.2718 26.9386,20.6798 C28.3856,15.4688 26.6486,13.0768 24.3196,11.5808" id="Stroke-1" stroke-width="1.4" stroke-linecap="round" stroke-linejoin="round"></path>
                <path d="M7.6133,10.2312 C6.3033,11.8412 6.1733,13.5082 6.1733,14.0332 C6.1733,14.1262 6.1773,14.1842 6.1803,14.1982 C6.1863,14.3282 6.2493,14.4512 6.3483,14.5352 C6.4493,14.6192 6.5803,14.6582 6.7093,14.6462 C9.1663,14.4002 10.6823,13.2062 11.5983,12.0322 C11.6003,12.2782 11.6173,12.4942 11.6603,12.6592 C12.1413,14.4912 13.0383,15.3022 13.6683,15.7522 C13.8383,15.8742 14.0633,15.8742 14.2313,15.7522 C14.8633,15.3022 15.7573,14.4902 16.2393,12.6592 C16.2823,12.4942 16.3003,12.2782 16.3023,12.0342 C17.2183,13.2062 18.7333,14.4002 21.1903,14.6462 C21.3213,14.6582 21.4503,14.6192 21.5523,14.5352 C21.6513,14.4512 21.7113,14.3282 21.7203,14.1982 C21.7213,14.1842 21.7273,14.1262 21.7273,14.0332 C21.7273,13.5082 21.5953,11.8412 20.2873,10.2312 C21.5283,10.3452 23.2143,10.1102 24.8303,8.6272 C24.9323,8.5342 24.9883,8.4032 24.9883,8.2692 C24.9883,8.2272 24.9823,8.1812 24.9703,8.1372 C24.9213,7.9612 24.7743,7.8282 24.5933,7.7952 C24.5693,7.7912 22.0613,7.3142 19.9013,6.4642 C19.4423,6.2852 19.0243,6.0732 18.6193,5.8682 C17.7083,5.4072 16.7413,4.9482 15.2773,4.7702 L15.2773,1.1822 C15.2773,0.9162 15.0603,0.7002 14.7943,0.7002 L13.1063,0.7002 C12.8403,0.7002 12.6223,0.9162 12.6223,1.1822 L12.6223,4.7922 C11.1883,4.9862 10.1873,5.4442 9.2413,5.9032 L7.9993,6.4642 L8.0003,6.4642 L7.9963,6.4642 C5.8353,7.3142 3.3313,7.7912 3.3053,7.7952 C3.1263,7.8282 2.9793,7.9612 2.9303,8.1372 C2.9183,8.1812 2.9123,8.2272 2.9123,8.2692 C2.9123,8.4032 2.9683,8.5342 3.0673,8.6272 C4.6863,10.1102 6.3713,10.3452 7.6133,10.2312 L7.6133,10.2312 Z" id="Stroke-3" stroke-width="1.4" stroke-linecap="round" stroke-linejoin="round"></path>
                <path d="M6.7775,18.2 C6.2415,18.2 5.8045,18.894 5.8045,19.753 C5.8045,20.61 6.2415,21.305 6.7775,21.305 C7.3135,21.305 7.7475,20.61 7.7475,19.753 C7.7475,18.894 7.3135,18.2 6.7775,18.2 L6.7775,18.2 Z" id="Stroke-5"></path>
                <path d="M21.3058,18.2 C20.7698,18.2 20.3348,18.894 20.3348,19.753 C20.3348,20.61 20.7698,21.305 21.3058,21.305 C21.8418,21.305 22.2768,20.61 22.2768,19.753 C22.2768,18.894 21.8418,18.2 21.3058,18.2 L21.3058,18.2 Z" id="Stroke-7"></path>
                <path d="M14.0421,18.2 C13.5051,18.2 13.0691,18.894 13.0691,19.753 C13.0691,20.61 13.5051,21.305 14.0421,21.305 C14.5781,21.305 15.0121,20.61 15.0121,19.753 C15.0121,18.894 14.5781,18.2 14.0421,18.2 L14.0421,18.2 Z" id="Stroke-9"></path>
                <path d="M14.0421,30.1697 C13.5051,30.1697 13.0691,30.8637 13.0691,31.7227 C13.0691,32.5787 13.5051,33.2767 14.0421,33.2767 C14.5781,33.2767 15.0121,32.5787 15.0121,31.7227 C15.0121,30.8637 14.5781,30.1697 14.0421,30.1697 L14.0421,30.1697 Z" id="Stroke-11"></path>
                <path d="M10.7403,24.8035 C10.2043,24.8035 9.7673,25.4965 9.7673,26.3565 C9.7673,27.2125 10.2043,27.9085 10.7403,27.9085 C11.2753,27.9085 11.7093,27.2125 11.7093,26.3565 C11.7093,25.4965 11.2753,24.8035 10.7403,24.8035 L10.7403,24.8035 Z" id="Stroke-13"></path>
                <path d="M18.004,24.8035 C17.467,24.8035 17.032,25.4965 17.032,26.3565 C17.032,27.2125 17.467,27.9085 18.004,27.9085 C18.54,27.9085 18.975,27.2125 18.975,26.3565 C18.975,25.4965 18.54,24.8035 18.004,24.8035 L18.004,24.8035 Z" id="Stroke-15"></path>
            </g>
        </g>
    </g>
</svg>