<?xml version="1.0" encoding="UTF-8" standalone="no"?>
<svg width="28px" height="27px" viewBox="0 0 28 27" version="1.1" xmlns="http://www.w3.org/2000/svg" xmlns:xlink="http://www.w3.org/1999/xlink">
    <!-- Generator: Sketch 39.1 (31720) - http://www.bohemiancoding.com/sketch -->
    <title>heart icon</title>
    <desc>Created with Sketch.</desc>
    <defs></defs>
    <g id="Page-1" stroke="none" stroke-width="1" fill="none" fill-rule="evenodd">
        <g id="modal_selectAddress-Big" transform="translate(-822.000000, -348.000000)" fill="#FFFFFF">
            <g id="container" transform="translate(245.000000, 86.000000)">
                <g id="card" transform="translate(288.000000, 231.000000)">
                    <g id="heart-icon" transform="translate(289.000000, 31.000000)">
                        <path d="M14,27 C13.785,27 13.57,26.931 13.39,26.793 C12.844,26.372 0,16.396 0,8 C0,3.589 3.589,0 8,0 C12.411,0 16,3.589 16,8 C16,8.552 15.553,9 15,9 C14.448,9 14,8.552 14,8 C14,4.691 11.309,2 8,2 C4.691,2 2,4.691 2,8 C2,14.467 11.477,22.653 14,24.719 C16.522,22.653 26,14.46 26,8 C26,4.691 23.309,2 20,2 C19.105,2 18.244,2.192 17.441,2.57 C16.941,2.806 16.344,2.591 16.11,2.092 C15.875,1.592 16.089,0.997 16.588,0.761 C17.66,0.256 18.808,0 20,0 C24.411,0 28,3.589 28,8 C28,16.396 15.156,26.372 14.61,26.793 C14.43,26.931 14.215,27 14,27 L14,27 Z" id="Shape"></path>
                    </g>
                </g>
            </g>
        </g>
    </g>
</svg>