<?xml version="1.0" encoding="UTF-8" standalone="no"?>
<svg width="22px" height="22px" viewBox="0 0 22 22" version="1.1" xmlns="http://www.w3.org/2000/svg" xmlns:xlink="http://www.w3.org/1999/xlink">
    <!-- Generator: sketchtool 39.1 (31720) - http://www.bohemiancoding.com/sketch -->
    <title>D6B330BC-13CB-40DA-B62C-296BB2C2856D</title>
    <desc>Created with sketchtool.</desc>
    <defs></defs>
    <g id="Search-Results" stroke="none" stroke-width="1" fill="none" fill-rule="evenodd">
        <g id="modal_direccion" transform="translate(-430.000000, -332.000000)" fill="#BBBBBB">
            <g id="Modal" transform="translate(395.000000, 75.000000)">
                <g id="apto/-oficina-/piso-field" transform="translate(35.000000, 257.000000)">
                    <g id="_ico_apto_gris">
                        <g id="Group-2">
                            <path d="M7.42430769,6.38984615 L4.98353846,6.38984615 C4.65276923,6.38984615 4.42123077,6.62061538 4.42123077,6.95215385 C4.42123077,7.28292308 4.65276923,7.51446154 4.98353846,7.51446154 L7.42430769,7.51446154 C7.75507692,7.51446154 7.98661538,7.28292308 7.98661538,6.95215385 C7.98661538,6.62061538 7.75507692,6.38984615 7.42430769,6.38984615" id="Fill-5"></path>
                            <path d="M7.8926924,13.3733902 L3.74966689,13.3733902 C3.37126821,13.3733902 3.10638914,13.6382692 3.10638914,14.0157879 L3.10638914,20.7134445 L1.2865555,20.7134445 L1.2865555,1.28663242 L10.3558038,1.28663242 L10.3558038,20.7134445 L8.53597015,20.7134445 L8.53597015,14.0157879 C8.53597015,13.6382692 8.27109108,13.3733902 7.8926924,13.3733902 L7.8926924,13.3733902 Z M4.39294464,20.7134445 L7.24941465,20.7134445 L7.24941465,14.6599457 L4.39294464,14.6599457 L4.39294464,20.7134445 L4.39294464,20.7134445 Z M18.2493762,14.004348 L14.1063507,14.004348 C13.727072,14.004348 13.4630729,14.268347 13.4630729,14.6467457 L13.4630729,20.7134445 L11.6423593,20.7134445 L11.6423593,7.77044975 L20.7124876,7.77044975 L20.7124876,20.7134445 L18.8926539,20.7134445 L18.8926539,14.6467457 C18.8926539,14.268347 18.6277749,14.004348 18.2493762,14.004348 L18.2493762,14.004348 Z M14.7505084,20.7134445 L17.6069784,20.7134445 L17.6069784,15.2909035 L14.7505084,15.2909035 L14.7505084,20.7134445 L14.7505084,20.7134445 Z M11.6423593,6.48389425 L11.6423593,0.643354674 C11.6423593,0.264955997 11.3774802,7.69230769e-05 10.9990815,7.69230769e-05 L0.642397754,7.69230769e-05 C0.263999077,7.69230769e-05 0,0.264955997 0,0.643354674 L0,21.3567222 C0,21.7351209 0.263999077,22 0.642397754,22 L21.3566453,22 C21.735044,22 21.9999231,21.7351209 21.9999231,21.3567222 L21.9999231,7.127172 C21.9999231,6.74877333 21.735044,6.48389425 21.3566453,6.48389425 L11.6423593,6.48389425 Z" id="Fill-1"></path>
                        </g>
                    </g>
                </g>
            </g>
        </g>
    </g>
</svg>