<?xml version="1.0" encoding="UTF-8" standalone="no"?>
<svg width="22px" height="22px" viewBox="0 0 22 22" version="1.1" xmlns="http://www.w3.org/2000/svg" xmlns:xlink="http://www.w3.org/1999/xlink">
    <!-- Generator: sketchtool 39.1 (31720) - http://www.bohemiancoding.com/sketch -->
    <title>EB4105BA-4225-4002-A671-7177CE0CBA3E</title>
    <desc>Created with sketchtool.</desc>
    <defs></defs>
    <g id="Search-Results" stroke="none" stroke-width="1" fill="none" fill-rule="evenodd">
        <g id="modal_direccion" transform="translate(-430.000000, -267.000000)" fill="#BBBBBB">
            <g id="Modal" transform="translate(395.000000, 75.000000)">
                <g id="dirección_field" transform="translate(35.000000, 192.000000)">
                    <g id="_ico_location_gris">
                        <g id="Group" transform="translate(3.000000, 1.000000)">
                            <path d="M8,11.5958324 C5.98769231,11.5958324 4.35076923,9.96596499 4.35076923,7.96294377 C4.35076923,5.95992255 5.98769231,4.33005517 8,4.33005517 C10.0116923,4.33005517 11.648,5.95992255 11.648,7.96294377 C11.648,9.96596499 10.0116923,11.5958324 8,11.5958324 M8,3.05005782 C5.27876923,3.05005782 3.06461538,5.25344244 3.06461538,7.96294377 C3.06461538,10.6724451 5.27876923,12.8764424 8,12.8764424 C10.7206154,12.8764424 12.9341538,10.6724451 12.9341538,7.96294377 C12.9341538,5.25405517 10.7206154,3.05005782 8,3.05005782" id="Fill-1"></path>
                            <path d="M14.5787077,9.28969257 C14.4888615,9.73024695 14.3559385,10.1585467 14.1836308,10.5623371 C13.8827077,11.2718809 13.4537846,11.866231 13.0002462,12.4942814 L12.7750154,12.8067748 L8.02547692,19.5437642 L2.99470769,12.4881541 C2.54178462,11.8607164 2.11532308,11.2682045 1.81501538,10.5623371 C1.64209231,10.1560958 1.50978462,9.72840875 1.42116923,9.29153077 C1.33193846,8.85158912 1.28578462,8.40429469 1.28578462,7.96312759 C1.28578462,6.17762626 1.98424615,4.49874032 3.25255385,3.23589947 C3.87901538,2.6121382 4.61316923,2.12440345 5.43470769,1.7855626 C6.25132308,1.44855995 7.11409231,1.27760769 8.00024615,1.27760769 C8.88516923,1.27760769 9.74732308,1.44855995 10.5639385,1.7855626 C11.3860923,2.12440345 12.1202462,2.6121382 12.7460923,3.23589947 C14.0150154,4.49874032 14.7134769,6.17762626 14.7134769,7.96251485 C14.7134769,8.40000557 14.6685538,8.84668727 14.5787077,9.28969257 M13.6556308,2.33028143 C12.9104,1.58765013 12.0359385,1.00616737 11.0562462,0.602376923 C10.0876308,0.202875597 9.05932308,6.12732096e-05 8.00086154,6.12732096e-05 C6.94116923,6.12732096e-05 5.91224615,0.202875597 4.9424,0.602376923 C3.96147692,1.00739284 3.08763077,1.5888756 2.34363077,2.33028143 C0.832246154,3.83576419 0.000246153846,5.83633448 0.000246153846,7.96312759 C0.000246153846,8.48762626 0.0537846154,9.02009045 0.160246154,9.54458912 C0.266092308,10.0672496 0.424861538,10.5776554 0.631015385,11.0611011 C0.989169231,11.9042204 1.48147692,12.5849658 1.95532308,13.2424273 L6.97686154,20.2863955 C7.21624615,20.6203345 7.58978462,20.8121196 8.00024615,20.8121196 C8.41009231,20.8121196 8.7824,20.6203345 9.02301538,20.28517 L14.0470154,13.2387509 C14.5208615,12.5819021 15.0113231,11.9023822 15.3688615,11.0617138 C15.5731692,10.5794936 15.7319385,10.0690878 15.8396308,9.54520186 C15.9460923,9.01947772 16.0002462,8.48701353 16.0002462,7.96312759 C16.0002462,5.83572175 15.1676308,3.83515146 13.6556308,2.33028143" id="Fill-3"></path>
                        </g>
                    </g>
                </g>
            </g>
        </g>
    </g>
</svg>