<?xml version="1.0" encoding="UTF-8" standalone="no"?>
<svg width="80px" height="80px" viewBox="0 0 80 80" version="1.1" xmlns="http://www.w3.org/2000/svg" xmlns:xlink="http://www.w3.org/1999/xlink">
    <!-- Generator: sketchtool 39.1 (31720) - http://www.bohemiancoding.com/sketch -->
    <title>840B522F-9BB1-4522-B0CC-144E03DA6747</title>
    <desc>Created with sketchtool.</desc>
    <defs></defs>
    <g id="Resultado-accionable" stroke="none" stroke-width="1" fill="none" fill-rule="evenodd">
        <g transform="translate(-781.000000, -379.000000)" id="Dropdown-autocompletar-" fill="#D4D4D4">
            <g transform="translate(466.000000, 209.000000)">
                <g id="Group-Copy" transform="translate(275.000000, 140.000000)">
                    <g id="ico_product-green" transform="translate(40.000000, 30.000000)">
                        <path d="M57.6777331,57.9387882 C57.3140704,59.4817571 55.72954,60.7376922 54.1463085,60.7376922 L26.3663748,60.7376922 C24.7857408,60.7376922 23.2180949,59.4726655 22.8713165,57.9180075 L19.5031593,41.4674656 L27.9145388,41.3869403 L52.5981445,41.3869403 L52.6565903,41.4674656 L61.0973223,41.4674656 L57.6777331,57.9387882 Z M16.7046362,38.3438628 L16.7046362,36.0346047 C16.7046362,35.1618142 17.409882,34.4513731 18.2761785,34.4513731 L62.235206,34.4513731 C63.1015025,34.4513731 63.8067483,35.1618142 63.8067483,36.0346047 L63.8067483,38.3438628 C63.8067483,39.2179521 63.1015025,39.9283931 62.235206,39.9283931 L18.2761785,39.9283931 C17.409882,39.9283931 16.7046362,39.2179521 16.7046362,38.3438628 L16.7046362,38.3438628 Z M23.6428009,29.0938423 C23.6428009,28.226247 24.3493456,27.5197024 25.2169409,27.5197024 L34.5968409,27.5508734 C35.4839181,27.553471 36.1800724,28.2613145 36.1800724,29.1613797 L36.1800724,32.9902284 L23.6428009,32.9902284 L23.6428009,29.0938423 Z M35.2046771,22.1556776 C35.2046771,21.2971738 35.9060266,20.5984219 36.7671279,20.5984219 L36.7684267,20.5984219 L41.5233165,20.642581 C42.4013022,20.6503737 43.1169384,21.3686076 43.1169384,22.241398 L43.1169384,32.9902284 L37.6399184,32.9902284 L37.6399184,29.1613797 C37.6399184,27.731406 36.7203713,26.5391119 35.3527398,26.1949311 L35.2046771,26.157266 L35.2046771,22.1556776 Z M55.8581208,14.5837007 C56.1061907,14.0732741 56.681557,13.7303921 57.2906921,13.7303921 C57.5296704,13.7303921 57.754362,13.7810451 57.9582729,13.88365 L62.1975409,16.0019852 C62.9833121,16.3942214 63.3067121,17.3631227 62.9170735,18.1605831 L55.8698099,32.6096813 C55.8399377,32.6707247 55.8269497,32.7434572 55.8139617,32.8278789 L55.786687,32.9902284 L46.8795485,32.9902284 L55.8581208,14.5837007 Z M63.0950085,41.249268 C64.4353653,40.7933908 65.2665943,39.6400606 65.2665943,38.3438628 L65.2665943,36.0346047 C65.2665943,34.3565611 63.9067556,32.9902284 62.235206,32.9902284 L57.3075764,32.9902284 L64.2301556,18.7995904 C64.9691702,17.285195 64.3509436,15.4435032 62.8482374,14.6940983 L58.6076705,12.5770619 C58.1803669,12.3640594 57.7231909,12.2549606 57.2543258,12.2549606 C56.0906052,12.2549606 55.0528677,12.9030595 54.5450387,13.9446934 L45.417105,32.6590356 C45.4015194,32.6928042 45.353464,32.9473681 45.353464,32.9473681 L45.1833218,32.9902284 L44.5754856,32.9902284 L44.5754856,22.241398 C44.5754856,20.5711472 43.2130493,19.1996193 41.5376033,19.182735 L36.7970002,19.138576 C35.1150603,19.138576 33.74613,20.4919207 33.74613,22.1556776 L33.74613,26.0884299 L25.2260325,26.0598564 C23.5479889,26.0598564 22.182955,27.4209939 22.182955,29.0938423 L22.182955,32.9902284 L18.2761785,32.9902284 C16.6046289,32.9902284 15.246089,34.3565611 15.246089,36.0346047 L15.246089,38.3438628 C15.246089,39.7504582 16.2007036,40.9622342 17.5696339,41.293427 L21.446538,58.2362124 C21.9400802,60.4571524 24.0999769,62.1962394 26.3663748,62.1962394 L54.1463085,62.1962394 C56.4062124,62.1962394 58.5803958,60.4740368 59.0986152,58.2738774 L63.0950085,41.249268 Z" id="Fill-1"></path>
                    </g>
                </g>
            </g>
        </g>
    </g>
</svg>