<?xml version="1.0" encoding="UTF-8" standalone="no"?>
<svg width="22px" height="22px" viewBox="0 0 22 22" version="1.1" xmlns="http://www.w3.org/2000/svg" xmlns:xlink="http://www.w3.org/1999/xlink">
    <!-- Generator: sketchtool 39.1 (31720) - http://www.bohemiancoding.com/sketch -->
    <title>EF0E3632-FC91-498D-BE9C-8E5136797465</title>
    <desc>Created with sketchtool.</desc>
    <defs></defs>
    <g id="Restaurantes_Home" stroke="none" stroke-width="1" fill="none" fill-rule="evenodd">
        <g id="Restaurantes_home" transform="translate(-260.000000, -1601.000000)" fill="#D4D4D4">
            <g id="Carrusel-restaurants_opcion1" transform="translate(40.000000, 1355.000000)">
                <g id="Product_card-1">
                    <g>
                        <g id="info" transform="translate(220.000000, 150.000000)">
                            <g id="Group-3" transform="translate(0.000000, 96.000000)">
                                <g id="icon_motorcycle">
                                    <g id="Group" transform="translate(0.000000, 3.000000)">
                                        <path d="M21.6333333,13.0909091 L0,13.0909091 L0,12.7272727 C0,11.0181818 1.02666667,8.65454545 2.75,7.67272727 C3.26333333,7.38181818 3.37333333,7.2 3.37333333,7.16363636 C3.37333333,7.16363636 3.33666667,7.12727273 3.3,7.09090909 C3.3,7.09090909 3.22666667,7.05454545 3.04333333,7.05454545 C2.93333333,7.05454545 2.78666667,7.16363636 2.64,7.16363636 C2.49333333,7.16363636 2.31,7.27272727 2.16333333,7.27272727 L2.16333333,7.27272727 C1.98,7.27272727 1.43,7.2 1.21,6.8 C1.06333333,6.54545455 0.99,5.70909091 1.21,5.23636364 C1.32,4.98181818 1.54,4.8 1.79666667,4.72727273 C2.31,4.65454545 6.23333333,4.18181818 8.03,4.18181818 C8.61666667,4.18181818 8.83666667,4.21818182 8.94666667,4.25454545 C10.0466667,4.58181818 10.4866667,5.52727273 10.45,6.32727273 C10.4133333,7.23636364 9.53333333,7.34545455 8.98333333,7.41818182 C8.72666667,7.45454545 8.43333333,7.49090909 8.28666667,7.56363636 C7.37,8.03636364 7.26,9.23636364 7.44333333,9.92727273 C7.55333333,10.3636364 7.73666667,10.5090909 7.77333333,10.5090909 L11.0733333,10.5090909 C11.22,10.5090909 12.5033333,10.4727273 12.5766667,8.83636364 L12.5766667,8.58181818 C12.5766667,7.70909091 12.5766667,5.96363636 13.86,4.87272727 C13.9333333,3.92727273 13.75,3.34545455 13.6766667,3.01818182 C13.64,2.94545455 13.4566667,2.8 12.9433333,2.8 C12.6133333,2.8 12.32,2.83636364 12.2466667,2.87272727 C12.1366667,2.90909091 12.0633333,2.90909091 11.9533333,2.90909091 C11.5866667,2.90909091 11.44,2.72727273 11.3666667,2.61818182 C11.2933333,2.50909091 11.2566667,2.25454545 11.5133333,1.96363636 C11.5133333,1.96363636 13.09,0.145454545 15.07,0 L15.2166667,0 C16.17,0 18.04,0.545454545 18.04,1.81818182 C18.04,2.83636364 17.0133333,3.52727273 15.95,3.63636364 L17.2333333,8.36363636 C17.71,8.4 18.7,8.58181818 19.7633333,9.30909091 C21.6333333,10.6181818 21.7066667,12.6545455 21.7066667,12.7272727 L21.7066667,13.0909091 L21.6333333,13.0909091 Z M0.733333333,12.3636364 L20.7533333,12.3636364 C20.68,11.7818182 20.35,10.6909091 19.2133333,9.89090909 C18.0766667,9.12727273 17.0866667,9.09090909 16.9033333,9.09090909 L16.61,9.09090909 L16.5,8.83636364 L14.8866667,2.87272727 L15.4,2.90909091 C16.17,2.98181818 17.1966667,2.47272727 17.1966667,1.81818182 C17.1966667,1.16363636 15.8033333,0.727272727 15.1066667,0.727272727 L15.0333333,0.727272727 C13.8233333,0.8 12.7233333,1.70909091 12.2466667,2.14545455 C12.43,2.10909091 12.65,2.10909091 12.8333333,2.10909091 C13.8233333,2.10909091 14.1533333,2.50909091 14.2633333,2.8 C14.3733333,3.2 14.5933333,3.92727273 14.4466667,5.09090909 L14.4466667,5.23636364 L14.3366667,5.34545455 C13.2366667,6.21818182 13.2366667,7.81818182 13.2366667,8.61818182 L13.2366667,8.90909091 C13.1266667,10.7636364 11.7333333,11.2727273 11,11.2727273 L7.7,11.2727273 C7.22333333,11.2727273 6.82,10.8363636 6.67333333,10.1090909 C6.41666667,8.98181818 6.74666667,7.52727273 7.92,6.94545455 C8.21333333,6.8 8.54333333,6.76363636 8.87333333,6.72727273 C9.57,6.65454545 9.71666667,6.58181818 9.71666667,6.32727273 C9.71666667,6.21818182 9.71666667,5.27272727 8.72666667,4.98181818 C8.69,4.98181818 8.50666667,4.94545455 8.03,4.94545455 C6.30666667,4.94545455 2.42,5.38181818 1.90666667,5.45454545 C1.79666667,5.52727273 1.76,6.10909091 1.83333333,6.36363636 C1.87,6.36363636 1.94333333,6.4 2.16333333,6.4 C2.31,6.4 2.45666667,6.4 2.60333333,6.36363636 C2.75,6.36363636 2.93333333,6.32727273 3.08,6.32727273 C3.37333333,6.32727273 3.55666667,6.36363636 3.74,6.47272727 C3.99666667,6.65454545 4.14333333,6.90909091 4.14333333,7.16363636 C4.14333333,7.56363636 3.81333333,7.92727273 3.15333333,8.29090909 C1.76,9.05454545 0.88,10.9090909 0.733333333,12.3636364 L0.733333333,12.3636364 Z" id="Shape"></path>
                                        <rect id="Rectangle-path" transform="translate(15.712072, 1.859309) rotate(9.473625) translate(-15.712072, -1.859309) " x="15.2120721" y="0.750174752" width="0.733361977" height="2.21826846"></rect>
                                        <path d="M17.2333333,16 C15.4,16 13.9333333,14.5454545 13.9333333,12.7272727 L14.6666667,12.7272727 C14.6666667,14.1454545 15.8033333,15.2727273 17.2333333,15.2727273 C18.6633333,15.2727273 19.8,14.1454545 19.8,12.7272727 L20.5333333,12.7272727 C20.5333333,14.5454545 19.0666667,16 17.2333333,16 L17.2333333,16 Z" id="Shape"></path>
                                        <path d="M17.2333333,14.1818182 C16.4266667,14.1818182 15.7666667,13.5272727 15.7666667,12.7272727 L16.5,12.7272727 C16.5,13.1272727 16.83,13.4545455 17.2333333,13.4545455 C17.6366667,13.4545455 17.9666667,13.1272727 17.9666667,12.7272727 L18.7,12.7272727 C18.7,13.5272727 18.04,14.1818182 17.2333333,14.1818182 L17.2333333,14.1818182 Z" id="Shape"></path>
                                        <path d="M4.4,16 C2.56666667,16 1.1,14.5454545 1.1,12.7272727 L1.83333333,12.7272727 C1.83333333,14.1454545 2.97,15.2727273 4.4,15.2727273 C5.83,15.2727273 6.96666667,14.1454545 6.96666667,12.7272727 L7.7,12.7272727 C7.7,14.5454545 6.23333333,16 4.4,16 L4.4,16 Z" id="Shape"></path>
                                        <path d="M4.4,14.1818182 C3.59333333,14.1818182 2.93333333,13.5272727 2.93333333,12.7272727 L3.66666667,12.7272727 C3.66666667,13.1272727 3.99666667,13.4545455 4.4,13.4545455 C4.80333333,13.4545455 5.13333333,13.1272727 5.13333333,12.7272727 L5.86666667,12.7272727 C5.86666667,13.5272727 5.20666667,14.1818182 4.4,14.1818182 L4.4,14.1818182 Z" id="Shape"></path>
                                        <rect id="Rectangle-path" x="1.1" y="10.1818182" width="1.46666667" height="0.727272727"></rect>
                                    </g>
                                </g>
                            </g>
                        </g>
                    </g>
                </g>
            </g>
        </g>
    </g>
</svg>