<?xml version="1.0" encoding="UTF-8"?>
<svg width="22px" height="17px" viewBox="0 0 22 17" version="1.1" xmlns="http://www.w3.org/2000/svg" xmlns:xlink="http://www.w3.org/1999/xlink">
    <!-- Generator: sketchtool 41.1 (35376) - http://www.bohemiancoding.com/sketch -->
    <title>F9CDD326-85FA-4F57-A716-86C157469D3B</title>
    <desc>Created with sketchtool.</desc>
    <defs></defs>
    <g id="Page-1" stroke="none" stroke-width="1" fill="none" fill-rule="evenodd">
        <g id="Checkout---Step-2---Select-Credit-Card" transform="translate(-560.000000, -289.000000)">
            <g id="Modal" transform="translate(485.000000, 105.000000)">
                <g id="cardNumber-field" transform="translate(75.000000, 182.468750)">
                    <g id="icon-card" transform="translate(0.000000, 2.000000)">
                        <g id="Layer_1">
                            <g id="Group"></g>
                        </g>
                        <path d="M20.217746,0 L1.34784973,0 C0.60171863,0 0.00481374904,0.625 0,1.4 L0,1.4 L0,1.415 L0,14.585 L0,14.6 L0,14.6 C0.00962749809,15.375 0.60171863,16 1.34784973,16 L20.217746,16 C20.9686908,16 21.5655957,15.365 21.5655957,14.585 L21.5655957,14.585 L21.5655957,1.415 L21.5655957,1.415 C21.5655957,0.635 20.9686908,0 20.217746,0 Z M2.17100082,1.6 L19.3897811,1.6 C19.7219298,1.6 19.9722448,1.855 20.0203823,2.2 L20.0203823,3.2 L1.54039969,3.2 L1.54039969,2.185 C1.58853718,1.845 1.84366588,1.6 2.17100082,1.6 Z M19.3945949,14.4 L2.17100082,14.4 C1.83885213,14.4 1.58853718,14.155 1.54039969,13.815 L1.54039969,8 L20.025196,8 L20.025196,13.8 C19.9770585,14.145 19.7219298,14.4 19.3945949,14.4 Z" id="Shape" fill="#A6A5A5"></path>
                        <rect id="Rectangle-path" fill="#A6A5A5" x="3.08079939" y="10.4" width="9.24239816" height="0.8"></rect>
                        <rect id="Rectangle-path" fill="#A6A5A5" x="3.08079939" y="12" width="4.62119908" height="0.8"></rect>
                    </g>
                </g>
            </g>
        </g>
    </g>
</svg>
