<?xml version="1.0" encoding="UTF-8" standalone="no"?>
<svg width="35px" height="30px" viewBox="0 0 35 30" version="1.1" xmlns="http://www.w3.org/2000/svg" xmlns:xlink="http://www.w3.org/1999/xlink">
    <!-- Generator: sketchtool 39.1 (31720) - http://www.bohemiancoding.com/sketch -->
    <title>08DC0FE8-6FC5-4964-B02D-A7DFE98CC7CE</title>
    <desc>Created with sketchtool.</desc>
    <defs></defs>
    <g id="Headers" stroke="none" stroke-width="1" fill="none" fill-rule="evenodd">
        <g id="Restaurantes_header-[-onSCROLL]" transform="translate(-1080.000000, -15.000000)" fill="#FFFFFF">
            <g id="Header" transform="translate(-170.000000, 0.000000)">
                <g id="Icon_basket" transform="translate(1250.000000, 6.000000)">
                    <g id="_icon_basket_green" transform="translate(0.000000, 9.000000)">
                        <g>
                            <path d="M32.5895652,12.2667391 L30.776413,12.2667391 L29.5727174,5.45315217 C29.2577174,3.27173913 27.3190217,1.56358696 25.1604348,1.56358696 L23.3670652,1.56358696 C22.9143478,0.782934783 22.0713043,0.255652174 21.1042391,0.255652174 L13.895,0.255652174 C12.9279348,0.255652174 12.0856522,0.782173913 11.6329348,1.56358696 L10.0236957,1.56358696 C7.87119565,1.56358696 5.92184783,3.26641304 5.58554348,5.43945652 L4.29358696,12.2667391 L2.41119565,12.2667391 C1.12608696,12.2667391 0.0806521739,13.3867391 0.0806521739,14.7631522 C0.0806521739,16.1213043 1.09793478,17.2298913 2.35793478,17.2588043 L4.73869565,28.7045652 L4.76456522,28.798913 C5.04,29.6236957 5.81076087,30.1783696 6.68119565,30.1783696 L28.3188043,30.1783696 C29.1884783,30.1783696 29.9577174,29.6236957 30.2361957,28.798913 L30.2521739,28.7525 L32.6413043,17.2595652 C33.9013043,17.2298913 34.9193478,16.1213043 34.9193478,14.763913 C34.9201087,13.3867391 33.8746739,12.2667391 32.5895652,12.2667391 L32.5895652,12.2667391 Z M8.17097826,5.83967391 C8.30793478,4.95478261 9.17380435,4.17869565 10.0244565,4.17869565 L11.6336957,4.17869565 C12.086413,4.95934783 12.9294565,5.48586957 13.8957609,5.48586957 L21.105,5.48586957 C22.0720652,5.48586957 22.9151087,4.95934783 23.3678261,4.17869565 L25.1611957,4.17869565 C26.005,4.17869565 26.8571739,4.94793478 26.9834783,5.82673913 L28.133913,12.2667391 L6.94065217,12.2667391 L8.17097826,5.83967391 L8.17097826,5.83967391 Z M28.6436957,28.303587 C28.5873913,28.431413 28.4603261,28.5151087 28.3180435,28.5151087 L6.68119565,28.5151087 C6.53967391,28.5151087 6.41184783,28.4321739 6.35554348,28.3043478 L3.8423913,16.216413 L31.1583696,16.216413 L28.6436957,28.303587 L28.6436957,28.303587 Z M32.5895652,15.5963043 L31.2877174,15.5963043 L31.2861957,15.598587 L3.71304348,15.598587 L3.71228261,15.5963043 L2.41119565,15.5963043 C2.04978261,15.5963043 1.74543478,15.2151087 1.74543478,14.7631522 C1.74543478,14.3111957 2.04978261,13.9315217 2.41119565,13.9315217 L32.5895652,13.9315217 C32.9509783,13.9315217 33.2553261,14.3119565 33.2553261,14.7631522 C33.2545652,15.2143478 32.9509783,15.5963043 32.5895652,15.5963043 L32.5895652,15.5963043 Z" id="Shape"></path>
                            <path d="M10.5882609,21.6490217 C10.9405435,21.6490217 11.2258696,21.3652174 11.2258696,21.0129348 C11.2258696,20.6606522 10.9405435,20.3753261 10.5882609,20.3753261 L7.91684783,20.3753261 C7.56532609,20.3753261 7.28,20.6606522 7.28,21.0129348 C7.28,21.3652174 7.56532609,21.6497826 7.91684783,21.6490217 L10.5882609,21.6490217 Z M10.5890217,25.9334783 L9.05967391,25.9334783 C8.70815217,25.9334783 8.42206522,26.2180435 8.42206522,26.5703261 C8.42206522,26.9218478 8.70815217,27.2071739 9.05967391,27.2071739 L10.5890217,27.2071739 C10.9397826,27.2071739 11.2251087,26.9218478 11.2251087,26.5703261 C11.2258696,26.2180435 10.9405435,25.9334783 10.5890217,25.9334783 Z M10.5890217,23.1547826 L8.48826087,23.1547826 C8.13673913,23.1547826 7.85065217,23.4393478 7.85065217,23.7923913 C7.85065217,24.143913 8.13597826,24.4284783 8.48826087,24.4284783 L10.5890217,24.4284783 C10.9397826,24.4284783 11.2251087,24.143913 11.2251087,23.7923913 C11.2258696,23.4393478 10.9405435,23.1547826 10.5890217,23.1547826 Z M7.34543478,18.8718478 L10.5897826,18.8718478 C10.9405435,18.8718478 11.2258696,18.5865217 11.2258696,18.2342391 C11.2258696,17.8819565 10.9405435,17.5973913 10.5897826,17.5973913 L7.34543478,17.5973913 C6.99391304,17.5973913 6.70858696,17.8827174 6.70858696,18.2342391 C6.70858696,18.5857609 6.99315217,18.8718478 7.34543478,18.8718478 Z M15.8451087,25.9334783 L14.3157609,25.9334783 C13.9642391,25.9334783 13.6781522,26.2180435 13.6781522,26.5703261 C13.6781522,26.9218478 13.9642391,27.2071739 14.3157609,27.2071739 L15.8451087,27.2071739 C16.1966304,27.2071739 16.4819565,26.9218478 16.4819565,26.5703261 C16.4819565,26.2180435 16.1966304,25.9334783 15.8451087,25.9334783 Z M15.9881522,23.1547826 L13.888913,23.1547826 C13.5381522,23.1547826 13.2520652,23.4393478 13.2520652,23.7923913 C13.2520652,24.143913 13.5373913,24.4284783 13.888913,24.4284783 L15.9881522,24.4284783 C16.3404348,24.4284783 16.6257609,24.143913 16.6257609,23.7923913 C16.6257609,23.4393478 16.3404348,23.1547826 15.9881522,23.1547826 Z M16.1334783,20.3753261 L13.4613043,20.3753261 C13.1097826,20.3753261 12.8236957,20.661413 12.8236957,21.0129348 C12.8236957,21.3652174 13.1090217,21.6497826 13.4613043,21.6497826 L16.1334783,21.6497826 C16.4842391,21.6497826 16.7703261,21.3652174 16.7703261,21.0129348 C16.7703261,20.661413 16.485,20.3753261 16.1334783,20.3753261 Z M13.0344565,18.8718478 L16.2780435,18.8718478 C16.6288043,18.8718478 16.9148913,18.5865217 16.9148913,18.2342391 C16.9148913,17.8819565 16.6295652,17.5973913 16.2780435,17.5973913 L13.0344565,17.5973913 C12.6821739,17.5973913 12.3976087,17.8827174 12.3976087,18.2342391 C12.3976087,18.5857609 12.6821739,18.8718478 13.0344565,18.8718478 Z M20.7192391,25.9334783 L19.1906522,25.9334783 C18.8383696,25.9334783 18.5538043,26.2180435 18.5538043,26.5703261 C18.5538043,26.9218478 18.8383696,27.2071739 19.1906522,27.2071739 L20.7192391,27.2071739 C21.0707609,27.2071739 21.356087,26.9218478 21.356087,26.5703261 C21.356087,26.2180435 21.0707609,25.9334783 20.7192391,25.9334783 Z M21.1346739,23.1547826 L19.0346739,23.1547826 C18.6823913,23.1547826 18.3970652,23.4393478 18.3970652,23.7923913 C18.3970652,24.143913 18.6823913,24.4284783 19.0346739,24.4284783 L21.1346739,24.4284783 C21.4854348,24.4284783 21.7722826,24.143913 21.7722826,23.7923913 C21.7722826,23.4393478 21.4854348,23.1547826 21.1346739,23.1547826 Z M21.5493478,20.3753261 L18.8779348,20.3753261 C18.526413,20.3753261 18.2418478,20.661413 18.2418478,21.0129348 C18.2418478,21.3652174 18.526413,21.6497826 18.8779348,21.6497826 L21.5493478,21.6497826 C21.9031522,21.6497826 22.1884783,21.3652174 22.1877174,21.0129348 C22.1877174,20.661413 21.9023913,20.3753261 21.5493478,20.3753261 Z M18.7227174,18.8718478 L21.9655435,18.8718478 C22.3178261,18.8718478 22.6031522,18.5865217 22.6031522,18.2342391 C22.6031522,17.8819565 22.3178261,17.5973913 21.9655435,17.5973913 L18.7227174,17.5973913 C18.3704348,17.5973913 18.0851087,17.8827174 18.0851087,18.2342391 C18.0851087,18.5857609 18.3711957,18.8718478 18.7227174,18.8718478 Z M25.9395652,25.9334783 L24.4125,25.9334783 C24.0594565,25.9334783 23.7748913,26.2180435 23.7748913,26.5703261 C23.7748913,26.9218478 24.0594565,27.2071739 24.4125,27.2071739 L25.9395652,27.2071739 C26.2918478,27.2071739 26.5779348,26.9218478 26.5779348,26.5703261 C26.5779348,26.2180435 26.2918478,25.9334783 25.9395652,25.9334783 Z M26.5117391,23.1547826 L24.4125,23.1547826 C24.0594565,23.1547826 23.7748913,23.4393478 23.7748913,23.7923913 C23.7748913,24.143913 24.0594565,24.4284783 24.4125,24.4284783 L26.5117391,24.4284783 C26.8640217,24.4284783 27.1493478,24.143913 27.1493478,23.7923913 C27.1493478,23.4393478 26.8640217,23.1547826 26.5117391,23.1547826 Z M24.4109783,21.6497826 L27.0831522,21.6497826 C27.4354348,21.6497826 27.7215217,21.3652174 27.7207609,21.0129348 C27.7207609,20.661413 27.4354348,20.3753261 27.0831522,20.3753261 L24.4109783,20.3753261 C24.0594565,20.3753261 23.7741304,20.661413 23.7741304,21.0129348 C23.7741304,21.3652174 24.0594565,21.6497826 24.4109783,21.6497826 Z M24.4125,18.8718478 L27.6545652,18.8718478 C28.0068478,18.8718478 28.2921739,18.5865217 28.2921739,18.2342391 C28.2921739,17.8819565 28.0068478,17.5973913 27.6545652,17.5973913 L24.4125,17.5973913 C24.0594565,17.5973913 23.7748913,17.8827174 23.7748913,18.2342391 C23.7748913,18.5857609 24.0594565,18.8718478 24.4125,18.8718478 Z" id="Combined-Shape"></path>
                        </g>
                    </g>
                </g>
            </g>
        </g>
    </g>
</svg>