<svg width="100%" viewBox="0 0 22 22" version="1.1" xmlns="http://www.w3.org/2000/svg" xmlns:xlink="http://www.w3.org/1999/xlink">
    <!-- Generator: Sketch 39.1 (31720) - http://www.bohemiancoding.com/sketch -->
    <title>_icon_search_grey</title>
    <desc>Created with Sketch.</desc>
    <defs></defs>
    <g id="Home-Page" stroke="none" stroke-width="1" fill="none" fill-rule="evenodd">
        <g id="Desktop" transform="translate(-876.000000, -231.000000)" fill="#FFFFFF">
            <g id="stage" transform="translate(-34.000000, -50.000000)">
                <g id="Search_bar" transform="translate(254.000000, 258.000000)">
                    <g id="_icon_search_grey" transform="translate(656.000000, 23.000000)">
                        <path d="M21.7071267,20.2928847 L16.0319089,14.6176669 C17.2636519,13.0779257 17.9998977,11.1249368 17.9998977,8.99994886 C17.9998977,4.02947711 13.9706706,0 8.99994886,0 C4.02947711,0 0,4.02947711 0,8.99994886 C0,13.9704206 4.02947711,17.9998977 8.99994886,17.9998977 C11.1249368,17.9998977 13.0779257,17.2634019 14.6176669,16.0316589 L20.2928847,21.7068767 C20.4881336,21.9021256 20.7441321,21.999875 20.9998807,21.999875 C21.2558792,21.999875 21.5118778,21.9021256 21.7071267,21.7068767 C22.0976244,21.3166289 22.0976244,20.6831325 21.7071267,20.2928847 L21.7071267,20.2928847 Z M8.99994886,15.9999091 C5.13397083,15.9999091 1.99998864,12.8659269 1.99998864,8.99994886 C1.99998864,5.13397083 5.13397083,1.99998864 8.99994886,1.99998864 C12.8661769,1.99998864 15.9999091,5.13397083 15.9999091,8.99994886 C15.9999091,12.8659269 12.8661769,15.9999091 8.99994886,15.9999091 L8.99994886,15.9999091 Z" id="Shape"></path>
                    </g>
                </g>
            </g>
        </g>
    </g>
</svg>