<?xml version="1.0" encoding="UTF-8" standalone="no"?>
<svg width="80px" height="80px" viewBox="0 0 80 80" version="1.1" xmlns="http://www.w3.org/2000/svg" xmlns:xlink="http://www.w3.org/1999/xlink">
    <!-- Generator: Sketch 39.1 (31720) - http://www.bohemiancoding.com/sketch -->
    <title>icon_lugar_grey</title>
    <desc>Created with Sketch.</desc>
    <defs></defs>
    <g id="Resultado-accionable" stroke="none" stroke-width="1" fill="none" fill-rule="evenodd">
        <g transform="translate(-581.000000, -379.000000)" id="Dropdown-autocompletar-" fill="#D4D4D4">
            <g transform="translate(466.000000, 209.000000)">
                <g id="Group" transform="translate(75.000000, 140.000000)">
                    <g id="ico_place-grey" transform="translate(40.000000, 30.000000)">
                        <path d="M22.2202038,49.1368178 L35.5696535,49.1368178 L35.5696535,38.2145407 L22.2202038,38.2145407 L22.2202038,49.1368178 Z M21.0066174,50.3504041 L36.7832399,50.3504041 L36.7832399,37.0009544 L21.0066174,37.0009544 L21.0066174,50.3504041 Z M58.0210009,29.5980777 C55.7455265,29.5980777 53.8935937,27.7473585 53.8935937,25.4718841 L53.8887394,25.2813511 L52.7770943,16.4913452 L59.8790016,16.4913452 L62.1374857,25.5277091 L62.1350586,25.5956699 C62.0683113,27.8408047 60.2600677,29.5980777 58.0210009,29.5980777 L58.0210009,29.5980777 Z M59.7200217,58.7253635 L56.3207664,58.7253635 L56.3207664,36.8795957 L42.729813,36.8795957 L42.729813,58.7253635 L17.4872171,58.7253635 L17.4872171,30.8250135 L18.0685249,30.9427314 C20.1789516,31.3711273 22.3512711,30.5337528 23.6510221,28.7898292 L24.0405833,28.2679871 L24.4289309,28.7898292 C25.5017413,30.2291426 27.1291605,31.0543813 28.8949287,31.0543813 C30.6594832,31.0543813 32.2869025,30.2291426 33.3597128,28.7898292 L33.749274,28.2679871 L34.1376217,28.7898292 C35.210432,30.2291426 36.8378513,31.0543813 38.6036194,31.0543813 C40.3693875,31.0543813 41.9955932,30.2291426 43.06719,28.7898292 L43.4579648,28.2667735 L43.847526,28.7898292 C44.9191227,30.2291426 46.5453284,31.0543813 48.3123101,31.0543813 C50.0780783,31.0543813 51.704284,30.2291426 52.7758807,28.7898292 L53.1666555,28.2667735 L53.5562167,28.7898292 C54.8535405,30.5337528 57.0282872,31.3699138 59.1375003,30.9427314 L59.7200217,30.8250135 L59.7200217,58.7253635 Z M44.184903,58.7253635 L54.8656764,58.7253635 L54.8656764,38.3371129 L44.184903,38.3371129 L44.184903,58.7253635 Z M15.0697531,25.5932428 L15.0685395,25.5264955 L17.3270237,16.4913452 L24.4289309,16.4913452 L23.299082,25.5713982 C23.3112179,27.7473585 21.4617123,29.5980777 19.1862379,29.5980777 C16.944744,29.5980777 15.1365003,27.8395911 15.0697531,25.5932428 L15.0697531,25.5932428 Z M25.8961568,16.4913452 L33.0199086,16.4913452 L33.0199086,25.4718841 C33.0199086,27.7473585 31.1704031,29.5980777 28.8949287,29.5980777 C26.6461532,29.5980777 24.7978612,27.7679895 24.7723759,25.519214 L25.8961568,16.4913452 Z M34.4774258,16.4913452 L42.729813,16.4913452 L42.729813,25.4718841 C42.729813,27.7473585 40.8790938,29.5980777 38.6036194,29.5980777 C36.328145,29.5980777 34.4774258,27.7473585 34.4774258,25.4718841 L34.4774258,16.4913452 Z M44.184903,16.4913452 L51.3098684,16.4913452 L52.428795,25.4536803 C52.408164,27.7679895 50.5586585,29.5980777 48.3123101,29.5980777 C46.0368357,29.5980777 44.184903,27.7473585 44.184903,25.4718841 L44.184903,16.4913452 Z M61.1751118,30.0580269 L61.368072,29.9123966 C62.7187936,28.892984 63.5258285,27.3420207 63.5840807,25.65999 C63.5877214,25.5713982 63.5937894,25.5277091 63.5998573,25.48402 C63.5731584,25.3396032 63.5719448,25.2959141 63.574372,25.252225 L61.1556944,15.5872234 C61.1095781,15.4986316 61.0889471,15.4585832 61.0646754,15.4185349 C61.0282678,15.3517876 61.0052097,15.31538 60.980938,15.2898947 C60.8401619,15.1709633 60.7989,15.1418372 60.7564245,15.1224198 C60.5901632,15.0678084 60.5391925,15.0568861 60.4918627,15.0532454 L60.3474459,15.0265465 L16.7784826,15.0350416 C16.6644055,15.0568861 16.6110077,15.069022 16.5442605,15.0908666 C16.4059116,15.1442644 16.3561546,15.1782448 16.2918345,15.2340698 C16.2044563,15.3165936 16.172903,15.3627099 16.1352819,15.4318843 L16.0248455,15.6600386 L13.6255853,25.2959141 L13.6255853,25.2959141 C13.635294,25.2959141 13.6340804,25.3396032 13.6292261,25.3845059 L13.6001,25.5204276 C13.6122359,25.5277091 13.6170902,25.5713982 13.6183038,25.6175145 C13.6801967,27.3408071 14.4872316,28.8917704 15.8379532,29.9123966 L16.0296999,30.0580269 L16.0296999,58.2423561 C16.0296999,59.3115257 16.8962005,60.1804535 17.9593021,60.1804535 L59.2455095,60.1804535 C60.3098247,60.1804535 61.1751118,59.3115257 61.1751118,58.2423561 L61.1751118,30.0580269 Z" id="Page-1"></path>
                    </g>
                </g>
            </g>
        </g>
    </g>
</svg>