<?xml version="1.0" encoding="UTF-8" standalone="no"?>
<svg width="32px" height="32px" viewBox="0 0 32 32" version="1.1" xmlns="http://www.w3.org/2000/svg" xmlns:xlink="http://www.w3.org/1999/xlink">
    <!-- Generator: sketchtool 40.3 (33839) - http://www.bohemiancoding.com/sketch -->
    <title>B1A81949-FB4C-4B15-9E33-E4F34DE46C41</title>
    <desc>Created with sketchtool.</desc>
    <defs></defs>
    <g id="Supermercado_listas" stroke="none" stroke-width="1" fill="none" fill-rule="evenodd">
        <g id="Supermercado_Lista-autocomplete-agregar" transform="translate(-882.000000, -535.000000)" fill="#FFFFFF">
            <g id="Dropdown-autocompletar-" transform="translate(329.000000, 332.000000)">
                <g id="card_product_autocplete-copy" transform="translate(0.000000, 170.000000)">
                    <g id="_icon_more_white" transform="translate(553.000000, 33.000000)">
                        <path d="M27.3595804,7.42982827 C27.9154782,6.87393054 27.9154782,5.97246514 27.3595804,5.4169233 C26.8036827,4.86102557 25.9025732,4.86102557 25.3466755,5.4169233 L16.3882519,14.374991 L7.43018416,5.4169233 C6.87428643,4.86102557 5.97282103,4.86102557 5.4169233,5.4169233 C4.86102557,5.97282103 4.86102557,6.87428643 5.4169233,7.42982827 L14.3753469,16.3882519 L5.4169233,25.3466755 C4.86102557,25.9025732 4.86102557,26.8040386 5.4169233,27.3595804 C5.69487216,27.6375293 6.05930192,27.7766817 6.42337578,27.7766817 C6.78744965,27.7766817 7.15223529,27.6375293 7.43018416,27.3595804 L16.3882519,18.4015127 L25.3466755,27.3595804 C25.6246243,27.6375293 25.9890541,27.7766817 26.353128,27.7766817 C26.7172018,27.7766817 27.0819875,27.6375293 27.3595804,27.3595804 C27.9154782,26.8036827 27.9154782,25.9022173 27.3595804,25.3466755 L18.4015127,16.3882519 L27.3595804,7.42982827 Z" transform="translate(16.388252, 16.388341) rotate(-315.000000) translate(-16.388252, -16.388341) "></path>
                    </g>
                </g>
            </g>
        </g>
    </g>
</svg>