<?xml version="1.0" encoding="UTF-8" standalone="no"?>
<svg width="55px" height="55px" viewBox="0 0 55 55" version="1.1" xmlns="http://www.w3.org/2000/svg" xmlns:xlink="http://www.w3.org/1999/xlink">
    <!-- Generator: sketchtool 40.3 (33839) - http://www.bohemiancoding.com/sketch -->
    <title>F6844E25-AC39-4ED8-9C05-05D324D8D627</title>
    <desc>Created with sketchtool.</desc>
    <defs></defs>
    <g id="Supermercado_listas" stroke="none" stroke-width="1" fill="none" fill-rule="evenodd">
        <g id="Supermercado_Listashome" transform="translate(-176.000000, -495.000000)" fill="#44D481">
            <g id="List_card-Copy-3" transform="translate(75.000000, 389.000000)">
                <g id="_icon_more_green" transform="translate(100.000000, 105.000000)">
                    <path d="M47.5521828,12.5514797 C48.528448,11.5752144 48.528448,9.99206467 47.5521828,9.01642442 C46.5759175,8.04015917 44.9933928,8.04015917 44.0171276,9.01642442 L28.2843817,24.7485452 L12.5522609,9.01642442 C11.5759957,8.04015917 9.99284593,8.04015917 9.01658068,9.01642442 C8.04031542,9.99268968 8.04031542,11.5758394 9.01658068,12.5514797 L24.7493265,28.2842255 L9.01658068,44.0169713 C8.04031542,44.9932366 8.04031542,46.5763863 9.01658068,47.5520265 C9.5047133,48.0401592 10.1447233,48.284538 10.7841083,48.284538 C11.4234933,48.284538 12.0641283,48.0401592 12.5522609,47.5520265 L28.2843817,31.8199057 L44.0171276,47.5520265 C44.5052602,48.0401592 45.1452702,48.284538 45.7846552,48.284538 C46.4240402,48.284538 47.0646752,48.0401592 47.5521828,47.5520265 C48.528448,46.5757613 48.528448,44.9926116 47.5521828,44.0169713 L31.820062,28.2842255 L47.5521828,12.5514797 Z" transform="translate(28.284382, 28.284382) rotate(-315.000000) translate(-28.284382, -28.284382) "></path>
                </g>
            </g>
        </g>
    </g>
</svg>