<?xml version="1.0" encoding="UTF-8" standalone="no"?>
<svg width="24px" height="24px" viewBox="0 0 24 24" version="1.1" xmlns="http://www.w3.org/2000/svg" xmlns:xlink="http://www.w3.org/1999/xlink">
    <!-- Generator: sketchtool 39 (31667) - http://www.bohemiancoding.com/sketch -->
    <title>088CE2CD-2207-46DE-8788-3D8A6B6B203A</title>
    <desc>Created with sketchtool.</desc>
    <defs></defs>
    <g id="Desktop" stroke="none" stroke-width="1" fill="none" fill-rule="evenodd">
        <g id="Supermarket---Home" transform="translate(-415.000000, -151.000000)" fill="#FD6250">
            <g id="menu-abajo" transform="translate(0.000000, 130.000000)">
                <g id="buscador-copy" transform="translate(395.000000, 13.000000)">
                    <g id="buscador" transform="translate(20.000000, 8.000000)">
                        <g id="Search" transform="translate(4.000000, 4.000000)">
                            <path d="M10.1538462,0 C6.93239385,0 4.30769231,2.62470117 4.30769231,5.84615385 C4.30769231,7.23075508 4.80666154,8.49689723 5.61538462,9.5 L0.173076923,14.9423077 L1.05769231,15.8269231 L6.5,10.3846154 C7.50310277,11.1933385 8.76924492,11.6923077 10.1538462,11.6923077 C13.3752985,11.6923077 16,9.06760615 16,5.84615385 C16,2.62470117 13.3752985,0 10.1538462,0 L10.1538462,0 Z M10.1538462,1.23076923 C12.7101415,1.23076923 14.7692308,3.28985834 14.7692308,5.84615385 C14.7692308,8.40244923 12.7101415,10.4615385 10.1538462,10.4615385 C7.59755077,10.4615385 5.53846154,8.40244923 5.53846154,5.84615385 C5.53846154,3.28985834 7.59755077,1.23076923 10.1538462,1.23076923 L10.1538462,1.23076923 Z" id="Shape"></path>
                        </g>
                    </g>
                </g>
            </g>
        </g>
    </g>
</svg>