<?xml version="1.0" encoding="UTF-8" standalone="no"?>
<svg width="18px" height="23px" viewBox="0 0 18 23" version="1.1" xmlns="http://www.w3.org/2000/svg" xmlns:xlink="http://www.w3.org/1999/xlink">
    <!-- Generator: sketchtool 3.8.3 (29802) - http://www.bohemiancoding.com/sketch -->
    <title>B71F4DC6-51E7-4E36-AAA9-5C4BAC714F51</title>
    <desc>Created with sketchtool.</desc>
    <defs></defs>
    <g id="Desktop" stroke="none" stroke-width="1" fill="none" fill-rule="evenodd">
        <g id="Landing" transform="translate(-470.000000, -590.000000)" fill="#FFFFFF">
            <g id="banner" transform="translate(0.000000, 81.000000)">
                <g id="app-store" transform="translate(450.000000, 495.000000)">
                    <g id="icono-apple" transform="translate(20.000000, 14.000000)">
                        <path d="M12.779259,4.04724961 C13.5712745,2.99736188 14.1730319,1.51535298 13.9548457,3.19744231e-14 C12.6605657,0.0923720964 11.1467904,0.942645979 10.2631367,2.05066054 C9.46108452,3.0563899 8.79867148,4.54831191 9.05656747,5.99832853 C10.4691044,6.04338808 11.9309513,5.17193621 12.779259,4.04724961 Z M18,17.0878431 C17.5079491,18.2436876 17.2725217,18.759224 16.6389116,19.7802668 C15.755491,21.206116 14.5098452,22.9810054 12.9666979,22.996652 C11.594633,23.0098915 11.2426273,22.0502316 9.38116099,22.0610638 C7.52007314,22.0722973 7.13135294,23.013101 5.75966647,22.9998616 C4.2161407,22.9850173 3.03559707,21.3818397 2.15179798,19.9563917 C-0.319811466,15.9697109 -0.57794893,11.2909677 0.946273313,8.80355492 C2.02954226,7.03588706 3.73809434,6.00160478 5.34482973,6.00160478 C6.98108817,6.00160478 8.00947452,6.95203718 9.36185746,6.95203718 C10.6741193,6.95203718 11.4735128,6 13.3648807,6 C14.7944777,6 16.3092375,6.82525937 17.3887214,8.25110857 C13.852011,10.3052301 14.4265751,15.6567783 18,17.0878431 Z" id="Icon---Apple"></path>
                    </g>
                </g>
            </g>
        </g>
    </g>
</svg>