<?xml version="1.0" encoding="UTF-8"?>
<svg width="1000px" height="235px" viewBox="0 0 1000 235" version="1.1" xmlns="http://www.w3.org/2000/svg" xmlns:xlink="http://www.w3.org/1999/xlink">
    <!-- Generator: sketchtool 41.1 (35376) - http://www.bohemiancoding.com/sketch -->
    <title>547D7984-C595-4490-95BD-979FDE59FA59</title>
    <desc>Created with sketchtool.</desc>
    <defs>
        <polygon id="path-1" points="0 0.6474 0 2.6474 63.4628 2.6474 63.4628 0.6474"></polygon>
        <polygon id="path-3" points="0 0.6405 0 8.1015 63.4628 8.1015 63.4628 0.6405"></polygon>
        <polygon id="path-5" points="0 0.0123 0 10.6123 19.771 10.6123 19.771 0.0123 4.06575815e-20 0.0123"></polygon>
        <polygon id="path-7" points="28.69995 9 0 9 0 0.91 57.3999 0.91 57.3999 9"></polygon>
        <polygon id="path-9" points="8.68960658 0.483 0.6946 0.483 0.6946 28.6121 8.68960658 28.6121 8.68960658 0.483"></polygon>
        <polygon id="path-11" points="66 65.9998 66 0 0.0002 0 0.0002 65.9998"></polygon>
        <polygon id="path-13" points="0 0.1236 0 14.8896 25.4037 14.8896 25.4037 0.1236 0 0.1236"></polygon>
        <polygon id="path-15" points="235 234.999288 235 0 0.000712121212 0 0.000712121212 234.999288"></polygon>
        <polygon id="path-17" points="0 0.440090909 0 53.016 90.4525682 53.016 90.4525682 0.440090909 0 0.440090909"></polygon>
        <polygon id="path-19" points="3.09421259 0.999 0.298044867 0.999 0.298044867 8.4575 3.09421259 8.4575 3.09421259 0.999"></polygon>
        <polygon id="path-21" points="0 0.00128103751 0 39.0044 52.8950186 39.0044 52.8950186 0.00128103751 1.35525272e-20 0.00128103751"></polygon>
        <polygon id="path-23" points="16.6043892 0 0.562085349 0 0.562085349 19.2465 16.6043892 19.2465 16.6043892 1.42108547e-14"></polygon>
        <polygon id="path-25" points="16.0425147 0 0 0 0 19.2464 16.0425147 19.2464"></polygon>
        <polygon id="path-27" points="13.953 2.81 13.953 0.81 0.7412 0.81 0.7412 2.81 13.953 2.81"></polygon>
        <polygon id="path-29" points="2.71050543e-20 0.81 2.71050543e-20 2.81 22.9497 2.81 22.9497 0.81 0 0.81"></polygon>
    </defs>
    <g id="Page-1" stroke="none" stroke-width="1" fill="none" fill-rule="evenodd" opacity="0.0827105978">
        <g id="Desktop---Lo-que-quieras---Home---Step-1" transform="translate(-24.000000, -1040.000000)">
            <g id="icons-repeatX" transform="translate(24.000000, 1040.000000)">
                <g id="icon-burger" transform="translate(104.000000, 19.000000)">
                    <path d="M13.0127,7.8457 C12.6947,7.8457 12.3817,7.6947 12.1877,7.4117 C11.8747,6.9567 11.9907,6.3347 12.4457,6.0217 C12.7807,5.7907 13.1187,5.5667 13.4617,5.3477 C13.9297,5.0517 14.5467,5.1897 14.8427,5.6547 C15.1397,6.1197 15.0017,6.7387 14.5357,7.0347 C14.2127,7.2407 13.8937,7.4527 13.5777,7.6697 C13.4057,7.7887 13.2077,7.8457 13.0127,7.8457" id="Fill-1" fill="#231F1F"></path>
                    <path d="M56.1406,29.9453 L7.3226,29.9453 C4.7566,29.9453 2.4236,28.6363 1.0806,26.4443 C-0.2494,24.2743 -0.3564,21.6293 0.7946,19.3733 C3.0666,14.9163 6.1456,11.0593 9.9476,7.9103 C10.3726,7.5573 11.0026,7.6163 11.3556,8.0433 C11.7066,8.4673 11.6486,9.0983 11.2226,9.4513 C7.6326,12.4253 4.7236,16.0683 2.5766,20.2813 C1.7446,21.9143 1.8236,23.8273 2.7866,25.3993 C3.7626,26.9943 5.4586,27.9453 7.3226,27.9453 L56.1406,27.9453 C58.0036,27.9453 59.7006,26.9943 60.6766,25.3993 C61.6396,23.8273 61.7186,21.9143 60.8866,20.2813 C55.1386,9.0043 43.9676,2.0003 31.7316,2.0003 C26.6866,2.0003 21.8446,3.1553 17.3416,5.4343 C16.8476,5.6833 16.2476,5.4853 15.9976,4.9933 C15.7486,4.5013 15.9466,3.8993 16.4396,3.6493 C21.2246,1.2273 26.3696,0.0003 31.7316,0.0003 C44.7236,0.0003 56.5776,7.4223 62.6676,19.3733 C63.8196,21.6293 63.7116,24.2743 62.3816,26.4443 C61.0386,28.6363 58.7056,29.9453 56.1406,29.9453" id="Fill-3" fill="#231F1F"></path>
                    <g id="Group-7" transform="translate(0.000000, 33.000000)">
                        <mask id="mask-2" fill="white">
                            <use xlink:href="#path-1"></use>
                        </mask>
                        <g id="Clip-6"></g>
                        <path d="M62.4628,2.6474 L0.9998,2.6474 C0.4468,2.6474 -0.0002,2.2004 -0.0002,1.6474 C-0.0002,1.0944 0.4468,0.6474 0.9998,0.6474 L62.4628,0.6474 C63.0158,0.6474 63.4628,1.0944 63.4628,1.6474 C63.4628,2.2004 63.0158,2.6474 62.4628,2.6474" id="Fill-5" fill="#231F1F" mask="url(#mask-2)"></path>
                    </g>
                    <g id="Group-10" transform="translate(0.000000, 38.000000)">
                        <mask id="mask-4" fill="white">
                            <use xlink:href="#path-3"></use>
                        </mask>
                        <g id="Clip-9"></g>
                        <path d="M52.2148,8.1015 C49.2198,8.1015 47.6998,6.4835 46.3608,5.0555 C45.1448,3.7595 44.0948,2.6405 41.9658,2.6405 C39.8378,2.6405 38.7888,3.7595 37.5738,5.0555 C36.2358,6.4835 34.7178,8.1015 31.7248,8.1015 C28.7298,8.1015 27.2118,6.4835 25.8718,5.0545 C24.6568,3.7595 23.6078,2.6405 21.4798,2.6405 C19.3528,2.6405 18.3038,3.7595 17.0888,5.0545 C15.7498,6.4835 14.2328,8.1015 11.2378,8.1015 C8.2448,8.1015 6.7288,6.4835 5.3898,5.0545 C4.1748,3.7595 3.1258,2.6405 0.9998,2.6405 C0.4468,2.6405 -0.0002,2.1935 -0.0002,1.6405 C-0.0002,1.0875 0.4468,0.6405 0.9998,0.6405 C3.9928,0.6405 5.5098,2.2585 6.8488,3.6875 C8.0638,4.9825 9.1128,6.1015 11.2378,6.1015 C13.3658,6.1015 14.4148,4.9825 15.6298,3.6865 C16.9688,2.2585 18.4858,0.6405 21.4798,0.6405 C24.4738,0.6405 25.9908,2.2585 27.3308,3.6865 C28.5458,4.9825 29.5958,6.1015 31.7248,6.1015 C33.8518,6.1015 34.9008,4.9825 36.1148,3.6875 C37.4538,2.2585 38.9718,0.6405 41.9658,0.6405 C44.9608,0.6405 46.4798,2.2585 47.8198,3.6865 C49.0348,4.9825 50.0848,6.1015 52.2148,6.1015 C54.3438,6.1015 55.3938,4.9825 56.6098,3.6865 C57.9488,2.2585 59.4678,0.6405 62.4628,0.6405 C63.0158,0.6405 63.4628,1.0875 63.4628,1.6405 C63.4628,2.1935 63.0158,2.6405 62.4628,2.6405 C60.3338,2.6405 59.2838,3.7595 58.0688,5.0555 C56.7288,6.4835 55.2098,8.1015 52.2148,8.1015" id="Fill-8" fill="#231F1F" mask="url(#mask-4)"></path>
                    </g>
                    <path d="M43.8076,66 L42.1956,66 C41.6426,66 41.1956,65.553 41.1956,65 C41.1956,64.447 41.6426,64 42.1956,64 L43.8076,64 C44.3606,64 44.8076,64.447 44.8076,65 C44.8076,65.553 44.3606,66 43.8076,66" id="Fill-11" fill="#231F1F"></path>
                    <path d="M49.0517,66 C48.4987,66 48.0517,65.553 48.0517,65 C48.0517,64.447 48.4987,64 49.0517,64 C54.0727,64 58.5787,61.311 60.8117,56.982 L60.8927,56.823 C61.7127,55.211 61.6297,53.321 60.6737,51.761 C59.6797,50.14 57.9577,49.172 56.0677,49.172 L7.3957,49.172 C5.5047,49.172 3.7837,50.14 2.7887,51.761 C1.8327,53.321 1.7497,55.211 2.5677,56.816 L2.6517,56.981 C4.8837,61.311 9.3897,64 14.4107,64 L36.2867,64 C36.8397,64 37.2867,64.447 37.2867,65 C37.2867,65.553 36.8397,66 36.2867,66 L14.4107,66 C8.6377,66 3.4497,62.895 0.8737,57.898 L0.7817,57.718 C-0.3503,55.493 -0.2383,52.874 1.0837,50.716 C2.4447,48.497 4.8037,47.172 7.3957,47.172 L56.0677,47.172 C58.6587,47.172 61.0187,48.497 62.3787,50.716 C63.7007,52.874 63.8137,55.493 62.6787,57.725 L62.5887,57.899 C60.0127,62.895 54.8247,66 49.0517,66" id="Fill-13" fill="#231F1F"></path>
                    <path d="M14.0136,21.0294 C13.4156,21.8814 12.2406,22.0874 11.3886,21.4894 C10.5366,20.8914 10.3316,19.7164 10.9286,18.8644 C11.5266,18.0134 14.5226,15.2114 15.3746,15.8094 C16.2266,16.4074 14.6116,20.1774 14.0136,21.0294" id="Fill-15" fill="#231F1F"></path>
                    <path d="M33.894,20.2361 C33.893,21.2771 33.049,22.1201 32.009,22.1191 C30.968,22.1181 30.125,21.2741 30.126,20.2331 C30.126,19.1931 30.973,15.1791 32.013,15.1801 C33.054,15.1811 33.895,19.1951 33.894,20.2361" id="Fill-17" fill="#231F1F"></path>
                    <path d="M49.4492,21.0294 C50.0472,21.8814 51.2222,22.0874 52.0742,21.4894 C52.9262,20.8914 53.1312,19.7164 52.5342,18.8644 C51.9362,18.0134 48.9402,15.2114 48.0882,15.8094 C47.2362,16.4074 48.8512,20.1774 49.4492,21.0294" id="Fill-19" fill="#231F1F"></path>
                    <path d="M39.285,13.1288 C39.883,13.9808 41.058,14.1868 41.91,13.5888 C42.761,12.9908 42.967,11.8158 42.37,10.9638 C41.772,10.1128 38.776,7.3108 37.924,7.9088 C37.072,8.5068 38.687,12.2768 39.285,13.1288" id="Fill-21" fill="#231F1F"></path>
                    <path d="M24.0051,13.1288 C23.4071,13.9808 22.2321,14.1868 21.3801,13.5888 C20.5281,12.9908 20.3231,11.8158 20.9201,10.9638 C21.5181,10.1128 24.5141,7.3108 25.3661,7.9088 C26.2181,8.5068 24.6031,12.2768 24.0051,13.1288" id="Fill-23" fill="#231F1F"></path>
                </g>
                <g id="icon-printer" transform="translate(232.000000, 151.000000)">
                    <path d="M47.8203,43.4271 C47.2683,43.4271 46.8203,42.9801 46.8203,42.4271 L46.8203,29.1291 L2.0003,29.1291 L2.0003,42.4271 C2.0003,42.9801 1.5523,43.4271 1.0003,43.4271 C0.4483,43.4271 0.0003,42.9801 0.0003,42.4271 L0.0003,28.1291 C0.0003,27.5761 0.4483,27.1291 1.0003,27.1291 L47.8203,27.1291 C48.3723,27.1291 48.8203,27.5761 48.8203,28.1291 L48.8203,42.4271 C48.8203,42.9801 48.3723,43.4271 47.8203,43.4271" id="Fill-1" fill="#231F1F"></path>
                    <path d="M65,34.8275 L56.42,34.8275 C55.868,34.8275 55.42,34.3805 55.42,33.8275 C55.42,33.2745 55.868,32.8275 56.42,32.8275 L65,32.8275 C65.552,32.8275 66,33.2745 66,33.8275 C66,34.3805 65.552,34.8275 65,34.8275" id="Fill-3" fill="#231F1F"></path>
                    <path d="M56.3999,43.4271 C56.1439,43.4271 55.8879,43.3291 55.6929,43.1341 C55.3019,42.7431 55.3019,42.1111 55.6929,41.7201 L59.0389,38.3741 C59.4289,37.9841 60.0619,37.9841 60.4529,38.3741 C60.8429,38.7651 60.8429,39.3981 60.4529,39.7881 L57.1069,43.1341 C56.9119,43.3291 56.6559,43.4271 56.3999,43.4271" id="Fill-5" fill="#231F1F"></path>
                    <path d="M47.8203,43.4271 C47.5643,43.4271 47.3083,43.3291 47.1133,43.1341 C46.7223,42.7431 46.7223,42.1111 47.1133,41.7201 L55.4203,33.4131 L55.4203,21.9441 L48.5273,28.8361 C48.1363,29.2271 47.5043,29.2271 47.1133,28.8361 C46.7223,28.4461 46.7223,27.8131 47.1133,27.4221 L55.7133,18.8231 C56.0003,18.5361 56.4303,18.4501 56.8033,18.6061 C57.1763,18.7601 57.4203,19.1251 57.4203,19.5301 L57.4203,33.8271 C57.4203,34.0931 57.3153,34.3471 57.1273,34.5341 L48.5273,43.1341 C48.3323,43.3291 48.0763,43.4271 47.8203,43.4271" id="Fill-7" fill="#231F1F"></path>
                    <path d="M56.3999,49.517 C56.1439,49.517 55.8879,49.419 55.6929,49.224 C55.3019,48.833 55.3019,48.201 55.6929,47.81 L63.9999,39.503 L63.9999,37.912 C63.9999,37.359 64.4479,36.912 64.9999,36.912 C65.5519,36.912 65.9999,37.359 65.9999,37.912 L65.9999,39.917 C65.9999,40.183 65.8949,40.437 65.7069,40.624 L57.1069,49.224 C56.9119,49.419 56.6559,49.517 56.3999,49.517" id="Fill-9" fill="#231F1F"></path>
                    <g id="Group-13" transform="translate(0.000000, 18.517000)">
                        <mask id="mask-6" fill="white">
                            <use xlink:href="#path-5"></use>
                        </mask>
                        <g id="Clip-12"></g>
                        <path d="M1,10.6123 C0.744,10.6123 0.488,10.5143 0.293,10.3193 C-0.098,9.9283 -0.098,9.2963 0.293,8.9053 L8.893,0.3053 C9.08,0.1183 9.335,0.0123 9.6,0.0123 L18.771,0.0123 C19.324,0.0123 19.771,0.4603 19.771,1.0123 C19.771,1.5653 19.324,2.0123 18.771,2.0123 L10.014,2.0123 L1.707,10.3193 C1.512,10.5143 1.256,10.6123 1,10.6123" id="Fill-11" fill="#231F1F" mask="url(#mask-6)"></path>
                    </g>
                    <path d="M56.4204,20.5297 L41.3474,20.5297 C40.7944,20.5297 40.3474,20.0827 40.3474,19.5297 C40.3474,18.9767 40.7944,18.5297 41.3474,18.5297 L56.4204,18.5297 C56.9724,18.5297 57.4204,18.9767 57.4204,19.5297 C57.4204,20.0827 56.9724,20.5297 56.4204,20.5297" id="Fill-14" fill="#231F1F"></path>
                    <g id="Group-18" transform="translate(0.000000, 40.517000)">
                        <mask id="mask-8" fill="white">
                            <use xlink:href="#path-7"></use>
                        </mask>
                        <g id="Clip-17"></g>
                        <path d="M56.3999,9 L0.9999,9 C0.4479,9 -0.0001,8.553 -0.0001,8 L-0.0001,1.91 C-0.0001,1.357 0.4479,0.91 0.9999,0.91 L8.1069,0.91 C8.6599,0.91 9.1069,1.357 9.1069,1.91 C9.1069,2.463 8.6599,2.91 8.1069,2.91 L1.9999,2.91 L1.9999,7 L55.3999,7 L55.3999,2.91 L19.6999,2.91 C19.1479,2.91 18.6999,2.463 18.6999,1.91 C18.6999,1.357 19.1479,0.91 19.6999,0.91 L56.3999,0.91 C56.9519,0.91 57.3999,1.357 57.3999,1.91 L57.3999,8 C57.3999,8.553 56.9519,9 56.3999,9" id="Fill-16" fill="#231F1F" mask="url(#mask-8)"></path>
                    </g>
                    <g id="Group-21" transform="translate(39.000000, 0.517000)">
                        <mask id="mask-10" fill="white">
                            <use xlink:href="#path-9"></use>
                        </mask>
                        <g id="Clip-20"></g>
                        <path d="M3.3726,9.4121 L5.9436,9.4121 L5.9436,4.1881 C4.7846,5.7761 3.9176,7.5401 3.3726,9.4121 M7.6886,28.6121 C7.4516,28.6121 7.2126,28.5281 7.0216,28.3571 C3.0006,24.7531 0.6946,19.5911 0.6946,14.1941 C0.6946,9.1311 2.6626,4.3661 6.2356,0.7771 C6.5216,0.4911 6.9526,0.4031 7.3256,0.5591 C7.6996,0.7141 7.9436,1.0781 7.9436,1.4831 L7.9436,10.4121 C7.9436,10.9651 7.4966,11.4121 6.9436,11.4121 L2.9196,11.4121 C2.7706,12.3231 2.6946,13.2531 2.6946,14.1941 C2.6946,19.0231 4.7586,23.6421 8.3566,26.8671 C8.7686,27.2361 8.8026,27.8681 8.4346,28.2791 C8.2366,28.5001 7.9636,28.6121 7.6886,28.6121" id="Fill-19" fill="#231F1F" mask="url(#mask-10)"></path>
                    </g>
                    <path d="M24.8501,29.1293 C24.6131,29.1293 24.3741,29.0453 24.1831,28.8743 C20.1621,25.2703 17.8561,20.1083 17.8561,14.7113 C17.8561,9.6473 19.8241,4.8833 23.3971,1.2943 C23.5841,1.1053 23.8391,1.0003 24.1051,1.0003 L45.9441,1.0003 C46.4961,1.0003 46.9441,1.4473 46.9441,2.0003 C46.9441,2.5533 46.4961,3.0003 45.9441,3.0003 L24.5281,3.0003 C21.5121,6.1753 19.8561,10.3173 19.8561,14.7113 C19.8561,19.5403 21.9201,24.1593 25.5181,27.3843 C25.9291,27.7533 25.9641,28.3853 25.5951,28.7963 C25.3981,29.0173 25.1241,29.1293 24.8501,29.1293" id="Fill-22" fill="#231F1F"></path>
                    <path d="M27.4839,21.766 C27.2729,21.766 27.0599,21.7 26.8789,21.562 C24.3729,19.652 23.3239,16.808 23.8449,13.336 C23.9259,12.789 24.4389,12.421 24.9819,12.496 C25.5279,12.578 25.9039,13.087 25.8219,13.633 C25.4109,16.377 26.1739,18.51 28.0909,19.97 C28.5299,20.305 28.6149,20.933 28.2799,21.372 C28.0839,21.63 27.7859,21.766 27.4839,21.766" id="Fill-24" fill="#231F1F"></path>
                    <path d="M26.0977,10.3724 C25.9607,10.3724 25.8207,10.3444 25.6877,10.2844 C25.1837,10.0584 24.9597,9.4664 25.1857,8.9624 C25.9067,7.3604 26.6267,6.2914 26.6567,6.2464 C26.9667,5.7904 27.5867,5.6694 28.0447,5.9794 C28.5017,6.2874 28.6217,6.9094 28.3137,7.3664 C28.3067,7.3764 27.6557,8.3494 27.0107,9.7824 C26.8437,10.1534 26.4787,10.3724 26.0977,10.3724" id="Fill-26" fill="#231F1F"></path>
                    <path d="M36.6855,21.766 C36.4745,21.766 36.2625,21.7 36.0815,21.562 C35.4745,21.101 34.9445,20.577 34.5055,20.003 C34.1695,19.565 34.2535,18.938 34.6915,18.602 C35.1285,18.267 35.7575,18.349 36.0935,18.789 C36.4235,19.219 36.8265,19.617 37.2915,19.97 C37.7315,20.304 37.8165,20.931 37.4825,21.371 C37.2865,21.63 36.9875,21.766 36.6855,21.766" id="Fill-28" fill="#231F1F"></path>
                    <path d="M33.9145,16.0648 C33.3635,16.0648 32.9165,15.6198 32.9145,15.0678 C32.9005,10.6648 35.7375,6.4238 35.8585,6.2468 C36.1685,5.7898 36.7905,5.6708 37.2465,5.9788 C37.7035,6.2878 37.8235,6.9098 37.5155,7.3668 C37.4885,7.4058 34.9025,11.2838 34.9145,15.0618 C34.9165,15.6138 34.4705,16.0628 33.9175,16.0648 L33.9145,16.0648 Z" id="Fill-30" fill="#231F1F"></path>
                </g>
                <g id="icon-donut" transform="translate(366.000000, 22.000000)">
                    <g id="Group-3">
                        <mask id="mask-12" fill="white">
                            <use xlink:href="#path-11"></use>
                        </mask>
                        <g id="Clip-2"></g>
                        <path d="M14.8052,7.6728 C14.4882,7.6728 14.1762,7.5228 13.9812,7.2408 C13.6672,6.7868 13.7812,6.1638 14.2352,5.8508 C14.7002,5.5298 15.1732,5.2178 15.6552,4.9198 C16.1232,4.6278 16.7412,4.7748 17.0322,5.2438 C17.3222,5.7138 17.1772,6.3298 16.7072,6.6208 C16.2542,6.9018 15.8092,7.1938 15.3732,7.4948 C15.1992,7.6148 15.0012,7.6728 14.8052,7.6728 M33.0002,42.2278 C27.9112,42.2278 23.7722,38.0878 23.7722,32.9998 C23.7722,27.9108 27.9112,23.7718 33.0002,23.7718 C38.0882,23.7718 42.2282,27.9108 42.2282,32.9998 C42.2282,35.8748 40.9232,38.5348 38.6472,40.2988 C38.2112,40.6378 37.5832,40.5598 37.2442,40.1208 C36.9062,39.6848 36.9852,39.0568 37.4222,38.7188 C39.2052,37.3358 40.2282,35.2518 40.2282,32.9998 C40.2282,29.0148 36.9862,25.7718 33.0002,25.7718 C29.0142,25.7718 25.7722,29.0148 25.7722,32.9998 C25.7722,36.9858 29.0142,40.2278 33.0002,40.2278 C33.5522,40.2278 34.0002,40.6748 34.0002,41.2278 C34.0002,41.7798 33.5522,42.2278 33.0002,42.2278 M33.0002,65.9998 C14.8032,65.9998 0.0002,51.1968 0.0002,32.9998 C0.0002,23.8198 3.6792,15.2928 10.3602,8.9898 C10.7602,8.6128 11.3942,8.6308 11.7742,9.0308 C12.1532,9.4338 12.1342,10.0668 11.7322,10.4458 C5.4562,16.3648 2.0002,24.3758 2.0002,32.9998 C2.0002,50.0938 15.9062,63.9998 33.0002,63.9998 C50.0932,63.9998 64.0002,50.0938 64.0002,32.9998 C64.0002,15.9058 50.0932,1.9998 33.0002,1.9998 C28.7412,1.9998 24.6152,2.8478 20.7392,4.5188 C20.2332,4.7348 19.6432,4.5038 19.4252,3.9958 C19.2062,3.4888 19.4402,2.9018 19.9472,2.6828 C24.0752,0.9028 28.4672,-0.0002 33.0002,-0.0002 C51.1962,-0.0002 66.0002,14.8038 66.0002,32.9998 C66.0002,51.1968 51.1962,65.9998 33.0002,65.9998" id="Fill-1" fill="#231F1F" mask="url(#mask-12)"></path>
                    </g>
                    <g id="Group-6" transform="translate(0.000000, 32.000000)">
                        <mask id="mask-14" fill="white">
                            <use xlink:href="#path-13"></use>
                        </mask>
                        <g id="Clip-5"></g>
                        <path d="M12.0977,14.8896 C10.3947,14.8896 8.7917,14.2556 7.5437,13.0806 C6.2147,11.8286 5.4517,10.0646 5.4517,8.2386 L5.4517,6.5756 C5.4517,4.1206 3.4547,2.1236 0.9997,2.1236 C0.4477,2.1236 -0.0003,1.6766 -0.0003,1.1236 C-0.0003,0.5716 0.4477,0.1236 0.9997,0.1236 C4.5577,0.1236 7.4517,3.0186 7.4517,6.5756 L7.4517,8.2386 C7.4517,9.5346 7.9717,10.7366 8.9147,11.6246 C9.8577,12.5126 11.0917,12.9596 12.3927,12.8806 C14.8397,12.7346 16.7557,10.5986 16.7557,8.0176 L16.7557,6.5756 C16.7557,3.0186 19.6497,0.1236 23.2067,0.1236 L24.4037,0.1236 C24.9557,0.1236 25.4037,0.5716 25.4037,1.1236 C25.4037,1.6766 24.9557,2.1236 24.4037,2.1236 L23.2067,2.1236 C20.7527,2.1236 18.7557,4.1206 18.7557,6.5756 L18.7557,8.0176 C18.7557,11.6546 16.0127,14.6676 12.5127,14.8766 C12.3737,14.8856 12.2357,14.8896 12.0977,14.8896" id="Fill-4" fill="#231F1F" mask="url(#mask-14)"></path>
                    </g>
                    <path d="M65,37.1416 L61.906,37.1416 C60.153,37.1416 58.727,35.7146 58.727,33.9616 C58.727,33.4096 59.175,32.9616 59.727,32.9616 C60.279,32.9616 60.727,33.4096 60.727,33.9616 C60.727,34.6126 61.256,35.1416 61.906,35.1416 L65,35.1416 C65.552,35.1416 66,35.5886 66,36.1416 C66,36.6946 65.552,37.1416 65,37.1416" id="Fill-7" fill="#231F1F"></path>
                    <path d="M48.3291,40.5068 C47.3341,40.5068 46.3971,40.1348 45.6711,39.4448 C44.9051,38.7188 44.4661,37.6958 44.4661,36.6398 L44.4661,35.7628 C44.4661,34.1198 43.1291,32.7828 41.4861,32.7828 C40.9341,32.7828 40.4861,32.3358 40.4861,31.7828 C40.4861,31.2308 40.9341,30.7828 41.4861,30.7828 C44.2321,30.7828 46.4661,33.0168 46.4661,35.7628 L46.4661,36.6398 C46.4661,37.1568 46.6731,37.6388 47.0481,37.9948 C47.4231,38.3508 47.9121,38.5298 48.4351,38.5038 C49.4081,38.4528 50.2001,37.5438 50.2001,36.4778 L50.2001,35.7628 C50.2001,33.0168 52.4351,30.7828 55.1831,30.7828 L55.6031,30.7828 C56.1561,30.7828 56.6031,31.2308 56.6031,31.7828 C56.6031,32.3358 56.1561,32.7828 55.6031,32.7828 L55.1831,32.7828 C53.5381,32.7828 52.2001,34.1198 52.2001,35.7628 L52.2001,36.4778 C52.2001,38.6268 50.5921,40.3948 48.5391,40.5018 C48.4691,40.5048 48.3991,40.5068 48.3291,40.5068" id="Fill-9" fill="#231F1F"></path>
                    <path d="M10.1108,32.1386 C9.7938,32.1386 9.4828,31.9886 9.2878,31.7076 C8.9728,31.2546 9.0868,30.6316 9.5398,30.3166 L13.5698,27.5236 C14.0238,27.2086 14.6458,27.3226 14.9608,27.7766 C15.2758,28.2296 15.1628,28.8526 14.7088,29.1676 L10.6798,31.9606 C10.5058,32.0806 10.3068,32.1386 10.1108,32.1386" id="Fill-11" fill="#231F1F"></path>
                    <path d="M44.0435,14.6513 C43.7915,14.6513 43.5395,14.5563 43.3445,14.3673 L39.8375,10.9413 C39.4425,10.5543 39.4355,9.9223 39.8205,9.5263 C40.2065,9.1333 40.8405,9.1263 41.2345,9.5093 L44.7425,12.9353 C45.1375,13.3223 45.1445,13.9553 44.7585,14.3503 C44.5635,14.5503 44.3035,14.6513 44.0435,14.6513" id="Fill-13" fill="#231F1F"></path>
                    <path d="M29.3892,20.2197 C28.8422,20.2197 28.3952,19.7797 28.3892,19.2317 C28.3832,18.6797 28.8252,18.2267 29.3772,18.2197 L34.2802,18.1617 C34.8222,18.1617 35.2852,18.5987 35.2922,19.1507 C35.2982,19.7017 34.8562,20.1557 34.3032,20.1617 L29.4012,20.2197 L29.3892,20.2197 Z" id="Fill-15" fill="#231F1F"></path>
                    <path d="M18.1426,18.4453 C18.0146,18.4453 17.8846,18.4213 17.7596,18.3693 L13.2316,16.4883 C12.7226,16.2763 12.4806,15.6903 12.6926,15.1803 C12.9046,14.6713 13.4896,14.4303 13.9996,14.6403 L18.5266,16.5213 C19.0366,16.7333 19.2786,17.3193 19.0666,17.8293 C18.9066,18.2133 18.5346,18.4453 18.1426,18.4453" id="Fill-17" fill="#231F1F"></path>
                    <path d="M24.0674,12.8603 C23.7924,12.8603 23.5194,12.7483 23.3214,12.5273 C22.9534,12.1153 22.9884,11.4833 23.4004,11.1153 L27.0534,7.8453 C27.4654,7.4763 28.0984,7.5123 28.4654,7.9243 C28.8344,8.3363 28.7994,8.9673 28.3874,9.3363 L24.7344,12.6053 C24.5434,12.7763 24.3044,12.8603 24.0674,12.8603" id="Fill-19" fill="#231F1F"></path>
                    <path d="M42.2896,25.5254 C41.8626,25.5254 41.4676,25.2504 41.3346,24.8214 C41.1716,24.2944 41.4666,23.7334 41.9936,23.5704 L46.6776,22.1204 C47.2046,21.9574 47.7646,22.2524 47.9286,22.7794 C48.0916,23.3064 47.7966,23.8674 47.2686,24.0304 L42.5856,25.4804 C42.4876,25.5104 42.3876,25.5254 42.2896,25.5254" id="Fill-21" fill="#231F1F"></path>
                    <path d="M56.876,26.8964 C56.538,26.8964 56.208,26.7254 56.02,26.4154 L53.477,22.2224 C53.19,21.7514 53.341,21.1354 53.813,20.8484 C54.286,20.5644 54.901,20.7124 55.187,21.1854 L57.73,25.3784 C58.017,25.8494 57.866,26.4644 57.394,26.7514 C57.231,26.8494 57.053,26.8964 56.876,26.8964" id="Fill-23" fill="#231F1F"></path>
                </g>
                <g id="icon-big-donut" transform="translate(883.000000, 0.000000)">
                    <g id="Group-3">
                        <mask id="mask-16" fill="white">
                            <use xlink:href="#path-15"></use>
                        </mask>
                        <g id="Clip-2"></g>
                        <path d="M52.7154848,27.3198182 C51.5867727,27.3198182 50.4758636,26.7857273 49.7815455,25.7816364 C48.6635152,24.1651212 49.0694242,21.9468636 50.6859394,20.8323939 C52.3416212,19.6894394 54.0257879,18.5785303 55.742,17.5174697 C57.4083636,16.4777727 59.6088182,17.0011818 60.6449545,18.6711061 C61.6775303,20.3445909 61.1612424,22.5379242 59.4877576,23.5740606 C57.874803,24.5745909 56.2903333,25.6142879 54.7379091,26.6860303 C54.1183636,27.113303 53.4133636,27.3198182 52.7154848,27.3198182 M117.500712,150.356561 C99.3807879,150.356561 84.6434394,135.615652 84.6434394,117.499288 C84.6434394,99.3793636 99.3807879,84.6420152 117.500712,84.6420152 C135.617076,84.6420152 150.357985,99.3793636 150.357985,117.499288 C150.357985,127.73603 145.711394,137.207242 137.607455,143.488152 C136.05503,144.695197 133.81897,144.41747 132.611924,142.854364 C131.408439,141.301939 131.689727,139.065879 133.245712,137.862394 C139.594273,132.938076 143.236773,125.517773 143.236773,117.499288 C143.236773,103.310273 131.693288,91.7632273 117.500712,91.7632273 C103.308136,91.7632273 91.7646515,103.310273 91.7646515,117.499288 C91.7646515,131.691864 103.308136,143.235348 117.500712,143.235348 C119.466167,143.235348 121.061318,144.826939 121.061318,146.795955 C121.061318,148.761409 119.466167,150.356561 117.500712,150.356561 M117.500712,234.999288 C52.7083636,234.999288 0.000712121212,182.291636 0.000712121212,117.499288 C0.000712121212,84.8129242 13.1001818,54.4516364 36.8885909,32.0091364 C38.3128333,30.6667879 40.5702576,30.7308788 41.9232879,32.1551212 C43.2727576,33.5900455 43.2051061,35.8439091 41.7737424,37.1933788 C19.4273788,58.2686061 7.12192424,86.7926212 7.12192424,117.499288 C7.12192424,178.364288 56.6357121,227.878076 117.500712,227.878076 C178.362152,227.878076 227.8795,178.364288 227.8795,117.499288 C227.8795,56.6342879 178.362152,7.1205 117.500712,7.1205 C102.336091,7.1205 87.6450303,10.1398939 73.8441212,16.0896667 C72.0424545,16.8587576 69.941697,16.0362576 69.1654848,14.2274697 C68.3857121,12.4222424 69.2188939,10.3321667 71.0241212,9.55239394 C85.722303,3.21451515 101.360485,-0.000712121212 117.500712,-0.000712121212 C182.2895,-0.000712121212 235.000712,52.7105 235.000712,117.499288 C235.000712,182.291636 182.2895,234.999288 117.500712,234.999288" id="Fill-1" fill="#231F1F" mask="url(#mask-16)"></path>
                    </g>
                    <g id="Group-6" transform="translate(0.000000, 113.939394)">
                        <mask id="mask-18" fill="white">
                            <use xlink:href="#path-17"></use>
                        </mask>
                        <g id="Clip-5"></g>
                        <path d="M43.0751439,53.016 C37.0114318,53.016 31.3037803,50.7585758 26.8601439,46.5748636 C22.1280985,42.1169848 19.4113561,35.8360758 19.4113561,29.3344091 L19.4113561,23.4131212 C19.4113561,14.6718333 12.3008258,7.56130303 3.55953788,7.56130303 C1.59408333,7.56130303 -0.00106818182,5.96971212 -0.00106818182,4.00069697 C-0.00106818182,2.03524242 1.59408333,0.440090909 3.55953788,0.440090909 C16.2281742,0.440090909 26.5325682,10.7480455 26.5325682,23.4131212 L26.5325682,29.3344091 C26.5325682,33.9489545 28.3840833,38.228803 31.7417348,41.3906212 C35.0993864,44.5524394 39.4931742,46.1440303 44.1255227,45.8627424 C52.8383258,45.3428939 59.660447,37.7374394 59.660447,28.5475152 L59.660447,23.4131212 C59.660447,10.7480455 69.9648409,0.440090909 82.6299167,0.440090909 L86.8919621,0.440090909 C88.8574167,0.440090909 90.4525682,2.03524242 90.4525682,4.00069697 C90.4525682,5.96971212 88.8574167,7.56130303 86.8919621,7.56130303 L82.6299167,7.56130303 C73.8921894,7.56130303 66.7816591,14.6718333 66.7816591,23.4131212 L66.7816591,28.5475152 C66.7816591,41.4974394 57.0149167,52.2255455 44.5527955,52.9697121 C44.0578712,53.0017576 43.5665076,53.016 43.0751439,53.016" id="Fill-4" fill="#231F1F" mask="url(#mask-18)"></path>
                    </g>
                    <path d="M36.0005758,114.432894 C34.8718636,114.432894 33.7645152,113.898803 33.070197,112.898273 C31.9486061,111.285318 32.3545152,109.067061 33.9674697,107.94547 L48.3167121,98.000697 C49.9332273,96.8791061 52.1479242,97.2850152 53.2695152,98.9015303 C54.3911061,100.514485 53.9887576,102.732742 52.3722424,103.854333 L38.0265606,113.799106 C37.4070152,114.226379 36.6984545,114.432894 36.0005758,114.432894" id="Fill-11" fill="#231F1F"></path>
                    <path d="M104.643364,71.9943864 C102.695712,71.9943864 101.104121,70.4277197 101.082758,68.4765076 C101.061394,66.511053 102.635182,64.8980985 104.600636,64.8731742 L122.058288,64.6666591 C123.988136,64.6666591 125.636697,66.2226439 125.661621,68.1880985 C125.682985,70.1499924 124.109197,71.7665076 122.140182,71.7878712 L104.686091,71.9943864 L104.643364,71.9943864 Z" id="Fill-15" fill="#231F1F"></path>
                    <path d="M64.5986515,65.676447 C64.1428939,65.676447 63.6800152,65.5909924 63.2349394,65.4058409 L47.1125152,58.7083409 C45.3001667,57.9534924 44.4385,55.8669773 45.1933485,54.0510682 C45.948197,52.2387197 48.0311515,51.3806136 49.8470606,52.1283409 L65.9659242,58.8258409 C67.7818333,59.5806894 68.6435,61.6672045 67.8886515,63.4831136 C67.3189545,64.8503864 65.9944091,65.676447 64.5986515,65.676447" id="Fill-17" fill="#231F1F"></path>
                    <path d="M85.6945303,45.7904621 C84.7153636,45.7904621 83.7433182,45.3916742 83.0383182,44.6047803 C81.7280152,43.1378106 81.8526364,40.8875076 83.3196061,39.5772045 L96.3265,27.9340227 C97.7934697,26.6201591 100.047333,26.7483409 101.354076,28.2153106 C102.667939,29.6822803 102.543318,31.9290227 101.076348,33.2428864 L88.0694545,44.8825076 C87.3893788,45.4913712 86.5383939,45.7904621 85.6945303,45.7904621" id="Fill-19" fill="#231F1F"></path>
                </g>
                <g id="icon-cake" transform="translate(627.000000, 12.000000)">
                    <path d="M21.6061,38.2516 C21.4161,38.2516 21.2261,38.1976 21.0601,38.0896 L17.8691,36.0096 C17.4061,35.7076 17.2761,35.0876 17.5771,34.6256 C17.8791,34.1636 18.5001,34.0326 18.9611,34.3336 L21.6281,36.0726 L27.9611,32.2716 C28.2771,32.0816 28.6731,32.0816 28.9901,32.2716 L35.3481,36.0856 L41.7071,32.2716 C42.1801,31.9876 42.7951,32.1416 43.0791,32.6156 C43.3631,33.0886 43.2101,33.7036 42.7361,33.9866 L35.8631,38.1086 C35.5461,38.2996 35.1501,38.2996 34.8341,38.1086 L28.4751,34.2956 L22.1211,38.1086 C21.9621,38.2046 21.7841,38.2516 21.6061,38.2516" id="Fill-1" fill="#231F1F"></path>
                    <path d="M14.7453,34.1295 C14.1933,34.1295 13.7403,33.6815 13.7403,33.1295 C13.7403,32.5775 14.1833,32.1295 14.7353,32.1295 L14.7453,32.1295 C15.2983,32.1295 15.7453,32.5775 15.7453,33.1295 C15.7453,33.6815 15.2983,34.1295 14.7453,34.1295" id="Fill-3" fill="#231F1F"></path>
                    <path d="M7.8669,38.2516 C7.6889,38.2516 7.5099,38.2046 7.3519,38.1086 L0.4859,33.9866 C0.0119,33.7026 -0.1411,33.0886 0.1429,32.6146 C0.4259,32.1406 1.0409,31.9866 1.5149,32.2716 L7.8669,36.0846 L10.8179,34.3136 C11.2909,34.0296 11.9049,34.1836 12.1899,34.6566 C12.4739,35.1306 12.3209,35.7446 11.8469,36.0286 L8.3819,38.1086 C8.2229,38.2046 8.0449,38.2516 7.8669,38.2516" id="Fill-5" fill="#231F1F"></path>
                    <path d="M35.1891,67.0011 L7.3931,67.0011 C6.9151,67.0011 6.5031,66.6621 6.4121,66.1911 L0.0191,33.3201 C-0.0869,32.7781 0.2671,32.2531 0.8091,32.1481 C1.3531,32.0381 1.8761,32.3971 1.9811,32.9381 L8.2171,65.0011 L34.3801,65.0011 L41.2441,32.9201 C41.3591,32.3801 41.8921,32.0361 42.4301,32.1511 C42.9701,32.2671 43.3151,32.7981 43.1991,33.3381 L36.1671,66.2101 C36.0681,66.6721 35.6611,67.0011 35.1891,67.0011" id="Fill-7" fill="#231F1F"></path>
                    <path d="M28.4762,67.0011 C28.3992,67.0011 28.3212,66.9921 28.2432,66.9741 C27.7052,66.8451 27.3742,66.3061 27.5022,65.7691 L34.3752,37.0191 C34.5042,36.4821 35.0472,36.1521 35.5802,36.2791 C36.1182,36.4071 36.4492,36.9471 36.3212,37.4841 L29.4482,66.2331 C29.3382,66.6921 28.9282,67.0011 28.4762,67.0011" id="Fill-9" fill="#231F1F"></path>
                    <path d="M14.7677,67.0011 C14.3157,67.0011 13.9057,66.6921 13.7957,66.2331 L6.9227,37.4841 C6.7937,36.9471 7.1257,36.4071 7.6627,36.2791 C8.2007,36.1521 8.7397,36.4821 8.8677,37.0191 L15.7417,65.7691 C15.8697,66.3061 15.5377,66.8451 15.0007,66.9741 C14.9227,66.9921 14.8447,67.0011 14.7677,67.0011" id="Fill-11" fill="#231F1F"></path>
                    <path d="M21.6061,67.0011 C21.0541,67.0011 20.6061,66.5541 20.6061,66.0011 L20.6061,53.3081 C20.6061,52.7561 21.0541,52.3081 21.6061,52.3081 C22.1581,52.3081 22.6061,52.7561 22.6061,53.3081 L22.6061,66.0011 C22.6061,66.5541 22.1581,67.0011 21.6061,67.0011" id="Fill-13" fill="#231F1F"></path>
                    <path d="M21.611,50.2291 C21.341,50.2291 21.091,50.1191 20.901,49.9291 C20.711,49.7491 20.611,49.4891 20.611,49.2291 C20.611,48.9591 20.711,48.6991 20.901,48.5191 C21.271,48.1491 21.941,48.1491 22.311,48.5191 C22.501,48.6991 22.611,48.9591 22.611,49.2291 C22.611,49.4891 22.501,49.7491 22.311,49.9291 C22.131,50.1191 21.871,50.2291 21.611,50.2291" id="Fill-15" fill="#231F1F"></path>
                    <path d="M21.6061,46.5675 C21.0541,46.5675 20.6061,46.1195 20.6061,45.5675 L20.6061,37.2515 C20.6061,36.6995 21.0541,36.2515 21.6061,36.2515 C22.1581,36.2515 22.6061,36.6995 22.6061,37.2515 L22.6061,45.5675 C22.6061,46.1195 22.1581,46.5675 21.6061,46.5675" id="Fill-17" fill="#231F1F"></path>
                    <path d="M40.3825,35.0221 C39.8295,35.0221 39.3825,34.5741 39.3825,34.0221 C39.3825,24.2231 31.4095,16.2501 21.6115,16.2501 C11.8115,16.2501 3.8385,24.2231 3.8385,34.0221 C3.8385,34.5741 3.3915,35.0221 2.8385,35.0221 C2.2865,35.0221 1.8385,34.5741 1.8385,34.0221 C1.8385,23.1201 10.7085,14.2501 21.6115,14.2501 C32.5135,14.2501 41.3825,23.1201 41.3825,34.0221 C41.3825,34.5741 40.9355,35.0221 40.3825,35.0221" id="Fill-19" fill="#231F1F"></path>
                    <path d="M33.3512,31.8912 C32.7982,31.8912 32.3512,31.4432 32.3512,30.8912 C32.3512,26.0652 28.4252,22.1392 23.5992,22.1392 C23.0462,22.1392 22.5992,21.6912 22.5992,21.1392 C22.5992,20.5872 23.0462,20.1392 23.5992,20.1392 C29.5282,20.1392 34.3512,24.9622 34.3512,30.8912 C34.3512,31.4432 33.9042,31.8912 33.3512,31.8912" id="Fill-21" fill="#231F1F"></path>
                    <path d="M21.2194,16.2496 C20.8564,16.2496 20.4894,16.2096 20.1204,16.1256 C18.8334,15.8326 17.7364,15.0556 17.0334,13.9376 C16.3294,12.8196 16.1044,11.4946 16.3974,10.2066 C17.0024,7.5476 19.6564,5.8796 22.3164,6.4826 C22.8554,6.6056 23.1924,7.1416 23.0694,7.6796 C22.9474,8.2186 22.4124,8.5586 21.8724,8.4336 C20.2844,8.0716 18.7074,9.0676 18.3474,10.6506 C18.1724,11.4176 18.3074,12.2066 18.7264,12.8726 C19.1444,13.5386 19.7984,14.0006 20.5644,14.1756 C22.1484,14.5346 23.7284,13.5406 24.0904,11.9576 C24.2124,11.4196 24.7444,11.0796 25.2874,11.2056 C25.8254,11.3286 26.1624,11.8646 26.0394,12.4026 C25.5184,14.6926 23.4744,16.2496 21.2194,16.2496" id="Fill-23" fill="#231F1F"></path>
                    <g id="Group-27" transform="translate(20.000000, 0.001100)">
                        <mask id="mask-20" fill="white">
                            <use xlink:href="#path-19"></use>
                        </mask>
                        <g id="Clip-26"></g>
                        <path d="M2.0949,8.4575 C1.7079,8.4575 1.3399,8.2315 1.1759,7.8535 C0.3549,5.9525 0.1029,3.8705 0.4489,1.8325 C0.5409,1.2875 1.0519,0.9195 1.6019,1.0135 C2.1459,1.1055 2.5129,1.6215 2.4209,2.1665 C2.1399,3.8225 2.3439,5.5155 3.0119,7.0605 C3.2309,7.5675 2.9979,8.1555 2.4909,8.3745 C2.3619,8.4305 2.2269,8.4575 2.0949,8.4575" id="Fill-25" fill="#231F1F" mask="url(#mask-20)"></path>
                    </g>
                </g>
                <g id="icon-pizza" transform="translate(761.000000, 131.000000)">
                    <g id="Group-3" transform="translate(0.000000, 0.999000)">
                        <mask id="mask-22" fill="white">
                            <use xlink:href="#path-21"></use>
                        </mask>
                        <g id="Clip-2"></g>
                        <path d="M44.7731,39.0044 C42.5471,39.0044 40.4391,38.0994 38.8911,36.4554 C29.8361,26.8394 18.3741,19.7164 5.7421,15.8564 C3.3171,15.1154 1.4151,13.3284 0.5231,10.9544 C-0.3689,8.5804 -0.1119,5.9824 1.2271,3.8284 C3.1651,0.7104 6.9701,-0.7186 10.4801,0.3554 L14.0861,1.4574 C16.1051,2.0744 18.1201,2.7814 20.0761,3.5584 C20.5891,3.7614 20.8401,4.3434 20.6361,4.8564 C20.4321,5.3694 19.8511,5.6214 19.3381,5.4164 C17.4321,4.6594 15.4681,3.9714 13.5011,3.3704 L9.8951,2.2684 C7.2511,1.4584 4.3851,2.5354 2.9251,4.8834 C1.9171,6.5064 1.7241,8.4624 2.3961,10.2514 C3.0671,12.0394 4.5001,13.3854 6.3261,13.9434 C19.2911,17.9054 31.0541,25.2154 40.3471,35.0844 C41.6561,36.4744 43.4971,37.1574 45.3981,36.9734 C47.2991,36.7824 48.9681,35.7434 49.9761,34.1204 C50.7101,32.9394 51.0201,31.5284 50.8491,30.1484 C50.7811,29.6004 51.1701,29.1004 51.7181,29.0324 C52.2681,28.9594 52.7661,29.3544 52.8341,29.9014 C53.0611,31.7344 52.6491,33.6074 51.6751,35.1764 C50.3361,37.3304 48.1211,38.7104 45.5981,38.9634 C45.3211,38.9904 45.0461,39.0044 44.7731,39.0044" id="Fill-1" fill="#231F1F" mask="url(#mask-22)"></path>
                    </g>
                    <path d="M48.8669,26.8628 C48.6009,26.8628 48.3359,26.7578 48.1389,26.5488 L46.6499,24.9668 C42.9049,20.9908 38.7199,17.4108 34.2119,14.3278 C33.7559,14.0158 33.6389,13.3938 33.9509,12.9378 C34.2629,12.4828 34.8849,12.3648 35.3409,12.6768 C39.9679,15.8418 44.2629,19.5148 48.1059,23.5958 L49.5949,25.1768 C49.9729,25.5788 49.9539,26.2128 49.5529,26.5908 C49.3589,26.7728 49.1129,26.8628 48.8669,26.8628" id="Fill-4" fill="#231F1F"></path>
                    <path d="M28.3093,10.5327 C28.1463,10.5327 27.9823,10.4927 27.8293,10.4097 C27.1733,10.0497 26.5103,9.6997 25.8433,9.3587 C25.3513,9.1077 25.1573,8.5057 25.4083,8.0127 C25.6593,7.5217 26.2613,7.3267 26.7533,7.5777 C27.4383,7.9277 28.1173,8.2867 28.7913,8.6557 C29.2753,8.9217 29.4523,9.5297 29.1873,10.0137 C29.0053,10.3457 28.6633,10.5327 28.3093,10.5327" id="Fill-6" fill="#231F1F"></path>
                    <path d="M13.8215,66.999 C12.1995,66.999 10.7755,65.876 10.4315,64.274 C10.4185,64.214 10.4115,64.153 10.4095,64.092 C10.3485,61.89 9.7365,58.427 8.5675,57.62 C8.3825,57.492 8.1305,57.385 7.6605,57.548 L6.8785,57.825 L4.0225,59.405 C3.4825,59.704 2.8255,59.681 2.3075,59.345 C1.7895,59.01 1.4995,58.42 1.5505,57.806 L5.0375,15.816 C5.0835,15.266 5.5715,14.853 6.1165,14.902 C6.6675,14.948 7.0765,15.431 7.0305,15.981 L3.5955,57.356 L5.9825,56.035 C6.0305,56.008 6.0815,55.986 6.1325,55.967 L6.9985,55.661 C7.9815,55.321 8.9145,55.429 9.7045,55.975 C12.0655,57.605 12.3685,62.92 12.4055,63.931 C12.5685,64.528 13.1355,65.062 13.9655,64.992 C14.4985,64.942 14.9915,64.556 15.1645,64.054 C15.3175,63.609 15.2685,63.154 15.0245,62.772 C14.9955,62.727 14.9705,62.68 14.9485,62.63 C14.8645,62.435 12.9295,57.792 17.3675,53.421 C17.6635,53.131 18.0325,52.88 18.4365,52.696 L20.7365,51.646 C22.3535,50.907 24.2265,51.359 25.1895,52.72 C26.2975,54.286 25.5955,56.012 24.9555,56.86 C24.7805,57.233 24.7025,57.638 24.7235,58.065 C24.7725,59.072 25.5075,60.012 26.4715,60.3 C27.2065,60.519 27.9565,60.414 28.5835,60.002 C29.2015,59.596 29.6065,58.941 29.6925,58.207 C29.7325,57.865 29.7025,57.524 29.6035,57.196 C29.0795,55.466 28.6045,53.766 28.5425,51.978 C28.5195,51.31 28.6325,50.565 28.8805,49.767 C29.4935,47.789 31.3855,46.512 33.4725,46.677 C35.3195,46.816 36.6885,48.073 36.9615,49.878 C36.9625,49.883 36.9635,49.889 36.9635,49.894 C36.9785,49.996 36.9765,50.097 36.9605,50.194 C36.8115,51.337 37.3385,52.372 38.2345,52.808 L38.3235,52.85 C39.1225,53.207 39.9985,53.052 40.6715,52.434 C41.4115,51.755 41.6805,50.719 41.3585,49.794 C39.0975,43.312 39.6845,39.092 43.0085,37.91 C43.5275,37.726 44.1005,37.996 44.2865,38.517 C44.4715,39.038 44.1995,39.61 43.6785,39.795 C40.6325,40.877 42.5775,47.218 43.2465,49.136 C43.8325,50.814 43.3525,52.688 42.0245,53.907 C40.7625,55.064 39.0315,55.358 37.5055,54.674 L37.3635,54.609 C35.6795,53.789 34.7215,51.964 34.9615,50.049 C34.7215,48.902 33.7435,48.703 33.3215,48.671 C32.3805,48.601 31.1815,49.097 30.7905,50.359 C30.6095,50.943 30.5255,51.465 30.5415,51.909 C30.5945,53.458 31.0155,54.957 31.5175,56.617 C31.6965,57.209 31.7505,57.823 31.6785,58.44 C31.5235,59.763 30.7965,60.941 29.6825,61.673 C28.5695,62.405 27.1915,62.604 25.8985,62.216 C24.1205,61.684 22.8165,60.017 22.7255,58.163 C22.6865,57.364 22.8555,56.571 23.2125,55.871 C23.2445,55.808 23.2835,55.749 23.3275,55.695 C23.3555,55.659 24.1205,54.672 23.5565,53.875 C23.1555,53.308 22.3005,53.132 21.5675,53.465 L19.2665,54.516 C19.0715,54.605 18.9005,54.719 18.7695,54.847 C15.5335,58.035 16.5925,61.323 16.7635,61.782 C17.2885,62.66 17.3955,63.719 17.0555,64.706 C16.6285,65.945 15.4625,66.86 14.1545,66.983 C14.0425,66.994 13.9315,66.999 13.8215,66.999" id="Fill-8" fill="#231F1F"></path>
                    <path d="M9.1511,41.4716 C8.8111,41.4716 8.4801,41.2986 8.2921,40.9856 C8.0081,40.5116 8.1621,39.8976 8.6361,39.6136 C8.8291,39.4986 13.4111,36.8106 18.1851,38.8296 C18.6931,39.0446 18.9311,39.6316 18.7161,40.1406 C18.5011,40.6486 17.9151,40.8866 17.4051,40.6716 C13.5581,39.0436 9.7021,41.3066 9.6641,41.3296 C9.5031,41.4256 9.3261,41.4716 9.1511,41.4716" id="Fill-10" fill="#231F1F"></path>
                    <path d="M14.0876,46.8388 C13.5726,46.8388 13.1356,46.4448 13.0916,45.9228 L12.5266,39.2138 C12.4806,38.6638 12.8886,38.1798 13.4396,38.1328 C13.9906,38.0868 14.4726,38.4958 14.5196,39.0458 L15.0846,45.7548 C15.1316,46.3048 14.7226,46.7888 14.1726,46.8358 C14.1446,46.8378 14.1156,46.8388 14.0876,46.8388" id="Fill-12" fill="#231F1F"></path>
                    <path d="M8.7516,57.5971 C8.6266,57.5971 8.4986,57.5731 8.3746,57.5231 C7.8646,57.3151 7.6186,56.7341 7.8246,56.2231 C7.9266,55.9651 10.1606,50.0561 3.1036,45.4281 C2.6416,45.1251 2.5126,44.5051 2.8146,44.0431 C3.1196,43.5821 3.7396,43.4541 4.1996,43.7551 C12.6746,49.3131 9.7096,56.8981 9.6786,56.9741 C9.5206,57.3621 9.1466,57.5971 8.7516,57.5971" id="Fill-14" fill="#231F1F"></path>
                    <path d="M28.0031,35.707 C26.1861,35.707 24.7071,37.186 24.7071,39.003 C24.7071,40.82 26.1861,42.299 28.0031,42.299 C29.8201,42.299 31.2991,40.82 31.2991,39.003 C31.2991,37.186 29.8201,35.707 28.0031,35.707 M28.0031,44.299 C25.0831,44.299 22.7071,41.923 22.7071,39.003 C22.7071,36.083 25.0831,33.707 28.0031,33.707 C30.9231,33.707 33.2991,36.083 33.2991,39.003 C33.2991,41.923 30.9231,44.299 28.0031,44.299" id="Fill-16" fill="#231F1F"></path>
                    <path d="M19.4352,28.3042 C13.9322,28.3042 10.5962,23.7862 10.4542,23.5912 C10.1302,23.1432 10.2302,22.5182 10.6772,22.1942 C11.1242,21.8702 11.7492,21.9712 12.0722,22.4162 C12.1122,22.4692 15.0572,26.4452 19.6732,26.3012 C20.2182,26.2862 20.6852,26.7192 20.7022,27.2712 C20.7182,27.8232 20.2842,28.2842 19.7312,28.3002 C19.6322,28.3032 19.5332,28.3042 19.4352,28.3042" id="Fill-18" fill="#231F1F"></path>
                </g>
                <g id="icon-crabs" transform="translate(508.000000, 135.000000)">
                    <path d="M14.1871,66.0005 C13.7831,66.0005 13.4021,65.7525 13.2511,65.3525 C11.6341,61.0555 13.8141,56.2455 18.1101,54.6285 L19.9281,53.9435 C20.4451,53.7495 21.0221,54.0105 21.2161,54.5275 C21.4111,55.0445 21.1491,55.6215 20.6331,55.8155 L18.8151,56.5005 C17.2331,57.0955 15.9781,58.2705 15.2811,59.8095 C14.5841,61.3485 14.5281,63.0665 15.1231,64.6475 C15.3171,65.1645 15.0561,65.7415 14.5391,65.9365 C14.4231,65.9795 14.3041,66.0005 14.1871,66.0005" id="Fill-1" fill="#231F1F"></path>
                    <path d="M9.2979,57.3794 C8.8939,57.3794 8.5129,57.1314 8.3619,56.7314 C7.5789,54.6494 7.6519,52.3884 8.5709,50.3624 C9.4879,48.3374 11.1399,46.7904 13.2209,46.0064 L15.0389,45.3224 C15.5539,45.1294 16.1329,45.3894 16.3269,45.9064 C16.5219,46.4234 16.2599,47.0004 15.7429,47.1944 L13.9249,47.8784 C12.3439,48.4744 11.0899,49.6494 10.3919,51.1884 C9.6949,52.7274 9.6389,54.4454 10.2339,56.0264 C10.4279,56.5434 10.1669,57.1204 9.6499,57.3144 C9.5339,57.3584 9.4149,57.3794 9.2979,57.3794" id="Fill-3" fill="#231F1F"></path>
                    <path d="M4.4087,48.7578 C4.0047,48.7578 3.6237,48.5098 3.4727,48.1098 C2.6897,46.0288 2.7637,43.7668 3.6817,41.7408 C4.5987,39.7158 6.2497,38.1688 8.3317,37.3858 L10.1497,36.7008 C10.6667,36.5078 11.2437,36.7688 11.4377,37.2848 C11.6327,37.8018 11.3707,38.3788 10.8547,38.5728 L9.0367,39.2578 C7.4547,39.8528 6.1997,41.0278 5.5027,42.5668 C4.8057,44.1058 4.7497,45.8238 5.3447,47.4048 C5.5387,47.9218 5.2777,48.4988 4.7617,48.6938 C4.6447,48.7368 4.5257,48.7578 4.4087,48.7578" id="Fill-5" fill="#231F1F"></path>
                    <path d="M46.4175,66.0005 C46.3005,66.0005 46.1815,65.9795 46.0655,65.9365 C45.5485,65.7415 45.2875,65.1645 45.4815,64.6475 C46.0765,63.0665 46.0205,61.3485 45.3235,59.8095 C44.6255,58.2705 43.3715,57.0955 41.7905,56.5005 L39.9715,55.8155 C39.4555,55.6215 39.1935,55.0445 39.3885,54.5275 C39.5835,54.0105 40.1585,53.7495 40.6765,53.9435 L42.4945,54.6285 C46.7905,56.2455 48.9705,61.0555 47.3535,65.3525 C47.2025,65.7525 46.8215,66.0005 46.4175,66.0005" id="Fill-7" fill="#231F1F"></path>
                    <path d="M51.3067,57.3794 C51.1897,57.3794 51.0707,57.3584 50.9547,57.3144 C50.4377,57.1204 50.1767,56.5434 50.3707,56.0264 C51.5987,52.7624 49.9427,49.1074 46.6787,47.8784 L44.8617,47.1944 C44.3447,47.0004 44.0827,46.4234 44.2777,45.9064 C44.4717,45.3894 45.0497,45.1294 45.5657,45.3224 L47.3837,46.0064 C51.6797,47.6244 53.8597,52.4354 52.2427,56.7304 C52.0917,57.1314 51.7107,57.3794 51.3067,57.3794" id="Fill-9" fill="#231F1F"></path>
                    <path d="M56.1959,48.7578 C56.0789,48.7578 55.9599,48.7368 55.8429,48.6938 C55.3269,48.4988 55.0659,47.9218 55.2599,47.4048 C55.8549,45.8238 55.7989,44.1058 55.1019,42.5668 C54.4049,41.0278 53.1499,39.8528 51.5689,39.2578 L49.7499,38.5728 C49.2339,38.3788 48.9719,37.8018 49.1669,37.2848 C49.3609,36.7678 49.9389,36.5078 50.4549,36.7008 L52.2739,37.3858 C54.3549,38.1688 56.0059,39.7158 56.9239,41.7408 C57.8419,43.7668 57.9149,46.0288 57.1319,48.1098 C56.9809,48.5098 56.5999,48.7578 56.1959,48.7578" id="Fill-11" fill="#231F1F"></path>
                    <path d="M50.9058,30.0605 C50.4618,30.0605 50.0558,29.7625 49.9388,29.3125 C49.7998,28.7775 50.1198,28.2315 50.6548,28.0925 C52.2898,27.6675 53.6608,26.6305 54.5158,25.1735 C55.3718,23.7165 55.6088,22.0145 55.1828,20.3795 L54.6938,18.4995 C54.5548,17.9645 54.8758,17.4185 55.4098,17.2795 C55.9468,17.1415 56.4908,17.4605 56.6298,17.9955 L57.1188,19.8755 C57.6788,22.0275 57.3668,24.2685 56.2418,26.1865 C55.1158,28.1045 53.3098,29.4685 51.1588,30.0285 C51.0738,30.0505 50.9888,30.0605 50.9058,30.0605" id="Fill-13" fill="#231F1F"></path>
                    <g id="Group-17" transform="translate(44.000000, 0.000500)">
                        <mask id="mask-24" fill="white">
                            <use xlink:href="#path-23"></use>
                        </mask>
                        <g id="Clip-16"></g>
                        <path d="M2.606,9.2265 C2.678,9.9675 2.836,10.7155 3.079,11.4475 C4.213,14.8615 6.92,17.2465 9.662,17.2465 C10.134,17.2465 10.598,17.1725 11.041,17.0245 C12.462,16.5525 13.57,15.3655 14.159,13.6815 C14.78,11.9065 14.752,9.8145 14.08,7.7915 C13.074,4.7635 10.828,2.5465 8.419,2.0875 C8.457,2.1525 8.494,2.2195 8.528,2.2865 L11.581,8.2425 C12.643,10.3115 11.822,12.8585 9.752,13.9195 C9.159,14.2245 8.494,14.3855 7.831,14.3855 C6.239,14.3855 4.8,13.5055 4.074,12.0905 L2.606,9.2265 Z M9.662,19.2465 L9.662,19.2465 C6.071,19.2465 2.584,16.2985 1.181,12.0775 C0.442,9.8535 0.362,7.4875 0.956,5.4145 C1.069,5.0205 1.411,4.7345 1.82,4.6955 C2.227,4.6505 2.62,4.8685 2.807,5.2345 L5.854,11.1785 C6.397,12.2365 7.771,12.6885 8.84,12.1405 C9.367,11.8705 9.757,11.4105 9.939,10.8465 C10.121,10.2835 10.072,9.6825 9.802,9.1555 L6.749,3.1985 C6.504,2.7225 6.094,2.3505 5.593,2.1515 C5.197,1.9945 4.944,1.6035 4.963,1.1785 C4.981,0.7525 5.268,0.3865 5.676,0.2645 C6.266,0.0885 6.879,-0.0005 7.501,-0.0005 C11.091,-0.0005 14.577,2.9445 15.978,7.1605 C16.789,9.6005 16.813,12.1515 16.047,14.3415 C15.249,16.6235 13.694,18.2505 11.671,18.9225 C11.025,19.1375 10.349,19.2465 9.662,19.2465 L9.662,19.2465 Z" id="Fill-15" fill="#231F1F" mask="url(#mask-24)"></path>
                    </g>
                    <path d="M9.6988,30.0605 C9.6158,30.0605 9.5308,30.0505 9.4468,30.0285 C7.2948,29.4685 5.4898,28.1045 4.3638,26.1865 C3.2378,24.2685 2.9258,22.0275 3.4858,19.8755 L3.9748,17.9955 C4.1148,17.4615 4.6568,17.1405 5.1948,17.2795 C5.7288,17.4185 6.0498,17.9645 5.9108,18.4995 L5.4218,20.3795 C4.9958,22.0145 5.2328,23.7165 6.0888,25.1735 C6.9438,26.6305 8.3148,27.6675 9.9498,28.0925 C10.4848,28.2315 10.8048,28.7775 10.6658,29.3125 C10.5488,29.7625 10.1428,30.0605 9.6988,30.0605" id="Fill-18" fill="#231F1F"></path>
                    <g id="Group-22" transform="translate(0.000000, 0.000500)">
                        <mask id="mask-26" fill="white">
                            <use xlink:href="#path-25"></use>
                        </mask>
                        <g id="Clip-21"></g>
                        <path d="M8.1856,2.0874 C5.7756,2.5464 3.5306,4.7634 2.5246,7.7914 C1.8526,9.8144 1.8246,11.9064 2.4456,13.6814 C3.0346,15.3654 4.1416,16.5524 5.5636,17.0254 C6.0066,17.1724 6.4706,17.2464 6.9426,17.2464 C9.6836,17.2464 12.3906,14.8614 13.5256,11.4464 C13.7686,10.7154 13.9266,9.9674 13.9986,9.2264 L12.5296,12.0904 C11.8046,13.5054 10.3656,14.3854 8.7736,14.3854 C8.1106,14.3854 7.4456,14.2244 6.8526,13.9204 C4.7826,12.8584 3.9616,10.3124 5.0226,8.2424 L8.0766,2.2864 C8.1106,2.2184 8.1476,2.1524 8.1856,2.0874 M6.9426,19.2464 C6.2556,19.2464 5.5796,19.1374 4.9336,18.9234 C2.9096,18.2504 1.3556,16.6234 0.5576,14.3414 C-0.2094,12.1514 -0.1844,9.6014 0.6266,7.1604 C2.0276,2.9444 5.5136,-0.0006 9.1036,-0.0006 C9.7246,-0.0006 10.3386,0.0884 10.9286,0.2644 C11.3366,0.3864 11.6236,0.7524 11.6416,1.1784 C11.6606,1.6044 11.4076,1.9944 11.0116,2.1514 C10.5106,2.3514 10.1006,2.7224 9.8566,3.1984 L6.8026,9.1544 C6.2446,10.2434 6.6766,11.5824 7.7656,12.1404 C8.8336,12.6884 10.2086,12.2354 10.7496,11.1784 L13.7976,5.2344 C13.9846,4.8684 14.3796,4.6494 14.7846,4.6954 C15.1936,4.7344 15.5356,5.0204 15.6486,5.4154 C16.2426,7.4874 16.1626,9.8534 15.4236,12.0774 C14.0206,16.2984 10.5336,19.2464 6.9426,19.2464" id="Fill-20" fill="#231F1F" mask="url(#mask-26)"></path>
                    </g>
                    <path d="M30.3023,54.9306 C28.1443,54.9306 25.9853,54.1596 23.8843,52.6376 C23.4383,52.3136 23.3383,51.6876 23.6623,51.2406 C23.9853,50.7946 24.6103,50.6926 25.0583,51.0176 C26.8103,52.2876 28.5743,52.9306 30.3023,52.9306 C38.1923,52.9306 44.9913,39.6506 44.9913,33.1306 C44.9913,26.9926 38.4023,21.9986 30.3023,21.9986 C22.2023,21.9986 15.6123,26.9926 15.6123,33.1306 C15.6123,35.7826 16.7983,39.6506 18.7063,43.2256 C18.9663,43.7136 18.7823,44.3186 18.2953,44.5786 C17.8083,44.8396 17.2023,44.6556 16.9423,44.1676 C14.8883,40.3196 13.6123,36.0906 13.6123,33.1306 C13.6123,25.8896 21.0993,19.9986 30.3023,19.9986 C39.5053,19.9986 46.9913,25.8896 46.9913,33.1306 C46.9913,40.4966 39.4353,54.9306 30.3023,54.9306" id="Fill-23" fill="#231F1F"></path>
                    <path d="M21.6124,28.5678 C20.5864,28.5678 19.7514,29.4028 19.7514,30.4288 C19.7514,31.4558 20.5864,32.2908 21.6124,32.2908 C22.6384,32.2908 23.4734,31.4558 23.4734,30.4288 C23.4734,29.4028 22.6384,28.5678 21.6124,28.5678 M21.6124,34.2908 C19.4834,34.2908 17.7514,32.5578 17.7514,30.4288 C17.7514,28.3008 19.4834,26.5678 21.6124,26.5678 C23.7414,26.5678 25.4734,28.3008 25.4734,30.4288 C25.4734,32.5578 23.7414,34.2908 21.6124,34.2908" id="Fill-25" fill="#231F1F"></path>
                    <path d="M38.9922,28.5678 C37.9662,28.5678 37.1312,29.4028 37.1312,30.4288 C37.1312,31.4558 37.9662,32.2908 38.9922,32.2908 C40.0182,32.2908 40.8532,31.4558 40.8532,30.4288 C40.8532,29.4028 40.0182,28.5678 38.9922,28.5678 M38.9922,34.2908 C36.8632,34.2908 35.1312,32.5578 35.1312,30.4288 C35.1312,28.3008 36.8632,26.5678 38.9922,26.5678 C41.1212,26.5678 42.8532,28.3008 42.8532,30.4288 C42.8532,32.5578 41.1212,34.2908 38.9922,34.2908" id="Fill-27" fill="#231F1F"></path>
                    <path d="M37.4463,44.79 C37.2963,44.79 37.1433,44.756 36.9993,44.684 C36.5063,44.437 36.3053,43.836 36.5533,43.342 C36.9813,42.487 37.2813,41.481 37.4453,40.354 C37.5243,39.808 38.0313,39.429 38.5783,39.508 C39.1243,39.588 39.5033,40.095 39.4243,40.642 C39.2303,41.98 38.8653,43.19 38.3413,44.238 C38.1663,44.588 37.8133,44.79 37.4463,44.79" id="Fill-29" fill="#231F1F"></path>
                    <path d="M35.2769,47.4594 C34.7249,47.4594 34.2769,47.0114 34.2769,46.4594 C34.2769,45.9074 34.7249,45.4594 35.2769,45.4594 L35.3169,46.4134 L35.3379,46.4114 L36.0769,47.0854 C35.8869,47.2934 35.5579,47.4594 35.2769,47.4594" id="Fill-31" fill="#231F1F"></path>
                    <path d="M29.8956,49.1782 C29.5096,49.1782 29.2736,49.1552 29.2496,49.1522 C28.7006,49.0952 28.3016,48.6042 28.3576,48.0552 C28.4136,47.5072 28.9036,47.1072 29.4526,47.1622 C29.4796,47.1652 30.5986,47.2632 31.9806,46.9242 C32.5146,46.7922 33.0586,47.1182 33.1906,47.6552 C33.3226,48.1912 32.9956,48.7332 32.4586,48.8652 C31.4076,49.1252 30.4796,49.1782 29.8956,49.1782" id="Fill-33" fill="#231F1F"></path>
                </g>
                <g id="icon-shake" transform="translate(0.000000, 137.000000)">
                    <g id="Group-3" transform="translate(33.000000, 5.000000)">
                        <mask id="mask-28" fill="white">
                            <use xlink:href="#path-27"></use>
                        </mask>
                        <g id="Clip-2"></g>
                        <path d="M12.9532,2.81 L1.7412,2.81 C1.1892,2.81 0.7412,2.362 0.7412,1.81 C0.7412,1.258 1.1892,0.81 1.7412,0.81 L12.9532,0.81 C13.5052,0.81 13.9532,1.258 13.9532,1.81 C13.9532,2.362 13.5052,2.81 12.9532,2.81" id="Fill-1" fill="#231F1F" mask="url(#mask-28)"></path>
                    </g>
                    <g id="Group-6" transform="translate(0.000000, 5.000000)">
                        <mask id="mask-30" fill="white">
                            <use xlink:href="#path-29"></use>
                        </mask>
                        <g id="Clip-5"></g>
                        <path d="M21.9497,2.81 L0.9997,2.81 C0.4477,2.81 -0.0003,2.362 -0.0003,1.81 C-0.0003,1.258 0.4477,0.81 0.9997,0.81 L21.9497,0.81 C22.5017,0.81 22.9497,1.258 22.9497,1.81 C22.9497,2.362 22.5017,2.81 21.9497,2.81" id="Fill-4" fill="#231F1F" mask="url(#mask-30)"></path>
                    </g>
                    <path d="M34.6558,66 L12.2978,66 C11.7838,66 11.3538,65.61 11.3028,65.099 L6.0248,11.877 C5.9698,11.328 6.3718,10.838 6.9218,10.784 C7.4848,10.727 7.9608,11.131 8.0148,11.68 L13.2038,64 L33.7498,64 L38.9388,11.68 C38.9928,11.13 39.4708,10.724 40.0318,10.784 C40.5818,10.838 40.9838,11.328 40.9288,11.877 L35.6508,65.099 C35.5998,65.61 35.1698,66 34.6558,66" id="Fill-7" fill="#231F1F"></path>
                    <path d="M34.7413,7.81 C34.1893,7.81 33.7413,7.362 33.7413,6.81 L33.7413,2 L13.2123,2 L13.2123,6.81 C13.2123,7.362 12.7643,7.81 12.2123,7.81 C11.6603,7.81 11.2123,7.362 11.2123,6.81 L11.2123,1 C11.2123,0.448 11.6603,0 12.2123,0 L34.7413,0 C35.2933,0 35.7413,0.448 35.7413,1 L35.7413,6.81 C35.7413,7.362 35.2933,7.81 34.7413,7.81" id="Fill-9" fill="#231F1F"></path>
                    <path d="M37.8155,31.6533 L29.4075,31.6533 C28.9415,31.6533 28.5375,31.3323 28.4325,30.8783 C27.6975,27.6913 25.7055,25.5493 23.4765,25.5493 C21.2475,25.5493 19.2555,27.6903 18.5205,30.8783 C18.4155,31.3313 18.0115,31.6523 17.5455,31.6523 L9.1385,31.6523 C8.5855,31.6523 8.1385,31.2053 8.1385,30.6523 C8.1385,30.1003 8.5855,29.6523 9.1385,29.6523 L16.7755,29.6523 C17.8785,25.9703 20.4995,23.5493 23.4765,23.5493 C26.4525,23.5493 29.0745,25.9703 30.1765,29.6533 L37.8155,29.6533 C38.3675,29.6533 38.8155,30.1013 38.8155,30.6533 C38.8155,31.2053 38.3675,31.6533 37.8155,31.6533" id="Fill-11" fill="#231F1F"></path>
                    <path d="M23.4761,45.7763 C20.4721,45.7763 17.8421,43.3253 16.7531,39.5973 L9.6591,39.5973 C9.1061,39.5973 8.6591,39.1503 8.6591,38.5973 C8.6591,38.0453 9.1061,37.5973 9.6591,37.5973 L17.5281,37.5973 C17.9961,37.5973 18.4021,37.9223 18.5041,38.3793 C19.2161,41.5573 21.2601,43.7763 23.4761,43.7763 C25.6931,43.7763 27.7391,41.5553 28.4491,38.3753 C28.5511,37.9183 28.9571,37.5933 29.4251,37.5933 L37.2941,37.5933 C37.8471,37.5933 38.2941,38.0413 38.2941,38.5933 C38.2941,39.1463 37.8471,39.5933 37.2941,39.5933 L30.2001,39.5933 C29.1121,43.3233 26.4821,45.7763 23.4761,45.7763" id="Fill-13" fill="#231F1F"></path>
                    <path d="M29.815,61.0781 L22.562,61.0781 C22.01,61.0781 21.562,60.6301 21.562,60.0781 C21.562,59.5261 22.01,59.0781 22.562,59.0781 L29.815,59.0781 C30.367,59.0781 30.815,59.5261 30.815,60.0781 C30.815,60.6301 30.367,61.0781 29.815,61.0781" id="Fill-15" fill="#231F1F"></path>
                    <path d="M18.7608,61.0781 L17.1388,61.0781 C16.5868,61.0781 16.1388,60.6301 16.1388,60.0781 C16.1388,59.5261 16.5868,59.0781 17.1388,59.0781 L18.7608,59.0781 C19.3128,59.0781 19.7608,59.5261 19.7608,60.0781 C19.7608,60.6301 19.3128,61.0781 18.7608,61.0781" id="Fill-17" fill="#231F1F"></path>
                </g>
            </g>
        </g>
    </g>
</svg>