<?xml version="1.0" encoding="UTF-8" standalone="no"?>
<svg width="23px" height="33px" viewBox="0 0 23 33" version="1.1" xmlns="http://www.w3.org/2000/svg" xmlns:xlink="http://www.w3.org/1999/xlink">
    <!-- Generator: sketchtool 39.1 (31720) - http://www.bohemiancoding.com/sketch -->
    <title>9AC55668-648D-40AF-8A8D-F854A3C3593B</title>
    <desc>Created with sketchtool.</desc>
    <defs></defs>
    <g id="supermercado_categoria" stroke="none" stroke-width="1" fill="none" fill-rule="evenodd">
        <g id="Supermercado_categoria" transform="translate(-529.000000, -398.000000)" fill="#D4D4D4">
            <g id="sub_categoria_menu-copy" transform="translate(-12.000000, 320.000000)">
                <g id="subcategoria-copy-24" transform="translate(527.000000, 70.000000)">
                    <g id="icon01">
                        <g id="enlatados_conservas-lgreen-copy" transform="translate(14.444444, 8.888889)">
                            <path d="M0.00017816714,8.33136686 C0.000187561513,8.33357152 0.00018031746,28.9749422 0.00018031746,28.9749422 C0.00018031746,29.3234953 0.282738386,29.6060533 0.631291429,29.6060533 L21.2172343,29.6060533 C21.5657873,29.6060533 21.8483454,29.3234953 21.8483454,28.9749422 L21.8483454,8.29613587 C21.8472564,8.15160486 21.8354366,7.93105285 21.8031946,7.66486834 C21.7612818,7.31884443 21.446797,7.07231363 21.1007731,7.11422639 C20.7547492,7.15613914 20.5082184,7.47062394 20.5501312,7.81664785 C20.5760415,8.03055858 20.585409,8.2053526 20.5861417,8.30097183 L20.5861232,28.9749422 L21.2172343,28.3438311 L0.631291429,28.3438311 L1.26240254,28.9749422 L1.26240254,8.33039619 C1.26199133,8.21575463 1.27033202,8.03163889 1.29592351,7.81469289 C1.33675657,7.46853991 1.08924587,7.15482574 0.743092889,7.11399268 C0.396939911,7.07315962 0.083225743,7.32067032 0.0423926839,7.6668233 C0.0101667533,7.9400113 -0.000393021024,8.17311204 0.00017816714,8.33136686 Z" id="Stroke-1"></path>
                            <path d="M20.8978921,5.12110603 C21.2464451,5.12110603 21.5290032,4.83854796 21.5290032,4.48999492 C21.5290032,4.14144188 21.2464451,3.85888381 20.8978921,3.85888381 L0.950273016,3.85888381 C0.601719974,3.85888381 0.319161905,4.14144188 0.319161905,4.48999492 C0.319161905,4.83854796 0.601719974,5.12110603 0.950273016,5.12110603 L20.8978921,5.12110603 Z" id="Stroke-3"></path>
                            <path d="M0.525084444,6.67129524 C0.525084444,7.01984828 0.807642513,7.30240635 1.15619556,7.30240635 L20.6917892,7.30240635 C21.0403422,7.30240635 21.3229003,7.01984828 21.3229003,6.67129524 L21.3229003,6.02125079 C21.3229003,5.67269775 21.0403422,5.39013968 20.6917892,5.39013968 C20.3432362,5.39013968 20.0606781,5.67269775 20.0606781,6.02125079 L20.0606781,6.67129524 L20.6917892,6.04018413 L1.15619556,6.04018413 L1.78730667,6.67129524 L1.78730667,6.02125079 C1.78730667,5.67269775 1.5047486,5.39013968 1.15619556,5.39013968 C0.807642513,5.39013968 0.525084444,5.67269775 0.525084444,6.02125079 L0.525084444,6.67129524 Z" id="Stroke-5"></path>
                            <path d="M1.84611338,31.0393939 C1.95593811,31.2446063 2.16979761,31.3727137 2.40254984,31.3727137 L19.444353,31.3727137 C19.6768842,31.3727137 19.8905781,31.2448472 20.0004985,31.0399369 C20.0167521,31.0099784 20.0167521,31.0099784 20.0340689,30.9793924 C20.1301913,30.8113154 20.2594551,30.6262613 20.4132997,30.4327717 C20.5513199,30.2591843 20.700628,30.0892184 20.8499527,29.9311137 C20.9388748,29.8369632 21.0067147,29.7689895 21.0425078,29.7346514 C21.2940313,29.4933525 21.3023199,29.093841 21.061021,28.8423176 C20.819722,28.5907941 20.4202106,28.5825055 20.1686871,28.8238044 C20.1186939,28.8717654 20.036408,28.9542135 19.9323109,29.0644312 C19.7599372,29.2469402 19.5875468,29.443182 19.4253151,29.6472201 C19.2344484,29.8872722 19.0697294,30.123084 18.9383735,30.3527693 C18.9129112,30.3977381 18.9129112,30.3977381 18.8882075,30.4432682 L19.444353,30.1104914 L2.40254984,30.1104914 L2.9589863,30.4438112 C2.5827278,29.7407554 2.1304532,29.194598 1.64561622,28.7931324 C1.37715309,28.5708336 0.979311911,28.6082572 0.757013077,28.8767203 C0.534714242,29.1451834 0.572137797,29.5430246 0.840600926,29.7653234 C1.20139929,30.0640797 1.5484112,30.4831241 1.84611338,31.0393939 Z" id="Stroke-7"></path>
                            <path d="M17.5411321,2.85527714 C17.4592169,2.79337236 17.3535402,2.69976174 17.2440987,2.59016422 C16.9818602,2.32755208 16.7488802,2.02690403 16.6165678,1.76804436 C16.3871211,1.31914857 16.4261716,1.26060677 17.3989563,1.26222135 C18.4339125,1.26412987 18.4562701,1.29840624 18.2013556,1.74311468 C18.0527641,2.00233844 17.8003422,2.30373138 17.5129711,2.57879757 C17.396773,2.69002019 17.2834089,2.78834682 17.1940324,2.85718075 C17.1599167,2.88345517 17.1332501,2.9023084 17.1196741,2.91068675 C17.1859469,2.86978671 17.2269865,2.85101952 17.3716794,2.84907297 C17.5317906,2.84668257 17.5241592,2.84245044 17.5411321,2.85527714 Z M19.2964267,2.37082818 C20.052682,1.05151081 19.3691783,0.00363017593 17.4011676,1.07304622e-06 C15.5095571,-0.00313854021 14.8211796,1.02882924 15.4926525,2.34251755 C15.9064766,3.15213437 16.8718616,4.11889506 17.3895874,4.11116781 C17.8452069,4.10503909 18.8580867,3.13552966 19.2964267,2.37082818 Z" id="Stroke-9"></path>
                            <polygon id="Stroke-11" points="21.4330743 11.9776775 21.4330743 11.0760902 0.471169524 11.0760902 0.471169524 11.9776775"></polygon>
                            <polygon id="Stroke-13" points="21.5833689 13.9311467 21.5833689 13.0295594 0.621464127 13.0295594 0.621464127 13.9311467"></polygon>
                            <polygon id="Stroke-15" points="21.3579721 15.5840267 21.3579721 14.6824394 0.396067302 14.6824394 0.396067302 15.5840267"></polygon>
                            <polygon id="Stroke-17" points="21.4330743 17.7628927 21.4330743 16.8613054 0.471169524 16.8613054 0.471169524 17.7628927"></polygon>
                            <polygon id="Stroke-19" points="21.5833689 19.7163619 21.5833689 18.8147746 0.621464127 18.8147746 0.621464127 19.7163619"></polygon>
                            <polygon id="Stroke-21" points="21.5833689 21.5946387 21.5833689 20.6930514 0.621464127 20.6930514 0.621464127 21.5946387"></polygon>
                            <polygon id="Stroke-23" points="21.3579721 23.3227111 21.3579721 22.4211238 0.396067302 22.4211238 0.396067302 23.3227111"></polygon>
                            <polygon id="Stroke-25" points="0.687550476 24.582499 0.687550476 25.4840863 21.4330743 25.4840863 21.4330743 24.582499"></polygon>
                        </g>
                    </g>
                </g>
            </g>
        </g>
    </g>
</svg>