<?xml version="1.0" encoding="UTF-8" standalone="no"?>
<svg width="22px" height="22px" viewBox="0 0 22 22" version="1.1" xmlns="http://www.w3.org/2000/svg" xmlns:xlink="http://www.w3.org/1999/xlink">
    <!-- Generator: sketchtool 39.1 (31720) - http://www.bohemiancoding.com/sketch -->
    <title>EE0C5C3B-1585-426B-9AA9-F026BCC2D92B</title>
    <desc>Created with sketchtool.</desc>
    <defs></defs>
    <g id="Symbols" stroke="none" stroke-width="1" fill="none" fill-rule="evenodd">
        <g id="Menu_Categoria-" transform="translate(-1177.000000, -15.000000)" fill="#899195">
            <g id="Tiempo-de-entrega" transform="translate(1177.000000, 15.000000)">
                <g id="_icon_clock_grey">
                    <path d="M11,-3.55271368e-15 C4.92475,-3.55271368e-15 0,4.925 0,11 C0,17.07525 4.92475,22 11,22 C17.07525,22 22,17.07525 22,11 C22,4.925 17.07525,-3.55271368e-15 11,-3.55271368e-15 L11,-3.55271368e-15 Z M11,20 C6.0295,20 2,15.97075 2,11 C2,6.0295 6.0295,2 11,2 C15.9705,2 20,6.0295 20,11 C20,15.97075 15.9705,20 11,20 L11,20 Z M14.707,13.293 C15.0975,13.6835 15.0975,14.31675 14.707,14.70725 C14.512,14.90225 14.25575,15 14,15 C13.74425,15.00025 13.48825,14.9025 13.293,14.70725 L10.293,11.70725 C10.1055,11.51975 10,11.2655 10,11 L10,5 C10,4.44775 10.44775,4 11,4 C11.55225,4 12,4.44775 12,5 L12,10.586 L14.707,13.293 L14.707,13.293 Z" id="Icon_clock"></path>
                </g>
            </g>
        </g>
    </g>
</svg>