<?xml version="1.0" encoding="UTF-8" standalone="no"?>
<svg width="32px" height="32px" viewBox="0 0 32 32" version="1.1" xmlns="http://www.w3.org/2000/svg" xmlns:xlink="http://www.w3.org/1999/xlink">
    <!-- Generator: sketchtool 41.2 (35397) - http://www.bohemiancoding.com/sketch -->
    <title>C495D1E6-8CB6-4E0D-AF17-623268D3E862</title>
    <desc>Created with sketchtool.</desc>
    <defs></defs>
    <g id="Page-1" stroke="none" stroke-width="1" fill="none" fill-rule="evenodd">
        <g id="rappicash_otrovalor" transform="translate(-715.000000, -308.000000)" fill="#D4D4D4">
            <g id="cash-UI" transform="translate(655.000000, 158.000000)">
                <g id="_icon_delete_grey" transform="translate(60.000000, 150.000000)">
                    <path d="M10.3751611,27 C10.7268146,27 11.0788119,26.8659385 11.3472785,26.5974719 L20.9722033,16.9725471 C21.5091366,16.4356138 21.5091366,15.5649018 20.9722033,15.0276248 L11.3472785,5.40269998 C10.8103452,4.86576667 9.93963328,4.86576667 9.40269998,5.40269998 C8.86576667,5.93963328 8.86576667,6.81034523 9.40269998,7.34727854 L18.0555074,16.0000859 L9.40304373,24.6528933 C8.86611042,25.1898266 8.86611042,26.0605386 9.40304373,26.5974719 C9.67116663,26.8659385 10.0235076,27 10.3751611,27 L10.3751611,27 Z" id="Shape" transform="translate(15.187452, 16.000000) scale(-1, 1) translate(-15.187452, -16.000000) "></path>
                </g>
            </g>
        </g>
    </g>
</svg>