<?xml version="1.0" encoding="UTF-8" standalone="no"?>
<svg width="30px" height="37px" viewBox="0 0 30 37" version="1.1" xmlns="http://www.w3.org/2000/svg" xmlns:xlink="http://www.w3.org/1999/xlink">
    <!-- Generator: sketchtool 39 (31667) - http://www.bohemiancoding.com/sketch -->
    <title>8054A391-8663-4A52-B4C5-606B6F01273B</title>
    <desc>Created with sketchtool.</desc>
    <defs></defs>
    <g id="iconos" stroke="none" stroke-width="1" fill="none" fill-rule="evenodd">
        <g transform="translate(-705.000000, -260.000000)" id="licores">
            <g transform="translate(705.000000, 260.000000)">
                <path d="" id="Stroke-1" stroke="#696A69" stroke-width="1.4"></path>
                <g id="Group-18" transform="translate(0.000000, 0.403400)" stroke="#8DBA56">
                    <path d="M29.065,23.5928 C29.065,25.9288 27.165,27.8288 24.829,27.8288 L22.078,27.8288 C21.784,27.8288 21.546,28.0668 21.546,28.3598 L21.546,31.2698 C21.546,31.4948 21.688,31.6958 21.9,31.7708 C22.623,32.0278 23.109,32.7158 23.109,33.4828 C23.109,34.4848 22.294,35.2998 21.292,35.2998 L2.517,35.2998 C1.515,35.2998 0.7,34.4848 0.7,33.4828 C0.7,32.7158 1.186,32.0278 1.909,31.7708 C2.121,31.6958 2.263,31.4948 2.263,31.2698 L2.263,9.7518 L21.546,9.7518 L21.546,12.1298 C21.546,12.4238 21.784,12.6618 22.078,12.6618 L24.829,12.6618 C27.165,12.6618 29.065,14.5618 29.065,16.8968 L29.065,23.5928 L29.065,23.5928 Z" id="Stroke-2" stroke-width="1.4"></path>
                    <path d="" id="Stroke-4" stroke-width="1.4"></path>
                    <path d="M25.3959,23.5928 C25.3959,24.3648 24.7679,24.9928 23.9959,24.9928 L21.7759,24.9928 L21.7759,15.4978 L23.9959,15.4978 C24.7679,15.4978 25.3959,16.1258 25.3959,16.8968 L25.3959,23.5928 L25.3959,23.5928 Z" id="Stroke-6" stroke-width="1.4"></path>
                    <path d="M18.872,12.1967 L18.872,30.0297 C18.872,30.0297 19.205,32.4467 17.122,32.4467 L13.789,32.4467" id="Stroke-8" stroke-width="1.4" stroke-linecap="round" stroke-linejoin="round"></path>
                    <path d="M11.9635,20.0897 C12.5965,20.0897 13.1095,20.6027 13.1095,21.2357 C13.1095,21.8687 12.5965,22.3817 11.9635,22.3817 C11.3305,22.3817 10.8175,21.8687 10.8175,21.2357 C10.8175,20.6027 11.3305,20.0897 11.9635,20.0897 L11.9635,20.0897 Z" id="Stroke-10" stroke-linecap="round" stroke-linejoin="round"></path>
                    <path d="M14.0733,15.2027 C14.6053,15.2027 15.0373,15.6347 15.0373,16.1667 C15.0373,16.6987 14.6053,17.1307 14.0733,17.1307 C13.5413,17.1307 13.1093,16.6987 13.1093,16.1667 C13.1093,15.6347 13.5413,15.2027 14.0733,15.2027 L14.0733,15.2027 Z" id="Stroke-12" stroke-linecap="round" stroke-linejoin="round"></path>
                    <path d="M14.0798,25.3382 C14.8168,25.3382 15.4138,25.9352 15.4138,26.6722 C15.4138,27.4092 14.8168,28.0062 14.0798,28.0062 C13.3428,28.0062 12.7458,27.4092 12.7458,26.6722 C12.7458,25.9352 13.3428,25.3382 14.0798,25.3382 L14.0798,25.3382 Z" id="Stroke-14" stroke-linecap="round" stroke-linejoin="round"></path>
                    <path d="M5.5289,3.0903 C5.9469,3.0903 6.3559,3.1843 6.7459,3.3683 C6.9919,3.4853 7.2689,3.3843 7.4269,3.1233 C8.5099,1.3263 10.1639,0.2963 11.9629,0.2963 C13.7639,0.2963 15.4169,1.3263 16.4999,3.1223 C16.6579,3.3843 16.9349,3.4853 17.1809,3.3683 C17.5709,3.1843 17.9799,3.0903 18.3979,3.0903 C20.0879,3.0903 21.4959,4.6223 21.7759,6.6303 L2.1509,6.6303 C2.4309,4.6223 3.8389,3.0903 5.5289,3.0903 L5.5289,3.0903 Z" id="Stroke-16" stroke-width="1.4"></path>
                </g>
            </g>
        </g>
    </g>
</svg>