<?xml version="1.0" encoding="UTF-8" standalone="no"?>
<svg width="80px" height="80px" viewBox="0 0 80 80" version="1.1" xmlns="http://www.w3.org/2000/svg" xmlns:xlink="http://www.w3.org/1999/xlink">
    <!-- Generator: sketchtool 39.1 (31720) - http://www.bohemiancoding.com/sketch -->
    <title>724C0EC4-7074-4E35-A739-EB4018ED446D</title>
    <desc>Created with sketchtool.</desc>
    <defs></defs>
    <g id="Desktop" stroke="none" stroke-width="1" fill="none" fill-rule="evenodd">
        <g id="Login-register" transform="translate(-380.000000, -325.000000)">
            <g id="modal-_morning" transform="translate(245.000000, 175.000000)">
                <g id="_logo_modal_rappi" transform="translate(135.000000, 150.000000)">
                    <g>
                        <circle id="Oval" fill="#FD6250" cx="40" cy="40" r="40"></circle>
                        <path d="M69.2199153,36.8835233 C66.0632937,39.6008896 63.2634549,39.7713443 59.9012296,37.3374087 C58.3551703,36.2195424 56.9703689,34.8876167 55.4202782,33.7756966 C54.2209232,32.9154946 52.9530337,32.0612386 51.584358,31.530054 C49.2158839,30.6084089 46.8131425,30.92157 44.6502721,32.2138551 C43.1808103,33.0918954 41.8423705,34.1859773 40.479742,35.2285263 C40.2882483,35.3732146 40.145132,35.4524959 40,35.4465498 C39.854868,35.4524959 39.7117517,35.3732146 39.520258,35.2285263 C38.1576295,34.1859773 36.8191897,33.0918954 35.3497279,32.2138551 C33.1888732,30.92157 30.7841161,30.6084089 28.415642,31.530054 C27.0469663,32.0612386 25.7790768,32.9154946 24.5797218,33.7756966 C23.0296311,34.8876167 21.6448297,36.2195424 20.0987704,37.3374087 C16.7365451,39.7713443 13.9367063,39.6008896 10.7800847,36.8835233 C10.5200564,36.6595536 10.2600282,36.4355839 10,36.2135963 C10.4696634,38.770418 11.4835719,41.0636294 12.9792381,43.1447633 C14.8881274,45.8006866 17.3916549,47.7034377 20.5341665,48.7479687 C27.8794598,51.1898325 37.1578311,47.786683 40,41.3629163 C42.8421689,47.786683 52.1205402,51.1898325 59.4658335,48.7479687 C62.6083451,47.7034377 65.1118726,45.8006866 67.0207619,43.1447633 C68.5164281,41.0636294 69.5303366,38.770418 70,36.2135963 C69.7399718,36.4355839 69.4799436,36.6595536 69.2199153,36.8835233" id="Fill-1" fill="#FFFFFF"></path>
                    </g>
                </g>
            </g>
        </g>
    </g>
</svg>