<?xml version="1.0" encoding="UTF-8" standalone="no"?>
<svg width="70px" height="32px" viewBox="0 0 70 32" version="1.1" xmlns="http://www.w3.org/2000/svg" xmlns:xlink="http://www.w3.org/1999/xlink">
    <!-- Generator: sketchtool 41 (35326) - http://www.bohemiancoding.com/sketch -->
    <title>39FA56A2-77E1-416E-AA8E-E0E48E9CFC8C</title>
    <desc>Created with sketchtool.</desc>
    <defs></defs>
    <g id="Home" stroke="none" stroke-width="1" fill="none" fill-rule="evenodd">
        <g id="mobile_rearch_results" transform="translate(-145.000000, -33.000000)" fill="#FFFFFF">
            <g id="Header" transform="translate(0.000000, 24.000000)">
                <g id="Logo_Rappi" transform="translate(145.000000, 9.000000)">
                    <g id="logo-rappi" transform="translate(3.000000, 2.000000)">
                        <path d="M64.2142286,3.2213518 C64.2142286,4.73472711 62.9989385,5.96157059 61.500573,5.96157059 C60.0017222,5.96157059 58.7865707,4.73472711 58.7865707,3.2213518 C58.7865707,1.70804649 60.0017222,0.481203008 61.500573,0.481203008 C62.9989385,0.481203008 64.2142286,1.70804649 64.2142286,3.2213518" id="Fill-4"></path>
                        <path d="M7.40346207,17.6747864 C7.26440299,18.1458207 7.13854525,18.6034667 7.0278913,19.0396629 C6.88853556,19.5891549 6.76015621,20.0881172 6.64431073,20.5359021 C6.5300227,20.9746895 6.44947968,21.3276773 6.40438746,21.5853642 C6.31227472,22.0428663 6.0038973,22.3312884 5.5115169,22.4253657 C5.08751648,22.5066306 4.63199601,22.4728722 4.16238422,22.3247383 C3.69981808,22.1782598 3.27863593,21.9237401 2.91055581,21.568233 C2.52437947,21.195091 2.32836178,20.7257122 2.32836178,20.1731971 C2.32836178,19.7234688 2.44442977,19.0125986 2.6831664,18.000134 C2.91530236,17.0127903 3.25112078,15.8413229 3.68127687,14.5186264 C4.10802139,13.2056472 4.6254695,11.7595777 5.21893659,10.2202947 C5.72941321,8.89752628 6.30100166,7.56626423 6.92183557,6.25357291 C7.12519558,5.82356699 7.54511693,5.52751504 8.02948752,5.47295453 C9.12608891,5.34936562 10.0773272,5.37974099 10.8829799,5.5642966 C11.3682405,5.67536107 11.6292266,6.18785557 11.4257182,6.62966614 C10.905971,7.75686612 10.4265695,8.8812589 9.99848997,9.97585214 C9.65199182,10.8624244 9.31943666,11.7393515 9.00623852,12.5925972 C8.97538595,12.6764534 9.06379044,12.7549112 9.14722589,12.7176977 C9.56507062,12.5308388 9.97809464,12.3107253 10.3813289,12.0593006 C11.0425826,11.6471457 11.644727,11.1546615 12.1714457,10.5957402 C12.6963845,10.0381864 13.1267631,9.40858119 13.4503443,8.72427147 C13.7705139,8.04744762 13.9328608,7.31109668 13.9328608,6.53551687 C13.9328608,5.53831197 13.6483644,4.80196103 13.0875299,4.34712216 C12.519798,3.8869568 11.7199302,3.65374301 10.7103241,3.65374301 C9.63493391,3.65374301 8.65180473,3.90142469 7.7877843,4.38995 C6.90210773,4.89020797 6.13583656,5.50620909 5.50995944,6.22125409 C4.88029991,6.9397541 4.3841371,7.70806398 4.0356365,8.50480578 C3.69047331,9.29470952 3.51514762,9.98708096 3.51514762,10.5628455 C3.51514762,10.9758642 3.29065064,11.2740036 2.88304065,11.4023432 C2.52564027,11.5152791 2.13212161,11.4989397 1.72770071,11.3523174 C1.33863194,11.2114534 0.978339125,10.93426 0.656315371,10.5282233 C0.332140837,10.1199552 0.167865707,9.56700822 0.167865707,8.88507382 C0.167865707,8.28980282 0.400224164,7.58843394 0.877994091,6.74087456 C1.34397181,5.91498104 2.0321474,5.11089732 2.92360882,4.35115301 C3.81373528,3.5924884 4.93762933,2.93409132 6.2642159,2.39482042 C7.5991831,1.85231044 9.14210852,1.57727652 10.8498282,1.57727652 C11.8225002,1.57727652 12.7976195,1.68790912 13.748042,1.90615116 C14.7064001,2.12655258 15.5747963,2.46168944 16.3292011,2.90234833 C17.0928023,3.34818976 17.7198661,3.90811879 18.1928153,4.56673181 C18.6745159,5.2367176 18.9184441,6.02244653 18.9184441,6.90210879 C18.9184441,7.84979174 18.7041819,8.73830749 18.2815164,9.54267912 C17.8621142,10.3398528 17.2856309,11.0677102 16.5677152,11.7063129 C15.8566227,12.3396611 15.0137392,12.8986544 14.0623526,13.3674573 C13.2776886,13.7536276 12.4431857,14.0829341 11.577237,14.3482508 C11.5222067,14.365094 11.5023305,14.3927342 11.5048521,14.4485903 C11.52369,14.8677993 11.5545426,15.280962 11.5972615,15.6801607 C11.6462103,16.1378787 11.7112529,16.5845119 11.7904609,17.0076798 C11.8684082,17.4236497 11.9620042,17.8289666 12.0685791,18.2124737 C12.1512729,18.5091735 12.2434598,18.7983874 12.342544,19.0720537 C12.4056583,19.247036 12.4720359,19.4175556 12.5398225,19.5787898 C12.6750992,19.90241 12.8244672,20.2119221 12.9834766,20.4991925 C13.1392228,20.7808486 13.3082445,21.0483966 13.4858693,21.2943508 C13.6583767,21.5337548 13.8439371,21.7592668 14.0374332,21.9648404 C14.2255894,22.1644398 14.4246479,22.3487794 14.6295653,22.5125329 C14.8293654,22.6722556 15.0396969,22.8165026 15.2550716,22.9415311 C15.4645132,23.0629607 15.6844119,23.1686267 15.9082414,23.2557939 C16.128956,23.3414496 16.3576804,23.4103341 16.5875914,23.4604318 C16.8173541,23.5105296 17.0553491,23.5434243 17.2949015,23.558324 C17.534454,23.5729359 17.7836478,23.5696248 18.0323226,23.5481029 C18.2850022,23.5265811 18.5432442,23.4858406 18.8008187,23.4271773 C19.0634364,23.3672903 19.3316906,23.2874649 19.5982391,23.1895727 C19.8712399,23.0894492 20.1475039,22.9685235 20.4198372,22.8302507 C20.524113,22.7775617 20.6291304,22.7215616 20.7338512,22.6628263 C21.0738228,22.4723683 21.5072422,22.5631346 21.7358182,22.8729346 C21.9643943,23.1826627 21.913443,23.6102213 21.6180444,23.8611421 C21.4732005,23.9842991 21.3277632,24.1041451 21.183216,24.2196723 C20.8338254,24.4980173 20.4829515,24.756064 20.1406807,24.9866865 C19.8146521,25.2062962 19.4840994,25.4094225 19.1578482,25.5903791 C18.9940181,25.6813613 18.8224006,25.7711918 18.6484099,25.8570634 C18.3129623,26.0221126 17.9732132,26.1677272 17.6391006,26.2900925 C17.3053588,26.411666 16.9705786,26.5120055 16.6439567,26.5886637 C16.3175572,26.6653939 15.9893036,26.7206742 15.6680215,26.7528491 C15.4394454,26.7755227 15.2103502,26.7869674 14.9868174,26.7869674 C14.8964104,26.7869674 14.8061518,26.7851679 14.7158191,26.781425 C14.4056617,26.7684687 14.0966909,26.7327668 13.7977324,26.6753991 C13.6492544,26.6471111 13.5003314,26.6127049 13.3544492,26.5729002 C13.213536,26.5351109 13.068692,26.4899078 12.9239223,26.4386583 C12.6452849,26.3401183 12.3696142,26.2186888 12.1056615,26.0780407 C11.8462329,25.9399839 11.5919216,25.7801892 11.3499959,25.6031915 C11.1547199,25.4601681 10.9630779,25.3031807 10.7807066,25.1361161 C10.5612528,24.9353651 10.3480289,24.7132362 10.1459297,24.4759195 C9.94694541,24.2421299 9.75589677,23.9892657 9.57812364,23.724093 C9.40042467,23.4592802 9.23207047,23.1773362 9.07736261,22.885819 C8.92228392,22.5948056 8.77625334,22.2852215 8.64297911,21.9659201 C8.51133652,21.6505777 8.38770372,21.314865 8.27623396,20.9682834 C8.16684081,20.62782 8.06619912,20.2671304 7.97749797,19.8959318 C7.88931597,19.525381 7.81255535,19.1407222 7.74892192,18.7526084 C7.69233414,18.4097697 7.64434949,18.0536868 7.60622876,17.6922054 C7.59465904,17.5820767 7.43490797,17.5683286 7.40346207,17.6747864" id="Fill-1"></path>
                        <path d="M50.9806561,11.2900233 C50.8896371,11.780098 50.7449727,12.3451797 50.5509723,12.9693839 C50.3560802,13.5923059 50.1067254,14.2494191 49.8122698,14.9160062 C49.4917344,15.588648 49.1602767,16.2171973 48.8272588,16.7841311 C48.49751,17.3447965 48.1696931,17.8271069 47.8536158,18.2178133 C47.5454145,18.5984047 47.2600979,18.8797703 47.0049475,19.0544306 C46.812656,19.1862807 46.706331,19.2004558 46.6694776,19.2004558 C46.6524626,19.2004558 46.6386426,19.1978915 46.6238567,19.1914094 C46.5921301,19.1777329 46.4845419,19.1069285 46.4379551,18.7720678 C46.3944146,18.465415 46.4176709,18.0628129 46.506758,17.5747327 C46.5976284,17.0716938 46.7419956,16.501982 46.9362932,15.8811257 C47.1291791,15.2614092 47.3783854,14.6045096 47.6772991,13.9286624 C47.9734637,13.258585 48.2974169,12.6331699 48.6404655,12.069584 C48.9827712,11.5065679 49.3161606,11.0293862 49.6313463,10.6506467 C49.9375416,10.281025 50.2236755,10.0038621 50.4817236,9.82692234 C50.6747581,9.69492984 50.7808602,9.68068348 50.817565,9.68068348 C50.8346543,9.68068348 50.8490687,9.68346152 50.8619228,9.68916006 C50.8937237,9.70283656 51.0010889,9.77392589 51.048716,10.108929 C51.0918107,10.4158668 51.0688516,10.8131977 50.9806561,11.2900233 M37.9584793,11.2900945 C37.8675346,11.7803829 37.7229445,12.3454647 37.5289441,12.9693839 C37.3331604,13.5955113 37.0835827,14.2524821 36.7903158,14.9160062 C36.4692604,15.5897165 36.1378027,16.2184082 35.8055277,16.7841311 C35.4751846,17.3451527 35.1475163,17.8275343 34.8312904,18.2178133 C34.523832,18.598191 34.2383668,18.8794854 33.9825478,19.0545019 C33.7905535,19.1862807 33.6844514,19.2004558 33.6477466,19.2004558 C33.6304344,19.2004558 33.6165401,19.1978915 33.6018285,19.1914094 C33.5701019,19.1777329 33.4628109,19.1072134 33.4158526,18.7719254 C33.3726093,18.4668396 33.3956426,18.0640239 33.4844326,17.5747327 C33.5751543,17.0734034 33.7198188,16.5037628 33.9143393,15.8811257 C34.1071509,15.2611242 34.3565057,14.6041534 34.6555681,13.9285912 C34.9524757,13.2568754 35.2761317,12.6314603 35.6179915,12.0696552 C35.9616346,11.5059981 36.2948754,11.0285314 36.6088723,10.6507892 C36.9165536,10.2802414 37.2028361,10.0029361 37.4596953,9.82685111 C37.6524327,9.69492984 37.758832,9.68068348 37.7955368,9.68068348 C37.8127746,9.68068348 37.8270405,9.68346152 37.8399689,9.68916006 C37.8718441,9.70283656 37.9795065,9.77392589 38.0268364,10.108929 C38.0696339,10.415012 38.0467491,10.8124854 37.9584793,11.2900945 M23.8691143,11.2603196 C23.812794,11.7574463 23.7031255,12.3261609 23.5432293,12.9504363 C23.3831102,13.572361 23.163253,14.2276934 22.8900474,14.8982695 C22.6176592,15.5656401 22.3273645,16.1934059 22.0271133,16.7640437 C21.7328063,17.3213612 21.4351557,17.7968334 21.1423346,18.1772824 C20.8568694,18.5474028 20.5887164,18.823141 20.3449342,18.9970891 C20.1643822,19.1263035 20.06467,19.1401937 20.0302686,19.1401937 C20.0144424,19.1401937 20.0011425,19.1375581 19.9864309,19.1310048 C19.9533668,19.1169722 19.8407262,19.0441733 19.781954,18.7040415 C19.7269711,18.392901 19.7219186,17.9912962 19.766425,17.5101967 C19.8117487,17.0209056 19.9154732,16.458958 20.0745521,15.8398825 C20.233631,15.2202372 20.4534882,14.564976 20.7280311,13.8921205 C21.0042087,13.2161308 21.2945778,12.5884363 21.5914854,12.0259189 C21.884455,11.4690288 22.1824028,10.9877156 22.4776015,10.5955846 C22.7615807,10.2173438 23.0293622,9.93726038 23.2728472,9.76302743 C23.4533991,9.63431158 23.5533342,9.62035015 23.5880329,9.62035015 C23.6043049,9.62035015 23.6176048,9.62298573 23.6303846,9.62847058 C23.664786,9.64342925 23.782925,9.71907741 23.8550714,10.0636968 C23.9196392,10.3697798 23.9242458,10.7723819 23.8691143,11.2603196 M64.1130959,14.8907902 C63.9716264,14.6800153 63.6986438,14.5437489 63.417711,14.5437489 C63.1511183,14.5437489 62.9117941,14.6634183 62.7613342,14.8724124 C62.5888811,15.1116799 62.3761568,15.3958235 62.1288824,15.716794 C61.8575344,16.0688927 61.5646391,16.4065314 61.2584438,16.7200937 C60.9542547,17.0322314 60.6577929,17.3036245 60.3770087,17.5267225 C60.0867882,17.7575847 59.8989548,17.8060223 59.7927784,17.8060223 C59.7183286,17.8060223 59.5799797,17.8060223 59.5485503,17.4550633 C59.5160064,17.0875785 59.5727725,16.6096844 59.717437,16.0346302 C59.8652963,15.4437625 60.0795067,14.7879315 60.3541982,14.0852299 C60.6340165,13.3700627 60.915098,12.6870211 61.1889722,12.0551239 C61.4736944,11.3982956 61.7183683,10.8522327 61.9364423,10.3857357 C62.1539962,9.92137569 62.2902646,9.61921045 62.3422011,9.48707548 C62.5162145,9.10448954 62.4526127,8.72745969 62.1583057,8.39616064 C61.8881465,8.09249953 61.5265226,7.87973018 61.0840589,7.76355113 C60.6518488,7.65007889 60.1806306,7.64352557 59.6894254,7.74396239 C59.1635215,7.85180732 58.7465432,8.14343026 58.45023,8.61014093 C58.1890613,9.01986618 57.8492819,9.66358785 57.4404024,10.5233555 C57.0299626,11.3851177 56.6334914,12.3419743 56.2618368,13.3672134 C56.0363326,13.9889957 55.828215,14.6211778 55.64001,15.2574914 C55.3266819,16.3159958 54.6821933,17.256754 53.7936252,17.952831 C53.4755418,18.2020711 53.1407406,18.4369935 52.7926395,18.6552477 C52.6386874,18.7519805 52.4836951,18.8415188 52.328257,18.9235066 C52.2790696,18.949435 52.2278017,18.8925208 52.2617574,18.8498529 C52.5302076,18.5108609 52.7943484,18.144587 53.0519507,17.7530971 C53.582907,16.9471807 54.0666078,15.9819187 54.4898275,14.8843793 C54.937195,13.7222327 55.2179792,12.6623037 55.3242299,11.7335124 C55.4311494,10.7933952 55.3939988,9.97301874 55.2130753,9.29517704 C55.0259849,8.59539595 54.698911,8.04484546 54.2401754,7.65876917 C53.7654651,7.25994239 53.1784856,7.05764411 52.4964006,7.05764411 C51.6920158,7.05764411 50.9526446,7.26172318 50.2990169,7.66425402 C49.8524667,7.93913749 49.4387576,8.24628896 49.0639081,8.58122083 C49.0327016,8.60900123 49.0070677,8.60565333 48.9844058,8.57131961 C48.9011141,8.44417087 48.7889193,8.324359 48.64797,8.2123114 C48.3307781,7.96114811 47.9492415,7.79289863 47.5131677,7.71240671 C47.075608,7.63276957 46.6311382,7.66161844 46.197665,7.79802732 C45.7340255,7.94398125 45.3881534,8.24579034 45.1696336,8.69526292 C44.7503519,9.56115654 44.3076654,10.5717931 43.8535365,11.6990362 C43.4005963,12.8246409 42.9590243,14.0012476 42.5403371,15.1963033 C42.4940474,15.3288657 42.4479064,15.4614992 42.4019139,15.5940616 C42.0485374,16.6131748 41.3848048,17.5075611 40.4962368,18.1617539 C40.2619651,18.3342773 40.0196689,18.4991076 39.7706112,18.6552477 C39.6166592,18.7519805 39.4615183,18.8415188 39.3059315,18.9235778 C39.2567442,18.9495062 39.2054763,18.8926633 39.2395063,18.8498529 C39.5079565,18.5110746 39.7718744,18.1448719 40.0294766,17.7532396 C40.5603587,16.947893 41.0442081,15.9827735 41.4679478,14.8843793 C41.9151668,13.7221614 42.1958767,12.6621612 42.3020531,11.7335124 C42.4091954,10.7929679 42.3720448,9.97259135 42.1910471,9.29517704 C42.0043282,8.59568088 41.67718,8.04513039 41.2182958,7.65876917 C40.7433626,7.25987116 40.1564574,7.05764411 39.4748182,7.05764411 C38.6697647,7.05764411 37.9304677,7.26172318 37.2769887,7.66411155 C36.8302156,7.93913749 36.4164322,8.24628896 36.0418799,8.58100713 C36.010822,8.6087163 35.985188,8.6055821 35.9626748,8.57103468 C35.8792345,8.44409964 35.7668911,8.32428777 35.6257188,8.21245386 C35.3088985,7.96121934 34.9272133,7.79304109 34.4906937,7.71240671 C34.0532083,7.6326271 33.608367,7.66161844 33.1757854,7.79802732 C32.7127403,7.94369632 32.366571,8.24543418 32.1471596,8.69540538 C31.7278036,9.56265241 31.2850428,10.5732178 30.8316568,11.6991074 C30.4062082,12.7568995 29.9922762,13.8547238 29.599743,14.9658685 C29.3035784,15.8044803 28.8600745,16.4781906 28.1981994,17.095414 C28.0272324,17.2546883 27.8606491,17.3990039 27.6997127,17.5267225 C27.4094922,17.7575847 27.2218074,17.8060223 27.1154824,17.8060223 C27.0410326,17.8060223 26.9024608,17.8060223 26.8714772,17.4548496 C26.8387104,17.0882196 26.8954765,16.610468 27.0401409,16.0346302 C27.1877031,15.4440475 27.4020621,14.7880739 27.6769022,14.0852299 C27.9536742,13.3773996 28.2347556,12.6942867 28.5116762,12.0551239 C28.7912716,11.4106899 29.0429298,10.848956 29.2592949,10.3857357 C29.4809353,9.91218679 29.613563,9.61792827 29.6643107,9.48693301 C29.8392157,9.10448954 29.7756139,8.72745969 29.4812325,8.39616064 C29.2101075,8.09200091 28.8422422,7.8788754 28.3868502,7.76283881 C27.9423804,7.64993643 27.4722767,7.64366803 26.9928111,7.74431855 C26.4795384,7.8524484 26.0688757,8.14385765 25.772934,8.60928615 C25.7137159,8.70146009 25.6520459,8.80310785 25.5865866,8.915939 C25.5634046,8.95625619 25.5005458,8.94720976 25.4905894,8.90219127 C25.4342691,8.64796501 25.3433987,8.40770019 25.2191671,8.18438854 C25.0329683,7.85159362 24.7573852,7.57856218 24.400145,7.37263108 C24.0371837,7.16363701 23.5764419,7.05764411 23.0309225,7.05764411 C21.7446202,7.05764411 20.4399654,7.6267861 19.1534401,8.74932785 C17.8904683,9.851711 16.8436387,11.6101389 16.0411115,13.9774562 C15.6644787,15.1189456 15.4436555,16.1739596 15.3844375,17.1135781 C15.3247736,18.0644513 15.4048703,18.8851127 15.6219784,19.5522696 C15.8457736,20.2402262 16.2030881,20.7833686 16.6845599,21.1662395 C17.1808919,21.5620033 17.7774562,21.7626632 18.4573122,21.7626632 C18.9604799,21.7626632 19.4403914,21.6794645 19.8839695,21.515204 C20.3138763,21.3559297 20.7125022,21.1512096 21.0686278,20.907027 C21.342725,20.7191888 21.5978753,20.5066331 21.8296207,20.2729216 C21.9949409,20.1063817 22.286053,20.173767 22.3541129,20.3940157 C22.4302716,20.6408338 22.5365223,20.8605126 22.6723449,21.0516988 C23.0084093,21.5233957 23.5403315,21.7626632 24.2529543,21.7626632 C25.0425532,21.7626632 25.8404738,21.4788046 26.6242028,20.9189227 C26.9896161,20.6582856 27.3466334,20.3739283 27.6924312,20.0682015 C27.7702245,19.999534 27.8927472,20.0731164 27.8622094,20.1701341 C27.6602587,20.8139983 27.4789638,21.4105645 27.3157241,21.9703039 C27.0404381,22.9111334 26.8164943,23.7215374 26.6500596,24.379078 C26.4273046,25.26107 26.3985501,25.5008362 26.3985501,25.611388 C26.3985501,26.1521085 26.5737523,26.6129782 26.9195501,26.9816739 C27.2536083,27.3361945 27.6406432,27.5905632 28.0712187,27.7377993 C28.3544549,27.8342472 28.6310782,27.8830409 28.8926184,27.8830409 C29.0374315,27.8830409 29.1802384,27.868011 29.3173241,27.8383786 C29.625897,27.7713495 30.0175386,27.5741799 30.1315909,27.0147967 L30.1335228,27.0039694 C30.1789208,26.709426 30.2654074,26.3102431 30.3908278,25.817604 C30.5210035,25.3063022 30.6791908,24.7244098 30.8611544,24.08774 C31.0406661,23.4545607 31.2459603,22.7492235 31.4883308,21.9314826 C31.6002285,21.5535267 31.7203735,21.157478 31.8480973,20.7460432 C31.8742513,20.6623458 31.992093,20.6490255 32.0376396,20.7246024 C32.0943314,20.8186996 32.1576361,20.9105886 32.2272563,20.999842 C32.620161,21.5045905 33.2468916,21.7611674 34.0903589,21.7626632 C34.2596913,21.7699289 34.4297667,21.7737042 34.5959042,21.7737042 L34.5962014,21.7737042 C35.836437,21.7737042 37.0012569,21.5696251 38.0580429,21.1672367 C39.0679448,20.7832261 39.993069,20.3139511 40.8172179,19.7706663 C40.8980576,19.7173137 41.0038626,19.791466 40.9754052,19.8816454 C40.7388302,20.6287956 40.5253628,21.3282206 40.3377523,21.9703751 C40.0609803,22.9179004 39.8368879,23.7282332 39.6717907,24.3791493 C39.4493329,25.2626371 39.4205783,25.5018335 39.4205783,25.611388 C39.4205783,26.151966 39.5957062,26.6126932 39.9417269,26.9816739 C40.2756365,27.3364082 40.6629687,27.5907769 41.0933955,27.7377993 C41.3767803,27.8341047 41.6528092,27.8830409 41.9144238,27.8830409 C42.0591625,27.8830409 42.2022666,27.868011 42.3397981,27.8383786 C42.6482967,27.7713495 43.0397154,27.5741087 43.1539164,27.0147967 L43.1559968,27.003827 C43.2010976,26.7082863 43.2878814,26.3091746 43.4132276,25.8174615 C43.543106,25.3064447 43.7009961,24.7246234 43.883034,24.08774 C44.0636603,23.4517826 44.2690288,22.7465879 44.5106563,21.9314826 C44.6227025,21.5527432 44.7428475,21.1566944 44.8702741,20.7458295 C44.8962052,20.6620609 45.0140469,20.6487405 45.0597421,20.7242462 C45.1165082,20.8185571 45.1799615,20.9104461 45.2497303,20.9997708 C45.6421149,21.5045192 46.2689199,21.7611674 47.11261,21.7626632 C47.2820167,21.7699289 47.4519435,21.7737042 47.6182296,21.7737042 L47.6183782,21.7737042 C48.8583167,21.7737042 50.0232852,21.5696251 51.0803683,21.1672367 C52.2635406,20.7174792 53.3327349,20.1511865 54.2586021,19.4839583 C54.4160464,19.3704149 54.5694783,19.2555892 54.7188238,19.1396239 C54.7872552,19.0864849 54.8894193,19.1342102 54.887859,19.2186911 C54.8872646,19.2566577 54.8869674,19.2943393 54.8869674,19.3316648 C54.8869674,20.0413471 55.0425541,20.6200341 55.3496409,21.0516988 C55.6857053,21.5233957 56.2177019,21.7626632 56.9302504,21.7626632 C57.7185861,21.7626632 58.5216334,21.4793032 59.3170278,20.9202761 C60.0732654,20.3893144 60.7872256,19.7615486 61.4394416,19.0542169 C62.0825927,18.3570714 62.647802,17.6622766 63.1197632,16.9892074 C63.5967769,16.3078754 63.9179067,15.8420195 64.1012077,15.5648566 C64.247804,15.3436819 64.2518163,15.0979322 64.1130959,14.8907902" id="Fill-7"></path>
                    </g>
                </g>
            </g>
        </g>
    </g>
</svg>