<?xml version="1.0" encoding="UTF-8" standalone="no"?>
<svg width="90px" height="38px" viewBox="0 0 90 38" version="1.1" xmlns="http://www.w3.org/2000/svg" xmlns:xlink="http://www.w3.org/1999/xlink">
    <!-- Generator: sketchtool 39.1 (31720) - http://www.bohemiancoding.com/sketch -->
    <title>2B157DAD-2E86-450A-9EE7-CA3FB26F5CF7</title>
    <desc>Created with sketchtool.</desc>
    <defs></defs>
    <g id="Restaurantes_Home" stroke="none" stroke-width="1" fill="none" fill-rule="evenodd">
        <g id="Restaurantes_home" transform="translate(-21.000000, -15.000000)" fill="#FD6250">
            <g id="Header" transform="translate(-22.000000, 0.000000)">
                <g id="Logo_Rappi" transform="translate(43.000000, 15.000000)">
                    <g id="logo-rappi">
                        <path d="M89.2492558,3.93913568 C89.2492558,6.06047898 87.4792536,7.78018206 85.2969679,7.78018206 C83.1139753,7.78018206 81.3441752,6.06047898 81.3441752,3.93913568 C81.3441752,1.81789052 83.1139753,0.0981874409 85.2969679,0.0981874409 C87.4792536,0.0981874409 89.2492558,1.81789052 89.2492558,3.93913568" id="Fill-4"></path>
                        <path d="M9.85124488,22.8366462 C9.66191553,23.4787995 9.49055986,24.1027009 9.33990419,24.69736 C9.15017095,25.4464735 8.9753821,26.1267007 8.81765814,26.7371585 C8.66205466,27.3353502 8.55239511,27.8165727 8.49100191,28.1678729 C8.36559016,28.7915781 7.94573341,29.1847792 7.27535608,29.3130333 C6.69807829,29.4238204 6.07788586,29.3777981 5.43850805,29.1758495 C4.80872293,28.9761579 4.23528222,28.6291753 3.73414008,28.1445183 C3.20835987,27.6358199 2.94148123,26.9959235 2.94148123,26.2426886 C2.94148123,25.6295814 3.09950812,24.6604637 3.42454874,23.2801873 C3.74060252,21.9341578 4.19782025,20.3371154 4.78347902,18.5339049 C5.3644929,16.7439418 6.069,14.7725389 6.87700714,12.6740596 C7.57202253,10.870751 8.35024186,9.0558632 9.19550901,7.26629258 C9.47238424,6.68007254 10.0441084,6.27646976 10.7035803,6.20208831 C12.1966063,6.03360156 13.4917199,6.07501182 14.5886184,6.32661345 C15.2493021,6.47802583 15.6046354,7.1767012 15.3275582,7.77901433 C14.6199209,9.31570764 13.9672143,10.8485739 13.3843828,12.340815 C12.9126246,13.5494645 12.4598498,14.7449648 12.0334296,15.9081808 C11.9914238,16.0225006 12.1117867,16.1294607 12.2253843,16.0787283 C12.7942811,15.8239865 13.3566145,15.5239094 13.9056191,15.1811463 C14.805918,14.6192621 15.6257393,13.9478665 16.3428684,13.1858982 C17.057574,12.4257943 17.6435357,11.5674638 18.0840924,10.6345555 C18.5200043,9.71185265 18.74104,8.70799744 18.74104,7.65066217 C18.74104,6.29118904 18.3536974,5.28733384 17.5901196,4.66725944 C16.817151,4.03992353 15.7281286,3.72198699 14.3535471,3.72198699 C12.8894002,3.72198699 11.550867,4.05964737 10.3745007,4.72564594 C9.16864949,5.40763945 8.12536909,6.2474237 7.27323559,7.22223286 C6.41595233,8.20175218 5.74042524,9.24917647 5.26594067,10.3353615 C4.796,11.4122244 4.55729356,12.3561231 4.55729356,13.1410534 C4.55729356,13.7041151 4.25164028,14.1105636 3.69667811,14.2855269 C3.21007646,14.4394906 2.67429967,14.4172154 2.12367945,14.2173275 C1.5939612,14.0252899 1.1034215,13.6473968 0.664985232,13.0938536 C0.223620672,12.5372684 -4.03902595e-05,11.7834448 -4.03902595e-05,10.8537747 C-4.03902595e-05,10.0422515 0.316316317,9.0860868 0.966801446,7.93062296 C1.60123145,6.80469582 2.53818449,5.70850163 3.75191179,4.67275464 C4.96382153,3.63847958 6.49400651,2.74089761 8.30015794,2.00571841 C10.1177196,1.26612342 12.218417,0.891174178 14.5434823,0.891174178 C15.8677779,0.891174178 17.1954058,1.04199778 18.4894087,1.33952359 C19.794216,1.63999325 20.9765399,2.09687984 22.0036642,2.69762291 C23.0433095,3.30543123 23.8970586,4.06877333 24.5409803,4.96664969 C25.1968171,5.88003036 25.528926,6.95120176 25.528926,8.15043094 C25.528926,9.44239161 25.2372074,10.6536906 24.6617472,11.7502773 C24.0907299,12.8370511 23.3058462,13.8293272 22.3284019,14.6999238 C21.3602474,15.563357 20.2126591,16.3254235 18.9173435,16.9645348 C17.8490211,17.4909945 16.7128431,17.9399327 15.5338515,18.3016346 C15.4589275,18.3245967 15.4318661,18.3622781 15.4352992,18.4384258 C15.460947,19.0099266 15.5029529,19.5731845 15.5611149,20.1174056 C15.6277588,20.7414051 15.7163145,21.3502928 15.8241564,21.9271907 C15.9302819,22.4942756 16.0577131,23.0468376 16.2028151,23.5696666 C16.315403,23.9741525 16.4409157,24.3684331 16.5758192,24.7415179 C16.6617495,24.9800684 16.7521227,25.212535 16.8444144,25.432343 C17.028594,25.873529 17.2319589,26.2954818 17.4484507,26.6871129 C17.6604996,27.07109 17.8906231,27.4358338 18.1324598,27.7711391 C18.3673291,28.0975147 18.6199702,28.4049515 18.8834157,28.6852067 C19.1395909,28.9573172 19.4106095,29.2086245 19.6896053,29.431867 C19.9616337,29.6496142 20.2480006,29.8462639 20.5412339,30.0167132 C20.8263891,30.1822561 21.1257819,30.3263088 21.4305264,30.4451425 C21.7310299,30.5619155 22.0424388,30.6558245 22.3554634,30.724122 C22.6682859,30.7924195 22.9923168,30.8372642 23.3184681,30.8575769 C23.6446195,30.877497 23.9838976,30.872983 24.322469,30.8436426 C24.666493,30.8143022 25.0180902,30.7587614 25.3687787,30.6787866 C25.7263334,30.5971436 26.0915624,30.4883191 26.4544688,30.3548642 C26.8261602,30.2183674 27.2022945,30.0535114 27.5730771,29.8650064 C27.7150488,29.7931763 27.8580304,29.7168323 28.000608,29.6367594 C28.4634804,29.3771112 29.053582,29.5008513 29.364789,29.9231967 C29.6759959,30.3454439 29.6066257,30.9283276 29.2044397,31.2704037 C29.0072342,31.4383017 28.809221,31.6016858 28.6124194,31.7591821 C28.1367232,32.1386453 27.6590074,32.4904362 27.1930047,32.8048401 C26.7491158,33.1042303 26.2990673,33.3811491 25.8548754,33.6278443 C25.6318202,33.7518788 25.3981626,33.8743433 25.1612737,33.9914107 C24.7045609,34.2164195 24.2419914,34.4149336 23.7870961,34.5817521 C23.3327057,34.7474913 22.8769016,34.8842825 22.4322049,34.9887894 C21.987811,35.0933944 21.5408928,35.1687572 21.1034663,35.2126206 C20.7922593,35.2435311 20.4803456,35.2591336 20.176005,35.2591336 C20.0529156,35.2591336 19.9300283,35.2566804 19.8070399,35.2515777 C19.3847598,35.2339145 18.9640952,35.1852428 18.5570624,35.1070343 C18.3549091,35.0684698 18.15215,35.0215643 17.9535309,34.9672992 C17.7616772,34.9157817 17.5644718,34.854157 17.3673673,34.7842895 C16.9880018,34.6499515 16.6126753,34.4844086 16.253303,34.2926654 C15.9000901,34.1044548 15.5538446,33.8866094 15.2244621,33.6453112 C14.9585932,33.4503298 14.6976721,33.2363114 14.449373,33.008555 C14.150586,32.7348744 13.8602811,32.4320497 13.5851224,32.1085198 C13.3142047,31.7897982 13.0540915,31.4450726 12.8120528,31.0835669 C12.5701152,30.722552 12.3409005,30.3381824 12.1302653,29.9407617 C11.9191252,29.5440279 11.7203041,29.1219769 11.5388509,28.6866786 C11.3596191,28.2567774 11.1912927,27.7991058 11.0395263,27.3266167 C10.8905872,26.8624686 10.7535633,26.3707464 10.6327964,25.8646974 C10.5127364,25.3595316 10.4082266,24.8351325 10.3215894,24.3060233 C10.244545,23.8386369 10.1792138,23.3531949 10.1273123,22.8603933 C10.1115601,22.7102566 9.89405855,22.691514 9.85124488,22.8366462" id="Fill-1"></path>
                        <path d="M70.5196563,14.4715688 C70.3959611,15.1466933 70.1993615,15.9251472 69.9357141,16.7850478 C69.670855,17.6431821 69.3319807,18.5484181 68.9318142,19.4667052 C68.4962053,20.3933333 68.0457529,21.2592197 67.59318,22.0402249 C67.1450501,22.8125949 66.6995455,23.4770234 66.2699951,24.0152585 C65.8511481,24.5395595 65.4634017,24.9271673 65.1166513,25.1677785 C64.8553263,25.3494145 64.7108301,25.3689421 64.6607462,25.3689421 C64.6376228,25.3689421 64.6188413,25.3654095 64.5987472,25.3564798 C64.5556306,25.3376391 64.4094178,25.2400993 64.3461061,24.7787969 C64.2869344,24.3563534 64.3185398,23.8017308 64.4396096,23.1293539 C64.5631028,22.43637 64.7592985,21.6515377 65.0233498,20.7962491 C65.2854826,19.9425306 65.6241549,19.037589 66.0303799,18.1065452 C66.4328689,17.1834498 66.8731227,16.321881 67.3393273,15.5454878 C67.8045221,14.7698797 68.2575998,14.1125164 68.6859385,13.5907668 C69.1020592,13.0815777 69.4909164,12.6997595 69.8416048,12.4560081 C70.1039395,12.2741759 70.2481328,12.2545502 70.2980147,12.2545502 C70.3212391,12.2545502 70.3408284,12.2583772 70.3582972,12.2662275 C70.4015148,12.2850682 70.5474246,12.3830005 70.61215,12.8444991 C70.6707159,13.2673351 70.6395144,13.8146962 70.5196563,14.4715688 M52.8224621,14.4716669 C52.698868,15.1470859 52.5023693,15.9255398 52.2387219,16.7850478 C51.9726511,17.6475979 51.6334739,18.5526377 51.234923,19.4667052 C50.7986072,20.3948052 50.3481548,21.2608879 49.8965917,22.0402249 C49.447654,22.8130855 49.0023514,23.4776121 48.572599,24.0152585 C48.1547618,24.5392651 47.7668134,24.9267748 47.4191542,25.1678767 C47.1582331,25.3494145 47.0140399,25.3689421 46.9641579,25.3689421 C46.9406306,25.3689421 46.9217482,25.3654095 46.901755,25.3564798 C46.8586384,25.3376391 46.7128295,25.2404918 46.6490129,24.7786006 C46.5902451,24.358316 46.6215476,23.803399 46.7422135,23.1293539 C46.8655047,22.438725 47.0621043,21.6539909 47.3264586,20.7962491 C47.5884904,19.9421381 47.9273646,19.0370984 48.3337916,18.1064471 C48.7372903,17.1810947 49.1771402,16.3195259 49.6417292,15.545586 C50.1087416,14.7690946 50.5616174,14.1113389 50.9883405,13.5909631 C51.4064806,13.0804983 51.7955398,12.6984838 52.1446126,12.45591 C52.4065434,12.2741759 52.5511406,12.2545502 52.6010225,12.2545502 C52.6244489,12.2545502 52.6438362,12.2583772 52.661406,12.2662275 C52.7047245,12.2850682 52.8510383,12.3830005 52.9153597,12.8444991 C52.9735217,13.2661575 52.9424212,13.8137149 52.8224621,14.4716669 M33.6749548,14.4306492 C33.5984152,15.1154885 33.4493752,15.8989469 33.2320756,16.7589456 C33.014473,17.6157061 32.7156861,18.5184889 32.3443986,19.4422712 C31.9742219,20.3616377 31.57971,21.2264448 31.1716674,22.0125527 C30.7717029,22.7803106 30.3671945,23.4353187 29.9692494,23.9594234 C29.581301,24.4692994 29.2168799,24.8491551 28.8855788,25.088785 C28.6402079,25.2667903 28.5046986,25.2859253 28.4579469,25.2859253 C28.4364391,25.2859253 28.4183644,25.2822946 28.3983713,25.2732667 C28.3534371,25.2539354 28.200358,25.153648 28.1204863,24.6850841 C28.0457643,24.2564586 28.0388979,23.7032097 28.0993824,23.0404494 C28.1609775,22.3664043 28.3019395,21.5922681 28.5181284,20.7394327 C28.7343172,19.8858123 29.0331042,18.9831277 29.4062092,18.0562053 C29.7815357,17.1249652 30.1761485,16.2602563 30.5796472,15.485335 C30.9777942,14.7181659 31.3827066,14.0551112 31.7838828,13.5149135 C32.1698117,12.9938508 32.533728,12.6080093 32.8646252,12.3679868 C33.109996,12.1906685 33.2458082,12.1714353 33.2929639,12.1714353 C33.3150775,12.1714353 33.3331522,12.175066 33.35052,12.1826219 C33.3972717,12.2032289 33.557823,12.3074415 33.6558704,12.7821875 C33.7436182,13.2038459 33.7498787,13.7584685 33.6749548,14.4306492 M88.3666983,19.4319677 C88.1744407,19.1416053 87.8034561,18.9538854 87.4216672,18.9538854 C87.0593666,18.9538854 86.734124,19.1187413 86.5296483,19.4066506 C86.2952838,19.7362644 86.0061906,20.1276992 85.6701436,20.5698665 C85.3013805,21.054916 84.9033345,21.5200454 84.4872139,21.9520074 C84.0738196,22.3820067 83.6709267,22.7558766 83.2893398,23.0632152 C82.8949289,23.3812499 82.6396624,23.4479773 82.4953682,23.4479773 C82.3941906,23.4479773 82.206174,23.4479773 82.1634613,22.9644979 C82.1192339,22.4582526 82.1963793,21.7999081 82.3929789,21.0077162 C82.5939205,20.1937398 82.8850333,19.2902701 83.2583402,18.3222318 C83.6386145,17.337021 84.0206054,16.3960662 84.3928016,15.5255677 C84.7797403,14.6207242 85.1122531,13.8684707 85.4086167,13.2258267 C85.7042734,12.5861266 85.8894627,12.1698652 85.9600447,11.9878367 C86.1965297,11.4607882 86.1100945,10.9413937 85.71013,10.4849978 C85.3429825,10.0666757 84.851534,9.7735657 84.250224,9.61351801 C83.6628487,9.45719921 83.0224611,9.44817138 82.3549111,9.58653266 C81.6402055,9.7350993 81.0735301,10.1368376 80.6708392,10.779776 C80.3159098,11.3442115 79.8541482,12.2309993 79.2984792,13.4154111 C78.7406897,14.6025705 78.2018836,15.9207315 77.6968035,17.3330959 C77.3903424,18.1896601 77.1075096,19.0605511 76.8517382,19.9371336 C76.4259239,21.395324 75.5500612,22.691308 74.3424934,23.6502203 C73.9102166,23.9935721 73.4552204,24.3172001 72.9821494,24.6178661 C72.7729279,24.7511246 72.5622927,24.8744723 72.3510516,24.9874182 C72.2842058,25.023137 72.2145326,24.9447323 72.2606784,24.8859533 C72.6255034,24.4189595 72.9844719,23.9143824 73.3345545,23.3750678 C74.0561264,22.2648412 74.7134779,20.9351011 75.2886352,19.4231361 C75.8966096,17.8221686 76.2781966,16.3620156 76.4225917,15.0825173 C76.5678957,13.7874165 76.5174079,12.6572698 76.2715322,11.7234784 C76.0172755,10.7594634 75.5727807,10.0010277 74.949357,9.4691709 C74.3042236,8.91974907 73.506516,8.64106395 72.5795595,8.64106395 C71.4863972,8.64106395 70.4815885,8.92220228 69.5933057,9.4767268 C68.986442,9.85540492 68.4242096,10.2785353 67.9147875,10.7399358 C67.8723777,10.7782059 67.8375411,10.7735939 67.8067435,10.7262959 C67.6935498,10.5511364 67.5410766,10.3860842 67.3495258,10.231728 C66.9184608,9.88572665 66.3999508,9.65394698 65.8073247,9.54306171 C65.2126791,9.43335397 64.6086428,9.47309604 64.0195509,9.66101224 C63.3894628,9.86207767 62.9194212,10.2778484 62.6224518,10.8970396 C62.0526462,12.0898904 61.4510333,13.4821385 60.8338701,15.035023 C60.2183226,16.5856506 59.6182243,18.2065382 59.0492265,19.8528411 C58.9863187,20.0354584 58.9236128,20.2181738 58.8611089,20.400791 C58.3808687,21.8047164 57.4788532,23.0368186 56.2712854,23.9380314 C55.9529092,24.1756988 55.6236276,24.4027682 55.2851572,24.6178661 C55.0759357,24.7511246 54.8650985,24.8744723 54.6536555,24.9875164 C54.5868097,25.0232352 54.5171365,24.9449286 54.5633833,24.8859533 C54.9282083,24.4192538 55.2868738,23.9147749 55.6369564,23.3752641 C56.3584274,22.2658225 57.0159808,20.9362786 57.591845,19.4231361 C58.1996174,17.8220705 58.5811034,16.3618193 58.7253976,15.0825173 C58.8710045,13.7868277 58.8205167,12.656681 58.57454,11.7234784 C58.3207882,10.7598559 57.8761924,10.0014202 57.2525668,9.4691709 C56.6071304,8.91965094 55.8095238,8.64106395 54.8831732,8.64106395 C53.789102,8.64106395 52.7843943,8.92220228 51.8963135,9.47653054 C51.2891469,9.85540492 50.7268135,10.2785353 50.2177953,10.7396414 C50.1755875,10.7778134 50.1407509,10.7734958 50.1101552,10.7259034 C49.9967596,10.5510383 49.8440844,10.3859861 49.6522307,10.2319242 C49.2216705,9.88582478 48.7029586,9.65414324 48.1097267,9.54306171 C47.515182,9.43315771 46.9106408,9.47309604 46.3227606,9.66101224 C45.6934804,9.86168515 45.2230348,10.2773577 44.9248537,10.8972359 C44.3549472,12.0919511 43.7532333,13.4841011 43.1370799,15.0351212 C42.5588933,16.4923303 41.996358,18.0046878 41.4629036,19.5353952 C41.0604147,20.6906628 40.457691,21.6187628 39.5582,22.4690468 C39.325855,22.6884622 39.0994676,22.8872707 38.8807543,23.0632152 C38.4863434,23.3812499 38.231279,23.4479773 38.0867828,23.4479773 C37.9856052,23.4479773 37.7972856,23.4479773 37.7551788,22.9642035 C37.7106485,22.4591358 37.7877939,21.8009875 37.9843935,21.0077162 C38.1849311,20.1941323 38.4762459,19.2904663 38.8497548,18.3222318 C39.2258891,17.3471283 39.60788,16.4060753 39.9842162,15.5255677 C40.3641876,14.6377986 40.7061921,13.8639568 41.0002332,13.2258267 C41.3014436,12.573468 41.4816851,12.1680989 41.5506515,11.9876405 C41.7883481,11.4607882 41.701913,10.9413937 41.3018475,10.4849978 C40.9333873,10.0659888 40.4334569,9.77238816 39.8145771,9.61253673 C39.2105408,9.45700295 38.5716679,9.44836764 37.920072,9.5870233 C37.2225322,9.73598246 36.6644398,10.1374264 36.2622538,10.7785985 C36.1817762,10.9055768 36.0979664,11.0456063 36.0090069,11.2010419 C35.9775025,11.2565827 35.8920771,11.2441204 35.8785463,11.1821031 C35.8020068,10.8318823 35.6785136,10.5008946 35.5096823,10.1932616 C35.2566373,9.73480492 34.8821186,9.35867813 34.3966277,9.07498846 C33.9033617,8.78707925 33.2772117,8.64106395 32.5358485,8.64106395 C30.787758,8.64106395 29.0147266,9.42511117 27.2663333,10.9715192 C25.5499492,12.4901569 24.1273033,14.9125586 23.0366653,18.1737633 C22.5248197,19.7462735 22.2247201,21.1996557 22.1442425,22.4940696 C22.0631591,23.8039878 22.1720108,24.9345269 22.4670616,25.8535991 C22.7712003,26.8013247 23.2567922,27.549555 23.9111144,28.0769961 C24.5856317,28.6221984 25.3963652,28.8986265 26.3202924,28.8986265 C27.0040995,28.8986265 27.6563012,28.7840124 28.2591258,28.5577279 C28.8433709,28.3383124 29.3851053,28.0562909 29.8690816,27.7199062 C30.2415807,27.4611412 30.5883311,27.1683256 30.9032742,26.8463657 C31.127945,26.6169412 31.5235676,26.7097708 31.6160613,27.0131843 C31.7195613,27.3531998 31.8639565,27.6558283 32.04854,27.9192053 C32.5052528,28.5690127 33.2281375,28.8986265 34.196595,28.8986265 C35.2696632,28.8986265 36.3540407,28.5075842 37.4191318,27.7362937 C37.91573,27.3772413 38.400918,26.985512 38.8708587,26.5643443 C38.9765802,26.4697483 39.1430891,26.5711151 39.1015881,26.7047662 C38.8271363,27.5917503 38.5807557,28.413577 38.3589122,29.1846713 C37.9847974,30.4807534 37.6804568,31.597162 37.4542713,32.5029868 C37.1515463,33.7180147 37.1124688,34.0483154 37.1124688,34.200611 C37.1124688,34.9455049 37.3505693,35.5803967 37.82051,36.0883101 C38.2744965,36.576696 38.8004787,36.9271131 39.3856326,37.1299448 C39.7705517,37.2628109 40.1464841,37.330029 40.5019184,37.330029 C40.6987199,37.330029 40.8927951,37.3093239 41.0790952,37.2685024 C41.498447,37.1761634 42.0306897,36.9045435 42.1856873,36.1339399 L42.1883127,36.1190244 C42.2500088,35.7132628 42.3675445,35.1633503 42.5379913,34.4846931 C42.7149007,33.7803263 42.9298778,32.9787141 43.1771672,32.101641 C43.4211244,31.2293762 43.7001201,30.2577071 44.0295027,29.1311912 C44.181572,28.6105211 44.3448496,28.0649262 44.5184267,27.4981357 C44.5539702,27.3828346 44.7141176,27.3644846 44.7760156,27.468599 C44.85306,27.5982268 44.9390913,27.7248126 45.0337055,27.8477677 C45.5676647,28.5431067 46.4193943,28.8965658 47.5656699,28.8986265 C47.7957934,28.9086356 48.0269266,28.9138365 48.2527082,28.9138365 L48.2531121,28.9138365 C49.9385976,28.9138365 51.5215929,28.6326981 52.9577695,28.0783699 C54.3302305,27.5493588 55.5874783,26.9028878 56.7075002,26.1544612 C56.8173617,26.0809629 56.9611511,26.1831148 56.9224774,26.3073455 C56.6009709,27.336616 56.3108679,28.3001404 56.0559044,29.1847694 C55.6797701,30.4900756 55.3752275,31.6063861 55.1508596,32.5030849 C54.8485385,33.7201735 54.809461,34.0496892 54.809461,34.200611 C54.809461,34.9453086 55.0474606,35.5800042 55.5177042,36.0883101 C55.9714887,36.5769904 56.4978748,36.9274075 57.0828267,37.1299448 C57.4679478,37.2626147 57.8430724,37.330029 58.1986076,37.330029 C58.3953082,37.330029 58.5897873,37.3093239 58.7766932,37.2685024 C59.1959441,37.1761634 59.7278838,36.9044454 59.8830834,36.1339399 L59.8859107,36.1188281 C59.9472029,35.7116927 60.0651425,35.1618784 60.2354884,34.4844969 C60.4119939,33.7805226 60.6265671,32.9790085 60.8739574,32.101641 C61.1194292,31.2255492 61.3985259,30.2540764 61.7268988,29.1311912 C61.87917,28.6094416 62.0424477,28.0638468 62.2156209,27.4978413 C62.2508614,27.3824421 62.4110088,27.364092 62.4731088,27.4681083 C62.5502542,27.5980305 62.6364874,27.7246164 62.7313035,27.8476696 C63.2645559,28.5430086 64.1163865,28.8965658 65.262965,28.8986265 C65.4931895,28.9086356 65.7241208,28.9138365 65.9501043,28.9138365 L65.9503062,28.9138365 C67.6353879,28.9138365 69.2185851,28.6326981 70.6551656,28.0783699 C72.2631018,27.4587861 73.7161414,26.678664 74.974399,25.7594938 C75.1883664,25.6030768 75.3968811,25.4448936 75.5998422,25.2851403 C75.6928407,25.2119364 75.8316822,25.2776825 75.8295618,25.394063 C75.828754,25.4463655 75.82835,25.4982755 75.82835,25.5496949 C75.82835,26.5273498 76.0397931,27.3245462 76.4571254,27.9192053 C76.9138383,28.5690127 77.6368239,28.8986265 78.6051804,28.8986265 C79.676532,28.8986265 80.7678768,28.5082711 81.8488212,27.7381581 C82.8765513,27.0067078 83.8468263,26.1419008 84.7331906,25.1674841 C85.6072358,24.2070999 86.3753575,23.2499539 87.0167549,22.3227371 C87.6650185,21.3841374 88.1014353,20.7423766 88.3505422,20.3605583 C88.5497672,20.0558691 88.5552198,19.7173256 88.3666983,19.4319677" id="Fill-7"></path>
                    </g>
                </g>
            </g>
        </g>
    </g>
</svg>