<?xml version="1.0" encoding="UTF-8" standalone="no"?>
<svg width="22px" height="22px" viewBox="0 0 22 22" version="1.1" xmlns="http://www.w3.org/2000/svg" xmlns:xlink="http://www.w3.org/1999/xlink">
    <!-- Generator: sketchtool 39.1 (31720) - http://www.bohemiancoding.com/sketch -->
    <title>7C3233A1-5301-457B-B36A-2DBDA1DD4CA1</title>
    <desc>Created with sketchtool.</desc>
    <defs></defs>
    <g id="Desktop" stroke="none" stroke-width="1" fill="none" fill-rule="evenodd">
        <g id="Login-register" transform="translate(-665.000000, -391.000000)" fill="#BBBBBB">
            <g id="modal-_morning" transform="translate(245.000000, 175.000000)">
                <g id="Group-2" transform="translate(420.000000, 216.000000)">
                    <g id="_ico_mail_gris">
                        <g id="Layer_1" transform="translate(1.000000, 3.000000)">
                            <path d="M17.2727273,0 L2.72727273,0 C1.22113636,0 0,1.22113636 0,2.72727273 L0,13.6363636 C0,15.1425 1.22113636,16.3636364 2.72727273,16.3636364 L17.2727273,16.3636364 C18.7788636,16.3636364 20,15.1425 20,13.6363636 L20,2.72727273 C20,1.22113636 18.7788636,0 17.2727273,0 L17.2727273,0 Z M17.2727273,1.81818182 C17.3777273,1.81818182 17.4786364,1.83590909 17.5722727,1.86886364 L10,7.92681818 L2.42772727,1.86886364 C2.52136364,1.83590909 2.62227273,1.81818182 2.72727273,1.81818182 L17.2727273,1.81818182 L17.2727273,1.81818182 Z M17.2727273,14.5454545 L2.72727273,14.5454545 C2.22522727,14.5454545 1.81818182,14.1384091 1.81818182,13.6363636 L1.81818182,3.70954545 L9.43204545,9.80068182 C9.59795455,9.93363636 9.79886364,10 10,10 C10.2011364,10 10.4020455,9.93363636 10.5679545,9.80068182 L18.1818182,3.70954545 L18.1818182,13.6363636 C18.1818182,14.1384091 17.7747727,14.5454545 17.2727273,14.5454545 L17.2727273,14.5454545 Z" id="Shape"></path>
                        </g>
                    </g>
                </g>
            </g>
        </g>
    </g>
</svg>