<?xml version="1.0" encoding="UTF-8" standalone="no"?>
<svg width="34px" height="36px" viewBox="0 0 34 36" version="1.1" xmlns="http://www.w3.org/2000/svg" xmlns:xlink="http://www.w3.org/1999/xlink">
    <!-- Generator: sketchtool 39 (31667) - http://www.bohemiancoding.com/sketch -->
    <title>9F93C16B-D822-4D77-B50E-02258B567437</title>
    <desc>Created with sketchtool.</desc>
    <defs></defs>
    <g id="iconos" stroke="none" stroke-width="1" fill="none" fill-rule="evenodd" stroke-linecap="round" stroke-linejoin="round">
        <g transform="translate(-701.000000, -364.000000)" id="mascotas" stroke="#8DBA56" stroke-width="1.4">
            <g transform="translate(701.000000, 364.000000)">
                <path d="M5.375,22.9681 C6.202,24.9951 11.077,26.5541 16.985,26.5541 C22.926,26.5541 27.824,24.9771 28.609,22.9331 L5.375,22.9681 Z M10.872,17.3371 C10.593,16.9591 10.443,16.4741 10.5,15.9621 C10.606,14.9871 11.4,14.2661 12.319,14.2661 C12.387,14.2661 12.457,14.2701 12.526,14.2791 C13.326,14.3741 13.925,14.9961 14.09,15.7721 C14.313,15.6711 14.558,15.6131 14.816,15.6131 C15.741,15.6131 16.474,16.3361 16.6,17.2661 C16.84,17.2781 17.067,17.3311 17.274,17.4311 C17.568,16.7811 18.192,16.3251 18.922,16.3251 C19.122,16.3251 19.305,16.3831 19.487,16.4441 C19.778,15.7941 20.402,15.3391 21.134,15.3391 C22.148,15.3391 22.968,16.1931 22.968,17.2491 C22.968,17.3891 22.918,17.5111 22.891,17.6431 C23.328,17.7891 23.685,18.0791 23.904,18.4721 C24.822,18.4801 25.543,19.1971 25.671,20.1151 C25.702,20.2011 25.721,20.2901 25.721,20.3791 C25.721,21.7491 21.744,22.8631 16.838,22.8631 C11.932,22.8631 7.956,21.7491 7.955,20.3791 C7.955,20.2931 7.97,20.2061 8.002,20.1221 C8.118,19.2691 8.759,18.6081 9.588,18.5101 C9.797,17.9171 10.275,17.4891 10.872,17.3371 L10.872,17.3371 Z" id="Stroke-1"></path>
                <path d="M9.9665,16.5112 C6.9435,17.3292 4.0185,18.8332 3.4845,20.5332 L0.7495,27.8762 L0.6995,28.1552 C0.6995,31.8992 7.5565,34.6162 17.0035,34.6162 C26.4495,34.6162 33.3065,31.8992 33.3065,28.1552 L30.5515,20.6252 C30.1045,18.7572 26.4945,17.6292 23.1545,16.8232" id="Stroke-3"></path>
                <path d="M18.9318,4.6466 C18.9318,5.3736 18.3428,5.9626 17.6158,5.9626 C16.8898,5.9626 16.3008,5.3736 16.3008,4.6466 C16.3008,3.9196 16.8898,3.3306 17.6158,3.3306 C18.3428,3.3306 18.9318,3.9196 18.9318,4.6466 L18.9318,4.6466 Z" id="Stroke-5"></path>
                <path d="M27.0957,2.0155 C27.0957,2.7425 26.5067,3.3315 25.7797,3.3315 C25.0537,3.3315 24.4647,2.7425 24.4647,2.0155 C24.4647,1.2885 25.0537,0.6995 25.7797,0.6995 C26.5067,0.6995 27.0957,1.2885 27.0957,2.0155 L27.0957,2.0155 Z" id="Stroke-7"></path>
                <path d="M17.8226,11.0436 C17.8226,11.6846 17.3026,12.2046 16.6616,12.2046 C16.0206,12.2046 15.5016,11.6846 15.5016,11.0436 C15.5016,10.4026 16.0206,9.8826 16.6616,9.8826 C17.3026,9.8826 17.8226,10.4026 17.8226,11.0436 L17.8226,11.0436 Z" id="Stroke-9"></path>
                <path d="M20.6342,8.0643 C20.6342,8.5413 20.2472,8.9283 19.7702,8.9283 C19.2932,8.9283 18.9062,8.5413 18.9062,8.0643 C18.9062,7.5873 19.2932,7.2003 19.7702,7.2003 C20.2472,7.2003 20.6342,7.5873 20.6342,8.0643 L20.6342,8.0643 Z" id="Stroke-11"></path>
                <path d="M24.6158,12.5998 C24.4328,13.3028 23.7148,13.7248 23.0118,13.5418 C22.3088,13.3588 21.8868,12.6408 22.0698,11.9378 C22.2518,11.2348 22.9708,10.8128 23.6738,10.9958 C24.3768,11.1788 24.7988,11.8968 24.6158,12.5998 L24.6158,12.5998 Z" id="Stroke-13"></path>
                <path d="M22.5946,4.1307 C22.5946,4.5577 22.2486,4.9047 21.8206,4.9047 C21.3936,4.9047 21.0466,4.5577 21.0466,4.1307 C21.0466,3.7037 21.3936,3.3567 21.8206,3.3567 C22.2486,3.3567 22.5946,3.7037 22.5946,4.1307 L22.5946,4.1307 Z" id="Stroke-15"></path>
            </g>
        </g>
    </g>
</svg>