<?xml version="1.0" encoding="UTF-8" standalone="no"?>
<svg width="26px" height="40px" viewBox="0 0 26 40" version="1.1" xmlns="http://www.w3.org/2000/svg" xmlns:xlink="http://www.w3.org/1999/xlink">
    <!-- Generator: sketchtool 39 (31667) - http://www.bohemiancoding.com/sketch -->
    <title>249455EF-9210-4252-B06A-EA9A17D0DF50</title>
    <desc>Created with sketchtool.</desc>
    <defs></defs>
    <g id="iconos" stroke="none" stroke-width="1" fill="none" fill-rule="evenodd" stroke-linecap="round" stroke-linejoin="round">
        <g transform="translate(-560.000000, -362.000000)" id="farmacia" stroke="#D5A74F">
            <g transform="translate(560.000000, 362.000000)">
                <path d="M9.9002,4.6429 L9.9002,4.6429 C9.1742,4.6429 8.5862,4.0549 8.5862,3.3289 L8.5862,2.0139 C8.5862,1.2879 9.1742,0.6999 9.9002,0.6999 L15.1572,0.6999 C15.8832,0.6999 16.4722,1.2879 16.4722,2.0139 L16.4722,3.3289 C16.4722,4.0549 15.8832,4.6429 15.1572,4.6429 M15.1572,6.9209 L15.1572,8.2799 C15.1572,10.9359 16.1842,13.4829 18.0122,15.3609 L21.0152,18.4479 C23.1552,20.6469 24.3572,23.6289 24.3572,26.7389 L24.3572,33.4689 C24.3572,36.4209 22.0282,38.8149 19.1552,38.8149 L5.9022,38.8149 C3.0292,38.8149 0.7002,36.4209 0.7002,33.4689 L0.7002,26.7709 C0.7002,23.6719 1.8942,20.6989 4.0202,18.5019 L7.0642,15.3579 C8.8802,13.4809 9.9002,10.9419 9.9002,8.2949 L9.9002,6.9199" id="Stroke-1" stroke-width="1.4"></path>
                <polyline id="Stroke-3" stroke-width="1.4" points="9.9002 4.6429 10.5572 4.6429 12.5292 4.6429 15.1572 4.6429"></polyline>
                <polygon id="Stroke-5" stroke-width="1.4" points="24.2872 34.4646 0.9222 34.4646 0.9222 24.8556 24.0842 24.9266"></polygon>
                <path d="M12.2786,28.171 L12.2786,31.577" id="Stroke-7"></path>
                <path d="M14.1848,29.9835 L10.4658,29.9835" id="Stroke-9"></path>
            </g>
        </g>
    </g>
</svg>