<?xml version="1.0" encoding="UTF-8" standalone="no"?>
<svg width="39px" height="15px" viewBox="0 0 39 15" version="1.1" xmlns="http://www.w3.org/2000/svg" xmlns:xlink="http://www.w3.org/1999/xlink">
    <!-- Generator: Sketch 39.1 (31720) - http://www.bohemiancoding.com/sketch -->
    <title>svg-moustache</title>
    <desc>Created with Sketch.</desc>
    <defs></defs>
    <g id="Page-1" stroke="none" stroke-width="1" fill="none" fill-rule="evenodd">
        <g id="modal_selectAddress-Big" transform="translate(-819.000000, -251.000000)" fill="#FFFFFF">
            <g id="container" transform="translate(245.000000, 86.000000)">
                <g id="card" transform="translate(288.000000, 131.000000)">
                    <g id="svg-moustache" transform="translate(286.000000, 34.000000)">
                        <g id="Layer_1">
                            <path d="M11.401,14.9663158 C10.1183333,14.9663158 8.87575,14.78 7.709,14.4115789 C5.69725,13.7768421 4.02783333,12.5852632 2.74841667,10.8715789 C1.79075,9.58947368 1.14183333,8.16736842 0.817916667,6.64631579 L0.804916667,6.57263158 C0.699833333,5.81368421 0.606666667,5.08210526 0.606666667,4.46105263 L0.606666667,2.16526316 L2.40933333,3.64947368 C2.52958333,3.75052632 2.67583333,3.90526316 3.00516667,4.26210526 C3.1655,4.43578947 3.32258333,4.60947368 3.40058333,4.68105263 C4.15241667,5.30421053 4.83275,5.61578947 5.46,5.61578947 C6.04066667,5.61578947 6.67766667,5.35578947 7.40675,4.82105263 C7.81408333,4.52315789 8.20191667,4.19473684 8.6125,3.84736842 C9.04691667,3.48105263 9.49541667,3.10210526 9.97858333,2.75052632 C10.66975,2.24736842 11.4865833,1.68 12.4236667,1.30736842 C14.0540833,0.658947368 15.821,0.804210526 17.4135,1.72 C18.1718333,2.15578947 18.8619167,2.67052632 19.5281667,3.16842105 L19.5541667,3.18842105 L19.5790833,3.16842105 C20.2334167,2.65578947 20.9094167,2.12421053 21.658,1.67052632 C23.2299167,0.716842105 24.9881667,0.529473684 26.6359167,1.14 C27.5805833,1.48947368 28.4115,2.03894737 29.11675,2.52526316 C29.6075,2.86421053 30.0646667,3.23263158 30.5066667,3.58736842 C30.927,3.92526316 31.3245833,4.24526316 31.7384167,4.53368421 C32.4620833,5.03789474 33.0893333,5.28315789 33.657,5.28315789 C34.3080833,5.28315789 34.9765,4.96526316 35.75975,4.28315789 L38.5298333,1.89052632 L38.0163333,4.86315789 C37.9123333,5.46315789 37.7541667,6.06105263 37.5450833,6.64210526 C37.232,8.00736842 36.6480833,9.29894737 35.8095833,10.4821053 C34.5724167,12.2263158 32.9344167,13.4568421 30.9389167,14.1378947 C29.6865833,14.5652632 28.3605833,14.7831579 26.9955833,14.7831579 C23.8019167,14.7831579 21.04375,13.6284211 19.3873333,11.6789474 C17.7005833,13.7178947 14.7593333,14.9663158 11.401,14.9663158 L11.401,14.9663158 Z M3.211,7.14 C3.50241667,8.02105263 3.93466667,8.83894737 4.51966667,9.62315789 C5.52066667,10.9652632 6.82066667,11.8957895 8.38391667,12.3884211 C9.31883333,12.6831579 10.3620833,12.8389474 11.3999167,12.8389474 C14.6336667,12.8389474 17.4308333,11.3947368 18.3614167,9.24631579 L19.3375,6.99368421 L20.3688333,9.22315789 C21.3340833,11.3084211 23.9351667,12.6557895 26.9966667,12.6557895 C28.0973333,12.6557895 29.2099167,12.4747368 30.2130833,12.1315789 C31.76225,11.6021053 33.0384167,10.6410526 34.0069167,9.27578947 C34.489,8.59578947 34.8584167,7.89473684 35.1238333,7.15368421 C33.6169167,7.68631579 32.097,7.40105263 30.46225,6.26210526 C29.9866667,5.93052632 29.5414167,5.57263158 29.11025,5.22631579 C28.6801667,4.88 28.2728333,4.55263158 27.8470833,4.25894737 C27.2523333,3.84842105 26.5600833,3.38842105 25.8559167,3.12736842 C24.8440833,2.75263158 23.8073333,2.87368421 22.8171667,3.47473684 C22.18125,3.86 21.5854167,4.32842105 20.9538333,4.82315789 L20.5280833,5.15578947 C20.397,5.25578947 20.0676667,5.50736842 19.5996667,5.51578947 L19.5585,5.51578947 C19.0915833,5.51578947 18.7579167,5.27263158 18.6333333,5.18105263 L18.1935,4.85473684 C17.55,4.37473684 16.94225,3.92105263 16.2976667,3.55052632 C15.2945,2.97368421 14.2534167,2.87789474 13.2524167,3.27578947 C12.5525833,3.55368421 11.87225,4.02947368 11.2883333,4.45368421 C10.8690833,4.75789474 10.4704167,5.09578947 10.0479167,5.45263158 C9.6265,5.80842105 9.19208333,6.17578947 8.72408333,6.51894737 C6.81525,7.92105263 5.02991667,8.11894737 3.211,7.14 L3.211,7.14 Z" id="Shape"></path>
                        </g>
                    </g>
                </g>
            </g>
        </g>
    </g>
</svg>