<?xml version="1.0" encoding="UTF-8" standalone="no"?>
<svg width="25px" height="25px" viewBox="0 0 32 32" version="1.1" xmlns="http://www.w3.org/2000/svg" xmlns:xlink="http://www.w3.org/1999/xlink">
    <!-- Generator: Sketch 39.1 (31720) - http://www.bohemiancoding.com/sketch -->
    <title>icon</title>
    <desc>Created with Sketch.</desc>
    <defs></defs>
    <g id="Page-1" stroke="none" stroke-width="1" fill="none" fill-rule="evenodd">
        <g id="modal_selectAddress-Big" transform="translate(-820.000000, -243.000000)" fill="#44d2d4">
            <g id="container" transform="translate(245.000000, 86.000000)">
                <g id="card" transform="translate(288.000000, 131.000000)">
                    <g id="icon" transform="translate(287.000000, 26.000000)">
                        <path fill="#44d2d4" d="M10.798993,9.29432168 L7.24878322,9.29432168 C6.76766434,9.29432168 6.43088112,9.62998601 6.43088112,10.1122238 C6.43088112,10.5933427 6.76766434,10.9301259 7.24878322,10.9301259 L10.798993,10.9301259 C11.2801119,10.9301259 11.6168951,10.5933427 11.6168951,10.1122238 C11.6168951,9.62998601 11.2801119,9.29432168 10.798993,9.29432168" id="Fill-5"></path>
                        <path fill="#44d2d4" d="M11.4802799,19.4522039 L5.45406093,19.4522039 C4.90366285,19.4522039 4.5183842,19.8374825 4.5183842,20.3866006 L4.5183842,30.1286465 L1.87135346,30.1286465 L1.87135346,1.87146534 L15.0629873,1.87146534 L15.0629873,30.1286465 L12.4159566,30.1286465 L12.4159566,20.3866006 C12.4159566,19.8374825 12.0306779,19.4522039 11.4802799,19.4522039 L11.4802799,19.4522039 Z M6.38973766,30.1286465 L10.5446031,30.1286465 L10.5446031,21.3235573 L6.38973766,21.3235573 L6.38973766,30.1286465 L6.38973766,30.1286465 Z M26.5445472,20.3699607 L20.5183283,20.3699607 C19.9666502,20.3699607 19.5826515,20.7539593 19.5826515,21.3043574 L19.5826515,30.1286465 L16.9343408,30.1286465 L16.9343408,11.3024724 L30.1272547,11.3024724 L30.1272547,30.1286465 L27.4802239,30.1286465 L27.4802239,21.3043574 C27.4802239,20.7539593 27.0949453,20.3699607 26.5445472,20.3699607 L26.5445472,20.3699607 Z M21.455285,30.1286465 L25.6101505,30.1286465 L25.6101505,22.2413141 L21.455285,22.2413141 L21.455285,30.1286465 L21.455285,30.1286465 Z M16.9343408,9.43111891 L16.9343408,0.935788617 C16.9343408,0.385390541 16.5490621,0.000111888112 15.9986641,0.000111888112 L0.934396733,0.000111888112 C0.383998657,0.000111888112 0,0.385390541 0,0.935788617 L0,31.0643233 C0,31.6147213 0.383998657,32 0.934396733,32 L31.0642114,32 C31.6146095,32 31.9998881,31.6147213 31.9998881,31.0643233 L31.9998881,10.3667956 C31.9998881,9.81639757 31.6146095,9.43111891 31.0642114,9.43111891 L16.9343408,9.43111891 Z" id="Fill-1"></path>
                    </g>
                </g>
            </g>
        </g>
    </g>
</svg>
