<?xml version="1.0" encoding="UTF-8" standalone="no"?>
<svg width="22px" height="22px" viewBox="0 0 22 22" version="1.1" xmlns="http://www.w3.org/2000/svg" xmlns:xlink="http://www.w3.org/1999/xlink">
    <!-- Generator: sketchtool 39.1 (31720) - http://www.bohemiancoding.com/sketch -->
    <title>D0C20E08-1E08-48D9-BC89-6C4442084C16</title>
    <desc>Created with sketchtool.</desc>
    <defs></defs>
    <g id="Desktop" stroke="none" stroke-width="1" fill="none" fill-rule="evenodd">
        <g id="Login-register" transform="translate(-1913.000000, -441.000000)" fill="#FD6250">
            <g id="modal-_morning" transform="translate(1195.000000, 174.000000)">
                <g id="Group-5" transform="translate(420.000000, 267.000000)">
                    <g id="ojorojo" transform="translate(298.000000, 0.000000)">
                        <path d="M21.8225872,14.9021785 L19.7055413,12.702464 C19.9616697,12.2880645 20.1851009,11.8524837 20.369578,11.3965604 C20.4989541,11.0763236 20.3544404,10.7074326 20.0460367,10.572585 C19.737633,10.4381568 19.3828073,10.5885234 19.2532294,10.9087602 C18.0266789,13.9397903 14.831633,15.9761358 11.3027523,15.9761358 C7.77387156,15.9761358 4.57882569,13.9397903 3.35227523,10.9087602 C3.22289908,10.5887331 2.86807339,10.4383665 2.55946789,10.572585 C2.25126606,10.7074326 2.10634862,11.0763236 2.23592661,11.3965604 C2.36449541,11.7144904 2.5120367,12.0225636 2.67633028,12.3201511 C2.64968807,12.3400742 2.62324771,12.3608361 2.59943119,12.3855826 L0.177412844,14.9021785 C-0.0591376147,15.1477563 -0.0591376147,15.5462173 0.177412844,15.7917951 C0.295486239,15.9146889 0.450495413,15.9761358 0.605504587,15.9761358 C0.760311927,15.9761358 0.915522936,15.9146889 1.03359633,15.7917951 L3.36055046,13.3739756 C3.90207339,14.0924638 4.55097248,14.7300014 5.28222018,15.2696015 L3.96726606,18.1540398 C3.82416514,18.4679852 3.95313761,18.8431677 4.2552844,18.9918565 C4.33904587,19.0329609 4.42724771,19.0526743 4.51423853,19.0526743 C4.74089908,19.0526743 4.95827523,18.9197141 5.06181651,18.6925913 L6.31783486,15.937548 C7.45880734,16.5769731 8.74207339,17.0012292 10.0917431,17.1614525 L10.0917431,20.3801786 C10.0917431,20.7276786 10.3628073,21.0093276 10.6972477,21.0093276 C11.0316881,21.0093276 11.3027523,20.7276786 11.3027523,20.3801786 L11.3027523,17.2344337 C12.5508991,17.2344337 13.7637248,17.0068915 14.8849174,16.5885075 L16.1310459,19.3217403 C16.2343853,19.5488631 16.4519633,19.6818233 16.6786239,19.6818233 C16.7654128,19.6818233 16.8536147,19.6621099 16.9373761,19.6210055 C17.2395229,19.4723166 17.3686972,19.0971341 17.2253945,18.7831888 L15.998844,16.0929478 C17.1462752,15.4986117 18.1613028,14.6920427 18.9716697,13.7191687 L20.9664037,15.7917951 C21.0846789,15.9146889 21.2394862,15.9761358 21.3944954,15.9761358 C21.5493028,15.9761358 21.7043119,15.9146889 21.8225872,15.7917951 C22.0591376,15.5462173 22.0591376,15.1477563 21.8225872,14.9021785" id="Path"></path>
                    </g>
                </g>
            </g>
        </g>
    </g>
</svg>