<?xml version="1.0" encoding="UTF-8" standalone="no"?>
<svg width="22px" height="22px" viewBox="0 0 22 22" version="1.1" xmlns="http://www.w3.org/2000/svg" xmlns:xlink="http://www.w3.org/1999/xlink">
    <!-- Generator: sketchtool 39.1 (31720) - http://www.bohemiancoding.com/sketch -->
    <title>9AC20131-06CA-49A0-BF0C-F835858D36C4</title>
    <desc>Created with sketchtool.</desc>
    <defs></defs>
    <g id="Desktop" stroke="none" stroke-width="1" fill="none" fill-rule="evenodd">
        <g id="Login-register" transform="translate(-963.000000, -477.000000)" fill="#FD6250">
            <g id="modal-_morning" transform="translate(245.000000, 175.000000)">
                <g id="Group-5" transform="translate(420.000000, 302.000000)">
                    <g id="_ico_eye_rojo" transform="translate(298.000000, 0.000000)">
                        <path d="M11,3 C3.66666667,3 0,11.2880417 0,11.2880417 C0,11.2880417 3.66666667,19.5 11,19.5 C18.3333333,19.5 22,11.25 22,11.25 C22,11.25 18.3333333,3 11,3 L11,3 Z M11,17.6666667 C6.15404167,17.6666667 3.0944375,13.110375 2.0631875,11.2839167 C3.09375,9.44004167 6.15404167,4.83333333 11,4.83333333 C15.846875,4.83333333 18.9067083,9.41620833 19.9370417,11.25 C18.904875,13.087 15.8457292,17.6666667 11,17.6666667 L11,17.6666667 Z M11,7.58333333 C8.97508333,7.58333333 7.33333333,9.22508333 7.33333333,11.25 C7.33333333,13.2751458 8.97508333,14.9166667 11,14.9166667 C13.0251458,14.9166667 14.6666667,13.2751458 14.6666667,11.25 C14.6666667,9.22508333 13.0251458,7.58333333 11,7.58333333 L11,7.58333333 Z M11,13.0833333 C9.98914583,13.0833333 9.16666667,12.2608542 9.16666667,11.25 C9.16666667,10.2391458 9.98914583,9.41666667 11,9.41666667 C12.0108542,9.41666667 12.8333333,10.2391458 12.8333333,11.25 C12.8333333,12.2608542 12.0108542,13.0833333 11,13.0833333 L11,13.0833333 Z" id="Shape"></path>
                    </g>
                </g>
            </g>
        </g>
    </g>
</svg>