<?xml version="1.0" encoding="UTF-8" standalone="no"?>
<svg width="34px" height="38px" viewBox="0 0 34 38" version="1.1" xmlns="http://www.w3.org/2000/svg" xmlns:xlink="http://www.w3.org/1999/xlink">
    <!-- Generator: sketchtool 39 (31667) - http://www.bohemiancoding.com/sketch -->
    <title>8C7F3E1A-2DBB-4BF1-AFC4-0DADD65AFCC3</title>
    <desc>Created with sketchtool.</desc>
    <defs></defs>
    <g id="iconos" stroke="none" stroke-width="1" fill="none" fill-rule="evenodd" stroke-linecap="round" stroke-linejoin="round">
        <g transform="translate(-136.000000, -473.000000)" id="papeleria" stroke="#C7766C" stroke-width="1.4">
            <g transform="translate(136.000000, 473.000000)">
                <path d="M21.6888,5.1511 C21.7548,5.0531 21.8268,4.9571 21.9068,4.8651 L24.6028,1.7351 C25.6798,0.4851 27.5888,0.3481 28.8458,1.4301 L31.7408,3.9241 C32.9978,5.0071 33.1448,6.9151 32.0678,8.1651 L29.3718,11.2961" id="Stroke-1"></path>
                <path d="M9.1482,34.7337 L29.1122,11.5557 L29.0922,11.5387 C29.5842,10.8467 28.3902,8.8977 26.3632,7.1517 C24.2992,5.3737 22.2082,4.5517 21.6242,5.2297 C21.5892,5.2697 1.7212,28.3367 1.7212,28.3367" id="Stroke-3"></path>
                <path d="M1.1554,32.7415 L0.7004,37.0185 L4.8624,35.9345 C4.8624,35.9345 8.8444,34.9295 8.9524,34.8695 L9.0074,34.8355 C9.0484,34.8075 9.0854,34.7755 9.1174,34.7385 C9.7124,34.0475 8.5354,32.0585 6.4884,30.2955 C4.4424,28.5325 2.3004,27.6635 1.7054,28.3545 C1.6734,28.3915 1.1554,32.7415 1.1554,32.7415 L1.1554,32.7415 Z" id="Stroke-5"></path>
                <path d="M23.7399,10.3209 C25.7949,12.0909 26.9929,14.0919 26.4009,14.7789 L29.4519,11.2379 C29.8669,10.4799 28.5049,8.5499 26.4749,6.8009 C24.4059,5.0199 22.3229,4.4179 21.7389,5.0959 C21.7309,5.1059 20.6249,6.3899 18.9369,8.3499 C19.5279,7.6629 21.6849,8.5509 23.7399,10.3209 L23.7399,10.3209 Z" id="Stroke-7"></path>
                <path d="M3.6814,36.2423 C3.6814,36.2423 3.1164,33.8433 1.0144,34.0633 L0.7004,37.0183 L3.6814,36.2423 L3.6814,36.2423 Z" id="Stroke-9"></path>
            </g>
        </g>
    </g>
</svg>