<?xml version="1.0" encoding="utf-8"?>
<!-- Generator: Adobe Illustrator 16.0.0, SVG Export Plug-In . SVG Version: 6.00 Build 0)  -->
<!DOCTYPE svg PUBLIC "-//W3C//DTD SVG 1.1 Tiny//EN" "http://www.w3.org/Graphics/SVG/1.1/DTD/svg11-tiny.dtd">
<svg version="1.1" baseProfile="tiny" id="Capa_1" xmlns="http://www.w3.org/2000/svg" xmlns:xlink="http://www.w3.org/1999/xlink"
	 x="0px" y="0px" width="56.611px" height="62px" viewBox="0 0 56.611 62" xml:space="preserve">
<path d="M47.817,53.595H36.345c-0.456,0-0.825-0.37-0.825-0.825c0-0.456,0.37-0.825,0.825-0.826h11.473
	c0.456,0,0.825,0.37,0.825,0.826C48.644,53.225,48.273,53.595,47.817,53.595C47.817,53.595,47.817,53.595,47.817,53.595z"/>
<path d="M29.168,52.787H14.082c-0.419,0-0.772-0.314-0.82-0.73l-0.959-8.366c-0.049-0.427,0.238-0.82,0.66-0.903l8.111-1.586
	c0.095-0.018,0.164-0.102,0.164-0.198V28.394c0-0.456,0.369-0.826,0.825-0.826l0,0h9.809c0.456,0,0.826,0.369,0.827,0.824
	c0,0.032-0.002,0.064-0.006,0.097l-0.808,7.026l0,0l-1.897,16.527C29.946,52.465,29.592,52.787,29.168,52.787z M14.817,51.136
	h13.611l1.814-15.811l0,0l0.7-6.106h-8.055v11.779c-0.002,0.887-0.629,1.648-1.499,1.82l-7.346,1.438L14.817,51.136z M31.047,35.42
	L31.047,35.42z M10.738,42.178c-0.456,0-0.826-0.369-0.826-0.824l0,0V27.88c0-0.456,0.37-0.825,0.826-0.825l0,0h8.759
	c0.456,0,0.825,0.369,0.825,0.825l0,0v11.758c0.001,0.396-0.277,0.735-0.666,0.812l-8.759,1.729
	C10.845,42.184,10.791,42.184,10.738,42.178z M11.559,28.709v11.636l7.104-1.391V28.709H11.559z"/>
<path d="M15.521,25.326c-1.833-0.021-3.301-1.525-3.279-3.357s1.524-3.301,3.357-3.279c1.817,0.021,3.279,1.5,3.279,3.318
	C18.864,23.85,17.363,25.333,15.521,25.326z M15.521,20.339c-0.921,0.019-1.652,0.781-1.633,1.702
	c0.019,0.921,0.781,1.652,1.702,1.633c0.907-0.019,1.633-0.76,1.633-1.667C17.212,21.078,16.451,20.332,15.521,20.339z"/>
<path d="M23.879,21.536c-2.103,0-3.808-1.704-3.808-3.807s1.705-3.807,3.808-3.807c2.101,0,3.804,1.702,3.807,3.802
	C27.683,19.827,25.98,21.532,23.879,21.536z M23.879,15.573c-1.193,0-2.161,0.967-2.161,2.161s0.968,2.161,2.161,2.161
	s2.16-0.967,2.16-2.161S25.072,15.573,23.879,15.573L23.879,15.573z"/>
<path d="M16.826,14.057c-0.735-0.003-1.4-0.438-1.698-1.11v-0.03V12.89c-0.321-0.825-0.021-1.763,0.722-2.247
	c0.884-0.526,2.027-0.236,2.553,0.648c0.257,0.43,0.328,0.946,0.2,1.43c-0.235,0.741-0.905,1.257-1.681,1.296L16.826,14.057z
	 M16.637,12.272L16.637,12.272c0.034,0.078,0.064,0.117,0.198,0.129c0.086-0.007,0.159-0.065,0.186-0.146
	c0.022-0.08-0.011-0.165-0.082-0.208c-0.066-0.05-0.158-0.05-0.225,0c-0.075,0.056-0.104,0.154-0.073,0.242L16.637,12.272z"/>
<path d="M42.23,53.4c-0.354,0-0.668-0.224-0.782-0.558L25.861,7.51c-0.147-0.432,0.083-0.902,0.515-1.05s0.902,0.083,1.05,0.515
	l15.591,45.332c0.147,0.432-0.082,0.9-0.513,1.049c-0.087,0.029-0.178,0.045-0.27,0.045H42.23z"/>
<path d="M32.132,46.162c-0.456,0-0.825-0.369-0.825-0.824c-0.001-0.457,0.369-0.826,0.824-0.826h0.001
	c1.914,0,2.117-2.796,2.126-2.912c0.522-6.356-4.965-7.778-5.186-7.848c-0.443-0.107-0.717-0.555-0.609-0.998
	s0.555-0.717,0.998-0.609l0,0c0.074,0,7.096,1.807,6.456,9.576C35.801,43.241,34.906,46.162,32.132,46.162z"/>
</svg>
