<?xml version="1.0" encoding="utf-8"?>
<!-- Generator: Adobe Illustrator 16.0.0, SVG Export Plug-In . SVG Version: 6.00 Build 0)  -->
<!DOCTYPE svg PUBLIC "-//W3C//DTD SVG 1.1 Tiny//EN" "http://www.w3.org/Graphics/SVG/1.1/DTD/svg11-tiny.dtd">
<svg version="1.1" baseProfile="tiny" id="Capa_1" xmlns="http://www.w3.org/2000/svg" xmlns:xlink="http://www.w3.org/1999/xlink"
	 x="0px" y="0px" width="61.334px" height="62.93px" viewBox="0 0 61.334 62.93" xml:space="preserve">
<g id="iconos-2">
	<g id="iconos_001">
		<g id="cuidado_oral_lgreen">
			<path d="M40.306,53.729H26.379c-0.434-0.01-0.798-0.328-0.864-0.756l-4.321-27.798c-0.076-0.488,0.257-0.946,0.745-1.022
				c0.039-0.006,0.079-0.009,0.119-0.01h21.86c0.494,0,0.895,0.401,0.894,0.896c0,0.039-0.002,0.077-0.008,0.116l-3.616,27.798
				C41.129,53.394,40.753,53.727,40.306,53.729z M27.144,51.939H39.52l3.383-26.009H23.107L27.144,51.939z"/>
			<path d="M39.208,25.931c-0.068,0.001-0.137-0.006-0.203-0.021c-0.481-0.109-0.783-0.588-0.674-1.07
				c0.001-0.006,0.003-0.012,0.004-0.019l4.136-17.859c0.05-0.492,0.489-0.849,0.98-0.799s0.85,0.489,0.799,0.98
				c-0.008,0.075-0.024,0.149-0.051,0.221l-4.122,17.889C39.978,25.651,39.619,25.931,39.208,25.931z"/>
			<path d="M40.812,17.5c-0.076,0-0.151-0.011-0.225-0.03l-4.273-1.106c-0.479-0.123-0.768-0.61-0.645-1.089l0,0l1.988-7.812
				c0.123-0.479,0.61-0.767,1.089-0.644l0,0l4.347,1.106c0.488,0.076,0.822,0.534,0.746,1.021c-0.076,0.488-0.533,0.822-1.021,0.746
				c-0.053-0.008-0.105-0.021-0.156-0.039l-3.479-0.864l-1.547,6.08l3.409,0.864c0.477,0.127,0.761,0.617,0.634,1.095
				c-0.104,0.389-0.456,0.661-0.858,0.664L40.812,17.5z"/>
			<path id="Fill-7" d="M39.632,10.358c0,0.53-0.43,0.959-0.959,0.959c-0.53,0-0.96-0.429-0.96-0.959s0.43-0.959,0.96-0.959l0,0
				C39.202,9.398,39.632,9.828,39.632,10.358"/>
			<path id="Fill-9" d="M39.04,13.115c0,0.53-0.43,0.959-0.96,0.959c-0.529,0-0.959-0.429-0.959-0.959s0.43-0.959,0.959-0.959l0,0
				C38.61,12.155,39.04,12.585,39.04,13.115"/>
			<path d="M30.371,49.451c-0.309-0.002-0.572-0.224-0.626-0.527l-2.753-15.721c-0.06-0.347,0.172-0.678,0.519-0.738
				c0.347-0.059,0.676,0.173,0.739,0.518l2.752,15.721c0.061,0.348-0.171,0.678-0.519,0.738L30.371,49.451z"/>
		</g>
	</g>
</g>
</svg>
