<?xml version="1.0" encoding="utf-8"?>
<!-- Generator: Adobe Illustrator 16.0.0, SVG Export Plug-In . SVG Version: 6.00 Build 0)  -->
<!DOCTYPE svg PUBLIC "-//W3C//DTD SVG 1.1 Tiny//EN" "http://www.w3.org/Graphics/SVG/1.1/DTD/svg11-tiny.dtd">
<svg version="1.1" baseProfile="tiny" id="Capa_1" xmlns="http://www.w3.org/2000/svg" xmlns:xlink="http://www.w3.org/1999/xlink"
	 x="0px" y="0px" width="58.5px" height="64.068px" viewBox="0 0 58.5 64.068" xml:space="preserve">
<path d="M35.202,53.5H21.331c-2.631,0-4.753-2.027-4.753-4.516V30.503c0.004-1.61,0.683-3.145,1.871-4.23l2.087-1.949h15.5
	l2.087,1.949c1.188,1.086,1.867,2.62,1.871,4.23v18.481C39.955,51.473,37.794,53.5,35.202,53.5z M18.301,31.029v17.955
	c0,1.529,1.361,2.77,3.025,2.77h13.875c1.672,0,3.024-1.244,3.024-2.77V30.503c-0.001-1.123-0.471-2.194-1.296-2.956l-1.586-1.478
	H21.218l-1.586,1.478c-0.825,0.762-1.295,1.833-1.296,2.956L18.301,31.029z M36.723,22.66H19.771
	c-0.933-0.003-1.688-0.758-1.689-1.69v-3.063c0.002-0.932,0.757-1.687,1.689-1.689h1.244c0.751-1.483,1.948-2.692,3.423-3.457
	c0.639-0.337,0.902-1.115,0.601-1.771c-0.17-0.397-0.257-0.826-0.255-1.257c0.014-1.785,1.471-3.222,3.256-3.208
	s3.222,1.471,3.208,3.256c-0.003,0.417-0.087,0.829-0.246,1.213c-0.31,0.658-0.057,1.444,0.579,1.797
	c1.479,0.763,2.68,1.972,3.431,3.457h1.729c0.933,0.002,1.688,0.757,1.689,1.689v3.081C38.401,21.938,37.643,22.667,36.723,22.66z
	 M19.823,17.941v3.024l16.9-0.052L36.67,17.89l-1.075,0.052H19.823z M23.323,15.841h9.373c-0.527-0.635-1.177-1.157-1.91-1.534
	c-1.449-0.762-2.06-2.517-1.396-4.014c0.312-0.759-0.05-1.628-0.81-1.94c-0.121-0.05-0.248-0.083-0.378-0.1
	c-0.427-0.059-0.856,0.074-1.176,0.363c-0.318,0.283-0.501,0.689-0.501,1.115c-0.001,0.197,0.039,0.393,0.116,0.574
	c0.668,1.499,0.051,3.259-1.408,4.01l0,0c-0.734,0.379-1.384,0.902-1.91,1.538V15.841z"/>
</svg>
