<?xml version="1.0" encoding="utf-8"?>
<!-- Generator: Adobe Illustrator 16.0.0, SVG Export Plug-In . SVG Version: 6.00 Build 0)  -->
<!DOCTYPE svg PUBLIC "-//W3C//DTD SVG 1.1 Tiny//EN" "http://www.w3.org/Graphics/SVG/1.1/DTD/svg11-tiny.dtd">
<svg version="1.1" baseProfile="tiny" id="Capa_1" xmlns="http://www.w3.org/2000/svg" xmlns:xlink="http://www.w3.org/1999/xlink"
	 x="0px" y="0px" width="63.333px" height="64.98px" viewBox="0 0 63.333 64.98" xml:space="preserve">
<g id="iconos">
	<g id="iconos_extra">
		<g id="fotografia_tecnologia_red">
			<path d="M31.539,17.415c-0.509-0.004-0.918-0.419-0.914-0.927c0.002-0.263,0.116-0.512,0.312-0.685l4.676-4.062
				c0.167-0.145,0.38-0.225,0.601-0.225h11.874c0.217,0,0.427,0.076,0.593,0.216l4.516,3.828c0.399,0.314,0.468,0.893,0.153,1.292
				s-0.893,0.468-1.293,0.154c-0.017-0.013-0.033-0.027-0.049-0.042l-4.261-3.612H36.556l-4.412,3.824
				C31.978,17.328,31.763,17.412,31.539,17.415z"/>
			<path d="M42.048,48.063c-8.482,0-15.384-7.285-15.384-16.238s6.914-16.234,15.384-16.234c8.469,0,15.383,7.285,15.383,16.234
				S50.529,48.063,42.048,48.063z M42.048,17.427c-7.472,0-13.547,6.46-13.547,14.398s6.075,14.398,13.547,14.398
				c7.471,0,13.542-6.461,13.542-14.398S49.515,17.427,42.048,17.427z"/>
			<path d="M19.984,17.259c-0.509,0-0.921-0.412-0.921-0.92l0,0v-1.141c0.003-0.115-0.089-0.209-0.203-0.212
				c-0.003,0-0.006,0-0.009,0h-4.779c-0.114-0.002-0.209,0.088-0.211,0.203c0,0.003,0,0.006,0,0.009v1.141
				c-0.035,0.507-0.475,0.89-0.981,0.855c-0.459-0.031-0.824-0.396-0.855-0.855v-1.141c0.003-1.13,0.918-2.046,2.048-2.048h4.779
				c1.131,0.002,2.046,0.918,2.049,2.048v1.141C20.9,16.845,20.49,17.256,19.984,17.259z"/>
			<path d="M42.445,47.978c-3.36,0.008-6.639-1.04-9.373-2.994h-7.574c-0.964,1.02-2.623,2.41-4.516,2.41h-8.573
				c-1.691,0.021-3.24-0.945-3.963-2.476c-0.179-0.374-0.302-0.773-0.362-1.184c-0.033-0.209-0.049-0.42-0.048-0.631V20.076
				c0.005-0.631,0.152-1.253,0.433-1.819c0.721-1.528,2.268-2.496,3.958-2.476H21c1.861,0,3.508,1.348,4.463,2.337h8.301
				c5.305-3.387,12.093-3.387,17.396,0h2.887c1.453,0.031,2.618,1.212,2.628,2.666v5.687c-0.035,0.507-0.475,0.89-0.981,0.855
				c-0.459-0.032-0.824-0.396-0.855-0.855v-5.687c0.001-0.442-0.345-0.807-0.786-0.83h-3.185c-0.181-0.001-0.356-0.055-0.506-0.155
				c-4.816-3.124-11.02-3.124-15.837,0c-0.149,0.1-0.325,0.154-0.506,0.155h-8.97c-0.261,0-0.509-0.109-0.684-0.302
				c-0.549-0.614-1.983-2.036-3.383-2.036h-8.573c-0.978-0.017-1.874,0.539-2.295,1.422c-0.104,0.213-0.176,0.44-0.212,0.674
				c-0.017,0.12-0.025,0.241-0.025,0.363v23.027c0,0.357,0.081,0.711,0.237,1.032c0.422,0.883,1.321,1.438,2.299,1.418h8.573
				c1.461,0,2.986-1.607,3.418-2.101c0.175-0.198,0.427-0.312,0.691-0.312h8.279c0.196,0.001,0.387,0.064,0.545,0.182
				c5.066,3.751,11.988,3.751,17.055,0c0.158-0.117,0.349-0.18,0.545-0.182h2.511c0.401,0.032,0.753-0.269,0.784-0.671
				c0.001-0.009,0.002-0.019,0.002-0.028v-5.67c0.035-0.507,0.475-0.89,0.981-0.854c0.458,0.031,0.823,0.396,0.854,0.854v5.67
				c-0.009,1.412-1.161,2.551-2.574,2.541c-0.018,0-0.035,0-0.053,0h-2.212C49.08,46.937,45.804,47.983,42.445,47.978z"/>
			<path d="M25.049,44.72c-0.363,0-0.657-0.295-0.657-0.657l0,0V19.035c-0.059-0.358,0.184-0.696,0.542-0.754
				c0.357-0.059,0.695,0.184,0.754,0.542c0.012,0.07,0.012,0.142,0,0.212v25.028C25.688,44.419,25.404,44.71,25.049,44.72z"/>
			<path d="M42.225,43.298C35.889,43.3,30.75,38.165,30.748,31.829c-0.003-6.336,5.132-11.474,11.468-11.477
				c6.336-0.002,11.475,5.132,11.478,11.469c0,0.001,0,0.002,0,0.004C53.686,38.157,48.557,43.288,42.225,43.298z M42.225,21.671
				c-5.61,0-10.159,4.548-10.159,10.158c0,5.611,4.549,10.159,10.159,10.159s10.159-4.548,10.159-10.159
				c-0.005-5.609-4.55-10.156-10.159-10.163V21.671z"/>
			<path d="M35.021,34.461c-0.363-0.002-0.655-0.298-0.652-0.661c0.001-0.172,0.069-0.336,0.189-0.458l7.666-7.661
				c0.257-0.257,0.673-0.257,0.929,0c0.257,0.256,0.257,0.672,0,0.929l0,0l-7.67,7.657C35.361,34.391,35.195,34.46,35.021,34.461z"
				/>
			<path d="M40.22,38.351c-0.362-0.003-0.655-0.299-0.652-0.661c0.001-0.172,0.069-0.337,0.19-0.458l3.889-3.89
				c0.257-0.257,0.672-0.257,0.929,0s0.257,0.673,0,0.929l0,0l-3.889,3.89C40.562,38.283,40.395,38.352,40.22,38.351z"/>
		</g>
	</g>
</g>
</svg>
