<?xml version="1.0" encoding="utf-8"?>
<!-- Generator: Adobe Illustrator 16.0.0, SVG Export Plug-In . SVG Version: 6.00 Build 0)  -->
<!DOCTYPE svg PUBLIC "-//W3C//DTD SVG 1.1 Tiny//EN" "http://www.w3.org/Graphics/SVG/1.1/DTD/svg11-tiny.dtd">
<svg version="1.1" baseProfile="tiny" id="Capa_1" xmlns="http://www.w3.org/2000/svg" xmlns:xlink="http://www.w3.org/1999/xlink"
	 x="0px" y="0px" width="59.333px" height="64.98px" viewBox="0 0 59.333 64.98" xml:space="preserve">
<path d="M44.062,37.477"/>
<path d="M37.696,53.479H13.498c-1.792,0-3.245-1.451-3.246-3.244c-0.001-1.318,0.795-2.506,2.015-3.005V18.71h26.675v3.75h3.331
	c3.514,0.005,6.36,2.852,6.365,6.365v8.643c-0.005,3.518-2.859,6.367-6.378,6.364h-3.332v3.384c1.659,0.679,2.453,2.574,1.773,4.232
	c-0.499,1.22-1.687,2.017-3.005,2.016V53.479z M14.061,20.529v26.848c-0.002,0.672-0.426,1.27-1.059,1.494
	c-0.752,0.258-1.152,1.076-0.895,1.828c0.2,0.586,0.754,0.979,1.374,0.973H37.68c0.794,0.007,1.444-0.631,1.451-1.426
	c0.006-0.619-0.386-1.174-0.972-1.375c-0.634-0.225-1.058-0.822-1.059-1.494v-3.751c0-0.878,0.712-1.591,1.59-1.591l0,0h3.548
	c2.517-0.002,4.557-2.041,4.559-4.559v-8.642c-0.002-2.517-2.042-4.557-4.559-4.559H38.69c-0.878,0-1.59-0.712-1.59-1.59l0,0v-2.16
	L14.061,20.529z"/>
<path d="M35.969,21"/>
<path d="M41.184,40.187H37.42v-14.07h3.764c1.495,0.002,2.707,1.214,2.709,2.709v8.643C43.896,38.967,42.683,40.184,41.184,40.187
	L41.184,40.187z M39.227,38.38h1.957c0.499,0,0.903-0.404,0.903-0.903v-8.642c0-0.499-0.404-0.903-0.903-0.903h-1.957V38.38z"/>
<path d="M32.321,49.801H28c-0.499,0-0.903-0.404-0.903-0.903s0.404-0.903,0.903-0.903h4.321c0.368,0.045,0.735-0.088,0.989-0.358
	c0.433-0.501,0.406-1.491,0.376-1.729V22.785c0-0.499,0.404-0.903,0.903-0.903s0.903,0.404,0.903,0.903v22.992
	c0,0.074,0.229,1.85-0.809,3.025C34.088,49.475,33.22,49.842,32.321,49.801z"/>
<path d="M25.667,36.561c-1.172,0-2.122-0.949-2.122-2.121s0.95-2.122,2.122-2.122s2.121,0.95,2.121,2.122
	C27.786,35.609,26.838,36.559,25.667,36.561z M25.667,33.605c-0.461,0-0.834,0.373-0.834,0.834s0.373,0.834,0.834,0.834
	c0.46,0,0.834-0.373,0.834-0.834S26.127,33.605,25.667,33.605L25.667,33.605z"/>
<path d="M28.389,29.79c-1.043,0-1.888-0.845-1.888-1.888s0.845-1.888,1.888-1.888s1.889,0.845,1.889,1.888l0,0
	C30.277,28.944,29.432,29.79,28.389,29.79z M28.389,27.305c-0.331-0.002-0.603,0.265-0.604,0.596
	c-0.003,0.332,0.265,0.603,0.597,0.605c0.331,0.002,0.602-0.265,0.604-0.596c0-0.001,0-0.003,0-0.004
	c0.002-0.332-0.265-0.603-0.597-0.605l0,0V27.305z"/>
<path d="M28.394,43.833c-1.306-0.002-2.362-1.062-2.359-2.368c0.002-1.305,1.062-2.361,2.368-2.359
	c1.304,0.003,2.359,1.061,2.359,2.364C30.759,42.775,29.699,43.833,28.394,43.833z M28.394,40.377c-0.595,0-1.076,0.481-1.076,1.075
	c0,0.595,0.481,1.076,1.076,1.076c0.594,0,1.075-0.481,1.075-1.076l0,0C29.469,40.858,28.987,40.377,28.394,40.377z"/>
<path d="M39.355,16.507H11.973l0.143-1.028c0.433-3.094,2.641-5.341,5.251-5.341c0.601,0.001,1.195,0.122,1.75,0.354
	c1.563-2.519,3.945-3.958,6.546-3.958c2.602,0,4.982,1.439,6.547,3.958c0.554-0.233,1.148-0.354,1.75-0.354
	c2.593,0,4.818,2.247,5.25,5.341L39.355,16.507z M14.146,14.7h23.031c-0.557-1.629-1.823-2.757-3.219-2.757
	c-0.41,0.002-0.814,0.095-1.184,0.272c-0.748,0.346-1.637,0.055-2.035-0.666c-1.232-2.04-3.081-3.21-5.078-3.21
	c-1.996,0-3.846,1.171-5.077,3.206c-0.399,0.723-1.29,1.014-2.039,0.666c-0.37-0.178-0.774-0.271-1.185-0.272
	c-1.387,0-2.652,1.132-3.21,2.761H14.146z M32.01,10.561L32.01,10.561z M19.328,10.561L19.328,10.561z"/>
</svg>
