<?xml version="1.0" encoding="utf-8"?>
<!-- Generator: Adobe Illustrator 16.0.0, SVG Export Plug-In . SVG Version: 6.00 Build 0)  -->
<!DOCTYPE svg PUBLIC "-//W3C//DTD SVG 1.1 Tiny//EN" "http://www.w3.org/Graphics/SVG/1.1/DTD/svg11-tiny.dtd">
<svg version="1.1" baseProfile="tiny" id="Capa_1" xmlns="http://www.w3.org/2000/svg" xmlns:xlink="http://www.w3.org/1999/xlink"
	 x="0px" y="0px" width="60px" height="65.711px" viewBox="0 0 60 65.711" xml:space="preserve">
<path d="M31.201,44.107c-8.447,0-15.258-2.233-16.562-5.432c-0.198-0.484,0.034-1.037,0.519-1.235s1.038,0.034,1.235,0.519
	c0.834,2.048,6.737,4.256,14.813,4.256s14.034-2.225,14.825-4.286c0.188-0.488,0.735-0.731,1.223-0.544
	c0.488,0.187,0.732,0.734,0.545,1.223l0,0C46.55,41.852,39.727,44.107,31.201,44.107z M31.003,39.121
	c-6.235,0-12.964-1.348-12.964-4.321c0.001-0.193,0.029-0.386,0.087-0.57c0.2-1.312,1.134-2.394,2.402-2.782
	c0.268-0.488,0.65-0.903,1.114-1.21c-0.16-0.487-0.213-1.003-0.155-1.513c0.162-1.883,1.819-3.279,3.703-3.117
	c0.033,0.003,0.066,0.006,0.1,0.01c1.112,0.14,2.083,0.821,2.593,1.819c1.479-0.155,2.883,0.677,3.457,2.048
	c0.632-0.701,1.528-1.104,2.472-1.111c0.104-0.007,0.21-0.007,0.315,0c0.631-0.844,1.621-1.344,2.675-1.353
	c1.914,0.031,3.443,1.603,3.422,3.517c0.33,0.203,0.622,0.463,0.864,0.766c1.45,0.273,2.566,1.438,2.778,2.898
	c0.06,0.188,0.091,0.383,0.091,0.58c-0.004,2.994-6.715,4.342-12.954,4.342V39.121z M24.896,27.506
	c-0.801,0.024-1.455,0.648-1.517,1.448c-0.047,0.426,0.068,0.854,0.324,1.197c0.31,0.421,0.22,1.014-0.201,1.323
	c-0.098,0.072-0.208,0.124-0.326,0.155c-0.502,0.121-0.907,0.491-1.075,0.98c-0.12,0.341-0.424,0.584-0.782,0.627
	c-0.702,0.096-1.247,0.66-1.318,1.365c-0.01,0.069-0.027,0.137-0.052,0.203c0,0.717,3.889,2.428,11.054,2.428
	c7.164,0,11.058-1.729,11.058-2.41c-0.025-0.074-0.044-0.148-0.057-0.225c-0.067-0.766-0.688-1.365-1.456-1.405
	c-0.339-0.003-0.651-0.188-0.816-0.483c-0.189-0.332-0.499-0.578-0.864-0.688c-0.451-0.151-0.719-0.613-0.627-1.08
	c0-0.078,0.035-0.151,0.057-0.225c0.096-0.868-0.529-1.65-1.397-1.747c-0.034-0.003-0.068-0.006-0.103-0.008
	c-0.599,0.012-1.134,0.378-1.361,0.933c-0.198,0.443-0.701,0.663-1.162,0.51c-0.149-0.06-0.307-0.098-0.467-0.112
	c-0.601,0.014-1.137,0.382-1.365,0.938c-0.104,0.234-0.3,0.415-0.54,0.502c-0.24,0.086-0.505,0.071-0.734-0.039
	c-0.173-0.08-0.359-0.123-0.549-0.13c-0.453-0.024-0.824-0.367-0.886-0.816c-0.064-0.835-0.793-1.46-1.629-1.396
	c-0.149,0.011-0.297,0.045-0.437,0.1c-0.48,0.206-1.037-0.017-1.243-0.498c-0.022-0.054-0.041-0.11-0.054-0.168
	c-0.102-0.669-0.627-1.194-1.296-1.296C25.015,27.49,24.955,27.496,24.896,27.506z"/>
<path d="M31.228,55.006c-13.529,0-22.979-3.98-22.979-9.68c-0.005-0.055-0.005-0.109,0-0.164l0.068-0.376
	c0.01-0.056,0.024-0.11,0.044-0.164l3.694-9.938c1.102-3.521,7.471-5.497,9.398-6.02c0.505-0.136,1.024,0.163,1.16,0.668
	c0.136,0.504-0.163,1.023-0.668,1.16l0,0c-4.32,1.166-7.566,3.094-8.102,4.805l-3.699,10.107c0.104,4.398,9.135,7.709,21.083,7.709
	c11.878,0,20.871-3.268,21.078-7.627L48.65,35.466c-0.593-2.438-7.169-4.023-9.33-4.542c-0.503-0.142-0.796-0.664-0.654-1.167
	c0.133-0.472,0.604-0.765,1.087-0.674c4.878,1.176,9.964,2.792,10.694,5.838l3.69,10.073c0.038,0.104,0.057,0.213,0.057,0.323
	C54.207,51.021,44.757,55.006,31.228,55.006z"/>
<path d="M32.057,16.284c-1.503,0-2.722-1.219-2.722-2.722s1.219-2.722,2.722-2.722c1.504,0,2.723,1.219,2.723,2.722
	C34.777,15.064,33.56,16.282,32.057,16.284z M32.057,12.728c-0.458,0-0.829,0.372-0.829,0.83s0.371,0.83,0.829,0.83
	c0.459,0,0.83-0.372,0.83-0.83c-0.005-0.456-0.374-0.823-0.83-0.825V12.728z"/>
<path d="M43.089,12.732c-1.504,0-2.723-1.219-2.723-2.723c0-1.503,1.219-2.722,2.723-2.722c1.503,0,2.722,1.219,2.722,2.722
	C45.809,11.513,44.591,12.73,43.089,12.732z M43.089,9.176c-0.458,0-0.83,0.372-0.83,0.83c0,0.458,0.372,0.83,0.83,0.83
	c0.456,0,0.827-0.369,0.829-0.826C43.918,9.551,43.548,9.178,43.089,9.176z"/>
<path d="M30.765,24.719c-1.389,0-2.515-1.126-2.515-2.515s1.126-2.515,2.515-2.515c1.39,0,2.515,1.126,2.515,2.515l0,0
	C33.277,23.592,32.152,24.717,30.765,24.719z M30.765,21.582c-0.344,0-0.622,0.278-0.622,0.622s0.278,0.622,0.622,0.622
	s0.622-0.278,0.622-0.622l0,0C31.387,21.86,31.108,21.582,30.765,21.582z"/>
<path d="M34.965,20.294c-1.167,0-2.113-0.946-2.113-2.113s0.946-2.113,2.113-2.113s2.113,0.946,2.113,2.113
	C37.076,19.347,36.131,20.292,34.965,20.294z M34.965,17.961c-0.121,0-0.22,0.099-0.22,0.22l0,0c0,0.242,0.432,0.242,0.432,0
	C35.177,18.062,35.083,17.965,34.965,17.961z"/>
<path d="M39.796,26.586c-1.503,0-2.722-1.22-2.722-2.723s1.22-2.722,2.723-2.722c1.504,0,2.723,1.219,2.722,2.723
	c0,0.23-0.029,0.459-0.087,0.682C42.122,25.748,41.037,26.587,39.796,26.586z M39.796,23.029c-0.151-0.001-0.302,0.039-0.432,0.117
	c-0.392,0.234-0.52,0.741-0.286,1.132c0.234,0.391,0.74,0.519,1.132,0.286c0.392-0.234,0.52-0.741,0.286-1.132
	C40.349,23.185,40.083,23.033,39.796,23.029z"/>
<path d="M37.752,14.858c-1.1,0-1.992-0.892-1.992-1.992s0.893-1.992,1.992-1.992c1.101,0,1.992,0.892,1.992,1.992l0,0
	C39.742,13.965,38.852,14.856,37.752,14.858z M37.752,12.767c-0.055,0-0.1,0.045-0.1,0.1c0,0.108,0.199,0.112,0.199,0
	C37.852,12.812,37.807,12.767,37.752,12.767z"/>
</svg>
