<?xml version="1.0" encoding="utf-8"?>
<!-- Generator: Adobe Illustrator 16.0.0, SVG Export Plug-In . SVG Version: 6.00 Build 0)  -->
<!DOCTYPE svg PUBLIC "-//W3C//DTD SVG 1.1 Tiny//EN" "http://www.w3.org/Graphics/SVG/1.1/DTD/svg11-tiny.dtd">
<svg version="1.1" baseProfile="tiny" id="Capa_1" xmlns="http://www.w3.org/2000/svg" xmlns:xlink="http://www.w3.org/1999/xlink"
	 x="0px" y="0px" width="58px" height="63.521px" viewBox="0 0 58 63.521" xml:space="preserve">
<path d="M30.993,53.882c-0.93-0.004-1.779-0.529-2.195-1.361l-16.3-32.702c-1.653-0.061-3.144-1.016-3.889-2.493l0,0
	c-1.147-2.248-0.256-5,1.992-6.149c0.38-0.194,9.351-4.688,19.877-4.81h0.454c10.418,0,19.143,4.17,19.518,4.347
	c2.275,1.096,3.23,3.829,2.134,6.103c-0.718,1.489-2.183,2.475-3.832,2.578L33.227,52.452c-0.401,0.85-1.251,1.397-2.19,1.412
	L30.993,53.882z M13.708,17.68l16.917,33.924c0.068,0.135,0.205,0.219,0.354,0.221l0,0c0.152-0.002,0.29-0.091,0.354-0.229
	l16.118-34.31l0.717,0.065c0.098,0.012,0.196,0.012,0.294,0c1.389-0.012,2.505-1.148,2.492-2.537
	c-0.008-0.96-0.562-1.832-1.429-2.246c-0.354-0.173-8.669-4.144-18.62-4.144h-0.433c-10.037,0.117-18.58,4.407-18.952,4.589
	c-1.237,0.631-1.729,2.146-1.098,3.383c0,0,0,0,0.001,0c0.402,0.882,1.305,1.427,2.272,1.374c0.097,0.005,0.193,0.005,0.289,0
	L13.708,17.68z"/>
<path d="M35.508,33.737c-1.249,0.02-2.277-0.979-2.296-2.228c-0.02-1.249,0.978-2.278,2.228-2.297l0,0l0,0
	c1.248-0.041,2.292,0.938,2.333,2.187s-0.938,2.293-2.187,2.334L35.508,33.737z M35.508,31.271
	c-0.113,0.004-0.203,0.098-0.202,0.211c0.019,0.109,0.109,0.191,0.22,0.199c0.119,0,0.216-0.098,0.216-0.217
	s-0.097-0.216-0.216-0.216L35.508,31.271z"/>
<path d="M27.795,36.373c-1.784,0.001-3.249-1.41-3.314-3.193l0,0c-0.065-1.829,1.364-3.365,3.193-3.431s3.365,1.364,3.431,3.193
	c0.066,1.829-1.363,3.365-3.192,3.432c-0.003,0-0.006,0-0.009,0H27.795z M26.538,33.11c0.006,0.674,0.556,1.214,1.229,1.208
	c0.022,0,0.045-0.001,0.067-0.002c0.689-0.026,1.227-0.607,1.199-1.296c-0.026-0.689-0.606-1.227-1.296-1.2
	C27.051,31.847,26.515,32.424,26.538,33.11z"/>
<path d="M37.393,26.785c-1.784,0.001-3.249-1.411-3.314-3.193l0,0c-0.066-1.83,1.363-3.366,3.192-3.431
	c1.83-0.066,3.366,1.363,3.432,3.193c0.065,1.829-1.363,3.365-3.193,3.431c-0.003,0-0.006,0-0.009,0H37.393z M36.135,23.522
	c-0.002,0.666,0.536,1.208,1.202,1.209c0.031,0,0.062-0.001,0.094-0.003c0.689-0.026,1.227-0.607,1.2-1.296
	c-0.026-0.689-0.607-1.227-1.296-1.2C36.647,22.259,36.111,22.835,36.135,23.522z"/>
<path d="M29.351,42.216c0.021,0.839,0.721,1.502,1.561,1.48c0.84-0.022,1.502-0.721,1.48-1.561s-0.721-1.503-1.561-1.48
	c-0.004,0-0.008,0-0.012,0C29.983,40.681,29.326,41.379,29.351,42.216z"/>
<path d="M30.354,33.31"/>
<path d="M25.851,26.893c-2.663-0.026-4.801-2.206-4.774-4.869c0.024-2.568,2.058-4.666,4.623-4.771l0,0
	c1.277-0.035,2.518,0.43,3.457,1.297c1.943,1.82,2.044,4.872,0.223,6.816c-0.877,0.936-2.091,1.484-3.373,1.523L25.851,26.893z
	 M25.765,19.309c-0.737,0.019-1.438,0.33-1.945,0.864c-1.041,1.117-0.979,2.867,0.138,3.909c0.537,0.5,1.251,0.767,1.984,0.741
	c0.737-0.018,1.437-0.329,1.944-0.864c1.039-1.12,0.974-2.869-0.146-3.908c-0.534-0.496-1.243-0.761-1.972-0.737L25.765,19.309z"/>
<path d="M13.916,19.607c-0.568-0.003-1.026-0.466-1.023-1.034c0.002-0.388,0.222-0.742,0.569-0.916
	c0.342-0.168,8.435-4.096,17.284-4.096c0.568,0,1.028,0.46,1.028,1.028s-0.46,1.028-1.028,1.028l0,0
	c-8.356,0-16.295,3.846-16.372,3.889C14.23,19.576,14.074,19.609,13.916,19.607z"/>
<path d="M41.93,16.816c-0.096,0-0.189-0.013-0.281-0.039c-2.067-0.532-4.175-0.897-6.3-1.093c-0.565-0.048-0.985-0.545-0.938-1.11
	c0.052-0.563,0.546-0.98,1.11-0.938c2.257,0.204,4.494,0.593,6.688,1.162c0.547,0.155,0.864,0.723,0.71,1.27
	C42.794,16.511,42.39,16.816,41.93,16.816z"/>
</svg>
