<?xml version="1.0" encoding="utf-8"?>
<!-- Generator: Adobe Illustrator 16.0.0, SVG Export Plug-In . SVG Version: 6.00 Build 0)  -->
<!DOCTYPE svg PUBLIC "-//W3C//DTD SVG 1.1 Tiny//EN" "http://www.w3.org/Graphics/SVG/1.1/DTD/svg11-tiny.dtd">
<svg version="1.1" baseProfile="tiny" id="Capa_1" xmlns="http://www.w3.org/2000/svg" xmlns:xlink="http://www.w3.org/1999/xlink"
	 x="0px" y="0px" width="63.334px" height="64.981px" viewBox="0 0 63.334 64.981" xml:space="preserve">
<g transform="translate(31.52 -0.57)">
	<g id="mask-2">
		<path id="path-1" d="M-6.088,24.662c1.174,0.023,2.315,0.385,3.288,1.042c1.155,0.798,2.262,1.665,3.314,2.593
			c0.164,0.211,0.468,0.25,0.68,0.086c0.031-0.025,0.061-0.054,0.085-0.086c1.054-0.928,2.16-1.794,3.314-2.593
			c0.966-0.651,2.098-1.013,3.263-1.042h0.104c0.743,0.007,1.478,0.161,2.16,0.454c1.096,0.509,2.119,1.158,3.047,1.932
			c1.231,0.955,2.333,2.1,3.561,3.059c2.67,2.092,4.896,1.944,7.406-0.389l0.618-0.574c-0.358,2.13-1.165,4.161-2.368,5.955
			c-1.416,2.223-3.525,3.916-6.002,4.818c-5.838,2.096-13.21-0.826-15.47-6.348c-2.256,5.521-9.632,8.443-15.47,6.348
			c-2.476-0.902-4.585-2.596-6.002-4.818c-1.201-1.795-2.009-3.824-2.367-5.955l0.622,0.574c2.506,2.338,4.753,2.486,7.401,0.389
			c1.232-0.959,2.329-2.104,3.561-3.059c0.93-0.773,1.955-1.423,3.051-1.932c0.684-0.293,1.418-0.447,2.161-0.454h0.056H-6.088z"/>
	</g>
</g>
<g id="iconos-3">
	<g id="iconos_extra-2">
		<g id="bienvenida_dgreen">
			<g id="Group-3">
				<g>
					<path d="M22.532,41.144c-1.999-0.003-3.982-0.35-5.863-1.023c-2.642-0.962-4.894-2.766-6.408-5.134
						c-1.263-1.892-2.112-4.028-2.494-6.27c-0.072-0.445,0.229-0.865,0.675-0.938c0.247-0.04,0.498,0.035,0.683,0.203l0.622,0.579
						c2.229,2.079,4.01,2.161,6.343,0.346c0.588-0.458,1.137-0.955,1.729-1.478c0.593-0.522,1.197-1.08,1.846-1.586
						c0.986-0.816,2.074-1.502,3.236-2.039c2.062-0.881,4.435-0.632,6.27,0.657c0.979,0.662,1.915,1.383,2.805,2.161l0.433,0.371
						l0.453-0.376c0.888-0.777,1.823-1.499,2.8-2.16c1.837-1.288,4.208-1.535,6.271-0.652c1.161,0.536,2.247,1.22,3.232,2.035
						c0.647,0.501,1.257,1.05,1.845,1.586c0.588,0.536,1.132,1.02,1.729,1.478c2.333,1.829,4.113,1.729,6.348-0.346l0.622-0.579
						c0.333-0.304,0.85-0.281,1.154,0.052c0.168,0.185,0.243,0.436,0.202,0.683c-0.381,2.242-1.23,4.379-2.493,6.271
						c-1.515,2.368-3.767,4.172-6.408,5.134c-5.644,2.025-12.683,1.132-15.729-3.604C30.384,39.692,26.542,41.144,22.532,41.144z
						 M10.001,30.825c0.405,1.15,0.954,2.245,1.634,3.258c1.327,2.076,3.301,3.657,5.617,4.498
						c5.462,1.967,12.367,0.955,14.449-4.139c0.127-0.307,0.425-0.506,0.757-0.506l0,0c0.331,0,0.63,0.199,0.756,0.506
						c2.083,5.09,8.971,6.102,14.42,4.139c2.315-0.841,4.29-2.422,5.617-4.498c0.68-1.013,1.229-2.107,1.633-3.258
						c-2.333,1.525-4.627,1.297-7.112-0.636c-0.631-0.493-1.227-1.033-1.806-1.556s-1.154-1.042-1.755-1.508
						c-0.874-0.726-1.837-1.337-2.864-1.819c-1.568-0.659-3.365-0.463-4.754,0.519c-0.92,0.625-1.802,1.304-2.64,2.035l-0.601,0.501
						c-0.254,0.236-0.587,0.371-0.934,0.376c-0.323-0.017-0.63-0.149-0.864-0.372l-0.601-0.501c-0.838-0.732-1.72-1.414-2.641-2.04
						c-1.388-0.983-3.185-1.181-4.753-0.523c-1.028,0.484-1.991,1.097-2.864,1.824c-0.597,0.462-1.158,0.968-1.75,1.503
						c-0.593,0.536-1.176,1.059-1.807,1.556c-2.52,1.949-4.813,2.169-7.151,0.64H10.001z"/>
				</g>
			</g>
			<g id="Group-18">
				<path d="M21.028,40.867c-4.362,0.027-8.431-2.193-10.768-5.876c-1.264-1.894-2.113-4.031-2.494-6.275
					c-0.072-0.445,0.229-0.865,0.675-0.938c0.247-0.04,0.498,0.035,0.683,0.203l0.622,0.579c2.229,2.079,4.01,2.161,6.343,0.346
					c0.588-0.458,1.137-0.955,1.729-1.478c0.593-0.522,1.197-1.08,1.846-1.586c0.986-0.816,2.074-1.502,3.236-2.039
					c2.062-0.881,4.435-0.632,6.27,0.657c0.979,0.662,1.915,1.383,2.805,2.161l0.433,0.371l0.453-0.376
					c0.888-0.777,1.823-1.499,2.8-2.16c1.837-1.288,4.208-1.535,6.271-0.652c1.161,0.536,2.247,1.22,3.232,2.035
					c0.647,0.501,1.257,1.05,1.845,1.586c0.588,0.536,1.132,1.02,1.729,1.478c2.333,1.829,4.113,1.729,6.348-0.346l0.622-0.579
					c0.333-0.304,0.85-0.281,1.154,0.052c0.168,0.185,0.243,0.436,0.202,0.683c-0.381,2.242-1.23,4.379-2.493,6.271
					c-1.515,2.368-3.767,4.172-6.408,5.134c-5.824,2.096-12.738-0.368-15.763-5.307C30.133,38.547,25.613,40.867,21.028,40.867z
					 M9.988,30.825c0.405,1.15,0.954,2.245,1.633,3.258c1.327,2.076,3.302,3.657,5.618,4.498c5.483,1.971,12.366-0.829,14.437-5.885
					c0.233-0.416,0.76-0.564,1.176-0.332c0.14,0.078,0.254,0.193,0.332,0.332c2.07,5.056,8.949,7.86,14.437,5.885
					c2.316-0.841,4.291-2.422,5.617-4.498c0.68-1.013,1.229-2.107,1.634-3.258c-2.333,1.525-4.628,1.297-7.112-0.636
					c-0.631-0.493-1.228-1.033-1.807-1.556c-0.578-0.523-1.153-1.042-1.754-1.508c-0.874-0.726-1.837-1.337-2.865-1.819
					c-1.567-0.659-3.364-0.463-4.753,0.519c-0.92,0.625-1.802,1.304-2.641,2.035l-0.601,0.501c-0.254,0.236-0.586,0.371-0.933,0.376
					c-0.323-0.017-0.63-0.149-0.864-0.372l-0.601-0.501c-0.838-0.732-1.72-1.414-2.641-2.04c-1.388-0.983-3.185-1.181-4.753-0.523
					c-1.028,0.484-1.991,1.097-2.865,1.824c-0.596,0.462-1.158,0.968-1.75,1.503c-0.592,0.536-1.175,1.059-1.806,1.556
					C14.62,32.135,12.326,32.354,9.988,30.825z"/>
			</g>
		</g>
	</g>
</g>
</svg>
