<?xml version="1.0" encoding="UTF-8"?>
<svg width="11px" height="16px" viewBox="0 0 11 16" version="1.1" xmlns="http://www.w3.org/2000/svg" xmlns:xlink="http://www.w3.org/1999/xlink">
    <!-- Generator: sketchtool 39 (31667) - http://www.bohemiancoding.com/sketch -->
    <title>639229BC-A0ED-4C5E-81DD-5B1A8E840A3C</title>
    <desc>Created with sketchtool.</desc>
    <defs></defs>
    <g id="Page-1" stroke="none" stroke-width="1" fill="none" fill-rule="evenodd">
        <g id="navbar-address" transform="translate(-864.000000, -88.000000)" fill="#32B86B">
            <g id="address-container" transform="translate(860.000000, 77.000000)">
                <g id="HOVER-x">
                    <g id="bt_agregar">
                        <g id="icon" transform="translate(4.000000, 11.000000)">
                            <g id="Layer_1">
                                <path d="M5.50007686,0 C2.46259939,0 0,2.55680798 0,5.71084289 C0,9.40305237 4.58334614,16 5.50007686,16 C6.41696128,16 11,9.40305237 11,5.71084289 C11,2.55680798 8.53770803,0 5.50007686,0 L5.50007686,0 Z M5.50007686,8.9274414 C3.78066878,8.9274414 2.38651258,7.47986035 2.38651258,5.69456359 C2.38651258,3.90910723 3.78066878,2.46168579 5.50007686,2.46168579 C7.21979235,2.46168579 8.61364113,3.90926683 8.61364113,5.69456359 C8.61364113,7.47970075 7.21979235,8.9274414 5.50007686,8.9274414 L5.50007686,8.9274414 Z" id="Shape"></path>
                            </g>
                        </g>
                    </g>
                </g>
            </g>
        </g>
    </g>
</svg>