<?xml version="1.0" encoding="UTF-8" standalone="no"?>
<svg width="27px" height="37px" viewBox="0 0 27 37" version="1.1" xmlns="http://www.w3.org/2000/svg" xmlns:xlink="http://www.w3.org/1999/xlink">
    <!-- Generator: sketchtool 39 (31667) - http://www.bohemiancoding.com/sketch -->
    <title>2438E8F7-8942-4AEC-A933-9638444E9A83</title>
    <desc>Created with sketchtool.</desc>
    <defs></defs>
    <g id="iconos" stroke="none" stroke-width="1" fill="none" fill-rule="evenodd">
        <g transform="translate(-273.000000, -261.000000)" id="Page-1" stroke="#78A2CC" stroke-width="1.4">
            <g transform="translate(273.000000, 260.000000)">
                <path d="M4.1301,19.8493 L4.1301,33.5333" id="Stroke-1" stroke-linecap="round" stroke-linejoin="round"></path>
                <g id="Group-8" transform="translate(0.000000, 0.803400)">
                    <path d="M25.6599,13.0385 L18.3969,13.0385 C18.1009,12.1155 17.3169,11.4495 16.3889,11.4495 L9.9709,11.4495 C9.0419,11.4495 8.2589,12.1155 7.9629,13.0385 L0.6999,13.0385 L0.6999,3.2805 C0.6999,1.9635 1.8779,0.8965 3.3309,0.8965 L23.0289,0.8965 C24.4819,0.8965 25.6599,1.9635 25.6599,3.2805 L25.6599,13.0385 L25.6599,13.0385 Z M23.6559,36.2995 L2.7039,36.2995 C1.5989,36.2995 0.7039,35.6325 0.7039,34.8095 L0.7039,13.0385 L25.6559,13.0385 L25.6559,34.8095 C25.6559,35.6325 24.7609,36.2995 23.6559,36.2995 L23.6559,36.2995 Z" id="Stroke-2"></path>
                    <path d="M19.0185,17.1463 L22.4415,17.1463" id="Stroke-4" stroke-linecap="round"></path>
                    <path d="M19.331,9.5525 L22.754,9.5525" id="Stroke-6" stroke-linecap="round"></path>
                </g>
            </g>
        </g>
    </g>
</svg>