<?xml version="1.0" encoding="UTF-8" standalone="no"?>
<svg width="22px" height="20px" viewBox="0 0 22 20" version="1.1" xmlns="http://www.w3.org/2000/svg" xmlns:xlink="http://www.w3.org/1999/xlink">
    <!-- Generator: Sketch 39.1 (31720) - http://www.bohemiancoding.com/sketch -->
    <title>Group 2</title>
    <desc>Created with Sketch.</desc>
    <defs></defs>
    <g id="Page-1" stroke="none" stroke-width="1" fill="none" fill-rule="evenodd">
        <g id="Artboard-5" transform="translate(-476.000000, -573.000000)" fill="#CDCDCD">
            <g id="Group-2" transform="translate(476.000000, 573.000000)">
                <g id="menu-button-of-three-horizontal-lines-copy-2">
                    <g id="Capa_1">
                        <g id="Group">
                            <path d="M19.8709677,0 L2.12903226,0 C0.958064516,0 0,0.964285714 0,2.14285714 C0,3.32142857 0.958064516,4.28571429 2.12903226,4.28571429 L19.8709677,4.28571429 C21.0419355,4.28571429 22,3.32142857 22,2.14285714 C22,0.964285714 21.0419355,0 19.8709677,0 L19.8709677,0 Z" id="Shape"></path>
                            <path d="M19.8709677,7.85714286 L2.12903226,7.85714286 C0.958064516,7.85714286 0,8.82142857 0,10 C0,11.1785714 0.958064516,12.1428571 2.12903226,12.1428571 L19.8709677,12.1428571 C21.0419355,12.1428571 22,11.1785714 22,10 C22,8.82142857 21.0419355,7.85714286 19.8709677,7.85714286 L19.8709677,7.85714286 Z" id="Shape"></path>
                            <path d="M19.8709677,15.7142857 L2.12903226,15.7142857 C0.958064516,15.7142857 0,16.6785714 0,17.8571429 C0,19.0357143 0.958064516,20 2.12903226,20 L19.8709677,20 C21.0419355,20 22,19.0357143 22,17.8571429 C22,16.6785714 21.0419355,15.7142857 19.8709677,15.7142857 L19.8709677,15.7142857 Z" id="Shape"></path>
                        </g>
                    </g>
                </g>
            </g>
        </g>
    </g>
</svg>