<?xml version="1.0" encoding="UTF-8" standalone="no"?>
<svg width="34px" height="32px" viewBox="0 0 34 32" version="1.1" xmlns="http://www.w3.org/2000/svg" xmlns:xlink="http://www.w3.org/1999/xlink">
    <!-- Generator: sketchtool 39 (31667) - http://www.bohemiancoding.com/sketch -->
    <title>C4206A0F-A334-44DD-B6A7-CEA40B8AFD57</title>
    <desc>Created with sketchtool.</desc>
    <defs></defs>
    <g id="iconos" stroke="none" stroke-width="1" fill="none" fill-rule="evenodd">
        <g transform="translate(-417.000000, -263.000000)" id="snacks">
            <g transform="translate(417.000000, 263.000000)">
                <path d="M31.9583,9.2496 C31.5703,8.7056 31.0863,8.2526 30.5293,7.8786 C31.6653,12.1546 28.2463,18.4056 21.9903,22.8676 C15.7343,27.3296 8.7103,28.5266 5.0383,26.0596 C5.2103,26.7076 5.4813,27.3126 5.8693,27.8566 C8.8163,31.9896 17.0463,31.1746 24.2503,26.0366 C31.4553,20.8976 34.9063,13.3826 31.9583,9.2496 L31.9583,9.2496 Z" id="Stroke-1" stroke="#61B5AA" stroke-width="1.4" stroke-linecap="round" stroke-linejoin="round"></path>
                <path d="M30.5292,7.8787 C30.3572,7.2307 30.0862,6.6247 29.6982,6.0807 C29.4012,5.6637 29.0372,5.3107 28.6382,4.9937 C28.8292,5.6457 28.9072,6.3467 28.8872,7.0807" id="Stroke-3" stroke="#61B5AA" stroke-width="1.4" stroke-linecap="round" stroke-linejoin="round"></path>
                <path d="M4.8245,24.1126 C4.0635,23.8596 3.3935,23.4926 2.8135,23.0306 C2.9875,23.6256 3.2485,24.1826 3.6085,24.6886 C3.9965,25.2326 4.4815,25.6856 5.0385,26.0596" id="Stroke-5" stroke="#61B5AA" stroke-width="1.4" stroke-linecap="round" stroke-linejoin="round"></path>
                <path d="M28.887,7.0806 C28.772,11.1636 25.495,16.3006 20.135,20.1226 C14.716,23.9876 8.72,25.4046 4.825,24.1126" id="Stroke-7" stroke="#61B5AA" stroke-width="1.4" stroke-linecap="round" stroke-linejoin="round"></path>
                <path d="M5.0381,26.0592 C8.7101,28.5262 15.7351,27.3292 21.9911,22.8672 C28.2471,18.4062 31.6661,12.1542 30.5291,7.8782" id="Stroke-9" stroke="#61B5AA" stroke-width="1.4" stroke-linecap="round" stroke-linejoin="round"></path>
                <path d="M28.6384,4.994 C28.4644,4.398 28.2034,3.841 27.8424,3.336 C24.8954,-0.796 16.6654,0.019 9.4614,5.157 C2.2564,10.295 -1.1946,17.811 1.7534,21.944 C2.0504,22.361 2.4144,22.714 2.8134,23.03" id="Stroke-11" stroke="#61B5AA" stroke-width="1.4" stroke-linecap="round" stroke-linejoin="round"></path>
                <path d="M28.887,7.0806 C28.908,6.3466 28.829,5.6456 28.638,4.9936" id="Stroke-13" stroke="#61B5AA" stroke-width="1.4" stroke-linecap="round" stroke-linejoin="round"></path>
                <path d="M2.8132,23.0305 C3.3942,23.4925 4.0632,23.8605 4.8242,24.1125" id="Stroke-15" stroke="#61B5AA" stroke-width="1.4" stroke-linecap="round" stroke-linejoin="round"></path>
                <path d="M19.3598,17.2921 C22.9278,14.3771 25.4378,10.8861 26.5718,7.6541 C25.4378,10.8861 22.9278,14.3771 19.3598,17.2921 L19.3598,17.2921 Z M11.9648,21.5611 C12.9548,21.2071 13.9618,20.7611 14.9698,20.2251 C13.9618,20.7611 12.9548,21.2071 11.9648,21.5611 L11.9648,21.5611 Z" id="Stroke-17" stroke="#61B5AA" stroke-width="1.4" stroke-linecap="round" stroke-linejoin="round"></path>
                <path d="M8.4038,16.5275 C7.9938,16.3145 8.0488,15.5835 8.5268,14.8945 C9.0058,14.2055 9.7258,13.8205 10.1358,14.0335 C10.5458,14.2465 10.4908,14.9775 10.0128,15.6665 C9.5338,16.3545 8.8138,16.7405 8.4038,16.5275" id="Fill-19" fill="#61B5AA"></path>
                <path d="M10.4468,9.8198 C10.0378,9.6078 10.1258,8.8318 10.6428,8.0868 C11.1598,7.3418 11.9108,6.9088 12.3188,7.1208 C12.7278,7.3328 12.6398,8.1088 12.1228,8.8538 C11.6058,9.5998 10.8558,10.0318 10.4468,9.8198" id="Fill-21" fill="#61B5AA"></path>
                <path d="M17.4183,8.9908 C16.9633,8.7548 16.9713,8.0208 17.4353,7.3518 C17.9003,6.6828 18.6453,6.3308 19.1003,6.5668 C19.5543,6.8028 19.5473,7.5368 19.0823,8.2058 C18.6183,8.8748 17.8733,9.2268 17.4183,8.9908" id="Fill-23" fill="#61B5AA"></path>
                <path d="M14.7931,15.5795 C14.4581,15.4055 14.4521,14.8815 14.7801,14.4085 C15.1081,13.9365 15.6461,13.6945 15.9811,13.8685 C16.3161,14.0425 16.3221,14.5665 15.9941,15.0385 C15.6661,15.5115 15.1281,15.7535 14.7931,15.5795" id="Fill-25" fill="#61B5AA"></path>
            </g>
        </g>
    </g>
</svg>