<?xml version="1.0" encoding="UTF-8" standalone="no"?>
<svg width="36px" height="77px" viewBox="0 0 36 77" version="1.1" xmlns="http://www.w3.org/2000/svg" xmlns:xlink="http://www.w3.org/1999/xlink">
    <!-- Generator: sketchtool 39.1 (31720) - http://www.bohemiancoding.com/sketch -->
    <title>4BB179BF-4137-46EC-B9AE-373944475E5F</title>
    <desc>Created with sketchtool.</desc>
    <defs></defs>
    <g id="Desktop" stroke="none" stroke-width="1" fill="none" fill-rule="evenodd" stroke-linecap="round" stroke-linejoin="round">
        <g id="Store-type" transform="translate(-178.000000, -335.000000)" stroke="#C7766C" stroke-width="2.8">
            <g id="cat1" transform="translate(97.000000, 300.000000)">
                <g id="Page-1" transform="translate(81.000000, 35.000000)">
                    <path d="M1.5074,22.1832 C1.4154,22.9612 1.4194,23.5492 1.4194,23.5492 L1.4194,71.3132 L34.5934,71.3132 L34.5934,23.4692 C34.5934,23.4692 34.5914,22.9232 34.5014,22.1832" id="Stroke-1"></path>
                    <path d="M2.1578,14.6618 L33.8558,14.6618" id="Stroke-3"></path>
                    <polyline id="Stroke-5" points="2.6342 18.2046 2.6342 19.7086 33.3802 19.7086 33.3802 18.2046"></polyline>
                    <path d="M2.8354,72.0172 C3.6254,72.6692 4.6314,73.7392 5.5194,75.3992 L30.4934,75.3992 C31.3834,73.7392 33.1794,72.0172 33.1794,72.0172" id="Stroke-7"></path>
                    <path d="M33.3208,11.029 C33.3208,10.219 32.6648,9.563 31.8568,9.563 L4.1588,9.563 C3.3488,9.563 2.6908,10.219 2.6908,11.029" id="Stroke-9"></path>
                    <path d="M1.4,67.111 L34.48,38.517" id="Stroke-11"></path>
                    <path d="M1.4,52.0602 L34.48,23.4682" id="Stroke-13"></path>
                    <path d="M25.8834,7.9918 C25.1834,8.0018 18.3874,1.3878 25.9294,1.3998 C33.8474,1.4138 26.3474,7.9858 25.8834,7.9918 L25.8834,7.9918 Z" id="Stroke-15"></path>
                </g>
            </g>
        </g>
    </g>
</svg>