<?xml version="1.0" encoding="UTF-8" standalone="no"?>
<svg width="51px" height="80px" viewBox="0 0 51 80" version="1.1" xmlns="http://www.w3.org/2000/svg" xmlns:xlink="http://www.w3.org/1999/xlink">
    <!-- Generator: sketchtool 39.1 (31720) - http://www.bohemiancoding.com/sketch -->
    <title>7C3A3D38-7DD3-41D6-AB20-EC201D29130F</title>
    <desc>Created with sketchtool.</desc>
    <defs></defs>
    <g id="Desktop" stroke="none" stroke-width="1" fill="none" fill-rule="evenodd" stroke-linecap="round" stroke-linejoin="round">
        <g id="Store-type" transform="translate(-398.000000, -335.000000)" stroke="#78A2CC">
            <g id="cat1-copy" transform="translate(349.000000, 300.000000)">
                <g id="Page-1" transform="translate(49.000000, 35.000000)">
                    <path d="M19.8004,9.2858 L19.8004,9.2858 C18.3484,9.2858 17.1724,8.1098 17.1724,6.6578 L17.1724,4.0278 C17.1724,2.5758 18.3484,1.3998 19.8004,1.3998 L30.3144,1.3998 C31.7664,1.3998 32.9444,2.5758 32.9444,4.0278 L32.9444,6.6578 C32.9444,8.1098 31.7664,9.2858 30.3144,9.2858 M30.3144,13.8418 L30.3144,16.5598 C30.3144,21.8718 32.3684,26.9658 36.0244,30.7218 L42.0304,36.8958 C46.3104,41.2938 48.7144,47.2578 48.7144,53.4778 L48.7144,66.9378 C48.7144,72.8418 44.0564,77.6298 38.3104,77.6298 L11.8044,77.6298 C6.0584,77.6298 1.4004,72.8418 1.4004,66.9378 L1.4004,53.5418 C1.4004,47.3438 3.7884,41.3978 8.0404,37.0038 L14.1284,30.7158 C17.7604,26.9618 19.8004,21.8838 19.8004,16.5898 L19.8004,13.8398" id="Stroke-1" stroke-width="2.8"></path>
                    <polyline id="Stroke-3" stroke-width="2.8" points="19.8004 9.2858 21.1144 9.2858 25.0584 9.2858 30.3144 9.2858"></polyline>
                    <polygon id="Stroke-5" stroke-width="2.8" points="48.5744 68.9292 1.8444 68.9292 1.8444 49.7112 48.1684 49.8532"></polygon>
                    <path d="M24.5572,56.342 L24.5572,63.154" id="Stroke-7" stroke-width="2"></path>
                    <path d="M28.3696,59.967 L20.9316,59.967" id="Stroke-9" stroke-width="2"></path>
                </g>
            </g>
        </g>
    </g>
</svg>