<?xml version="1.0" encoding="UTF-8" standalone="no"?>
<svg width="81px" height="53px" viewBox="0 0 81 53" version="1.1" xmlns="http://www.w3.org/2000/svg" xmlns:xlink="http://www.w3.org/1999/xlink">
    <!-- Generator: sketchtool 39.1 (31720) - http://www.bohemiancoding.com/sketch -->
    <title>B79A2351-7861-4DE5-A18D-F26A6AA69699</title>
    <desc>Created with sketchtool.</desc>
    <defs></defs>
    <g id="Desktop" stroke="none" stroke-width="1" fill="none" fill-rule="evenodd" stroke-linecap="round" stroke-linejoin="round">
        <g id="Store-type" transform="translate(-1064.000000, -348.000000)" stroke="#8DBA56" stroke-width="2.8">
            <g id="cat1-copy-4" transform="translate(1030.000000, 300.000000)">
                <g id="Page-1" transform="translate(34.000000, 48.000000)">
                    <path d="M48.775,13.3102 C48.775,19.1062 44.079,23.8022 38.285,23.8022 C32.489,23.8022 27.797,19.1062 27.797,13.3102 C27.797,7.5202 32.489,2.8262 38.285,2.8262 C44.079,2.8262 48.775,7.5202 48.775,13.3102 L48.775,13.3102 Z" id="Stroke-1"></path>
                    <path d="M42.3452,15.5718 C42.3452,16.5638 41.5392,17.3718 40.5412,17.3718 L36.0272,17.3718 C35.0332,17.3718 34.2232,16.5638 34.2232,15.5718 L34.2232,11.0558 C34.2232,10.0598 35.0332,9.2518 36.0272,9.2518 L40.5412,9.2518 C41.5392,9.2518 42.3452,10.0598 42.3452,11.0558 L42.3452,15.5718 L42.3452,15.5718 Z" id="Stroke-3"></path>
                    <path d="M22.3784,13.3102 C22.3784,19.1062 17.6804,23.8022 11.8864,23.8022 C6.0944,23.8022 1.4004,19.1062 1.4004,13.3102 C1.4004,7.5202 6.0944,2.8262 11.8864,2.8262 C17.6804,2.8262 22.3784,7.5202 22.3784,13.3102 L22.3784,13.3102 Z" id="Stroke-5"></path>
                    <path d="M15.9488,15.5718 C15.9488,16.5638 15.1428,17.3718 14.1448,17.3718 L9.6308,17.3718 C8.6368,17.3718 7.8268,16.5638 7.8268,15.5718 L7.8268,11.0558 C7.8268,10.0598 8.6368,9.2518 9.6308,9.2518 L14.1448,9.2518 C15.1428,9.2518 15.9488,10.0598 15.9488,11.0558 L15.9488,15.5718 L15.9488,15.5718 Z" id="Stroke-7"></path>
                    <path d="M22.3784,38.486 C22.3784,44.278 17.6804,48.974 11.8864,48.974 C6.0944,48.974 1.4004,44.278 1.4004,38.486 C1.4004,32.69 6.0944,27.998 11.8864,27.998 C17.6804,27.998 22.3784,32.69 22.3784,38.486 L22.3784,38.486 Z" id="Stroke-9"></path>
                    <path d="M15.9488,40.7398 C15.9488,41.7398 15.1428,42.5438 14.1448,42.5438 L9.6308,42.5438 C8.6368,42.5438 7.8268,41.7398 7.8268,40.7398 L7.8268,36.2318 C7.8268,35.2318 8.6368,34.4238 9.6308,34.4238 L14.1448,34.4238 C15.1428,34.4238 15.9488,35.2318 15.9488,36.2318 L15.9488,40.7398 L15.9488,40.7398 Z" id="Stroke-11"></path>
                    <path d="M48.775,38.486 C48.775,44.278 44.079,48.974 38.285,48.974 C32.489,48.974 27.797,44.278 27.797,38.486 C27.797,32.69 32.489,27.998 38.285,27.998 C44.079,27.998 48.775,32.69 48.775,38.486 L48.775,38.486 Z" id="Stroke-13"></path>
                    <path d="M42.3452,40.7398 C42.3452,41.7398 41.5392,42.5438 40.5412,42.5438 L36.0272,42.5438 C35.0332,42.5438 34.2232,41.7398 34.2232,40.7398 L34.2232,36.2318 C34.2232,35.2318 35.0332,34.4238 36.0272,34.4238 L40.5412,34.4238 C41.5392,34.4238 42.3452,35.2318 42.3452,36.2318 L42.3452,40.7398 L42.3452,40.7398 Z" id="Stroke-15"></path>
                    <path d="M58.8354,1.4 L58.8354,51.4" id="Stroke-17"></path>
                    <path d="M53.7808,4.3942 L79.2788,47.4042" id="Stroke-19"></path>
                </g>
            </g>
        </g>
    </g>
</svg>