<?xml version="1.0" encoding="UTF-8" standalone="no"?>
<svg width="60px" height="63px" viewBox="0 0 60 63" version="1.1" xmlns="http://www.w3.org/2000/svg" xmlns:xlink="http://www.w3.org/1999/xlink">
    <!-- Generator: sketchtool 39.1 (31720) - http://www.bohemiancoding.com/sketch -->
    <title>9C04D453-1069-4465-80C6-090A3A04C308</title>
    <desc>Created with sketchtool.</desc>
    <defs></defs>
    <g id="Desktop" stroke="none" stroke-width="1" fill="none" fill-rule="evenodd" stroke-linecap="round" stroke-linejoin="round">
        <g id="Store-type" transform="translate(-847.000000, -342.000000)" stroke="#D5A74F" stroke-width="2.8">
            <g id="cat1-copy-3" transform="translate(803.000000, 300.000000)">
                <g id="Page-1" transform="translate(44.000000, 42.000000)">
                    <path d="M13.7556,31.07 C8.4956,36.244 13.4656,46.812 17.5436,48.78" id="Stroke-1"></path>
                    <path d="M16.3474,14.1208 C7.4654,18.3668 1.4154,26.6728 1.3994,36.2108 C1.3794,50.0768 14.1194,61.3748 29.7994,61.4008 C45.4814,61.4248 58.2554,50.1608 58.2734,36.2948 C58.2894,26.7548 52.2614,18.4328 43.3914,14.1628" id="Stroke-3"></path>
                    <path d="M20.6052,11.195 L19.4012,11.837 C13.9572,14.755 12.9712,19.123 12.8832,21.587 C17.3272,17.099 21.8752,16.283 22.0852,16.249 L23.5252,16.019 L23.0072,17.379 C22.1392,19.685 21.8172,21.697 21.8172,23.405 C21.8172,25.813 22.4512,27.607 23.0652,28.793 C24.3832,22.455 29.0852,18.277 29.3112,18.087 L29.8632,17.601 L30.4172,18.087 C30.6392,18.281 35.3012,22.457 36.6072,28.793 C37.2192,27.603 37.8492,25.813 37.8492,23.405 C37.8492,21.697 37.5312,19.685 36.6612,17.379 L36.1452,16.019 L37.5872,16.249 C37.7932,16.283 42.3452,17.099 46.7892,21.587 C46.6992,19.123 45.7112,14.755 40.2712,11.837 L39.0632,11.195 L40.1812,10.405 C40.3132,10.311 43.1332,8.369 48.5712,7.903 C45.7152,6.139 40.0272,3.771 34.0832,7.957 L33.2712,8.525 C33.2712,8.525 30.8032,3.409 29.8352,1.399 C28.8672,3.409 26.3992,8.525 26.3992,8.525 L25.5832,7.957 C19.6432,3.773 13.9552,6.139 11.1012,7.903 C16.5392,8.369 19.3572,10.311 19.4892,10.405 L20.6052,11.195 L20.6052,11.195 Z" id="Stroke-5"></path>
                </g>
            </g>
        </g>
    </g>
</svg>