<?xml version="1.0" encoding="UTF-8" standalone="no"?>
<svg width="73px" height="53px" viewBox="0 0 73 53" version="1.1" xmlns="http://www.w3.org/2000/svg" xmlns:xlink="http://www.w3.org/1999/xlink">
    <!-- Generator: sketchtool 39.1 (31720) - http://www.bohemiancoding.com/sketch -->
    <title>E7F9E2E8-CB96-4129-BECD-9C4C695970A4</title>
    <desc>Created with sketchtool.</desc>
    <defs></defs>
    <g id="Desktop" stroke="none" stroke-width="1" fill="none" fill-rule="evenodd">
        <g id="Store-type" transform="translate(-613.000000, -348.000000)" stroke="#61B5AA">
            <g id="cat1-copy-2" transform="translate(564.000000, 300.000000)">
                <g id="Page-1" transform="translate(49.000000, 48.000000)">
                    <path d="M66.8766,40.0914 L66.8766,44.7154 C66.8766,48.1274 64.1066,50.8914 60.6926,50.8914 L12.0986,50.8914 C8.6826,50.8914 5.9226,48.1274 5.9226,44.7154 L5.9226,40.0914" id="Stroke-1" stroke-width="2.8" stroke-linecap="round" stroke-linejoin="round"></path>
                    <path d="M66.9274,21.9 C66.9274,11.784 60.1614,1.4 36.3954,1.4 C12.4054,1.4 5.8674,11.784 5.8674,21.9" id="Stroke-3" stroke-width="2.8" stroke-linecap="round" stroke-linejoin="round"></path>
                    <path d="M24.7438,17.8256 C24.7438,19.0296 23.7678,19.9996 22.5678,19.9996 C21.3638,19.9996 20.3878,19.0296 20.3878,17.8256 C20.3878,16.6256 21.3638,15.6616 22.5678,15.6616 C23.7678,15.6616 24.7438,16.6256 24.7438,17.8256 L24.7438,17.8256 Z" id="Stroke-5" stroke-width="2"></path>
                    <path d="M33.404,9.0288 C33.404,10.2288 32.428,11.2008 31.23,11.2008 C30.026,11.2008 29.058,10.2288 29.058,9.0288 C29.058,7.8288 30.026,6.8488 31.23,6.8488 C32.428,6.8488 33.404,7.8288 33.404,9.0288 L33.404,9.0288 Z" id="Stroke-7" stroke-width="2"></path>
                    <path d="M38.566,17.8256 C38.566,19.0296 37.604,19.9996 36.396,19.9996 C35.198,19.9996 34.224,19.0296 34.224,17.8256 C34.224,16.6256 35.198,15.6616 36.396,15.6616 C37.604,15.6616 38.566,16.6256 38.566,17.8256 L38.566,17.8256 Z" id="Stroke-9" stroke-width="2"></path>
                    <path d="M45.0054,9.2006 C45.0054,10.4006 44.0374,11.3706 42.8274,11.3706 C41.6314,11.3706 40.6574,10.4006 40.6574,9.2006 C40.6574,8.0006 41.6314,7.0206 42.8274,7.0206 C44.0374,7.0206 45.0054,8.0006 45.0054,9.2006 L45.0054,9.2006 Z" id="Stroke-11" stroke-width="2"></path>
                    <path d="M52.4058,17.8256 C52.4058,19.0296 51.4338,19.9996 50.2318,19.9996 C49.0298,19.9996 48.0518,19.0296 48.0518,17.8256 C48.0518,16.6256 49.0298,15.6616 50.2318,15.6616 C51.4338,15.6616 52.4058,16.6256 52.4058,17.8256 L52.4058,17.8256 Z" id="Stroke-13" stroke-width="2"></path>
                    <path d="M68.4918,35.4468 L4.3078,35.4468" id="Stroke-15" stroke-width="2.8" stroke-linecap="round" stroke-linejoin="round"></path>
                    <path d="M1.4,26.0854 C4.894,26.0854 4.894,28.8854 8.39,28.8854 C11.886,28.8854 11.886,26.0854 15.384,26.0854 C18.886,26.0854 18.886,28.8854 22.384,28.8854 C25.886,28.8854 25.886,26.0854 29.382,26.0854 C32.878,26.0854 32.878,28.8854 36.374,28.8854 C39.872,28.8854 39.872,26.0854 43.372,26.0854 C46.874,26.0854 46.874,28.8854 50.372,28.8854 C53.874,28.8854 53.874,26.0854 57.374,26.0854 C60.88,26.0854 60.88,28.8854 64.384,28.8854 C67.89,28.8854 67.89,26.0854 71.4,26.0854" id="Stroke-17" stroke-width="2.8" stroke-linecap="round" stroke-linejoin="round"></path>
                </g>
            </g>
        </g>
    </g>
</svg>