<?xml version="1.0" encoding="UTF-8"?>
<svg width="565px" height="57px" viewBox="0 0 565 57" version="1.1" xmlns="http://www.w3.org/2000/svg" xmlns:xlink="http://www.w3.org/1999/xlink">
    <!-- Generator: sketchtool 41.1 (35376) - http://www.bohemiancoding.com/sketch -->
    <title>33FE7F12-E1E2-47B6-8EF1-AF425D956803</title>
    <desc>Created with sketchtool.</desc>
    <defs>
        <polygon id="path-1" points="117.015552 0.126981118 4.26325641e-13 0.126981118 4.26325641e-13 73.4367943 117.015552 73.4367943 117.015552 0.126981118"></polygon>
        <polygon id="path-3" points="106.154806 0.0829651849 3.8397582e-13 0.0829651849 3.8397582e-13 73.8853042 106.156773 73.8853042 106.156773 0.0829651849 106.154806 28.5714649 -1.40630187e-05 28.5714649 -1.40630187e-05 0.0828939702 106.154806 0.0828939702"></polygon>
        <polygon id="path-5" points="54.0151679 15.217987 54.0151679 0.167191622 0.0924770673 0.167191622 0.0924770673 15.217987 54.0151679 15.217987"></polygon>
        <polygon id="path-7" points="84.7613209 8.3180064 84.7613209 0.0709256822 42.3809068 0.0709256822 0.000492674254 0.0709256822 0.000492674254 8.3180064 84.7613209 8.3180064"></polygon>
        <polygon id="path-9" points="84.7613209 8.4642213 84.7613209 0.217140582 0.000492674254 0.217140582 0.000492674254 8.4642213 84.7613209 8.4642213"></polygon>
        <polygon id="path-11" points="84.7613209 8.39119412 84.7613209 0.144113398 0.000492674254 0.144113398 0.000492674254 8.39119412 84.7613209 8.39119412"></polygon>
        <polygon id="path-13" points="84.7613209 8.53672311 84.7613209 0.28964239 0.000492674254 0.28964239 0.000492674254 8.53672311 84.7613209 8.53672311"></polygon>
        <polygon id="path-15" points="84.7613209 8.31803559 84.7613209 0.0709548698 0.000492674254 0.0709548698 0.000492674254 8.31803559 84.7613209 8.31803559"></polygon>
        <polygon id="path-17" points="-9.09494702e-13 0.330562994 -9.09494702e-13 18.1547467 116.233914 18.1547467 116.233914 0.330562994 -9.09494679e-13 0.330562994"></polygon>
        <polygon id="path-19" points="1.42108547e-13 170.907544 154.346937 170.907544 154.346937 -8.52651283e-14 1.42108547e-13 -8.52651283e-14"></polygon>
    </defs>
    <g id="Page-1" stroke="none" stroke-width="1" fill="none" fill-rule="evenodd" opacity="0.409646739">
        <g id="Desktop---Lo-que-quieras---Home---Step-2" transform="translate(-230.000000, -1070.000000)">
            <g id="Modal-2" transform="translate(229.000000, 1070.000000)">
                <g id="top_modal_address" transform="translate(1.000000, 0.000000)">
                    <g id="top-vector-bg" transform="translate(-25.135385, -160.117220)">
                        <g id="dj-bg" transform="translate(449.803740, 228.241588) rotate(-21.000000) translate(-449.803740, -228.241588) translate(390.803740, 190.741588)">
                            <path d="M92.7659467,10.3951451 C91.77381,10.3951451 90.8414431,10.7081221 90.1401721,11.2760559 C89.4386965,11.8439897 89.0522401,12.5992456 89.0522401,13.402741 C89.0522401,14.2059048 89.4386965,14.9611607 90.1401721,15.5290945 C90.8414431,16.0970283 91.77381,16.4100053 92.7659467,16.4100053 C93.7578787,16.4100053 94.6902456,16.0970283 95.3915166,15.5290945 C96.0929922,14.9611607 96.4794486,14.2059048 96.4794486,13.402741 C96.4794486,12.5992456 96.0929922,11.8439897 95.3915166,11.2760559 C94.6902456,10.7081221 93.7578787,10.3951451 92.7659467,10.3951451 M92.7659467,18.730809 C91.0084708,18.730809 89.3564107,18.1764684 88.1135277,17.1702343 C86.8710541,16.1638343 86.1865678,14.825891 86.1865678,13.402741 C86.1865678,11.9794252 86.8710541,10.6413161 88.1135277,9.63491611 C89.3564107,8.62868193 91.0084708,8.07434138 92.7659467,8.07434138 C94.5232179,8.07434138 96.1752779,8.62868193 97.418161,9.63491611 C98.6606346,10.6413161 99.3451209,11.9794252 99.3451209,13.402741 C99.3451209,14.825891 98.6606346,16.1638343 97.418161,17.1702343 C96.1752779,18.1764684 94.5232179,18.730809 92.7659467,18.730809" id="Fill-1" fill="#32B86B"></path>
                            <path d="M44.7011512,17.5065021 C38.3309664,17.5065021 32.341916,19.5154893 27.8374886,23.163627 C23.3330611,26.8114331 20.8524124,31.6617471 20.8524124,36.820728 C20.8524124,41.9797089 23.3330611,46.8300229 27.8374886,50.4776633 C32.341916,54.125801 38.3309664,56.1347881 44.7011512,56.1347881 C51.0711313,56.1347881 57.0601817,54.125801 61.5646092,50.4776633 C66.0690366,46.8300229 68.5496854,41.9797089 68.5496854,36.820728 C68.5496854,31.6617471 66.0690366,26.8114331 61.5646092,23.163627 C57.0601817,19.5154893 51.0711313,17.5065021 44.7011512,17.5065021 M44.7011512,58.4555919 C37.5654225,58.4555919 30.856679,56.2052411 25.8110489,52.1189688 C20.7654187,48.0325308 17.9867401,42.5995293 17.9867401,36.820728 C17.9867401,31.041761 20.7654187,25.6087595 25.8110489,21.5224872 C30.856679,17.4360492 37.5654225,15.1856984 44.7011512,15.1856984 C51.8366752,15.1856984 58.545214,17.4360492 63.5910489,21.5224872 C68.636679,25.6087595 71.4153577,31.041761 71.4153577,36.820728 C71.4153577,42.5995293 68.636679,48.0325308 63.5910489,52.1189688 C58.545214,56.2052411 51.8366752,58.4555919 44.7011512,58.4555919" id="Fill-3" fill="#32B86B"></path>
                            <path d="M44.7011512,11.4653837 C36.3385054,11.4653837 28.4761241,14.1028114 22.563014,18.8919556 C16.6494946,23.6809341 13.3928627,30.0480591 13.3928627,36.8206617 C13.3928627,43.5934301 16.6494946,49.9605551 22.5628093,54.7493678 C28.4761241,59.538512 36.3385054,62.1759397 44.7011512,62.1759397 C53.0635923,62.1759397 60.9259736,59.538512 66.8390837,54.7493678 C72.7526032,49.9605551 76.009235,43.5934301 76.009235,36.8206617 C76.009235,30.0480591 72.7526032,23.6809341 66.8392884,18.8919556 C60.9259736,14.1028114 53.0635923,11.4653837 44.7011512,11.4653837 M44.7011512,64.4967434 C35.5727568,64.4967434 26.9912965,61.6179522 20.5363697,56.3906733 C14.0818522,51.1633945 10.5271904,44.2132504 10.5271904,36.8206617 C10.5271904,29.428073 14.0818522,22.4780947 20.5365743,17.2506501 C26.9912965,12.0233713 35.5727568,9.14458002 44.7011512,9.14458002 C53.8293409,9.14458002 62.4110059,12.0233713 68.8657281,17.2506501 C75.3202455,22.4780947 78.8749073,29.428073 78.8749073,36.8206617 C78.8749073,44.2132504 75.3202455,51.1633945 68.8655234,56.3906733 C62.4110059,61.6179522 53.8293409,64.4967434 44.7011512,64.4967434" id="Fill-5" fill="#32B86B"></path>
                            <path d="M40.1216022,30.7431399 C39.5730307,30.7431399 39.0496361,30.4865253 38.81199,30.05469 L32.7836389,19.0958548 C32.4616602,18.510515 32.7867093,17.8243859 33.5094728,17.5636271 C34.232441,17.3031997 35.0794518,17.5662794 35.4014306,18.1514535 L41.4297816,29.1101229 C41.7517604,29.6956285 41.4267112,30.3815918 40.7039478,30.6425164 C40.514404,30.7108144 40.3164679,30.7431399 40.1216022,30.7431399" id="Fill-13" fill="#32B86B"></path>
                            <g id="Group-21" transform="translate(0.000000, 0.038791)">
                                <mask id="mask-2" fill="white">
                                    <use xlink:href="#path-1"></use>
                                </mask>
                                <g id="Clip-20"></g>
                            </g>
                            <path d="M84.4665708,53.7434817 L83.0965748,53.7434817 C82.3050352,53.7434817 81.6637386,53.2239532 81.6637386,52.5830798 C81.6637386,51.9422065 82.3050352,51.422678 83.0965748,51.422678 L84.4665708,51.422678 C88.252738,51.422678 91.333131,48.9279798 91.333131,45.8617007 L91.333131,13.4026083 C91.333131,12.761735 91.9746322,12.2422065 92.7659672,12.2422065 C93.5573021,12.2422065 94.1988033,12.761735 94.1988033,13.4026083 L94.1988033,45.8617007 C94.1988033,50.2077372 89.8329516,53.7434817 84.4665708,53.7434817" id="Fill-22" fill="#32B86B"></path>
                            <path d="M115.516007,28.819923 L110.19384,28.819923 C109.402505,28.819923 108.761004,28.3003945 108.761004,27.6595211 C108.761004,27.0186477 109.402505,26.4991192 110.19384,26.4991192 L115.516007,26.4991192 C116.307342,26.4991192 116.948843,27.0186477 116.948843,27.6595211 C116.948843,28.3003945 116.307342,28.819923 115.516007,28.819923" id="Fill-28" fill="#32B86B"></path>
                            <path d="M115.516007,34.7179307 L110.19384,34.7179307 C109.402505,34.7179307 108.761004,34.1984022 108.761004,33.5575288 C108.761004,32.9166554 109.402505,32.3971269 110.19384,32.3971269 L115.516007,32.3971269 C116.307342,32.3971269 116.948843,32.9166554 116.948843,33.5575288 C116.948843,34.1984022 116.307342,34.7179307 115.516007,34.7179307" id="Fill-30" fill="#32B86B"></path>
                            <path d="M115.516007,40.6159383 L110.19384,40.6159383 C109.402505,40.6159383 108.761004,40.0964099 108.761004,39.4555365 C108.761004,38.8146631 109.402505,38.2951346 110.19384,38.2951346 L115.516007,38.2951346 C116.307342,38.2951346 116.948843,38.8146631 116.948843,39.4555365 C116.948843,40.0964099 116.307342,40.6159383 115.516007,40.6159383" id="Fill-32" fill="#32B86B"></path>
                            <path d="M115.516007,46.513946 L110.19384,46.513946 C109.402505,46.513946 108.761004,45.9944175 108.761004,45.3535442 C108.761004,44.7126708 109.402505,44.1931423 110.19384,44.1931423 L115.516007,44.1931423 C116.307342,44.1931423 116.948843,44.7126708 116.948843,45.3535442 C116.948843,45.9944175 116.307342,46.513946 115.516007,46.513946" id="Fill-34" fill="#32B86B"></path>
                        </g>
                        <g id="music-bg" transform="translate(566.542771, 191.095786) rotate(27.000000) translate(-566.542771, -191.095786) translate(512.542771, 153.595786)">
                            <path d="M53.0824518,73.9803758 C35.6143513,73.9437002 22.9386387,72.5306216 15.3990951,69.780842 C9.39220547,67.5897421 8.71480648,65.2373409 8.6401291,64.7879758 C8.6310706,64.7331404 8.62643088,64.677771 8.62643088,64.6222235 L8.62643088,41.1649747 C8.62643088,40.4765061 9.31863278,39.9187165 10.1730039,39.9187165 C11.0271541,39.9187165 11.7195769,40.4765061 11.7195769,41.1649747 L11.7195769,64.4475693 C12.088987,65.1527733 16.4271243,71.4107696 53.0824518,71.4878596 C74.2740374,71.4431723 84.5744347,69.3001424 89.4821529,67.5099816 C93.4650203,66.0573787 94.3255777,64.6991354 94.4373729,64.4856692 L94.4373729,41.1649747 C94.4373729,40.4765061 95.1295748,39.9187165 95.9839459,39.9187165 C96.8380961,39.9187165 97.5305189,40.4765061 97.5305189,41.1649747 L97.5305189,64.6222235 C97.5305189,64.677771 97.5258792,64.7331404 97.5168207,64.7879758 C97.4419224,65.2373409 96.7645234,67.5897421 90.7576337,69.780842 C83.2180902,72.5306216 70.5423776,73.9437002 53.0824518,73.9803758" id="Fill-1" fill="#32B86B"></path>
                            <path d="M53.0784528,54.2174101 C41.5321804,54.2174101 30.6619814,53.4716136 22.470005,52.1172871 C13.1938808,50.5838554 8.68451575,48.5460453 8.68451575,45.8877767 C8.68451575,45.1994861 9.37693859,44.6415186 10.2310888,44.6415186 C11.085239,44.6415186 11.7776618,45.1994861 11.7776618,45.8877767 C11.7776618,46.3852118 13.856256,48.1488451 23.0915064,49.6756893 C31.0853005,50.997079 41.7347815,51.7248938 53.0784528,51.7248938 C64.4221241,51.7248938 75.071826,50.997079 83.0653992,49.6756893 C92.3006496,48.1488451 94.3792438,46.3852118 94.3792438,45.8877767 C94.3792438,45.1994861 95.0716666,44.6415186 95.9258168,44.6415186 C96.779967,44.6415186 97.4723899,45.1994861 97.4723899,45.8877767 C97.4723899,48.5460453 92.9632457,50.5838554 83.6869007,52.1172871 C75.4949242,53.4716136 64.6247252,54.2174101 53.0784528,54.2174101" id="Fill-3" fill="#32B86B"></path>
                            <path d="M53.0784528,68.8157397 C41.7504682,68.8157397 30.8654662,67.9414006 22.4291312,66.3538457 C13.3087691,64.6375702 8.68451575,62.4249279 8.68451575,59.7768074 C8.68451575,59.0885168 9.37693859,58.5305493 10.2310888,58.5305493 C11.085239,58.5305493 11.7776618,59.0885168 11.7776618,59.7768074 C11.7776618,60.2991676 13.8637679,62.1824417 23.132601,63.926669 C31.3451248,65.4722071 41.9802447,66.3232234 53.0784528,66.3232234 C64.1766609,66.3232234 74.8117808,65.4722071 83.0245255,63.926669 C92.2931377,62.1824417 94.3792438,60.2991676 94.3792438,59.7768074 C94.3792438,59.0885168 95.0716666,58.5305493 95.9258168,58.5305493 C96.779967,58.5305493 97.4723899,59.0885168 97.4723899,59.7768074 C97.4723899,62.4249279 92.8481365,64.6375702 83.7277744,66.3538457 C75.2914394,67.9414006 64.4066584,68.8157397 53.0784528,68.8157397" id="Fill-5" fill="#32B86B"></path>
                            <path d="M20.7344186,65.7560869 C19.8802684,65.7560869 19.1878456,65.1981193 19.1878456,64.5098288 L19.1878456,51.1565289 C19.1878456,50.4682383 19.8802684,49.9102707 20.7344186,49.9102707 C21.5885688,49.9102707 22.2809916,50.4682383 22.2809916,51.1565289 L22.2809916,64.5098288 C22.2809916,65.1981193 21.5885688,65.7560869 20.7344186,65.7560869" id="Fill-7" fill="#32B86B"></path>
                            <path d="M33.6589085,67.5915581 C32.8047583,67.5915581 32.1123355,67.0335905 32.1123355,66.3453 L32.1123355,52.6852425 C32.1123355,51.9969519 32.8047583,51.4389844 33.6589085,51.4389844 C34.5130587,51.4389844 35.2054815,51.9969519 35.2054815,52.6852425 L35.2054815,66.3453 C35.2054815,67.0335905 34.5130587,67.5915581 33.6589085,67.5915581" id="Fill-9" fill="#32B86B"></path>
                            <path d="M46.58331,68.4596659 C45.7291598,68.4596659 45.036737,67.9016983 45.036737,67.2134078 L45.036737,53.5533503 C45.036737,52.8650597 45.7291598,52.3070922 46.58331,52.3070922 C47.4374602,52.3070922 48.1298831,52.8650597 48.1298831,53.5533503 L48.1298831,67.2134078 C48.1298831,67.9016983 47.4374602,68.4596659 46.58331,68.4596659" id="Fill-11" fill="#32B86B"></path>
                            <path d="M59.5077999,68.4596659 C58.6536498,68.4596659 57.9612269,67.9016983 57.9612269,67.2134078 L57.9612269,53.5533503 C57.9612269,52.8650597 58.6536498,52.3070922 59.5077999,52.3070922 C60.3619501,52.3070922 61.054373,52.8650597 61.054373,53.5533503 L61.054373,67.2134078 C61.054373,67.9016983 60.3619501,68.4596659 59.5077999,68.4596659" id="Fill-13" fill="#32B86B"></path>
                            <path d="M72.4323119,67.5915581 C71.5781618,67.5915581 70.8857389,67.0335905 70.8857389,66.3453 L70.8857389,52.6852425 C70.8857389,51.9969519 71.5781618,51.4389844 72.4323119,51.4389844 C73.2864621,51.4389844 73.978885,51.9969519 73.978885,52.6852425 L73.978885,66.3453 C73.978885,67.0335905 73.2864621,67.5915581 72.4323119,67.5915581" id="Fill-15" fill="#32B86B"></path>
                            <path d="M85.3568019,65.7560869 C84.5026517,65.7560869 83.8102288,65.1981193 83.8102288,64.5098288 L83.8102288,51.1565289 C83.8102288,50.4682383 84.5026517,49.9102707 85.3568019,49.9102707 C86.210952,49.9102707 86.9033749,50.4682383 86.9033749,51.1565289 L86.9033749,64.5098288 C86.9033749,65.1981193 86.210952,65.7560869 85.3568019,65.7560869" id="Fill-17" fill="#32B86B"></path>
                            <path d="M53.0784528,34.8319003 C41.7193158,34.8319003 31.0552528,35.559715 23.0506327,36.8812828 C13.8021259,38.408127 11.7204386,40.1715823 11.7204386,40.6690173 C11.7204386,41.1664524 13.8021259,42.9299076 23.0506327,44.457108 C31.0552528,45.7784977 41.7193158,46.5063124 53.0784528,46.5063124 C64.4375899,46.5063124 75.1014319,45.7784977 83.106052,44.457108 C92.3547797,42.9299076 94.4362461,41.1664524 94.4362461,40.6690173 C94.4362461,40.1715823 92.3547797,38.408127 83.106052,36.8812828 C75.1016528,35.559715 64.4375899,34.8319003 53.0784528,34.8319003 M53.0784528,48.9988287 C41.5171566,48.9988287 30.6325965,48.2530322 22.4297941,46.8987057 C13.1421811,45.3652741 8.62729254,43.327642 8.62729254,40.6690173 C8.62729254,38.0105707 13.1421811,35.9727606 22.430015,34.439329 C30.6325965,33.0851805 41.5169356,32.339384 53.0784528,32.339384 C64.6397491,32.339384 75.5243091,33.0851805 83.7268906,34.439329 C93.0145036,35.9727606 97.5293921,38.0105707 97.5293921,40.6690173 C97.5293921,43.327642 93.0145036,45.3652741 83.7268906,46.8987057 C75.5243091,48.2530322 64.6397491,48.9988287 53.0784528,48.9988287" id="Fill-19" fill="#32B86B"></path>
                            <g id="Group-23" transform="translate(0.000000, 0.095072)">
                                <mask id="mask-4" fill="white">
                                    <use xlink:href="#path-3"></use>
                                </mask>
                                <g id="Clip-22"></g>
                                <path d="M6.86347019,23.459136 C6.61491381,23.459136 6.29300568,23.5016868 5.87940786,23.5891029 C5.1500882,23.7432828 4.30477557,24.1458242 3.7254735,24.6147734 C3.19035923,25.0481151 3.07061029,25.3797978 3.09822767,25.4645434 C3.15810214,25.6482774 4.04693975,26.0789486 5.49850901,26.0789486 C5.91453716,26.0789486 6.31399488,26.0410268 6.65379907,25.9692779 C6.97283499,25.9018019 7.22934518,25.7775322 7.43835348,25.5893472 C8.32674922,24.7896056 9.50347036,24.2825565 10.7522176,24.1616695 C17.0268853,23.5543857 26.5418445,21.9897976 35.5837733,20.0785718 L102.808884,5.86838034 C102.97724,5.66381597 103.222482,5.03214113 102.910958,4.10830777 C102.908528,4.10118629 102.906097,4.09388678 102.903888,4.08694334 C102.612911,3.15901514 102.01483,2.70555521 101.743737,2.59374805 L34.5190682,16.8035834 C26.554659,18.4872781 17.053619,21.0285765 10.3140956,23.2773603 C9.32605633,23.6069066 8.20324431,23.676341 7.09744459,23.4767616 C7.0329304,23.4650112 6.95427612,23.459136 6.86347019,23.459136 M5.49850901,28.5714649 C3.38257616,28.5714649 0.700818523,27.9234107 0.106271661,26.0969304 C-0.240160698,25.0326259 0.266673379,23.8817955 1.53331669,22.8564812 C2.50213423,22.0720507 3.83351267,21.4448268 5.09441157,21.1783055 C5.77667122,21.0339176 6.33896099,20.9666197 6.86347019,20.9666197 C7.18118048,20.9666197 7.48696006,20.9927911 7.77285513,21.0442438 C8.25759531,21.1318379 8.73106759,21.107981 9.13074625,20.9744533 C15.9882511,18.6859673 25.6459369,16.1026522 33.7342929,14.392786 L101.136818,0.145206877 C101.332349,0.103724285 101.53738,0.0828939702 101.747272,0.0828939702 C103.28081,0.0828939702 105.197898,1.24476263 105.899379,3.46541661 C106.345676,4.79748852 106.202507,6.11691982 105.506108,7.08686473 C105.075939,7.68595882 104.459962,8.09615579 103.771295,8.24161192 L36.3687696,22.4893691 C27.2000218,24.4276566 17.5255447,26.0166357 11.1211857,26.6365601 C10.6192123,26.6849862 10.1298324,26.9036155 9.74318918,27.2516775 C9.13406034,27.8002092 8.33713335,28.190288 7.43857442,28.3802533 C6.83784126,28.5071936 6.18518744,28.5714649 5.49850901,28.5714649" id="Fill-21" fill="#32B86B" mask="url(#mask-4)"></path>
                            </g>
                            <g id="Group-26" transform="translate(52.141605, 13.447838)">
                                <mask id="mask-6" fill="white">
                                    <use xlink:href="#path-5"></use>
                                </mask>
                                <g id="Clip-25"></g>
                                <path d="M48.5167473,15.217987 C47.8435461,15.217987 47.1787407,15.1547839 46.5764609,15.0273095 C45.6783439,14.8375222 44.8814169,14.4474434 44.272288,13.8990898 C43.8854239,13.5508496 43.396044,13.3322204 42.8942915,13.2837943 C36.4894907,12.6638699 26.8152345,11.0748908 17.6464867,9.1366033 L1.24706812,5.67004726 C0.420756241,5.49557112 -0.073263374,4.81404595 0.14347779,4.14836607 C0.360218954,3.48268618 1.20663628,3.08477376 2.03184346,3.2592499 L18.431262,6.72580594 C27.4734118,8.63703182 36.9883709,10.2016199 43.2630387,10.8089037 C44.511565,10.9297907 45.6885071,11.4368398 46.5769028,12.2365814 C46.786132,12.4247664 47.0424213,12.5490361 47.3612363,12.6163341 C48.097626,12.7719383 49.0819092,12.7601879 49.868894,12.586958 C50.5891551,12.4279711 50.890295,12.1942086 50.9170286,12.1117776 C50.944646,12.026854 50.8248971,11.6953493 50.2897828,11.2620075 C49.7104807,10.7930584 48.8651681,10.390517 48.1362903,10.2366932 C47.5735587,10.1175865 47.1639377,10.0793086 46.9180326,10.1239958 C45.8053838,10.3242873 44.6933978,10.255387 43.7013817,9.92459452 C36.9616373,7.67563268 27.4605973,5.13451233 19.4959671,3.45081758 L15.5614853,2.61920733 C14.7351734,2.44473119 14.2411538,1.76356209 14.457895,1.09752613 C14.6746361,0.43184625 15.5201697,0.0333997182 16.3462607,0.208409969 L20.2809634,1.04002022 C28.3693194,2.74988639 38.0267843,5.33320149 44.884731,7.62168751 C45.2852934,7.7553932 45.7545678,7.77925015 46.2426221,7.69147797 C46.9955822,7.55545779 47.8468602,7.59836468 48.9215075,7.82571777 C50.1819646,8.09206094 51.513343,8.71928486 52.4821605,9.50371534 C53.7488038,10.5290297 54.255417,11.6800381 53.9089846,12.7441645 C53.5616685,13.8111396 52.4169835,14.6089228 50.6854845,14.9909899 C50.0001317,15.1419652 49.2533579,15.217987 48.5167473,15.217987" id="Fill-24" fill="#32B86B" mask="url(#mask-6)"></path>
                            </g>
                            <path d="M38.3360768,15.8940998 C38.2061646,15.8940998 38.0740431,15.880747 37.9425844,15.8529733 L2.38554472,8.33679043 C1.69709878,8.19115627 1.08089989,7.78113734 0.650731651,7.18186521 C-0.0456680923,6.21174226 -0.188836567,4.89231096 0.257460222,3.56041708 C0.680116539,2.22282602 1.60850224,1.12967959 2.80599164,0.559961587 C3.54525355,0.208338754 4.33157547,0.0943951524 5.02002141,0.240207355 L53.2452618,10.4342429 C54.0713527,10.6088971 54.5655933,11.2902442 54.3488521,11.9559241 C54.1321109,12.621604 53.2865774,13.0200505 52.4602655,12.8450402 L4.41310196,2.68874853 C4.14200981,2.80055569 3.54392792,3.25401562 3.25295125,4.18194382 C3.25074186,4.1890653 3.24831153,4.19618677 3.2458812,4.20330825 C2.93435721,5.1271416 3.1795995,5.75881645 3.34817596,5.96355886 L38.7273597,13.4421759 C39.5536716,13.6166521 40.0476912,14.2979992 39.8309501,14.9636791 C39.6486754,15.523427 39.0220924,15.8940998 38.3360768,15.8940998" id="Fill-27" fill="#32B86B"></path>
                        </g>
                        <g id="waves-bg" transform="translate(52.090216, 226.723349) rotate(22.000000) translate(-52.090216, -226.723349) translate(9.590216, 194.723349)">
                            <g id="Group-3" transform="translate(0.000000, 0.221344)">
                                <mask id="mask-8" fill="white">
                                    <use xlink:href="#path-7"></use>
                                </mask>
                                <g id="Clip-2"></g>
                                <path d="M83.1195661,8.3180064 C79.7365362,8.3180064 78.0515903,6.45949084 76.6983783,4.96479776 C75.3862225,3.51738846 74.5634565,2.6978028 72.9359893,2.6978028 C71.3068797,2.6978028 70.4841137,3.51738846 69.171958,4.96479776 C67.818746,6.45949084 66.1338001,8.3180064 62.7491279,8.3180064 C59.3644558,8.3180064 57.6811521,6.45949084 56.3279402,4.96479776 C55.0157844,3.51738846 54.1930184,2.6978028 52.5655511,2.6978028 C50.9347993,2.6978028 50.1120333,3.51738846 48.8015198,4.96479776 C47.4466656,6.45949084 45.7617196,8.3180064 42.3770475,8.3180064 C38.9940176,8.3180064 37.3107139,6.45949084 35.9558597,4.96479776 C34.643704,3.51738846 33.8225802,2.6978028 32.1934707,2.6978028 C30.5643612,2.6978028 29.7415951,3.51738846 28.4294394,4.96479776 C27.0762274,6.45949084 25.3929237,8.3180064 22.0082516,8.3180064 C18.6235795,8.3180064 16.9386335,6.45949084 15.5854216,4.96479776 C14.2732658,3.51607503 13.4504998,2.6978028 11.8230325,2.6978028 C10.1955652,2.6978028 9.37444148,3.51607503 8.06228572,4.96479776 C6.71071602,6.45949084 5.02577007,8.3180064 1.64274019,8.3180064 C0.734577313,8.3180064 0.000492674254,7.72958593 0.000492674254,7.00456784 C0.000492674254,6.27954976 0.734577313,5.69112928 1.64274019,5.69112928 C3.27020747,5.69112928 4.09133123,4.87154362 5.40348699,3.42413433 C6.7550567,1.92944124 8.4383604,0.0709256822 11.8230325,0.0709256822 C15.2077047,0.0709256822 16.8910084,1.92944124 18.2442203,3.42282089 C19.5563761,4.87154362 20.3791421,5.69112928 22.0082516,5.69112928 C23.6357189,5.69112928 24.4584849,4.87154362 25.7706407,3.42413433 C27.1238526,1.92944124 28.8087986,0.0709256822 32.1934707,0.0709256822 C35.5781428,0.0709256822 37.2614465,1.92944124 38.6146585,3.42282089 C39.9268142,4.87154362 40.7495802,5.69112928 42.3770475,5.69112928 C44.0077993,5.69112928 44.8305653,4.87154362 46.1410788,3.42282089 C47.495933,1.92944124 49.180879,0.0709256822 52.5655511,0.0709256822 C55.948581,0.0709256822 57.6335269,1.92944124 58.9867389,3.42282089 C60.2988946,4.87154362 61.1216606,5.69112928 62.7491279,5.69112928 C64.3782375,5.69112928 65.2010035,4.87154362 66.5131592,3.42282089 C67.8663712,1.92944124 69.5513171,0.0709256822 72.9359893,0.0709256822 C76.3190191,0.0709256822 78.0039651,1.92944124 79.357177,3.42282089 C80.6693328,4.87154362 81.4920988,5.69112928 83.1195661,5.69112928 C84.027729,5.69112928 84.7618136,6.27954976 84.7618136,7.00456784 C84.7618136,7.72958593 84.027729,8.3180064 83.1195661,8.3180064" id="Fill-1" fill="#32B86B" mask="url(#mask-8)"></path>
                            </g>
                            <g id="Group-6" transform="translate(-0.000000, 18.317608)">
                                <mask id="mask-10" fill="white">
                                    <use xlink:href="#path-9"></use>
                                </mask>
                                <g id="Clip-5"></g>
                                <path d="M83.1195661,8.4642213 C79.7365362,8.4642213 78.0515903,6.60570574 76.6983783,5.11101266 C75.3862225,3.66360336 74.5634565,2.8440177 72.9359893,2.8440177 C71.3068797,2.8440177 70.4841137,3.66360336 69.171958,5.11101266 C67.818746,6.60570574 66.1338001,8.4642213 62.7491279,8.4642213 C59.3644558,8.4642213 57.6811521,6.60570574 56.3279402,5.11101266 C55.0157844,3.66360336 54.1930184,2.8440177 52.5655511,2.8440177 C50.9347993,2.8440177 50.1120333,3.66360336 48.8015198,5.11101266 C47.4466656,6.60570574 45.7617196,8.4642213 42.3770475,8.4642213 C38.9940176,8.4642213 37.3107139,6.60570574 35.9558597,5.11101266 C34.643704,3.66360336 33.8225802,2.8440177 32.1934707,2.8440177 C30.5643612,2.8440177 29.7415951,3.66360336 28.4294394,5.11101266 C27.0762274,6.60570574 25.3929237,8.4642213 22.0082516,8.4642213 C18.6235795,8.4642213 16.9386335,6.60570574 15.5854216,5.11101266 C14.2732658,3.66228992 13.4504998,2.8440177 11.8230325,2.8440177 C10.1955652,2.8440177 9.37444148,3.66228992 8.06228572,5.11101266 C6.71071602,6.60570574 5.02577007,8.4642213 1.64274019,8.4642213 C0.734577313,8.4642213 0.000492674254,7.87580083 0.000492674254,7.15078274 C0.000492674254,6.42576466 0.734577313,5.83734418 1.64274019,5.83734418 C3.27020747,5.83734418 4.09133123,5.01907196 5.40348699,3.57034923 C6.7550567,2.07565614 8.4383604,0.217140582 11.8230325,0.217140582 C15.2077047,0.217140582 16.8910084,2.07565614 18.2442203,3.57034923 C19.5563761,5.01775852 20.3791421,5.83734418 22.0082516,5.83734418 C23.6357189,5.83734418 24.4584849,5.01907196 25.7706407,3.57034923 C27.1238526,2.07565614 28.8087986,0.217140582 32.1934707,0.217140582 C35.5781428,0.217140582 37.2614465,2.07565614 38.6146585,3.57034923 C39.9268142,5.01775852 40.7495802,5.83734418 42.3770475,5.83734418 C44.0077993,5.83734418 44.8305653,5.01775852 46.1410788,3.57034923 C47.495933,2.07565614 49.180879,0.217140582 52.5655511,0.217140582 C55.948581,0.217140582 57.6335269,2.07565614 58.9867389,3.57034923 C60.2988946,5.01775852 61.1216606,5.83734418 62.7491279,5.83734418 C64.3782375,5.83734418 65.2010035,5.01775852 66.5131592,3.57034923 C67.8663712,2.07565614 69.5513171,0.217140582 72.9359893,0.217140582 C76.3190191,0.217140582 78.0039651,2.07565614 79.357177,3.57034923 C80.6693328,5.01775852 81.4920988,5.83734418 83.1195661,5.83734418 C84.027729,5.83734418 84.7618136,6.42576466 84.7618136,7.15078274 C84.7618136,7.87580083 84.027729,8.4642213 83.1195661,8.4642213" id="Fill-4" fill="#32B86B" mask="url(#mask-10)"></path>
                            </g>
                            <g id="Group-9" transform="translate(-0.000000, 27.511678)">
                                <mask id="mask-12" fill="white">
                                    <use xlink:href="#path-11"></use>
                                </mask>
                                <g id="Clip-8"></g>
                                <path d="M83.1195661,8.39119412 C79.7365362,8.39119412 78.0515903,6.53136512 76.6983783,5.03798547 C75.3862225,3.59057618 74.5634565,2.77099052 72.9359893,2.77099052 C71.3068797,2.77099052 70.4841137,3.59057618 69.171958,5.03798547 C67.818746,6.53136512 66.1338001,8.39119412 62.7491279,8.39119412 C59.3644558,8.39119412 57.6811521,6.53136512 56.3279402,5.03798547 C55.0157844,3.59057618 54.1930184,2.77099052 52.5655511,2.77099052 C50.9347993,2.77099052 50.1120333,3.59057618 48.8015198,5.03798547 C47.4466656,6.53136512 45.7617196,8.39119412 42.3770475,8.39119412 C38.9940176,8.39119412 37.3107139,6.53136512 35.9558597,5.03798547 C34.643704,3.59057618 33.8225802,2.77099052 32.1934707,2.77099052 C30.5643612,2.77099052 29.7415951,3.59057618 28.4294394,5.03798547 C27.0762274,6.53136512 25.3929237,8.39119412 22.0082516,8.39119412 C18.6235795,8.39119412 16.9386335,6.53136512 15.5854216,5.03798547 C14.2732658,3.58926274 13.4504998,2.77099052 11.8230325,2.77099052 C10.1955652,2.77099052 9.37444148,3.58926274 8.06228572,5.03798547 C6.71071602,6.53136512 5.02577007,8.39119412 1.64274019,8.39119412 C0.734577313,8.39119412 0.000492674254,7.80277364 0.000492674254,7.07775556 C0.000492674254,6.35273747 0.734577313,5.764317 1.64274019,5.764317 C3.27020747,5.764317 4.09133123,4.94473133 5.40348699,3.49732204 C6.7550567,2.00262896 8.4383604,0.144113398 11.8230325,0.144113398 C15.2077047,0.144113398 16.8910084,2.00262896 18.2442203,3.4960086 C19.5563761,4.94473133 20.3791421,5.764317 22.0082516,5.764317 C23.6357189,5.764317 24.4584849,4.94473133 25.7706407,3.49732204 C27.1238526,2.00262896 28.8087986,0.144113398 32.1934707,0.144113398 C35.5781428,0.144113398 37.2614465,2.00262896 38.6146585,3.4960086 C39.9268142,4.94473133 40.7495802,5.764317 42.3770475,5.764317 C44.0077993,5.764317 44.8305653,4.94473133 46.1410788,3.4960086 C47.495933,2.00262896 49.180879,0.144113398 52.5655511,0.144113398 C55.948581,0.144113398 57.6335269,2.00262896 58.9867389,3.4960086 C60.2988946,4.94473133 61.1216606,5.764317 62.7491279,5.764317 C64.3782375,5.764317 65.2010035,4.94473133 66.5131592,3.4960086 C67.8663712,2.00262896 69.5513171,0.144113398 72.9359893,0.144113398 C76.3190191,0.144113398 78.0039651,2.00262896 79.357177,3.4960086 C80.6693328,4.94473133 81.4920988,5.764317 83.1195661,5.764317 C84.027729,5.764317 84.7618136,6.35273747 84.7618136,7.07775556 C84.7618136,7.80277364 84.027729,8.39119412 83.1195661,8.39119412" id="Fill-7" fill="#32B86B" mask="url(#mask-12)"></path>
                            </g>
                            <g id="Group-12" transform="translate(-0.000000, 9.123538)">
                                <mask id="mask-14" fill="white">
                                    <use xlink:href="#path-13"></use>
                                </mask>
                                <g id="Clip-11"></g>
                                <path d="M83.1195661,8.53672311 C79.7365362,8.53672311 78.0515903,6.67820755 76.6983783,5.18351447 C75.3862225,3.73610517 74.5634565,2.91651951 72.9359893,2.91651951 C71.3068797,2.91651951 70.4841137,3.73610517 69.171958,5.18351447 C67.818746,6.67820755 66.1338001,8.53672311 62.7491279,8.53672311 C59.3644558,8.53672311 57.6811521,6.67820755 56.3279402,5.18351447 C55.0157844,3.73610517 54.1930184,2.91651951 52.5655511,2.91651951 C50.9347993,2.91651951 50.1120333,3.73610517 48.8015198,5.18351447 C47.4466656,6.67820755 45.7617196,8.53672311 42.3770475,8.53672311 C38.9940176,8.53672311 37.3107139,6.67820755 35.9558597,5.18351447 C34.643704,3.73610517 33.8225802,2.91651951 32.1934707,2.91651951 C30.5643612,2.91651951 29.7415951,3.73610517 28.4294394,5.18351447 C27.0762274,6.67820755 25.3929237,8.53672311 22.0082516,8.53672311 C18.6235795,8.53672311 16.9386335,6.67820755 15.5854216,5.18351447 C14.2732658,3.73479173 13.4504998,2.91651951 11.8230325,2.91651951 C10.1955652,2.91651951 9.37444148,3.73479173 8.06228572,5.18351447 C6.71071602,6.67820755 5.02577007,8.53672311 1.64274019,8.53672311 C0.734577313,8.53672311 0.000492674254,7.94830263 0.000492674254,7.22328455 C0.000492674254,6.49826646 0.734577313,5.90984599 1.64274019,5.90984599 C3.27020747,5.90984599 4.09133123,5.09026033 5.40348699,3.64285103 C6.7550567,2.14815795 8.4383604,0.28964239 11.8230325,0.28964239 C15.2077047,0.28964239 16.8910084,2.14815795 18.2442203,3.6415376 C19.5563761,5.09026033 20.3791421,5.90984599 22.0082516,5.90984599 C23.6357189,5.90984599 24.4584849,5.09026033 25.7706407,3.64285103 C27.1238526,2.14815795 28.8087986,0.28964239 32.1934707,0.28964239 C35.5781428,0.28964239 37.2614465,2.14815795 38.6146585,3.6415376 C39.9268142,5.09026033 40.7495802,5.90984599 42.3770475,5.90984599 C44.0077993,5.90984599 44.8305653,5.09026033 46.1410788,3.6415376 C47.495933,2.14815795 49.180879,0.28964239 52.5655511,0.28964239 C55.948581,0.28964239 57.6335269,2.14815795 58.9867389,3.6415376 C60.2988946,5.09026033 61.1216606,5.90984599 62.7491279,5.90984599 C64.3782375,5.90984599 65.2010035,5.09026033 66.5131592,3.6415376 C67.8663712,2.14815795 69.5513171,0.28964239 72.9359893,0.28964239 C76.3190191,0.28964239 78.0039651,2.14815795 79.357177,3.6415376 C80.6693328,5.09026033 81.4920988,5.90984599 83.1195661,5.90984599 C84.027729,5.90984599 84.7618136,6.49826646 84.7618136,7.22328455 C84.7618136,7.94830263 84.027729,8.53672311 83.1195661,8.53672311" id="Fill-10" fill="#32B86B" mask="url(#mask-14)"></path>
                            </g>
                            <g id="Group-18" transform="translate(-0.000000, 36.705748)">
                                <mask id="mask-16" fill="white">
                                    <use xlink:href="#path-15"></use>
                                </mask>
                                <g id="Clip-17"></g>
                                <path d="M83.1195661,8.31803559 C79.7365362,8.31803559 78.0515903,6.45952003 76.6983783,4.96482694 C75.3862225,3.51741765 74.5634565,2.69783199 72.9359893,2.69783199 C71.3068797,2.69783199 70.4841137,3.51741765 69.171958,4.96482694 C67.818746,6.45952003 66.1338001,8.31803559 62.7491279,8.31803559 C59.3644558,8.31803559 57.6811521,6.45952003 56.3279402,4.96482694 C55.0157844,3.51741765 54.1930184,2.69783199 52.5655511,2.69783199 C50.9347993,2.69783199 50.1120333,3.51741765 48.8015198,4.96482694 C47.4466656,6.45952003 45.7617196,8.31803559 42.3770475,8.31803559 C38.9940176,8.31803559 37.3107139,6.45952003 35.9558597,4.96482694 C34.643704,3.51741765 33.8225802,2.69783199 32.1934707,2.69783199 C30.5643612,2.69783199 29.7415951,3.51741765 28.4294394,4.96482694 C27.0762274,6.45952003 25.3929237,8.31803559 22.0082516,8.31803559 C18.6235795,8.31803559 16.9386335,6.45952003 15.5854216,4.96482694 C14.2732658,3.51610421 13.4504998,2.69783199 11.8230325,2.69783199 C10.1955652,2.69783199 9.37444148,3.51610421 8.06228572,4.96482694 C6.71071602,6.45952003 5.02577007,8.31803559 1.64274019,8.31803559 C0.734577313,8.31803559 0.000492674254,7.72961511 0.000492674254,7.00459703 C0.000492674254,6.27957894 0.734577313,5.69115847 1.64274019,5.69115847 C3.27020747,5.69115847 4.09133123,4.87288625 5.40348699,3.42416351 C6.7550567,1.92947043 8.4383604,0.0709548698 11.8230325,0.0709548698 C15.2077047,0.0709548698 16.8910084,1.92947043 18.2442203,3.42285008 C19.5563761,4.87157281 20.3791421,5.69115847 22.0082516,5.69115847 C23.6357189,5.69115847 24.4584849,4.87288625 25.7706407,3.42416351 C27.1238526,1.92947043 28.8087986,0.0709548698 32.1934707,0.0709548698 C35.5781428,0.0709548698 37.2614465,1.92947043 38.6146585,3.42285008 C39.9268142,4.87157281 40.7495802,5.69115847 42.3770475,5.69115847 C44.0077993,5.69115847 44.8305653,4.87157281 46.1410788,3.42285008 C47.495933,1.92947043 49.180879,0.0709548698 52.5655511,0.0709548698 C55.948581,0.0709548698 57.6335269,1.92947043 58.9867389,3.42285008 C60.2988946,4.87157281 61.1216606,5.69115847 62.7491279,5.69115847 C64.3782375,5.69115847 65.2010035,4.87157281 66.5131592,3.42285008 C67.8663712,1.92947043 69.5513171,0.0709548698 72.9359893,0.0709548698 C76.3190191,0.0709548698 78.0039651,1.92947043 79.357177,3.42285008 C80.6693328,4.87157281 81.4920988,5.69115847 83.1195661,5.69115847 C84.027729,5.69115847 84.7618136,6.27957894 84.7618136,7.00459703 C84.7618136,7.72961511 84.027729,8.31803559 83.1195661,8.31803559" id="Fill-16" mask="url(#mask-16)"></path>
                            </g>
                        </g>
                        <g id="diamond-bg" transform="translate(296.656208, 239.550166) rotate(-9.000000) translate(-296.656208, -239.550166) translate(238.156208, 207.550166)">
                            <path d="M58.1003168,63.5268775 C57.6952374,63.5268775 57.2884772,63.4093019 56.9674392,63.1727994 C56.3035124,62.6862798 56.2345985,61.8646024 56.8094414,61.3105107 L103.825543,15.9466186 C104.420555,15.3736067 105.479477,15.295223 106.192147,15.7736338 C106.906499,16.2520447 107.002306,17.1034539 106.407293,17.6778172 L83.1143886,40.1523168 L113.330621,15.8574233 C113.987824,15.329009 115.051788,15.329009 115.707311,15.8574233 C116.364514,16.3844861 116.364514,17.2399497 115.707311,17.7683639 L59.2886617,63.1309046 C58.9609003,63.3944361 58.5306085,63.5268775 58.1003168,63.5268775" id="Fill-3" fill="#32B86B"></path>
                            <g id="Group-9" transform="translate(0.000000, 0.009050)">
                                <mask id="mask-18" fill="white">
                                    <use xlink:href="#path-17"></use>
                                </mask>
                                <g id="Clip-8"></g>
                                <path d="M7.23226369,15.4518604 L108.967697,15.4518604 L85.8008548,3.03344929 L30.3991063,3.03344929 L7.23226369,15.4518604 Z M114.553087,18.1547467 C114.541321,18.1547467 114.531236,18.1533952 114.51947,18.1547467 L1.68049113,18.1547467 C0.940927121,18.1547467 0.287085302,17.7641796 0.0719394083,17.195222 C-0.143206486,16.624913 0.132449191,16.0100064 0.749312809,15.6789028 L28.9586373,0.557605443 C29.234293,0.41029814 29.5586927,0.330562994 29.8898157,0.330562994 L86.3101455,0.330562994 C86.6412685,0.330562994 86.967349,0.41029814 87.2430047,0.557605443 L115.265757,15.578896 C115.837239,15.7937755 116.233914,16.2613748 116.233914,16.8033035 C116.233914,17.5493001 115.480903,18.1547467 114.553087,18.1547467 L114.553087,18.1547467 Z" id="Fill-7" fill="#32B86B" mask="url(#mask-18)"></path>
                            </g>
                            <path d="M105.116754,18.1637962 C104.686462,18.1637962 104.25617,18.0313548 103.928409,17.7678234 L87.9908047,4.95343942 L87.9908047,16.812353 C87.9908047,17.3110356 87.6495968,17.7691748 87.1033279,18.0043259 C86.5570591,18.2381256 85.8931323,18.2137996 85.3771183,17.9367537 L58.1006529,3.31549033 L30.8225067,17.9367537 C30.3064927,18.2124481 29.642566,18.2381256 29.0979779,18.0043259 C28.551709,17.7691748 28.2105011,17.3110356 28.2105011,16.812353 L28.2105011,4.95343942 L12.2728967,17.7678234 C11.6156932,18.2962376 10.5517295,18.2962376 9.89620687,17.7678234 C9.2390034,17.2394091 9.2390034,16.385297 9.89620687,15.8568827 L28.7029835,0.735585356 C29.1837001,0.347721172 29.9064558,0.232848505 30.5334044,0.442322192 C31.1620338,0.65179588 31.5721557,1.14507263 31.5721557,1.69105566 L31.5721557,14.2865058 L57.1677938,0.566654962 C57.7325517,0.263931697 58.4687541,0.263931697 59.0335121,0.566654962 L84.6291501,14.2865058 L84.6291501,1.69105566 C84.6291501,1.14507263 85.039272,0.65179588 85.6662206,0.442322192 C86.29485,0.232848505 87.0176057,0.347721172 87.4983223,0.735585356 L106.305099,15.8568827 C106.962302,16.385297 106.962302,17.2394091 106.305099,17.7678234 C105.977338,18.0313548 105.547046,18.1637962 105.116754,18.1637962" id="Fill-10" fill="#32B86B"></path>
                        </g>
                        <g id="vaccuum" transform="translate(129.083994, 114.010704) rotate(308.000000) translate(-129.083994, -114.010704) translate(51.583994, 28.510704)">
                            <path d="M81.6087252,27.8886788 C43.4566461,27.8886788 12.418719,52.9098293 12.418719,83.6660363 L12.418719,140.873582 C12.418719,155.857669 27.5393965,168.047167 46.1266707,168.047167 L125.961293,168.047167 C139.657366,168.047167 150.798731,159.065582 150.798731,148.024526 L150.798731,83.6660363 C150.798731,52.9098293 119.760804,27.8886788 81.6087252,27.8886788 M125.961293,170.907544 L46.1266707,170.907544 C25.5825612,170.907544 8.8705136,157.435167 8.8705136,140.873582 L8.8705136,83.6660363 C8.8705136,51.3337614 41.5015849,25.0283015 81.6087252,25.0283015 C121.715865,25.0283015 154.346937,51.3337614 154.346937,83.6660363 L154.346937,148.024526 C154.346937,160.64165 141.612427,170.907544 125.961293,170.907544" id="Fill-3" fill="#32B86B"></path>
                            <path d="M46.1266707,113.699998 C27.5393965,113.699998 12.418719,125.889496 12.418719,140.873582 C12.418719,155.857669 27.5393965,168.047167 46.1266707,168.047167 C64.7139449,168.047167 79.8346224,155.857669 79.8346224,140.873582 C79.8346224,125.889496 64.7139449,113.699998 46.1266707,113.699998 M46.1266707,170.907544 C25.5825612,170.907544 8.8705136,157.435167 8.8705136,140.873582 C8.8705136,124.311998 25.5825612,110.839621 46.1266707,110.839621 C66.6707802,110.839621 83.3828279,124.311998 83.3828279,140.873582 C83.3828279,157.435167 66.6707802,170.907544 46.1266707,170.907544" id="Fill-7" fill="#32B86B"></path>
                            <path d="M92.2533415,140.873582 L88.705136,140.873582 C88.705136,121.947896 69.603372,106.549055 46.1266707,106.549055 C22.6499694,106.549055 3.54820544,121.947896 3.54820544,140.873582 L4.12114787e-13,140.873582 C4.12114787e-13,120.370398 20.6931341,103.688677 46.1266707,103.688677 C71.5602073,103.688677 92.2533415,120.370398 92.2533415,140.873582" id="Fill-9" fill="#32B86B"></path>
                            <path d="M46.1266707,120.850941 C32.4305977,120.850941 21.2892326,129.832526 21.2892326,140.873582 C21.2892326,151.914639 32.4305977,160.896224 46.1266707,160.896224 C59.8227437,160.896224 70.9641088,151.914639 70.9641088,140.873582 C70.9641088,129.832526 59.8227437,120.850941 46.1266707,120.850941 M46.1266707,163.756601 C30.4755365,163.756601 17.7410272,153.490707 17.7410272,140.873582 C17.7410272,128.256458 30.4755365,117.990564 46.1266707,117.990564 C61.7778049,117.990564 74.5123143,128.256458 74.5123143,140.873582 C74.5123143,153.490707 61.7778049,163.756601 46.1266707,163.756601" id="Fill-13" fill="#32B86B"></path>
                            <path d="M101.123855,169.477356 L97.5756496,169.477356 L97.5756496,69.3641497 C97.5721014,68.2557535 97.1214793,42.1905653 63.8676979,42.1905653 L34.6890305,42.1905653 L34.6890305,39.330188 L63.8676979,39.330188 C100.69807,39.330188 101.123855,69.0638101 101.123855,69.3641497 L101.123855,169.477356 Z" id="Fill-15" fill="#32B86B"></path>
                            <mask id="mask-20" fill="white">
                                <use xlink:href="#path-19"></use>
                            </mask>
                            <g id="Clip-24"></g>
                        </g>
                    </g>
                </g>
            </g>
        </g>
    </g>
</svg>