<?xml version="1.0" encoding="UTF-8"?>
<svg width="911px" height="113px" viewBox="0 0 911 113" version="1.1" xmlns="http://www.w3.org/2000/svg" xmlns:xlink="http://www.w3.org/1999/xlink">
    <!-- Generator: sketchtool 39 (31667) - http://www.bohemiancoding.com/sketch -->
    <title>009C08FC-AE05-4823-AE39-F65BBBA9F4B3</title>
    <desc>Created with sketchtool.</desc>
    <defs>
        <polygon id="path-1" points="188.476108 0.253293914 2.1396751e-13 0.253293914 2.1396751e-13 146.487079 188.476108 146.487079 188.476108 0.253293914"></polygon>
        <polygon id="path-3" points="170.982781 0.165493711 -2.70381648e-13 0.165493711 -2.70381648e-13 147.381738 170.98595 147.381738 170.98595 0.165493711 170.982781 56.9925537 -2.26512039e-05 56.9925537 -2.26512039e-05 0.165351656 170.982781 0.165351656"></polygon>
        <polygon id="path-5" points="87.0018422 30.3558793 87.0018422 0.333503288 0.148952147 0.333503288 0.148952147 30.3558793 87.0018422 30.3558793"></polygon>
        <polygon id="path-7" points="136.52445 16.5922338 136.52445 0.141478071 68.2626215 0.141478071 0.000793546875 0.141478071 0.000793546875 16.5922338 136.52445 16.5922338"></polygon>
        <polygon id="path-9" points="136.52445 16.8838941 136.52445 0.433138318 0.000793546875 0.433138318 0.000793546875 16.8838941 136.52445 16.8838941"></polygon>
        <polygon id="path-11" points="136.52445 16.7382241 136.52445 0.287468304 0.000793546875 0.287468304 0.000793546875 16.7382241 136.52445 16.7382241"></polygon>
        <polygon id="path-13" points="136.52445 17.0285161 136.52445 0.577760346 0.000793546875 0.577760346 0.000793546875 17.0285161 136.52445 17.0285161"></polygon>
        <polygon id="path-15" points="-5.1159077e-13 0.659386183 -5.1159077e-13 36.213942 187.217128 36.213942 187.217128 0.659386183 -5.11590733e-13 0.659386183"></polygon>
        <polygon id="path-17" points="1.70530257e-13 340.915575 248.6055 340.915575 248.6055 4.40536496e-13 1.70530257e-13 4.40536496e-13"></polygon>
    </defs>
    <g id="Page-1" stroke="none" stroke-width="1" fill="none" fill-rule="evenodd" opacity="0.409646739">
        <g id="Antojos---Mom---Step-2" transform="translate(-520.000000, -560.000000)">
            <g id="Modal-2" transform="translate(492.645125, 560.381250)">
                <g id="top_modal_address" transform="translate(28.000000, 0.000000)">
                    <g id="top-vector-bg" transform="translate(-43.811625, -295.454875)">
                        <g id="dj-bg" transform="translate(727.086454, 430.827502) rotate(-21.000000) translate(-727.086454, -430.827502) translate(632.586454, 356.827502)">
                            <path d="M149.417443,20.7355789 C147.819415,20.7355789 146.317658,21.3598856 145.188126,22.4927641 C144.058265,23.6256426 143.435802,25.1321793 143.435802,26.7349412 C143.435802,28.3370417 144.058265,29.8435784 145.188126,30.9764569 C146.317658,32.1093354 147.819415,32.7336421 149.417443,32.7336421 C151.01514,32.7336421 152.516897,32.1093354 153.646429,30.9764569 C154.776291,29.8435784 155.398753,28.3370417 155.398753,26.7349412 C155.398753,25.1321793 154.776291,23.6256426 153.646429,22.4927641 C152.516897,21.3598856 151.01514,20.7355789 149.417443,20.7355789 M149.417443,37.3630348 C146.586689,37.3630348 143.925728,36.2572713 141.923825,34.2500989 C139.922582,32.2425958 138.820084,29.5737509 138.820084,26.7349412 C138.820084,23.8958008 139.922582,21.2266252 141.923825,19.2191221 C143.925728,17.2119497 146.586689,16.1061862 149.417443,16.1061862 C152.247867,16.1061862 154.908828,17.2119497 156.910731,19.2191221 C158.911974,21.2266252 160.014471,23.8958008 160.014471,26.7349412 C160.014471,29.5737509 158.911974,32.2425958 156.910731,34.2500989 C154.908828,36.2572713 152.247867,37.3630348 149.417443,37.3630348" id="Fill-1" fill="#32B86B"></path>
                            <path d="M71.9998225,34.9208648 C61.7394117,34.9208648 52.0928913,38.9282655 44.8376425,46.2053401 C37.5823936,53.4817534 33.5868305,63.1568535 33.5868305,73.4476627 C33.5868305,83.738472 37.5823936,93.413572 44.8376425,100.689655 C52.0928913,107.966729 61.7394117,111.97413 71.9998225,111.97413 C82.2599036,111.97413 91.906424,107.966729 99.1616729,100.689655 C106.416922,93.413572 110.412485,83.738472 110.412485,73.4476627 C110.412485,63.1568535 106.416922,53.4817534 99.1616729,46.2053401 C91.906424,38.9282655 82.2599036,34.9208648 71.9998225,34.9208648 M71.9998225,116.603523 C60.5063557,116.603523 49.7006308,112.114665 41.5736707,103.963627 C33.4467105,95.8122588 28.9711128,84.9748505 28.9711128,73.4476627 C28.9711128,61.9201443 33.4467105,51.082736 41.5736707,42.9316982 C49.7006308,34.7803296 60.5063557,30.2914721 71.9998225,30.2914721 C83.4929597,30.2914721 94.2983548,34.7803296 102.425645,42.9316982 C110.552605,51.082736 115.028203,61.9201443 115.028203,73.4476627 C115.028203,84.9748505 110.552605,95.8122588 102.425645,103.963627 C94.2983548,112.114665 83.4929597,116.603523 71.9998225,116.603523" id="Fill-3" fill="#32B86B"></path>
                            <path d="M71.9998225,22.8704234 C58.5301691,22.8704234 45.8662881,28.1313975 36.3420843,37.6844799 C26.8172211,47.2372318 21.5717876,59.9379706 21.5717876,73.4475305 C21.5717876,86.957421 26.8172211,99.6581598 36.3417546,109.210581 C45.8662881,118.763663 58.5301691,124.024638 71.9998225,124.024638 C85.4691462,124.024638 98.1330272,118.763663 107.657231,109.210581 C117.182094,99.6581598 122.427528,86.957421 122.427528,73.4475305 C122.427528,59.9379706 117.182094,47.2372318 107.657561,37.6844799 C98.1330272,28.1313975 85.4691462,22.8704234 71.9998225,22.8704234 M71.9998225,128.65403 C57.2967834,128.65403 43.474687,122.911599 33.0777828,112.484554 C22.681538,102.057508 16.9560699,88.1937995 16.9560699,73.4475305 C16.9560699,58.7012614 22.681538,44.8378837 33.0781125,34.4105073 C43.474687,23.9834616 57.2967834,18.2410307 71.9998225,18.2410307 C86.7025319,18.2410307 100.524958,23.9834616 110.921533,34.4105073 C121.317777,44.8378837 127.043245,58.7012614 127.043245,73.4475305 C127.043245,88.1937995 121.317777,102.057508 110.921203,112.484554 C100.524958,122.911599 86.7025319,128.65403 71.9998225,128.65403" id="Fill-5" fill="#32B86B"></path>
                            <path d="M64.6235759,61.3244737 C63.7399956,61.3244737 62.8969678,60.8125951 62.5141929,59.9511974 L52.8043713,38.0912052 C52.2857624,36.9236062 52.8093167,35.5549593 53.9734666,35.034814 C55.1379463,34.51533 56.5022206,35.0401047 57.0208294,36.207373 L66.730651,58.0670346 C67.2492599,59.2349642 66.7257056,60.6032805 65.5615557,61.1237565 C65.2562589,61.2599929 64.9374447,61.3244737 64.6235759,61.3244737" id="Fill-13" fill="#32B86B"></path>
                            <g id="Group-21" transform="translate(0.000000, 0.077377)">
                                <mask id="mask-2" fill="white">
                                    <use xlink:href="#path-1"></use>
                                </mask>
                                <g id="Clip-20"></g>
                            </g>
                            <path d="M136.049698,107.204103 L133.843055,107.204103 C132.568128,107.204103 131.535196,106.16778 131.535196,104.889407 C131.535196,103.611033 132.568128,102.57471 133.843055,102.57471 L136.049698,102.57471 C142.14805,102.57471 147.109617,97.5984438 147.109617,91.4820241 L147.109617,26.7346766 C147.109617,25.4563029 148.142878,24.4199803 149.417476,24.4199803 C150.692073,24.4199803 151.725334,25.4563029 151.725334,26.7346766 L151.725334,91.4820241 C151.725334,100.151223 144.693288,107.204103 136.049698,107.204103" id="Fill-22" fill="#32B86B"></path>
                            <path d="M186.060801,57.4881621 L177.488425,57.4881621 C176.213827,57.4881621 175.180566,56.4518395 175.180566,55.1734658 C175.180566,53.8950921 176.213827,52.8587694 177.488425,52.8587694 L186.060801,52.8587694 C187.335399,52.8587694 188.36866,53.8950921 188.36866,55.1734658 C188.36866,56.4518395 187.335399,57.4881621 186.060801,57.4881621" id="Fill-28" fill="#32B86B"></path>
                            <path d="M186.060801,69.2531354 L177.488425,69.2531354 C176.213827,69.2531354 175.180566,68.2168127 175.180566,66.938439 C175.180566,65.6600653 176.213827,64.6237427 177.488425,64.6237427 L186.060801,64.6237427 C187.335399,64.6237427 188.36866,65.6600653 188.36866,66.938439 C188.36866,68.2168127 187.335399,69.2531354 186.060801,69.2531354" id="Fill-30" fill="#32B86B"></path>
                            <path d="M186.060801,81.0181086 L177.488425,81.0181086 C176.213827,81.0181086 175.180566,79.981786 175.180566,78.7034122 C175.180566,77.4250385 176.213827,76.3887159 177.488425,76.3887159 L186.060801,76.3887159 C187.335399,76.3887159 188.36866,77.4250385 188.36866,78.7034122 C188.36866,79.981786 187.335399,81.0181086 186.060801,81.0181086" id="Fill-32" fill="#32B86B"></path>
                        </g>
                        <g id="music-bg" transform="translate(915.096275, 356.438170) rotate(27.000000) translate(-915.096275, -356.438170) translate(829.096275, 281.938170)">
                            <path d="M85.499523,147.571381 C57.3637792,147.498223 36.9471002,144.679503 24.8032117,139.194416 C15.1279578,134.823749 14.0368761,130.131327 13.9165938,129.234962 C13.9020033,129.12558 13.8945301,129.015133 13.8945301,128.90433 L13.8945301,82.1132916 C13.8945301,80.7399779 15.0094548,79.6273345 16.3855842,79.6273345 C17.7613578,79.6273345 18.8766382,80.7399779 18.8766382,82.1132916 L18.8766382,128.555941 C19.4716443,129.962637 26.4590509,142.445693 85.499523,142.599467 C119.632657,142.510328 136.223433,138.235547 144.12826,134.664648 C150.543435,131.767087 151.929529,129.057749 152.109597,128.63194 L152.109597,82.1132916 C152.109597,80.7399779 153.224521,79.6273345 154.600651,79.6273345 C155.976424,79.6273345 157.091705,80.7399779 157.091705,82.1132916 L157.091705,128.90433 C157.091705,129.015133 157.084232,129.12558 157.069641,129.234962 C156.949003,130.131327 155.857921,134.823749 146.182667,139.194416 C134.038779,144.679503 113.6221,147.498223 85.499523,147.571381" id="Fill-1" fill="#32B86B"></path>
                            <path d="M85.4930819,108.149465 C66.8955841,108.149465 49.3870327,106.661798 36.1922752,103.960273 C21.2512889,100.90148 13.988087,96.8365852 13.988087,91.5340388 C13.988087,90.1610803 15.1033675,89.0480818 16.4791411,89.0480818 C17.8549146,89.0480818 18.9701951,90.1610803 18.9701951,91.5340388 C18.9701951,92.5262908 22.3181718,96.0442751 37.1933231,99.0899276 C50.0688698,101.725752 67.2219121,103.177551 85.4930819,103.177551 C103.764252,103.177551 120.91765,101.725752 133.792841,99.0899276 C148.667992,96.0442751 152.015969,92.5262908 152.015969,91.5340388 C152.015969,90.1610803 153.131249,89.0480818 154.507023,89.0480818 C155.882796,89.0480818 156.998077,90.1610803 156.998077,91.5340388 C156.998077,96.8365852 149.735231,100.90148 134.793889,103.960273 C121.599131,106.661798 104.09058,108.149465 85.4930819,108.149465" id="Fill-3" fill="#32B86B"></path>
                            <path d="M85.4930819,137.269291 C67.2471785,137.269291 49.7147842,135.525215 36.1264402,132.358461 C21.4363386,128.934943 13.988087,124.521304 13.988087,119.239 C13.988087,117.866041 15.1033675,116.753043 16.4791411,116.753043 C17.8549146,116.753043 18.9701951,117.866041 18.9701951,119.239 C18.9701951,120.280971 22.3302712,124.037607 37.259514,127.516882 C50.4873669,130.599824 67.617278,132.297377 85.4930819,132.297377 C103.368886,132.297377 120.498797,130.599824 133.727006,127.516882 C148.655893,124.037607 152.015969,120.280971 152.015969,119.239 C152.015969,117.866041 153.131249,116.753043 154.507023,116.753043 C155.882796,116.753043 156.998077,117.866041 156.998077,119.239 C156.998077,124.521304 149.549825,128.934943 134.859724,132.358461 C121.27138,135.525215 103.739341,137.269291 85.4930819,137.269291" id="Fill-5" fill="#32B86B"></path>
                            <path d="M33.3967788,131.166089 C32.0210052,131.166089 30.9057247,130.053091 30.9057247,128.680132 L30.9057247,102.043813 C30.9057247,100.670854 32.0210052,99.5578558 33.3967788,99.5578558 C34.7725524,99.5578558 35.8878329,100.670854 35.8878329,102.043813 L35.8878329,128.680132 C35.8878329,130.053091 34.7725524,131.166089 33.3967788,131.166089" id="Fill-7" fill="#32B86B"></path>
                            <path d="M54.2141617,134.827371 C52.8383881,134.827371 51.7231076,133.714373 51.7231076,132.341414 L51.7231076,105.093194 C51.7231076,103.720236 52.8383881,102.607237 54.2141617,102.607237 C55.5899352,102.607237 56.7052157,103.720236 56.7052157,105.093194 L56.7052157,132.341414 C56.7052157,133.714373 55.5899352,134.827371 54.2141617,134.827371" id="Fill-9" fill="#32B86B"></path>
                            <path d="M75.0314022,136.559018 C73.6556286,136.559018 72.5403481,135.446019 72.5403481,134.073061 L72.5403481,106.824841 C72.5403481,105.451882 73.6556286,104.338884 75.0314022,104.338884 C76.4071758,104.338884 77.5224562,105.451882 77.5224562,106.824841 L77.5224562,134.073061 C77.5224562,135.446019 76.4071758,136.559018 75.0314022,136.559018" id="Fill-11" fill="#32B86B"></path>
                            <path d="M95.848785,136.559018 C94.4730115,136.559018 93.357731,135.446019 93.357731,134.073061 L93.357731,106.824841 C93.357731,105.451882 94.4730115,104.338884 95.848785,104.338884 C97.2245586,104.338884 98.3398391,105.451882 98.3398391,106.824841 L98.3398391,134.073061 C98.3398391,135.446019 97.2245586,136.559018 95.848785,136.559018" id="Fill-13" fill="#32B86B"></path>
                            <path d="M116.666204,134.827371 C115.29043,134.827371 114.175149,133.714373 114.175149,132.341414 L114.175149,105.093194 C114.175149,103.720236 115.29043,102.607237 116.666204,102.607237 C118.041977,102.607237 119.157258,103.720236 119.157258,105.093194 L119.157258,132.341414 C119.157258,133.714373 118.041977,134.827371 116.666204,134.827371" id="Fill-15" fill="#32B86B"></path>
                            <path d="M137.483586,131.166089 C136.107813,131.166089 134.992532,130.053091 134.992532,128.680132 L134.992532,102.043813 C134.992532,100.670854 136.107813,99.5578558 137.483586,99.5578558 C138.85936,99.5578558 139.97464,100.670854 139.97464,102.043813 L139.97464,128.680132 C139.97464,130.053091 138.85936,131.166089 137.483586,131.166089" id="Fill-17" fill="#32B86B"></path>
                            <path d="M85.4930819,69.4804747 C67.1970016,69.4804747 50.0204722,70.9322737 37.1274881,73.5684535 C22.2309849,76.614106 18.8780261,80.1317352 18.8780261,81.1239872 C18.8780261,82.1162392 22.2309849,85.6338684 37.1274881,88.6802312 C50.0204722,91.3160559 67.1970016,92.7678548 85.4930819,92.7678548 C103.789162,92.7678548 120.965336,91.3160559 133.85832,88.6802312 C148.755179,85.6338684 152.107782,82.1162392 152.107782,81.1239872 C152.107782,80.1317352 148.755179,76.614106 133.85832,73.5684535 C120.965692,70.9322737 103.789162,69.4804747 85.4930819,69.4804747 M85.4930819,97.7397689 C66.8713852,97.7397689 49.3397027,96.2521012 36.1275078,93.5505761 C21.1680165,90.4917836 13.895918,86.4272438 13.895918,81.1239872 C13.895918,75.8210857 21.1680165,71.7561908 36.1278637,68.6973983 C49.3397027,65.9962284 66.8710294,64.5085607 85.4930819,64.5085607 C104.114779,64.5085607 121.646461,65.9962284 134.8583,68.6973983 C149.817791,71.7561908 157.08989,75.8210857 157.08989,81.1239872 C157.08989,86.4272438 149.817791,90.4917836 134.8583,93.5505761 C121.646461,96.2521012 104.114779,97.7397689 85.4930819,97.7397689" id="Fill-19" fill="#32B86B"></path>
                            <g id="Group-23" transform="translate(0.000000, 0.189643)">
                                <mask id="mask-4" fill="white">
                                    <use xlink:href="#path-3"></use>
                                </mask>
                                <g id="Clip-22"></g>
                                <path d="M11.054942,46.7948028 C10.6545941,46.7948028 10.1360989,46.8796805 9.46991992,47.0540526 C8.29521,47.361601 6.93367103,48.1645652 6.00059335,49.0999953 C5.13868865,49.964398 4.94580989,50.6260177 4.990293,50.7950628 C5.08673238,51.1615639 6.51837673,52.0206396 8.85640889,52.0206396 C9.52650243,52.0206396 10.1699061,51.9449955 10.7172263,51.8018754 C11.2310951,51.6672786 11.6442542,51.4193932 11.9809024,51.0440137 C13.411835,49.4487395 15.3071713,48.4373102 17.3185195,48.1961723 C27.4250817,46.984801 42.7507579,43.8638595 57.3145275,40.0514668 L165.59353,11.7058745 C165.864699,11.2978224 166.259709,10.0377973 165.75794,8.19499287 C165.754025,8.1807874 165.750111,8.16622679 165.746552,8.15237646 C165.277878,6.30140388 164.314552,5.39687066 163.877905,5.1738448 L55.5996148,33.5187269 C42.7713981,36.8772548 27.4681413,41.9464763 16.6128395,46.4322082 C15.0214118,47.0895663 13.2129066,47.2280696 11.4318029,46.8299614 C11.3278904,46.8065223 11.2012025,46.7948028 11.054942,46.7948028 M8.85640889,56.9925537 C5.44829108,56.9925537 1.12880335,55.6998561 0.171171,52.0565085 C-0.386825108,49.9335011 0.429528892,47.6378974 2.46970216,45.592665 C4.03016959,44.0279327 6.17461127,42.776786 8.20553205,42.2451463 C9.30444276,41.9571304 10.2101188,41.8228888 11.054942,41.8228888 C11.5666757,41.8228888 12.0591927,41.8750939 12.5196818,41.9777284 C13.3004493,42.1524556 14.0630677,42.1048673 14.7068273,41.8385148 C25.7521609,37.2735874 41.3077259,32.1205536 54.3355828,28.7098206 L162.900345,0.289649508 C163.215285,0.206902652 163.545528,0.165351656 163.883599,0.165351656 C166.353657,0.165351656 169.441497,2.48297388 170.571368,6.91259418 C171.290215,9.56972711 171.059614,12.2016453 169.937928,14.1364302 C169.245059,15.3314652 168.252908,16.1497002 167.143677,16.4398469 L58.5789154,44.8603731 C43.8108794,48.7267466 28.2282687,51.8963418 17.9128138,53.1329278 C17.1042889,53.229525 16.3160482,53.6656329 15.6932847,54.3599252 C14.7121652,55.4541014 13.4285607,56.232206 11.9812583,56.6111369 C11.0136617,56.8643494 9.96243689,56.9925537 8.85640889,56.9925537" id="Fill-21" fill="#32B86B" mask="url(#mask-4)"></path>
                            </g>
                            <g id="Group-26" transform="translate(83.984108, 26.824897)">
                                <mask id="mask-6" fill="white">
                                    <use xlink:href="#path-5"></use>
                                </mask>
                                <g id="Clip-25"></g>
                                <path d="M78.1455756,30.3558793 C77.0612554,30.3558793 75.990458,30.2298057 75.0203704,29.9755278 C73.5737797,29.5969521 72.2901751,28.8188475 71.3090557,27.7250264 C70.6859363,27.030379 69.8976956,26.5942711 69.0895265,26.4976739 C58.77336,25.2610879 43.1911051,22.0914927 28.4230691,18.2251192 L2.00864364,11.3102522 C0.677709049,10.9622182 -0.118004789,9.60275482 0.231098643,8.27489863 C0.580202076,6.94704244 1.94352037,6.15331187 3.27267564,6.50134586 L29.6871011,13.4162129 C44.2512266,17.2286056 59.5769028,20.3495471 69.683465,21.5609184 C71.6944573,21.8020562 73.5901495,22.8134856 75.0210821,24.4087598 C75.3580861,24.7841393 75.7708894,25.0320247 76.2844024,25.1662664 C77.4705,25.4766559 79.0558779,25.4532169 80.3234686,25.1076688 C81.483588,24.7905317 81.9686319,24.3242372 82.0116915,24.1598089 C82.0561746,23.9904087 81.8632959,23.3291441 81.0013912,22.4647414 C80.0683135,21.5293112 78.7067745,20.7263471 77.5327763,20.419509 C76.6263885,20.1819225 75.966615,20.1055681 75.5705375,20.1947075 C73.778402,20.5942363 71.9873341,20.4567984 70.3895009,19.7969543 C59.5338432,15.3108673 44.2305864,10.2420009 31.4020139,6.88347296 L25.0647724,5.22462935 C23.7338378,4.87659537 22.9381239,3.51784228 23.2872274,2.18927582 C23.6363308,0.861419625 24.9982256,0.0666236484 26.3288044,0.415723043 L32.6664018,2.07456666 C45.6942586,5.4852997 61.2494677,10.6383335 72.2955131,15.2032609 C72.9406961,15.4699686 73.6965531,15.5175569 74.4826586,15.3424745 C75.695446,15.07115 77.0665933,15.156738 78.79752,15.6102476 C80.8277291,16.1415321 82.9721708,17.3926787 84.5326382,18.9574111 C86.5728115,21.0026435 87.3888096,23.2986024 86.8308135,25.4212545 C86.2713939,27.5495889 84.4276581,29.1409565 81.6387451,29.9030799 C80.5348523,30.2042359 79.3320291,30.3558793 78.1455756,30.3558793" id="Fill-24" fill="#32B86B" mask="url(#mask-6)"></path>
                            </g>
                            <path d="M61.7476429,31.7045465 C61.5383944,31.7045465 61.3255872,31.6779112 61.1138476,31.6225099 L3.84237971,16.629703 C2.73350479,16.3392012 1.74099768,15.5213213 1.04812879,14.3259311 C-0.0735572676,12.3907911 -0.3041577,9.75887292 0.414689327,7.10209513 C1.09545881,4.43395296 2.59080298,2.25341351 4.51959054,1.11697601 C5.71031438,0.415580988 6.97683744,0.188293488 8.08571235,0.479150461 L85.7617599,20.8135687 C87.0923386,21.1619578 87.8884083,22.521066 87.5393049,23.8489222 C87.1902014,25.1767784 85.8283066,25.9715744 84.497372,25.622475 L7.10815157,5.36334575 C6.67150538,5.58637161 5.70817919,6.49090484 5.23950516,8.34187741 C5.23594652,8.35608288 5.232032,8.37028835 5.22811749,8.38449382 C4.72634803,10.2272983 5.12135803,11.4873233 5.39288292,11.8957306 L62.3778796,26.8136036 C63.7088142,27.1616376 64.504528,28.5207458 64.1554246,29.848602 C63.8618361,30.9651518 62.8526033,31.7045465 61.7476429,31.7045465" id="Fill-27" fill="#32B86B"></path>
                        </g>
                        <g id="waves-bg" transform="translate(87.373377, 428.037508) rotate(22.000000) translate(-87.373377, -428.037508) translate(18.873377, 364.537508)">
                            <g id="Group-3" transform="translate(0.000000, 0.441522)">
                                <mask id="mask-8" fill="white">
                                    <use xlink:href="#path-7"></use>
                                </mask>
                                <g id="Clip-2"></g>
                                <path d="M133.880087,16.5922338 C128.431065,16.5922338 125.717135,12.8849844 123.537526,9.903465 C121.424046,7.01626436 120.098823,5.38140664 117.477473,5.38140664 C114.853478,5.38140664 113.528255,7.01626436 111.414775,9.903465 C109.235166,12.8849844 106.521236,16.5922338 101.069569,16.5922338 C95.6179017,16.5922338 92.9066165,12.8849844 90.7270078,9.903465 C88.6135279,7.01626436 87.2883046,5.38140664 84.6669548,5.38140664 C82.0403146,5.38140664 80.7150914,7.01626436 78.6042567,9.903465 C76.4220028,12.8849844 73.7080725,16.5922338 68.2564054,16.5922338 C62.8073835,16.5922338 60.0960984,12.8849844 57.9138445,9.903465 C55.8003646,7.01626436 54.4777865,5.38140664 51.8537915,5.38140664 C49.2297965,5.38140664 47.9045732,7.01626436 45.7910934,9.903465 C43.6114846,12.8849844 40.9001995,16.5922338 35.4485325,16.5922338 C29.9968654,16.5922338 27.2829351,12.8849844 25.1033264,9.903465 C22.9898465,7.01364439 21.6646232,5.38140664 19.0432734,5.38140664 C16.4219235,5.38140664 15.0993454,7.01364439 12.9858656,9.903465 C10.808902,12.8849844 8.09497167,16.5922338 2.6459498,16.5922338 C1.18317839,16.5922338 0.000793546875,15.4184898 0.000793546875,13.9722695 C0.000793546875,12.5260492 1.18317839,11.3523052 2.6459498,11.3523052 C5.26729964,11.3523052 6.58987777,9.71744754 8.70335761,6.83024689 C10.8803212,3.84872754 13.5916064,0.141478071 19.0432734,0.141478071 C24.4949404,0.141478071 27.2062256,3.84872754 29.3858343,6.82762693 C31.4993142,9.71744754 32.8245375,11.3523052 35.4485325,11.3523052 C38.0698823,11.3523052 39.3951056,9.71744754 41.5085854,6.83024689 C43.6881942,3.84872754 46.4021245,0.141478071 51.8537915,0.141478071 C57.3054585,0.141478071 60.0167437,3.84872754 62.1963525,6.82762693 C64.3098323,9.71744754 65.6350556,11.3523052 68.2564054,11.3523052 C70.8830456,11.3523052 72.2082689,9.71744754 74.3191035,6.82762693 C76.5013575,3.84872754 79.2152878,0.141478071 84.6669548,0.141478071 C90.1159767,0.141478071 92.829907,3.84872754 95.0095157,6.82762693 C97.1229956,9.71744754 98.4482189,11.3523052 101.069569,11.3523052 C103.693564,11.3523052 105.018787,9.71744754 107.132267,6.82762693 C109.311876,3.84872754 112.025806,0.141478071 117.477473,0.141478071 C122.926495,0.141478071 125.640425,3.84872754 127.820034,6.82762693 C129.933514,9.71744754 131.258737,11.3523052 133.880087,11.3523052 C135.342858,11.3523052 136.525243,12.5260492 136.525243,13.9722695 C136.525243,15.4184898 135.342858,16.5922338 133.880087,16.5922338" id="Fill-1" fill="#32B86B" mask="url(#mask-8)"></path>
                            </g>
                            <g id="Group-6" transform="translate(-0.000000, 36.538808)">
                                <mask id="mask-10" fill="white">
                                    <use xlink:href="#path-9"></use>
                                </mask>
                                <g id="Clip-5"></g>
                                <path d="M133.880087,16.8838941 C128.431065,16.8838941 125.717135,13.1766446 123.537526,10.1951252 C121.424046,7.3079246 120.098823,5.67306689 117.477473,5.67306689 C114.853478,5.67306689 113.528255,7.3079246 111.414775,10.1951252 C109.235166,13.1766446 106.521236,16.8838941 101.069569,16.8838941 C95.6179017,16.8838941 92.9066165,13.1766446 90.7270078,10.1951252 C88.6135279,7.3079246 87.2883046,5.67306689 84.6669548,5.67306689 C82.0403146,5.67306689 80.7150914,7.3079246 78.6042567,10.1951252 C76.4220028,13.1766446 73.7080725,16.8838941 68.2564054,16.8838941 C62.8073835,16.8838941 60.0960984,13.1766446 57.9138445,10.1951252 C55.8003646,7.3079246 54.4777865,5.67306689 51.8537915,5.67306689 C49.2297965,5.67306689 47.9045732,7.3079246 45.7910934,10.1951252 C43.6114846,13.1766446 40.9001995,16.8838941 35.4485325,16.8838941 C29.9968654,16.8838941 27.2829351,13.1766446 25.1033264,10.1951252 C22.9898465,7.30530464 21.6646232,5.67306689 19.0432734,5.67306689 C16.4219235,5.67306689 15.0993454,7.30530464 12.9858656,10.1951252 C10.808902,13.1766446 8.09497167,16.8838941 2.6459498,16.8838941 C1.18317839,16.8838941 0.000793546875,15.7101501 0.000793546875,14.2639298 C0.000793546875,12.8177095 1.18317839,11.6439655 2.6459498,11.6439655 C5.26729964,11.6439655 6.58987777,10.0117277 8.70335761,7.12190714 C10.8803212,4.14038778 13.5916064,0.433138318 19.0432734,0.433138318 C24.4949404,0.433138318 27.2062256,4.14038778 29.3858343,7.12190714 C31.4993142,10.0091078 32.8245375,11.6439655 35.4485325,11.6439655 C38.0698823,11.6439655 39.3951056,10.0117277 41.5085854,7.12190714 C43.6881942,4.14038778 46.4021245,0.433138318 51.8537915,0.433138318 C57.3054585,0.433138318 60.0167437,4.14038778 62.1963525,7.12190714 C64.3098323,10.0091078 65.6350556,11.6439655 68.2564054,11.6439655 C70.8830456,11.6439655 72.2082689,10.0091078 74.3191035,7.12190714 C76.5013575,4.14038778 79.2152878,0.433138318 84.6669548,0.433138318 C90.1159767,0.433138318 92.829907,4.14038778 95.0095157,7.12190714 C97.1229956,10.0091078 98.4482189,11.6439655 101.069569,11.6439655 C103.693564,11.6439655 105.018787,10.0091078 107.132267,7.12190714 C109.311876,4.14038778 112.025806,0.433138318 117.477473,0.433138318 C122.926495,0.433138318 125.640425,4.14038778 127.820034,7.12190714 C129.933514,10.0091078 131.258737,11.6439655 133.880087,11.6439655 C135.342858,11.6439655 136.525243,12.8177095 136.525243,14.2639298 C136.525243,15.7101501 135.342858,16.8838941 133.880087,16.8838941" id="Fill-4" fill="#32B86B" mask="url(#mask-10)"></path>
                            </g>
                            <g id="Group-9" transform="translate(-0.000000, 54.878558)">
                                <mask id="mask-12" fill="white">
                                    <use xlink:href="#path-11"></use>
                                </mask>
                                <g id="Clip-8"></g>
                                <path d="M133.880087,16.7382241 C128.431065,16.7382241 125.717135,13.0283546 123.537526,10.0494552 C121.424046,7.16225459 120.098823,5.52739687 117.477473,5.52739687 C114.853478,5.52739687 113.528255,7.16225459 111.414775,10.0494552 C109.235166,13.0283546 106.521236,16.7382241 101.069569,16.7382241 C95.6179017,16.7382241 92.9066165,13.0283546 90.7270078,10.0494552 C88.6135279,7.16225459 87.2883046,5.52739687 84.6669548,5.52739687 C82.0403146,5.52739687 80.7150914,7.16225459 78.6042567,10.0494552 C76.4220028,13.0283546 73.7080725,16.7382241 68.2564054,16.7382241 C62.8073835,16.7382241 60.0960984,13.0283546 57.9138445,10.0494552 C55.8003646,7.16225459 54.4777865,5.52739687 51.8537915,5.52739687 C49.2297965,5.52739687 47.9045732,7.16225459 45.7910934,10.0494552 C43.6114846,13.0283546 40.9001995,16.7382241 35.4485325,16.7382241 C29.9968654,16.7382241 27.2829351,13.0283546 25.1033264,10.0494552 C22.9898465,7.15963462 21.6646232,5.52739687 19.0432734,5.52739687 C16.4219235,5.52739687 15.0993454,7.15963462 12.9858656,10.0494552 C10.808902,13.0283546 8.09497167,16.7382241 2.6459498,16.7382241 C1.18317839,16.7382241 0.000793546875,15.5644801 0.000793546875,14.1182598 C0.000793546875,12.6720395 1.18317839,11.4982955 2.6459498,11.4982955 C5.26729964,11.4982955 6.58987777,9.86343777 8.70335761,6.97623712 C10.8803212,3.99471777 13.5916064,0.287468304 19.0432734,0.287468304 C24.4949404,0.287468304 27.2062256,3.99471777 29.3858343,6.97361716 C31.4993142,9.86343777 32.8245375,11.4982955 35.4485325,11.4982955 C38.0698823,11.4982955 39.3951056,9.86343777 41.5085854,6.97623712 C43.6881942,3.99471777 46.4021245,0.287468304 51.8537915,0.287468304 C57.3054585,0.287468304 60.0167437,3.99471777 62.1963525,6.97361716 C64.3098323,9.86343777 65.6350556,11.4982955 68.2564054,11.4982955 C70.8830456,11.4982955 72.2082689,9.86343777 74.3191035,6.97361716 C76.5013575,3.99471777 79.2152878,0.287468304 84.6669548,0.287468304 C90.1159767,0.287468304 92.829907,3.99471777 95.0095157,6.97361716 C97.1229956,9.86343777 98.4482189,11.4982955 101.069569,11.4982955 C103.693564,11.4982955 105.018787,9.86343777 107.132267,6.97361716 C109.311876,3.99471777 112.025806,0.287468304 117.477473,0.287468304 C122.926495,0.287468304 125.640425,3.99471777 127.820034,6.97361716 C129.933514,9.86343777 131.258737,11.4982955 133.880087,11.4982955 C135.342858,11.4982955 136.525243,12.6720395 136.525243,14.1182598 C136.525243,15.5644801 135.342858,16.7382241 133.880087,16.7382241" id="Fill-7" fill="#32B86B" mask="url(#mask-12)"></path>
                            </g>
                            <g id="Group-12" transform="translate(-0.000000, 18.199058)">
                                <mask id="mask-14" fill="white">
                                    <use xlink:href="#path-13"></use>
                                </mask>
                                <g id="Clip-11"></g>
                                <path d="M133.880087,17.0285161 C128.431065,17.0285161 125.717135,13.3212666 123.537526,10.3397473 C121.424046,7.45254663 120.098823,5.81768892 117.477473,5.81768892 C114.853478,5.81768892 113.528255,7.45254663 111.414775,10.3397473 C109.235166,13.3212666 106.521236,17.0285161 101.069569,17.0285161 C95.6179017,17.0285161 92.9066165,13.3212666 90.7270078,10.3397473 C88.6135279,7.45254663 87.2883046,5.81768892 84.6669548,5.81768892 C82.0403146,5.81768892 80.7150914,7.45254663 78.6042567,10.3397473 C76.4220028,13.3212666 73.7080725,17.0285161 68.2564054,17.0285161 C62.8073835,17.0285161 60.0960984,13.3212666 57.9138445,10.3397473 C55.8003646,7.45254663 54.4777865,5.81768892 51.8537915,5.81768892 C49.2297965,5.81768892 47.9045732,7.45254663 45.7910934,10.3397473 C43.6114846,13.3212666 40.9001995,17.0285161 35.4485325,17.0285161 C29.9968654,17.0285161 27.2829351,13.3212666 25.1033264,10.3397473 C22.9898465,7.44992667 21.6646232,5.81768892 19.0432734,5.81768892 C16.4219235,5.81768892 15.0993454,7.44992667 12.9858656,10.3397473 C10.808902,13.3212666 8.09497167,17.0285161 2.6459498,17.0285161 C1.18317839,17.0285161 0.000793546875,15.8547721 0.000793546875,14.4085518 C0.000793546875,12.9623315 1.18317839,11.7885875 2.6459498,11.7885875 C5.26729964,11.7885875 6.58987777,10.1537298 8.70335761,7.26652917 C10.8803212,4.28500981 13.5916064,0.577760346 19.0432734,0.577760346 C24.4949404,0.577760346 27.2062256,4.28500981 29.3858343,7.2639092 C31.4993142,10.1537298 32.8245375,11.7885875 35.4485325,11.7885875 C38.0698823,11.7885875 39.3951056,10.1537298 41.5085854,7.26652917 C43.6881942,4.28500981 46.4021245,0.577760346 51.8537915,0.577760346 C57.3054585,0.577760346 60.0167437,4.28500981 62.1963525,7.2639092 C64.3098323,10.1537298 65.6350556,11.7885875 68.2564054,11.7885875 C70.8830456,11.7885875 72.2082689,10.1537298 74.3191035,7.2639092 C76.5013575,4.28500981 79.2152878,0.577760346 84.6669548,0.577760346 C90.1159767,0.577760346 92.829907,4.28500981 95.0095157,7.2639092 C97.1229956,10.1537298 98.4482189,11.7885875 101.069569,11.7885875 C103.693564,11.7885875 105.018787,10.1537298 107.132267,7.2639092 C109.311876,4.28500981 112.025806,0.577760346 117.477473,0.577760346 C122.926495,0.577760346 125.640425,4.28500981 127.820034,7.2639092 C129.933514,10.1537298 131.258737,11.7885875 133.880087,11.7885875 C135.342858,11.7885875 136.525243,12.9623315 136.525243,14.4085518 C136.525243,15.8547721 135.342858,17.0285161 133.880087,17.0285161" id="Fill-10" fill="#32B86B" mask="url(#mask-14)"></path>
                            </g>
                        </g>
                        <g id="diamond-bg" transform="translate(480.882260, 453.618955) rotate(-9.000000) translate(-480.882260, -453.618955) translate(386.882260, 390.118955)">
                            <path d="M93.581762,126.719403 C92.9293036,126.719403 92.2741378,126.484871 91.7570442,126.01311 C90.6876621,125.042632 90.576663,123.403602 91.5025583,122.298335 L167.231054,31.8093076 C168.189437,30.6662996 169.895034,30.5099448 171.042927,31.4642486 C172.193528,32.4185524 172.347844,34.1168896 171.389461,35.2625933 L133.871747,80.0933056 L182.540815,31.6313865 C183.599368,30.5773391 185.313087,30.5773391 186.368932,31.6313865 C187.427485,32.6827382 187.427485,34.3891627 186.368932,35.4432102 L95.4958206,125.929541 C94.9678978,126.455217 94.2748299,126.719403 93.581762,126.719403" id="Fill-3" fill="#32B86B"></path>
                            <g id="Group-9" transform="translate(0.000000, 0.018051)">
                                <mask id="mask-16" fill="white">
                                    <use xlink:href="#path-15"></use>
                                </mask>
                                <g id="Clip-8"></g>
                                <path d="M11.6489551,30.8223952 L175.513486,30.8223952 L138.198819,6.05093306 L48.9636217,6.05093306 L11.6489551,30.8223952 Z M184.509832,36.2139421 C184.490881,36.2139421 184.474637,36.2112463 184.455686,36.2139421 L2.70675497,36.2139421 C1.51554454,36.2139421 0.46240623,35.4348635 0.115872287,34.2999429 C-0.230661656,33.1623265 0.213334959,31.9357496 1.20691275,31.2752851 L46.6434687,1.11227612 C47.0874653,0.818436816 47.6099735,0.659386183 48.1433109,0.659386183 L139.01913,0.659386183 C139.552468,0.659386183 140.077683,0.818436816 140.52168,1.11227612 L185.657726,31.0757979 C186.578207,31.5044259 187.217128,32.4371635 187.217128,33.5181686 C187.217128,35.0062356 186.00426,36.2139421 184.509832,36.2139421 L184.509832,36.2139421 Z" id="Fill-7" fill="#32B86B" mask="url(#mask-16)"></path>
                            </g>
                            <path d="M169.310799,36.2319935 C168.617731,36.2319935 167.924663,35.9678077 167.396741,35.4421318 L141.726156,9.88080811 L141.726156,33.53622 C141.726156,34.5309604 141.176575,35.4448276 140.296703,35.9138922 C139.416832,36.380261 138.34745,36.3317371 137.51631,35.7791035 L93.5823035,6.6135307 L49.6455897,35.7791035 C48.8144497,36.3290413 47.7450676,36.380261 46.8679036,35.9138922 C45.9880322,35.4448276 45.4384511,34.5309604 45.4384511,33.53622 L45.4384511,9.88080811 L19.7678663,35.4421318 C18.7093134,36.4961793 16.9955948,36.4961793 15.9397492,35.4421318 C14.8811963,34.3880844 14.8811963,32.6843556 15.9397492,31.6303082 L46.2316889,1.46729921 C47.0059757,0.693612233 48.1701132,0.464471491 49.1799347,0.882316373 C50.1924636,1.30016126 50.8530439,2.28411856 50.8530439,3.37321103 L50.8530439,28.4978195 L92.0797539,1.13032753 C92.9894055,0.52647428 94.1752014,0.52647428 95.084853,1.13032753 L136.311563,28.4978195 L136.311563,3.37321103 C136.311563,2.28411856 136.972143,1.30016126 137.981965,0.882316373 C138.994494,0.464471491 140.158631,0.693612233 140.932918,1.46729921 L171.224858,31.6303082 C172.283411,32.6843556 172.283411,34.3880844 171.224858,35.4421318 C170.696935,35.9678077 170.003867,36.2319935 169.310799,36.2319935" id="Fill-10" fill="#32B86B"></path>
                        </g>
                        <g id="vaccuum" transform="translate(211.005687, 203.766750) rotate(308.000000) translate(-211.005687, -203.766750) translate(86.505687, 33.266750)">
                            <path d="M131.446586,55.630575 C69.9953072,55.630575 20.0027414,105.541186 20.0027414,166.891725 L20.0027414,281.005725 C20.0027414,310.895034 44.3575078,335.209875 74.2958966,335.209875 L202.884948,335.209875 C224.945114,335.209875 242.890431,317.293977 242.890431,295.269975 L242.890431,166.891725 C242.890431,105.541186 192.897865,55.630575 131.446586,55.630575 M202.884948,340.915575 L74.2958966,340.915575 C41.2056472,340.915575 14.2876724,314.041728 14.2876724,281.005725 L14.2876724,166.891725 C14.2876724,102.397345 66.8463042,49.924875 131.446586,49.924875 C196.046868,49.924875 248.6055,102.397345 248.6055,166.891725 L248.6055,295.269975 C248.6055,320.437818 228.094117,340.915575 202.884948,340.915575" id="Fill-3" fill="#32B86B"></path>
                            <path d="M74.2958966,226.801575 C44.3575078,226.801575 20.0027414,251.116416 20.0027414,281.005725 C20.0027414,310.895034 44.3575078,335.209875 74.2958966,335.209875 C104.234285,335.209875 128.589052,310.895034 128.589052,281.005725 C128.589052,251.116416 104.234285,226.801575 74.2958966,226.801575 M74.2958966,340.915575 C41.2056472,340.915575 14.2876724,314.041728 14.2876724,281.005725 C14.2876724,247.969722 41.2056472,221.095875 74.2958966,221.095875 C107.386146,221.095875 134.304121,247.969722 134.304121,281.005725 C134.304121,314.041728 107.386146,340.915575 74.2958966,340.915575" id="Fill-7" fill="#32B86B"></path>
                            <path d="M148.591793,281.005725 L142.876724,281.005725 C142.876724,243.253961 112.10965,212.537325 74.2958966,212.537325 C36.4821427,212.537325 5.71506897,243.253961 5.71506897,281.005725 L7.67386155e-13,281.005725 C7.67386155e-13,240.107267 33.3302822,206.831625 74.2958966,206.831625 C115.261511,206.831625 148.591793,240.107267 148.591793,281.005725" id="Fill-9" fill="#32B86B"></path>
                            <path d="M74.2958966,241.065825 C52.2357303,241.065825 34.2904138,258.981723 34.2904138,281.005725 C34.2904138,303.029727 52.2357303,320.945625 74.2958966,320.945625 C96.3560628,320.945625 114.301379,303.029727 114.301379,281.005725 C114.301379,258.981723 96.3560628,241.065825 74.2958966,241.065825 M74.2958966,326.651325 C49.0867273,326.651325 28.5753448,306.173568 28.5753448,281.005725 C28.5753448,255.837882 49.0867273,235.360125 74.2958966,235.360125 C99.5050658,235.360125 120.016448,255.837882 120.016448,281.005725 C120.016448,306.173568 99.5050658,326.651325 74.2958966,326.651325" id="Fill-13" fill="#32B86B"></path>
                            <path d="M162.879466,338.062725 L157.164397,338.062725 L157.164397,138.363225 C157.158681,136.152266 156.432868,84.159075 102.871241,84.159075 L55.8733717,84.159075 L55.8733717,78.453375 L102.871241,78.453375 C162.193657,78.453375 162.879466,137.764127 162.879466,138.363225 L162.879466,338.062725 Z" id="Fill-15" fill="#32B86B"></path>
                            <mask id="mask-18" fill="white">
                                <use xlink:href="#path-17"></use>
                            </mask>
                            <g id="Clip-24"></g>
                        </g>
                    </g>
                </g>
            </g>
        </g>
    </g>
</svg>