<?xml version="1.0" encoding="UTF-8" standalone="no"?>
<svg width="52px" height="51px" viewBox="0 0 52 51" version="1.1" xmlns="http://www.w3.org/2000/svg" xmlns:xlink="http://www.w3.org/1999/xlink">
    <!-- Generator: Sketch 39.1 (31720) - http://www.bohemiancoding.com/sketch -->
    <title>ico_frutosysemillas_grey</title>
    <desc>Created with Sketch.</desc>
    <defs></defs>
    <g id="supermercado_categoria" stroke="none" stroke-width="1" fill="none" fill-rule="evenodd">
        <g id="Subcategorias_despensa" transform="translate(-387.000000, -75.000000)" fill="#D4D4D4">
            <g id="icon01-copy-26" transform="translate(387.000000, 75.000000)">
                <g id="frutos_secos_blue" transform="translate(16.000000, 12.000000)">
                    <path d="M9.03058333,4.24828125 L10.19725,4.24828125 L10.19725,0.590625 L9.03058333,0.590625 L9.03058333,4.24828125 Z M9.03058333,0.590625 L9.03058333,4.24828125 C9.03058333,5.03578125 10.19725,5.03578125 10.19725,4.24828125 L10.19725,0.590625 C10.19725,-0.196875 9.03058333,-0.196875 9.03058333,0.590625 Z M9.9136719,24.6824185 C9.5534524,24.8047539 9.32363128,25.0957639 9.02664171,25.7152388 L10.0753819,25.7135568 C9.70422619,24.9455856 9.42184161,24.6818372 8.88619275,24.6424281 C4.54806036,24.3363949 1.65891667,20.0878972 1.65891667,15.6920625 L1.65891667,13.041 L1.13355165,13.6287015 C1.6932008,13.5721115 1.99708225,13.5095062 2.41707195,13.3890458 C2.46676912,13.374779 2.46676912,13.374779 2.51100928,13.3624277 C2.749203,13.2968676 2.9603767,13.2730312 3.49391667,13.2730312 C3.93050974,13.2730312 4.08964011,13.3202987 4.52044919,13.5358889 C5.23330068,13.892351 5.6992321,14.0324062 6.53391667,14.0324062 C7.36860124,14.0324062 7.83453265,13.892351 8.54722637,13.5359678 C8.9775793,13.3206059 9.13782895,13.2730312 9.57391667,13.2730312 C10.010749,13.2730312 10.1710929,13.3206086 10.6012825,13.5358889 C11.314134,13.892351 11.7800654,14.0324062 12.61475,14.0324062 C13.4499479,14.0324062 13.9161588,13.8924774 14.6301365,13.5361792 C15.0615685,13.3207725 15.2228908,13.2730312 15.6614167,13.2730312 C16.1782144,13.2730312 16.3450284,13.2990928 16.668664,13.3980154 C17.1219907,13.5371482 17.4414719,13.5967544 18.0325042,13.61531 L17.46725,13.0249687 L17.46725,15.6920625 C17.46725,20.6591979 13.965821,24.2570403 10.2035274,24.6259059 C10.0774893,24.6387033 10.0095547,24.6498554 9.9136719,24.6824185 Z M18.6339167,15.6920625 L18.6339167,13.0249687 C18.6339167,12.7059026 18.3836382,12.4445163 18.0686625,12.4346275 C17.5887922,12.4195618 17.3683598,12.3784353 17.0064694,12.2673661 C16.5751867,12.1355397 16.2950997,12.0917812 15.6614167,12.0917812 C15.0176143,12.0917812 14.6924254,12.1880166 14.1142593,12.4766853 C13.5468301,12.7598509 13.2426217,12.8511562 12.61475,12.8511562 C11.9877088,12.8511562 11.684101,12.7598942 11.1180597,12.4768447 C10.5409776,12.1880548 10.2165193,12.0917812 9.57391667,12.0917812 C8.93198148,12.0917812 8.60768029,12.1880592 8.03044919,12.4769236 C7.46456567,12.7598942 7.16095783,12.8511562 6.53391667,12.8511562 C5.9068755,12.8511562 5.60326767,12.7598942 5.03722637,12.4768447 C4.45955326,12.1877591 4.13643451,12.0917812 3.49391667,12.0917812 C2.86386315,12.0917812 2.55227556,12.1269519 2.20496843,12.2225442 C2.15044447,12.2377691 2.15044447,12.2377691 2.09893594,12.2525622 C1.74116133,12.3551782 1.50324822,12.4041928 1.01761502,12.4532985 C0.71938118,12.483455 0.49225,12.7375361 0.49225,13.041 L0.49225,15.6920625 C0.49225,20.6473441 3.76880836,25.4655367 8.80337214,25.8206966 C8.84162112,25.8235133 8.81983107,25.8031613 9.02745139,26.2327557 C9.24113789,26.6749019 9.86388971,26.673903 10.0761916,26.2310737 C10.2453901,25.8781514 10.3127957,25.7927994 10.2846817,25.8023473 C14.6567317,25.3760766 18.6339167,21.2893781 18.6339167,15.6920625 Z M18.16975,10.8523125 C18.16975,10.92082 18.1650131,10.9703373 18.1625734,10.9784451 C18.2005229,10.8523282 18.3363275,10.7063437 18.5730833,10.7063437 L18.5730833,11.2969687 L18.7292089,10.727891 C18.6329519,10.7008187 18.5339361,10.6877812 18.4339167,10.6877812 C17.9460818,10.6877812 17.7493927,10.6598787 17.4816096,10.579178 C17.4541582,10.5708653 17.4541582,10.5708653 17.4250027,10.5619533 C17.3747314,10.546624 17.3747314,10.546624 17.3202096,10.5303422 C16.8782853,10.3997307 16.4637861,10.3401562 15.77225,10.3401562 C14.9363912,10.3401562 14.4700117,10.4800832 13.7560301,10.8363833 C13.325881,11.0516429 13.1642324,11.0995312 12.7264167,11.0995312 C12.290329,11.0995312 12.1300793,11.0519566 11.6998841,10.8366736 C10.9870287,10.4802095 10.5209287,10.3401562 9.68558333,10.3401562 C8.8510463,10.3401562 8.38500416,10.480087 7.67103015,10.8363833 C7.57652488,10.8834565 7.53960514,10.9015966 7.49298567,10.9234927 C7.22000741,11.0517047 7.01845045,11.0995312 6.64475,11.0995312 C6.20940693,11.0995312 6.0492514,11.0519593 5.61905081,10.8366736 C4.9061954,10.4802095 4.44009541,10.3401562 3.60475,10.3401562 C2.79512623,10.3401562 2.44238923,10.3913862 1.91917763,10.5413679 C1.59291755,10.6359105 1.39251805,10.6749448 0.898855497,10.718721 C1.1072337,10.7001545 1.16562154,10.8113099 1.16625334,10.8383371 C1.16715756,7.77226078 4.94458055,5.15953125 9.66808333,5.15953125 C14.3918426,5.15953125 18.16975,7.77243035 18.16975,10.8523125 Z M-0.0002499827,10.8521687 C0.0131631397,11.4330901 0.289331975,11.9588445 1.00088572,11.895445 C1.57142064,11.8448521 1.84474492,11.7916134 2.23859272,11.6774824 C2.65845201,11.5571298 2.90442139,11.5214063 3.60475,11.5214063 C4.23250796,11.5214063 4.53623601,11.6126701 5.10227363,11.8957178 C5.67933825,12.1844989 6.00348216,12.2807813 6.64475,12.2807813 C7.19350489,12.2807813 7.56153201,12.1934538 7.98392888,11.9950631 C8.04147454,11.9680351 8.08330102,11.9474842 8.18641667,11.8961219 C8.75434024,11.6127097 9.05842838,11.5214063 9.68558333,11.5214063 C10.3133413,11.5214063 10.6170693,11.6126701 11.183107,11.8957178 C11.7601803,12.1845033 12.0844815,12.2807813 12.7264167,12.2807813 C13.3697718,12.2807813 13.6957221,12.1842185 14.2723841,11.8956389 C14.8393329,11.6127134 15.1436616,11.5214063 15.77225,11.5214063 C16.3535396,11.5214063 16.6579558,11.5651589 16.9932991,11.6642702 C17.0399646,11.6782046 17.0399646,11.6782046 17.0882309,11.6929189 C17.1176597,11.7019153 17.1176597,11.7019153 17.1487864,11.7113412 C17.526711,11.825235 17.8354379,11.8690313 18.4339167,11.8690313 C18.4307076,11.8690313 18.5730833,11.8875938 18.5730833,11.8875938 C19.2118254,11.8875938 19.3364167,11.4735414 19.3364167,10.8523125 C19.3364167,7.00330336 14.9626338,3.97828125 9.66808333,3.97828125 C4.3738516,3.97828125 0.000675875559,7.00307497 -0.0002499827,10.8521687 Z" id="Stroke-1"></path>
                    <path d="M5.95480332,7.94734257 C6.41681296,7.39993914 6.9919829,7.33348153 7.89573631,8.1058872 C8.07158259,8.25617671 8.33446376,8.23367697 8.48289785,8.05563261 C8.63133194,7.87758826 8.60910997,7.61142107 8.43326369,7.46113155 C7.16980556,6.38129915 6.07347219,6.50797423 5.3212792,7.39919595 C5.1125583,7.64649498 4.97851724,7.89169391 4.90803145,8.06879715 C4.82202177,8.28490584 4.92532501,8.53069273 5.1387657,8.61777753 C5.35220639,8.70486233 5.59495887,8.6002678 5.68096855,8.3841591 C5.7205693,8.28465791 5.81334214,8.11495019 5.95480332,7.94734257 Z" id="Stroke-3"></path>
                    <path d="M11.5624968,8.8573512 C11.889041,8.69532712 12.2118191,8.64458508 12.4912918,8.75199413 C12.8221033,8.87913415 13.1196856,9.2313227 13.3565967,9.89567109 C13.4347463,10.1148188 13.6735601,10.2283285 13.8900023,10.1492021 C14.1064445,10.0700757 14.2185529,9.82827666 14.1404033,9.60912891 C13.8268478,8.72985367 13.3675491,8.18627365 12.7870225,7.96316127 C12.2554366,7.75885812 11.7098312,7.84462951 11.1957857,8.09968758 C11.0122717,8.19074322 10.8724902,8.28314025 10.7866479,8.35118522 C10.605453,8.4948139 10.573562,8.75997158 10.7154175,8.94343147 C10.857273,9.12689137 11.1191571,9.15918095 11.3003521,9.01555228 C11.3437238,8.98117257 11.4363699,8.91993258 11.5624968,8.8573512 Z" id="Stroke-5"></path>
                </g>
            </g>
        </g>
    </g>
</svg>