<?xml version="1.0" encoding="UTF-8" standalone="no"?>
<svg width="52px" height="51px" viewBox="0 0 52 51" version="1.1" xmlns="http://www.w3.org/2000/svg" xmlns:xlink="http://www.w3.org/1999/xlink">
    <!-- Generator: Sketch 39.1 (31720) - http://www.bohemiancoding.com/sketch -->
    <title>ico_granos_green</title>
    <desc>Created with Sketch.</desc>
    <defs></defs>
    <g id="supermercado_categoria" stroke="none" stroke-width="1" fill="none" fill-rule="evenodd">
        <g id="Subcategorias_despensa" transform="translate(-15.000000, -258.000000)" fill="#44D481">
            <g id="icon01-copy-20" transform="translate(15.000000, 258.000000)">
                <g id="granos_blue" transform="translate(13.000000, 16.000000)">
                    <path d="M14.9953953,8.79092464 C15.6366403,8.81348721 16.4014429,8.75739207 17.1489679,8.55335189 C18.0326354,8.31215101 18.7372302,7.89547586 19.1745399,7.24917211 C19.3462212,6.99544281 19.2790714,6.65100891 19.0245565,6.47985746 C18.7700417,6.30870601 18.4245414,6.37564859 18.2528601,6.62937789 C17.987152,7.02207014 17.5054856,7.30691249 16.8553733,7.48436345 C16.2349369,7.65371426 15.5733693,7.70223754 15.03461,7.68328099 C14.9808758,7.68104381 14.9808758,7.68104381 14.9752669,7.68064719 C14.6689063,7.66082186 14.4044307,7.89233803 14.3845439,8.19775305 C14.3646572,8.50316807 14.5968902,8.76682747 14.9032507,8.78665281 C14.92432,8.7879826 14.92432,8.7879826 14.9953953,8.79092464 Z" id="Stroke-1"></path>
                    <path d="M25.6094,11.1358989 C25.6699005,11.0427515 25.7358189,10.9295642 25.811045,10.7914176 C25.8661697,10.6950344 25.9085028,10.6169058 25.9317554,10.571935 C27.3026158,7.76670188 26.1359955,4.39796487 23.3327535,3.03755634 C20.5288724,1.67726511 17.1499944,2.84009161 15.7856099,5.63507691 C15.385744,6.45372613 15.1971736,7.34388041 15.2207246,8.24328211 L15.8267061,7.6769265 C13.5070187,7.46685992 11.2723946,8.69479614 10.237896,10.8141766 C8.87343141,13.6093259 10.039858,16.9777752 12.8434965,18.3379486 C13.9435923,18.8713633 15.1635595,19.0256829 16.3479815,18.804742 L16.2457412,18.2600292 L15.8785098,17.8440088 C15.4212427,18.2451618 15.7954419,18.9559472 16.3607095,18.8150665 C16.4163165,18.8004341 16.4163165,18.8004341 16.4591458,18.7878492 C16.4988369,18.7761712 16.4988369,18.7761712 16.5202723,18.7702897 C16.90751,18.6878499 17.301023,18.5597928 17.6707483,18.3910019 C21.0690033,17.0729107 23.7460563,14.2324532 25.6094,11.1358989 Z M16.2606071,17.692934 C16.1886847,17.7117904 16.1886847,17.7117904 16.1525114,17.7224688 C16.1114967,17.734468 16.1114967,17.734468 16.091067,17.7398252 L16.2258882,18.2774458 L16.5931196,18.6934662 C17.0370387,18.3040232 16.6987482,17.6117411 16.1435008,17.7153164 C15.1904891,17.8930903 14.2127968,17.7694172 13.3298781,17.3413074 C11.0784912,16.2490565 10.1417675,13.5439516 11.2375784,11.2991481 C12.0679892,9.59788288 13.8622541,8.61192609 15.7261292,8.78071516 C16.0574191,8.81071616 16.3407915,8.54587383 16.3321107,8.21435956 C16.3131641,7.49079902 16.4643513,6.777114 16.7852271,6.12018179 C17.8809692,3.87551914 20.594449,2.94168659 22.8462024,4.03411532 C25.0972961,5.12656725 26.0341467,7.83182037 24.9379077,10.0753471 C24.9270972,10.0959442 24.8920038,10.1607114 24.8393316,10.2530179 C24.7708875,10.3784808 24.7180904,10.4691377 24.6653457,10.5507943 C22.9080943,13.4704982 20.3828698,16.1498598 17.2376059,17.3707523 C16.9133067,17.5177752 16.5965311,17.6208604 16.2606071,17.692934 Z" id="Stroke-3"></path>
                    <path d="M23.1431226,9.54006748 C23.0259921,9.77120602 22.8845027,10.0295861 22.7185724,10.3083405 C22.2436776,11.106139 21.6697183,11.9042368 20.9967289,12.6478609 C20.2394255,13.4846484 19.4032712,14.1987903 18.4888319,14.7530846 C18.3014601,14.8666614 18.2419225,15.1101597 18.3558509,15.2969532 C18.4697794,15.4837468 18.7140316,15.5431006 18.9014034,15.4295237 C19.8859024,14.8327622 20.7800709,14.0690716 21.5863407,13.1781784 C22.2970929,12.3928281 22.9012506,11.5527389 23.4014973,10.7123505 C23.5768665,10.4177394 23.7269261,10.1437087 23.8519253,9.89704274 C23.9278851,9.7471481 23.9791828,9.63831741 24.0060358,9.57734029 C24.0941872,9.37716848 24.0028742,9.14365695 23.8020827,9.0557777 C23.6012911,8.96789845 23.3670567,9.05892956 23.2789053,9.25910138 C23.2576635,9.30733672 23.2124406,9.4032794 23.1431226,9.54006748 Z" id="Stroke-5"></path>
                    <path d="M10.1487707,5.39841209 C10.2222993,5.8823695 10.338257,6.36724968 10.5077907,6.8254868 C10.5814406,7.02455695 10.6640192,7.21473951 10.7562685,7.39476087 C10.8959343,7.66731376 11.2307876,7.77538952 11.5041843,7.63615483 C11.777581,7.49692014 11.8859913,7.16310035 11.7463256,6.89054746 C11.6749114,6.75118522 11.6097719,6.60116575 11.5508698,6.4419578 C11.4100296,6.06127709 11.3110322,5.64731674 11.2479982,5.23243362 C11.210246,4.98395246 11.1931882,4.79365042 11.1888479,4.69250983 C11.175726,4.38673172 10.916439,4.14945417 10.6097142,4.16253559 C10.3029894,4.175617 10.0649772,4.43410372 10.0780992,4.73988183 C10.0840448,4.87843206 10.1045854,5.10758893 10.1487707,5.39841209 Z" id="Stroke-7"></path>
                    <path d="M13.3731686,5.29687904 C13.3449803,5.28639518 13.3449803,5.28639518 13.3149194,5.27557219 C12.4544949,4.9673907 11.5457544,4.87579178 10.6533491,4.9965752 L11.2839379,5.53649432 C11.2452262,3.21467492 9.78047152,1.13201772 7.55484153,0.33364238 C4.62120243,-0.718505494 1.38694007,0.799393872 0.33178691,3.7241579 C-0.0825132145,4.87106022 -0.105484369,6.09769768 0.242454267,7.24787583 L0.774661765,7.08787083 L1.15102554,6.6800424 C0.701296984,6.26756913 0.0304696879,6.71643998 0.233632308,7.26240545 C0.253447577,7.31384814 0.253447577,7.31384814 0.27027438,7.35444423 C0.286613579,7.39380524 0.286613579,7.39380524 0.295175381,7.41538007 C0.419086573,7.79063839 0.588901423,8.16676682 0.796768278,8.51414864 C2.08589812,10.9908986 4.30989872,13.0195037 6.98439873,14.6023119 C7.24839069,14.7585462 7.58944349,14.6718519 7.74616148,14.4086747 C7.90287948,14.1454976 7.81591675,13.8054974 7.5519248,13.6492631 C5.03990961,12.1626158 2.96139268,10.2667125 1.76748656,7.97484165 C1.58632197,7.67020937 1.44972117,7.36764781 1.34128293,7.04114586 C1.3155917,6.97403676 1.3155917,6.97403676 1.30173205,6.94070152 C1.28436125,6.89870603 1.28436125,6.89870603 1.27598534,6.87691955 L0.754808824,7.0696625 L0.378445046,7.47749094 C0.814560992,7.87747925 1.47018343,7.46773227 1.30686926,6.92786583 C1.02699601,6.0026909 1.04540187,5.0198354 1.37787051,4.09946615 C2.22526965,1.75057269 4.82259508,0.531599644 7.17845543,1.37652752 C8.96521754,2.0174727 10.141226,3.68957689 10.1723268,5.55491401 C10.1778613,5.88685751 10.4729258,6.13949592 10.8029156,6.09483314 C11.5198247,5.99780242 12.2482893,6.07122995 12.9400005,6.31898193 C12.9609608,6.32652357 12.9609608,6.32652357 12.982802,6.33464388 C13.0055578,6.34319578 13.0055578,6.34319578 13.0301232,6.35252445 C13.3170159,6.4614796 13.6381875,6.3179505 13.7474799,6.03194324 C13.8567724,5.74593598 13.712799,5.42575569 13.4259062,5.31680055 C13.4004422,5.30712922 13.4004422,5.30712922 13.3731686,5.29687904 Z" id="Stroke-9"></path>
                    <path d="M4.51270971,8.9344914 C4.37932613,8.76096909 4.13009424,8.7280965 3.95603472,8.8610684 C3.78197519,8.99404031 3.74900082,9.24250296 3.88238441,9.41602527 C4.91996522,10.7658422 6.28236096,11.8638541 7.82536642,12.7361261 C8.01612121,12.8439611 8.25844673,12.7772187 8.36661563,12.5870526 C8.47478452,12.3968866 8.40783543,12.155309 8.21708064,12.0474739 C6.76003851,11.2237976 5.47857652,10.1910136 4.51270971,8.9344914 Z" id="Stroke-11"></path>
                </g>
            </g>
        </g>
    </g>
</svg>