<?xml version="1.0" encoding="UTF-8" standalone="no"?>
<svg width="52px" height="51px" viewBox="0 0 52 51" version="1.1" xmlns="http://www.w3.org/2000/svg" xmlns:xlink="http://www.w3.org/1999/xlink">
    <!-- Generator: Sketch 39.1 (31720) - http://www.bohemiancoding.com/sketch -->
    <title>ico_reposteria_grey</title>
    <desc>Created with Sketch.</desc>
    <defs></defs>
    <g id="supermercado_categoria" stroke="none" stroke-width="1" fill="none" fill-rule="evenodd">
        <g id="Subcategorias_despensa" transform="translate(-139.000000, -75.000000)" fill="#D4D4D4">
            <g id="icon01-copy-10" transform="translate(139.000000, 75.000000)">
                <g id="repostaria_lgreen" transform="translate(14.000000, 15.000000)">
                    <path d="M1.14827586,20.1003923 C1.14827586,20.4126456 1.40764194,20.6657769 1.72758621,20.6657769 L22.0464828,20.6657769 C22.366427,20.6657769 22.6257931,20.4126456 22.6257931,20.1003923 L22.6257931,13.3876615 C22.6257931,13.0754082 22.366427,12.8222769 22.0464828,12.8222769 C21.7265385,12.8222769 21.4671724,13.0754082 21.4671724,13.3876615 L21.4671724,20.1003923 L22.0464828,19.5350077 L1.72758621,19.5350077 L2.30689655,20.1003923 L2.30689655,13.3892769 C2.30689655,13.0770236 2.04753048,12.8238923 1.72758621,12.8238923 C1.40764194,12.8238923 1.14827586,13.0770236 1.14827586,13.3892769 L1.14827586,20.1003923 Z" id="Stroke-1"></path>
                    <path d="M2.51453793,7.81652308 C1.12734016,7.81652308 0.00364137931,8.91256055 0.00364137931,10.2654462 L0.00364137931,11.3679462 L0.582951724,11.3679462 L0.582951724,10.8025615 L0.000331034483,10.8025615 L0.000331034483,11.3679462 C0.000331034483,12.4159842 0.598708167,13.3563642 1.53408215,13.8419213 C1.95430841,14.0596681 2.40823463,14.1779077 2.87702069,14.1779077 C3.77873332,14.1779077 4.61119261,13.7700543 5.15374802,13.0876169 L4.23768632,13.0867649 C4.77815323,13.7692571 5.61251849,14.1779077 6.51426207,14.1779077 C7.41520298,14.1779077 8.24870546,13.7692701 8.78918264,13.0867649 L7.87312094,13.0876169 C8.41542354,13.7697363 9.24769654,14.1779077 10.1473655,14.1779077 C11.0488741,14.1779077 11.8830572,13.7694828 12.4244308,13.0871914 L11.5083692,13.0871914 C12.0499327,13.7697221 12.8825132,14.1779077 13.7837793,14.1779077 C14.683804,14.1779077 15.5170618,13.76939 16.0583618,13.0871914 L15.1419622,13.0867649 C15.682702,13.7696017 16.515528,14.1779077 17.4177103,14.1779077 C18.3169402,14.1779077 19.1507551,13.7693902 19.6927825,13.0876169 L18.7770588,13.0871914 C19.3188018,13.7699482 20.1506427,14.1779077 21.052469,14.1779077 C21.5236946,14.1779077 21.9775009,14.0592562 22.3981825,13.8397231 C23.3232374,13.3592591 23.9196707,12.4326004 23.9307821,11.3964787 L23.9316412,10.265852 C23.9316414,8.91272282 22.8081089,7.81652308 21.4215724,7.81652308 L2.51453793,7.81652308 Z M22.7730207,10.2654462 L22.7721933,11.3901557 C22.7656204,12.0004979 22.4103427,12.5524811 21.8528618,12.8420317 C21.5939494,12.9771441 21.3262421,13.0471385 21.052469,13.0471385 C20.5132819,13.0471385 20.0179196,12.8041981 19.6931205,12.3948548 L19.2355399,11.8181674 L18.7773968,12.3944293 C18.4523244,12.8033122 17.9546566,13.0471385 17.4177103,13.0471385 C16.8782849,13.0471385 16.3823729,12.8040099 16.0586999,12.3952813 L15.6007825,11.8170311 L15.1423002,12.3948548 C14.8179777,12.8035974 14.3212245,13.0471385 13.7837793,13.0471385 C13.2450928,13.0471385 12.7490168,12.8039295 12.4244308,12.3948548 L11.9664,11.8176 L11.5083692,12.3948548 C11.1841079,12.8035202 10.6865325,13.0471385 10.1473655,13.0471385 C9.61015915,13.0471385 9.11395532,12.8037854 8.78850664,12.3944293 L8.32991216,11.8175996 L7.87244494,12.3952813 C7.54903456,12.8036782 7.05244618,13.0471385 6.51426207,13.0471385 C5.97509707,13.0471385 5.47772287,12.8035374 5.15442402,12.3952813 L4.69695681,11.8175996 L4.23836232,12.3944293 C3.91276185,12.8039763 3.4164497,13.0471385 2.87702069,13.0471385 C2.60477316,13.0471385 2.33577181,12.9770685 2.07778205,12.8433872 C1.51532936,12.5514151 1.15895172,11.9913495 1.15895172,11.3679462 L0.579641379,11.3679462 L0.579641379,11.9333308 L1.16226207,11.9333308 L1.16226207,11.3679462 L1.16226207,10.2654462 C1.16226207,9.53721712 1.76707514,8.94729231 2.51453793,8.94729231 L21.4215724,8.94729231 C22.1682972,8.94729231 22.7730207,9.5373044 22.7730207,10.2654462 Z" id="Stroke-3"></path>
                    <path d="M4.39017931,8.40113077 C4.39017931,8.71338407 4.64954539,8.96651538 4.96948966,8.96651538 L18.5559724,8.96651538 C18.8759167,8.96651538 19.1352828,8.71338407 19.1352828,8.40113077 L19.1352828,3.91278462 C19.1352828,3.60053131 18.8759167,3.3474 18.5559724,3.3474 C18.2360281,3.3474 17.9766621,3.60053131 17.9766621,3.91278462 L17.9766621,8.40113077 L18.5559724,7.83574615 L4.96948966,7.83574615 L5.5488,8.40113077 L5.5488,3.91359231 C5.5488,3.60133901 5.28943392,3.34820769 4.96948966,3.34820769 C4.64954539,3.34820769 4.39017931,3.60133901 4.39017931,3.91359231 L4.39017931,8.40113077 Z" id="Stroke-5"></path>
                    <path d="M5.49575172,-1.70530257e-13 C4.46197131,-1.70530257e-13 3.62457931,0.81653882 3.62457931,1.82457692 L3.62457931,2.562 L4.20388966,2.562 L4.20388966,1.99661538 L3.62209655,1.99661538 L3.62209655,2.562 C3.62209655,3.33244799 4.06280388,4.02395458 4.74980098,4.38146923 C5.05691048,4.54116939 5.39141914,4.62807692 5.73823448,4.62807692 C6.40070249,4.62807692 7.01307739,4.32805444 7.41157587,3.82703502 L6.95395862,3.48034615 L6.4958352,3.82639769 C6.8932837,4.32757104 7.5075653,4.62807692 8.17051034,4.62807692 C8.83260555,4.62807692 9.44519089,4.32765091 9.84270273,3.82639769 L9.38457931,3.48034615 L8.92746804,3.82767024 C9.32684787,4.32832524 9.93805822,4.62807692 10.5994759,4.62807692 C11.262329,4.62807692 11.8757972,4.327669 12.2733234,3.82639769 L11.8152,3.48034615 L11.3575828,3.82703502 C11.7560812,4.32805444 12.3684561,4.62807692 13.0309241,4.62807692 C13.6924443,4.62807692 14.3057754,4.32743568 14.7031165,3.82639769 L14.2449931,3.48034615 L13.7873759,3.82703502 C14.1858743,4.32805444 14.7982492,4.62807692 15.4607172,4.62807692 C16.1216508,4.62807692 16.7344253,4.32800869 17.1335526,3.82767024 L16.6764414,3.48034615 L16.218318,3.82639769 C16.6160932,4.32798301 17.2280013,4.62807692 17.8913379,4.62807692 C18.2392927,4.62807692 18.5732295,4.54103628 18.881154,4.38037233 C19.5611152,4.02690064 19.9996713,3.34539691 20.0074472,2.58215991 L20.0083031,1.82518421 C20.0083034,0.816719629 19.1710968,-1.70530257e-13 18.1379586,-1.70530257e-13 L5.49575172,-1.70530257e-13 Z M18.8496828,1.82457692 L18.8488555,2.57593117 C18.8453919,2.9136564 18.6479947,3.2204062 18.3356846,3.38275812 C18.1899538,3.45879443 18.0421953,3.49730769 17.8913379,3.49730769 C17.5906866,3.49730769 17.3153703,3.36228623 17.1345648,3.13429462 L16.6777873,2.55830879 L16.2193301,3.13302207 C16.0370528,3.36152146 15.7597614,3.49730769 15.4607172,3.49730769 C15.1604915,3.49730769 14.884173,3.36193025 14.7026103,3.13365729 L14.2443188,2.55746191 L13.7868697,3.13429462 C13.6065486,3.3616753 13.3298482,3.49730769 13.0309241,3.49730769 C12.7306984,3.49730769 12.4543799,3.36193025 12.2728172,3.13365729 L11.8145257,2.55746191 L11.3570766,3.13429462 C11.1766714,3.36178137 10.8999108,3.49730769 10.5994759,3.49730769 C10.3002159,3.49730769 10.0243712,3.36202706 9.84169058,3.13302207 L9.38323337,2.55830879 L8.92645589,3.13429462 C8.7459137,3.36195414 8.46992029,3.49730769 8.17051034,3.49730769 C7.86980626,3.49730769 7.5923086,3.36155614 7.41208204,3.13429462 L6.95463295,2.55746191 L6.49634137,3.13365729 C6.31477869,3.36193025 6.03846025,3.49730769 5.73823448,3.49730769 C5.5879204,3.49730769 5.43908422,3.45863908 5.29478411,3.38360152 C4.97944593,3.21949888 4.78071724,2.90767698 4.78071724,2.562 L4.2014069,2.562 L4.2014069,3.12738462 L4.7832,3.12738462 L4.7832,2.562 L4.7832,1.82457692 C4.7832,1.44126974 5.10163023,1.13076923 5.49575172,1.13076923 L18.1379586,1.13076923 C18.5313231,1.13076923 18.8496828,1.44133839 18.8496828,1.82457692 Z" id="Stroke-7"></path>
                </g>
            </g>
        </g>
    </g>
</svg>