<?xml version="1.0" encoding="UTF-8" standalone="no"?>
<svg width="52px" height="51px" viewBox="0 0 52 51" version="1.1" xmlns="http://www.w3.org/2000/svg" xmlns:xlink="http://www.w3.org/1999/xlink">
    <!-- Generator: Sketch 39.1 (31720) - http://www.bohemiancoding.com/sketch -->
    <title>ico_aceite_grey</title>
    <desc>Created with Sketch.</desc>
    <defs></defs>
    <g id="supermercado_categoria" stroke="none" stroke-width="1" fill="none" fill-rule="evenodd">
        <g id="Subcategorias_despensa" transform="translate(-201.000000, -14.000000)" fill="#D4D4D4">
            <g id="icon01-copy-3" transform="translate(201.000000, 14.000000)">
                <g id="aceite_dgreen" transform="translate(20.000000, 10.000000)">
                    <path d="M7.59711333,18.18345 L8.06943325,18.5028208 C7.54737106,17.2485442 6.43563227,16.42095 5.17564667,16.42095 C3.91505822,16.42095 2.80323996,17.2484216 2.28112675,18.5028208 L2.75344667,18.18345 L0.562246667,18.18345 C0.278740495,18.18345 0.0489133333,18.4185005 0.0489133333,18.70845 L0.0489133333,21.3522 C0.0489133333,21.6421495 0.278740495,21.8772 0.562246667,21.8772 L2.75344667,21.8772 L2.28117907,21.5579549 C2.80348105,22.8119022 3.91540207,23.6397 5.17564667,23.6397 C6.43528852,23.6397 7.54713001,22.8117796 8.06938093,21.5579549 L7.59711333,21.8772 L9.78831333,21.8772 C10.0718195,21.8772 10.3016467,21.6421495 10.3016467,21.3522 L10.3016467,18.70845 C10.3016467,18.4185005 10.0718195,18.18345 9.78831333,18.18345 L7.59711333,18.18345 Z M9.27498,18.70845 L9.27498,21.3522 L9.78831333,20.8272 L7.59711333,20.8272 C7.3913588,20.8272 7.20548385,20.9528484 7.12484574,21.1464451 C6.75723789,22.0290013 6.0042572,22.5897 5.17564667,22.5897 C4.34638568,22.5897 3.59335919,22.0290903 3.22571426,21.1464451 C3.14507615,20.9528484 2.9592012,20.8272 2.75344667,20.8272 L0.562246667,20.8272 L1.07558,21.3522 L1.07558,18.70845 L0.562246667,19.23345 L2.75344667,19.23345 C2.95924974,19.23345 3.14515872,19.1077431 3.22576659,18.9140792 C3.59324318,18.0312011 4.34601515,17.47095 5.17564667,17.47095 C6.00462767,17.47095 6.75735385,18.0312901 7.12479341,18.9140792 C7.20540128,19.1077431 7.39131026,19.23345 7.59711333,19.23345 L9.78831333,19.23345 L9.27498,18.70845 Z" id="Stroke-1"></path>
                    <path d="M7.61082667,6.252 C7.61082667,5.96205051 7.3809995,5.727 7.09749333,5.727 L3.22402667,5.727 C2.9405205,5.727 2.71069333,5.96205051 2.71069333,6.252 L2.71069333,12.47625 L3.22402667,11.95125 C1.45457081,11.95125 0.000293333333,13.2898463 0.000293333333,14.97075 L0.000293333333,29.226 C0.000293333333,29.5159495 0.230120495,29.751 0.513626667,29.751 L9.80789333,29.751 C10.0913995,29.751 10.3212267,29.5159495 10.3212267,29.226 L10.3212267,14.9715 L9.80789333,14.9715 L10.1708748,15.3427311 C10.2678768,15.2435245 10.32196,15.1099887 10.32196,14.97075 C10.32196,13.2899266 8.86705165,11.95125 7.09749333,11.95125 L7.61082667,12.47625 L7.61082667,6.252 Z M7.09749333,13.00125 C8.3228222,13.00125 9.29529333,13.896031 9.29529333,14.97075 L9.80862667,14.97075 L9.44564519,14.5995189 C9.34864318,14.6987255 9.29456,14.8322613 9.29456,14.9715 L9.29456,29.226 L9.80789333,28.701 L0.513626667,28.701 L1.02696,29.226 L1.02696,14.9715 C1.02696,13.8958537 1.99887511,13.00125 3.22402667,13.00125 C3.50753284,13.00125 3.73736,12.7661995 3.73736,12.47625 L3.73736,6.252 L3.22402667,6.777 L7.09749333,6.777 L6.58416,6.252 L6.58416,12.47625 C6.58416,12.7661995 6.81398716,13.00125 7.09749333,13.00125 Z" id="Stroke-3"></path>
                    <path d="M6.11723049,1.63224712 L5.22808,1.274625 L5.22808,6.252375 L5.74141333,5.727375 L4.35834667,5.727375 L4.87168,6.252375 L4.87168,2.794875 L4.73416382,3.15249712 L6.11723049,1.63224712 Z M3.84501333,2.794875 L3.84501333,6.252375 C3.84501333,6.54232449 4.0748405,6.777375 4.35834667,6.777375 L5.74141333,6.777375 C6.0249195,6.777375 6.25474667,6.54232449 6.25474667,6.252375 L6.25474667,1.274625 C6.25474667,0.797727207 5.68323279,0.567860599 5.36559618,0.917002879 L3.98252951,2.43725288 C3.89414659,2.53440232 3.84501333,2.66217737 3.84501333,2.794875 Z" id="Stroke-5"></path>
                    <path d="M9.80833333,27.29685 L9.80833333,26.24685 L0.513333333,26.24685 L0.513333333,27.29685 L9.80833333,27.29685 Z M0.513333333,27.29685 L9.80833333,27.29685 C10.4927778,27.29685 10.4927778,26.24685 9.80833333,26.24685 L0.513333333,26.24685 C-0.171111111,26.24685 -0.171111111,27.29685 0.513333333,27.29685 Z" id="Stroke-7"></path>
                </g>
            </g>
        </g>
    </g>
</svg>