<?xml version="1.0" encoding="UTF-8" standalone="no"?>
<svg width="52px" height="51px" viewBox="0 0 52 51" version="1.1" xmlns="http://www.w3.org/2000/svg" xmlns:xlink="http://www.w3.org/1999/xlink">
    <!-- Generator: Sketch 39.1 (31720) - http://www.bohemiancoding.com/sketch -->
    <title>ico_sal_grey</title>
    <desc>Created with Sketch.</desc>
    <defs></defs>
    <g id="supermercado_categoria" stroke="none" stroke-width="1" fill="none" fill-rule="evenodd">
        <g id="Subcategorias_despensa" transform="translate(-325.000000, -14.000000)" fill="#D4D4D4">
            <g id="icon01-copy-5" transform="translate(325.000000, 14.000000)">
                <g id="sal_lgreen" transform="translate(20.000000, 15.000000)">
                    <path d="M0.957894737,11.3296457 C0.957894737,10.7167821 1.21304403,10.1403659 1.68175799,9.7013687 L2.69078418,8.75731269 L2.36394737,8.88644571 L10.504,8.88644571 L10.1770448,8.75720185 L11.1855711,9.70143043 C11.6548233,10.1403997 11.9100526,10.7166646 11.9100526,11.3296457 L11.9100526,21.5090743 C11.9100526,22.3423972 11.169553,23.0354743 10.2453684,23.0354743 L2.62257895,23.0354743 C1.69839441,23.0354743 0.957894737,22.3423972 0.957894737,21.5090743 L0.957894737,20.29536 L0.957894737,12.9054171 L0.957894737,11.5792457 L0.478947368,11.5792457 L0,11.5792457 L0,11.62656 L0.478947368,11.62656 L0.957894737,11.62656 L0.957894737,11.3296457 Z M0.957894737,11.62656 L0,11.5792457 L0,12.9054171 L0,20.29536 L0,21.5090743 C0,22.8878163 1.18344755,23.9954743 2.62257895,23.9954743 L10.2453684,23.9954743 C11.6844998,23.9954743 12.8679474,22.8878163 12.8679474,21.5090743 L12.8679474,11.3296457 C12.8679474,10.4478112 12.5005765,9.6183496 11.8393359,8.99978188 L10.8309552,8.05568957 L10.6929104,7.92644571 L10.504,7.92644571 L2.36394737,7.92644571 L2.17513054,7.92644571 L2.03711056,8.05557874 L1.02790003,8.99980731 C0.367144594,9.61867037 0,10.4480988 0,11.3296457 L0,11.62656 L0.957894737,11.62656 Z M1.77552632,4.42038857 L2.39405263,4.42038857 L10.4684211,4.42038857 L11.0924211,4.42038857 C11.0755899,4.42038857 11.063,4.40777097 11.063,4.39090286 L11.063,6.08873143 C11.063,6.07186332 11.0755899,6.05924571 11.0924211,6.05924571 L1.77552632,6.05924571 C1.79235743,6.05924571 1.80494737,6.07186332 1.80494737,6.08873143 L1.80494737,4.39090286 C1.80494737,4.40777097 1.79235743,4.42038857 1.77552632,4.42038857 Z M0.847052632,6.08873143 C0.847052632,6.60205668 1.26332678,7.01924571 1.77552632,7.01924571 L11.0924211,7.01924571 C11.6046206,7.01924571 12.0208947,6.60205668 12.0208947,6.08873143 L12.0208947,4.39090286 C12.0208947,3.87757761 11.6046206,3.46038857 11.0924211,3.46038857 L10.4718421,3.46038857 L2.39678947,3.46038857 L1.77552632,3.46038857 C1.26332678,3.46038857 0.847052632,3.87757761 0.847052632,4.39090286 L0.847052632,6.08873143 Z" id="Stroke-1"></path>
                    <path d="M2.86848493,3.86001037 C2.84431572,3.44851558 2.92176217,2.92794472 3.18407661,2.43644871 C3.67432554,1.51787405 4.68911532,0.96 6.46469474,0.96 C8.23828383,0.96 9.23899014,1.51575027 9.71027924,2.43031338 C9.95831217,2.91163528 10.0284942,3.42440493 9.99966487,3.83973705 C9.99805737,3.86289552 9.99631563,3.88037782 9.99633783,3.87934678 L10.9465253,4.00088179 C10.9495605,3.97619099 10.9523382,3.94831024 10.9552502,3.9063588 C10.9951985,3.33084095 10.9021676,2.65113128 10.5613734,1.9898009 C9.9182546,0.741792585 8.58255301,-1.13686838e-13 6.46469474,-1.13686838e-13 C4.34882678,-1.13686838e-13 3.00334683,0.739668807 2.33941813,1.98366558 C1.98100144,2.65522745 1.87859784,3.34355242 1.91224545,3.91642239 C1.91607226,3.97182987 1.91607226,3.97182987 1.91820906,3.99221836 L2.87044357,3.88801021 C2.8705998,3.89022105 2.8705998,3.89022105 2.86848493,3.86001037 Z" id="Stroke-3"></path>
                    <path d="M7.10395263,1.12875429 C7.10395263,1.48738286 6.81384737,1.77744 6.45668947,1.77744 C6.09884737,1.77744 5.80942632,1.48738286 5.80942632,1.12875429 C5.80942632,0.770125714 6.09884737,0.480068571 6.45668947,0.480068571 C6.81384737,0.480068571 7.10395263,0.770125714 7.10395263,1.12875429" id="Fill-5"></path>
                    <path d="M4.59522632,1.78594286 C4.59522632,2.14457143 4.30512105,2.43462857 3.94796316,2.43462857 C3.59012105,2.43462857 3.3007,2.14457143 3.3007,1.78594286 C3.3007,1.42731429 3.59012105,1.13725714 3.94796316,1.13725714 C4.30512105,1.13725714 4.59522632,1.42731429 4.59522632,1.78594286" id="Fill-7"></path>
                    <path d="M9.66974211,1.78594286 C9.66974211,2.14457143 9.37963684,2.43462857 9.02247895,2.43462857 C8.66463684,2.43462857 8.37521579,2.14457143 8.37521579,1.78594286 C8.37521579,1.42731429 8.66463684,1.13725714 9.02247895,1.13725714 C9.37963684,1.13725714 9.66974211,1.42731429 9.66974211,1.78594286" id="Fill-9"></path>
                    <path d="M3.44308421,13.1657143 L3.10097895,13.1657143 L3.10097895,13.5085714 L3.10097895,23.5371429 C3.10097895,23.7264976 3.25414469,23.88 3.44308421,23.88 C3.63202373,23.88 3.78518947,23.7264976 3.78518947,23.5371429 L3.78518947,13.5085714 L3.44308421,13.8514286 L5.41018947,13.8514286 C5.59912899,13.8514286 5.75229474,13.6979262 5.75229474,13.5085714 C5.75229474,13.3192167 5.59912899,13.1657143 5.41018947,13.1657143 L3.44308421,13.1657143 Z" id="Stroke-11"></path>
                    <path d="M7.80492632,13.1657143 L7.46282105,13.1657143 L7.46282105,13.5085714 L7.46282105,23.5371429 C7.46282105,23.7264976 7.6159868,23.88 7.80492632,23.88 C7.99386584,23.88 8.14703158,23.7264976 8.14703158,23.5371429 L8.14703158,13.5085714 L7.80492632,13.8514286 L9.77203158,13.8514286 C9.9609711,13.8514286 10.1141368,13.6979262 10.1141368,13.5085714 C10.1141368,13.3192167 9.9609711,13.1657143 9.77203158,13.1657143 L7.80492632,13.1657143 Z" id="Stroke-13"></path>
                </g>
            </g>
        </g>
    </g>
</svg>