<?xml version="1.0" encoding="UTF-8" standalone="no"?>
<svg width="52px" height="51px" viewBox="0 0 52 51" version="1.1" xmlns="http://www.w3.org/2000/svg" xmlns:xlink="http://www.w3.org/1999/xlink">
    <!-- Generator: Sketch 39.1 (31720) - http://www.bohemiancoding.com/sketch -->
    <title>ico_enlatadosyconservas_green</title>
    <desc>Created with Sketch.</desc>
    <defs></defs>
    <g id="supermercado_categoria" stroke="none" stroke-width="1" fill="none" fill-rule="evenodd">
        <g id="Subcategorias_despensa" transform="translate(-325.000000, -258.000000)" fill="#44D481">
            <g id="icon01-copy-25" transform="translate(325.000000, 258.000000)">
                <g id="enlatados_conservas-lgreen" transform="translate(18.000000, 13.000000)">
                    <path d="M0.000142282773,6.60055473 C0.000149785039,6.60230138 0.000144,22.9555 0.000144,22.9555 C0.000144,23.2316424 0.225792486,23.4555 0.504144,23.4555 L16.943904,23.4555 C17.2222555,23.4555 17.447904,23.2316424 17.447904,22.9555 L17.447904,6.57264286 C17.4470343,6.45813766 17.4375952,6.28340454 17.4118469,6.07251893 C17.3783758,5.79838027 17.1272309,5.60306538 16.8508991,5.63627091 C16.5745673,5.66947643 16.3776899,5.91862812 16.4111611,6.19276678 C16.4318528,6.36223831 16.4393337,6.50071949 16.4399188,6.57647416 L16.439904,22.9555 L16.943904,22.4555 L0.504144,22.4555 L1.008144,22.9555 L1.008144,6.59978571 C1.00781561,6.50896053 1.01447642,6.36309419 1.03491356,6.19121796 C1.0675225,5.91697704 0.869862545,5.66843589 0.593427702,5.63608575 C0.316992858,5.60373562 0.0664633751,5.79982684 0.0338544391,6.07406776 C0.00811908323,6.29050191 -0.000313863269,6.47517679 0.000142282773,6.60055473 Z" id="Stroke-1"></path>
                    <path d="M16.68888,4.05721429 C16.9672315,4.05721429 17.19288,3.83335666 17.19288,3.55721429 C17.19288,3.28107191 16.9672315,3.05721429 16.68888,3.05721429 L0.75888,3.05721429 C0.480528486,3.05721429 0.25488,3.28107191 0.25488,3.55721429 C0.25488,3.83335666 0.480528486,4.05721429 0.75888,4.05721429 L16.68888,4.05721429 Z" id="Stroke-3"></path>
                    <path d="M0.419328,5.28535714 C0.419328,5.56149952 0.644976486,5.78535714 0.923328,5.78535714 L16.524288,5.78535714 C16.8026395,5.78535714 17.028288,5.56149952 17.028288,5.28535714 L17.028288,4.77035714 C17.028288,4.49421477 16.8026395,4.27035714 16.524288,4.27035714 C16.2459365,4.27035714 16.020288,4.49421477 16.020288,4.77035714 L16.020288,5.28535714 L16.524288,4.78535714 L0.923328,4.78535714 L1.427328,5.28535714 L1.427328,4.77035714 C1.427328,4.49421477 1.20167951,4.27035714 0.923328,4.27035714 C0.644976486,4.27035714 0.419328,4.49421477 0.419328,4.77035714 L0.419328,5.28535714 Z" id="Stroke-5"></path>
                    <path d="M1.47429055,24.5910691 C1.56199564,24.7536494 1.73278204,24.8551429 1.918656,24.8551429 L15.528096,24.8551429 C15.7137934,24.8551429 15.8844475,24.7538402 15.9722291,24.5914993 C15.985209,24.5677646 15.985209,24.5677646 15.9990382,24.5435327 C16.0758007,24.4103732 16.1790296,24.2637634 16.3018886,24.1104705 C16.4121104,23.9729453 16.5313466,23.8382892 16.650596,23.7130302 C16.7216084,23.6384391 16.7757849,23.5845868 16.8043689,23.5573823 C17.0052334,23.3662124 17.0118527,23.049698 16.8191534,22.8504277 C16.6264541,22.6511573 16.3074076,22.6445906 16.1065431,22.8357605 C16.066619,22.8737578 16.0009061,22.9390776 15.9177751,23.026398 C15.7801188,23.1709914 15.6424493,23.3264646 15.5128925,23.4881145 C15.360468,23.6782966 15.2289248,23.8651194 15.124025,24.0470883 C15.1036911,24.0827151 15.1036911,24.0827151 15.0839629,24.1187864 L15.528096,23.8551429 L1.918656,23.8551429 L2.36302145,24.1192166 C2.0625446,23.5622182 1.70136192,23.129523 1.3141752,22.8114606 C1.09978282,22.6353435 0.782070216,22.6649925 0.604544246,22.8776833 C0.427018275,23.0903742 0.45690441,23.4055653 0.671296796,23.5816823 C0.959427321,23.818373 1.2365481,24.1503624 1.47429055,24.5910691 Z" id="Stroke-7"></path>
                    <path d="M14.0081998,2.26210337 C13.9427831,2.21305909 13.8583906,2.13889575 13.7709915,2.05206672 C13.56157,1.84401133 13.3755142,1.60582186 13.2698506,1.40073937 C13.0866165,1.0451001 13.1178018,0.998720154 13.8946595,0.999999311 C14.7211668,1.00151134 14.7390213,1.02866691 14.5354487,1.38098874 C14.4167848,1.58635968 14.2152028,1.82513929 13.9857107,2.04306146 C13.8929159,2.13117797 13.8023843,2.20907758 13.731009,2.26361151 C13.7037645,2.28442751 13.6824687,2.29936405 13.6716271,2.30600183 C13.724552,2.27359863 13.7573259,2.25873025 13.8728763,2.2571881 C14.0007398,2.25529429 13.9946454,2.25194137 14.0081998,2.26210337 Z M15.4099633,1.87829697 C16.0139024,0.833063138 15.4680621,0.00287601966 13.8964254,8.50124622e-07 C12.3858012,-0.00248651953 11.8360687,0.815093585 12.3723014,1.85586777 C12.7027778,2.49728956 13.4737261,3.26320912 13.8871776,3.25708717 C14.2510314,3.25223167 15.0599087,2.48413441 15.4099633,1.87829697 Z" id="Stroke-9"></path>
                    <polygon id="Stroke-11" points="17.116272 9.48935714 17.116272 8.77507143 0.376272 8.77507143 0.376272 9.48935714"></polygon>
                    <polygon id="Stroke-13" points="17.236296 11.037 17.236296 10.3227143 0.496296 10.3227143 0.496296 11.037"></polygon>
                    <polygon id="Stroke-15" points="17.056296 12.3465 17.056296 11.6322143 0.316296 11.6322143 0.316296 12.3465"></polygon>
                    <polygon id="Stroke-17" points="17.116272 14.0727143 17.116272 13.3584286 0.376272 13.3584286 0.376272 14.0727143"></polygon>
                    <polygon id="Stroke-19" points="17.236296 15.6203571 17.236296 14.9060714 0.496296 14.9060714 0.496296 15.6203571"></polygon>
                    <polygon id="Stroke-21" points="17.236296 17.1084286 17.236296 16.3941429 0.496296 16.3941429 0.496296 17.1084286"></polygon>
                    <polygon id="Stroke-23" points="17.056296 18.4775 17.056296 17.7632143 0.316296 17.7632143 0.316296 18.4775"></polygon>
                    <polygon id="Stroke-25" points="0.549072 19.4755714 0.549072 20.1898571 17.116272 20.1898571 17.116272 19.4755714"></polygon>
                </g>
            </g>
        </g>
    </g>
</svg>