<?xml version="1.0" encoding="UTF-8" standalone="no"?>
<svg width="52px" height="51px" viewBox="0 0 52 51" version="1.1" xmlns="http://www.w3.org/2000/svg" xmlns:xlink="http://www.w3.org/1999/xlink">
    <!-- Generator: Sketch 39.1 (31720) - http://www.bohemiancoding.com/sketch -->
    <title>ico_comidaspreparadas_grey</title>
    <desc>Created with Sketch.</desc>
    <defs></defs>
    <g id="supermercado_categoria" stroke="none" stroke-width="1" fill="none" fill-rule="evenodd" stroke-linejoin="round">
        <g id="Subcategorias_despensa" transform="translate(-77.000000, -136.000000)" stroke="#D4D4D4" stroke-width="1.4">
            <g id="icon01-copy-28" transform="translate(77.000000, 136.000000)">
                <g id="comida_preparada_yellow" transform="translate(11.000000, 12.000000)">
                    <path d="M29.5285714,22.0111839 C29.1934286,22.9605387 28.3911429,23.7897 27.5708571,24.4246355 L26.7617143,19.1517968 L28.5985714,17.7286355 C28.7468571,18.2451194 28.944,18.7947 29.2482857,19.3991516 C29.7274286,20.3380548 29.8165714,21.1933452 29.5285714,22.0111839 L29.5285714,22.0111839 Z M15.0111429,16.9299581 C15.228,16.4596355 15.3308571,15.9205065 15.3111429,15.3317323 C15.2674286,14.0923452 14.6091429,13.231829 13.5402857,12.9461516 C13.6208571,12.6543774 13.6662857,12.3242806 13.6405714,11.9715387 C13.602,11.4411194 13.3791429,10.6581194 12.5314286,9.93957097 C11.9451429,9.44311935 11.3142857,9.19228065 10.656,9.19228065 C10.0542857,9.19228065 9.53828571,9.4013129 9.132,9.65737742 C8.63314286,8.77334516 7.75114286,7.93373226 6.24771429,8.19676452 C5.74885714,8.28473226 5.12314286,8.54253871 4.62428571,9.22363548 L0,5.78853871 L23.1574286,2.12350645 C23.7205714,2.02682903 24.2177143,2.42050645 24.3025714,2.97095806 L27.9085714,26.5036355 L15.0111429,16.9299581 L15.0111429,16.9299581 Z M17.4385714,0.348474194 L19.1991429,2.69573226 L13.1802857,3.6477 L17.4385714,0.348474194 L17.4385714,0.348474194 Z M26.3022857,8.2943129 C26.8585714,8.3457 27.3214286,8.67318387 27.6788571,9.26892581 C28.3071429,10.3123452 28.368,11.7842806 28.0637143,12.5481194 C27.8074286,13.1935065 27.6942857,13.9947968 27.6557143,14.7873774 L25.6902857,12.1666355 L25.05,7.98511935 C25.4245714,8.1323129 25.83,8.25076452 26.3022857,8.2943129 L26.3022857,8.2943129 Z M26.7797143,19.1500548 L25.7108571,12.1779581 L29.4102857,17.1102484 L26.7797143,19.1500548 L26.7797143,19.1500548 Z" id="comida_preparada"></path>
                </g>
            </g>
        </g>
    </g>
</svg>