<?xml version="1.0" encoding="UTF-8" standalone="no"?>
<svg width="52px" height="51px" viewBox="0 0 52 51" version="1.1" xmlns="http://www.w3.org/2000/svg" xmlns:xlink="http://www.w3.org/1999/xlink">
    <!-- Generator: Sketch 39.1 (31720) - http://www.bohemiancoding.com/sketch -->
    <title>ico_basesysopas_grey</title>
    <desc>Created with Sketch.</desc>
    <defs></defs>
    <g id="supermercado_categoria" stroke="none" stroke-width="1" fill="none" fill-rule="evenodd">
        <g id="Subcategorias_despensa" transform="translate(-15.000000, -136.000000)" fill="#D4D4D4">
            <g id="icon01-copy-27" transform="translate(15.000000, 136.000000)">
                <g id="sopas_cremas_dgreen" transform="translate(13.000000, 12.000000)">
                    <path d="M1.30388889,10.4235828 C1.42425926,15.8003069 3.12055556,24.0502034 12.3835185,24.0502034 C20.9862963,24.0502034 23.0177778,16.7918586 23.1427778,10.4235828 L1.30388889,10.4235828 Z M12.3835185,25.3536517 C1.20759259,25.3536517 0.000185185185,14.4568241 0.000185185185,9.77185862 L0.000185185185,9.12013448 L24.4455556,9.12013448 L24.4455556,9.77185862 C24.4455556,19.8195828 20.1612963,25.3536517 12.3835185,25.3536517 L12.3835185,25.3536517 Z" id="Fill-1"></path>
                    <polygon id="Fill-4" points="1.16296296 26.9757931 23.2824074 26.9757931 23.2824074 25.6723448 1.16296296 25.6723448"></polygon>
                    <path d="M15.7805556,8.24645172 L15.4657407,6.9821069 C15.7009259,6.92252069 16.2657407,6.43652069 16.2694444,5.5836931 C16.2694444,5.48686552 16.1796296,5.2271069 15.8407407,4.89007241 C14.9268519,3.97114138 14.1462963,2.94048621 14.6111111,1.62307241 C15.0444444,0.398762069 16.0166667,-0.139375862 17.5027778,0.0310034483 L17.6101852,0.0412448276 L17.587963,0.492796552 L17.7888889,1.32327931 C17.6444444,1.35865862 17.5185185,1.34376207 17.3592593,1.32607241 C16.587963,1.23855517 16.0907407,1.33165862 15.8333333,2.05879655 C15.6722222,2.51686552 15.7703704,2.97586552 16.7564815,3.96648621 C17.2777778,4.48693448 17.5666667,5.06324483 17.5666667,5.58648621 C17.5601852,6.97279655 16.6527778,8.02672759 15.7805556,8.24645172" id="Fill-6"></path>
                    <path d="M6.75731481,8.24645172 L6.4425,6.9821069 C6.67768519,6.92252069 7.2425,6.43652069 7.24527778,5.58462414 C7.24527778,5.48686552 7.15638889,5.2271069 6.81842593,4.88821034 C5.90453704,3.97207241 5.12305556,2.94141724 5.58972222,1.62214138 C6.02212963,0.398762069 6.9925,-0.139375862 8.48046296,0.0310034483 L8.58694444,0.0412448276 L8.56472222,0.494658621 L8.76657407,1.32327931 C8.62398148,1.35772759 8.49712963,1.34376207 8.33601852,1.32607241 C7.5637963,1.23855517 7.06935185,1.33165862 6.81101852,2.05879655 C6.64898148,2.51779655 6.74805556,2.97586552 7.73509259,3.96555517 C8.25546296,4.49065862 8.5425,5.06603793 8.5425,5.58648621 C8.53787037,6.97279655 7.63046296,8.02672759 6.75731481,8.24645172" id="Fill-7"></path>
                    <path d="M11.2684259,8.24645172 L10.9536111,6.9821069 C11.1887963,6.92252069 11.7536111,6.43652069 11.7573148,5.5836931 C11.7573148,5.48686552 11.6684259,5.2271069 11.329537,4.88914138 C10.4156481,3.97114138 9.63324074,2.94048621 10.1017593,1.62121034 C10.5332407,0.399693103 11.5008333,-0.136582759 12.9906481,0.0310034483 L13.0980556,0.0412448276 L13.0758333,0.492796552 L13.2767593,1.32327931 C13.1313889,1.35865862 13.0063889,1.34376207 12.8471296,1.32607241 C12.079537,1.23762414 11.580463,1.33072759 11.3230556,2.05879655 C11.1600926,2.51779655 11.2591667,2.97586552 12.2452778,3.96555517 C12.7665741,4.48786552 13.054537,5.06417586 13.054537,5.58648621 C13.0489815,6.97279655 12.1415741,8.02765862 11.2684259,8.24645172" id="Fill-8"></path>
                    <polygon id="Fill-9" points="0.905555556 14.4636207 23.512963 14.4636207 23.512963 13.1601724 0.905555556 13.1601724"></polygon>
                </g>
            </g>
        </g>
    </g>
</svg>