<?xml version="1.0" encoding="UTF-8" standalone="no"?>
<svg width="52px" height="51px" viewBox="0 0 52 51" version="1.1" xmlns="http://www.w3.org/2000/svg" xmlns:xlink="http://www.w3.org/1999/xlink">
    <!-- Generator: Sketch 39.1 (31720) - http://www.bohemiancoding.com/sketch -->
    <title>ico_pastas_grey</title>
    <desc>Created with Sketch.</desc>
    <defs></defs>
    <g id="supermercado_categoria" stroke="none" stroke-width="1" fill="none" fill-rule="evenodd">
        <g id="Subcategorias_despensa" transform="translate(-387.000000, -14.000000)" fill="#D4D4D4">
            <g id="icon01-copy-6" transform="translate(387.000000, 14.000000)">
                <g id="pasta_red" transform="translate(17.000000, 13.000000)">
                    <path d="M17.7589557,8.70212464 L17.8169333,9.19282703 L17.8331047,8.70120027 C17.7970425,8.70059342 17.7970425,8.70059342 17.7662284,8.70075625 C17.3302213,8.702276 16.9386824,8.65060091 16.5280861,8.46985154 C15.8922201,8.18993586 15.4794128,7.67336714 15.3577388,6.79785999 C15.2928348,6.49679677 15.1437628,6.26041439 14.9202485,6.11632556 C14.6954051,5.97137998 14.4159733,5.9333792 14.1515254,5.99161042 C13.1049131,6.2167079 11.5676757,7.61007239 11.165056,9.8172165 L11.6496741,9.90536757 L11.4535302,9.45415299 C11.3143239,9.51449422 11.1922433,9.58479154 11.0477221,9.68201439 C11.0031566,9.71199468 10.8284789,9.83387245 10.7834199,9.86417209 C10.643198,9.96631792 10.5243111,10.0631073 10.4068356,10.1676862 C10.3006364,10.2622266 10.1987247,10.3601425 10.0867093,10.473579 C10.0211395,10.5399806 9.80281304,10.7667443 9.82713251,10.7416596 C9.63875849,10.9665541 9.50004382,11.1854195 9.38167573,11.4238851 C9.25520661,11.6786712 9.1568535,11.9445256 9.07501174,12.2300487 C9.02733059,12.3963949 8.91730175,12.8536123 8.94298026,12.7529093 L9.42034074,12.8742865 L9.23781612,12.4174089 C8.92577095,12.541718 8.62878444,12.7174444 8.34732363,12.943585 C8.23781556,13.0226998 8.11560804,13.1222734 7.9947936,13.2303071 C7.89055701,13.3235168 7.79055768,13.4199568 7.68002319,13.5322052 C7.61713452,13.5960689 7.41896455,13.8022118 7.42468806,13.7963082 C7.23641639,14.0210793 7.09777159,14.2397515 6.97945733,14.4779634 C6.85289332,14.7327852 6.75447183,14.9986934 6.67261629,15.2842159 C6.62482373,15.4509224 6.51321649,15.9149434 6.54046875,15.8078212 L7.0178963,15.9289351 L6.83642288,15.4716402 C6.52571536,15.5945912 6.2285705,15.7704114 5.94555005,15.9969929 C5.8381783,16.074836 5.71891931,16.1719126 5.60103036,16.2769629 C5.49510642,16.3713513 5.39363046,16.4689821 5.28130942,16.5828389 C5.21839578,16.6466128 5.023863,16.8485879 5.02274103,16.8497419 C4.83386961,17.0751487 4.69515493,17.2940141 4.57678684,17.5324797 C4.45031772,17.7872658 4.35196461,18.0531202 4.27012285,18.3386433 C4.2224417,18.5049895 4.11241287,18.9622069 4.13809137,18.8615039 L4.61545185,18.9828811 L4.43292723,18.5260035 C4.12088206,18.6503125 3.82389555,18.826039 3.54243474,19.0521796 C3.43590472,19.1293599 3.31681719,19.2262241 3.19920486,19.3309163 C3.09298141,19.4254708 2.99115216,19.5233638 2.87906169,19.636976 C2.81417517,19.7027434 2.60380401,19.9214013 2.61979917,19.9049028 C2.04525513,20.6703578 1.63142353,21.8992196 1.70542083,22.2422897 C1.68731291,22.1583369 1.69161333,22.1292598 1.70178251,22.0897387 C1.67208555,22.2051517 1.66291785,22.2671387 1.68923564,22.3891546 C1.70918452,22.4816427 1.71976727,22.5240193 1.74278512,22.586206 C1.79210034,22.7194396 1.86723704,22.8326875 1.9986182,22.9173825 L2.05421079,22.9532204 C2.32755223,23.1281863 2.50363917,23.1952635 2.78539244,23.1346646 C3.56602,22.9607858 4.94160436,23.5010219 5.18804587,25.0485638 C5.25151334,25.3399924 5.40058531,25.5763748 5.62409968,25.7204636 C5.84977352,25.8645241 6.12737735,25.9022763 6.39046651,25.8456916 L6.28674815,25.364827 L6.02037496,25.7785959 C6.90332292,26.3453979 9.03706871,24.5239226 9.4551567,22.1435879 L8.96997037,22.0586108 L9.20823057,22.489135 C9.68670335,22.225092 10.1403517,21.8609211 10.4846703,21.4633444 L10.5977062,21.2973437 C11.1002522,20.6748808 11.4438308,19.8712206 11.6211387,19.1742653 L11.1437111,19.0531514 L11.3257105,19.5102378 C11.9055172,19.2800309 12.4658633,18.8549439 12.8825072,18.3575658 L12.5046741,18.0419622 L12.8148022,18.4241291 L12.8964319,18.3580751 L12.9707786,18.2834093 C13.5025315,17.6204381 13.8456935,16.817947 14.023516,16.1205826 L13.5461556,15.9992054 L13.7281549,16.4562919 C14.3083472,16.2259319 14.8688271,15.8005305 15.2852189,15.3025977 L15.3927432,15.1430734 C15.8951736,14.5201352 16.2383223,13.7174804 16.4161086,13.0202583 L15.9387481,12.8988811 L16.1207475,13.3559675 C16.6860806,13.1315072 17.2319368,12.7243661 17.7071545,12.2110686 L17.7592988,12.1439383 L17.8310765,12.0329113 C17.9212319,11.9191788 18.027685,11.763229 18.127004,11.5998127 C18.5218813,10.9500937 18.9472827,9.75273986 18.8169654,9.95431668 L18.8851881,9.8487887 L18.894391,9.72351776 C18.901078,9.56200858 18.8810784,9.40348345 18.8088157,9.23776146 C18.6506763,8.8750955 18.2994802,8.65864721 17.827536,8.69235036 L17.7589557,8.70212464 Z M18.4031185,9.68752973 L17.9892716,9.42074278 C18.038782,9.34415925 17.6071953,10.5589227 17.2847899,11.0893985 C17.2040542,11.2222386 17.118282,11.3478917 17.0273436,11.4654938 L16.9316049,11.6103644 L17.3454519,11.8771514 L16.9837492,11.5432341 C16.6012213,11.9564143 16.1709604,12.2773357 15.7567488,12.4417946 L15.5233624,12.5344586 L15.4613877,12.7775039 C15.3151618,13.3509559 15.0233655,14.0334928 14.5942811,14.5689603 L14.4932716,14.7205266 C14.2131718,15.049727 13.784117,15.3753774 13.3641562,15.542119 L13.1307698,15.6347829 L13.0687951,15.8778282 C12.922566,16.4512927 12.6308117,17.1335659 12.2018289,17.6684069 L12.5863037,17.9759081 L12.2761755,17.5937411 L12.1945459,17.6597952 L12.126841,17.7263586 C11.8106337,18.1038382 11.3814826,18.4293987 10.9617117,18.5960649 L10.728166,18.6887921 L10.6662836,18.9320374 C10.5205442,19.5049044 10.2284745,20.1880809 9.79938441,20.7230556 L9.69823458,20.8747968 C9.47211657,21.1285562 9.10968096,21.4195051 8.73171017,21.6280866 L8.52548823,21.7418892 L8.48478404,21.9736337 C8.29657493,23.0451801 7.82819184,23.8436224 7.19427565,24.3847659 C6.96400011,24.581341 6.72598292,24.7292637 6.51639235,24.8189176 C6.43946328,24.8518246 6.37417937,24.873206 6.33195698,24.881841 C6.38217343,24.8715712 6.42902295,24.8713941 6.55312133,24.9510582 L6.38195361,24.8411783 L6.18302978,24.8839625 C5.95796039,23.6190282 5.25170325,22.806805 4.24359847,22.4108899 C3.62642467,22.168506 2.87884873,22.1058951 2.57442419,22.1737086 C2.59176718,22.1287659 2.53295218,22.0908661 2.53295218,22.0908661 C2.64872086,22.1654965 2.64884409,22.1658295 2.65233473,22.182013 C2.67044264,22.2659658 2.66614222,22.2950429 2.65597305,22.334564 C2.68567,22.219151 2.69483771,22.157164 2.66851991,22.0351481 C2.6866743,22.1193164 2.68791309,22.1075507 2.67950083,22.1579325 C2.68403265,22.1307911 2.691914,22.0917916 2.70241411,22.0461376 C2.73039957,21.9244584 2.77072414,21.7811803 2.8210878,21.6316268 C2.95750827,21.2265299 3.14212533,20.8455795 3.36916061,20.5403382 C3.31551581,20.6016718 3.52111638,20.3879725 3.58086589,20.3274118 C3.67908406,20.2278603 3.76611249,20.1441959 3.85476317,20.0652838 C3.94956423,19.980897 4.04422154,19.9039039 4.14207466,19.8324195 C4.36668225,19.6526238 4.57901909,19.5269844 4.79797647,19.4397586 L5.0309255,19.346959 L5.09281233,19.1042583 C5.0718153,19.1866021 5.17647952,18.751677 5.2172728,18.6093606 C5.28383338,18.3771493 5.36211188,18.1655578 5.45948762,17.9693836 C5.54559447,17.7959118 5.64391075,17.6407874 5.75559676,17.5060685 C5.7343201,17.5301621 5.92517138,17.3320092 5.98314683,17.2732411 C6.08171646,17.1733237 6.16853585,17.0897941 6.25697786,17.0109838 C6.3519578,16.9263476 6.44666627,16.8492551 6.54451911,16.7777708 C6.77023746,16.5976799 6.98268479,16.4719751 7.19936972,16.3862301 L7.43335355,16.2936396 L7.49532384,16.0500491 C7.47279506,16.1386044 7.57887011,15.6975841 7.61975401,15.5549759 C7.68630766,15.3228283 7.76462108,15.1112466 7.86205186,14.9150812 C7.94811876,14.7417956 8.04639437,14.5867942 8.1580412,14.4521226 C8.13043103,14.4827354 8.32452636,14.2808311 8.38248448,14.2219743 C8.47945257,14.1235027 8.56499259,14.0410074 8.65201535,13.9631905 C8.74927804,13.8762171 8.84620143,13.7972447 8.94647335,13.7241825 C9.17157114,13.5440292 9.38390798,13.4183898 9.60286536,13.3311641 L9.83581439,13.2383645 L9.89770122,12.9956637 C9.87670419,13.0780075 9.98136841,12.6430824 10.0221617,12.500766 C10.0887223,12.2685547 10.1670008,12.0569632 10.2643765,11.860789 C10.3504834,11.6873172 10.4487996,11.5321928 10.5604856,11.3974739 C10.5146588,11.4468766 10.7277995,11.2254993 10.78821,11.1643223 C10.8864444,11.0648417 10.9736525,10.9810529 11.0624233,10.9020275 C11.1572942,10.8175717 11.2519791,10.7404858 11.3497665,10.6689141 C11.3881196,10.6435947 11.5629015,10.5216442 11.5981665,10.4979206 C11.6968438,10.431538 11.7697612,10.3895502 11.8458179,10.3565821 L12.0871455,10.2519748 L12.1342922,9.99351863 C12.4605835,8.20480358 13.6802186,7.09931646 14.3613184,6.95282671 C14.5519737,8.15681772 15.1909011,8.95634306 16.1306805,9.37004503 C16.4549987,9.51281375 16.7961738,9.60092892 17.1450086,9.64696794 C17.3771114,9.67760075 17.5546548,9.68528349 17.7696672,9.68453404 C17.7997607,9.68446491 17.9206517,9.67369158 17.9206517,9.67369158 C17.9113742,9.65853005 18.4031185,9.68752973 18.4031185,9.68752973 Z" id="Stroke-1"></path>
                    <polygon id="Stroke-3" points="11.6196016 9.55546056 11.6801687 10.2555557 18.3189095 9.68285295 18.2583424 8.98275786"></polygon>
                    <polygon id="Stroke-5" points="9.42181093 12.5230782 9.41915203 13.2257759 15.9375594 13.2503705 15.9402183 12.5476728"></polygon>
                    <polygon id="Stroke-7" points="7.02182955 15.5774637 7.01424452 16.2801255 13.5425038 16.3503958 13.5500888 15.6477339"></polygon>
                    <polygon id="Stroke-9" points="4.61931474 18.6318312 4.61172971 19.3344931 11.139989 19.4047634 11.147574 18.7021015"></polygon>
                    <polygon id="Stroke-11" points="2.29600493 22.1892496 2.34689137 22.8901126 8.99548396 22.4087613 8.94459752 21.7078982"></polygon>
                    <path d="M8.60931236,11.4989619 L8.61412316,11.3899184 C8.55708473,10.5429883 8.26836668,9.72321109 7.9272827,9.08580478 L7.49282593,9.31762703 L7.93641456,9.53151055 C8.20766942,8.97053469 8.33284908,8.2796245 8.3037002,7.63155638 L8.27454565,7.43952305 C8.22413849,6.64282608 7.93510984,5.82236099 7.59351364,5.18540623 L7.15927037,5.41762703 L7.60250489,5.63224134 C7.86776245,5.08597275 7.99462446,4.41841955 7.99807921,3.71810416 L7.99095305,3.63227981 L7.96843453,3.5015771 C7.93000479,3.02548199 7.80116096,2.51242436 7.61177723,2.00731494 C7.53337469,1.79820585 7.45172172,1.60877596 7.36121174,1.41701741 C7.20570035,1.08754395 7.27784718,1.23740002 7.28936046,1.30422575 L7.26809874,1.18081778 L7.19033309,1.08258336 C7.14591458,1.02647342 7.08056091,0.959962033 6.99124276,0.894504208 C6.61021531,0.615263886 6.11456805,0.611376532 5.70658318,1.04173341 L5.63503898,1.13402152 L6.03686296,1.41854595 L5.71658441,1.04482024 C5.71979475,1.04207684 5.59084824,1.15962419 5.53003391,1.21096832 C5.42265628,1.30162476 5.3073568,1.38815821 5.1813378,1.46903099 C4.34861058,2.00343425 3.49900766,2.0512981 2.60281851,1.31139277 C2.35222808,1.13308937 2.08152377,1.05920212 1.81864525,1.10460831 C1.55696962,1.14814951 1.32570552,1.30861148 1.16936222,1.52989589 C0.549648185,2.39785838 0.358411313,4.46676075 1.55458292,6.36603872 L1.97156667,6.10416757 L1.52179074,5.9035825 C1.49599508,5.96126019 1.47310517,6.01970135 1.45241634,6.08000725 C1.41319255,6.1943407 1.38685636,6.29609005 1.34991732,6.46156301 C1.32771604,6.56196833 1.31721589,6.60883439 1.3052287,6.65902241 C1.22801834,7.04112874 1.20931032,7.30155373 1.19647386,7.83372181 C1.19503464,7.89296538 1.19503464,7.89296538 1.19347976,7.94917817 C1.21876467,8.47793246 1.36043602,8.95231228 1.58702199,9.43304408 C1.64495544,9.55595748 1.70505853,9.67227932 1.77410372,9.79809617 C1.80065413,9.84647738 1.88847491,10.0029214 1.90279199,10.0295499 L2.33678889,9.79687027 L1.89379353,9.58176411 C1.74702052,9.88317304 1.6466836,10.2139371 1.59222918,10.5718511 C1.52288481,10.9136507 1.50418192,11.1741387 1.49132604,11.7064914 C1.48988698,11.7656516 1.48988698,11.7656516 1.48833249,11.8217429 C1.51361652,12.3505271 1.65528787,12.8249069 1.88187384,13.3056387 C1.93980729,13.4285521 1.99991038,13.5448739 2.06895557,13.6706908 C2.09550598,13.719072 2.18332676,13.875516 2.19764384,13.9021445 L2.63164074,13.6694649 L2.18841342,13.4548357 C2.0416107,13.7571339 1.94144429,14.0871308 1.88708103,14.4444457 C1.81773089,14.7868422 1.7990262,15.0472724 1.786178,15.5791058 C1.7847389,15.638248 1.7847389,15.638248 1.78318434,15.6943374 C1.80846641,16.223083 1.95009229,16.6973474 2.17669452,17.1782992 C2.23458708,17.3011732 2.29461609,17.417423 2.36371173,17.5434527 C2.38950687,17.5905027 2.47764424,17.7477497 2.49224932,17.774983 L2.92649259,17.5427622 L2.48349724,17.327656 C2.33651469,17.6294952 2.2362821,17.9597102 2.18190805,18.3179064 C2.14113526,18.5865024 2.32613269,18.8372484 2.59511138,18.8779632 C2.86409006,18.918678 3.11519324,18.7339437 3.15596602,18.4653477 C3.19578158,18.2030575 3.26707625,17.9681781 3.36948795,17.7578683 L3.47948894,17.5319734 L3.36073586,17.3105414 C3.34090257,17.2735594 3.24962334,17.1107069 3.2278686,17.0710265 C3.16771792,16.9613123 3.1165556,16.8622335 3.06814446,16.7594833 C2.89161286,16.3848039 2.78499847,16.0277829 2.76752691,15.6837921 C2.76961081,15.6631073 2.76961081,15.6631073 2.77107664,15.6028316 C2.78260107,15.1257937 2.79826472,14.9077047 2.8570541,14.6150861 C2.9009152,14.3304493 2.97227524,14.0953545 3.07486806,13.884094 L3.18462245,13.6580863 L3.06563764,13.4367853 C3.04617943,13.4005947 2.95545955,13.2389863 2.93292105,13.1979157 C2.87286877,13.0884861 2.82167996,12.9894167 2.77326144,12.8866905 C2.5967844,12.5122713 2.49014732,12.1552021 2.47267506,11.8111975 C2.47475903,11.7905053 2.47475903,11.7905053 2.4762249,11.7302082 C2.4877541,11.2527921 2.50341806,11.0346293 2.56217312,10.7426364 C2.60613299,10.457397 2.67758748,10.2218448 2.77978424,10.0119764 L2.88992899,9.78578627 L2.77078579,9.56419066 C2.75132757,9.52800014 2.6606077,9.36639167 2.6380692,9.32532113 C2.57801692,9.2158915 2.5268281,9.1168221 2.47840959,9.01409587 C2.30193255,8.63967674 2.19529547,8.2826075 2.17782321,7.93860292 C2.17990767,7.91778014 2.17990767,7.91778014 2.18137338,7.85741109 C2.19288511,7.38016294 2.20854828,7.16212385 2.26732127,6.87004181 C2.27739273,6.82923595 2.28962466,6.77464029 2.31150096,6.67561003 C2.34107772,6.54311728 2.35996448,6.47014869 2.38442838,6.39883884 C2.39576267,6.36580052 2.40790838,6.3347908 2.42134259,6.30475264 L2.52866909,6.06477646 L2.38855042,5.84229641 C1.82050197,4.94035066 1.62613419,4.04165044 1.70568067,3.18107418 C1.75349831,2.66375753 1.91695496,2.17745104 1.97295282,2.0990203 C1.97449903,2.07608072 1.98637148,2.07932124 2.00496412,2.09242008 C3.24264602,3.11613005 4.55195169,3.04236806 5.7139714,2.29664112 C5.87854947,2.19102303 6.02768134,2.07909801 6.16611092,1.96222514 C6.24531214,1.89535739 6.377166,1.7751597 6.35714151,1.79227166 L6.43868694,1.70307037 L6.46613139,1.66442172 C6.45708868,1.68108177 6.39880489,1.68062465 6.40834462,1.68761595 C6.41785172,1.69458334 6.8039,1.38762703 6.8039,1.38762703 L6.31843954,1.4710283 C6.33009779,1.53869551 6.59271416,2.09508644 6.68913855,2.352262 C6.84915293,2.77903979 6.95668242,3.20722349 6.99212856,3.62636992 L7.02003213,3.79908236 L7.50549259,3.71568108 L7.01290598,3.713258 C7.0101239,4.2772167 6.91015856,4.80323846 6.71603585,5.20301271 L6.60643693,5.42871956 L6.7250271,5.64984783 C7.00629214,6.17430654 7.2520357,6.87189834 7.29757884,7.55557305 L7.32614324,7.7370283 C7.34164937,8.16798504 7.24573462,8.69737194 7.04923729,9.1037435 L6.94035806,9.3289141 L7.05836915,9.54944927 C7.33946297,10.074748 7.58511374,10.7722413 7.63115832,11.4559302 L8.12264074,11.4229243 L7.63596912,11.3468867 L7.61978394,11.450184 C7.57772972,11.718583 7.76152834,11.9702066 8.03030966,12.012201 C8.29909097,12.0541954 8.55107296,11.8706582 8.59312717,11.6022592 L8.60931236,11.4989619 Z" id="Stroke-13"></path>
                    <path d="M1.71237107,5.86627466 C1.58091588,6.009182 1.59036471,6.23144519 1.73347562,6.36271338 C1.87658653,6.49398158 2.09916633,6.48454619 2.23062152,6.34163886 L6.73854745,1.44099021 C6.87000264,1.29808287 6.86055381,1.07581968 6.7174429,0.944551481 C6.57433199,0.813283283 6.35175219,0.82271867 6.220297,0.96562601 L1.71237107,5.86627466 Z" id="Stroke-15"></path>
                    <path d="M2.09959244,9.53712273 C1.95581689,9.6676647 1.94523971,9.8898772 2.07596764,10.0334482 C2.20669556,10.1770193 2.4292246,10.1875814 2.57300015,10.0570394 L7.39618533,5.67779619 C7.53996088,5.54725422 7.55053807,5.32504172 7.41981014,5.18147069 C7.28908221,5.03789966 7.06655318,5.02733752 6.92277763,5.15787949 L2.09959244,9.53712273 Z" id="Stroke-17"></path>
                    <path d="M2.39646926,13.4085035 C2.25178919,13.5380451 2.23966666,13.7601789 2.36939282,13.9046532 C2.49911899,14.0491274 2.72156919,14.0612327 2.86624926,13.9316911 L7.72743444,9.57915055 C7.87211451,9.44960892 7.88423705,9.22747515 7.75451088,9.08300088 C7.62478472,8.93852662 7.40233451,8.92642133 7.25765445,9.05596296 L2.39646926,13.4085035 Z" id="Stroke-19"></path>
                </g>
            </g>
        </g>
    </g>
</svg>