<?xml version="1.0" encoding="UTF-8" standalone="no"?>
<svg width="52px" height="51px" viewBox="0 0 52 51" version="1.1" xmlns="http://www.w3.org/2000/svg" xmlns:xlink="http://www.w3.org/1999/xlink">
    <!-- Generator: Sketch 39.1 (31720) - http://www.bohemiancoding.com/sketch -->
    <title>ico_arroz_grey</title>
    <desc>Created with Sketch.</desc>
    <defs></defs>
    <g id="supermercado_categoria" stroke="none" stroke-width="1" fill="none" fill-rule="evenodd">
        <g id="Subcategorias_despensa" transform="translate(-139.000000, -14.000000)" fill="#D4D4D4">
            <g id="icon01-copy-2" transform="translate(139.000000, 14.000000)">
                <g id="arroz_blue" transform="translate(14.000000, 15.000000)">
                    <path d="M22.9527158,21.8588229 L0.441978947,21.8588229 C0.198189474,21.8588229 -0.00012631579,21.66208 -0.00012631579,21.4188229 C-0.00012631579,21.1755657 0.198189474,20.9788229 0.441978947,20.9788229 L22.9527158,20.9788229 C23.1971368,20.9788229 23.3948211,21.1755657 23.3948211,21.4188229 C23.3948211,21.66208 23.1971368,21.8588229 22.9527158,21.8588229" id="Fill-1"></path>
                    <path d="M3.03821053,20.7060229 C2.83231579,20.7060229 2.64726316,20.5614514 2.60494737,20.3521371 C2.06115789,17.6417371 0.467052632,8.23830857 2.80136842,1.02356571 C2.85,0.871451429 2.97821053,0.75768 3.13484211,0.726251429 C3.40578947,0.672822857 9.78221053,-0.576777143 12.7474737,0.455337143 C12.9773684,0.535794286 13.0992632,0.786594286 13.0190526,1.01602286 C12.9375789,1.24545143 12.6849474,1.36613714 12.4550526,1.28568 C10.0304211,0.442765714 4.78263158,1.31962286 3.56431579,1.54150857 C1.41063158,8.52242286 2.94536842,17.5531086 3.47210526,20.1799086 C3.52010526,20.4181371 3.36536842,20.65008 3.12536842,20.6972229 C3.09631579,20.7035086 3.06726316,20.7060229 3.03821053,20.7060229" id="Fill-4"></path>
                    <path d="M20.2629474,12.57388 C20.0185263,12.57388 19.8208421,12.3771371 19.8208421,12.13388 C19.8189474,5.45153714 18.6056842,1.84982286 18.2286316,0.892508571 C15.5665263,1.10245143 9.38968421,3.96810857 9.32589474,3.99765143 C9.10547368,4.10073714 8.84147368,4.00645143 8.73789474,3.78645143 C8.63431579,3.56582286 8.72968421,3.30370857 8.95073684,3.20125143 C9.23115789,3.07050857 15.8526316,-6.2857143e-05 18.5172632,-6.2857143e-05 C18.6877895,-6.2857143e-05 18.8431579,0.0973657143 18.9164211,0.250737143 C18.9890526,0.402222857 20.7025263,4.06365143 20.7050526,12.13388 C20.7050526,12.3765086 20.5073684,12.57388 20.2629474,12.57388" id="Fill-6"></path>
                    <path d="M10.4876842,9.78245714 L10.494,9.78245714 L10.4876842,9.78245714 Z M11.0150526,9.702 L10.7112632,10.0049714 C10.5407368,10.1740571 10.4472632,10.3990857 10.4472632,10.6398286 C10.4472632,10.8812 10.5407368,11.1062286 10.7112632,11.2753143 L11.0150526,11.5782857 L11.3194737,11.2753143 C11.49,11.1062286 11.5834737,10.8805714 11.5834737,10.6398286 C11.5834737,10.3997143 11.49,10.1740571 11.3194737,10.0049714 L11.0150526,9.702 Z M11.0150526,12.4677143 L10.2641053,11.7203429 C9.97484211,11.4324571 9.81568421,11.0490286 9.81568421,10.6398286 C9.81568421,10.2312571 9.97484211,9.84782857 10.2641053,9.55994286 L11.0150526,8.81257143 L11.766,9.55994286 C12.0552632,9.84845714 12.2150526,10.2318857 12.2150526,10.6398286 C12.2150526,11.0484 12.0552632,11.4318286 11.766,11.7203429 L11.0150526,12.4677143 Z M8.52663158,11.7561714 L8.52663158,12.1854857 C8.52663158,12.6801714 8.93147368,13.0830857 9.42915789,13.0830857 L9.86052632,13.0830857 L9.86052632,12.6544 C9.86052632,12.1590857 9.45505263,11.7561714 8.95736842,11.7561714 L8.52663158,11.7561714 Z M10.4921053,13.7116571 L9.42915789,13.7116571 C8.58284211,13.7116571 7.89505263,13.0271429 7.89505263,12.1854857 L7.89505263,11.1276 L8.95736842,11.1276 C9.80368421,11.1276 10.4921053,11.8127429 10.4921053,12.6544 L10.4921053,13.7116571 Z M12.1758947,13.0830857 L12.6066316,13.0830857 C13.1049474,13.0830857 13.5097895,12.6801714 13.5097895,12.1854857 L13.5097895,11.7561714 L13.0790526,11.7561714 C12.5807368,11.7561714 12.1758947,12.1590857 12.1758947,12.6544 L12.1758947,13.0830857 Z M12.6066316,13.7116571 L11.5443158,13.7116571 L11.5443158,12.6544 C11.5443158,11.8127429 12.2327368,11.1276 13.0790526,11.1276 L14.1413684,11.1276 L14.1413684,12.1854857 C14.1413684,13.0271429 13.4529474,13.7116571 12.6066316,13.7116571 L12.6066316,13.7116571 Z" id="Fill-9"></path>
                    <path d="M11.0618526,16.5991257 C8.39469474,16.5991257 6.22522105,14.4393543 6.22522105,11.7848971 C6.22522105,9.13044 8.39469474,6.97129714 11.0618526,6.97129714 C13.4119579,6.97129714 15.4153263,8.64015429 15.8245895,10.9394686 C15.8555368,11.11044 15.7405895,11.2738686 15.5688,11.30404 C15.4014316,11.33484 15.2328,11.22044 15.2031158,11.0494686 C14.8462737,9.05061143 13.1050105,7.59986857 11.0618526,7.59986857 C8.74332632,7.59986857 6.8568,9.47741143 6.8568,11.7848971 C6.8568,14.0930114 8.74332632,15.9705543 11.0618526,15.9705543 C11.2570105,15.9705543 11.4528,15.9573543 11.6448,15.9309543 C11.8039579,15.9039257 11.9763789,16.0264971 12.0003789,16.1987257 C12.0243789,16.3703257 11.9043789,16.5293543 11.7313263,16.55324 C11.5109053,16.58404 11.2854316,16.5991257 11.0618526,16.5991257" id="Fill-11"></path>
                    <path d="M11.2308632,20.9211829 L21.4030737,20.9211829 C21.2811789,20.5452971 21.1637053,20.1769543 21.0481263,19.8174114 C19.6643368,15.4997543 18.7498105,12.6479257 16.2999158,12.6479257 C14.1386526,12.6479257 13.1464421,15.4915829 11.9969684,18.7846686 C11.7531789,19.4842686 11.5024421,20.2020971 11.2308632,20.9211829 L11.2308632,20.9211829 Z M22.6220211,21.8011829 L9.93802105,21.8011829 L10.1761263,21.2002686 C10.5329684,20.2988971 10.8525474,19.38244 11.1620211,18.4961543 C12.4220211,14.88564 13.5096,11.7672971 16.2999158,11.7672971 C19.3959158,11.7672971 20.4424421,15.0320971 21.8906526,19.54964 C22.0630737,20.0895829 22.2430737,20.6483829 22.4319158,21.2241543 L22.6220211,21.8011829 Z" id="Fill-13"></path>
                    <path d="M19.2176211,18.5138171 C19.3477263,18.4767314 19.4860421,18.5427314 19.5264632,18.6609029 C19.5675158,18.7797029 19.4955158,18.9054171 19.3654105,18.9431314 C19.2353053,18.9802171 19.0969895,18.9142171 19.0565684,18.7954171 C19.0155158,18.6772457 19.0875158,18.5509029 19.2176211,18.5138171" id="Fill-15"></path>
                    <path d="M17.9874316,18.1808 C18.1232211,18.1418286 18.2678526,18.2109714 18.3101684,18.3348 C18.3531158,18.4586286 18.2773263,18.5906286 18.1421684,18.6296 C18.0063789,18.6679429 17.8617474,18.5994286 17.8188,18.4756 C17.7764842,18.3517714 17.8516421,18.2197714 17.9874316,18.1808" id="Fill-17"></path>
                    <path d="M18.3428211,19.5198457 C18.5051368,19.4733314 18.6781895,19.5556743 18.7293474,19.7040171 C18.7798737,19.8517314 18.6895579,20.0095029 18.5272421,20.0560171 C18.3649263,20.1025314 18.1925053,20.0201886 18.1413474,19.8724743 C18.0901895,19.7241314 18.1805053,19.56636 18.3428211,19.5198457" id="Fill-19"></path>
                </g>
            </g>
        </g>
    </g>
</svg>