<?xml version="1.0" encoding="UTF-8" standalone="no"?>
<svg width="52px" height="51px" viewBox="0 0 52 51" version="1.1" xmlns="http://www.w3.org/2000/svg" xmlns:xlink="http://www.w3.org/1999/xlink">
    <!-- Generator: Sketch 39.1 (31720) - http://www.bohemiancoding.com/sketch -->
    <title>ico_azucar_grey</title>
    <desc>Created with Sketch.</desc>
    <defs></defs>
    <g id="supermercado_categoria" stroke="none" stroke-width="1" fill="none" fill-rule="evenodd">
        <g id="Subcategorias_despensa" transform="translate(-263.000000, -14.000000)" fill="#D4D4D4">
            <g id="icon01-copy-4" transform="translate(263.000000, 14.000000)">
                <g id="harina-blue" transform="translate(13.000000, 14.000000)">
                    <path d="M25.4599238,22.2226658 C25.5217841,22.1557856 25.5935013,22.1245061 25.6338781,22.1223031 L25.6647273,22.7007724 L25.7453644,22.1272327 L22.6673644,21.6844741 C22.5951631,21.6740882 22.5216652,21.6777458 22.4508205,21.6952503 L22.3436387,21.721733 C22.2484675,21.7525756 22.2484675,21.7525756 22.2027059,21.768018 L21.7147941,21.8693216 C16.2140978,23.0387754 10.4921413,23.007559 5.00948085,21.7679652 C4.99120318,21.7586386 4.83353644,21.7115984 4.83353644,21.7115984 C4.75680608,21.6895044 4.6763586,21.6838689 4.5973497,21.695053 L1.54553152,22.127053 C1.79503546,22.1214621 1.89303945,22.2170095 1.93659467,22.318338 C1.98692875,22.4386043 1.96971027,22.60406 1.85873097,22.7105583 L3.66779627,20.8818102 C3.77525985,20.7731609 3.83563636,20.6257711 3.83563636,20.4720828 L3.83563636,20.1642207 C3.83563636,20.1063655 3.83615131,20.0848363 3.83851129,20.0565888 L4.99066277,8.09958727 L4.33461234,8.61613148 L7.18352143,9.05392458 C8.57965219,9.26622476 10.8865761,9.39484138 13.3298182,9.39484138 C15.3520681,9.39484138 17.1943313,9.31345132 18.5408361,9.16465627 C18.8857237,9.12536904 19.0561788,9.10420627 19.2426777,9.07535506 L22.7016563,8.56279177 L22.0500843,8.05942294 L23.4900843,20.0561126 C23.4910418,20.0656023 23.4916364,20.0874235 23.4916364,20.1427034 L23.4916364,20.455531 C23.4916364,20.6091737 23.5519771,20.7565235 23.6593843,20.8651653 L25.4732934,22.6999239 C25.3624162,22.5745834 25.3499802,22.4358928 25.3869159,22.3396619 C25.4067252,22.2924261 25.4242826,22.2611992 25.4599238,22.2226658 Z M26.3076124,21.906876 L24.469343,20.0458968 L24.0643636,20.455531 L24.6370909,20.455531 L24.6370909,20.1427034 C24.6370909,20.0465351 24.6357158,19.9960629 24.6280711,19.924261 L23.1871884,7.91977706 C23.1483984,7.5966157 22.8540525,7.36922021 22.5356164,7.41640823 L19.0730709,7.92951168 C18.902896,7.95582597 18.7425518,7.97573343 18.4145365,8.01310177 C17.1160092,8.15659183 15.3136108,8.23622069 13.3298182,8.23622069 C10.9387419,8.23622069 8.68463787,8.1105489 7.35468949,7.90831331 L4.50666039,7.47065473 C4.18201723,7.42076667 3.88246228,7.65662258 3.85060996,7.98719894 L2.69779177,19.9516127 C2.69130323,20.0287086 2.69018182,20.0755931 2.69018182,20.1642207 L2.69018182,20.4720828 L3.26290909,20.4720828 L2.85802191,20.0623553 L1.05965827,21.8805622 C0.797060477,22.1322854 0.760798519,22.4807337 0.883900574,22.7750466 C1.00440133,23.055455 1.23480431,23.2800828 1.62490909,23.2800828 L4.75610485,22.8424919 L4.67672727,22.2687724 L4.51991811,22.8259464 L4.63200901,22.8582223 C4.67950137,22.8748372 4.67950137,22.8748372 4.70343319,22.8829062 C10.4023913,24.1744792 16.2898901,24.2065987 21.9518049,23.0028678 L22.5030241,22.8842232 C22.6148962,22.8503486 22.6148962,22.8503486 22.6730498,22.8297404 L22.5867273,22.2580138 L22.5060901,22.8315535 L25.5840901,23.2743121 L25.6955764,23.2792418 C25.9393692,23.26594 26.1475358,23.175148 26.2963791,23.0142262 C26.3717244,22.9327667 26.4090602,22.8663629 26.4460492,22.7803103 C26.5613163,22.4812654 26.5329625,22.1650533 26.3076124,21.906876 Z M3.60490909,7.60311724 C3.60490909,6.92045407 4.73016353,6.07704828 6.04145455,6.07704828 L20.7237273,6.07704828 C22.0343293,6.07704828 23.1594545,6.92051689 23.1594545,7.60311724 L23.1594545,7.69994483 L23.7321818,7.69994483 L23.181041,7.54239732 C23.2390532,7.33476379 23.2616297,7.32002566 23.2997806,7.30708945 L23.4818182,7.85635862 L23.3984659,7.2832162 L18.9377386,7.94694034 C18.6593428,7.98754427 18.3706986,8.0211786 18.0785549,8.04531611 C16.815849,8.16449546 15.1285025,8.23208276 13.3551818,8.23208276 C10.9773952,8.23208276 8.80179003,8.11484704 7.53566988,7.92004948 L3.57147027,7.31092931 C3.22486805,7.25767206 2.91272727,7.52906075 2.91272727,7.88366897 L2.91272727,7.89442759 L3.48545455,7.89442759 L3.53016977,7.31688556 C3.47854835,7.31279645 3.4374054,7.30146906 3.41208147,7.28908452 C3.46655652,7.31572526 3.51251443,7.35240638 3.57012446,7.51188822 L3.03218182,7.71070345 L3.60490909,7.71070345 L3.60490909,7.60311724 Z M2.49423918,7.90951868 C2.61427178,8.24180493 3.01613798,8.4383355 3.44073932,8.47196962 C3.7736536,8.49834089 4.05818182,8.2321995 4.05818182,7.89442759 L3.48545455,7.88366897 L3.39943882,8.45640862 L7.36352973,9.06551206 C8.6968872,9.27065437 10.9247014,9.39070345 13.3551818,9.39070345 C15.1618535,9.39070345 16.8839243,9.32172525 18.17841,9.19950648 C18.4883912,9.1739341 18.8003154,9.13758705 19.102833,9.0934624 L23.5651705,8.42950104 L23.6638558,8.40562779 C23.9676125,8.30262984 24.2016368,8.14985677 24.2833227,7.85749233 L24.3049091,7.69994483 L24.3049091,7.60311724 C24.3049091,6.19258706 22.6052739,4.91842759 20.7237273,4.91842759 L6.04145455,4.91842759 C4.15924689,4.91842759 2.45945455,6.19246362 2.45945455,7.60311724 L2.45945455,7.71070345 C2.45945455,7.77852381 2.4712282,7.84581739 2.49423918,7.90951868 Z" id="Stroke-1"></path>
                    <path d="M16.1960727,3.09732414 C16.5290727,3.09732414 16.7990727,3.37042759 16.7990727,3.70725517 C16.7990727,4.04408276 16.5290727,4.31718621 16.1960727,4.31718621 C15.8630727,4.31718621 15.5930727,4.04408276 15.5930727,3.70725517 C15.5930727,3.37042759 15.8630727,3.09732414 16.1960727,3.09732414" id="Fill-3"></path>
                    <path d="M12.5682545,3.09732414 C12.9012545,3.09732414 13.1712545,3.37042759 13.1712545,3.70725517 C13.1712545,4.04408276 12.9012545,4.31718621 12.5682545,4.31718621 C12.2352545,4.31718621 11.9652545,4.04408276 11.9652545,3.70725517 C11.9652545,3.37042759 12.2352545,3.09732414 12.5682545,3.09732414" id="Fill-5"></path>
                    <path d="M14.3821636,1.87771034 C14.7151636,1.87771034 14.9851636,2.15081379 14.9851636,2.48764138 C14.9851636,2.82446897 14.7151636,3.09757241 14.3821636,3.09757241 C14.0491636,3.09757241 13.7791636,2.82446897 13.7791636,2.48764138 C13.7791636,2.15081379 14.0491636,1.87771034 14.3821636,1.87771034" id="Fill-7"></path>
                    <path d="M19.5010563,5.75450637 L19.9759091,4.85131034 L6.41372727,4.85131034 L6.88946492,5.75317513 C8.48059425,3.35214938 10.6491211,1.49958195 13.2689343,1.15374944 L13.12127,1.15382412 C15.7307963,1.49561463 17.8938621,3.34369935 19.5010563,5.75450637 Z M13.1207021,0.00487125218 C10.0980025,0.403887402 7.69493577,2.45682174 5.93798963,5.10806625 C5.68293113,5.49295138 5.95564018,6.00993103 6.41372727,6.00993103 L19.9759091,6.00993103 C20.4347154,6.00993103 20.7072751,5.49150739 20.4507619,5.10673501 C18.6773049,2.4465322 16.2812947,0.399423863 13.2683664,0.00479657317 L13.1207021,0.00487125218 Z" id="Stroke-9"></path>
                    <path d="M13.2995455,20.076 C11.1149367,20.076 9.34445455,18.2856313 9.34445455,16.0762759 C9.34445455,13.8669204 11.1149367,12.0765517 13.2995455,12.0765517 C15.4834507,12.0765517 17.2538182,13.8670363 17.2538182,16.0762759 C17.2538182,18.2855154 15.4834507,20.076 13.2995455,20.076 Z M13.2995455,11.2489655 C10.6631148,11.2489655 8.52627273,13.4098091 8.52627273,16.0762759 C8.52627273,18.7427426 10.6631148,20.9035862 13.2995455,20.9035862 C15.9352963,20.9035862 18.072,18.7426026 18.072,16.0762759 C18.072,13.4099491 15.9352963,11.2489655 13.2995455,11.2489655 Z" id="Stroke-11"></path>
                </g>
            </g>
        </g>
    </g>
</svg>