<?xml version="1.0" encoding="UTF-8" standalone="no"?>
<svg width="52px" height="51px" viewBox="0 0 52 51" version="1.1" xmlns="http://www.w3.org/2000/svg" xmlns:xlink="http://www.w3.org/1999/xlink">
    <!-- Generator: Sketch 39.1 (31720) - http://www.bohemiancoding.com/sketch -->
    <title>ico_harinas_green</title>
    <desc>Created with Sketch.</desc>
    <defs></defs>
    <g id="supermercado_categoria" stroke="none" stroke-width="1" fill="none" fill-rule="evenodd">
        <g id="Subcategorias_despensa" transform="translate(-201.000000, -258.000000)" fill="#44D481">
            <g id="icon01-copy-23" transform="translate(201.000000, 258.000000)">
                <g id="frutas_semillas_naturistas_red" transform="translate(17.000000, 9.000000)">
                    <path d="M2.67092857,5.98631136 C2.42378571,5.98631136 2.2095,5.80594773 2.17592857,5.55794773 L1.89021429,3.43233409 C1.85378571,3.16249318 2.04664286,2.91519773 2.32092857,2.87926591 C2.60092857,2.84262955 2.84592857,3.03356136 2.88235714,3.30340227 L3.16735714,5.42831136 C3.20378571,5.69815227 3.01164286,5.94615227 2.73735714,5.98208409 C2.71521429,5.98490227 2.69235714,5.98631136 2.67092857,5.98631136" id="Fill-1"></path>
                    <path d="M2.96664286,7.99947955 C2.86164286,7.99947955 2.75592857,7.96707045 2.66592857,7.90013864 L1.05592857,6.70382045 C0.835928571,6.54036591 0.790928571,6.23107045 0.957357143,6.01336591 C1.12307143,5.79636591 1.43664286,5.751275 1.65735714,5.91613864 L2.88092857,6.82500227 L3.86378571,5.62304773 C4.03735714,5.41097955 4.35092857,5.37786591 4.56664286,5.54836591 C4.78164286,5.71957045 4.81521429,6.030275 4.64235714,6.24234318 L3.35592857,7.81559318 C3.25735714,7.93607045 3.11235714,7.99947955 2.96664286,7.99947955" id="Fill-3"></path>
                    <path d="M3.1445,10.0728864 C3.0395,10.0728864 2.93378571,10.0404773 2.84378571,9.97354545 L1.2345,8.77793182 C1.01378571,8.61377273 0.9695,8.30447727 1.13521429,8.08677273 C1.30164286,7.86977273 1.6145,7.82538636 1.83592857,7.98954545 L3.05878571,8.89840909 L4.04235714,7.69645455 C4.21592857,7.48438636 4.53164286,7.45056818 4.74521429,7.62177273 C4.96021429,7.79297727 4.99378571,8.10368182 4.82092857,8.31575 L3.53378571,9.889 C3.43521429,10.0101818 3.29021429,10.0728864 3.1445,10.0728864" id="Fill-5"></path>
                    <path d="M3.37121429,11.996225 C3.26621429,11.996225 3.1605,11.9638159 3.0705,11.8968841 L1.46121429,10.7005659 C1.2405,10.5364068 1.19621429,10.2278159 1.36264286,10.0101114 C1.52764286,9.79240682 1.84121429,9.748725 2.06264286,9.91288409 L3.2855,10.8217477 L4.26835714,9.61979318 C4.44192857,9.407725 4.7555,9.37390682 4.97121429,9.54511136 C5.18621429,9.71631591 5.21978571,10.0270205 5.04692857,10.2390886 L3.7605,11.8123386 C3.66192857,11.9328159 3.51692857,11.996225 3.37121429,11.996225" id="Fill-7"></path>
                    <path d="M15.3780714,10.334625 C15.2252143,10.334625 15.0752143,10.2662841 14.9766429,10.1366477 C14.8116429,9.91894318 14.8566429,9.60964773 15.0773571,9.44619318 L16.8173571,8.16180682 C17.0387857,7.99694318 17.3523571,8.04414773 17.5173571,8.26114773 C17.6830714,8.47885227 17.6380714,8.78814773 17.4166429,8.95160227 L15.6773571,10.2359886 C15.5873571,10.3029205 15.4823571,10.334625 15.3780714,10.334625" id="Fill-9"></path>
                    <path d="M15.8621429,11.8321364 C15.8342857,11.8321364 15.8064286,11.8300227 15.7785714,11.8250909 L13.7578571,11.4883182 C13.4914286,11.4439318 13.3092857,11.1994545 13.3457143,10.9359545 L13.615,8.96675 C13.6514286,8.69620455 13.9035714,8.51231818 14.1778571,8.54402273 C14.4507143,8.57995455 14.6428571,8.82865909 14.6057143,9.0985 L14.4007143,10.5956591 L15.9442857,10.8521136 C16.2171429,10.8979091 16.4007143,11.15225 16.3542857,11.4213864 C16.3135714,11.6616364 16.1014286,11.8321364 15.8621429,11.8321364" id="Fill-11"></path>
                    <path d="M14.2842857,12.8590114 C14.2564286,12.8590114 14.2285714,12.8568977 14.2007143,12.8519659 L12.18,12.5151932 C11.9135714,12.4708068 11.7314286,12.2263295 11.7678571,11.9628295 L12.0371429,9.993625 C12.0735714,9.72307955 12.3257143,9.53919318 12.6,9.57089773 C12.8728571,9.60682955 13.065,9.85553409 13.0278571,10.125375 L12.8228571,11.6225341 L14.3664286,11.8789886 C14.6392857,11.9247841 14.8228571,12.179125 14.7764286,12.4482614 C14.7357143,12.6885114 14.5235714,12.8590114 14.2842857,12.8590114" id="Fill-13"></path>
                    <path d="M17.2230714,5.42380227 C17.0702143,5.42380227 16.9202143,5.35546136 16.8216429,5.22652955 C16.6566429,5.00812045 16.7016429,4.698825 16.9223571,4.536075 L18.6616429,3.25098409 C18.8837857,3.086825 19.1966429,3.133325 19.3616429,3.34962045 C19.5273571,3.56802955 19.4823571,3.877325 19.2616429,4.040075 L17.5223571,5.32516591 C17.4323571,5.39139318 17.3273571,5.42380227 17.2230714,5.42380227" id="Fill-15"></path>
                    <path d="M17.8404286,6.76722955 C17.8125714,6.76722955 17.7847143,6.76511591 17.7568571,6.76018409 L15.7361429,6.42341136 C15.4697143,6.379025 15.2875714,6.13454773 15.324,5.87104773 L15.5932857,3.90184318 C15.6304286,3.63129773 15.8754286,3.44670682 16.1561429,3.47911591 C16.429,3.51504773 16.6211429,3.76375227 16.584,4.03359318 L16.379,5.53075227 L17.9225714,5.78720682 C18.1954286,5.83300227 18.379,6.08734318 18.3325714,6.35647955 C18.2918571,6.59672955 18.0797143,6.76722955 17.8404286,6.76722955" id="Fill-18"></path>
                    <path d="M16.1586429,7.96298409 C16.1307857,7.96298409 16.1029286,7.96087045 16.0743571,7.95593864 L14.0536429,7.61916591 C13.7879286,7.57477955 13.6057857,7.33030227 13.6422143,7.06680227 L13.9115,5.09689318 C13.9479286,4.82705227 14.1972143,4.64246136 14.4743571,4.67416591 C14.7472143,4.71080227 14.9393571,4.95880227 14.9022143,5.22934773 L14.6972143,6.72580227 L16.2415,6.98296136 C16.5136429,7.02875682 16.6972143,7.28309773 16.6507857,7.55223409 C16.6100714,7.79248409 16.3979286,7.96298409 16.1586429,7.96298409" id="Fill-20"></path>
                    <path d="M7.16514286,3.10345227 C7.13871429,3.10345227 7.11157143,3.10133864 7.08442857,3.09711136 C6.81157143,3.05342955 6.62657143,2.79979318 6.67085714,2.53136136 L7.01871429,0.414906818 C7.06371429,0.146475 7.31728571,-0.039525 7.593,0.006975 C7.86514286,0.0506568182 8.05014286,0.304293182 8.00657143,0.573429545 L7.658,2.68917955 C7.618,2.93083864 7.40585714,3.10345227 7.16514286,3.10345227" id="Fill-22"></path>
                    <path d="M6.86385714,4.78879545 C6.70957143,4.78879545 6.55742857,4.71834091 6.46028571,4.58729545 L5.26814286,2.98445455 C5.10457143,2.76463636 5.15242857,2.45604545 5.37528571,2.29470455 C5.59885714,2.13336364 5.91028571,2.18127273 6.07457143,2.40109091 L6.98028571,3.61925 L8.27242857,2.74772727 C8.50171429,2.59272727 8.81171429,2.65120455 8.96742857,2.87595455 C9.12314286,3.10070455 9.06457143,3.40788636 8.83742857,3.56147727 L7.146,4.70213636 C7.05885714,4.76061364 6.961,4.78879545 6.86385714,4.78879545" id="Fill-25"></path>
                    <path d="M6.34971429,6.82669318 C6.19542857,6.82669318 6.04328571,6.75623864 5.94614286,6.62519318 L4.754,5.02235227 C4.59042857,4.80253409 4.63828571,4.49394318 4.86114286,4.33260227 C5.08471429,4.17196591 5.39614286,4.21917045 5.56042857,4.43898864 L6.46614286,5.65714773 L7.75828571,4.785625 C7.98757143,4.62992045 8.29828571,4.68980682 8.45328571,4.91385227 C8.609,5.13860227 8.55042857,5.44578409 8.32328571,5.599375 L6.63185714,6.74003409 C6.54471429,6.79851136 6.44685714,6.82669318 6.34971429,6.82669318" id="Fill-27"></path>
                    <path d="M12.6325,13.9533818 C12.6046429,13.9533818 12.5767857,13.9512682 12.5489286,13.9463364 L10.5282143,13.6095636 C10.2617857,13.5651773 10.0796429,13.3207 10.1160714,13.0572 L10.3860714,11.0872909 C10.4225,10.81745 10.6810714,10.63145 10.9489286,10.6645636 C11.2225,10.7012 11.4139286,10.9499045 11.3767857,11.2197455 L11.1710714,12.7169045 L12.7146429,12.9733591 C12.9875,13.0191545 13.1710714,13.2734955 13.1246429,13.5426318 C13.0839286,13.7828818 12.8717857,13.9533818 12.6325,13.9533818" id="Fill-29"></path>
                    <path d="M12.0919286,5.26732273 C11.9869286,5.26732273 11.8797857,5.23420909 11.7897857,5.16586818 C11.5705,5.00100455 11.5276429,4.69170909 11.6947857,4.47470909 L13.0119286,2.77041364 C13.1783571,2.55411818 13.4926429,2.51043636 13.7126429,2.67670909 C13.9319286,2.84227727 13.9747857,3.15157273 13.8069286,3.36786818 L12.4905,5.07286818 C12.3919286,5.20039091 12.2433571,5.26732273 12.0919286,5.26732273" id="Fill-31"></path>
                    <path d="M11.0205,6.61377955 C10.7747857,6.61377955 10.5612143,6.43552955 10.5262143,6.19034773 L10.2405,4.22255227 C10.2019286,3.95341591 10.3919286,3.70330227 10.6655,3.66455227 C10.9362143,3.62439318 11.1912143,3.81321136 11.2312143,4.08305227 L11.4476429,5.57809773 L13.0040714,5.40971136 C13.2755,5.37589318 13.5255,5.57527955 13.5562143,5.84652955 C13.5862143,6.117075 13.3876429,6.36084773 13.1133571,6.39043864 L11.0755,6.61096136 C11.0576429,6.613075 11.0383571,6.61377955 11.0205,6.61377955" id="Fill-33"></path>
                    <path d="M9.73071429,8.11643409 C9.485,8.11643409 9.27214286,7.93818409 9.23642857,7.69300227 L8.95,5.72520682 C8.91142857,5.45607045 9.10071429,5.20595682 9.37428571,5.16720682 C9.64928571,5.12845682 9.90071429,5.31586591 9.94071429,5.58570682 L10.1578571,7.08075227 L11.7142857,6.91236591 C11.9778571,6.88136591 12.235,7.07793409 12.2664286,7.34918409 C12.2964286,7.61972955 12.0978571,7.86350227 11.8235714,7.89309318 L9.78571429,8.11361591 C9.76785714,8.11572955 9.74857143,8.11643409 9.73071429,8.11643409" id="Fill-35"></path>
                    <path d="M8.46542857,9.64353636 C8.21971429,9.64353636 8.00614286,9.46528636 7.97114286,9.22010455 L7.68542857,7.25230909 C7.64685714,6.98317273 7.83685714,6.73305909 8.11042857,6.69430909 C8.37757143,6.65555909 8.63614286,6.84296818 8.67614286,7.11280909 L8.89257143,8.60785455 L10.449,8.43946818 C10.7111429,8.40705909 10.9704286,8.60503636 11.0011429,8.87628636 C11.0311429,9.14683182 10.8325714,9.39060455 10.5582857,9.42019545 L8.52042857,9.64071818 C8.50257143,9.64283182 8.48328571,9.64353636 8.46542857,9.64353636" id="Fill-37"></path>
                    <path d="M3.57071429,17.1165795 C3.29428571,17.1165795 3.07071429,16.8960568 3.07071429,16.6233977 L3.07071429,12.6398977 C3.07071429,12.3672386 3.29428571,12.1467159 3.57071429,12.1467159 C3.84714286,12.1467159 4.07071429,12.3672386 4.07071429,12.6398977 L4.07071429,16.6233977 C4.07071429,16.8960568 3.84714286,17.1165795 3.57071429,17.1165795" id="Fill-39"></path>
                    <path d="M9.24314286,17.3549977 L2.37528571,17.3549977 C2.09885714,17.3549977 1.87528571,17.134475 1.87528571,16.8618159 C1.87528571,16.5891568 2.09885714,16.3686341 2.37528571,16.3686341 L9.24314286,16.3686341 C9.51957143,16.3686341 9.74314286,16.5891568 9.74314286,16.8618159 C9.74314286,17.134475 9.51957143,17.3549977 9.24314286,17.3549977" id="Fill-41"></path>
                    <path d="M9.24314286,19.0158932 L2.37528571,19.0158932 C2.09885714,19.0158932 1.87528571,18.7953705 1.87528571,18.5227114 C1.87528571,18.2500523 2.09885714,18.0295295 2.37528571,18.0295295 L9.24314286,18.0295295 C9.51957143,18.0295295 9.74314286,18.2500523 9.74314286,18.5227114 C9.74314286,18.7953705 9.51957143,19.0158932 9.24314286,19.0158932" id="Fill-43"></path>
                    <path d="M9.24314286,20.5997818 L2.37528571,20.5997818 C2.09885714,20.5997818 1.87528571,20.3792591 1.87528571,20.1066 C1.87528571,19.8339409 2.09885714,19.6134182 2.37528571,19.6134182 L9.24314286,19.6134182 C9.51957143,19.6134182 9.74314286,19.8339409 9.74314286,20.1066 C9.74314286,20.3792591 9.51957143,20.5997818 9.24314286,20.5997818" id="Fill-45"></path>
                    <path d="M11.2305,30.9907705 L0.5005,30.9907705 C0.224071429,30.9907705 -0.000214285714,30.7702477 -0.000214285714,30.4975886 C-0.000214285714,30.2249295 0.224071429,30.0044068 0.5005,30.0044068 L11.2305,30.0044068 C11.5069286,30.0044068 11.7305,30.2249295 11.7305,30.4975886 C11.7305,30.7702477 11.5069286,30.9907705 11.2305,30.9907705" id="Fill-47"></path>
                    <path d="M2.30257143,30.853525 C2.28757143,30.853525 2.27328571,30.8528205 2.25828571,30.8514114 C1.98328571,30.8274568 1.78042857,30.5886159 1.804,30.3173659 L2.704,20.1218886 C2.72828571,19.8499341 2.97471429,19.6519568 3.24542857,19.6730932 C3.52114286,19.6970477 3.724,19.9358886 3.70042857,20.2071386 L2.79971429,30.4026159 C2.77757143,30.659775 2.559,30.853525 2.30257143,30.853525" id="Fill-50"></path>
                    <path d="M4.76914286,30.9291932 L4.75557143,30.9291932 C4.48057143,30.9214432 4.262,30.6952841 4.26914286,30.4233295 L4.54342857,20.0756705 C4.55057143,19.8079432 4.77271429,19.5951705 5.04342857,19.5951705 C5.04771429,19.5951705 5.052,19.595875 5.05628571,19.595875 C5.332,19.6029205 5.55057143,19.8290795 5.54342857,20.1010341 L5.26914286,30.4486932 C5.26128571,30.7164205 5.03985714,30.9291932 4.76914286,30.9291932" id="Fill-52"></path>
                    <path d="M7.04028571,30.9291932 C6.76885714,30.9291932 6.54671429,30.7157159 6.54028571,30.4465795 L6.30528571,20.1376705 C6.29885714,19.8650114 6.51814286,19.6395568 6.79385714,19.6332159 C7.08814286,19.6353295 7.29885714,19.8431705 7.30528571,20.115125 L7.54028571,30.4247386 C7.54671429,30.6966932 7.32742857,30.9228523 7.05171429,30.9291932 L7.04028571,30.9291932" id="Fill-54"></path>
                    <path d="M9.31085714,30.7778568 C9.05371429,30.7778568 8.83514286,30.5834023 8.81371429,30.3255386 L7.95228571,20.1674023 C7.92871429,19.8961523 8.13371429,19.6573114 8.408,19.6347659 C8.70085714,19.6143341 8.92585714,19.8137205 8.948,20.0849705 L9.80942857,30.2431068 C9.83228571,30.5150614 9.628,30.7531977 9.35371429,30.7764477 C9.33871429,30.7771523 9.32514286,30.7778568 9.31085714,30.7778568" id="Fill-56"></path>
                    <path d="M5.16042857,17.1503273 C4.89042857,17.1503273 4.66828571,16.9382591 4.66042857,16.6705318 C4.53971429,12.3368727 6.55614286,9.94635 6.64185714,9.84630455 C6.82185714,9.63916818 7.13685714,9.61380455 7.34685714,9.79064545 C7.55614286,9.96678182 7.58257143,10.2767818 7.40471429,10.4846227 C7.38614286,10.5064636 5.55042857,12.7095773 5.66042857,16.6437591 C5.66757143,16.9157136 5.44971429,17.1425773 5.17471429,17.1503273 L5.16042857,17.1503273" id="Fill-58"></path>
                    <path d="M6.68807143,17.0759977 L6.67021429,17.0759977 C6.39378571,17.0654295 6.17807143,16.8371568 6.18878571,16.5644977 C6.31092857,13.2651114 8.42307143,10.9697023 8.51307143,10.8738841 C8.6995,10.6744977 9.01521429,10.6618159 9.21878571,10.8457023 C9.42164286,11.0295886 9.43521429,11.3417023 9.24878571,11.5424977 C9.2295,11.5629295 7.29664286,13.6758614 7.18735714,16.6004295 C7.17807143,16.8667477 6.95592857,17.0759977 6.68807143,17.0759977" id="Fill-60"></path>
                    <path d="M8.25335714,17.1503273 C8.00692857,17.1503273 7.79264286,16.9706682 7.75907143,16.7233727 C7.4855,14.7372591 9.25764286,13.5141682 9.33407143,13.4634409 C9.56264286,13.3091455 9.87264286,13.3669182 10.0283571,13.5916682 C10.1847857,13.8157136 10.1269286,14.1214864 9.9005,14.2757818 C9.88692857,14.2849409 8.5605,15.2135318 8.74907143,16.5909182 C8.78692857,16.8607591 8.5955,17.1087591 8.32121429,17.1461 C8.29835714,17.1489182 8.2755,17.1503273 8.25335714,17.1503273" id="Fill-62"></path>
                </g>
            </g>
        </g>
    </g>
</svg>