<?xml version="1.0" encoding="UTF-8" standalone="no"?>
<svg width="52px" height="51px" viewBox="0 0 52 51" version="1.1" xmlns="http://www.w3.org/2000/svg" xmlns:xlink="http://www.w3.org/1999/xlink">
    <!-- Generator: Sketch 39.1 (31720) - http://www.bohemiancoding.com/sketch -->
    <title>ico_panaderia_grey</title>
    <desc>Created with Sketch.</desc>
    <defs></defs>
    <g id="supermercado_categoria" stroke="none" stroke-width="1" fill="none" fill-rule="evenodd">
        <g id="Subcategorias_despensa" transform="translate(-77.000000, -75.000000)" fill="#D4D4D4">
            <g id="icon01-copy-9" transform="translate(77.000000, 75.000000)">
                <g id="panaderia_dgreen" transform="translate(11.000000, 17.000000)">
                    <path d="M1.81682871,3.91181094 C1.23296017,4.18243922 0.813087545,4.69889475 0.768483363,5.25171212 C0.717512312,5.88112983 1.12838216,6.32990603 1.94838236,6.80188318 L1.68136099,6.34000108 L1.65459629,15.6811611 C1.65154112,16.801579 2.52301848,17.7181706 3.65093357,17.7942548 L12.0535664,18.3483488 C12.4042554,18.3719119 12.7508743,18.3064183 13.0706142,18.1637878 L22.7636014,14.5977278 L22.6538579,14.6254259 C23.6913877,14.4772374 24.4745284,13.5920935 24.4825788,12.5349824 L24.5498738,3.44070831 L24.2276588,3.92483744 C24.3310279,3.8802632 24.6985916,3.73584218 24.7795879,3.70001761 C25.1993343,3.51436424 25.442902,3.27210503 25.4780094,2.84303521 C25.6018241,1.31397421 22.6838855,0.354532648 18.4072221,0.01167842 C16.0575875,-0.176879919 2.86196597,3.30327632 1.81682871,3.91181094 Z M24.4109074,2.75724081 C24.4145001,2.71332981 24.4442732,2.68371664 24.3442964,2.72793624 C24.2894862,2.75217876 23.928178,2.89414187 23.8015294,2.94875456 C23.6071998,3.03255225 23.4808723,3.22235984 23.4793145,3.43288369 L23.4120204,12.5270437 C23.4079892,13.0563812 23.0166645,13.4986755 22.5015656,13.5722461 L22.3918221,13.5999442 L12.665528,17.1795442 C12.4691913,17.2658089 12.2972646,17.2982944 12.1251124,17.2867276 L3.7226218,16.7326432 C3.15525603,16.6943706 2.72366342,16.2404355 2.72518039,15.6841177 L2.75194489,6.34303092 C2.75249029,6.15268088 2.65066389,5.97654595 2.48492352,5.88114882 C1.99400489,5.59858501 1.82903513,5.41839534 1.83563352,5.3369149 C1.84685839,5.19779587 2.01281723,4.99366167 2.31530807,4.85221649 C3.22348755,4.32593191 16.2045084,0.902373534 18.3210992,1.0722301 C21.8750639,1.35714656 24.4555729,2.20563859 24.4109074,2.75724081 Z" id="Stroke-1"></path>
                    <path d="M0.795107358,5.12661681 C0.744140398,5.75598429 1.19113886,6.28897297 1.97601101,6.74016424 L1.70873757,6.27809897 L1.68120816,15.650419 C1.67814842,16.771498 2.55184803,17.7027474 3.67751265,17.7787486 L12.0796458,18.3411694 C13.3095365,18.4232657 14.3546622,17.459332 14.3638381,16.2342922 L14.431897,7.1408891 L14.107723,7.62581374 C14.8459012,7.31097012 15.3062411,6.87654699 15.3539153,6.29389121 C15.4797009,4.74048918 12.3189963,3.53729488 8.2770103,3.21325442 C4.23494223,2.88920738 0.920870489,3.5734901 0.795107358,5.12661681 Z M14.2868132,6.20809681 C14.2792124,6.30098927 14.0977703,6.47221633 13.6855123,6.64805026 C13.4901517,6.73137438 13.3629196,6.92169799 13.3613383,7.1329749 L13.2932795,16.2263749 C13.288692,16.8388397 12.7663424,17.3206099 12.1514894,17.2795679 L3.74976592,16.7171746 C3.18718903,16.6791911 2.75026356,16.2134858 2.75179215,15.653415 L2.77932125,6.28120503 C2.77988071,6.09073793 2.6779424,5.91450585 2.51204782,5.81913976 C2.04734253,5.55199948 1.85343319,5.32078731 1.86224528,5.2119709 C1.91236735,4.59298245 4.78181273,4.00050527 8.19093087,4.27380958 C11.6001463,4.54712169 14.3369483,5.5889478 14.2868132,6.20809681 Z" id="Stroke-3"></path>
                    <path d="M13.7316478,6.63441344 C13.4555635,6.73948599 13.3174585,7.04709736 13.4231816,7.32148267 C13.5289048,7.59586799 13.8384209,7.73312311 14.1145052,7.62805056 L17.3056228,6.41357056 C17.5817071,6.30849801 17.7198121,6.00088664 17.614089,5.72650133 C17.5083658,5.45211601 17.1988497,5.31486089 16.9227654,5.41993344 L13.7316478,6.63441344 Z" id="Stroke-5"></path>
                    <path d="M18.7815711,4.78429875 C18.5041938,4.88595217 18.3622518,5.1918335 18.4645347,5.46750381 C18.5668175,5.74317412 18.8745928,5.88424268 19.1519701,5.78258925 L21.2319701,5.02030925 C21.5093473,4.91865583 21.6512894,4.6127745 21.5490065,4.33710419 C21.4467237,4.06143388 21.1389483,3.92036532 20.8615711,4.02201875 L18.7815711,4.78429875 Z" id="Stroke-7"></path>
                    <path d="M22.5416619,3.43195523 C22.2661009,3.53837611 22.12952,3.84665888 22.2365998,4.12052405 C22.3436797,4.39438923 22.6538713,4.53012965 22.9294323,4.42370877 L24.2026675,3.93198877 C24.4782285,3.82556789 24.6148094,3.51728512 24.5077296,3.24341995 C24.4006497,2.96955477 24.0904581,2.83381435 23.8148972,2.94023523 L22.5416619,3.43195523 Z" id="Stroke-9"></path>
                    <path d="M10.0117588,16.091328 C9.92152353,16.027488 9.91234706,15.853448 9.99187647,15.702968 C10.0714059,15.552488 10.2082882,15.481808 10.2985235,15.545648 C10.3895235,15.609488 10.3979353,15.783528 10.3191706,15.934008 C10.2396412,16.084488 10.1019941,16.155168 10.0117588,16.091328" id="Fill-11"></path>
                    <path d="M10.2460647,14.543132 C10.1558294,14.479292 10.1527706,14.296132 10.2384176,14.132732 C10.3240647,13.970092 10.4663,13.888772 10.5565353,13.952612 C10.6460059,14.016452 10.6498294,14.199612 10.5641824,14.363012 C10.4785353,14.525652 10.3363,14.606972 10.2460647,14.543132" id="Fill-13"></path>
                    <path d="M11.6573294,14.559016 C11.5571529,14.488336 11.5388,14.312016 11.6152706,14.166096 C11.6925059,14.019416 11.8362706,13.957856 11.9356824,14.028536 C12.0358588,14.099216 12.0549765,14.275536 11.9777412,14.421456 C11.9012706,14.568136 11.7575059,14.629696 11.6573294,14.559016" id="Fill-15"></path>
                    <path d="M11.2999824,16.060776 C11.2265706,16.008336 11.2105118,15.882936 11.2648059,15.778816 C11.3191,15.675456 11.4231,15.634416 11.4965118,15.686096 C11.5706882,15.738536 11.5867471,15.864696 11.5316882,15.968056 C11.4773941,16.071416 11.3733941,16.113216 11.2999824,16.060776" id="Fill-17"></path>
                    <path d="M10.0173412,12.570552 C9.96075294,12.475552 10.0234588,12.312912 10.1572824,12.207272 C10.2903412,12.100872 10.4448118,12.091752 10.5014,12.186752 C10.5587529,12.280992 10.4960471,12.443632 10.3622235,12.550032 C10.2284,12.655672 10.0739294,12.665552 10.0173412,12.570552" id="Fill-19"></path>
                    <path d="M10.8607353,11.248152 C10.8041471,11.153912 10.8760294,10.984432 11.0205588,10.869672 C11.1650882,10.754912 11.3279706,10.738192 11.3845588,10.832432 C11.4411471,10.926672 11.3692647,11.096152 11.2247353,11.210912 C11.0802059,11.325672 10.9173235,11.342392 10.8607353,11.248152" id="Fill-21"></path>
                    <path d="M12.1453647,11.829096 C12.0826588,11.724216 12.1369529,11.555496 12.2669529,11.452896 C12.3969529,11.349536 12.5529529,11.351056 12.6156588,11.455936 C12.6783647,11.560816 12.6240706,11.728776 12.4940706,11.832136 C12.3648353,11.935496 12.2080706,11.933976 12.1453647,11.829096" id="Fill-23"></path>
                    <path d="M11.2082176,13.059536 C11.1615706,12.982016 11.1990412,12.860416 11.2908059,12.787456 C11.3825706,12.715256 11.4942176,12.719056 11.5408647,12.795816 C11.5867471,12.873336 11.5500412,12.994936 11.4582765,13.067896 C11.3665118,13.140856 11.2548647,13.137056 11.2082176,13.059536" id="Fill-25"></path>
                    <path d="M4.23639412,10.367464 C4.13162941,10.332504 4.07198235,10.168344 4.10333529,10.001904 C4.13545294,9.834704 4.24633529,9.727544 4.3511,9.762504 C4.45662941,9.797464 4.51627647,9.960864 4.48415882,10.128064 C4.45204118,10.295264 4.34115882,10.402424 4.23639412,10.367464" id="Fill-27"></path>
                    <path d="M4.00751765,8.818356 C3.90275294,8.783396 3.84616471,8.608596 3.87981176,8.427716 C3.91422353,8.247596 4.0274,8.129036 4.1314,8.163996 C4.23616471,8.198196 4.29351765,8.372996 4.25910588,8.553876 C4.22469412,8.734756 4.11228235,8.853316 4.00751765,8.818356" id="Fill-29"></path>
                    <path d="M5.3625,8.425816 C5.24626471,8.387056 5.17667647,8.224416 5.20726471,8.061776 C5.23785294,7.899136 5.35714706,7.798816 5.47414706,7.837576 C5.59038235,7.876336 5.65997059,8.039736 5.62938235,8.201616 C5.59802941,8.364256 5.47873529,8.464576 5.3625,8.425816" id="Fill-31"></path>
                    <path d="M5.45992353,9.96588 C5.37427647,9.937 5.32227647,9.82148 5.34368824,9.70672 C5.36586471,9.59196 5.45304118,9.52204 5.53868824,9.55092 C5.62433529,9.57904 5.67633529,9.69532 5.65492353,9.81008 C5.63274706,9.92484 5.54557059,9.99476 5.45992353,9.96588" id="Fill-33"></path>
                    <path d="M3.21153529,6.997168 C3.12971176,6.922688 3.14194706,6.749408 3.23906471,6.609568 C3.33541765,6.468968 3.48071176,6.415768 3.56253529,6.489488 C3.64435882,6.563968 3.63212353,6.738008 3.53577059,6.877848 C3.43865294,7.017688 3.29335882,7.071648 3.21153529,6.997168" id="Fill-35"></path>
                    <path d="M3.63158824,5.488188 C3.54976471,5.414468 3.56888235,5.231308 3.67364706,5.080068 C3.77841176,4.928068 3.92982353,4.864988 4.01088235,4.939468 C4.09270588,5.013188 4.07435294,5.195588 3.96882353,5.347588 C3.86405882,5.498828 3.71341176,5.561908 3.63158824,5.488188" id="Fill-37"></path>
                    <path d="M5.03069412,5.672792 C4.93969412,5.590712 4.94275294,5.413632 5.03681176,5.277592 C5.13087059,5.141552 5.28075294,5.097472 5.37175294,5.179552 C5.46275294,5.261632 5.45969412,5.438712 5.36563529,5.574752 C5.27157647,5.710792 5.12169412,5.754872 5.03069412,5.672792" id="Fill-39"></path>
                    <path d="M4.49402353,7.120896 C4.42672941,7.060096 4.42672941,6.933176 4.49325882,6.837416 C4.55978824,6.740896 4.66761176,6.712016 4.73490588,6.772816 C4.80143529,6.833616 4.8022,6.960536 4.73567059,7.056296 C4.66914118,7.152816 4.56131765,7.181696 4.49402353,7.120896" id="Fill-41"></path>
                </g>
            </g>
        </g>
    </g>
</svg>