<?xml version="1.0" encoding="UTF-8" standalone="no"?>
<svg width="52px" height="51px" viewBox="0 0 52 51" version="1.1" xmlns="http://www.w3.org/2000/svg" xmlns:xlink="http://www.w3.org/1999/xlink">
    <!-- Generator: Sketch 39.1 (31720) - http://www.bohemiancoding.com/sketch -->
    <title>ico_panela_grey</title>
    <desc>Created with Sketch.</desc>
    <defs></defs>
    <g id="supermercado_categoria" stroke="none" stroke-width="1" fill="none" fill-rule="evenodd">
        <g id="Subcategorias_despensa" transform="translate(-139.000000, -136.000000)" fill="#D4D4D4">
            <g id="icon01-copy-29" transform="translate(139.000000, 136.000000)">
                <g id="panela_yellow" transform="translate(9.000000, 14.000000)">
                    <path d="M17.776361,21.8589744 C18.1447589,21.0810251 19.3661759,18.3307416 19.2710814,18.5409348 C21.0903629,14.5196665 22.3942796,13.0415 24.6885,13.0415 C27.1274,13.0415 28.4953574,14.451833 30.1651063,18.2502763 C30.5364368,19.0950006 31.9019867,22.4464851 31.9876347,22.6514222 L32.6335,21.6815 L16.7435,21.6815 L17.369187,22.6953722 C17.5036236,22.4273802 17.638467,22.1501665 17.776361,21.8589744 Z M15.60921,23.0815 L16.7435,23.0815 L32.6335,23.0815 L33.6847185,23.0815 L33.2793653,22.1115778 C33.2002684,21.9223161 31.8271675,18.5522991 31.4467421,17.686885 C29.5769085,13.4332774 27.8389679,11.6415 24.6885,11.6415 C21.6433651,11.6415 20.0267677,13.4741325 17.9955465,17.9638639 C18.0842001,17.7679074 16.8708601,20.500004 16.5110623,21.2597922 C16.3775398,21.5417531 16.2473014,21.8094997 16.117813,22.0676278 L15.60921,23.0815 Z" id="Stroke-1"></path>
                    <path d="M28.8194,19.0858 C29.0004,19.0448 29.1924,19.1168 29.2494,19.2468 C29.3054,19.3768 29.2054,19.5158 29.0244,19.5568 C28.8444,19.5968 28.6514,19.5248 28.5954,19.3948 C28.5384,19.2648 28.6384,19.1268 28.8194,19.0858" id="Fill-3"></path>
                    <path d="M27.1084,18.7204 C27.2974,18.6774 27.4984,18.7534 27.5574,18.8894 C27.6174,19.0254 27.5124,19.1694 27.3234,19.2124 C27.1344,19.2554 26.9334,19.1794 26.8744,19.0434 C26.8144,18.9074 26.9194,18.7634 27.1084,18.7204" id="Fill-5"></path>
                    <path d="M27.6027,20.1892 C27.8287,20.1382 28.0687,20.2282 28.1397,20.3912 C28.2107,20.5532 28.0857,20.7262 27.8597,20.7772 C27.6337,20.8282 27.3937,20.7382 27.3227,20.5762 C27.2517,20.4132 27.3767,20.2402 27.6027,20.1892" id="Fill-7"></path>
                    <path d="M25.1681313,2.42179329 C25.1486792,1.71271367 24.6160481,1.2102429 23.9054793,1.13544618 L12.6027658,0.0229661466 C12.5114501,0.0181852605 12.5114501,0.0181852605 12.4695586,0.0199568488 C12.448421,0.0208558874 12.4632,0.7206 12.4632,0.7206 L12.6028913,0.03467993 C11.9818713,-0.0917941144 11.2633685,0.133830738 10.7561634,0.602459746 L0.61539199,9.36906074 C0.546282318,9.43453818 0.546282318,9.43453818 0.523337642,9.46174862 C0.481936633,9.50405421 0.368415046,9.6355258 0.326735506,9.69475462 C0.313695173,9.7102165 0.290700157,9.74458539 0.259621807,9.7944421 C0.214537757,9.86783644 0.192294981,9.90616245 0.169100966,9.95255048 C0.142104599,10.0083163 0.122035267,10.0550082 0.103701732,10.103342 C0.0893660689,10.1437738 0.0893660689,10.1437738 0.0793716914,10.1732406 C0.068126363,10.2074989 0.068126363,10.2074989 0.0554051673,10.2514497 C0.0399509869,10.3054331 0.0290361263,10.3609996 0.0202353544,10.4226051 C0.0126821099,10.4667736 0.0066170952,10.5274237 0.00458856511,10.5882796 C0.0107853154,10.5157712 0.0107853154,10.5157712 0.0112083573,10.5145309 C0.00305438503,10.5563524 0.00305438503,10.5563524 0.00197891012,10.7014729 L0.252425164,20.6023533 C0.271355303,21.3742925 0.903127012,21.8772916 1.68086726,21.8865504 L1.6892,21.1866 L1.56398019,21.8753089 C1.57232713,21.8811385 1.57232713,21.8811385 1.68882498,21.8987252 L13.5375717,23.134822 C13.9462647,23.1781693 14.3837386,23.0779964 14.7693633,22.86605 C15.1081624,22.6798398 15.2318602,22.2542357 15.04565,21.9154367 C14.8594398,21.5766376 14.4338357,21.4529398 14.0950367,21.63915 C13.949732,21.7190121 13.7955038,21.7543273 13.6840283,21.7425042 L1.82482832,20.505378 C1.89982287,20.5173115 1.89982287,20.5173115 1.91732913,20.5230338 C1.88756137,20.5139348 1.88756137,20.5139348 1.81441981,20.4978911 L1.69753274,20.4866496 C1.615865,20.4856774 1.650664,20.5133834 1.65198961,20.5674389 L1.39997484,10.6338467 C1.39742374,10.7209882 1.39742374,10.7209882 1.39325414,10.7380246 C1.39606781,10.7220538 1.39606781,10.7220538 1.40213814,10.6652875 C1.41203393,10.6026762 1.41203393,10.6026762 1.41996109,10.5797935 C1.46470181,10.5103397 1.53533395,10.4285392 1.54309101,10.4204949 C1.57707768,10.3842618 11.689008,1.64613926 11.689008,1.64613926 C11.8940684,1.45719427 12.1608993,1.3734038 12.3235087,1.40652007 L12.4632,1.4206 C12.5219499,1.41926474 23.7636342,2.52823385 23.7636342,2.52823385 C23.8083681,2.53295881 23.7697212,2.49650028 23.768465,2.45085876 L23.8782687,10.2924067 C23.8836848,10.6789681 24.2014453,10.9879474 24.5880067,10.9825313 C24.9745681,10.9771152 25.2835474,10.6593547 25.2781313,10.2727933 L25.1681313,2.42179329 Z" id="Stroke-9"></path>
                    <path d="M0.774316515,9.93993239 C0.499241372,9.91567797 0.256586816,10.1190083 0.232332394,10.3940835 C0.208077973,10.6691586 0.411408342,10.9118132 0.686483485,10.9360676 L11.6874835,11.9060676 C11.9625586,11.930322 12.2052132,11.7269917 12.2294676,11.4519165 C12.253722,11.1768414 12.0503917,10.9341868 11.7753165,10.9099324 L0.774316515,9.93993239 Z" id="Stroke-11"></path>
                    <path d="M14.9029981,11.6632305 L14.7409966,12.033054 L24.8059966,2.80005396 C25.0094881,2.61338361 25.0231243,2.29709494 24.836454,2.09360343 C24.6497836,1.89011193 24.3334949,1.87647569 24.1300034,2.06314604 L14.0650034,11.296146 C13.9614189,11.391168 13.9026169,11.5254035 13.9030019,11.6659695 L13.9320019,22.2539695 C13.9327582,22.5301108 14.1572281,22.7533545 14.4333695,22.7525981 C14.7095108,22.7518418 14.9327545,22.5273719 14.9319981,22.2512305 L14.9029981,11.6632305 Z" id="Stroke-13"></path>
                </g>
            </g>
        </g>
    </g>
</svg>