<?xml version="1.0" encoding="UTF-8" standalone="no"?>
<svg width="52px" height="51px" viewBox="0 0 52 51" version="1.1" xmlns="http://www.w3.org/2000/svg" xmlns:xlink="http://www.w3.org/1999/xlink">
    <!-- Generator: Sketch 39.1 (31720) - http://www.bohemiancoding.com/sketch -->
    <title>ico_TODOSdespensa_green</title>
    <desc>Created with Sketch.</desc>
    <defs></defs>
    <g id="supermercado_categoria" stroke="none" stroke-width="1" fill="none" fill-rule="evenodd">
        <g id="Subcategorias_despensa" transform="translate(-15.000000, -197.000000)" fill="#44D481">
            <g id="icon01-copy-8" transform="translate(15.000000, 197.000000)">
                <g id="Group-8" transform="translate(18.000000, 14.000000)">
                    <path d="M0.948161254,9.03658602 C0.944830247,9.0578116 0.944830247,9.0578116 0.941702797,9.12326935 L0.942325165,19.848735 C0.943056795,21.5464101 2.25058675,22.9223076 3.86328887,22.921538 L13.2017301,22.9208831 C14.8145408,22.9208831 16.1218448,21.5447473 16.1218448,19.8473972 L16.1206001,9.12190354 C16.1205707,8.86871633 15.9254968,8.66349261 15.6848903,8.66352353 C15.4442839,8.66355445 15.2492576,8.8688283 15.249287,9.12201551 L15.2505317,19.8474532 C15.2505317,21.0384438 14.3332604,22.0040111 13.2017011,22.0040111 L3.86306226,22.004666 C2.73158152,22.005206 1.81415169,21.039806 1.81363826,19.8484991 L1.81301594,9.12324135 C1.81082204,9.1682612 1.81082204,9.1682612 1.81029168,9.16934834 C1.81362269,9.14812276 1.81362269,9.14812276 1.81675014,9.08266501 C1.81675014,8.8294778 1.62170005,8.62422901 1.38109357,8.62422901 C1.14048709,8.62422901 0.945436997,8.8294778 0.945436997,9.08266501 C0.947630896,9.03767316 0.947630896,9.03767316 0.948161254,9.03658602 Z" id="Stroke-2"></path>
                    <path d="M1.7215903,2.81086759 C1.61865045,2.81086759 1.53488034,2.72271734 1.53488034,2.61439502 L1.53488034,1.17359616 C1.53488034,1.06527384 1.61865045,0.977123589 1.7215903,0.977123589 L15.413654,0.977123589 C15.5165938,0.977123589 15.6003639,1.06527384 15.6003639,1.17359616 L15.6003639,2.61439502 C15.6003639,2.72271734 15.5165938,2.81086759 15.413654,2.81086759 L1.7215903,2.81086759 Z M16.4716771,2.61439502 L16.4716771,1.17359616 C16.4716771,0.558899417 15.9978068,0.0602515886 15.413654,0.0602515886 L1.7215903,0.0602515886 C1.13743749,0.0602515886 0.663567195,0.558899417 0.663567195,1.17359616 L0.663567195,2.61439502 C0.663567195,3.22909176 1.13743749,3.72773959 1.7215903,3.72773959 L15.413654,3.72773959 C15.9978068,3.72773959 16.4716771,3.22909176 16.4716771,2.61439502 Z" id="Stroke-4"></path>
                    <path d="M0.646369253,6.3632754 C0.635407017,6.42351142 0.632623043,6.4454965 0.629646053,6.47857462 C0.60820946,6.71676224 0.627708659,6.9811918 0.723317733,7.24458432 C0.925541698,7.80168918 1.40750045,8.14424652 2.13907377,8.14424652 C2.86990584,8.14424652 3.3528958,7.80301523 3.55889601,7.24770746 C3.65729537,6.98245567 3.67836756,6.71625508 3.65803321,6.47759446 C3.65538502,6.44651307 3.65291371,6.42595306 3.64974216,6.40412916 C3.65511431,6.46960343 3.65511431,6.46960343 3.655126,6.47075412 C3.65431598,6.37990779 3.67664719,6.22638699 3.73988336,6.08543151 C3.83493012,5.87356917 3.98942472,5.76168914 4.29246196,5.76168914 C4.60289683,5.76168914 4.75335862,5.86301728 4.83965495,6.04619143 C4.89424535,6.16206601 4.91333997,6.29075796 4.911883,6.36952805 C4.91714814,6.61077689 4.96346797,6.9089208 5.09241435,7.21786868 C5.32672855,7.77927165 5.76515424,8.14359161 6.40352923,8.14359161 C7.04077402,8.14359161 7.4804337,7.78175694 7.71823705,7.22326399 C7.84932448,6.91539865 7.8976965,6.61808725 7.90444345,6.40149075 C7.90694068,6.33292837 7.93396075,6.19456997 8.00062835,6.06466778 C8.10040222,5.87025784 8.25390635,5.76561859 8.53762407,5.76561859 C8.79826412,5.76561859 8.94782514,5.88954031 9.05245723,6.14143986 C9.12672667,6.32024195 9.15547668,6.50997351 9.15759385,6.61794333 C9.15180022,6.81682233 9.18749387,7.0779525 9.30625693,7.34319782 C9.52788698,7.83818616 9.97161923,8.14555634 10.6132164,8.14555634 C11.2747984,8.14555634 11.7198895,7.7769075 11.9379697,7.20706743 C12.0527189,6.90722953 12.0880779,6.61350993 12.084521,6.38140639 C12.0836008,6.35536681 12.0836008,6.35536681 12.083472,6.35270439 C12.0799872,6.26169129 12.0946257,6.13445703 12.1391288,6.02363932 C12.208167,5.85172648 12.3259938,5.76430877 12.592342,5.76430877 C12.8345522,5.76430877 12.9499097,5.8688384 13.0237602,6.10103805 C13.07257,6.25450516 13.087383,6.42740614 13.0819147,6.56207079 C13.0923987,6.83739146 13.1572603,7.11090179 13.3245786,7.38946297 C13.6061531,7.85824479 14.0865086,8.1422818 14.7519539,8.1422818 C15.4259939,8.1422818 15.9110288,7.82916057 16.1948856,7.32225205 C16.3598002,7.0277492 16.4260658,6.74000201 16.4400271,6.52668485 L16.4333669,6.40943302 L15.8495871,3.1833534 C15.8045799,2.93463518 15.5764871,2.77140248 15.3401276,2.81876295 C15.1037681,2.86612342 14.9486463,3.10614262 14.9936534,3.35486084 L15.5774333,6.58094046 L15.570773,6.46368862 C15.5652853,6.54753623 15.5288994,6.70553619 15.4442061,6.85678049 C15.3120498,7.09278387 15.106608,7.2254098 14.7519539,7.2254098 C14.3881605,7.2254098 14.1844574,7.10495889 14.0611047,6.8995942 C13.9854666,6.77366747 13.9544059,6.6426899 13.9508523,6.57853543 C13.9510974,6.62928704 13.9510974,6.62928704 13.9524335,6.60121243 C13.9620509,6.36436728 13.9383532,6.08776131 13.8500266,5.8100461 C13.665595,5.23015913 13.2432278,4.84743677 12.592342,4.84743677 C11.9655942,4.84743677 11.538228,5.16450697 11.3365367,5.66674065 C11.2337612,5.92266318 11.2046683,6.17553261 11.2128652,6.38961558 C11.213735,6.40899478 11.213735,6.40899478 11.2144073,6.4189247 C11.2133189,6.39615575 11.2133189,6.39615575 11.2133211,6.39619009 C11.2151691,6.51677614 11.1932952,6.69847716 11.1297346,6.8645601 C11.0362426,7.10885325 10.8915636,7.22868434 10.6132164,7.22868434 C10.3148846,7.22868434 10.1746815,7.13156661 10.0944637,6.95240844 C10.0436816,6.83899168 10.0262235,6.71127023 10.0284204,6.62774768 C10.0244595,6.3816725 9.97926456,6.08341531 9.85083699,5.77422866 C9.61764075,5.21281362 9.17824854,4.84874659 8.53762407,4.84874659 C7.92062182,4.84874659 7.48038828,5.14884084 7.23397077,5.62898673 C7.09292354,5.90381803 7.04090306,6.17019313 7.03368215,6.36895954 C7.03023151,6.4795275 6.99936849,6.66922249 6.92309118,6.84836354 C6.81528661,7.1015479 6.66319241,7.22671961 6.40352923,7.22671961 C6.14554083,7.22671961 5.99583015,7.10231405 5.89017663,6.84917449 C5.81514238,6.66939685 5.78553349,6.47881523 5.7828868,6.37014255 C5.78287672,6.39447997 5.78287672,6.39447997 5.78303115,6.38737034 C5.78697057,6.17438862 5.74762333,5.90920011 5.62030374,5.63894927 C5.38899865,5.1479769 4.93883783,4.84481714 4.29246196,4.84481714 C3.63868845,4.84481714 3.18579222,5.17279007 2.95195717,5.69401602 C2.82271321,5.98210502 2.78191817,6.26255947 2.78385121,6.47935637 C2.78839796,6.5416904 2.78938795,6.54992665 2.79020107,6.55947 C2.79955142,6.66921343 2.78908051,6.80149015 2.74723286,6.91429745 C2.67277916,7.11499976 2.51372024,7.22737452 2.13907377,7.22737452 C1.76571311,7.22737452 1.60947387,7.11632581 1.5372731,6.91742059 C1.49684724,6.80605178 1.48718179,6.67497812 1.4970779,6.56501981 C1.49803193,6.55441935 2.17793006,3.74419055 2.17793006,3.74419055 C2.23719469,3.49880398 2.09619753,3.24932331 1.86300409,3.18695988 C1.62981065,3.12459644 1.39272654,3.272966 1.3334619,3.51835257 L0.646369253,6.3632754 Z" id="Stroke-6"></path>
                    <path d="M4.21392124,17.6201841 L4.64963811,18.0785782 L4.64901575,10.9210824 L4.21341948,11.3795604 L13.2059935,11.3782505 L12.7702766,10.9198565 L12.770899,18.0773523 L13.2064952,17.6188743 L4.21392124,17.6201841 Z M13.642252,18.5356829 L13.6422121,18.0772684 L13.6415897,10.9197726 L13.6415499,10.4613151 L13.2058729,10.4613785 L4.21329887,10.4626884 L3.77766275,10.4627518 L3.77770261,10.9211663 L3.77832497,18.0786621 L3.77836484,18.5371196 L4.21404184,18.5370561 L13.2066158,18.5357463 L13.642252,18.5356829 Z" id="Stroke-1"></path>
                </g>
            </g>
        </g>
    </g>
</svg>