<?xml version="1.0" encoding="UTF-8" standalone="no"?>
<svg width="52px" height="51px" viewBox="0 0 52 51" version="1.1" xmlns="http://www.w3.org/2000/svg" xmlns:xlink="http://www.w3.org/1999/xlink">
    <!-- Generator: Sketch 39.1 (31720) - http://www.bohemiancoding.com/sketch -->
    <title>ico_cereales_grey</title>
    <desc>Created with Sketch.</desc>
    <defs></defs>
    <g id="supermercado_categoria" stroke="none" stroke-width="1" fill="none" fill-rule="evenodd">
        <g id="Subcategorias_despensa" transform="translate(-77.000000, -14.000000)" fill="#D4D4D4">
            <g id="icon01-copy" transform="translate(77.000000, 14.000000)">
                <g id="cereales_red" transform="translate(16.000000, 15.000000)">
                    <path d="M7.2873,22.5003692 L-0.0003,22.5003692 L-0.0003,0.589625641 L17.3421,0.589625641 L17.3421,8.52698462 C17.3421,8.75462564 17.1537,8.93980513 16.9221,8.93980513 C16.6899,8.93980513 16.5015,8.75462564 16.5015,8.52698462 L16.5015,1.41585641 L0.8403,1.41585641 L0.8403,21.6747282 L7.2873,21.6747282 C7.5195,21.6747282 7.7073,21.8593179 7.7073,22.0875487 C7.7073,22.3157795 7.5195,22.5003692 7.2873,22.5003692" id="Fill-1"></path>
                    <polygon id="Fill-4" points="10.4472 22.5015487 23.1792 22.5015487 23.1792 21.6759077 10.4472 21.6759077"></polygon>
                    <path d="M20.68068,14.2405385 C20.58288,14.2405385 20.48448,14.2069231 20.40468,14.1391026 C20.23008,13.9893077 20.21148,13.7280513 20.36388,13.5564359 L23.14368,10.419 C23.29668,10.2473846 23.56188,10.2291026 23.73708,10.3788974 C23.91168,10.5286923 23.93028,10.789359 23.77788,10.9615641 L20.99748,14.099 C20.91468,14.1921795 20.79768,14.2405385 20.68068,14.2405385" id="Fill-6"></path>
                    <path d="M10.5498,15.9861205 C10.8312,19.1329923 13.5552,21.6270179 16.8126,21.6270179 C20.0712,21.6270179 22.7952,19.1329923 23.076,15.9861205 L10.5498,15.9861205 Z M16.8126,22.4532487 C12.957,22.4532487 9.7602,19.3700692 9.6876,15.5809667 L9.6798,15.1604795 L23.946,15.1604795 L23.9382,15.5809667 C23.8662,19.3700692 20.67,22.4532487 16.8126,22.4532487 L16.8126,22.4532487 Z" id="Fill-7"></path>
                    <path d="M11.6865,15.0966103 C11.6733,15.0966103 11.6589,15.0960205 11.6451,15.094841 C11.4141,15.0724308 11.2455,14.8707385 11.2683,14.6436872 C11.2743,14.5799949 11.3457,14.0103026 11.8881,13.5809692 C12.3585,13.2082513 13.0185,13.0690718 13.8495,13.1663795 C14.0799,13.1929179 14.2449,13.3987385 14.2173,13.6246103 C14.1891,13.8510718 13.9863,14.0097128 13.7499,13.9861231 C13.1601,13.9177128 12.6993,13.9996872 12.4149,14.2243795 C12.1437,14.4384564 12.1041,14.7209436 12.1035,14.7238923 C12.0825,14.9367897 11.8995,15.0966103 11.6865,15.0966103" id="Fill-8"></path>
                    <path d="M13.66698,14.4182282 C13.65138,14.4182282 13.63578,14.4176385 13.62018,14.4158692 C13.39218,14.3905103 13.22718,14.1935359 13.24938,13.9688436 C13.25478,13.9051513 13.32678,13.335459 13.86918,12.9061256 C14.33958,12.5339974 14.99958,12.3942282 15.82998,12.4915359 C16.06038,12.5186641 16.22538,12.7238949 16.19778,12.9503564 C16.16958,13.1768179 15.96558,13.3348692 15.73038,13.3118692 C14.24958,13.1325872 14.09718,13.9611769 14.08398,14.0555359 C14.05638,14.2631256 13.87578,14.4182282 13.66698,14.4182282" id="Fill-9"></path>
                    <path d="M20.41698,14.2336385 C20.20458,14.2336385 20.02218,14.0749974 19.99998,13.8632795 C19.97718,13.6456641 19.89438,13.4870231 19.73838,13.3649462 C19.35438,13.0612282 18.62958,13.0683051 18.38358,13.0972026 C18.15318,13.1196128 17.94498,12.9621513 17.91738,12.7356897 C17.88978,12.5098179 18.05358,12.3045872 18.28278,12.277459 C18.40998,12.2621256 19.53258,12.1471256 20.26098,12.7185872 C20.59158,12.9774846 20.78958,13.3437154 20.83518,13.7783564 C20.85918,14.0054077 20.69118,14.2082795 20.46018,14.2312795 C20.44578,14.2330487 20.43138,14.2336385 20.41698,14.2336385" id="Fill-10"></path>
                    <path d="M22.4127,15.3512026 C22.2003,15.3512026 22.0179,15.1925615 21.9957,14.9808436 C21.9729,14.7632282 21.8901,14.6051769 21.7341,14.4825103 C21.3501,14.1793821 20.6259,14.1858692 20.3793,14.2147667 C20.1561,14.2389462 19.9401,14.0797154 19.9131,13.8532538 C19.8855,13.6273821 20.0493,13.4221513 20.2791,13.3950231 C20.4033,13.3796897 21.5283,13.2641 22.2567,13.8361513 C22.5873,14.0950487 22.7853,14.4612795 22.8309,14.8959205 C22.8549,15.1229718 22.6869,15.3258436 22.4559,15.3488436 C22.4415,15.3506128 22.4271,15.3512026 22.4127,15.3512026" id="Fill-11"></path>
                    <path d="M15.09666,15.0537359 C15.00366,15.0537359 14.90946,15.023659 14.83206,14.9611462 C14.65206,14.8178385 14.62446,14.5577615 14.77086,14.3802487 C15.17766,13.8878128 16.35306,13.1512231 17.88906,13.8901718 C18.09786,13.9904282 18.18426,14.2375308 18.08226,14.4421718 C17.98026,14.6474026 17.73006,14.7329154 17.52006,14.6320692 C16.19106,13.9921974 15.45366,14.8638385 15.42246,14.9009923 C15.33966,15.0018385 15.21846,15.0537359 15.09666,15.0537359" id="Fill-12"></path>
                    <path d="M15.36624,13.2539564 C15.17364,13.2539564 14.99964,13.1224436 14.95644,12.9295974 C14.94204,12.8647256 14.82804,12.2855974 15.23604,11.7872641 C15.57204,11.3773923 16.13784,11.1692128 16.91904,11.1692128 C17.74884,11.1692128 18.36204,11.3691359 18.74184,11.7636744 C19.12824,12.1647 19.11444,12.6129051 19.11204,12.6624436 C19.10004,12.8906744 18.89304,13.0729051 18.66984,13.0516744 C18.43764,13.0392897 18.26064,12.8446744 18.27324,12.6170333 C18.27264,12.5639564 18.22944,11.9954436 16.91904,11.9954436 C16.41204,11.9954436 16.05624,12.1021872 15.89064,12.305059 C15.73284,12.4979051 15.77664,12.7503154 15.77724,12.7526744 C15.82704,12.9750077 15.68304,13.1955718 15.45624,13.2439308 C15.42684,13.2510077 15.39624,13.2539564 15.36624,13.2539564" id="Fill-13"></path>
                    <path d="M8.08008,7.23214359 C7.78248,7.52524615 7.61808,7.91506667 7.61808,8.32965641 C7.61808,8.7448359 7.78248,9.13465641 8.08008,9.42775897 L8.64888,9.9868359 L9.21768,9.42775897 C9.51588,9.13465641 9.67968,8.7448359 9.67968,8.32965641 C9.67968,7.91506667 9.51588,7.52524615 9.21768,7.23214359 L8.64888,6.67306667 L8.08008,7.23214359 Z M8.64888,11.1539385 L7.48608,10.0116051 C7.02948,9.56222051 6.77808,8.9654 6.77808,8.32965641 C6.77808,7.69450256 7.02948,7.09768205 7.48608,6.64888718 L7.48608,6.64829744 L8.64888,5.50537436 L9.81168,6.64888718 C10.26768,7.09709231 10.51968,7.69450256 10.51968,8.32965641 C10.51968,8.9654 10.26768,9.56281026 9.81168,10.0116051 L8.64888,11.1539385 Z M4.46808,10.0422718 L4.46808,10.8331179 C4.46808,11.6888359 5.17608,12.3847333 6.04668,12.3847333 L6.85188,12.3847333 L6.85188,11.5938872 C6.85188,10.7381692 6.14388,10.0422718 5.27328,10.0422718 L4.46808,10.0422718 Z M7.69248,13.2103744 L6.04668,13.2103744 C4.71348,13.2103744 3.62808,12.1441179 3.62808,10.8331179 L3.62808,9.21604103 L5.27328,9.21604103 C6.60708,9.21604103 7.69248,10.2828872 7.69248,11.5938872 L7.69248,13.2103744 Z M10.45548,12.3847333 L11.26008,12.3847333 C12.13068,12.3847333 12.83868,11.6888359 12.83868,10.8331179 L12.83868,10.0422718 L12.03408,10.0422718 C11.16348,10.0422718 10.45548,10.7381692 10.45548,11.5938872 L10.45548,12.3847333 Z M11.26008,13.2103744 L9.61548,13.2103744 L9.61548,11.5938872 C9.61548,10.2828872 10.70028,9.21604103 12.03408,9.21604103 L13.67868,9.21604103 L13.67868,10.8331179 C13.67868,12.1441179 12.59328,13.2103744 11.26008,13.2103744 L11.26008,13.2103744 Z" id="Fill-14"></path>
                    <path d="M0.87888,18.5247897 L10.16088,18.5247897 L9.97188,17.7663795 L0.87888,17.7663795 L0.87888,18.5247897 Z M11.23068,19.3504308 L0.03888,19.3504308 L0.03888,16.9407385 L10.63188,16.9407385 L11.23068,19.3504308 Z" id="Fill-15"></path>
                </g>
            </g>
        </g>
    </g>
</svg>