<?xml version="1.0" encoding="UTF-8" standalone="no"?>
<svg width="52px" height="51px" viewBox="0 0 52 51" version="1.1" xmlns="http://www.w3.org/2000/svg" xmlns:xlink="http://www.w3.org/1999/xlink">
    <!-- Generator: Sketch 39.1 (31720) - http://www.bohemiancoding.com/sketch -->
    <title>ico_sazonadores_grey</title>
    <desc>Created with Sketch.</desc>
    <defs></defs>
    <g id="supermercado_categoria" stroke="none" stroke-width="1" fill="none" fill-rule="evenodd">
        <g id="Subcategorias_despensa" transform="translate(-263.000000, -75.000000)" fill="#D4D4D4">
            <g id="icon01-copy-12" transform="translate(263.000000, 75.000000)">
                <g id="sazonadores_red" transform="translate(14.000000, 13.000000)">
                    <path d="M1.15862069,15.4265086 C1.15862069,14.94521 1.35890509,14.4930602 1.7298042,14.1457177 L2.59915045,13.3333072 L2.20386207,13.4893086 L9.21931034,13.4893086 L8.82382092,13.3331192 L9.69278643,14.1459478 C10.0642062,14.4931873 10.2645517,14.9451095 10.2645517,15.4265086 L10.2645517,24.1903086 C10.2645517,24.8126724 9.70332311,25.3370514 8.99586207,25.3370514 L2.42648276,25.3370514 C1.71925289,25.3370514 1.15862069,24.8129056 1.15862069,24.1903086 L1.15862069,23.14548 L1.15862069,16.78288 L1.15862069,15.6411086 L0.579310345,15.6411086 L0,15.6411086 L0,15.6817086 L0.579310345,15.6817086 L1.15862069,15.6817086 L1.15862069,15.4265086 Z M1.15862069,15.6817086 L0,15.6411086 L0,16.78288 L0,23.14548 L0,24.1903086 C0,25.471983 1.09642455,26.4970514 2.42648276,26.4970514 L8.99586207,26.4970514 C10.3260041,26.4970514 11.4231724,25.4719217 11.4231724,24.1903086 L11.4231724,15.4265086 C11.4231724,14.6202929 11.087231,13.8625051 10.4836523,13.2982208 L9.61479977,12.4854979 L9.44782343,12.3293086 L9.21931034,12.3293086 L2.20386207,12.3293086 L1.97550792,12.3293086 L1.80857369,12.4853099 L0.938780588,13.2981385 C0.335632183,13.8629791 0,14.6206818 0,15.4265086 L0,15.6817086 L1.15862069,15.6817086 Z M1.69737931,9.64390857 L2.23034483,9.64390857 L9.18868966,9.64390857 L9.7257931,9.64390857 C9.62019366,9.64390857 9.53462069,9.55823373 9.53462069,9.45250857 L9.53462069,10.9141086 C9.53462069,10.8074915 9.62025647,10.72188 9.7257931,10.72188 L1.69737931,10.72188 C1.80291594,10.72188 1.88855172,10.8074915 1.88855172,10.9141086 L1.88855172,9.45250857 C1.88855172,9.55823373 1.80297875,9.64390857 1.69737931,9.64390857 Z M0.729931034,10.9141086 C0.729931034,11.4485248 1.16340936,11.88188 1.69737931,11.88188 L9.7257931,11.88188 C10.2597631,11.88188 10.6932414,11.4485248 10.6932414,10.9141086 L10.6932414,9.45250857 C10.6932414,8.91758342 10.2600822,8.48390857 9.7257931,8.48390857 L9.19117241,8.48390857 L2.232,8.48390857 L1.69737931,8.48390857 C1.16309021,8.48390857 0.729931034,8.91758342 0.729931034,9.45250857 L0.729931034,10.9141086 Z" id="Stroke-1"></path>
                    <path d="M2.80492591,8.98539062 C2.78577799,8.65921924 2.84822804,8.24016471 3.05766778,7.84825818 C3.45007707,7.11397649 4.26718496,6.66527714 5.73815172,6.66527714 C7.20668428,6.66527714 8.01076294,7.11138181 8.38697562,7.84076219 C8.5845566,8.22382131 8.64104712,8.636228 8.6181271,8.96595231 C8.61564505,8.99588983 8.61564505,8.99588983 8.61619589,8.99053488 L9.76548687,9.13744797 C9.7686368,9.11171206 9.7686368,9.11171206 9.77395203,9.04648821 C9.81032677,8.52320613 9.726205,7.90907858 9.41643128,7.30850638 C8.83238534,6.17619033 7.62310192,5.50527714 5.73815172,5.50527714 C3.85563573,5.50527714 2.63858844,6.17359565 2.03608394,7.30101039 C1.71036515,7.91049989 1.61770522,8.53226979 1.64830128,9.05345213 C1.65188382,9.10541971 1.65188382,9.10541971 1.65411698,9.12686217 L2.80591061,9.00112069 C2.80644367,9.0069531 2.80644367,9.0069531 2.80492591,8.98539062 Z" id="Stroke-3"></path>
                    <path d="M6.28891034,6.64356857 C6.28891034,6.95179714 6.03897931,7.20202571 5.73111724,7.20202571 C5.42325517,7.20202571 5.17332414,6.95179714 5.17332414,6.64356857 C5.17332414,6.33534 5.42325517,6.08511143 5.73111724,6.08511143 C6.03897931,6.08511143 6.28891034,6.33534 6.28891034,6.64356857" id="Fill-5"></path>
                    <path d="M4.12675862,7.20931714 C4.12675862,7.51754571 3.87682759,7.76777429 3.56896552,7.76777429 C3.26110345,7.76777429 3.01117241,7.51754571 3.01117241,7.20931714 C3.01117241,6.90108857 3.26110345,6.65086 3.56896552,6.65086 C3.87682759,6.65086 4.12675862,6.90108857 4.12675862,7.20931714" id="Fill-7"></path>
                    <path d="M8.50013793,7.20931714 C8.50013793,7.51754571 8.2502069,7.76777429 7.94234483,7.76777429 C7.63448276,7.76777429 7.38455172,7.51754571 7.38455172,7.20931714 C7.38455172,6.90108857 7.63448276,6.65086 7.94234483,6.65086 C8.2502069,6.65086 8.50013793,6.90108857 8.50013793,7.20931714" id="Fill-9"></path>
                    <path d="M3.13423448,16.8877771 L2.72044138,16.8877771 L2.72044138,17.3020629 L2.72044138,25.9366057 C2.72044138,26.1654094 2.90570286,26.3508914 3.13423448,26.3508914 C3.3627661,26.3508914 3.54802759,26.1654094 3.54802759,25.9366057 L3.54802759,17.3020629 L3.13423448,17.7163486 L4.82913103,17.7163486 C5.05766266,17.7163486 5.24292414,17.5308665 5.24292414,17.3020629 C5.24292414,17.0732592 5.05766266,16.8877771 4.82913103,16.8877771 L3.13423448,16.8877771 Z" id="Stroke-11"></path>
                    <path d="M6.89337931,16.8877771 L6.47958621,16.8877771 L6.47958621,17.3020629 L6.47958621,25.9366057 C6.47958621,26.1654094 6.66484769,26.3508914 6.89337931,26.3508914 C7.12191093,26.3508914 7.30717241,26.1654094 7.30717241,25.9366057 L7.30717241,17.3020629 L6.89337931,17.7163486 L8.58827586,17.7163486 C8.81680748,17.7163486 9.00206897,17.5308665 9.00206897,17.3020629 C9.00206897,17.0732592 8.81680748,16.8877771 8.58827586,16.8877771 L6.89337931,16.8877771 Z" id="Stroke-13"></path>
                    <path d="M22.6780138,11.0708743 C22.6780138,11.5521729 22.4777294,12.0043227 22.1068303,12.3516651 L21.237484,13.1640756 L21.6327724,13.0080743 L14.6173241,13.0080743 L15.0128136,13.1642636 L14.1438481,12.351435 C13.7724283,12.0041956 13.5720828,11.5522733 13.5720828,11.0708743 L13.5720828,2.30707429 C13.5720828,1.68471049 14.1333114,1.16033143 14.8407724,1.16033143 L21.4101517,1.16033143 C22.1173816,1.16033143 22.6780138,1.68447729 22.6780138,2.30707429 L22.6780138,3.35190286 L22.6780138,9.71450286 L22.6780138,10.8562743 L23.2573241,10.8562743 L23.8366345,10.8562743 L23.8366345,10.8156743 L23.2573241,10.8156743 L22.6780138,10.8156743 L22.6780138,11.0708743 Z M22.6780138,10.8156743 L23.8366345,10.8562743 L23.8366345,9.71450286 L23.8366345,3.35190286 L23.8366345,2.30707429 C23.8366345,1.02539989 22.7402099,0.000331428572 21.4101517,0.000331428572 L14.8407724,0.000331428572 C13.5106304,0.000331428572 12.4134621,1.02546111 12.4134621,2.30707429 L12.4134621,11.0708743 C12.4134621,11.87709 12.7494035,12.6348777 13.3529822,13.199162 L14.2218347,14.011885 L14.3888111,14.1680743 L14.6173241,14.1680743 L21.6327724,14.1680743 L21.8611266,14.1680743 L22.0280608,14.0120729 L22.8978539,13.1992444 C23.5010023,12.6344037 23.8366345,11.8767011 23.8366345,11.0708743 L23.8366345,10.8156743 L22.6780138,10.8156743 Z M22.1392552,16.8534743 L21.6062897,16.8534743 L14.6479448,16.8534743 L14.1108414,16.8534743 C14.2164408,16.8534743 14.3020138,16.9391491 14.3020138,17.0448743 L14.3020138,15.5832743 C14.3020138,15.6898914 14.216378,15.7755029 14.1108414,15.7755029 L22.1392552,15.7755029 C22.0337185,15.7755029 21.9480828,15.6898914 21.9480828,15.5832743 L21.9480828,17.0448743 C21.9480828,16.9391491 22.0336557,16.8534743 22.1392552,16.8534743 Z M23.1067034,15.5832743 C23.1067034,15.0488581 22.6732251,14.6155029 22.1392552,14.6155029 L14.1108414,14.6155029 C13.5768714,14.6155029 13.1433931,15.0488581 13.1433931,15.5832743 L13.1433931,17.0448743 C13.1433931,17.5797994 13.5765523,18.0134743 14.1108414,18.0134743 L14.6454621,18.0134743 L21.6046345,18.0134743 L22.1392552,18.0134743 C22.6735443,18.0134743 23.1067034,17.5797994 23.1067034,17.0448743 L23.1067034,15.5832743 Z" id="Stroke-15"></path>
                    <path d="M21.0317086,17.5119922 C21.0508565,17.8381636 20.9884064,18.2572181 20.7789667,18.6491247 C20.3865574,19.3834064 19.5694495,19.8321057 18.0984828,19.8321057 C16.6299502,19.8321057 15.8258715,19.386001 15.4496589,18.6566207 C15.2520779,18.2735615 15.1955874,17.8611549 15.2185074,17.5314305 C15.2209894,17.501493 15.2209894,17.501493 15.2204386,17.506848 L14.0711476,17.3599349 C14.0679977,17.3856708 14.0679977,17.3856708 14.0626824,17.4508946 C14.0263077,17.9741767 14.1104295,18.5883043 14.4202032,19.1888765 C15.0042491,20.3211925 16.2135326,20.9921057 18.0984828,20.9921057 C19.9809988,20.9921057 21.198046,20.3237872 21.8005505,19.1963725 C22.1262693,18.586883 22.2189293,17.9651131 22.1883332,17.4439307 C22.1847507,17.3919631 22.1847507,17.3919631 22.1825175,17.3705207 L21.0307239,17.4962622 C21.0301908,17.4904298 21.0301908,17.4904298 21.0317086,17.5119922 Z" id="Stroke-17"></path>
                    <path d="M17.5478069,19.8538143 C17.5478069,19.5455857 17.7977379,19.2953571 18.1056,19.2953571 C18.4134621,19.2953571 18.6633931,19.5455857 18.6633931,19.8538143 C18.6633931,20.1620429 18.4134621,20.4122714 18.1056,20.4122714 C17.7977379,20.4122714 17.5478069,20.1620429 17.5478069,19.8538143" id="Fill-19"></path>
                    <path d="M19.7098759,19.2880657 C19.7098759,18.9798371 19.9598069,18.7296086 20.267669,18.7296086 C20.575531,18.7296086 20.8254621,18.9798371 20.8254621,19.2880657 C20.8254621,19.5962943 20.575531,19.8465229 20.267669,19.8465229 C19.9598069,19.8465229 19.7098759,19.5962943 19.7098759,19.2880657" id="Fill-21"></path>
                    <path d="M15.3364966,19.2880657 C15.3364966,18.9798371 15.5864276,18.7296086 15.8942897,18.7296086 C16.2021517,18.7296086 16.4520828,18.9798371 16.4520828,19.2880657 C16.4520828,19.5962943 16.2021517,19.8465229 15.8942897,19.8465229 C15.5864276,19.8465229 15.3364966,19.5962943 15.3364966,19.2880657" id="Fill-23"></path>
                    <path d="M20.7024,9.60960571 L21.1161931,9.60960571 L21.1161931,9.19532 L21.1161931,0.560777143 C21.1161931,0.331973461 20.9309316,0.146491429 20.7024,0.146491429 C20.4738684,0.146491429 20.2886069,0.331973461 20.2886069,0.560777143 L20.2886069,9.19532 L20.7024,8.78103429 L19.0075034,8.78103429 C18.7789718,8.78103429 18.5937103,8.96651632 18.5937103,9.19532 C18.5937103,9.42412368 18.7789718,9.60960571 19.0075034,9.60960571 L20.7024,9.60960571 Z" id="Stroke-25"></path>
                    <path d="M16.9433379,9.60960571 L17.357131,9.60960571 L17.357131,9.19532 L17.357131,0.560777143 C17.357131,0.331973461 17.1718696,0.146491429 16.9433379,0.146491429 C16.7148063,0.146491429 16.5295448,0.331973461 16.5295448,0.560777143 L16.5295448,9.19532 L16.9433379,8.78103429 L15.2484414,8.78103429 C15.0199098,8.78103429 14.8346483,8.96651632 14.8346483,9.19532 C14.8346483,9.42412368 15.0199098,9.60960571 15.2484414,9.60960571 L16.9433379,9.60960571 Z" id="Stroke-27"></path>
                    <path d="M16.6612138,23.8491857 C16.6612138,24.1350429 16.4294897,24.3670429 16.1439724,24.3670429 C15.8584552,24.3670429 15.626731,24.1350429 15.626731,23.8491857 C15.626731,23.5633286 15.8584552,23.3313286 16.1439724,23.3313286 C16.4294897,23.3313286 16.6612138,23.5633286 16.6612138,23.8491857" id="Fill-29"></path>
                    <path d="M19.8031448,22.9803457 C19.8031448,23.2662029 19.5714207,23.4982029 19.2859034,23.4982029 C19.0003862,23.4982029 18.7686621,23.2662029 18.7686621,22.9803457 C18.7686621,22.6944886 19.0003862,22.4624886 19.2859034,22.4624886 C19.5714207,22.4624886 19.8031448,22.6944886 19.8031448,22.9803457" id="Fill-31"></path>
                    <path d="M18.6728945,25.3054671 C18.811615,25.2738397 18.9502023,25.3606663 18.9820295,25.5005955 C19.014022,25.6412517 18.925592,25.7809312 18.7841509,25.8117769 C18.6486247,25.8426949 18.5096847,25.75511 18.4779981,25.6157987 C18.4462681,25.4762969 18.5337488,25.3371915 18.6728945,25.3054671 Z M18.6042048,25.0030386 C18.2994189,25.0694878 18.105036,25.3765248 18.1751015,25.6845702 C18.2449532,25.9916752 18.5505611,26.1831422 18.8566503,26.1133557 C19.1630042,26.0435089 19.3547168,25.7386616 19.284926,25.4318241 C19.2151623,25.1251056 18.9106775,24.9331647 18.6042048,25.0030386 Z" id="Stroke-33"></path>
                    <path d="M16.7390069,27.47402 C16.8389489,27.47402 16.9202483,27.5556166 16.9202483,27.6554771 C16.9202483,27.7553377 16.8389489,27.8369343 16.7390069,27.8369343 C16.6387511,27.8369343 16.5577655,27.7558523 16.5577655,27.6554771 C16.5577655,27.555102 16.6387511,27.47402 16.7390069,27.47402 Z M16.7390069,27.0083629 C16.3814293,27.0083629 16.0926621,27.298186 16.0926621,27.6554771 C16.0926621,28.0127683 16.3814293,28.3025914 16.7390069,28.3025914 C17.0958144,28.3025914 17.3853517,28.0127094 17.3853517,27.6554771 C17.3853517,27.2982449 17.0958144,27.0083629 16.7390069,27.0083629 Z" id="Stroke-35"></path>
                </g>
            </g>
        </g>
    </g>
</svg>