<?xml version="1.0" encoding="UTF-8" standalone="no"?>
<svg width="52px" height="51px" viewBox="0 0 52 51" version="1.1" xmlns="http://www.w3.org/2000/svg" xmlns:xlink="http://www.w3.org/1999/xlink">
    <!-- Generator: Sketch 39.1 (31720) - http://www.bohemiancoding.com/sketch -->
    <title>ico_aseo_grey</title>
    <desc>Created with Sketch.</desc>
    <defs></defs>
    <g id="supermercado_categoria" stroke="none" stroke-width="1" fill="none" fill-rule="evenodd">
        <g id="Subcategorias_mascotas" transform="translate(-139.000000, -14.000000)" fill="#D4D4D4">
            <g id="icon01-copy-2" transform="translate(139.000000, 14.000000)">
                <g id="aseo_mascotas_dgreen" transform="translate(19.000000, 12.000000)">
                    <path d="M9.5612,14.60511 C9.49253333,14.419485 9.37786667,14.28516 9.22786667,14.216985 C9.15986667,14.185935 9.08786667,14.169735 9.01453333,14.169735 C8.7012,14.169735 8.3832,14.465385 8.2232,14.90481 C8.02453333,15.449535 8.13986667,15.982785 8.4912,16.14546 C8.56186667,16.178535 8.63786667,16.194735 8.71653333,16.194735 C9.0352,16.194735 9.3592,15.92406 9.52253333,15.521085 C9.64586667,15.215985 9.66053333,14.87376 9.5612,14.60511" id="Fill-1"></path>
                    <path d="M5.02986667,14.904945 C4.86986667,14.46552 4.55186667,14.16987 4.23853333,14.16987 C4.1652,14.16987 4.0932,14.18607 4.0252,14.21712 C3.8752,14.285295 3.76053333,14.41962 3.69186667,14.605245 C3.59253333,14.873895 3.6072,15.21612 3.73053333,15.52122 C3.89386667,15.924195 4.21786667,16.19487 4.53653333,16.19487 C4.6152,16.19487 4.6912,16.177995 4.76186667,16.145595 C5.1132,15.98292 5.22853333,15.44967 5.02986667,14.904945" id="Fill-3"></path>
                    <path d="M5.72573333,14.8439925 C5.7544,14.8453425 5.78373333,14.8446675 5.8124,14.8412925 C5.98106667,14.8250925 6.13373333,14.7373425 6.25306667,14.5881675 C6.4464,14.3478675 6.5004,13.9718925 6.45973333,13.5851175 C6.39773333,12.9884175 6.08706667,12.5429175 5.66973333,12.5246925 C5.66973333,12.5246925 5.6104,12.5246925 5.5804,12.5280675 C5.3964,12.5462925 5.22906667,12.6428175 5.0964,12.8075175 C4.9044,13.0464675 4.8124,13.4021925 4.84973333,13.7585925 C4.91106667,14.3485425 5.29573333,14.8250925 5.72573333,14.8439925" id="Fill-5"></path>
                    <path d="M6.62653333,15.3090675 C5.62653333,15.3090675 4.62653333,16.5125925 4.62653333,17.6681925 C4.62653333,18.0131175 4.7972,18.2905425 4.9652,18.4039425 C5.17253333,18.5443425 5.31853333,18.5996925 5.62186667,18.5996925 C5.98253333,18.5996925 6.07986667,18.4714425 6.2492,18.3587175 C6.3712,18.2777175 6.47653333,18.2068425 6.62653333,18.2068425 C6.77653333,18.2068425 6.88186667,18.2777175 7.00386667,18.3587175 C7.1732,18.4714425 7.27053333,18.5996925 7.6312,18.5996925 C7.93453333,18.5996925 8.08053333,18.5443425 8.28786667,18.4039425 C8.45586667,18.2905425 8.62653333,18.0131175 8.62653333,17.6681925 C8.62653333,16.5125925 7.62653333,15.3090675 6.62653333,15.3090675" id="Fill-7"></path>
                    <path d="M7.4434,14.83866 C7.47206667,14.84136 7.5014,14.842035 7.53006667,14.84136 C7.96006667,14.82246 8.34473333,14.345235 8.40673333,13.75596 C8.44406667,13.39956 8.3514,13.043835 8.1594,12.804885 C8.0274,12.640185 7.86606667,12.548385 7.68206667,12.529485 C7.65206667,12.526785 7.58606667,12.52476 7.58606667,12.52476 C7.16873333,12.542985 6.85873333,12.98511 6.79673333,13.58181 C6.75606667,13.968585 6.8094,14.345235 7.00273333,14.585535 C7.12273333,14.734035 7.27473333,14.821785 7.4434,14.83866" id="Fill-9"></path>
                    <path d="M13.4889333,17.899515 C13.4889333,17.3469605 13.0453329,16.897815 12.4996,16.897815 L12.4996,17.370315 L12.9662667,17.370315 L12.9662667,16.363215 L12.4996,16.363215 L12.4996,16.835715 C13.0453329,16.835715 13.4889333,16.3865695 13.4889333,15.834015 C13.4889333,15.2799706 13.0458611,14.830965 12.4996,14.830965 L12.4996,15.303465 L12.9662667,15.303465 L12.9662667,14.29704 L12.4996,14.29704 L12.4996,14.76954 C13.0456662,14.76954 13.4889333,14.320732 13.4889333,13.767165 C13.4889333,13.2769394 13.1404,12.8630234 12.6675981,12.7804423 L12.5882667,13.246065 L13.0530126,13.2888906 L13.4870126,8.46061559 C13.4943349,8.37915419 13.4806451,8.29716341 13.4472827,8.22266592 C13.2663572,7.81866318 12.8333427,7.25503246 12.060624,6.70666011 C11.4970203,6.30668958 10.8186476,5.97520656 10.0168106,5.73339921 L10.3502667,6.18624 L10.3502667,3.65094 C10.3502667,1.63452804 8.73554782,-0.000135 6.74426667,-0.000135 C4.75308205,-0.000135 3.13893333,1.63443035 3.13893333,3.65094 L3.13893333,6.18624 L3.47238937,5.73339921 C2.67055236,5.97520656 1.99217973,6.30668958 1.428576,6.70666011 C0.655857307,7.25503246 0.222842769,7.81866318 0.0419172728,8.22266592 C0.00856394468,8.29714318 -0.00512762143,8.37911004 0.00218157295,8.46055035 L0.435514906,13.2888253 L0.900266667,13.246065 L0.820517807,12.7805155 C0.34893435,12.8633301 0.000266666667,13.2774058 0.000266666667,13.767165 C0.000266666667,14.3208721 0.443005412,14.76954 0.9896,14.76954 L0.9896,14.29704 L0.522933333,14.29704 L0.522933333,15.303465 L0.9896,15.303465 L0.9896,14.830965 C0.442810546,14.830965 0.000266666667,15.2798302 0.000266666667,15.834015 C0.000266666667,16.3867096 0.443338451,16.835715 0.9896,16.835715 L0.9896,16.363215 L0.522933333,16.363215 L0.522933333,17.370315 L0.9896,17.370315 L0.9896,16.897815 C0.443338451,16.897815 0.000266666667,17.3468204 0.000266666667,17.899515 C0.000266666667,18.4532221 0.443005412,18.90189 0.9896,18.90189 L0.9896,18.42939 L0.522933333,18.42939 L0.00163829085,25.3321897 C0.000266666667,25.9210846 0.443338451,26.37009 0.9896,26.37009 L12.4996,26.37009 C13.0453329,26.37009 13.4889333,25.9209445 13.4889333,25.36839 L12.964895,18.4451647 L12.4996,18.42939 L12.4996,18.90189 C13.0456662,18.90189 13.4889333,18.453082 13.4889333,17.899515 Z M12.0329333,18.42939 L12.5569716,25.4045903 C12.5556,25.3990355 12.5298671,25.42509 12.4996,25.42509 L0.9896,25.42509 C0.958988309,25.42509 0.9336,25.3993617 0.9336,25.36839 L1.45489504,18.5175653 L1.45626667,18.42939 C1.45626667,18.1684355 1.24733288,17.95689 0.9896,17.95689 C0.958655269,17.95689 0.9336,17.9314992 0.9336,17.899515 C0.9336,17.8685433 0.958988309,17.842815 0.9896,17.842815 C1.24733288,17.842815 1.45626667,17.6312695 1.45626667,17.370315 L1.45626667,16.363215 C1.45626667,16.1022605 1.24733288,15.890715 0.9896,15.890715 C0.958988309,15.890715 0.9336,15.8649867 0.9336,15.834015 C0.9336,15.8013673 0.958644511,15.775965 0.9896,15.775965 C1.24733288,15.775965 1.45626667,15.5644195 1.45626667,15.303465 L1.45626667,14.29704 C1.45626667,14.0360855 1.24733288,13.82454 0.9896,13.82454 C0.958655269,13.82454 0.9336,13.7991492 0.9336,13.767165 C0.9336,13.7396002 0.953199734,13.7163237 0.980015526,13.7116145 C1.21951187,13.6695566 1.38701597,13.4484051 1.36501843,13.2033047 L0.931685094,8.37502965 L0.891949394,8.61291408 C0.914383613,8.56281895 0.980481894,8.44986098 1.10016068,8.29408183 C1.3106503,8.0200993 1.59504565,7.74253233 1.96427159,7.48050515 C2.44550246,7.13899186 3.03291807,6.85195449 3.73881063,6.63908079 C3.93664751,6.57941977 4.07226667,6.39524591 4.07226667,6.18624 L4.07226667,3.651615 C4.07226667,2.15630841 5.26857847,0.944865 6.74426667,0.944865 C8.2201127,0.944865 9.41693333,2.15646816 9.41693333,3.65094 L9.41693333,6.18624 C9.41693333,6.39524591 9.55255249,6.57941977 9.75038937,6.63908079 C10.4562819,6.85195449 11.0436975,7.13899186 11.5249284,7.48050515 C11.8941544,7.74253233 12.1785497,8.0200993 12.3890393,8.29408183 C12.5087181,8.44986098 12.5748164,8.56281895 12.5972506,8.61291408 L12.5575208,8.37496441 L12.1235208,13.2032394 C12.1014727,13.448526 12.2692164,13.6698176 12.5089353,13.7116877 C12.5364116,13.7164868 12.5556,13.7392748 12.5556,13.767165 C12.5556,13.798823 12.5302005,13.82454 12.4996,13.82454 C12.2418671,13.82454 12.0329333,14.0360855 12.0329333,14.29704 L12.0329333,15.303465 C12.0329333,15.5644195 12.2418671,15.775965 12.4996,15.775965 C12.5302114,15.775965 12.5556,15.8016936 12.5556,15.834015 C12.5556,15.8646605 12.5298671,15.890715 12.4996,15.890715 C12.2418671,15.890715 12.0329333,16.1022605 12.0329333,16.363215 L12.0329333,17.370315 C12.0329333,17.6312695 12.2418671,17.842815 12.4996,17.842815 C12.5298671,17.842815 12.5556,17.8688695 12.5556,17.899515 C12.5556,17.931173 12.5302005,17.95689 12.4996,17.95689 C12.2418671,17.95689 12.0329333,18.1684355 12.0329333,18.42939 Z" id="Stroke-11"></path>
                    <path d="M3.99865653,6.56910326 C4.2148226,6.51450743 4.45975753,6.45973193 4.72804521,6.40853153 C5.85689663,6.19309993 7.01348996,6.10847309 8.08170634,6.22875762 C8.67823523,6.29592866 9.22404558,6.42604531 9.70864955,6.62437431 C9.94760028,6.72216727 10.2196063,6.60531494 10.3161919,6.36337733 C10.4127776,6.12143971 10.2973678,5.84603366 10.0584171,5.74824069 C9.48962344,5.51545622 8.86167454,5.36575843 8.18486912,5.289548 C7.01187529,5.1574652 5.76754821,5.24851143 4.55516961,5.47988347 C4.26844802,5.53460182 4.00592462,5.59331069 3.77276199,5.65219924 C3.63098606,5.68800677 3.529141,5.71634814 3.47243663,5.73343237 C3.22540846,5.80785849 3.08474198,6.07095188 3.15824926,6.32106791 C3.23175653,6.57118394 3.49160186,6.71360875 3.73863003,6.63918263 C3.78237011,6.62600436 3.87083523,6.60138635 3.99865653,6.56910326 Z" id="Stroke-13"></path>
                    <path d="M5.03813333,5.52798 C5.03813333,5.7143761 5.18737175,5.86548 5.37146667,5.86548 C5.55556158,5.86548 5.7048,5.7143761 5.7048,5.52798 L5.7048,2.85228 C5.7048,2.6658839 5.55556158,2.51478 5.37146667,2.51478 C5.18737175,2.51478 5.03813333,2.6658839 5.03813333,2.85228 L5.03813333,5.52798 Z" id="Stroke-15"></path>
                    <path d="M5.23066667,21.261285 C3.89585217,21.261285 2.81333333,20.1654182 2.81333333,18.813735 L2.81333333,12.04146 C2.81333333,10.6902061 3.89609492,9.59391 5.23066667,9.59391 L8.21666667,9.59391 C9.55166237,9.59391 10.634,10.6899603 10.634,12.04146 L10.634,18.813735 C10.634,20.1656639 9.55190508,21.261285 8.21666667,21.261285 L5.23066667,21.261285 Z M11.3006667,18.813735 L11.3006667,12.04146 C11.3006667,10.3171934 9.91987719,8.91891 8.21666667,8.91891 L5.23066667,8.91891 C3.52790508,8.91891 2.14666667,10.3174139 2.14666667,12.04146 L2.14666667,18.813735 C2.14666667,20.5382357 3.52768732,21.936285 5.23066667,21.936285 L8.21666667,21.936285 C9.92009492,21.936285 11.3006667,20.5384561 11.3006667,18.813735 Z" id="Stroke-17"></path>
                </g>
            </g>
        </g>
    </g>
</svg>