<?xml version="1.0" encoding="UTF-8" standalone="no"?>
<svg width="52px" height="51px" viewBox="0 0 52 51" version="1.1" xmlns="http://www.w3.org/2000/svg" xmlns:xlink="http://www.w3.org/1999/xlink">
    <!-- Generator: Sketch 39.1 (31720) - http://www.bohemiancoding.com/sketch -->
    <title>ico_accesorio_grey</title>
    <desc>Created with Sketch.</desc>
    <defs></defs>
    <g id="supermercado_categoria" stroke="none" stroke-width="1" fill="none" fill-rule="evenodd">
        <g id="Subcategorias_mascotas" transform="translate(-201.000000, -14.000000)" fill="#D4D4D4">
            <g id="icon01-copy-3" transform="translate(201.000000, 14.000000)">
                <g id="accesorios_mascotas_red" transform="translate(13.000000, 13.000000)">
                    <path d="M5.87531176,12.4494968 C5.87531176,12.6632844 6.04649701,12.8365935 6.25766471,12.8365935 C6.4688324,12.8365935 6.64001765,12.6632844 6.64001765,12.4494968 L6.64001765,8.77207742 C6.64001765,8.55828977 6.4688324,8.38498065 6.25766471,8.38498065 C6.04649701,8.38498065 5.87531176,8.55828977 5.87531176,8.77207742 L5.87531176,12.4494968 Z" id="Stroke-1"></path>
                    <path d="M8.02604706,12.4494968 C8.02604706,12.6632844 8.1972323,12.8365935 8.4084,12.8365935 C8.6195677,12.8365935 8.79075294,12.6632844 8.79075294,12.4494968 L8.79075294,8.77207742 C8.79075294,8.55828977 8.6195677,8.38498065 8.4084,8.38498065 C8.1972323,8.38498065 8.02604706,8.55828977 8.02604706,8.77207742 L8.02604706,12.4494968 Z" id="Stroke-2"></path>
                    <path d="M10.0811941,12.4494968 C10.0811941,12.6632844 10.2523794,12.8365935 10.4635471,12.8365935 C10.6747148,12.8365935 10.8459,12.6632844 10.8459,12.4494968 L10.8459,8.77207742 C10.8459,8.55828977 10.6747148,8.38498065 10.4635471,8.38498065 C10.2523794,8.38498065 10.0811941,8.55828977 10.0811941,8.77207742 L10.0811941,12.4494968 Z" id="Stroke-3"></path>
                    <path d="M12.2319294,12.4494968 C12.2319294,12.6632844 12.4031147,12.8365935 12.6142824,12.8365935 C12.8254501,12.8365935 12.9966353,12.6632844 12.9966353,12.4494968 L12.9966353,8.77207742 C12.9966353,8.55828977 12.8254501,8.38498065 12.6142824,8.38498065 C12.4031147,8.38498065 12.2319294,8.55828977 12.2319294,8.77207742 L12.2319294,12.4494968 Z" id="Stroke-4"></path>
                    <path d="M14.2392824,12.4494968 C14.2392824,12.6632844 14.4104676,12.8365935 14.6216353,12.8365935 C14.832803,12.8365935 15.0039882,12.6632844 15.0039882,12.4494968 L15.0039882,8.77207742 C15.0039882,8.55828977 14.832803,8.38498065 14.6216353,8.38498065 C14.4104676,8.38498065 14.2392824,8.55828977 14.2392824,8.77207742 L14.2392824,12.4494968 Z" id="Stroke-5"></path>
                    <path d="M16.3900176,12.4494968 C16.3900176,12.6632844 16.5612029,12.8365935 16.7723706,12.8365935 C16.9835383,12.8365935 17.1547235,12.6632844 17.1547235,12.4494968 L17.1547235,8.77207742 C17.1547235,8.55828977 16.9835383,8.38498065 16.7723706,8.38498065 C16.5612029,8.38498065 16.3900176,8.55828977 16.3900176,8.77207742 L16.3900176,12.4494968 Z" id="Stroke-6"></path>
                    <path d="M18.2061941,12.4494968 C18.2061941,12.6632844 18.3773794,12.8365935 18.5885471,12.8365935 C18.7997148,12.8365935 18.9709,12.6632844 18.9709,12.4494968 L18.9709,8.77207742 C18.9709,8.55828977 18.7997148,8.38498065 18.5885471,8.38498065 C18.3773794,8.38498065 18.2061941,8.55828977 18.2061941,8.77207742 L18.2061941,12.4494968 Z" id="Stroke-7"></path>
                    <path d="M5.87531176,18.9817548 C5.87531176,19.1955425 6.04649701,19.3688516 6.25766471,19.3688516 C6.4688324,19.3688516 6.64001765,19.1955425 6.64001765,18.9817548 L6.64001765,15.3043355 C6.64001765,15.0905478 6.4688324,14.9172387 6.25766471,14.9172387 C6.04649701,14.9172387 5.87531176,15.0905478 5.87531176,15.3043355 L5.87531176,18.9817548 Z" id="Stroke-8"></path>
                    <path d="M8.02604706,18.9817548 C8.02604706,19.1955425 8.1972323,19.3688516 8.4084,19.3688516 C8.6195677,19.3688516 8.79075294,19.1955425 8.79075294,18.9817548 L8.79075294,15.3043355 C8.79075294,15.0905478 8.6195677,14.9172387 8.4084,14.9172387 C8.1972323,14.9172387 8.02604706,15.0905478 8.02604706,15.3043355 L8.02604706,18.9817548 Z" id="Stroke-9"></path>
                    <path d="M10.0811941,18.9817548 C10.0811941,19.1955425 10.2523794,19.3688516 10.4635471,19.3688516 C10.6747148,19.3688516 10.8459,19.1955425 10.8459,18.9817548 L10.8459,15.3043355 C10.8459,15.0905478 10.6747148,14.9172387 10.4635471,14.9172387 C10.2523794,14.9172387 10.0811941,15.0905478 10.0811941,15.3043355 L10.0811941,18.9817548 Z" id="Stroke-10"></path>
                    <path d="M12.2319294,18.9817548 C12.2319294,19.1955425 12.4031147,19.3688516 12.6142824,19.3688516 C12.8254501,19.3688516 12.9966353,19.1955425 12.9966353,18.9817548 L12.9966353,15.3043355 C12.9966353,15.0905478 12.8254501,14.9172387 12.6142824,14.9172387 C12.4031147,14.9172387 12.2319294,15.0905478 12.2319294,15.3043355 L12.2319294,18.9817548 Z" id="Stroke-11"></path>
                    <path d="M14.2392824,18.9817548 C14.2392824,19.1955425 14.4104676,19.3688516 14.6216353,19.3688516 C14.832803,19.3688516 15.0039882,19.1955425 15.0039882,18.9817548 L15.0039882,15.3043355 C15.0039882,15.0905478 14.832803,14.9172387 14.6216353,14.9172387 C14.4104676,14.9172387 14.2392824,15.0905478 14.2392824,15.3043355 L14.2392824,18.9817548 Z" id="Stroke-12"></path>
                    <path d="M16.3900176,18.9817548 C16.3900176,19.1955425 16.5612029,19.3688516 16.7723706,19.3688516 C16.9835383,19.3688516 17.1547235,19.1955425 17.1547235,18.9817548 L17.1547235,15.3043355 C17.1547235,15.0905478 16.9835383,14.9172387 16.7723706,14.9172387 C16.5612029,14.9172387 16.3900176,15.0905478 16.3900176,15.3043355 L16.3900176,18.9817548 Z" id="Stroke-13"></path>
                    <path d="M18.2061941,18.9817548 C18.2061941,19.1955425 18.3773794,19.3688516 18.5885471,19.3688516 C18.7997148,19.3688516 18.9709,19.1955425 18.9709,18.9817548 L18.9709,15.3043355 C18.9709,15.0905478 18.7997148,14.9172387 18.5885471,14.9172387 C18.3773794,14.9172387 18.2061941,15.0905478 18.2061941,15.3043355 L18.2061941,18.9817548 Z" id="Stroke-14"></path>
                    <path d="M15.7095824,14.4013161 L15.7095824,14.9432516 L16.2428641,14.9901993 C16.2319643,15.0619617 16.2319643,15.0619617 16.2291457,15.0692938 C16.2421604,15.0285391 16.2421604,15.0285391 16.2548176,14.8921548 L16.2548176,12.8815742 C16.2548176,12.8048135 16.2422351,12.7407922 16.2281446,12.6937624 C16.2280009,12.692573 16.2280009,12.692573 16.2338711,12.7235893 L15.7049941,12.8072516 L15.7049941,13.3491871 L24.2536412,13.3491871 C24.5402129,13.3491871 24.7744059,13.5860487 24.7744059,13.8756387 C24.7744059,14.1649598 24.5404785,14.4013161 24.2536412,14.4013161 L15.7095824,14.4013161 Z M25.8449941,13.8756387 C25.8449941,12.9872005 25.1312429,12.2653161 24.2536412,12.2653161 L15.7049941,12.2653161 C15.3764127,12.2653161 15.1253917,12.5622437 15.1761171,12.8909139 C15.1865756,12.9465324 15.1865756,12.9465324 15.1936073,12.9727037 C15.1928454,12.9754362 15.1842294,12.9315976 15.1842294,12.8815742 L15.1842294,14.8921548 C15.1943421,14.7852577 15.1943421,14.7852577 15.1996494,14.7718863 C15.1905991,14.8014113 15.1905991,14.8014113 15.1763006,14.8963039 C15.1491046,15.2129383 15.3956481,15.4851871 15.7095824,15.4851871 L24.2536412,15.4851871 C25.131269,15.4851871 25.8449941,14.7640513 25.8449941,13.8756387 Z M20.8950529,22.1672516 C20.8950529,22.3410254 20.7546097,22.4831226 20.5822882,22.4831226 L4.71999412,22.4831226 C4.5473782,22.4831226 4.40646471,22.3407269 4.40646471,22.1672516 C4.40646471,22.0775086 4.3956146,21.9892385 4.37386378,21.9027286 L2.61712257,14.7901086 L2.09781765,15.4635097 L23.0675824,15.4635097 L22.5459898,14.7997442 L20.9225192,21.9238732 C20.9042555,22.0039978 20.8950529,22.0851312 20.8950529,22.1672516 Z M23.5891749,15.0434042 C23.6665591,14.7038262 23.4118098,14.3796387 23.0675824,14.3796387 L2.09781765,14.3796387 C1.74955942,14.3796387 1.4940304,14.7109922 1.57851272,15.0530398 L3.33580684,22.1678785 C3.33587647,22.9397859 3.95655572,23.5669935 4.71999412,23.5669935 L20.5822882,23.5669935 C21.34573,23.5669935 21.9656412,22.939782 21.9656412,22.1672516 C21.9656412,22.1675011 23.5891749,15.0434042 23.5891749,15.0434042 Z M1.59005294,13.3491871 L9.91311176,13.3491871 L9.91311176,12.8072516 L9.38385817,12.7260668 C9.39203709,12.6843708 9.39203709,12.6843708 9.39170269,12.6868435 C9.37478792,12.742969 9.36252353,12.8048484 9.36252353,12.8815742 L9.36252353,14.892929 C9.37350661,15.0205423 9.37350661,15.0205423 9.38829426,15.0697546 C9.38832722,15.0717114 9.38832722,15.0717114 9.37772566,15.0141193 L9.90852353,14.9440258 L9.90852353,14.4020903 L1.59005294,14.4020903 C1.30439997,14.4017093 1.07081765,14.165229 1.07081765,13.8756387 C1.07081765,13.5858394 1.30445283,13.3491871 1.59005294,13.3491871 Z M1.58934861,15.4859608 L9.90852353,15.4859613 C10.2316509,15.4859613 10.4811144,15.1983209 10.4393214,14.8739323 C10.4247374,14.7942596 10.4247374,14.7942596 10.4167801,14.7687535 C10.4242316,14.7914448 10.4242316,14.7914448 10.4331118,14.892929 L10.4331118,12.8815742 C10.4331118,12.9334862 10.4243877,12.9775031 10.4197279,12.9894363 C10.4283747,12.960295 10.4283747,12.960295 10.4423654,12.8884365 C10.4914389,12.5605329 10.2406935,12.2653161 9.91311176,12.2653161 L1.59005294,12.2653161 C0.713063319,12.2653161 0.000229411765,12.9873553 0.000229411765,13.8756387 C0.000229411765,14.7635968 0.712587261,15.4847929 1.58934861,15.4859608 Z M4.62826673,6.24125787 C4.65040522,6.15164704 4.66111176,6.06260923 4.66111176,5.97344516 C4.66111176,5.79919572 4.80202517,5.6568 4.97540588,5.6568 L9.61181765,5.6568 L15.9191118,5.6568 L20.8369353,5.6568 C21.0093005,5.6568 21.1497,5.79894141 21.1497,5.97344516 C21.1497,6.05218755 21.1584729,6.13057867 21.1752021,6.2075638 L22.6730507,12.9471192 L23.1952882,12.2862194 L2.40675882,12.2862194 L2.92526673,12.9628063 L4.62826673,6.24125787 Z M2.40675882,13.3700903 L23.1952882,13.3700903 C23.5383236,13.3700903 23.792828,13.048011 23.7175258,12.7091905 L22.2202316,5.97215824 C22.2202882,5.20033601 21.6005701,4.57292903 20.8369353,4.57292903 L15.9191118,4.57292903 L9.61181765,4.57292903 L4.97540588,4.57292903 C4.21120242,4.57292903 3.59052353,5.20013703 3.59052353,5.97344516 C3.59052353,5.97447464 1.88825091,12.6935034 1.88825091,12.6935034 C1.8013882,13.0363407 2.05715993,13.3700903 2.40675882,13.3700903 Z M10.9736539,1.17814042 C11.5416083,1.12019915 12.2150203,1.08363871 12.9000529,1.08363871 C13.5492144,1.08363871 14.1921687,1.11749017 14.81483,1.18364655 L14.8707,0.644670968 L14.7350413,1.16891453 C14.9336772,1.22159896 15.1138067,1.27885704 15.267538,1.33567752 L15.4511118,0.826606452 L14.9158176,0.826606452 L14.9158176,2.94325161 L15.4511118,2.40131613 L10.2067588,2.40131613 L10.7420529,2.94325161 L10.7420529,0.842090323 L10.2067588,0.842090323 L10.3814262,1.35436334 C10.5600586,1.29193516 10.7449204,1.23751768 10.9736539,1.17814042 Z M9.67146471,0.842090323 L9.67146471,2.94325161 C9.67146471,3.24255432 9.91112405,3.4851871 10.2067588,3.4851871 L15.4511118,3.4851871 C15.7467465,3.4851871 15.9864059,3.24255432 15.9864059,2.94325161 L15.9864059,0.826606452 C15.9864059,0.598972075 15.8458951,0.395600315 15.6346855,0.317535388 C15.449856,0.249220763 15.2377764,0.181806617 15.0063587,0.120427409 L14.92657,0.105695388 C14.2666737,0.0355828729 13.5864226,-0.000232258064 12.9000529,-0.000232258064 C12.1762953,-0.000232258064 11.4637511,0.0384527234 10.7820609,0.114513102 C10.4530722,0.194344965 10.2416521,0.256580342 10.0320915,0.329817306 C9.81627528,0.40524043 9.67146471,0.610944948 9.67146471,0.842090323 Z" id="Stroke-15"></path>
                </g>
            </g>
        </g>
    </g>
</svg>