<?xml version="1.0" encoding="UTF-8" standalone="no"?>
<svg width="52px" height="51px" viewBox="0 0 52 51" version="1.1" xmlns="http://www.w3.org/2000/svg" xmlns:xlink="http://www.w3.org/1999/xlink">
    <!-- Generator: Sketch 39.1 (31720) - http://www.bohemiancoding.com/sketch -->
    <title>ico_ropa_green</title>
    <desc>Created with Sketch.</desc>
    <defs></defs>
    <g id="supermercado_categoria" stroke="none" stroke-width="1" fill="none" fill-rule="evenodd">
        <g id="Subcategorias_mascotas" transform="translate(-263.000000, -75.000000)" fill="#44D481">
            <g id="icon01-copy-9" transform="translate(263.000000, 75.000000)">
                <g id="ropa_mascotas_yellow" transform="translate(13.000000, 16.000000)">
                    <path d="M0.0788862843,5.4163751 L0.0788862843,12.2496249 C0.0788862843,15.3269201 5.80297019,17.6066377 12.7911097,17.6066377 C19.7792493,17.6066377 25.5033332,15.3269201 25.5033332,12.2496249 L25.5033332,5.4163751 C25.5033332,2.33857936 19.7799002,0.0593623212 12.7911097,0.0593623212 C5.80231931,0.0593623212 0.0788862843,2.33857936 0.0788862843,5.4163751 Z M24.3762917,5.4163751 L24.3762917,12.2496249 C24.3762917,14.5156961 19.2217068,16.5686006 12.7911097,16.5686006 C6.36051273,16.5686006 1.20592782,14.5156961 1.20592782,12.2496249 L1.20592782,5.4163751 C1.20592782,3.14983369 6.35987762,1.0973994 12.7911097,1.0973994 C19.2223419,1.0973994 24.3762917,3.14983369 24.3762917,5.4163751 Z" id="Stroke-1"></path>
                    <path d="M12.7911903,9.79325844 C6.35995812,9.79325844 1.20600832,7.74082415 1.20600832,5.47428274 C1.20600832,5.18763672 0.953711479,4.9552642 0.642487554,4.9552642 C0.331263628,4.9552642 0.0789667873,5.18763672 0.0789667873,5.47428274 C0.0789667873,8.55207848 5.80239981,10.8312955 12.7911903,10.8312955 C19.7794571,10.8312955 25.5034137,8.55197431 25.5034137,5.47428274 C25.5034137,5.18763672 25.2511169,4.9552642 24.9398929,4.9552642 C24.628669,4.9552642 24.3763722,5.18763672 24.3763722,5.47428274 C24.3763722,7.74070688 19.221892,9.79325844 12.7911903,9.79325844 Z" id="Stroke-3"></path>
                    <path d="M12.8072103,7.85383445 C16.0440112,7.85383445 19.0661226,8.37045313 21.2593258,9.26282352 C21.5440079,9.37865499 21.8767397,9.25999959 22.0025029,8.99779926 C22.1282661,8.73559892 21.9994368,8.4291436 21.7147546,8.31331213 C19.3685933,7.35870612 16.1926905,6.81579737 12.8072103,6.81579737 C9.42731757,6.81579737 6.25559785,7.35702062 3.90988729,8.30863551 C3.62506846,8.42418167 3.49587728,8.73050773 3.62133072,8.99283392 C3.74678416,9.25516011 4.07937554,9.37414883 4.36419438,9.25860267 C6.55734403,8.36887914 9.57565009,7.85383445 12.8072103,7.85383445 Z" id="Stroke-5"></path>
                    <path d="M13.6988812,10.9911138 C14.6494933,11.4232001 15.2105459,12.214852 15.2105459,13.5233705 C15.2105459,14.8350762 14.6108164,15.6873234 13.5927217,16.2077705 C13.2297709,16.3933099 12.8374547,16.5224705 12.4447364,16.6041213 C12.2107341,16.6527732 12.0322105,16.6744208 11.9385108,16.6796932 C11.7166217,16.6921787 11.5477344,16.8679717 11.5612905,17.0723378 C11.5748466,17.276704 11.7657126,17.4322539 11.9876017,17.4197684 C12.1220272,17.4122044 12.3427229,17.385443 12.6220025,17.3273775 C13.084754,17.231166 13.5479076,17.0786838 13.9833953,16.8560638 C15.2465534,16.210341 16.0155756,15.1175199 16.0155756,13.5233705 C16.0155756,11.9260341 15.2745933,10.8804993 14.0551473,10.3262187 C13.3582467,10.0094531 12.660244,9.90760952 12.1413793,9.91390775 C11.9083828,9.9193577 11.7328669,10.0895534 11.7385862,10.2942328 C11.7443055,10.4989122 11.9290943,10.6605673 12.1513235,10.6552997 C12.555028,10.6504061 13.1357064,10.7351312 13.6988812,10.9911138 Z" id="Stroke-7"></path>
                    <path d="M11.0507966,14.6706239 C11.6158368,14.6706239 12.0739893,14.2490306 12.0739893,13.728976 C12.0739893,13.2078092 11.6162397,12.7865867 11.0507966,12.7865867 C10.4853536,12.7865867 10.0276039,13.2078092 10.0276039,13.728976 C10.0276039,14.2490306 10.4857565,14.6706239 11.0507966,14.6706239 Z M11.0507966,13.5280417 C11.1717955,13.5280417 11.2689597,13.6174524 11.2689597,13.728976 C11.2689597,13.8393874 11.1713926,13.9291689 11.0507966,13.9291689 C10.9302006,13.9291689 10.8326336,13.8393874 10.8326336,13.728976 C10.8326336,13.6174524 10.9297977,13.5280417 11.0507966,13.5280417 Z" id="Stroke-9"></path>
                    <path d="M7.08385193,13.9746942 C7.64889209,13.9746942 8.10704463,13.5531009 8.10704463,13.0330463 C8.10704463,12.5118795 7.64929496,12.0906569 7.08385193,12.0906569 C6.51840889,12.0906569 6.06065922,12.5118795 6.06065922,13.0330463 C6.06065922,13.5531009 6.51881177,13.9746942 7.08385193,13.9746942 Z M7.08385193,12.832112 C7.20485083,12.832112 7.30201497,12.9215227 7.30201497,13.0330463 C7.30201497,13.1434577 7.20444795,13.2332392 7.08385193,13.2332392 C6.9632559,13.2332392 6.86568889,13.1434577 6.86568889,13.0330463 C6.86568889,12.9215227 6.96285303,12.832112 7.08385193,12.832112 Z" id="Stroke-11"></path>
                    <path d="M3.96693806,12.8003036 C4.53197823,12.8003036 4.99013077,12.3787102 4.99013077,11.8586556 C4.99013077,11.3374889 4.5323811,10.9162663 3.96693806,10.9162663 C3.40149503,10.9162663 2.94374536,11.3374889 2.94374536,11.8586556 C2.94374536,12.3787102 3.4018979,12.8003036 3.96693806,12.8003036 Z M3.96693806,11.6577213 C4.08793697,11.6577213 4.1851011,11.7471321 4.1851011,11.8586556 C4.1851011,11.9690671 4.08753409,12.0588485 3.96693806,12.0588485 C3.84634204,12.0588485 3.74877503,11.9690671 3.74877503,11.8586556 C3.74877503,11.7471321 3.84593916,11.6577213 3.96693806,11.6577213 Z" id="Stroke-13"></path>
                </g>
            </g>
        </g>
    </g>
</svg>