<?xml version="1.0" encoding="UTF-8" standalone="no"?>
<svg width="52px" height="51px" viewBox="0 0 52 51" version="1.1" xmlns="http://www.w3.org/2000/svg" xmlns:xlink="http://www.w3.org/1999/xlink">
    <!-- Generator: Sketch 39.1 (31720) - http://www.bohemiancoding.com/sketch -->
    <title>ico_TODOSmascotas_grey</title>
    <desc>Created with Sketch.</desc>
    <defs></defs>
    <g id="Supermercado_categoria" stroke="none" stroke-width="1" fill="none" fill-rule="evenodd">
        <g id="Subcategorias_mascotas" transform="translate(-15.000000, -14.000000)" fill="#D4D4D4">
            <g id="icon01" transform="translate(15.000000, 14.000000)">
                <g id="mascotas_lgreen" transform="translate(13.000000, 12.000000)">
                    <g id="iconos_web">
                        <g id="icons">
                            <path d="M13.3565714,20.445 C8.71371429,20.445 4.96971429,19.2075 4.24914286,17.445 C4.17881253,17.270833 4.20585669,17.0720145 4.32008808,16.9234375 C4.43431946,16.7748606 4.61838359,16.6990975 4.80294528,16.7246875 C4.98750697,16.7502776 5.14452689,16.873333 5.21485714,17.0475 C5.67542857,18.1875 8.92914286,19.41 13.3862857,19.41 C17.8434286,19.41 21.1045714,18.1725 21.5577143,17.0325 C21.6602815,16.7611902 21.961274,16.6251968 22.2299999,16.7287502 C22.4987258,16.8323036 22.6334242,17.1361902 22.5308571,17.4075 C21.7954286,19.185 18.044,20.445 13.3565714,20.445 L13.3565714,20.445 Z M13.2451429,17.6775 C9.82057143,17.6775 6.12857143,16.9275 6.12857143,15.2925 C6.12760736,15.1858313 6.14263458,15.0796294 6.17314286,14.9775 C6.28364979,14.2489513 6.79748161,13.6485742 7.49542857,13.4325 C7.64102544,13.160792 7.85012768,12.9290828 8.10457143,12.7575 C8.01488686,12.4873368 7.9844697,12.2007136 8.01542857,11.9175 C8.0581927,11.4047392 8.30539091,10.9315006 8.70035604,10.6062685 C9.09532118,10.2810364 9.60418103,10.1317026 10.1102857,10.1925 C11.1567441,10.9986065 12.2673789,11.7160468 13.4308571,12.3375 C14.4617094,11.9811044 15.4566628,11.5265589 16.4022857,10.98 C17.4520521,11.0005104 18.2900501,11.8699746 18.2817143,12.93 C18.4606416,13.0446157 18.6189083,13.1891862 18.7497143,13.3575 C19.5447505,13.5092351 20.1565586,14.1540441 20.2725714,14.9625 C20.3062324,15.0666595 20.3237721,15.1754395 20.3245714,15.285 C20.3691429,16.9275 16.6771429,17.67 13.2525714,17.67 L13.2451429,17.6775 Z M9.88742857,11.2275 C9.44790953,11.241488 9.08932781,11.5873556 9.05542857,12.03 C9.03039357,12.2648192 9.09406517,12.5005265 9.23371429,12.69 C9.33514351,12.8304563 9.36113866,13.0124935 9.30313805,13.1761565 C9.24513743,13.3398195 9.11066117,13.4638883 8.944,13.5075 C8.66586695,13.574746 8.44143856,13.7815061 8.34971429,14.055 C8.28299901,14.2435355 8.11588356,14.3773497 7.91885714,14.4 C7.52900929,14.4459877 7.22154974,14.7564036 7.176,15.15 C7.17999108,15.1873918 7.17999108,15.2251082 7.176,15.2625 C7.176,15.66 9.308,16.6125 13.2525714,16.6125 C17.1971429,16.6125 19.3291429,15.66 19.3291429,15.2775 C19.3255583,15.235077 19.3255583,15.192423 19.3291429,15.15 C19.27881,14.7358413 18.9397257,14.4188554 18.5268571,14.4 C18.3385263,14.3994883 18.1651889,14.2962072 18.0737143,14.13 C17.9734018,13.9484718 17.8089132,13.8118657 17.6131429,13.7475 C17.3629489,13.6620108 17.2159815,13.4007321 17.2714286,13.14 L17.2714286,13.02 C17.2984136,12.7785449 17.2250241,12.5366022 17.0687442,12.3518119 C16.9124644,12.1670215 16.6872867,12.0559287 16.4468571,12.045 C16.1194114,12.0532266 15.8278354,12.2563485 15.704,12.5625 C15.5953333,12.8092395 15.319002,12.9325135 15.0651429,12.8475 C14.9843014,12.8151703 14.8992097,12.7949562 14.8125714,12.7875 C14.4857436,12.7976354 14.1950979,13.0001092 14.0697143,13.305 C14.0116717,13.4332696 13.9049574,13.5325707 13.7736069,13.5805373 C13.6422564,13.6285039 13.4973151,13.6211024 13.3714286,13.56 C13.2758431,13.5148339 13.1723058,13.4893381 13.0668571,13.485 C12.8152392,13.4725377 12.6086586,13.2797713 12.5765714,13.0275 C12.5664651,12.7552591 12.4262158,12.5048735 12.200344,12.3558254 C11.9744722,12.2067772 11.6910326,12.1775793 11.44,12.2775 C11.2948789,12.3508404 11.1241643,12.3515712 10.9784324,12.279476 C10.8327005,12.2073807 10.7286632,12.070727 10.6971429,11.91 C10.6330666,11.5339796 10.3299728,11.246332 9.95428571,11.205 L9.86514286,11.205 L9.88742857,11.2275 Z" id="Shape"></path>
                            <path d="M13.3714286,26.49 C5.94285714,26.49 0.742857143,24.2775 0.742857143,21.12 C0.740443904,21.0900495 0.740443904,21.0599505 0.742857143,21.03 L0.742857143,20.82 C0.740443904,20.7900495 0.740443904,20.7599505 0.742857143,20.73 L2.77085714,15.225 C3.38,13.275 6.87885714,12.1725 7.97085714,11.8875 C8.15122243,11.8341488 8.34606578,11.8832131 8.48048883,12.0158324 C8.61491187,12.1484517 8.66799183,12.3439841 8.61932461,12.5272662 C8.5706574,12.7105483 8.42781798,12.8530526 8.24571429,12.9 C5.876,13.545 4.08571429,14.6175 3.78857143,15.57 L1.74571429,21.1725 C1.80514286,23.6175 6.76742857,25.4475 13.3342857,25.4475 C19.9011429,25.4475 24.804,23.6325 24.9228571,21.21 L22.9097143,15.6525 C22.5828571,14.3025 18.9725714,13.4025 17.784,13.1325 C17.5122967,13.0578451 17.3488157,12.7784035 17.4152149,12.5021274 C17.481614,12.2258513 17.7537658,12.053131 18.0291429,12.1125 C20.7108571,12.765 23.504,13.665 23.9051429,15.3525 L25.9331429,20.94 C25.9434066,20.9995526 25.9434066,21.0604474 25.9331429,21.12 C26,24.2775 20.8074286,26.49 13.3714286,26.49 L13.3714286,26.49 Z" id="Shape"></path>
                            <path d="M13.8245714,4.995 C13.0040341,4.995 12.3388571,4.32342712 12.3388571,3.495 C12.3388571,2.66657288 13.0040341,1.995 13.8245714,1.995 C14.6451088,1.995 15.3102857,2.66657288 15.3102857,3.495 C15.3102857,4.32342712 14.6451088,4.995 13.8245714,4.995 L13.8245714,4.995 Z M13.8245714,3.0225 C13.6382877,3.0225 13.4703466,3.13579361 13.3990589,3.3095522 C13.3277712,3.4833108 13.3671757,3.68331559 13.4988982,3.81630465 C13.6306208,3.94929372 13.8287207,3.98907715 14.0008245,3.91710398 C14.1729282,3.84513082 14.2851429,3.67557494 14.2851429,3.4875 C14.2851429,3.23068759 14.078938,3.0225 13.8245714,3.0225 L13.8245714,3.0225 Z" id="Shape"></path>
                            <path d="M19.8937143,3.0225 C19.0731769,3.0225 18.408,2.35092712 18.408,1.5225 C18.408,0.694072875 19.0731769,0.0225 19.8937143,0.0225 C20.7142516,0.0225 21.3794286,0.694072875 21.3794286,1.5225 C21.3794286,2.35092712 20.7142516,3.0225 19.8937143,3.0225 L19.8937143,3.0225 Z M19.8937143,1.05 C19.6393477,1.05 19.4331429,1.25818759 19.4331429,1.515 C19.4331429,1.77181241 19.6393477,1.98 19.8937143,1.98 C20.1480809,1.98 20.3542857,1.77181241 20.3542857,1.515 C20.3542857,1.25818759 20.1480809,1.05 19.8937143,1.05 L19.8937143,1.05 Z" id="Shape"></path>
                            <path d="M13.1188571,9.6825 C12.3557574,9.6825 11.7371429,9.05793723 11.7371429,8.2875 C11.7371429,7.51706277 12.3557574,6.8925 13.1188571,6.8925 C13.8819569,6.8925 14.5005714,7.51706277 14.5005714,8.2875 C14.5005714,9.05793723 13.8819569,9.6825 13.1188571,9.6825 L13.1188571,9.6825 Z M13.1188571,7.9425 C12.9301336,7.9425 12.7771429,8.09696176 12.7771429,8.2875 C12.7771429,8.47803824 12.9301336,8.6325 13.1188571,8.6325 C13.3075807,8.6325 13.4605714,8.47803824 13.4605714,8.2875 C13.4625699,8.19470784 13.4274522,8.10501658 13.3631504,8.03868524 C13.2988487,7.9723539 13.2107873,7.93497807 13.1188571,7.935 L13.1188571,7.9425 Z" id="Shape"></path>
                            <path d="M15.4291429,7.2225 C14.7891237,7.2225 14.2702857,6.69867316 14.2702857,6.0525 C14.2702857,5.40632684 14.7891237,4.8825 15.4291429,4.8825 C16.069162,4.8825 16.588,5.40632684 16.588,6.0525 C16.583947,6.69697059 16.0674756,7.218408 15.4291429,7.2225 L15.4291429,7.2225 Z M15.4291429,5.925 C15.3634999,5.925 15.3102857,5.97872583 15.3102857,6.045 C15.3102857,6.18 15.5554286,6.18 15.5554286,6.045 C15.5554928,6.01183091 15.5419559,5.98011435 15.5180321,5.95738138 C15.4941084,5.93464841 15.4619319,5.92292686 15.4291429,5.925 L15.4291429,5.925 Z" id="Shape"></path>
                            <path d="M18.0811429,10.7175 C17.4510999,10.6981787 16.901711,10.2795712 16.7105247,9.6731561 C16.5193384,9.06674095 16.7279747,8.40453064 17.2310316,8.02107069 C17.7340885,7.63761073 18.4220538,7.61637779 18.9473708,7.96809864 C19.4726877,8.3198195 19.7209983,8.96792688 19.5668571,9.585 L19.5668571,9.585 C19.396301,10.2677872 18.7782811,10.7388789 18.0811429,10.7175 L18.0811429,10.7175 Z M18.0811429,8.745 C17.8402588,8.7404669 17.6366176,8.92413231 17.6140188,9.16630237 C17.59142,9.40847243 17.7575009,9.62730618 17.9949847,9.66827594 C18.2324686,9.70924569 18.4610982,9.55850579 18.5194286,9.3225 L18.5194286,9.3225 C18.5509803,9.20410599 18.5341438,9.0778802 18.472695,8.97213067 C18.4112461,8.86638115 18.3103274,8.7899579 18.1925714,8.76 L18.0811429,8.745 Z" id="Shape"></path>
                            <path d="M16.952,4.2075 C16.3489051,4.2075 15.86,3.71389394 15.86,3.105 C15.86,2.49610606 16.3489051,2.0025 16.952,2.0025 C17.5550949,2.0025 18.044,2.49610606 18.044,3.105 C18.03995,3.71219216 17.5534094,4.20341103 16.952,4.2075 L16.952,4.2075 Z M16.952,3.045 C16.9232812,3.045 16.9,3.06850505 16.9,3.0975 C16.9,3.1575 17.0114286,3.1575 17.0114286,3.0975 C16.9989754,3.07724861 16.9745717,3.06800923 16.952,3.075 L16.952,3.045 Z" id="Shape"></path>
                        </g>
                    </g>
                </g>
            </g>
        </g>
    </g>
</svg>