<?xml version="1.0" encoding="UTF-8" standalone="no"?>
<svg width="52px" height="51px" viewBox="0 0 52 51" version="1.1" xmlns="http://www.w3.org/2000/svg" xmlns:xlink="http://www.w3.org/1999/xlink">
    <!-- Generator: Sketch 39.1 (31720) - http://www.bohemiancoding.com/sketch -->
    <title>ico_alimentos_green</title>
    <desc>Created with Sketch.</desc>
    <defs></defs>
    <g id="supermercado_categoria" stroke="none" stroke-width="1" fill="none" fill-rule="evenodd">
        <g id="Subcategorias_mascotas" transform="translate(-77.000000, -75.000000)" fill="#44D481">
            <g id="icon01-copy-6" transform="translate(77.000000, 75.000000)">
                <g id="alimentos_mascotas_blue" transform="translate(13.000000, 14.000000)">
                    <path d="M24.8647579,23.8463314 L0.478810526,23.8463314 C0.214705263,23.8463314 -0.000136842105,23.6317029 -0.000136842105,23.3663314 C-0.000136842105,23.10096 0.214705263,22.8863314 0.478810526,22.8863314 L24.8647579,22.8863314 C25.1295474,22.8863314 25.3437053,23.10096 25.3437053,23.3663314 C25.3437053,23.6317029 25.1295474,23.8463314 24.8647579,23.8463314" id="Fill-1"></path>
                    <path d="M3.29139474,22.5887314 C3.06834211,22.5887314 2.86786842,22.4310171 2.82202632,22.2026743 C2.23223684,19.24656 0.503921053,8.99033143 3.03481579,1.11627429 C3.0875,0.951017143 3.22639474,0.826902857 3.39607895,0.792617143 C3.68960526,0.734331429 10.5973947,-0.629554286 13.8090789,0.497074286 C14.0581316,0.584845714 14.1901842,0.858445714 14.1032895,1.10873143 C14.0150263,1.35901714 13.7413421,1.48998857 13.4922895,1.40290286 C10.8656053,0.482674286 5.18118421,1.44061714 3.86134211,1.68198857 C1.52613158,9.30027429 3.19013158,19.1498743 3.76144737,22.0147886 C3.81413158,22.2746743 3.64581579,22.5270171 3.3865,22.5791314 C3.35434211,22.5859886 3.32286842,22.5887314 3.29139474,22.5887314" id="Fill-4"></path>
                    <path d="M21.9508421,13.7173029 C21.6860526,13.7173029 21.4718947,13.5026743 21.4718947,13.2373029 C21.4698421,5.94747429 20.1554737,2.01833143 19.747,0.973302857 C16.8644211,1.20301714 10.1721579,4.32918857 10.1030526,4.36141714 C9.86426316,4.47318857 9.57826316,4.37033143 9.46605263,4.13033143 C9.35384211,3.89033143 9.45715789,3.60438857 9.69663158,3.49193143 C10.0004211,3.34930286 17.173,0.000274285714 20.0596842,0.000274285714 C20.2444211,0.000274285714 20.4127368,0.10656 20.4921053,0.273188571 C20.5707895,0.439131429 22.4270526,4.43341714 22.4297895,13.2373029 C22.4297895,13.5019886 22.2156316,13.7173029 21.9508421,13.7173029" id="Fill-6"></path>
                    <path d="M11.9836737,18.10848 C9.09356842,18.10848 6.74330526,15.7523657 6.74330526,12.8565943 C6.74330526,9.96082286 9.09356842,7.60539429 11.9836737,7.60539429 C14.5296211,7.60539429 16.6999368,9.42596571 17.1433053,11.9343086 C17.1768316,12.1208229 17.0523053,12.2991086 16.8662,12.3320229 C16.6828316,12.3642514 16.5022,12.2408229 16.4700421,12.0543086 C16.0834632,9.87373714 14.1970947,8.29110857 11.9836737,8.29110857 C9.47125263,8.29110857 7.42751579,10.3393371 7.42751579,12.8565943 C7.42751579,15.3745371 9.47125263,17.4227657 11.9836737,17.4227657 C12.1944105,17.4227657 12.4065158,17.4083657 12.6152,17.3795657 C12.7965158,17.3507657 12.9744105,17.4831086 13.0004105,17.67168 C13.0264105,17.8595657 12.8957263,18.0323657 12.7089368,18.0584229 C12.4694632,18.0920229 12.2258842,18.10848 11.9836737,18.10848" id="Fill-8"></path>
                    <path d="M12.1667684,22.8234514 L23.1866632,22.8234514 C23.0546105,22.4133943 22.9273474,22.0115657 22.8021368,21.6193371 C21.3030316,16.9091657 20.3122947,13.79808 17.6582421,13.79808 C15.3168737,13.79808 14.2419789,16.9002514 12.9974,20.4920229 C12.7326105,21.2552229 12.4609789,22.0389943 12.1667684,22.8234514 L12.1667684,22.8234514 Z M24.5071895,23.7834514 L10.7661895,23.7834514 L11.0241368,23.1279086 C11.4107158,22.1445943 11.7569263,21.1441371 12.0921895,20.17728 C13.4571895,16.2385371 14.6354,12.8373943 17.6582421,12.8373943 C21.0122421,12.8373943 22.1459789,16.3989943 23.7148737,21.3272229 C23.9016632,21.9162514 24.0966632,22.5258514 24.3012421,23.1539657 L24.5071895,23.7834514 Z" id="Fill-10"></path>
                    <path d="M20.8188842,20.1971657 C20.9598316,20.1567086 21.1096737,20.2287086 21.1534632,20.3576229 C21.1979368,20.4872229 21.1199368,20.6243657 20.9789895,20.6655086 C20.8380421,20.7059657 20.6882,20.6339657 20.6444105,20.5043657 C20.5999368,20.3754514 20.6779368,20.2376229 20.8188842,20.1971657" id="Fill-12"></path>
                    <path d="M19.4861789,19.8338057 C19.6332842,19.7912914 19.7899684,19.86672 19.8358105,20.0018057 C19.8823368,20.1368914 19.8002316,20.2808914 19.6538105,20.3234057 C19.5067053,20.3652343 19.3500211,20.2904914 19.3034947,20.1554057 C19.2576526,20.02032 19.3390737,19.87632 19.4861789,19.8338057" id="Fill-14"></path>
                    <path d="M19.8711842,21.2945829 C20.0470263,21.24384 20.2345,21.3336686 20.2899211,21.4954971 C20.3446579,21.65664 20.2468158,21.8287543 20.0709737,21.8794971 C19.8951316,21.93024 19.7083421,21.8404114 19.6529211,21.6792686 C19.5975,21.51744 19.6953421,21.3453257 19.8711842,21.2945829" id="Fill-16"></path>
                    <path d="M15.0464737,11.7898286 C14.976,11.6012571 14.8583158,11.4648 14.7043684,11.3955429 C14.6345789,11.364 14.5606842,11.3475429 14.4854211,11.3475429 C14.1638421,11.3475429 13.8374737,11.6478857 13.6732632,12.0942857 C13.4693684,12.6476571 13.5877368,13.1893714 13.9483158,13.3546286 C14.0208421,13.3882286 14.0988421,13.4046857 14.1795789,13.4046857 C14.5066316,13.4046857 14.8391579,13.1297143 15.0067895,12.7203429 C15.1333684,12.4104 15.1484211,12.0627429 15.0464737,11.7898286" id="Fill-18"></path>
                    <path d="M10.3959632,12.0944914 C10.2317526,11.6480914 9.90538421,11.3477486 9.58380526,11.3477486 C9.50854211,11.3477486 9.43464737,11.3642057 9.36485789,11.3957486 C9.21091053,11.4650057 9.09322632,11.6014629 9.02275263,11.7900343 C8.92080526,12.0629486 8.93585789,12.4106057 9.06243684,12.7205486 C9.23006842,13.12992 9.56259474,13.4048914 9.88964737,13.4048914 C9.97038421,13.4048914 10.0483842,13.3877486 10.1209105,13.3548343 C10.4814895,13.1895771 10.5998579,12.6478629 10.3959632,12.0944914" id="Fill-20"></path>
                    <path d="M11.1101421,12.0325714 C11.1395632,12.0339429 11.1696684,12.0332571 11.1990895,12.0298286 C11.3721947,12.0133714 11.5288789,11.9242286 11.6513526,11.7726857 C11.8497737,11.5285714 11.9051947,11.1466286 11.8634579,10.7537143 C11.7991421,10.1475429 11.4809842,9.69497143 11.0526684,9.67645714 C11.0526684,9.67645714 10.9917737,9.67645714 10.9609842,9.67988571 C10.7721421,9.6984 10.6004053,9.79645714 10.4642474,9.96377143 C10.2671947,10.2065143 10.1727737,10.5678857 10.2110895,10.9299429 C10.2740368,11.5292571 10.6688263,12.0133714 11.1101421,12.0325714" id="Fill-22"></path>
                    <path d="M12.0346474,12.5050286 C11.0083316,12.5050286 9.98201579,13.7276571 9.98201579,14.9016 C9.98201579,15.252 10.1571737,15.5338286 10.3295947,15.6490286 C10.5423842,15.7916571 10.6922263,15.8478857 11.0035421,15.8478857 C11.3737,15.8478857 11.4735947,15.7176 11.6473842,15.6030857 C11.7725947,15.5208 11.8807,15.4488 12.0346474,15.4488 C12.1885947,15.4488 12.2967,15.5208 12.4219105,15.6030857 C12.5957,15.7176 12.6955947,15.8478857 13.0657526,15.8478857 C13.3770684,15.8478857 13.5269105,15.7916571 13.7397,15.6490286 C13.9121211,15.5338286 14.0872789,15.252 14.0872789,14.9016 C14.0872789,13.7276571 13.0609632,12.5050286 12.0346474,12.5050286" id="Fill-24"></path>
                    <path d="M12.8729421,12.0271543 C12.9023632,12.0298971 12.9324684,12.0305829 12.9618895,12.0298971 C13.4032053,12.0106971 13.7979947,11.5258971 13.8616263,10.9272686 C13.8999421,10.5652114 13.8048368,10.20384 13.6077842,9.96109714 C13.4723105,9.79378286 13.3067316,9.70052571 13.1178895,9.68132571 C13.0871,9.67858286 13.0193632,9.67652571 13.0193632,9.67652571 C12.5910474,9.69504 12.2728895,10.1441829 12.2092579,10.7503543 C12.1675211,11.1432686 12.2222579,11.5258971 12.4206789,11.7700114 C12.5438368,11.9208686 12.6998368,12.0100114 12.8729421,12.0271543" id="Fill-26"></path>
                </g>
            </g>
        </g>
    </g>
</svg>