<?xml version="1.0" encoding="UTF-8" standalone="no"?>
<svg width="52px" height="51px" viewBox="0 0 52 51" version="1.1" xmlns="http://www.w3.org/2000/svg" xmlns:xlink="http://www.w3.org/1999/xlink">
    <!-- Generator: Sketch 39.1 (31720) - http://www.bohemiancoding.com/sketch -->
    <title>ico_TODOSfrutasyverduras_green</title>
    <desc>Created with Sketch.</desc>
    <defs></defs>
    <g id="supermercado_categoria" stroke="none" stroke-width="1" fill="none" fill-rule="evenodd">
        <g id="Subcategorias_Frutas-y-verduras" transform="translate(-14.000000, -84.000000)" fill="#44D481">
            <g id="icon01-copy-4" transform="translate(14.000000, 84.000000)">
                <g id="que_quieras_frutasyverduras_dgreen" transform="translate(14.000000, 11.000000)">
                    <path d="M15.9499325,15.9719422 C15.7938398,16.0255499 15.653559,16.08853 15.4613604,16.1859257 C15.385824,16.2244389 15.385824,16.2244389 15.3167142,16.2595833 C15.059639,16.3892999 14.9144345,16.4380156 14.7010097,16.4526242 L14.7232031,16.9928743 L14.7686186,16.4547396 C14.527411,16.4379362 14.38147,16.3889091 14.1220629,16.2580071 C14.0543208,16.2235676 14.0543208,16.2235676 13.9804712,16.1859259 C13.7880187,16.0884013 13.6484881,16.0256639 13.4811382,15.9678526 C12.9579001,15.7732818 12.3301543,15.6590743 11.7294531,15.6590743 C10.5772411,15.6620225 9.61744936,16.0536897 9.10840732,16.8547473 C8.5727389,17.677474 8.30523437,18.6841983 8.30523437,19.7592171 C8.30523437,20.3082047 8.37486642,20.8599505 8.51072377,21.3948608 C8.75949932,22.3855417 9.20317165,23.3674275 9.79361577,24.249029 C10.8657807,25.8476293 12.6653896,26.6947679 14.7194638,26.7028414 C16.7768298,26.6947685 18.5750912,25.8477271 19.6471249,24.2493227 C20.2396992,23.362011 20.6843471,22.3803157 20.9314483,21.3930631 C21.0660108,20.8665888 21.1341406,20.3148628 21.1341406,19.7592171 C21.1341406,18.6874502 20.86643,17.6799502 20.3301581,16.8510479 C19.8191975,16.055139 18.8595154,15.6620129 17.7144673,15.6590761 C17.1134949,15.6590743 16.486882,15.7731175 15.9499325,15.9719422 Z M19.4074086,17.4308785 C19.8262308,18.0782479 20.0403906,18.8842151 20.0403906,19.7592171 C20.0403906,20.2265634 19.9832213,20.6895296 19.8702967,21.131368 C19.6531522,21.9989067 19.2595989,22.8677949 18.7346261,23.653883 C17.8771815,24.9323326 16.425461,25.6161416 14.7194628,25.62285 C13.0166783,25.6161401 11.563625,24.9321373 10.7057187,23.6529973 C10.1830839,22.8726428 9.79053398,22.0038953 9.57197225,21.1335398 C9.45748339,20.6827556 9.39898437,20.2192249 9.39898437,19.7592171 C9.39898437,18.8815868 9.61269972,18.0772923 10.0316601,17.4337691 C10.3147105,16.9884059 10.9206256,16.741147 11.7308711,16.7390725 C12.1977396,16.7390743 12.6950696,16.8295549 13.1079481,16.9829633 C13.2305276,17.0254647 13.329483,17.0699581 13.4810842,17.1467815 C13.5505045,17.1821708 13.5505045,17.1821708 13.6243367,17.2197025 C14.0035294,17.4110507 14.2788057,17.5035265 14.666683,17.530042 L14.7776192,17.5301944 C15.1628712,17.5036023 15.4375748,17.4114398 15.8144139,17.2212922 C15.8898822,17.1829185 15.8898822,17.1829185 15.960747,17.1467816 C16.1118287,17.0702216 16.211119,17.0256445 16.3220625,16.9874336 C16.7491051,16.8294606 17.2457344,16.7390743 17.7130469,16.7390743 C18.5171717,16.7411385 19.1242583,16.9898267 19.4074086,17.4308785 Z" id="Stroke-1"></path>
                    <path d="M12.0255926,14.3911911 C11.5155439,13.5919009 10.5543999,13.1993313 9.40696259,13.1973694 C8.80452719,13.1973686 8.17737745,13.3106849 7.6438856,13.5089081 C7.48900396,13.5625761 7.34990853,13.6251339 7.16015912,13.721263 C7.08441901,13.7598725 7.08441901,13.7598725 7.01509449,13.795133 C6.75522619,13.9263012 6.60834607,13.9756521 6.39053928,13.9909945 C6.22137374,13.9757912 6.07542106,13.9266809 5.8181613,13.7967294 C5.74759964,13.7608002 5.74759964,13.7608002 5.67036716,13.7213774 C5.48104015,13.6253528 5.34184275,13.5626853 5.1760247,13.504998 C4.64910906,13.3104516 4.02256176,13.1973686 3.42242188,13.1973686 C2.27326306,13.1993292 1.31387122,13.5915931 0.803487491,14.3914082 C0.26867395,15.2201804 -0.000234375,16.2279989 -0.000234375,17.2975114 C-0.000234375,17.8392984 0.0704371096,18.3933206 0.205691985,18.931792 C0.451738579,19.9213695 0.896360686,20.9046765 1.488541,21.7863679 C2.55979996,23.3836173 4.35951667,24.2320309 6.41038041,24.241905 C7.14435621,24.2402218 7.85443876,24.1285201 8.51900686,23.9083873 L8.17114939,22.8844642 C7.61969645,23.0671285 7.02618862,23.1604921 6.41176614,23.1619129 C4.7114791,23.1537127 3.25786748,22.4684582 2.40024993,21.1897487 C1.87620746,20.4095069 1.48327419,19.5405127 1.26758693,18.6730433 C1.15306592,18.2171105 1.09351563,17.7502718 1.09351563,17.2975114 C1.09351563,16.4248114 1.30872997,15.6182279 1.7273774,14.9694621 C2.01016472,14.5263231 2.61568325,14.2787464 3.42336721,14.2773678 C3.89108522,14.2773686 4.38801178,14.3670569 4.80285117,14.5201417 C4.92266196,14.5619255 5.02158173,14.6064598 5.17063439,14.6820578 C5.2429679,14.7189858 5.2429679,14.7189858 5.32003047,14.7582205 C5.69640818,14.948343 5.9712557,15.040824 6.35742859,15.0682358 L6.41773438,15.0696257 C6.85795246,15.0408142 7.13384509,14.948116 7.51292156,14.7567776 C7.58846501,14.7183583 7.58846501,14.7183583 7.65944034,14.6821722 C7.80890131,14.6064537 7.90775185,14.5619959 8.01797013,14.523709 C8.43979166,14.3671126 8.93648076,14.2773686 9.40601563,14.2773686 C10.2120415,14.2787476 10.8193584,14.5268 11.1003625,14.9671575 C11.1792131,15.0905932 11.2520398,15.2224855 11.3268401,15.375428 L12.3117536,14.9057663 C12.2200283,14.7182178 12.1278073,14.5512015 12.0255926,14.3911911 Z" id="Stroke-3"></path>
                    <path d="M15.5352344,2.05238571 C15.8372651,2.05238571 16.0821094,1.81061948 16.0821094,1.51238571 C16.0821094,1.21415195 15.8372651,0.972385714 15.5352344,0.972385714 C10.4719356,0.972385714 5.75789062,7.15014974 5.75789062,13.7981571 C5.75789062,14.0963909 6.0027349,14.3381571 6.30476562,14.3381571 C6.60679635,14.3381571 6.85164062,14.0963909 6.85164062,13.7981571 C6.85164062,7.69081951 11.1541408,2.05238571 15.5352344,2.05238571 Z" id="Stroke-5"></path>
                    <path d="M15.0500417,12.7940571 C14.9336886,11.9163661 14.7959839,11.0561935 14.5768103,9.79030011 C13.9390924,6.10699571 13.8236516,5.30144817 13.8492961,4.13202731 C13.8793244,2.76269836 14.2315564,2.22611143 15.0678906,2.22611143 C15.3699213,2.22611143 15.6147656,1.98434519 15.6147656,1.68611143 C15.6147656,1.38787766 15.3699213,1.14611143 15.0678906,1.14611143 C13.5055784,1.14611143 12.7971005,2.22539985 12.7558024,4.10864698 C12.7279022,5.38092926 12.8438631,6.19010533 13.4987021,9.97229732 C13.7156594,11.2253899 13.851465,12.0736998 13.9655437,12.934234 C14.1381982,14.2366258 14.2280469,15.3661155 14.2280469,16.3941686 C14.2280469,16.6924023 14.4728912,16.9341686 14.7749219,16.9341686 C15.0769526,16.9341686 15.3217969,16.6924023 15.3217969,16.3941686 C15.3217969,15.3136263 15.2283885,14.1393878 15.0500417,12.7940571 Z" id="Stroke-7"></path>
                    <path d="M13.7760885,24.1190434 C14.0528465,24.2384676 14.3752481,24.1137439 14.4961927,23.8404652 C14.6171373,23.5671865 14.4908257,23.2488379 14.2140677,23.1294137 C13.1793351,22.6829149 12.356349,20.3710047 13.2277005,19.456769 C13.4346941,19.2395881 13.4241941,18.8978363 13.2042481,18.6934449 C12.9843022,18.4890535 12.6381993,18.4994215 12.4312058,18.7166024 C10.9830472,20.2360332 12.109272,23.3997933 13.7760885,24.1190434 Z" id="Stroke-9"></path>
                    <path d="M5.01192305,21.6965389 C5.28842916,21.8165305 5.61109247,21.6924683 5.73261172,21.4194383 C5.85413098,21.1464082 5.72848931,20.8278013 5.4519832,20.7078097 C4.41616113,20.2583081 3.59365854,17.9480032 4.46524633,17.0340591 C4.67230467,16.8169384 4.66190664,16.4751835 4.44202167,16.2707282 C4.22213671,16.0662729 3.87603077,16.0765402 3.66897242,16.2936609 C2.22042518,17.8126028 3.34574822,20.9734917 5.01192305,21.6965389 Z" id="Stroke-11"></path>
                    <path d="M23.4316987,6.17982048 C22.3488056,6.31968624 21.1659089,6.28287249 20.069567,5.94925996 C19.6333294,5.81651457 19.2274164,5.63972504 18.8565667,5.41561482 C18.1844659,5.01058528 17.6040156,4.43688519 17.1110683,3.7349548 C16.7403361,3.20705215 16.4405522,2.63827068 16.2072037,2.06948355 C16.0681137,1.73045184 15.9832207,1.47069955 15.9463459,1.33115325 L15.5353579,1.99473107 C15.6093799,1.9785551 15.7587263,1.95211974 15.9698324,1.92504236 C17.0497774,1.7865239 18.2290154,1.82230645 19.3218877,2.15079221 C19.7625605,2.2832457 20.172142,2.4602976 20.5457067,2.68527689 C21.2174899,3.09011458 21.7982455,3.66464565 22.2913903,4.36783572 C22.6618043,4.89602035 22.9613406,5.46511256 23.1945033,6.03421398 C23.3334863,6.37344245 23.418319,6.63335402 23.455173,6.7730019 L23.8653787,6.10977007 C23.7915675,6.12601831 23.6424993,6.1525936 23.4316987,6.17982048 Z M24.513577,6.50066095 C24.4654392,6.31825623 24.3663206,6.01457573 24.2084252,5.62918582 C23.9467904,4.99058995 23.6106666,4.35198487 23.1905903,3.75298536 C22.6158265,2.93341221 21.9282212,2.25317664 21.1153623,1.76332232 C20.6600756,1.48912597 20.1662395,1.27565285 19.6403935,1.11759879 C18.3764646,0.737698359 17.0498328,0.697443319 15.8289408,0.854040244 C15.5842659,0.885423314 15.4033402,0.917448412 15.2990171,0.940246071 C14.9962854,1.00640181 14.8097482,1.30758328 14.8880291,1.6038239 C14.936215,1.78617518 15.0354281,2.08974368 15.1934744,2.47498156 C15.4553529,3.1133104 15.7917957,3.75164491 16.2122743,4.35038383 C16.7868014,5.16847942 17.4739916,5.84767811 18.2862002,6.33714053 C18.7372856,6.60973888 19.2267213,6.82290556 19.7474543,6.98136255 C21.0164189,7.36750348 22.3482855,7.40895342 23.5735568,7.25069818 C23.8181698,7.21910413 23.9990444,7.1868585 24.1033713,7.16389278 C24.4056078,7.09736079 24.5916621,6.79654294 24.513577,6.50066095 Z" id="Stroke-13"></path>
                </g>
            </g>
        </g>
    </g>
</svg>