<?xml version="1.0" encoding="UTF-8" standalone="no"?>
<svg width="52px" height="51px" viewBox="0 0 52 51" version="1.1" xmlns="http://www.w3.org/2000/svg" xmlns:xlink="http://www.w3.org/1999/xlink">
    <!-- Generator: Sketch 39.1 (31720) - http://www.bohemiancoding.com/sketch -->
    <title>ico_verduras_grey</title>
    <desc>Created with Sketch.</desc>
    <defs></defs>
    <g id="supermercado_categoria" stroke="none" stroke-width="1" fill="none" fill-rule="evenodd">
        <g id="Subcategorias_Frutas-y-verduras" transform="translate(-138.000000, -14.000000)" fill="#D4D4D4">
            <g id="icon01-copy-2" transform="translate(138.000000, 14.000000)">
                <g id="mexicano_blue" transform="translate(16.000000, 10.000000)">
                    <path d="M15.7241795,20.4027621 C15.1848148,21.0684908 14.3935246,21.8049093 13.3505741,22.6083218 C12.55375,23.2256524 11.7312468,23.855339 10.6641536,24.6667464 C10.3666091,24.9160748 9.30742953,25.80647 9.05979994,26.0145993 C8.0942846,26.8261018 7.38191296,27.4242159 6.6808778,28.0116627 C4.84041435,29.4899058 3.50488607,30.3979431 2.71085693,30.7206133 C2.41518285,30.840603 2.2329616,30.8605538 2.1721107,30.8318948 C2.09009871,30.793911 1.9653838,30.6279391 1.8366529,30.3169352 C1.88514444,30.4330771 1.87732833,30.5036277 1.8567644,30.5636927 C1.86008044,30.5540069 1.87330138,30.5260148 1.89578717,30.4855319 C1.95527277,30.3784354 2.05835533,30.2211848 2.20307829,30.0183567 C2.63342672,29.4170162 3.07872393,28.6140523 3.54638276,27.6014685 C4.22639258,26.111063 4.61892908,25.2564389 4.66724995,25.1600937 C5.3298019,23.8764024 5.84822733,22.6087108 6.21737263,21.3635352 C6.61656254,19.8161427 6.9897183,18.377369 7.35314274,16.9864544 C7.92575376,15.2358033 8.64941461,14.1955867 9.46510768,13.8642674 C9.89674776,13.6889967 10.5784297,13.8445265 11.5059214,14.3951555 C12.2115512,14.8114535 12.8926947,15.3433463 13.548957,15.9913003 C14.0959086,16.442003 14.5968421,16.8517565 15.0874914,17.252461 C15.6602922,17.7281897 16.0183634,18.1525174 16.1660934,18.5086093 C16.4094763,19.096447 16.2778996,19.7086657 15.7241795,20.4027621 Z M15.7029093,16.5195834 C15.2095868,16.1166747 14.7090205,15.7072216 14.1954733,15.2865438 C13.5176816,14.6144371 12.7742967,14.0339411 11.9996627,13.5769353 C10.8391827,12.8879847 9.8744037,12.6678647 9.09991505,12.9823516 C7.96373269,13.4438477 7.08852521,14.7019029 6.42933927,16.7204056 C6.0576317,18.1396446 5.68421801,19.5794128 5.28931639,21.1113921 C4.94216846,22.281294 4.44623556,23.4939853 3.80771581,24.7311811 C3.74837968,24.8494183 3.36515873,25.6837607 2.67017809,27.2069909 C2.22650024,28.1676385 1.80881088,28.9208197 1.41741103,29.4677368 C0.93536648,30.1433176 0.813925892,30.3619564 0.94662732,30.6798047 C1.15776276,31.1898974 1.41652799,31.5342648 1.76160147,31.6940375 C2.11854721,31.8621599 2.55367015,31.8145199 3.07603019,31.602537 C3.98318229,31.2338969 5.3768436,30.2863345 7.29489649,28.7456342 C8.00406228,28.1515089 8.716759,27.5531219 9.68260506,26.7413415 C9.93028207,26.5331723 10.9894559,25.6427819 11.2686357,25.4081407 C12.319522,24.6097756 13.1441359,23.9784732 13.9425776,23.359887 C15.0391947,22.515136 15.883054,21.7297937 16.4771669,20.9964666 C17.2348005,20.0467833 17.4427005,19.0794367 17.0565108,18.1466811 C16.8396274,17.6239001 16.3875552,17.0881776 15.7029093,16.5195834 Z" id="Stroke-1"></path>
                    <path d="M12.3185454,12.523232 C12.4977916,12.4509808 12.8174409,12.436536 13.2654989,12.5003396 C13.8712479,12.5849213 14.298517,12.5812875 14.5969992,12.4613956 C15.2092125,12.2123461 15.9193102,11.6663621 16.7484792,10.8230382 C17.4943262,10.0644588 18.061841,9.60963614 18.4145145,9.46624873 C19.3082144,9.10373056 19.9821533,9.14760113 20.5021876,9.56309846 L20.350946,9.35188473 C20.4502334,9.62833165 20.5329356,10.1863732 20.5201378,10.6033063 C20.5136371,10.8150919 20.4834526,10.9745874 20.4447546,11.0485448 C20.4515848,11.0354915 20.5298822,10.9931423 20.5782557,11.0038806 C20.4664225,10.9791769 20.3802095,10.9323627 20.2495221,10.8314839 C20.246143,10.8288755 20.1145446,10.7248486 20.0715495,10.6929345 C19.7154374,10.4286017 19.362482,10.3563608 18.9082696,10.5403126 C18.4034338,10.7459376 17.8653337,11.2245541 17.0882506,12.1136152 C16.20437,13.0992924 15.8303243,13.80335 16.0670191,14.3751577 C16.1449062,14.5626025 16.2790628,14.8027708 16.4686067,15.0977449 C16.6325198,15.3550857 16.741119,15.5492246 16.7918891,15.6714082 C16.8230994,15.7469338 16.8297551,15.7747927 16.833898,15.740763 C16.8459041,15.6421462 16.8988934,15.5731608 16.9381138,15.5462176 C16.9413301,15.5440081 16.8330057,15.6119752 16.7829298,15.6479277 C16.6835248,15.7192966 16.5948632,15.8011446 16.5120693,15.9043931 C16.4818623,15.942063 16.4529807,15.9820069 16.4254064,16.0243806 C16.2814292,16.2456329 16.3458246,16.540581 16.5692375,16.6831658 C16.7926504,16.8257505 17.0904789,16.761978 17.2344561,16.5407257 C17.2449402,16.5246145 17.2553732,16.5101855 17.2658075,16.4971734 C17.2912937,16.4653906 17.3162367,16.4423645 17.3478715,16.419652 C17.3676946,16.4054198 17.4644929,16.3446846 17.4867114,16.3294211 C17.8301846,16.0934651 17.8702597,15.7642938 17.6823248,15.309525 C17.6056399,15.1249723 17.4736607,14.8890381 17.2816521,14.5875961 C17.1188622,14.3342504 17.0094081,14.1383045 16.9573484,14.0130173 C16.9220065,13.9276372 17.1737953,13.4537008 17.8119683,12.7419879 C18.4984344,11.95666 18.9521446,11.5531047 19.2734866,11.422218 C19.3845676,11.3772323 19.3901668,11.3783783 19.4942848,11.4556624 C19.5233162,11.4772117 19.6442422,11.5728021 19.6578146,11.5832788 C19.891029,11.7632992 20.0940382,11.8735345 20.3682245,11.9341009 C21.1365596,12.1046607 21.4557212,11.4946965 21.4821934,10.6322682 C21.4985361,10.0998483 21.3983454,9.42380145 21.2577915,9.0324557 C21.2280255,8.94957804 21.1756796,8.87647533 21.1065499,8.82124197 C20.2878119,8.16708624 19.2452492,8.09921983 18.0493329,8.58432852 C17.5405676,8.79117844 16.8909341,9.31181333 16.0588833,10.1580681 C15.313514,10.9161618 14.6968655,11.3902939 14.2332566,11.5788948 C14.1395749,11.6165191 13.8476126,11.6190021 13.4011817,11.5566676 C12.8006106,11.4711443 12.3218372,11.4927798 11.9542494,11.6409539 C11.7288566,11.7326446 11.5260532,11.8684411 11.3435168,12.0465142 C11.1541692,12.2312318 11.1518782,12.532987 11.3383997,12.7205033 C11.5249212,12.9080196 11.8296232,12.9102885 12.0189707,12.7255709 C12.1148702,12.6320163 12.2135305,12.5659537 12.3185454,12.523232 Z" id="Stroke-3"></path>
                    <path d="M8.71408638,16.4608081 C8.36839401,17.0721214 8.09531954,17.8467358 7.68653361,19.2474791 C7.63774712,19.4146506 7.45631586,20.0429011 7.41512097,20.1843203 C6.8569598,22.100449 6.47142487,23.1059342 5.96836901,23.7538938 C5.80636477,23.9625628 5.84584603,24.2617828 6.05655287,24.4222202 C6.26725972,24.5826577 6.56940175,24.5435583 6.73140599,24.3348892 C7.33644298,23.5555732 7.74592037,22.4876454 8.33990935,20.4485223 C8.3815366,20.3056189 8.56288055,19.6776707 8.6111905,19.5121321 C8.99904812,18.1831017 9.25686966,17.4517543 9.55386541,16.9265549 C9.852588,16.3983017 10.0724763,16.2645524 10.3304008,16.3686416 C10.5765356,16.467973 10.8573777,16.3508949 10.9576791,16.1071404 C11.0579805,15.863386 10.9397591,15.58526 10.6936242,15.4859286 C9.88553641,15.1598128 9.22132029,15.5638291 8.71408638,16.4608081 Z" id="Stroke-5"></path>
                    <path d="M2.81043401,21.7774049 C2.86028124,20.3389517 2.78626972,18.9727956 2.58705296,17.6883259 C2.20806141,15.7132844 1.97943214,14.5162659 1.74020242,13.2476561 C1.50834765,11.4216322 1.71777707,10.1756662 2.31454799,9.53228535 C2.63006424,9.19256515 3.31459929,9.046774 4.38960541,9.15565452 C5.20738188,9.23625307 6.05224083,9.43170291 6.92367651,9.74267319 C7.28156673,9.83617561 7.28156673,9.83617561 7.59657351,9.91662739 C7.75410289,9.95685749 7.75410289,9.95685749 7.91166058,9.99708373 C8.2872373,10.0929614 8.57623634,10.1666108 8.85716439,10.237986 C9.58046294,10.4280676 10.0863429,10.6615915 10.3717203,10.9216216 C10.5673137,11.0998423 10.8717607,11.0872924 11.0517218,10.8935907 C11.2316829,10.699889 11.2190105,10.3983863 11.0234172,10.2201657 C10.6038495,9.8378641 9.96489656,9.54291122 9.10018078,9.31568533 C8.81583706,9.24342572 8.52716496,9.1698596 8.15191442,9.07406521 C7.99442523,9.03385646 7.99442523,9.03385646 7.83692047,8.99363265 C7.52189716,8.91317664 7.52189716,8.91317664 7.20688789,8.83277387 C6.30597209,8.50906178 5.38390396,8.29575036 4.48622659,8.20727887 C3.14098904,8.07102654 2.1723846,8.27731834 1.605924,8.88723363 C0.77474546,9.78333008 0.521462853,11.2901934 0.789668585,13.3948237 C1.03353504,14.692552 1.26232536,15.8904137 1.63860594,17.8497283 C1.82554455,19.0570157 1.89634877,20.3639692 1.84835159,21.7497903 C1.84522002,21.879683 1.85539087,22.7665654 1.87905176,24.4702141 C1.88270706,24.7334057 2.10111286,24.9438302 2.36687476,24.9402102 C2.63263666,24.9365903 2.84511604,24.7202967 2.84146074,24.4571051 C2.81838283,22.7954326 2.80791616,21.8827552 2.81043401,21.7774049 Z" id="Stroke-7"></path>
                    <path d="M4.32453302,7.11773327 C4.45405073,6.97890421 4.73735857,6.83160265 5.17169196,6.70023774 C5.75604696,6.52247694 6.14153629,6.33967594 6.36001182,6.10571446 C6.80759545,5.62280475 7.21667832,4.8304195 7.60668041,3.71821926 C7.95543198,2.7206018 8.27545805,2.06845217 8.53409051,1.78878159 C9.18747588,1.08590592 9.8165118,0.84250245 10.4663507,0.999815697 L10.2382738,0.871806546 C10.4465889,1.08062286 10.7605475,1.55132138 10.9275734,1.93420356 C11.0124517,2.1287745 11.0534705,2.28592415 11.0501184,2.36918273 C11.0507086,2.35452248 11.1034511,2.28328929 11.151807,2.27269609 C11.0290408,2.29965597 10.931809,2.29084355 10.7251615,2.2417424 C10.4277411,2.17107287 10.3294726,2.15506631 10.1394097,2.17676289 C9.8783312,2.20656623 9.64749691,2.33260956 9.44104017,2.55525048 C9.07245892,2.95242712 8.79065737,3.61059034 8.4668804,4.74338779 C8.08929812,6.0078532 8.05237714,6.80189937 8.5109324,7.22054169 C8.66183764,7.35753626 8.88611236,7.51858654 9.18444117,7.70659611 C9.44178707,7.86940493 9.62416103,8.00021282 9.72330752,8.09021814 C9.78131844,8.14309446 9.80707917,8.1728237 9.80514179,8.16908962 C9.77234672,8.1058807 9.76558753,8.01445896 9.79256611,7.93815861 C9.80004258,7.91701379 9.74034385,8.01089001 9.71481125,8.05523402 C9.62758486,8.20672538 9.56933392,8.36743135 9.54266488,8.56391033 C9.5072557,8.82478057 9.69209321,9.06468488 9.95551101,9.09975161 C10.2189288,9.13481834 10.4611759,8.95176843 10.4965851,8.69089818 C10.5058778,8.6224359 10.5223106,8.57710026 10.5509316,8.52739239 C10.5184518,8.583802 10.6662659,8.3513645 10.7009832,8.25317755 C10.8169685,7.92515005 10.6855108,7.67177973 10.3744039,7.38821626 C10.2250927,7.25266996 10.0029082,7.09330795 9.70189268,6.90287275 C9.44623038,6.74175114 9.26285072,6.61006735 9.16231748,6.51880313 C9.09391082,6.45634805 9.11878001,5.92149527 9.39143454,5.00833436 C9.67731656,4.00823881 9.91495524,3.45322044 10.1498383,3.20011457 C10.2067889,3.13869967 10.2302336,3.12589806 10.2496268,3.12368424 C10.2822246,3.11996304 10.3253559,3.12698852 10.5006032,3.16862872 C10.8376892,3.24872311 11.0610668,3.26896852 11.3599356,3.20333579 C12.1290957,3.03483807 12.1567328,2.34838736 11.8111453,1.55617942 C11.5979083,1.06736527 11.2176713,0.497299686 10.9229762,0.201895581 C10.8603772,0.139145877 10.7814217,0.0948318155 10.6948993,0.0738864309 C9.67281935,-0.173539069 8.70009255,0.202854508 7.82512578,1.14409828 C7.45255356,1.54697455 7.08613147,2.29367006 6.69729491,3.40595293 C6.34679092,4.40551261 5.99149579,5.0937121 5.65214543,5.45984982 C5.5839294,5.53289624 5.32045272,5.65783822 4.88981492,5.78883873 C4.30784148,5.96485698 3.88412656,6.18516105 3.61544244,6.47319188 C3.44995398,6.65289523 3.32499102,6.86036588 3.23637628,7.09766995 C3.14418719,7.34454588 3.27154006,7.61868962 3.52082689,7.70998713 C3.77011371,7.80128464 4.04693463,7.67516342 4.13912372,7.42828749 C4.18571156,7.30352853 4.24672304,7.20223379 4.32453302,7.11773327 Z" id="Stroke-9"></path>
                    <path d="M2.73545037,12.4419238 C2.7167909,13.2084017 2.80161119,13.8712246 3.11051264,15.7719558 C3.14314663,15.9727591 3.16565559,16.1123461 3.18783754,16.2521152 C3.48345652,18.1148195 3.55952572,19.1789801 3.38634953,19.9572886 C3.32915506,20.2143386 3.49320497,20.4686357 3.75276525,20.5252771 C4.01232554,20.5819184 4.269106,20.419455 4.32630047,20.162405 C4.53490257,19.2248812 4.45373306,18.0893704 4.13866541,16.1041195 C4.11626121,15.96295 4.09358989,15.8223562 4.06078368,15.6204931 C3.76343249,13.7908329 3.68106169,13.1471514 3.69767077,12.4648977 C3.7157254,11.7232644 3.8681226,11.4523554 4.17116902,11.4369198 C4.43660522,11.4233999 4.64071668,11.1993423 4.62706474,10.9364732 C4.61341281,10.6736041 4.38716717,10.4714667 4.12173098,10.4849866 C3.17618363,10.5331477 2.76408447,11.2657161 2.73545037,12.4419238 Z" id="Stroke-11"></path>
                </g>
            </g>
        </g>
    </g>
</svg>