<?xml version="1.0" encoding="UTF-8" standalone="no"?>
<svg width="52px" height="51px" viewBox="0 0 52 51" version="1.1" xmlns="http://www.w3.org/2000/svg" xmlns:xlink="http://www.w3.org/1999/xlink">
    <!-- Generator: Sketch 39.1 (31720) - http://www.bohemiancoding.com/sketch -->
    <title>ico_frutas_grey</title>
    <desc>Created with Sketch.</desc>
    <defs></defs>
    <g id="supermercado_categoria" stroke="none" stroke-width="1" fill="none" fill-rule="evenodd">
        <g id="Subcategorias_Frutas-y-verduras" transform="translate(-76.000000, -14.000000)" fill="#D4D4D4">
            <g id="icon01" transform="translate(76.000000, 14.000000)">
                <g id="frutas_red" transform="translate(17.000000, 11.000000)">
                    <path d="M13.2624645,11.3613444 C13.2641749,11.3272286 13.2641749,11.3272286 13.2659714,11.2927115 C13.2710025,11.1975078 13.2732738,11.1525442 13.2751931,11.1054387 C13.2848139,10.9300052 13.2870455,10.8758238 13.2870455,10.8021667 C13.2870455,8.63587142 11.4650145,6.88216667 9.21583333,6.88216667 C6.9643794,6.88216667 5.14310606,8.63514226 5.14310606,10.8021667 C5.14310606,10.8662254 5.14465783,10.9139783 5.14905464,11.014663 C5.15166522,11.0764482 5.15166522,11.0764482 5.15251237,11.1007193 C5.1553389,11.1581325 5.15812353,11.203029 5.16417125,11.2966202 C5.16644751,11.332413 5.16644751,11.332413 5.16860009,11.3676456 C5.17438338,11.463865 5.17719697,11.531933 5.17719697,11.5831042 C5.17719697,14.0087823 4.19757004,16.2405642 2.56515263,17.696308 C1.43678515,18.7017304 0.802954545,20.1847442 0.802954545,21.776125 C0.802954545,24.9482214 3.47603437,27.5190417 6.77416667,27.5190417 C7.23092442,27.5190417 7.67702365,27.4717208 8.10638554,27.3765406 C8.46512975,27.2957744 8.85968692,27.2499792 9.21583333,27.2499792 C9.57122366,27.2499792 9.96489187,27.2957735 10.3195938,27.3759458 C10.7494138,27.4716078 11.1978577,27.5190417 11.6567424,27.5190417 C14.9522523,27.5190417 17.6241667,24.9478289 17.6241667,21.776125 C17.6241667,20.1856491 16.9909913,18.702576 15.8645801,17.6966103 C14.2340042,16.240575 13.2552273,14.0085732 13.2552273,11.5831042 C13.2552273,11.5294704 13.2575959,11.4599547 13.2624645,11.3613444 Z M14.9989344,18.5946244 C15.8581449,19.3619608 16.3514394,20.5173941 16.3514394,21.776125 C16.3514394,24.2712263 14.2494004,26.2940417 11.6567424,26.2940417 C11.2926539,26.2940417 10.9403198,26.2567738 10.6084366,26.1829117 C10.162454,26.0821038 9.67138576,26.0249792 9.21583333,26.0249792 C8.75981644,26.0249792 8.2682395,26.0820352 7.81861631,26.1832662 C7.48652162,26.2568807 7.13620073,26.2940417 6.77416667,26.2940417 C4.17871865,26.2940417 2.07568182,24.2714572 2.07568182,21.776125 C2.07568182,20.5168947 2.56929362,19.3619597 3.42995975,18.5950703 C5.32671071,16.9036013 6.44992424,14.3447012 6.44992424,11.5831042 C6.44992424,11.5026805 6.44629639,11.4149134 6.43920294,11.2968961 C6.43686326,11.2586043 6.43686326,11.2586043 6.43450112,11.2214667 C6.42848901,11.1282182 6.42615128,11.0905271 6.42416105,11.051449 C6.42147415,10.9818763 6.42147415,10.9818763 6.42065917,10.9632198 C6.41700261,10.8794865 6.41583333,10.8435041 6.41583333,10.8021667 C6.41583333,9.31169108 7.66728727,8.10716667 9.21583333,8.10716667 C10.7621067,8.10716667 12.0143182,9.31242024 12.0143182,10.8021667 C12.0143182,10.8470333 12.012698,10.8863705 12.0075473,10.9795079 C12.0052018,11.0222266 12.0052018,11.0222266 12.0036635,11.0525327 C12.0017983,11.0978097 11.9998468,11.1364427 11.9948502,11.2311889 C11.9930002,11.2667297 11.9930002,11.2667297 11.9911719,11.3031972 C11.9854171,11.4197554 11.9825,11.5053684 11.9825,11.5831042 C11.9825,14.3442042 13.1046174,16.9030796 14.9989344,18.5946244 Z" id="Stroke-1"></path>
                    <path d="M16.8181342,1.69713056 C16.2705588,1.28014113 15.6670869,1.04234375 15.0104545,1.04234375 C14.353147,1.04234375 13.748492,1.28089486 13.2043612,1.69765552 C12.556693,2.19178087 11.9077338,2.52302762 11.1182642,2.75855273 C10.6943149,2.89046164 10.4066667,3.26240684 10.4066667,3.69286458 C10.4066667,4.12040504 10.6933354,4.49442816 11.10814,4.62552498 C11.9127212,4.86631002 12.5610818,5.1958383 13.2053099,5.68734049 C13.7443521,6.1032143 14.3512035,6.34192708 15.0104545,6.34192708 C15.6690298,6.34192708 16.2747455,6.10394822 16.8191782,5.68634125 C17.4613386,5.19588862 18.108936,4.86625067 18.9020581,4.62835707 C19.3261942,4.49631992 19.6157576,4.12229821 19.6157576,3.69286458 C19.6157576,3.26051205 19.3252247,2.8885937 18.9059204,2.7600019 C18.1139271,2.52309218 17.4657223,2.19173035 16.8181342,1.69713056 Z M18.3430303,3.69286458 C18.3430303,3.58527346 18.4147601,3.49262187 18.5168416,3.46083398 C17.5805129,3.74164434 16.793083,4.14245933 16.0270173,4.72754723 C15.6920396,4.98449011 15.3549543,5.11692708 15.0104545,5.11692708 C14.6659595,5.11692708 14.3291715,4.9844472 13.9986058,4.72942117 C13.2286931,4.14201866 12.4403717,3.74135555 11.4955491,3.45869611 C11.6086181,3.49434938 11.6793939,3.58669219 11.6793939,3.69286458 C11.6793939,3.7991967 11.6059433,3.89417243 11.5024721,3.92637849 C12.4356863,3.64801732 13.2247624,3.24525104 13.9959022,2.65692382 C14.3309971,2.4002694 14.6679234,2.26734375 15.0104545,2.26734375 C15.352985,2.26734375 15.6901755,2.40021327 16.0277299,2.65726708 C16.7970087,3.24480974 17.5852025,3.64773384 18.5238773,3.9285011 C18.4174405,3.89587563 18.3430303,3.80062128 18.3430303,3.69286458 Z" id="Stroke-3"></path>
                    <path d="M6.76659606,25.0748562 C7.11071725,25.1435957 7.447578,24.9308158 7.51899562,24.5995992 C7.59041323,24.2683826 7.36934331,23.9441541 7.02522212,23.8754146 C5.79155466,23.6289851 4.35073513,21.3425823 5.08964777,20.1789244 C5.27292827,19.8902897 5.17840556,19.5132986 4.87852537,19.3368911 C4.57864519,19.1604836 4.18696607,19.2514617 4.00368557,19.5400964 C2.75365743,21.5086717 4.74669309,24.6713733 6.76659606,25.0748562 Z" id="Stroke-5"></path>
                    <path d="M8.57704545,5.998125 C8.57704545,6.33639941 8.86195516,6.610625 9.21340909,6.610625 C9.56486302,6.610625 9.84977273,6.33639941 9.84977273,5.998125 L9.84977273,1.38541667 C9.84977273,1.04714226 9.56486302,0.772916667 9.21340909,0.772916667 C8.86195516,0.772916667 8.57704545,1.04714226 8.57704545,1.38541667 L8.57704545,5.998125 Z" id="Stroke-7"></path>
                </g>
            </g>
        </g>
    </g>
</svg>