<?xml version="1.0" encoding="UTF-8" standalone="no"?>
<svg width="52px" height="51px" viewBox="0 0 52 51" version="1.1" xmlns="http://www.w3.org/2000/svg" xmlns:xlink="http://www.w3.org/1999/xlink">
    <!-- Generator: Sketch 39.1 (31720) - http://www.bohemiancoding.com/sketch -->
    <title>ico_cuidadocapilar_grey</title>
    <desc>Created with Sketch.</desc>
    <defs>
        <polygon id="path-1" points="0 26.3700225 13.4886667 26.3700225 13.4886667 -0.0002025 0 -0.0002025"></polygon>
    </defs>
    <g id="supermercado_categoria" stroke="none" stroke-width="1" fill="none" fill-rule="evenodd">
        <g id="Subcategorias_aseo-personal" transform="translate(-77.000000, -14.000000)">
            <g id="icon01-copy" transform="translate(77.000000, 14.000000)">
                <g id="cuidado_capilar_yellow" transform="translate(19.000000, 12.000000)">
                    <path d="M13.4889333,17.899515 C13.4889333,17.3469605 13.0453329,16.897815 12.4996,16.897815 L12.4996,17.370315 L12.9662667,17.370315 L12.9662667,16.363215 L12.4996,16.363215 L12.4996,16.835715 C13.0453329,16.835715 13.4889333,16.3865695 13.4889333,15.834015 C13.4889333,15.2799706 13.0458611,14.830965 12.4996,14.830965 L12.4996,15.303465 L12.9662667,15.303465 L12.9662667,14.29704 L12.4996,14.29704 L12.4996,14.76954 C13.0456662,14.76954 13.4889333,14.320732 13.4889333,13.767165 C13.4889333,13.2769394 13.1404,12.8630234 12.6675981,12.7804423 L12.5882667,13.246065 L13.0530126,13.2888906 L13.4870126,8.46061559 C13.4943349,8.37915419 13.4806451,8.29716341 13.4472827,8.22266592 C13.2663572,7.81866318 12.8333427,7.25503246 12.060624,6.70666011 C11.4970203,6.30668958 10.8186476,5.97520656 10.0168106,5.73339921 L10.3502667,6.18624 L10.3502667,3.65094 C10.3502667,1.63452804 8.73554782,-0.000135 6.74426667,-0.000135 C4.75308205,-0.000135 3.13893333,1.63443035 3.13893333,3.65094 L3.13893333,6.18624 L3.47238937,5.73339921 C2.67055236,5.97520656 1.99217973,6.30668958 1.428576,6.70666011 C0.655857307,7.25503246 0.222842769,7.81866318 0.0419172728,8.22266592 C0.00856394468,8.29714318 -0.00512762143,8.37911004 0.00218157295,8.46055035 L0.435514906,13.2888253 L0.900266667,13.246065 L0.820517807,12.7805155 C0.34893435,12.8633301 0.000266666667,13.2774058 0.000266666667,13.767165 C0.000266666667,14.3208721 0.443005412,14.76954 0.9896,14.76954 L0.9896,14.29704 L0.522933333,14.29704 L0.522933333,15.303465 L0.9896,15.303465 L0.9896,14.830965 C0.442810546,14.830965 0.000266666667,15.2798302 0.000266666667,15.834015 C0.000266666667,16.3867096 0.443338451,16.835715 0.9896,16.835715 L0.9896,16.363215 L0.522933333,16.363215 L0.522933333,17.370315 L0.9896,17.370315 L0.9896,16.897815 C0.443338451,16.897815 0.000266666667,17.3468204 0.000266666667,17.899515 C0.000266666667,18.4532221 0.443005412,18.90189 0.9896,18.90189 L0.9896,18.42939 L0.522933333,18.42939 L0.00163829085,25.3321897 C0.000266666667,25.9210846 0.443338451,26.37009 0.9896,26.37009 L12.4996,26.37009 C13.0453329,26.37009 13.4889333,25.9209445 13.4889333,25.36839 L12.964895,18.4451647 L12.4996,18.42939 L12.4996,18.90189 C13.0456662,18.90189 13.4889333,18.453082 13.4889333,17.899515 Z M12.0329333,18.42939 L12.5569716,25.4045903 C12.5556,25.3990355 12.5298671,25.42509 12.4996,25.42509 L0.9896,25.42509 C0.958988309,25.42509 0.9336,25.3993617 0.9336,25.36839 L1.45489504,18.5175653 L1.45626667,18.42939 C1.45626667,18.1684355 1.24733288,17.95689 0.9896,17.95689 C0.958655269,17.95689 0.9336,17.9314992 0.9336,17.899515 C0.9336,17.8685433 0.958988309,17.842815 0.9896,17.842815 C1.24733288,17.842815 1.45626667,17.6312695 1.45626667,17.370315 L1.45626667,16.363215 C1.45626667,16.1022605 1.24733288,15.890715 0.9896,15.890715 C0.958988309,15.890715 0.9336,15.8649867 0.9336,15.834015 C0.9336,15.8013673 0.958644511,15.775965 0.9896,15.775965 C1.24733288,15.775965 1.45626667,15.5644195 1.45626667,15.303465 L1.45626667,14.29704 C1.45626667,14.0360855 1.24733288,13.82454 0.9896,13.82454 C0.958655269,13.82454 0.9336,13.7991492 0.9336,13.767165 C0.9336,13.7396002 0.953199734,13.7163237 0.980015526,13.7116145 C1.21951187,13.6695566 1.38701597,13.4484051 1.36501843,13.2033047 L0.931685094,8.37502965 L0.891949394,8.61291408 C0.914383613,8.56281895 0.980481894,8.44986098 1.10016068,8.29408183 C1.3106503,8.0200993 1.59504565,7.74253233 1.96427159,7.48050515 C2.44550246,7.13899186 3.03291807,6.85195449 3.73881063,6.63908079 C3.93664751,6.57941977 4.07226667,6.39524591 4.07226667,6.18624 L4.07226667,3.651615 C4.07226667,2.15630841 5.26857847,0.944865 6.74426667,0.944865 C8.2201127,0.944865 9.41693333,2.15646816 9.41693333,3.65094 L9.41693333,6.18624 C9.41693333,6.39524591 9.55255249,6.57941977 9.75038937,6.63908079 C10.4562819,6.85195449 11.0436975,7.13899186 11.5249284,7.48050515 C11.8941544,7.74253233 12.1785497,8.0200993 12.3890393,8.29408183 C12.5087181,8.44986098 12.5748164,8.56281895 12.5972506,8.61291408 L12.5575208,8.37496441 L12.1235208,13.2032394 C12.1014727,13.448526 12.2692164,13.6698176 12.5089353,13.7116877 C12.5364116,13.7164868 12.5556,13.7392748 12.5556,13.767165 C12.5556,13.798823 12.5302005,13.82454 12.4996,13.82454 C12.2418671,13.82454 12.0329333,14.0360855 12.0329333,14.29704 L12.0329333,15.303465 C12.0329333,15.5644195 12.2418671,15.775965 12.4996,15.775965 C12.5302114,15.775965 12.5556,15.8016936 12.5556,15.834015 C12.5556,15.8646605 12.5298671,15.890715 12.4996,15.890715 C12.2418671,15.890715 12.0329333,16.1022605 12.0329333,16.363215 L12.0329333,17.370315 C12.0329333,17.6312695 12.2418671,17.842815 12.4996,17.842815 C12.5298671,17.842815 12.5556,17.8688695 12.5556,17.899515 C12.5556,17.931173 12.5302005,17.95689 12.4996,17.95689 C12.2418671,17.95689 12.0329333,18.1684355 12.0329333,18.42939 Z" id="Stroke-1" fill="#D4D4D4"></path>
                    <path d="M3.99865653,6.56910326 C4.2148226,6.51450743 4.45975753,6.45973193 4.72804521,6.40853153 C5.85689663,6.19309993 7.01348996,6.10847309 8.08170634,6.22875762 C8.67823523,6.29592866 9.22404558,6.42604531 9.70864955,6.62437431 C9.94760028,6.72216727 10.2196063,6.60531494 10.3161919,6.36337733 C10.4127776,6.12143971 10.2973678,5.84603366 10.0584171,5.74824069 C9.48962344,5.51545622 8.86167454,5.36575843 8.18486912,5.289548 C7.01187529,5.1574652 5.76754821,5.24851143 4.55516961,5.47988347 C4.26844802,5.53460182 4.00592462,5.59331069 3.77276199,5.65219924 C3.63098606,5.68800677 3.529141,5.71634814 3.47243663,5.73343237 C3.22540846,5.80785849 3.08474198,6.07095188 3.15824926,6.32106791 C3.23175653,6.57118394 3.49160186,6.71360875 3.73863003,6.63918263 C3.78237011,6.62600436 3.87083523,6.60138635 3.99865653,6.56910326 Z" id="Stroke-3" fill="#D4D4D4"></path>
                    <path d="M5.03813333,5.52798 C5.03813333,5.7143761 5.18737175,5.86548 5.37146667,5.86548 C5.55556158,5.86548 5.7048,5.7143761 5.7048,5.52798 L5.7048,2.85228 C5.7048,2.6658839 5.55556158,2.51478 5.37146667,2.51478 C5.18737175,2.51478 5.03813333,2.6658839 5.03813333,2.85228 L5.03813333,5.52798 Z" id="Stroke-5" fill="#D4D4D4"></path>
                    <mask id="mask-2" fill="white">
                        <use xlink:href="#path-1"></use>
                    </mask>
                    <g id="Clip-8"></g>
                    <path d="M9.47066667,21.5390475 C9.65476158,21.5390475 9.804,21.3879436 9.804,21.2015475 L9.804,10.8801225 C9.804,10.6937264 9.65476158,10.5426225 9.47066667,10.5426225 L3.96933333,10.5426225 C3.78523842,10.5426225 3.636,10.6937264 3.636,10.8801225 L3.636,21.2015475 C3.636,21.3879436 3.78523842,21.5390475 3.96933333,21.5390475 L9.47066667,21.5390475 Z M4.30266667,21.2015475 L4.30266667,10.8801225 L3.96933333,11.2176225 L9.47066667,11.2176225 L9.13733333,10.8801225 L9.13733333,21.2015475 L9.47066667,20.8640475 L3.96933333,20.8640475 L4.30266667,21.2015475 Z" id="Stroke-7" fill="#D4D4D4" mask="url(#mask-2)"></path>
                </g>
            </g>
        </g>
    </g>
</svg>