<?xml version="1.0" encoding="UTF-8" standalone="no"?>
<svg width="52px" height="51px" viewBox="0 0 52 51" version="1.1" xmlns="http://www.w3.org/2000/svg" xmlns:xlink="http://www.w3.org/1999/xlink">
    <!-- Generator: Sketch 39.1 (31720) - http://www.bohemiancoding.com/sketch -->
    <title>ico_cuidadooral_green</title>
    <desc>Created with Sketch.</desc>
    <defs></defs>
    <g id="supermercado_categoria" stroke="none" stroke-width="1" fill="none" fill-rule="evenodd">
        <g id="Subcategorias_aseo-personal" transform="translate(-139.000000, -136.000000)" fill="#44D481">
            <g id="icon01-copy-14" transform="translate(139.000000, 136.000000)">
                <g id="cuidado_oral_lgreen" transform="translate(19.000000, 12.000000)">
                    <path d="M9.77090521,24.863158 L10.2458474,24.4460211 L2.78863684,24.4460211 L3.26191837,24.8515166 L0.952023634,9.96788498 L0.478742105,10.5202842 L9.65742632,10.5202842 L12.1828474,10.5202842 L11.7079052,9.97952646 L9.77090521,24.863158 Z M12.1828474,9.56238947 L9.65742632,9.56238947 L0.478742105,9.56238947 C0.184947094,9.56238947 -0.0395961313,9.82446923 0.00546057688,10.1147887 L2.31535531,24.9984203 C2.35157231,25.2317817 2.55248174,25.4039158 2.78863684,25.4039158 L10.2458474,25.4039158 C10.4864686,25.4039158 10.6897362,25.2253878 10.7207895,24.9867788 L12.6577895,10.1031472 C12.6950939,9.81650571 12.4719061,9.56238947 12.1828474,9.56238947 Z" id="Stroke-1"></path>
                    <path d="M9.19101371,9.93349986 C9.13138141,10.1912058 9.29195182,10.4484593 9.54965775,10.5080916 C9.80736369,10.5677238 10.0646171,10.4071534 10.1242494,10.1494475 L12.3369863,0.586921194 C12.3966186,0.329215261 12.2360482,0.0719617976 11.9783422,0.0123295004 C11.7206363,-0.0473027968 11.4633829,0.11326761 11.4037506,0.370973543 L9.19101371,9.93349986 Z" id="Stroke-3"></path>
                    <path d="M9.41083343,0.29084836 C9.15455718,0.225686995 8.89396361,0.380546353 8.82868611,0.63679305 L7.76337032,4.81868779 C7.69823861,5.07436216 7.85214831,5.33456054 8.10758574,5.40061536 L10.39627,5.99245747 C10.6523613,6.05868138 10.9136494,5.90476345 10.9798733,5.64867215 C11.0460972,5.39258085 10.8921792,5.13129275 10.6360879,5.06506885 L8.34740373,4.47322674 L8.69161916,5.05515432 L9.75693495,0.873259582 L9.17478762,1.21920427 L11.5024718,1.81104638 C11.7588302,1.87622863 12.0194904,1.72124974 12.0846727,1.46489133 C12.1498549,1.20853292 11.9948761,0.947872717 11.7385176,0.882690465 L9.41083343,0.29084836 Z" id="Stroke-5"></path>
                    <path d="M9.88595263,2.18228947 C9.88595263,2.46555263 9.65605789,2.69544737 9.37279474,2.69544737 C9.08953158,2.69544737 8.86032105,2.46555263 8.86032105,2.18228947 C8.86032105,1.89902632 9.08953158,1.66913158 9.37279474,1.66913158 C9.65605789,1.66913158 9.88595263,1.89902632 9.88595263,2.18228947" id="Fill-7"></path>
                    <path d="M9.56752105,3.65840526 C9.56752105,3.94166842 9.33762632,4.17156316 9.05436316,4.17156316 C8.7711,4.17156316 8.54188947,3.94166842 8.54188947,3.65840526 C8.54188947,3.37514211 8.7711,3.14524737 9.05436316,3.14524737 C9.33762632,3.14524737 9.56752105,3.37514211 9.56752105,3.65840526" id="Fill-9"></path>
                    <path d="M4.59029109,22.8410019 C4.62286532,23.0271123 4.80014419,23.1515779 4.98625454,23.1190036 C5.17236489,23.0864294 5.29683051,22.9091505 5.26425628,22.7230402 L3.79115102,14.3065665 C3.75857679,14.1204562 3.58129791,13.9959905 3.39518756,14.0285648 C3.20907722,14.061139 3.0846116,14.2384179 3.11718583,14.4245282 L4.59029109,22.8410019 Z" id="Stroke-11"></path>
                </g>
            </g>
        </g>
    </g>
</svg>