<?xml version="1.0" encoding="UTF-8" standalone="no"?>
<svg width="52px" height="51px" viewBox="0 0 52 51" version="1.1" xmlns="http://www.w3.org/2000/svg" xmlns:xlink="http://www.w3.org/1999/xlink">
    <!-- Generator: Sketch 39.1 (31720) - http://www.bohemiancoding.com/sketch -->
    <title>ico_talcosycopitos_grey</title>
    <desc>Created with Sketch.</desc>
    <defs></defs>
    <g id="supermercado_categoria" stroke="none" stroke-width="1" fill="none" fill-rule="evenodd">
        <g id="Subcategorias_aseo-personal" transform="translate(-15.000000, -75.000000)" fill="#D4D4D4">
            <g id="icon01-copy-7" transform="translate(15.000000, 75.000000)">
                <g id="talcos_copitos_red" transform="translate(11.000000, 12.000000)">
                    <path d="M3.11591138,16.0788032 L3.34777568,16.5826059 L3.26962399,16.0323919 C2.72108586,16.1123736 2.19640585,16.3553393 1.76317725,16.7435244 C0.672792418,17.7199397 0.445427607,19.3136466 1.31821875,20.3138841 C2.19027415,21.3134167 3.77919473,21.279832 4.86954602,20.3034467 C5.19660339,20.0112821 5.44808437,19.6523962 5.62012885,19.2504513 L5.11677568,19.0292824 L5.56188357,19.354283 L7.068316,17.2363712 C7.21821169,17.0256311 7.20407145,16.7378084 7.03426128,16.5431918 L5.87504506,15.2146329 C5.71405209,15.0301215 5.45242461,14.974931 5.23212759,15.0790091 L3.11591138,16.0788032 Z M5.05293872,15.9509906 L6.21215494,17.2795494 L6.17810021,16.5863699 L4.67166778,18.7042817 L4.6134225,18.8081134 C4.50392588,19.0639286 4.34665634,19.2883664 4.14336368,19.4699707 C3.47919218,20.0647209 2.58193081,20.0836862 2.14033051,19.5775327 C1.69795077,19.0705559 1.82632287,18.1707355 2.48997845,17.5764467 C2.76156453,17.333098 3.08750067,17.1821654 3.42592736,17.1328198 L3.57963997,17.0864086 L5.69585619,16.0866145 L5.05293872,15.9509906 Z" id="Stroke-2"></path>
                    <path d="M19.738415,2.61438214 L19.8029701,2.46469566 C19.8919905,2.13167141 20.0798747,1.82229499 20.3516741,1.57875503 C21.0152914,0.984500535 21.9131446,0.965707465 22.3546822,1.47232292 C22.7965537,1.97878743 22.667975,2.87865224 22.0044405,3.47283266 C21.8002452,3.65582601 21.561604,3.78635124 21.2978062,3.86523023 L21.1894229,3.9109036 L18.9297742,5.16560948 L19.6045072,5.28490647 L18.445291,3.95634764 L18.4992528,4.61952919 L19.738415,2.61438214 Z M17.6231847,4.6927053 L18.7824009,6.02126412 C18.9521867,6.21585292 19.2323342,6.26538473 19.4571339,6.14056111 L21.7167826,4.88585523 L21.4531027,4.39837941 L21.6083992,4.93152859 C22.0225786,4.80768357 22.4038694,4.59913588 22.7312737,4.30572636 C23.8214294,3.32951624 24.0491441,1.73584212 23.1770089,0.736217978 C22.3052607,-0.264016588 20.7154331,-0.23073972 19.6248729,0.745832662 C19.1911408,1.13446888 18.8885221,1.63277096 18.7438299,2.17406316 L19.2734,2.31937941 L18.808385,2.02437669 L17.5692228,4.02952375 C17.4402109,4.23828403 17.4621711,4.50817023 17.6231847,4.6927053 Z" id="Stroke-4"></path>
                    <path d="M11.3672113,21.6780853 L12.1416692,21.7264408 L10.9487503,20.3589702 L10.9010266,21.1435971 L23.4768374,9.88062648 L22.7023794,9.83227095 L23.8952983,11.1997415 L23.9430221,10.4151147 L11.3672113,21.6780853 Z M24.71748,10.4634702 L23.5245611,9.09599964 C23.3238836,8.86595831 22.9771402,8.84430838 22.7501032,9.04764411 L10.1742923,20.3106147 C9.94727249,20.513935 9.92590626,20.8652176 10.1265686,21.0952415 L11.3194875,22.4627121 C11.5201651,22.6927535 11.8669084,22.7144034 12.0939455,22.5110677 L24.6697563,11.2480971 C24.8967762,11.0447767 24.9181424,10.6934941 24.71748,10.4634702 Z" id="Stroke-6"></path>
                    <path d="M8.21050597,21.2405679 L8.44237027,21.7443706 L8.36421859,21.1941566 C7.81568046,21.2741384 7.29100044,21.517104 6.85777184,21.9052891 C5.76738701,22.8817044 5.5400222,24.4754113 6.41281335,25.4756488 C7.28486875,26.4751815 8.87378933,26.4415967 9.96414061,25.4652115 C10.291198,25.1730468 10.542679,24.8141609 10.7147234,24.4122161 L10.2113703,24.1910471 L10.6564782,24.5160477 L12.1629106,22.3981359 C12.3128063,22.1873958 12.298666,21.8995731 12.1288559,21.7049565 L10.9696397,20.3763976 C10.8086467,20.1918862 10.5470192,20.1366957 10.3267222,20.2407738 L8.21050597,21.2405679 Z M10.1475333,21.1127553 L11.3067495,22.4413141 L11.2726948,21.7481346 L9.76626238,23.8660464 L9.7080171,23.9698781 C9.59852048,24.2256933 9.44125093,24.4501311 9.23795827,24.6317354 C8.57378677,25.2264857 7.67652541,25.2454509 7.23492511,24.7392974 C6.79254537,24.2323206 6.92091746,23.3325002 7.58457305,22.7382115 C7.85615912,22.4948627 8.18209526,22.3439301 8.52052195,22.2945845 L8.67423457,22.2481733 L10.7904508,21.2483792 L10.1475333,21.1127553 Z" id="Stroke-8"></path>
                    <path d="M24.8330096,7.77614684 L24.8975647,7.62646037 C24.9865851,7.29343612 25.1744693,6.98405969 25.4462687,6.74051973 C26.109886,6.14626524 27.0077392,6.12747217 27.4492768,6.63408762 C27.8911483,7.14055213 27.7625696,8.04041695 27.0990351,8.63459737 C26.8948398,8.81759072 26.6561986,8.94811595 26.3924008,9.02699494 L26.2840174,9.0726683 L24.0243688,10.3273742 L24.6991018,10.4466712 L23.5398856,9.11811235 L23.5938474,9.7812939 L24.8330096,7.77614684 Z M22.7177793,9.85447 L23.8769955,11.1830288 C24.0467813,11.3776176 24.3269288,11.4271494 24.5517285,11.3023258 L26.8113771,10.0476199 L26.5476973,9.56014412 L26.7029938,10.0932933 C27.1171732,9.96944827 27.498464,9.76090059 27.8258683,9.46749106 C28.916024,8.49128095 29.1437387,6.89760682 28.2716035,5.89798268 C27.3998553,4.89774812 25.8100277,4.93102499 24.7194675,5.90759737 C24.2857354,6.29623359 23.9831167,6.79453567 23.8384245,7.33582787 L24.3679946,7.48114412 L23.9029796,7.18614139 L22.6638174,9.19128845 C22.5348055,9.40004873 22.5567657,9.66993494 22.7177793,9.85447 Z" id="Stroke-10"></path>
                    <path d="M6.27261667,16.5163206 L7.04707462,16.5646761 L5.85415571,15.1972055 L5.80643198,15.9818324 L18.3822428,4.71886177 L17.6077848,4.67050624 L18.8007038,6.03797683 L18.8484275,5.25334999 L6.27261667,16.5163206 Z M19.6228854,5.30170552 L18.4299665,3.93423494 C18.229289,3.7041936 17.8825456,3.68254368 17.6555086,3.8858794 L5.07969775,15.14885 C4.85267789,15.3521703 4.83131167,15.7034529 5.03197402,15.9334768 L6.22489294,17.3009474 C6.4255705,17.5309887 6.77231385,17.5526387 6.9993509,17.3493029 L19.5751617,6.08633236 C19.8021816,5.88301203 19.8235478,5.53172943 19.6228854,5.30170552 Z" id="Stroke-1"></path>
                </g>
            </g>
        </g>
    </g>
</svg>