<?xml version="1.0" encoding="UTF-8" standalone="no"?>
<svg width="52px" height="51px" viewBox="0 0 52 51" version="1.1" xmlns="http://www.w3.org/2000/svg" xmlns:xlink="http://www.w3.org/1999/xlink">
    <!-- Generator: Sketch 39.1 (31720) - http://www.bohemiancoding.com/sketch -->
    <title>ico_incontinencia_green</title>
    <desc>Created with Sketch.</desc>
    <defs></defs>
    <g id="supermercado_categoria" stroke="none" stroke-width="1" fill="none" fill-rule="evenodd">
        <g id="Subcategorias_aseo-personal" transform="translate(-201.000000, -197.000000)" fill="#44D481">
            <g id="icon01-copy-22" transform="translate(201.000000, 197.000000)">
                <g id="incontinencia_blue" transform="translate(13.000000, 17.000000)">
                    <path d="M0.000367647059,1.05902609 C0.000367647059,8.12947692 3.23068943,14.298829 8.14715506,16.6274979 C8.26706974,16.6907422 8.4189444,16.7305684 8.57469988,16.7363672 L16.1341912,16.7367217 C16.3089968,16.7305684 16.4608714,16.6907422 16.5991574,16.6183425 C21.4974538,14.2987333 24.7283088,8.12918616 24.7283088,1.05902609 C24.7297437,0.513061653 24.3161475,0.0549460709 23.7742947,0.00293420403 C23.7,-0.000310604574 23.7,-0.000310604574 23.652275,0.00107963981 L1.05330882,0.000591304348 C0.471395574,0.000591304348 0.000367647059,0.474523875 0.000367647059,1.05902609 Z M23.6746324,1.03537391 C23.6988971,7.75625428 20.6653995,13.5489333 16.142008,15.6914238 C16.121853,15.7015131 8.59375,15.7019391 8.59375,15.7019391 C4.06276818,13.5490406 1.02977941,7.75656021 1.02977941,1.05902609 C1.02977941,1.04580001 23.6746324,1.03537391 23.6746324,1.03537391 Z" id="Stroke-1"></path>
                    <path d="M1.51176348,6.04757181 C2.4309267,5.92757683 3.50289673,6.0845391 4.51894939,6.73688466 C6.54896519,8.04023423 7.8114563,11.0026001 7.85178058,16.1635983 C7.85401313,16.4493368 8.08625754,16.6791543 8.37051298,16.6769101 C8.65476842,16.6746659 8.88339315,16.4412098 8.8811606,16.1554713 C8.83833532,10.6743762 7.43484448,7.3811623 5.07306143,5.86480517 C3.82619535,5.06426836 2.51807205,4.87272755 1.37918665,5.02140684 C1.25544008,5.03756171 1.1637306,5.05452239 1.10805064,5.06752941 C0.831164791,5.13221082 0.658866954,5.41027689 0.723212647,5.68860736 C0.787558341,5.96693783 1.06418116,6.14013461 1.34106701,6.0754532 C1.36458542,6.06995922 1.42293325,6.05916842 1.51176348,6.04757181 Z" id="Stroke-3"></path>
                    <path d="M23.2973575,4.86825901 C22.1584721,4.71957973 20.8503488,4.91112053 19.6034827,5.71165734 C17.2416996,7.22801447 15.8382088,10.5212284 15.7953835,16.0023235 C15.793151,16.288062 16.0217757,16.5215181 16.3060311,16.5237623 C16.5902866,16.5260065 16.822531,16.296189 16.8247635,16.0104504 C16.8650878,10.8494522 18.1275789,7.88708641 20.1575947,6.58373684 C21.1736474,5.93139127 22.2456174,5.774429 23.1647806,5.89442398 C23.2536109,5.90602059 23.3119587,5.9168114 23.3354771,5.92230537 C23.612363,5.98698678 23.8889858,5.81379 23.9533315,5.53545953 C24.0176772,5.25712906 23.8453793,4.97906299 23.5684935,4.91438158 C23.5128135,4.90137457 23.421104,4.88441388 23.2973575,4.86825901 Z" id="Stroke-5"></path>
                    <path d="M16.6674142,1.79438459 L17.0376083,1.67947209 C17.0132858,1.67308663 16.9777274,1.66553206 16.9324796,1.65857356 C16.7105688,1.62444667 16.470235,1.63410652 16.2331155,1.72215899 C15.7149392,1.91457965 15.4086765,2.41657267 15.4086765,3.21152174 C15.4086765,4.02339189 15.7742407,4.51975407 16.3641014,4.68419434 C16.6141259,4.75389572 16.8687083,4.75561375 17.1072943,4.71845719 C17.1657935,4.70934673 17.2111306,4.69969494 17.2406876,4.6919885 L16.8456138,4.54390495 L18.5595844,7.04512235 C18.6747667,7.2132092 18.9036945,7.25560966 19.0709089,7.13982643 C19.2381233,7.0240432 19.2803037,6.79392103 19.1651214,6.62583418 L17.4511509,4.12461679 C17.3635001,3.99670703 17.2056406,3.93753732 17.0560771,3.97653324 C17.049221,3.97832086 17.0276638,3.98291015 16.9947195,3.98804078 C16.8505077,4.01049983 16.6951357,4.00945131 16.5606045,3.97194696 C16.2929285,3.89732473 16.1439706,3.69507007 16.1439706,3.21152174 C16.1439706,2.71040559 16.2758512,2.49424101 16.4879139,2.41549319 C16.590864,2.3772635 16.7119877,2.37239512 16.821282,2.3892031 C16.8401904,2.39211096 16.8510717,2.39442275 16.8518035,2.39461487 C16.9868976,2.43008155 17.1303186,2.38556203 17.2219976,2.27970237 L18.3396446,0.989180627 C18.4729658,0.835237641 18.4568963,0.601800109 18.3037524,0.467783306 C18.1506084,0.333766503 17.9183825,0.349919866 17.7850612,0.503862851 L16.6674142,1.79438459 Z" id="Stroke-7"></path>
                    <path d="M6.80679582,2.33404061 C6.89766786,2.44509803 7.04437421,2.49308593 7.18286178,2.45705244 C7.18968184,2.45527791 7.21116612,2.45071415 7.24401488,2.44561035 C7.38825722,2.42319904 7.54371566,2.42431058 7.67833685,2.46191255 C7.94610972,2.53670602 8.09514706,2.73914885 8.09514706,3.22275652 C8.09514706,3.72355925 7.96325784,3.93969618 7.75110823,4.01854337 C7.64806188,4.05684141 7.52684944,4.06175513 7.41751869,4.04498594 C7.3986645,4.04209408 7.38782199,4.03979633 7.38710456,4.03960843 C7.24902521,4.00344537 7.10260052,4.05086053 7.01148373,4.16124175 L5.09383667,6.48432871 C4.9641778,6.6414008 4.98573971,6.87439057 5.14199655,7.00472592 C5.29825339,7.13506127 5.53003387,7.11338686 5.65969274,6.95631477 L7.5773398,4.63322782 L7.20171897,4.75486113 C7.22598807,4.76121722 7.26146464,4.76873545 7.30660808,4.77565957 C7.52853524,4.80969883 7.76892488,4.79995389 8.00609765,4.71180663 C8.52418701,4.51925437 8.83044118,4.01737227 8.83044118,3.22275652 C8.83044118,2.41094571 8.46495646,1.91449453 7.87519256,1.74976354 C7.62505152,1.67989494 7.37035022,1.6780738 7.13169701,1.71515398 C7.07333235,1.72422225 7.02810045,1.73383056 6.99860881,1.74150408 L7.37467477,1.86451591 L6.07982183,0.282037647 C5.95083911,0.124404039 5.71915393,0.101723437 5.56233849,0.231379104 C5.40552305,0.361034772 5.38296017,0.593928745 5.51194288,0.751562353 L6.80679582,2.33404061 Z" id="Stroke-9"></path>
                    <path d="M4.51977941,1.7300087 C4.31673355,1.7300087 4.15213235,1.89546868 4.15213235,2.09957391 C4.15213235,2.30367915 4.31673355,2.46913913 4.51977941,2.46913913 L7.30066176,2.46913913 C7.50370763,2.46913913 7.66830882,2.30367915 7.66830882,2.09957391 C7.66830882,1.89546868 7.50370763,1.7300087 7.30066176,1.7300087 L4.51977941,1.7300087 Z" id="Stroke-11"></path>
                    <path d="M4.51977941,4.00845217 C4.31673355,4.00845217 4.15213235,4.17391216 4.15213235,4.37801739 C4.15213235,4.58212262 4.31673355,4.74758261 4.51977941,4.74758261 L7.30066176,4.74758261 C7.50370763,4.74758261 7.66830882,4.58212262 7.66830882,4.37801739 C7.66830882,4.17391216 7.50370763,4.00845217 7.30066176,4.00845217 L4.51977941,4.00845217 Z" id="Stroke-13"></path>
                    <path d="M16.8814706,1.65343478 C16.6784247,1.65343478 16.5138235,1.81889477 16.5138235,2.023 C16.5138235,2.22710523 16.6784247,2.39256522 16.8814706,2.39256522 L19.6623529,2.39256522 C19.8653988,2.39256522 20.03,2.22710523 20.03,2.023 C20.03,1.81889477 19.8653988,1.65343478 19.6623529,1.65343478 L16.8814706,1.65343478 Z" id="Stroke-15"></path>
                    <path d="M16.8814706,4.00845217 C16.6784247,4.00845217 16.5138235,4.17391216 16.5138235,4.37801739 C16.5138235,4.58212262 16.6784247,4.74758261 16.8814706,4.74758261 L19.6623529,4.74758261 C19.8653988,4.74758261 20.03,4.58212262 20.03,4.37801739 C20.03,4.17391216 19.8653988,4.00845217 19.6623529,4.00845217 L16.8814706,4.00845217 Z" id="Stroke-17"></path>
                </g>
            </g>
        </g>
    </g>
</svg>