<?xml version="1.0" encoding="UTF-8" standalone="no"?>
<svg width="52px" height="51px" viewBox="0 0 52 51" version="1.1" xmlns="http://www.w3.org/2000/svg" xmlns:xlink="http://www.w3.org/1999/xlink">
    <!-- Generator: Sketch 39.1 (31720) - http://www.bohemiancoding.com/sketch -->
    <title>ico_cremayrostro_green</title>
    <desc>Created with Sketch.</desc>
    <defs></defs>
    <g id="supermercado_categoria" stroke="none" stroke-width="1" fill="none" fill-rule="evenodd">
        <g id="Subcategorias_aseo-personal" transform="translate(-387.000000, -136.000000)" fill="#44D481">
            <g id="icon01-copy-18" transform="translate(387.000000, 136.000000)">
                <g id="crema_dgreen" transform="translate(15.000000, 16.000000)">
                    <path d="M0.227600071,8.75897548 C0.227614428,8.76100094 0.227593948,17.2684615 0.227593948,17.2684615 C0.227593948,18.6638352 2.1133155,19.6084615 4.35524912,19.6084615 L17.6918008,19.6084615 C19.9337345,19.6084615 21.819456,18.6638352 21.819456,17.2684615 L21.819456,8.73923077 C21.8181623,8.63535592 21.8035681,8.4970589 21.7639719,8.33331008 C21.6941301,8.04448136 21.4065998,7.86774922 21.1217549,7.9385678 C20.83691,8.00938638 20.6626156,8.30093812 20.7324574,8.58976684 C20.7508957,8.66601802 20.7571636,8.72541331 20.7574324,8.74626888 L20.7573871,17.2684615 C20.7573871,17.8624579 19.4217271,18.5315385 17.6918008,18.5315385 L4.35524912,18.5315385 C2.62532289,18.5315385 1.28966291,17.8624579 1.28966291,17.2684615 L1.28966291,8.75615385 C1.28948645,8.72549502 1.29518337,8.66264574 1.31310222,8.58647374 C1.38115035,8.29720514 1.20505018,8.00677118 0.919771498,7.93777133 C0.634492813,7.86877148 0.348064838,8.04733459 0.280016711,8.33660318 C0.240197176,8.50587369 0.226952761,8.65198831 0.227600071,8.75897548 Z" id="Stroke-1"></path>
                    <path d="M1.51724138,4.38153846 L2.04827586,4.92 L2.04827586,0.769230769 L1.51724138,1.30769231 L21.3081379,1.30769231 L20.7772696,0.782698072 L20.8796834,4.9334673 L21.4105517,4.38153846 L1.51724138,4.38153846 Z M21.9414201,4.9065327 L21.8390063,0.755763466 C21.8318005,0.463717092 21.5962462,0.230769231 21.3081379,0.230769231 L1.51724138,0.230769231 C1.22395913,0.230769231 0.986206897,0.471846673 0.986206897,0.769230769 L0.986206897,4.92 C0.986206897,5.2173841 1.22395913,5.45846154 1.51724138,5.45846154 L21.4105517,5.45846154 C21.7090348,5.45846154 21.9488854,5.2090957 21.9414201,4.9065327 Z" id="Stroke-3"></path>
                    <path d="M0.986206897,7.58076923 C0.986206897,7.87815333 1.22395913,8.11923077 1.51724138,8.11923077 L20.9993793,8.11923077 C21.2926616,8.11923077 21.5304138,7.87815333 21.5304138,7.58076923 L21.5304138,6.92307692 C21.5304138,6.62569283 21.2926616,6.38461538 20.9993793,6.38461538 C20.7060971,6.38461538 20.4683448,6.62569283 20.4683448,6.92307692 L20.4683448,7.58076923 L20.9993793,7.04230769 L1.51724138,7.04230769 L2.04827586,7.58076923 L2.04827586,6.92307692 C2.04827586,6.62569283 1.81052363,6.38461538 1.51724138,6.38461538 C1.22395913,6.38461538 0.986206897,6.62569283 0.986206897,6.92307692 L0.986206897,7.58076923 Z" id="Stroke-5"></path>
                    <path d="M5.31034483,15.3592308 C4.68202354,15.3592308 4.17241379,14.842672 4.17241379,14.2053846 L4.17241379,11.5384615 C4.17241379,10.9011741 4.68202354,10.3846154 5.31034483,10.3846154 L16.7958621,10.3846154 C17.4246506,10.3846154 17.9337931,10.9008787 17.9337931,11.5384615 L17.9337931,14.2053846 C17.9337931,14.8429674 17.4246506,15.3592308 16.7958621,15.3592308 L5.31034483,15.3592308 Z M18.6924138,14.2053846 L18.6924138,11.5384615 C18.6924138,10.4760443 17.8436252,9.61538462 16.7958621,9.61538462 L5.31034483,9.61538462 C4.26310754,9.61538462 3.4137931,10.4762802 3.4137931,11.5384615 L3.4137931,14.2053846 C3.4137931,15.2675659 4.26310754,16.1284615 5.31034483,16.1284615 L16.7958621,16.1284615 C17.8436252,16.1284615 18.6924138,15.2678018 18.6924138,14.2053846 Z" id="Stroke-7"></path>
                </g>
            </g>
        </g>
    </g>
</svg>