<?xml version="1.0" encoding="UTF-8" standalone="no"?>
<svg width="52px" height="51px" viewBox="0 0 52 51" version="1.1" xmlns="http://www.w3.org/2000/svg" xmlns:xlink="http://www.w3.org/1999/xlink">
    <!-- Generator: Sketch 39.1 (31720) - http://www.bohemiancoding.com/sketch -->
    <title>ico_afeitado_green</title>
    <desc>Created with Sketch.</desc>
    <defs></defs>
    <g id="supermercado_categoria" stroke="none" stroke-width="1" fill="none" fill-rule="evenodd">
        <g id="Subcategorias_aseo-personal" transform="translate(-325.000000, -136.000000)" fill="#44D481">
            <g id="icon01-copy-17" transform="translate(325.000000, 136.000000)">
                <g id="afeitado_blue" transform="translate(19.000000, 12.000000)">
                    <path d="M8.115,26.9205882 C8.42020999,26.9205882 8.66763158,26.6717112 8.66763158,26.3647059 L8.66763158,24.6605294 C8.66763158,24.3535241 8.42020999,24.1046471 8.115,24.1046471 L6.43736842,24.1046471 C6.13215843,24.1046471 5.88473684,24.3535241 5.88473684,24.6605294 L5.88473684,26.3647059 C5.88473684,26.6717112 6.13215843,26.9205882 6.43736842,26.9205882 L8.115,26.9205882 Z M6.99,26.3647059 L6.99,24.6605294 L6.43736842,25.2164118 L8.115,25.2164118 L7.56236842,24.6605294 L7.56236842,26.3647059 L8.115,25.8088235 L6.43736842,25.8088235 L6.99,26.3647059 Z M8.95421053,23.5789412 C9.25942052,23.5789412 9.50684211,23.3300642 9.50684211,23.0230588 L9.50684211,9.50638235 C9.50684211,9.19937701 9.25942052,8.9505 8.95421053,8.9505 L5.59894737,8.9505 C5.29373738,8.9505 5.04631579,9.19937701 5.04631579,9.50638235 L5.04631579,23.0230588 C5.04631579,23.3300642 5.29373738,23.5789412 5.59894737,23.5789412 L8.95421053,23.5789412 Z M6.15157895,23.0230588 L6.15157895,9.50638235 L5.59894737,10.0622647 L8.95421053,10.0622647 L8.40157895,9.50638235 L8.40157895,23.0230588 L8.95421053,22.4671765 L5.59894737,22.4671765 L6.15157895,23.0230588 Z M8.115,10.0455882 C8.42020999,10.0455882 8.66763158,9.79671123 8.66763158,9.48970588 L8.66763158,7.80220588 C8.66763158,7.49520054 8.42020999,7.24632353 8.115,7.24632353 L6.43736842,7.24632353 C6.13215843,7.24632353 5.88473684,7.49520054 5.88473684,7.80220588 L5.88473684,9.48970588 C5.88473684,9.79671123 6.13215843,10.0455882 6.43736842,10.0455882 L8.115,10.0455882 Z M6.99,9.48970588 L6.99,7.80220588 L6.43736842,8.35808824 L8.115,8.35808824 L7.56236842,7.80220588 L7.56236842,9.48970588 L8.115,8.93382353 L6.43736842,8.93382353 L6.99,9.48970588 Z M9.79263158,8.34141176 C10.0978416,8.34141176 10.3452632,8.09253476 10.3452632,7.78552941 L10.3452632,6.11470588 C10.3452632,5.80770054 10.0978416,5.55882353 9.79263158,5.55882353 L4.75973684,5.55882353 C4.45452685,5.55882353 4.20710526,5.80770054 4.20710526,6.11470588 L4.20710526,7.78552941 C4.20710526,8.09253476 4.45452685,8.34141176 4.75973684,8.34141176 L9.79263158,8.34141176 Z M5.31236842,7.78552941 L5.31236842,6.11470588 L4.75973684,6.67058824 L9.79263158,6.67058824 L9.24,6.11470588 L9.24,7.78552941 L9.79263158,7.22964706 L4.75973684,7.22964706 L5.31236842,7.78552941 Z M0.0147039924,0.613250905 C0.00744184824,0.676421959 0.00744184824,0.676421959 0.175505136,0.964496464 C0.804063263,1.14110011 0.804063263,1.14110011 0.954299729,0.966670403 C1.03034031,0.876111621 1.03034031,0.876111621 1.021057,0.886753152 C0.914897826,1.02604771 0.790443223,1.11176471 0.592105263,1.11176471 L13.9602632,1.11176471 C13.7624666,1.11176471 13.6353689,1.02387105 13.5380011,0.895939561 C13.5314242,0.89043323 13.5314242,0.89043323 13.6199268,0.987078852 C13.7795457,1.14131199 13.7795457,1.14131199 14.3397512,0.999365566 C14.538,0.717190452 14.538,0.717190452 14.535968,0.637513245 C14.5405022,0.538513348 14.5405022,0.538513348 14.5395942,0.543251925 C14.5230412,-0.189361831 13.4344737,-0.176920586 13.4344737,0.555882353 L13.4344737,6.09802941 L13.9871053,5.54214706 L0.566052632,5.54214706 L1.11868421,6.09802941 L1.11868421,0.555882353 C1.11868421,-0.176727043 0.030503648,-0.189453016 0.0135704327,0.542958351 C0.0132491092,0.534970244 0.0132491092,0.534970244 0.0147039924,0.613250905 Z M0.566052632,0.555882353 L0.0134210526,0.555882353 L0.0134210526,6.09802941 C0.0134210526,6.40503476 0.260842638,6.65391176 0.566052632,6.65391176 L13.9871053,6.65391176 C14.2923153,6.65391176 14.5397368,6.40503476 14.5397368,6.09802941 L14.5397368,0.555882353 L13.9871053,0.555882353 L13.4346164,0.568512781 C13.4343498,0.595089593 13.4343498,0.595089593 13.4387359,0.503733078 C13.4365282,0.425113661 13.4365282,0.425113661 13.6344748,0.143365075 C14.1943071,0.00155514026 14.1943071,0.00155514026 14.3533956,0.155395872 C14.4405783,0.250540116 14.4405783,0.250540116 14.4318673,0.242031027 C14.3212758,0.0966289517 14.1815465,0 13.9602632,0 L0.592105263,0 C0.370240988,0 0.233391648,0.0942537649 0.114600894,0.250621848 C0.103331563,0.264197892 0.103331563,0.264197892 0.178194103,0.175106366 C0.327968758,0.00106015159 0.327968758,0.00106015159 0.956218496,0.177530406 C1.12404201,0.465188076 1.12404201,0.465188076 1.11666114,0.527325382 C1.11816536,0.598136374 1.11816536,0.598136374 1.11853483,0.568806355 L0.566052632,0.555882353 Z" id="Stroke-1"></path>
                    <path d="M13.7668421,2.7702 C13.9848492,2.7702 14.1615789,2.59243071 14.1615789,2.37314118 C14.1615789,2.15385164 13.9848492,1.97608235 13.7668421,1.97608235 L0.394736842,1.97608235 C0.176729704,1.97608235 0,2.15385164 0,2.37314118 C0,2.59243071 0.176729704,2.7702 0.394736842,2.7702 L13.7668421,2.7702 Z" id="Stroke-3"></path>
                    <path d="M13.8141759,4.65582965 C14.0321816,4.6566383 14.2095618,4.47952576 14.2103657,4.26023772 C14.2111697,4.04094968 14.0350929,3.86252606 13.8170872,3.86171741 L0.543666157,3.81248211 C0.325660501,3.81167346 0.148280291,3.988786 0.147476368,4.20807404 C0.146672446,4.42736208 0.32274924,4.60578571 0.540754896,4.60659436 L13.8141759,4.65582965 Z" id="Stroke-4"></path>
                </g>
            </g>
        </g>
    </g>
</svg>