<?xml version="1.0" encoding="UTF-8" standalone="no"?>
<svg width="52px" height="51px" viewBox="0 0 52 51" version="1.1" xmlns="http://www.w3.org/2000/svg" xmlns:xlink="http://www.w3.org/1999/xlink">
    <!-- Generator: Sketch 39.1 (31720) - http://www.bohemiancoding.com/sketch -->
    <title>ico_desodorantes_green</title>
    <desc>Created with Sketch.</desc>
    <defs>
        <polygon id="path-1" points="0 25.831 17.6244545 25.831 17.6244545 0 0 0"></polygon>
    </defs>
    <g id="supermercado_categoria" stroke="none" stroke-width="1" fill="none" fill-rule="evenodd">
        <g id="Subcategorias_aseo-personal" transform="translate(-201.000000, -136.000000)">
            <g id="icon01-copy-15" transform="translate(201.000000, 136.000000)">
                <g id="desodorante_red" transform="translate(17.000000, 13.000000)">
                    <path d="M0.245454545,24.854375 L0.245454545,25.423125 L0.818181818,25.423125 L4.28890909,25.423125 L4.86163636,25.423125 L4.86163636,24.854375 L4.86163636,20.5814375 L4.28890909,21.1501875 L13.995,21.1501875 L13.4222727,20.5814375 L13.4222727,24.854375 L13.4222727,25.423125 L13.995,25.423125 L17.2971818,25.423125 L17.8699091,25.423125 L17.8699091,24.854375 L17.8699091,3.25 L17.8699091,2.68125 L17.2971818,2.68125 L0.818181818,2.68125 L0.245454545,2.68125 L0.245454545,3.25 L0.245454545,24.854375 Z M0.818181818,3.81875 L17.2971818,3.81875 L16.7244545,3.25 L16.7244545,24.854375 L17.2971818,24.285625 L13.995,24.285625 L14.5677273,24.854375 L14.5677273,20.5814375 L14.5677273,20.0126875 L13.995,20.0126875 L4.28890909,20.0126875 L3.71618182,20.0126875 L3.71618182,20.5814375 L3.71618182,24.854375 L4.28890909,24.285625 L0.818181818,24.285625 L1.39090909,24.854375 L1.39090909,3.25 L0.818181818,3.81875 Z" id="Stroke-1" fill="#44D481"></path>
                    <path d="M2.25881956,3.38554011 C2.31310519,3.08241949 2.39817775,2.78020825 2.51842812,2.50384494 C2.83448767,1.77746662 3.31121564,1.38125 4.03772727,1.38125 L14.0784545,1.38125 L13.9827766,1.37325751 C14.1533705,1.40196186 14.4534144,1.51496498 14.7543408,1.75370306 C15.2648043,2.15867605 15.5724545,2.78736194 15.5724545,3.744 L16.7179091,3.744 C16.7179091,2.43985681 16.2505366,1.48477708 15.4692955,0.864984443 C14.9951993,0.488863148 14.5202204,0.309975642 14.1741325,0.251742487 L14.0784545,0.24375 L4.03772727,0.24375 C2.79405709,0.24375 1.94809188,0.946845884 1.46693552,2.05265506 C1.19561458,2.67621365 1.08624643,3.28690456 1.06437164,3.71518968 L2.20835563,3.77281032 C2.21189183,3.7035754 2.22641596,3.5664756 2.25881956,3.38554011 Z" id="Stroke-3" fill="#44D481"></path>
                    <mask id="mask-2" fill="white">
                        <use xlink:href="#path-1"></use>
                    </mask>
                    <g id="Clip-6"></g>
                    <path d="M11.9822727,25.689625 L12.555,25.689625 L12.555,25.120875 L12.555,22.75 L12.555,22.18125 L11.9822727,22.18125 L5.72727273,22.18125 L5.15454545,22.18125 L5.15454545,22.75 L5.15454545,25.120875 L5.15454545,25.689625 L5.72727273,25.689625 L11.9822727,25.689625 Z M6.3,25.120875 L6.3,22.75 L5.72727273,23.31875 L11.9822727,23.31875 L11.4095455,22.75 L11.4095455,25.120875 L11.9822727,24.552125 L5.72727273,24.552125 L6.3,25.120875 Z" id="Stroke-5" fill="#44D481" mask="url(#mask-2)"></path>
                    <polygon id="Stroke-7" fill="#44D481" mask="url(#mask-2)" points="8.59090909 25.120875 9.40909091 25.120875 9.40909091 22.75 8.59090909 22.75"></polygon>
                    <polygon id="Stroke-8" fill="#44D481" mask="url(#mask-2)" points="6.95454545 25.120875 7.77272727 25.120875 7.77272727 22.75 6.95454545 22.75"></polygon>
                    <polygon id="Stroke-9" fill="#44D481" mask="url(#mask-2)" points="10.2272727 25.120875 11.0454545 25.120875 11.0454545 22.75 10.2272727 22.75"></polygon>
                    <path d="M2.86363636,18.0041875 C2.86363636,18.2285532 3.0467926,18.4104375 3.27272727,18.4104375 C3.49866194,18.4104375 3.68181818,18.2285532 3.68181818,18.0041875 L3.68181818,6.5 C3.68181818,6.27563432 3.49866194,6.09375 3.27272727,6.09375 C3.0467926,6.09375 2.86363636,6.27563432 2.86363636,6.5 L2.86363636,18.0041875 Z" id="Stroke-10" fill="#44D481" mask="url(#mask-2)"></path>
                </g>
            </g>
        </g>
    </g>
</svg>