<?xml version="1.0" encoding="UTF-8" standalone="no"?>
<svg width="52px" height="51px" viewBox="0 0 52 51" version="1.1" xmlns="http://www.w3.org/2000/svg" xmlns:xlink="http://www.w3.org/1999/xlink">
    <!-- Generator: Sketch 39.1 (31720) - http://www.bohemiancoding.com/sketch -->
    <title>ico_proteccionfemenina_grey</title>
    <desc>Created with Sketch.</desc>
    <defs></defs>
    <g id="supermercado_categoria" stroke="none" stroke-width="1" fill="none" fill-rule="evenodd">
        <g id="Subcategorias_aseo-personal" transform="translate(-139.000000, -75.000000)" fill="#D4D4D4">
            <g id="icon01-copy-10" transform="translate(139.000000, 75.000000)">
                <g id="proteccion_femenina_lgreen" transform="translate(15.000000, 14.000000)">
                    <path d="M3.12518745,14.1185394 C2.28001816,13.7076327 1.93291438,12.6997834 2.35008702,11.8669756 L5.13451126,6.31100471 C5.55181274,5.47793974 6.57504427,5.13596457 7.42074889,5.54685742 L8.00141802,5.8291827 C8.25563236,5.95278343 8.56345349,5.85002263 8.68895577,5.59966003 C8.81445805,5.34929743 8.71011631,5.04614025 8.45590198,4.92253952 L7.87510198,4.64015063 C6.52074174,3.98212306 4.88193983,4.52982858 4.21383298,5.86357997 L1.42940874,11.4195509 C0.761372563,12.7531611 1.31723014,14.3671472 2.67082706,15.0252427 L3.33533255,15.3481273 C3.58957809,15.4716657 3.89737326,15.3688295 4.02281229,15.1184361 C4.14825132,14.8680428 4.043833,14.5649112 3.78958745,14.4413727 L3.12518745,14.1185394 Z" id="Stroke-1"></path>
                    <path d="M19.2860057,11.3138369 C20.1315125,11.7246337 20.4785067,12.7328427 20.0612264,13.56531 L17.2774517,19.1214482 C16.8602401,19.9543336 15.8364031,20.2964529 14.9913596,19.8856073 L14.0775956,19.4414257 C13.8233704,19.3178466 13.5155583,19.4206336 13.3900779,19.6710069 C13.2645976,19.9213802 13.3689659,20.2245285 13.6231911,20.3481076 L14.5369244,20.7922743 C15.8905239,21.4503709 17.5300825,20.9025058 18.1981537,19.5688256 L20.9818683,14.0128073 C21.6501151,12.679666 21.0943979,11.0650016 19.7403044,10.4071037 L18.888981,9.99330755 C18.6347518,9.86973638 18.326943,9.97253297 18.2014707,10.2229102 C18.0759985,10.4732873 18.1803765,10.7764324 18.4346057,10.9000036 L19.2860057,11.3138369 Z" id="Stroke-3"></path>
                    <path d="M3.33097145,21.6362279 C2.15186499,21.0628349 1.53892858,19.7670485 1.8321444,18.5227212 C1.9016607,18.2274418 2.06028762,17.9256931 2.3100711,17.5934163 C5.6517844,13.1339912 8.09170147,8.27330715 9.62735881,3.01609123 C9.77774441,2.50150541 10.0063308,2.08618705 10.3156861,1.7918744 C11.1641811,0.983674398 12.445914,0.775501092 13.5218336,1.29811801 L18.7489099,3.83883572 C19.8243178,4.36149969 20.4364779,5.48972591 20.3016617,6.64416976 C20.2523683,7.06581541 20.0560629,7.49844344 19.7323188,7.92953007 C16.4402536,12.3037915 14.0117588,17.16807 12.4381803,22.5165683 C12.3216133,22.9123102 12.1745573,23.219592 11.9793561,23.4537416 C11.1552557,24.4400691 9.73776733,24.7496171 8.55821353,24.1763039 L3.33097145,21.6362279 Z M12.7724869,24.095775 C13.0679278,23.7413854 13.2720065,23.3149515 13.4242417,22.7981166 C14.9641684,17.5639988 17.3383823,12.8084452 20.5574362,8.53119554 C20.9808636,7.9673744 21.2496777,7.37494813 21.3215977,6.75975888 C21.5055781,5.18431666 20.6704857,3.64522061 19.2032698,2.9321322 L13.9760901,0.391364277 C12.5081557,-0.321669797 10.759692,-0.0376921501 9.60216044,1.06486846 C9.15066109,1.49441317 8.83736259,2.06364479 8.64072609,2.7364908 C7.13890428,7.87787315 4.75349479,12.6299699 1.48446761,16.9923983 C1.15825936,17.4263388 0.937490398,17.8462975 0.832032123,18.2942451 C0.431677005,19.993242 1.2676256,21.7604904 2.8765584,22.5429056 L8.10389522,25.0830276 C9.71340729,25.8653187 11.6467481,25.44312 12.7724869,24.095775 Z" id="Stroke-5"></path>
                    <path d="M6.36852681,18.1264126 L12.2880124,6.31226367 C12.6794981,5.53175196 13.6390341,5.21124134 14.4317728,5.59661176 C15.2242415,5.98155329 15.5498112,6.92710465 15.1584732,7.7079096 L9.23898755,19.5220586 C8.84750194,20.3025703 7.88796594,20.6230809 7.09522718,20.2377105 C6.30225438,19.8522263 5.97707303,18.9074486 6.36852681,18.1264126 Z M9.89654497,19.8417872 L15.8160791,8.02754144 C16.386687,6.88905369 15.9119665,5.51032359 14.7562597,4.94893924 C13.6004468,4.38706928 12.2013059,4.85441969 11.630455,5.99253506 L5.71092089,17.8067808 C5.1402303,18.9454335 5.61447307,20.3232922 6.77063949,20.885334 C7.92655317,21.4472529 9.32569414,20.9799025 9.89654497,19.8417872 Z" id="Stroke-7"></path>
                </g>
            </g>
        </g>
    </g>
</svg>