<?xml version="1.0" encoding="UTF-8" standalone="no"?>
<svg width="52px" height="51px" viewBox="0 0 52 51" version="1.1" xmlns="http://www.w3.org/2000/svg" xmlns:xlink="http://www.w3.org/1999/xlink">
    <!-- Generator: Sketch 39.1 (31720) - http://www.bohemiancoding.com/sketch -->
    <title>ico_papelhigienico_green</title>
    <desc>Created with Sketch.</desc>
    <defs></defs>
    <g id="supermercado_categoria" stroke="none" stroke-width="1" fill="none" fill-rule="evenodd">
        <g id="Subcategorias_aseo-personal" transform="translate(-77.000000, -197.000000)" fill="#44D481">
            <g id="icon01-copy-20" transform="translate(77.000000, 197.000000)">
                <g id="papel_higienico_yellow" transform="translate(15.000000, 13.000000)">
                    <path d="M10.3205801,0.907291059 L10.7344485,1.1609 L11.1486073,1.41405168 C11.1707529,1.39253506 11.1707529,1.39253506 11.2015254,1.35519969 C11.3780105,1.13179293 11.3200074,0.807712456 11.0765178,0.656744789 L11.0632754,0.648534262 C10.8346075,0.506756316 10.5320933,0.574641443 10.3888831,0.799870007 L10.3205801,0.907291059 Z M10.8027515,1.05347895 L10.5422277,1.45842363 L10.5554701,1.46663416 L10.8159939,1.06168947 L10.4304625,0.768179262 C10.4306555,0.767983689 10.4306555,0.767983689 10.4179989,0.782250221 C10.3735735,0.831921535 10.3508988,0.859488267 10.3202897,0.90774832 C9.97665311,1.44954605 10.8040596,1.95592679 11.1483169,1.41450894 L11.2166199,1.30708789 L10.8027515,1.05347895 Z" id="Stroke-1"></path>
                    <path d="M11.1490683,1.41436778 L10.320734,0.908090719 L0.826612782,15.8827223 C0.683720948,16.1080989 0.75481715,16.404575 0.985119135,16.5437048 L1.25893636,16.1467526 L0.800312703,15.9833956 C0.340549556,17.2273504 1.44864671,19.614879 3.3382814,21.3596799 C3.56207709,21.5663225 3.92238832,21.5209042 4.08574395,21.26546 C4.96604433,19.8889077 6.47635838,17.5152541 8.46263414,14.3881736 C9.331317,13.0205601 10.2379606,11.5924271 11.2040586,10.0700916 C11.5742756,9.48671968 11.9394695,8.91118799 12.3288534,8.29747517 C12.8037874,7.54890551 12.8037874,7.54890551 13.167484,6.97564433 C13.1911431,6.93730173 13.1972098,6.9276757 13.2058567,6.91474072 C13.3536911,6.69359323 13.290916,6.39666825 13.0656445,6.25154021 C12.8403731,6.10641217 12.537911,6.16803811 12.3900766,6.3891856 C12.3727812,6.41505805 12.3601842,6.43504564 12.335008,6.47602045 C11.9755351,7.04249924 11.9755351,7.04249924 11.500616,7.79104538 C11.1112485,8.40473244 10.7460716,8.9802373 10.3758736,9.56357939 C9.40983935,11.0858143 8.50326204,12.5138428 7.64832212,13.8598202 C5.64889975,17.0075981 4.1389439,19.3806887 3.2593409,20.7561505 L4.00680344,20.6619306 C2.36973485,19.1503375 1.42230053,17.1089763 1.71756002,16.3101096 C1.79649372,16.0965432 1.71172842,15.8579226 1.51463238,15.7388531 L1.24081515,16.1358053 L1.65501752,16.3888882 L11.1491387,1.41425665 C11.4928753,0.872097027 10.664692,0.365912218 10.3208045,0.907979585 C9.39608493,2.36560804 11.0406425,4.82864941 13.9376959,6.80703245 C14.1588895,6.95808445 14.4629377,6.90450605 14.6168065,6.68736173 C14.7706753,6.47021742 14.7160978,6.17173534 14.4949041,6.02068334 C11.9861922,4.30749669 10.6157622,2.25501408 11.1490683,1.41436778 Z" id="Stroke-3"></path>
                    <path d="M15.1563587,6.4506021 C14.9728708,6.33906173 14.7894595,6.22144205 14.6025458,6.09589494 L14.4808723,6.03665502 C13.5728879,5.74051162 12.8370798,5.7836575 12.4030719,6.37061095 C12.3618439,6.4326919 12.3618439,6.4326919 12.3349383,6.47602045 C12.2620048,6.5985217 12.2125032,6.70590573 12.1775742,6.83353925 C11.8822294,7.90794058 12.5458949,8.82478768 13.7505863,9.59540078 C14.0817657,9.80724854 14.4337471,9.99363018 14.7854931,10.154056 C14.997312,10.2506632 15.164068,10.3179708 15.2641032,10.3544125 L15.0192234,9.65295006 L6.70646579,22.8110027 C6.5419997,23.0713319 6.66532149,23.4142223 6.95982943,23.5154684 C9.33160839,24.3308393 11.879858,24.22886 12.7838541,23.3048926 L12.4319879,22.9731211 L12.1762919,23.3810206 C12.423071,23.5301046 12.7224511,23.4609128 12.8643175,23.2371418 L22.4260448,8.15508921 C22.5700625,7.92792494 22.4965635,7.62898405 22.2628479,7.49132181 C22.0003864,7.33672775 21.6774348,7.43405433 21.5553865,7.69211511 C21.5394116,7.72724157 21.5394116,7.72724157 21.5297653,7.75030931 C20.9387275,8.68828873 18.0438713,8.21483941 15.1563587,6.4506021 Z M22.4304128,8.118873 C22.4388033,8.09898884 21.997897,7.89380526 21.997897,7.89380526 L21.7468854,8.30449924 L22.0118364,7.90201579 L21.5976279,7.64894237 L12.0359007,22.730995 L12.4501091,22.9840684 L12.7058051,22.5761689 C12.4921452,22.4470929 12.2391662,22.4787914 12.0801217,22.6413495 C11.5047543,23.2294281 9.3328811,23.316345 7.28232815,22.6114053 L7.53569178,23.315871 L15.8484494,10.1578184 C16.0109707,9.90056749 15.8926615,9.56166867 15.6035696,9.45635596 C15.5264922,9.4282776 15.3833012,9.37048151 15.1966167,9.28533766 C14.8841905,9.14284501 14.5719998,8.97753337 14.2832851,8.79284932 C13.3950022,8.22463534 12.9679955,7.63473003 13.1197744,7.08259007 C13.1293924,7.04744625 13.1447853,7.01405447 13.174559,6.96401909 C13.189344,6.94033968 13.189344,6.94033968 13.2095015,6.90909826 C13.3017397,6.78587952 13.6250989,6.76691857 14.1732246,6.94569234 L14.3270485,6.49117368 L14.0515512,6.88645243 C14.2503566,7.01998701 14.4461445,7.14554369 14.6417156,7.26442768 C17.943704,9.28190654 21.3578449,9.84028408 22.3577858,8.26244077 C22.3886393,8.21379531 22.4053994,8.17843692 22.4304128,8.118873 Z" id="Stroke-5"></path>
                    <path d="M2.47917968,21.9673115 C1.70237384,23.1437128 2.47029991,24.1556269 4.01485156,24.9508499 C4.37589803,25.1367371 4.75958614,25.2998873 5.14291547,25.4399768 C5.37331932,25.5241789 5.5542027,25.5825624 5.66170274,25.6138184 C5.87250397,25.6751096 6.09902255,25.5904179 6.214884,25.4069928 L7.53564157,23.3160454 C7.67763957,23.0912423 7.60711441,22.7959986 7.37811922,22.6566002 C7.14912402,22.5172017 6.84837461,22.5864357 6.70637661,22.8112388 L5.38561903,24.9021862 L5.93880029,24.6953605 C5.8514502,24.6699632 5.69134587,24.6182866 5.48333694,24.5422687 C5.1359783,24.4153249 4.78897844,24.2677752 4.46804948,24.1025427 C3.36993751,23.5371723 2.96112003,22.9984639 3.29770078,22.488743 C3.41054788,22.3182074 3.6773167,21.9039714 4.08557786,21.265707 C4.22886598,21.0416943 4.16003928,20.7460645 3.93184912,20.6053995 C3.70365897,20.4647345 3.40251632,20.5323013 3.2592282,20.756314 C2.85403999,21.3897743 2.58842626,21.8022167 2.47917968,21.9673115 Z" id="Stroke-7"></path>
                    <path d="M18.0372598,1.9066774 C14.8523158,-0.0394954677 11.5564931,-0.626988292 10.4336391,0.764493155 C10.2663258,0.971833885 10.3019089,1.27306798 10.5131161,1.43731834 C10.7243233,1.6015687 11.0311748,1.56663705 11.1984881,1.35929632 C11.8893504,0.503154698 14.7194786,1.00763571 17.5216729,2.71992785 C20.3245816,4.43225943 22.035191,6.70178961 21.5576122,7.6881242 C21.4419378,7.92702423 21.5454435,8.2127469 21.7887985,8.32630362 C22.0321536,8.43986035 22.3232044,8.33824953 22.4388788,8.09934949 C23.2152119,6.49600319 21.2230352,3.85290697 18.0372598,1.9066774 Z" id="Stroke-11"></path>
                    <path d="M16.4940181,4.34107019 C17.1276696,4.72780987 17.5298435,5.22314166 17.5055327,5.36049142 C17.4594049,5.62110181 17.637217,5.8690777 17.9026873,5.91436106 C18.1681576,5.95964443 18.4207577,5.78508739 18.4668855,5.524477 C18.5809609,4.87998021 17.9482448,4.10070421 17.0094719,3.5277385 C16.0708096,2.95403325 15.0798598,2.7408353 14.541131,3.12577704 C14.3232797,3.28143985 14.2752192,3.58099983 14.4337848,3.79486298 C14.5923504,4.00872613 14.8974966,4.05590683 15.1153478,3.90024402 C15.2302016,3.81817678 15.8602851,3.95373613 16.4940181,4.34107019 Z" id="Stroke-13"></path>
                    <path d="M17.5287201,5.31651078 C17.5075695,5.34970082 16.8634993,5.24442148 16.1842316,4.82974808 C15.5048049,4.41477944 15.1241907,3.89396629 15.1477206,3.85680984 C15.1267806,3.88982528 15.1163242,3.899428 15.117326,3.89870434 C15.3343495,3.74193126 15.3808222,3.44212993 15.2211256,3.22907933 C15.061429,3.01602873 14.756037,2.97040678 14.5390134,3.12717987 C14.4459774,3.19438705 14.3799816,3.25499486 14.319223,3.35079043 C13.8866855,4.03381686 14.5741678,4.97453266 15.6688675,5.64313458 C16.7630949,6.31112901 17.9253361,6.50110829 18.3587828,5.82002994 C18.4206871,5.72063127 18.4478633,5.63266361 18.4669678,5.52354527 C18.5126099,5.26285248 18.334336,5.01519631 18.0687818,4.97038974 C17.8032276,4.92558317 17.5509531,5.10059352 17.505311,5.36128631 C17.5053385,5.36112949 17.5096673,5.34711731 17.5287201,5.31651078 Z" id="Stroke-15"></path>
                    <path d="M14.5041087,6.04397165 C13.9474078,5.85752194 13.5826369,6.57158338 14.0514118,6.88645243 C14.2502172,7.01998701 14.4460051,7.14554369 14.6415762,7.26442768 C17.9435647,9.28190654 21.3577055,9.84028408 22.3576464,8.26244077 C22.3880942,8.21443511 22.4032515,8.18258083 22.4293275,8.12153065 C22.4369003,8.10394189 22.4369003,8.10394189 22.4379205,8.10181172 C22.5549415,7.86354459 22.4530502,7.57726327 22.2103399,7.46238447 C21.9676296,7.34750568 21.6760097,7.44753169 21.5589886,7.68579881 C21.5402171,7.72582957 21.5402171,7.72582957 21.5294729,7.75112555 C20.9385881,8.68828873 18.0437319,8.21483941 15.1562193,6.4506021 C14.9727314,6.33906173 14.7893201,6.22144205 14.6024064,6.09589494 L14.3269091,6.49117368 L14.1689887,6.94433643 C14.197902,6.95371906 14.197902,6.95371906 14.2179231,6.95973984 C14.2374874,6.96566799 14.2374874,6.96566799 14.2422236,6.96727218 C14.4958266,7.05664259 14.7752125,6.92726932 14.8662495,6.67830891 C14.9572865,6.42934849 14.8255007,6.15507717 14.5718977,6.06570676 C14.530264,6.05178356 14.530264,6.05178356 14.5041087,6.04397165 Z" id="Stroke-17"></path>
                    <path d="M10.4211261,0.778561045 C10.3750867,0.830134235 10.3507939,0.859873391 10.3204291,0.90774832 C9.39584411,2.36602499 11.0408077,4.82899054 13.9381146,6.80680671 L14.1719837,6.93597445 C14.4081331,7.06335154 14.7047551,6.97867872 14.8345075,6.74685241 C14.96426,6.51502611 14.8780082,6.22383422 14.6418588,6.09645713 L14.451586,5.99382555 C11.9862184,4.30764367 10.6154354,2.25520246 11.148788,1.41398644 C11.1722974,1.39050751 11.1722974,1.39050751 11.1978615,1.35995194 C11.3656591,1.15298874 11.3307805,0.851675264 11.1199578,0.686949453 C10.9091352,0.522223642 10.6022028,0.556463809 10.4344052,0.763427008 C10.4323228,0.765941616 10.4323228,0.765941616 10.4211261,0.778561045 Z" id="Stroke-19"></path>
                    <path d="M13.983504,6.83921364 C14.0127174,6.86019331 14.0127174,6.86019331 14.0506568,6.88627287 L14.1721404,6.94554305 C14.1998606,6.95434172 14.1998606,6.95434172 14.2191123,6.96007276 C14.221893,6.96090323 14.221893,6.96090323 14.2244322,6.96166323 C14.238794,6.96602856 14.238794,6.96602856 14.2424327,6.96727218 C14.808633,7.16680275 15.1692267,6.37996276 14.6415478,6.09637577 L14.4505781,5.99374419 C13.9077754,5.70202932 13.4300525,6.46558488 13.9405356,6.80895708 C13.9583538,6.82119331 13.9583538,6.82119331 13.983504,6.83921364 Z M14.2163,6.41385789 L13.9820219,6.8339716 L14.1729916,6.93660318 L14.4072697,6.51648947 L14.5721067,6.06570676 C14.5351469,6.05326618 14.5351469,6.05326618 14.5092587,6.04548677 C14.5060479,6.04452577 14.5060479,6.04452577 14.5030776,6.04363873 C14.4878019,6.03906473 14.4878019,6.03906473 14.480702,6.03680432 L14.3264212,6.49117368 L14.6021856,6.0960745 C14.5843674,6.08383827 14.5843674,6.08383827 14.5592172,6.06581794 C14.5300038,6.04483827 14.5300038,6.04483827 14.4920644,6.01875871 L14.2163,6.41385789 Z" id="Stroke-21"></path>
                    <path d="M16.9359901,3.64399723 C16.0406649,3.09677952 15.1012675,2.8946728 14.6230922,3.23634676 C14.4674842,3.34753448 14.4331552,3.56150589 14.5464164,3.71426529 C14.6596775,3.86702468 14.8776391,3.90072518 15.0332472,3.78953746 C15.2086545,3.66420243 15.8902903,3.81085301 16.567622,4.22483435 C17.2450651,4.63888377 17.6798953,5.17426542 17.6427991,5.38384951 C17.6098507,5.56999979 17.7368594,5.74712542 17.926481,5.77947068 C18.1161026,5.81181595 18.2965313,5.68713234 18.3294797,5.50098207 C18.4306993,4.92911732 17.8314524,4.19129875 16.9359901,3.64399723 Z" id="Stroke-23"></path>
                </g>
            </g>
        </g>
    </g>
</svg>