<?xml version="1.0" encoding="UTF-8" standalone="no"?>
<svg width="52px" height="51px" viewBox="0 0 52 51" version="1.1" xmlns="http://www.w3.org/2000/svg" xmlns:xlink="http://www.w3.org/1999/xlink">
    <!-- Generator: Sketch 39.1 (31720) - http://www.bohemiancoding.com/sketch -->
    <title>ico_aseopersonal_grey</title>
    <desc>Created with Sketch.</desc>
    <defs></defs>
    <g id="supermercado_categoria" stroke="none" stroke-width="1" fill="none" fill-rule="evenodd">
        <g id="Subcategorias_aseo-personal" transform="translate(-15.000000, -14.000000)" fill="#D4D4D4">
            <g id="icon01" transform="translate(15.000000, 14.000000)">
                <g id="aseopersonal_red" transform="translate(16.000000, 11.000000)">
                    <path d="M15.6333688,6.99814583 C15.5673048,7.09792396 15.5093655,7.15422801 15.4939472,7.16054309 C15.5545327,7.13572824 15.6459228,7.15959355 15.6683902,7.1855831 C15.648997,7.16317965 15.648997,7.16317965 15.6291085,7.14049737 C15.3931296,6.87220953 14.2815241,5.77572999 14.2919073,5.78628143 C14.1225201,5.61415113 13.8543575,5.59423293 13.6620867,5.73950052 C13.1585749,6.119922 12.5351187,6.36566 12.0048276,6.36566 C11.5395499,6.36566 11.0936351,6.24463414 10.6995906,6.01686509 C10.3314858,5.80408999 9.89115072,6.1413445 9.99173841,6.55901201 C10.0133003,6.64854299 10.0241379,6.73972213 10.0241379,6.83466 C10.0241379,7.48314047 9.50717288,8.00786 8.86827586,8.00786 C8.23021886,8.00786 7.71241379,7.48259333 7.71241379,6.83466 C7.71241379,6.18672667 8.23021886,5.66146 8.86827586,5.66146 C8.96282361,5.66146 9.05758586,5.67323248 9.15381484,5.69646268 C9.56323346,5.79529855 9.89253282,5.35214998 9.68639791,4.97974878 C9.46720971,4.58376563 9.35103448,4.13796394 9.35103448,3.67206 C9.35103448,2.18619632 10.5399043,0.97986 12.0048276,0.97986 C13.4689873,0.97986 14.6572414,2.18612113 14.6572414,3.67206 C14.6572414,4.00971355 14.5965502,4.33666424 14.4793479,4.64093955 C14.3434236,4.99382031 14.6366331,5.36306715 15.0052368,5.30320591 C15.0518051,5.29564321 15.0965328,5.29186 15.14,5.29186 C15.5775177,5.29186 15.9317241,5.65137953 15.9317241,6.09546 C15.9317241,6.34740528 15.8035205,6.7411611 15.6333688,6.99814583 Z M15.14,4.31186 C15.0441569,4.31186 14.9485547,4.31994635 14.8526942,4.33551409 L14.9289655,4.81936 L15.3785831,4.99778045 C15.5396015,4.57975172 15.6227586,4.13177424 15.6227586,3.67206 C15.6227586,1.6449154 14.0022606,-0.00014 12.0048276,-0.00014 C10.0067294,-0.00014 8.38551724,1.64489061 8.38551724,3.67206 C8.38551724,4.30699892 8.54473673,4.91797527 8.84463657,5.45977122 L9.26551724,5.21976 L9.37721964,4.74305732 C9.20931515,4.70252427 9.03975893,4.68146 8.86827586,4.68146 C7.69710404,4.68146 6.74689655,5.64536003 6.74689655,6.83466 C6.74689655,8.02395997 7.69710404,8.98786 8.86827586,8.98786 C10.0404133,8.98786 10.9896552,8.02437953 10.9896552,6.83466 C10.9896552,6.66124898 10.9695316,6.4919452 10.9296409,6.32630799 L10.4606897,6.44266 L10.2217888,6.86845491 C10.7607254,7.17997574 11.3711822,7.34566 12.0048276,7.34566 C12.7622002,7.34566 13.5797162,7.02343247 14.238603,6.52561948 L13.6087823,6.47883857 C13.623515,6.49380985 14.6996492,7.55530073 14.9088607,7.79315625 C14.9257319,7.81239747 14.9257319,7.81239747 14.9423243,7.8315663 C15.4284412,8.39389132 16.0377705,8.14431961 16.4347347,7.54477417 C16.7078806,7.13223473 16.8972414,6.55064479 16.8972414,6.09546 C16.8972414,5.11014047 16.1107582,4.31186 15.14,4.31186 Z" id="Stroke-1"></path>
                    <path d="M2.52096552,5.07213 C2.20620643,5.07213 1.95131034,4.81341047 1.95131034,4.49393 C1.95131034,4.17444953 2.20620643,3.91573 2.52096552,3.91573 C2.8357246,3.91573 3.09062069,4.17444953 3.09062069,4.49393 C3.09062069,4.81341047 2.8357246,5.07213 2.52096552,5.07213 Z M2.52096552,2.93573 C1.67296598,2.93573 0.985793103,3.63321047 0.985793103,4.49393 C0.985793103,5.35464953 1.67296598,6.05213 2.52096552,6.05213 C3.36896505,6.05213 4.05613793,5.35464953 4.05613793,4.49393 C4.05613793,3.63321047 3.36896505,2.93573 2.52096552,2.93573 Z" id="Stroke-3"></path>
                    <path d="M5.93206897,4.43548 C5.39593057,4.43548 4.96103448,3.99406047 4.96103448,3.44988 C4.96103448,2.90569953 5.39593057,2.46428 5.93206897,2.46428 C6.46820736,2.46428 6.90310345,2.90569953 6.90310345,3.44988 C6.90310345,3.99406047 6.46820736,4.43548 5.93206897,4.43548 Z M5.93206897,1.48428 C4.86269012,1.48428 3.99551724,2.36446047 3.99551724,3.44988 C3.99551724,4.53529953 4.86269012,5.41548 5.93206897,5.41548 C7.00144781,5.41548 7.86862069,4.53529953 7.86862069,3.44988 C7.86862069,2.36446047 7.00144781,1.48428 5.93206897,1.48428 Z" id="Stroke-5"></path>
                    <path d="M15.912069,23.597 C15.7504133,23.597 15.6189655,23.4635805 15.6189655,23.2995 C15.6189655,23.1354195 15.7504133,23.002 15.912069,23.002 C16.0737246,23.002 16.2051724,23.1354195 16.2051724,23.2995 C16.2051724,23.4635805 16.0737246,23.597 15.912069,23.597 Z M15.912069,22.022 C15.2171729,22.022 14.6534483,22.5941805 14.6534483,23.2995 C14.6534483,24.0048195 15.2171729,24.577 15.912069,24.577 C16.6069651,24.577 17.1706897,24.0048195 17.1706897,23.2995 C17.1706897,22.5941805 16.6069651,22.022 15.912069,22.022 Z" id="Stroke-7"></path>
                    <path d="M4.00531034,27.02077 C4.17845385,27.02077 4.21341199,27.0704158 4.22900166,27.1161282 C4.20883859,27.0570056 4.18766302,26.9594197 4.16913894,26.8373073 C4.13383725,26.6045954 4.11151724,26.3037414 4.11151724,26.09327 C4.11151724,24.5944282 5.3110334,23.35277 6.76875862,23.35277 C7.9159362,23.35277 8.81493796,24.0845864 9.16306279,25.2433558 L9.49289655,25.14127 L9.14806897,25.14127 C9.14806897,25.3609304 9.46886443,25.60887 9.64393103,25.60887 L9.7904064,25.5757241 C10.1916737,25.3846195 10.4537393,25.30017 10.7156552,25.30017 C11.7813704,25.30017 12.7277668,25.6832283 13.0186433,26.304998 C13.0747501,26.4249303 13.1928823,26.5023155 13.3236634,26.5048083 L13.47056,26.5076083 C13.5902554,26.5098898 13.7025515,26.4489947 13.7672214,26.3467371 C14.0557915,25.8904425 14.8510835,25.6680557 15.5387253,25.8414454 C16.2627309,26.0241749 16.9342672,26.8116729 16.9091389,27.3543381 L17.2535862,27.02077 L4.00531034,27.02077 Z M17.5980336,27.3872019 C17.6396869,26.4876664 16.7298889,25.4207633 15.705072,25.1621131 C14.75465,24.922463 13.6537637,25.2303029 13.1868476,25.9686029 L13.4770345,26.15767 L13.483509,25.8077317 L13.3366124,25.8049317 L13.3301379,26.15487 L13.6416325,26.004742 C13.2101431,25.0824019 12.0187251,24.60017 10.7156552,24.60017 C10.3258125,24.60017 9.98387278,24.7103585 9.49745567,24.9420159 L9.64393103,25.25887 L9.64393103,24.90887 C9.87625389,24.9840094 9.87625389,24.9840094 9.82637876,24.9606851 C9.80400102,24.9436241 9.80400102,24.9436241 9.77680113,24.9226603 C9.74977506,24.9017121 9.74977506,24.9017121 9.72875441,24.885146 C9.69616812,24.8308618 9.69616812,24.8308618 9.83772414,25.14127 L9.82273031,25.0391842 C9.38907904,23.5957313 8.23069578,22.65277 6.76875862,22.65277 C4.92708261,22.65277 3.42186207,24.2108727 3.42186207,26.09327 C3.42186207,27.0200633 3.52815715,27.72077 4.00531034,27.72077 L17.2535862,27.72077 C17.437735,27.72077 17.5893881,27.5739068 17.5980336,27.3872019 Z" id="Stroke-9"></path>
                    <path d="M5.67660348,22.5469025 L1.37816727,17.7192096 C1.10428093,17.411652 0.96430977,17.0156736 0.973665764,16.6023038 C0.988353604,15.9533604 0.0315574538,15.9247547 0.00858735996,16.5734504 C0.00112649825,16.7841517 0.0172587836,16.980507 0.0492684809,17.1627483 C0.0617663365,17.2339025 0.0679327526,17.261708 0.0872706579,17.3430239 L0.57855075,20.1407791 C0.592711544,20.2212771 0.626494889,20.2968981 0.676821954,20.3607506 L1.05655172,20.05815 L0.575690444,20.1015502 C0.628257153,20.7015776 0.867060407,21.2680215 1.27147188,21.7222725 L3.95699867,24.7385832 C4.16833704,24.9759527 4.54345898,24.9474216 4.71758446,24.6807344 C5.00795324,24.2360112 5.43333347,23.8914269 5.93278671,23.6962206 C6.30369531,23.5512546 6.35275732,23.0388937 6.01629384,22.8241447 C5.87204776,22.7320792 5.7633795,22.6442515 5.67660348,22.5469025 Z M5.75931034,23.23895 L5.58583398,22.7816794 C4.90021529,23.0496468 4.31443988,23.5241611 3.91276037,24.1393656 L4.67334616,24.0815168 L1.98782892,21.0652168 C1.72579752,20.7708928 1.57161706,20.4051751 1.537413,20.0147498 C1.52899974,19.9187159 1.49286142,19.8273352 1.43352287,19.7520494 L1.0537931,20.05465 L1.52903546,19.9685209 L1.03179408,17.1419209 C1.01100893,17.0507418 1.0077741,17.0361554 0.999798295,16.9907466 C0.979161018,16.8732521 0.968644605,16.7452508 0.973481606,16.6086496 L0.491034483,16.59105 L0.00840320141,16.5797962 C-0.00653448109,17.2397782 0.219704162,17.8798073 0.661859865,18.3763209 L4.96045342,23.2041904 C5.11320833,23.3755575 5.2887829,23.5174601 5.50232685,23.6537553 L5.75931034,23.23895 Z" id="Stroke-11"></path>
                    <path d="M19.7790998,15.5242758 C19.7814737,15.3853297 19.7167703,14.7919317 19.5902773,13.7242279 C19.5836871,13.6686377 19.5836871,13.6686377 19.577089,13.6131198 C19.5335665,13.24713 19.4869486,12.8614782 19.4403323,12.4800858 C19.4123622,12.2512484 19.3906026,12.0746368 19.3781552,11.974215 C19.359756,11.8065588 19.3135741,11.634245 19.2425567,11.4477912 C19.0156444,10.8520405 18.1344457,11.1747644 18.3345837,11.7803206 C18.534053,12.3838534 18.3680341,13.0548676 17.8961989,13.48762 L7.90927844,22.648542 C7.8356397,22.7161668 7.75378733,22.7770123 7.66214612,22.832936 C7.32498423,23.0386875 7.3588527,23.5454277 7.72030273,23.7030756 C8.35816806,23.981283 8.83768348,24.5506716 9.062144,25.2995044 L9.524,25.15688 L9.04124138,25.15688 C9.04124138,25.4642666 9.43111407,25.76378 9.67503448,25.76378 C9.74624835,25.76378 9.81658025,25.7477884 9.88098833,25.7169515 C9.8977047,25.7091459 9.8977047,25.7091459 9.92302607,25.6979799 C9.96396336,25.6799752 9.96396336,25.6799752 9.98859452,25.6687596 L10.1125197,25.5862134 L18.8766576,17.5467134 C19.4442498,17.0259069 19.762675,16.3013424 19.7790576,15.5390663 L19.2964138,15.52838 L19.6377757,15.8748623 C19.744496,15.7665412 19.7953018,15.6162446 19.7768238,15.466203 L19.7790998,15.5242758 Z M18.8173831,15.576557 L19.2977931,15.52698 L18.9564312,15.1804977 C18.8670943,15.2711747 18.8164828,15.391467 18.81377,15.5176937 C18.8031121,16.0136027 18.5972739,16.4819798 18.2292241,16.8196918 L9.46513549,24.8591466 L9.78882759,25.22268 L9.58906065,24.7766004 C9.54965885,24.7941577 9.54965885,24.7941577 9.53980151,24.7984801 C9.50788151,24.8125141 9.50788151,24.8125141 9.46908064,24.8306085 L9.67503448,25.27378 L9.67503448,24.78378 C10.0010236,24.8894528 10.0010236,24.8894528 9.93900406,24.8627674 C9.91713632,24.8461964 9.91713632,24.8461964 9.8903475,24.8256742 C9.8637867,24.8052095 9.8637867,24.8052095 9.84374983,24.7895123 C9.80551524,24.7194689 9.80551524,24.7194689 10.0067586,25.15688 L9.985856,25.0142556 C9.68085478,23.9967274 9.00839835,23.1982358 8.10149038,22.8026844 L7.91089655,23.25288 L8.15964699,23.672824 C8.30325812,23.585186 8.43546329,23.4869103 8.55685471,23.3754325 L18.5435491,14.214718 C19.3031959,13.5179938 19.5703776,12.4381005 19.249968,11.4686394 L18.7922759,11.62448 L18.341995,11.8011688 C18.3853218,11.9149218 18.4104927,12.0088395 18.4193962,12.0897628 C18.4325718,12.1964402 18.4542639,12.3725036 18.4821604,12.6007396 C18.528655,12.9811364 18.575148,13.365754 18.618529,13.7305544 C18.625102,13.7858616 18.625102,13.7858616 18.6316658,13.8412292 C18.7410022,14.7641163 18.8148532,15.4414081 18.8137277,15.5072842 L18.8173831,15.576557 Z" id="Stroke-13"></path>
                    <path d="M5.4956785,23.6412011 C5.62410611,23.7226012 5.7827195,23.7381288 5.92410705,23.6831424 C6.22035935,23.5679283 6.51055288,23.50838 6.79965517,23.50838 C7.1217403,23.50838 7.42607224,23.5747367 7.7199712,23.7030212 C7.86271247,23.7653266 8.02627444,23.7540878 8.15944009,23.672824 C8.3047354,23.5841582 8.43738266,23.4857117 8.55786204,23.3743137 L18.5433422,14.214718 C19.302989,13.5179938 19.5701707,12.4381005 19.2497611,11.4686394 C19.1048326,11.0848813 18.8777005,10.7273361 18.5944171,10.4090878 L15.8192135,7.29195272 C15.7789277,7.2467034 15.7306736,7.20948519 15.6769307,7.18221068 C15.4231533,6.88632845 14.2998283,5.77829111 14.3223964,5.80119768 C14.1529856,5.62924579 13.8849607,5.60941821 13.6927763,5.75462052 C13.1893425,6.1349831 12.5658979,6.38078 12.0362069,6.38078 C11.5841528,6.38078 11.1495255,6.26496583 10.7611378,6.04663224 C10.578426,5.9439201 10.3513595,5.97211703 10.1984326,6.1165085 C10.0445492,6.26180301 9.99010475,6.43667976 10.0253716,6.60513079 C10.0458844,6.70310942 10.0555172,6.77981528 10.0555172,6.84978 C10.0555172,7.49826047 9.53855219,8.02298 8.89965517,8.02298 C8.79166451,8.02298 8.67841807,8.0022111 8.54947714,7.9599196 C8.38536545,7.9060924 8.20542797,7.94521672 8.07744153,8.06255565 L6.72295877,9.30435565 L0.981452225,14.5719723 C0.436497571,15.0573458 0.135715246,15.6216004 0.035321082,16.226825 C0.0257754089,16.2859584 0.0257754089,16.2859584 0.0225863735,16.3060458 C0.0163400117,16.3460586 0.0119563917,16.3799814 0.00895599703,16.4160186 C0.00484506219,16.4571636 0.00307960587,16.4912104 0.000652415143,16.5601912 C-0.0144630261,17.2271899 0.21180994,17.8673161 0.654200768,18.363256 L4.95252238,23.1908204 C5.10515192,23.3628632 5.28183946,23.5056654 5.4956785,23.6412011 Z M1.37023624,17.7058396 C1.09628725,17.3987302 0.956377318,17.002925 0.965735073,16.5889186 C0.967265222,16.5465496 0.968258386,16.5273964 0.970362781,16.5060368 C0.97839672,16.4456153 0.97839672,16.4456153 0.981071273,16.4292988 C1.05163132,16.0025437 1.24374628,15.6421444 1.62361163,15.3037619 L7.37027191,10.0314877 L8.72462743,8.78980435 L8.40103448,8.42618 L8.25259182,8.8924404 C8.47163607,8.964285 8.682628,9.00298 8.89965517,9.00298 C10.0717926,9.00298 11.0210345,8.03949953 11.0210345,6.84978 C11.0210345,6.70283639 11.0032432,6.5611655 10.9698008,6.40142921 L10.4975862,6.50328 L10.826395,6.8620515 L10.5272414,6.47528 L10.2933449,6.90392776 C10.8237985,7.20212429 11.4192015,7.36078 12.0362069,7.36078 C12.7930163,7.36078 13.6104982,7.03848268 14.2692926,6.54073948 L13.6396726,6.49416232 C13.6423125,6.49684184 14.7299159,7.56964372 14.940446,7.80858794 C15.0539682,7.93939312 15.1434894,8.00716254 15.2451383,8.05874932 L15.4610345,7.62048 L15.1028555,7.94900728 L17.8780279,11.0661073 C18.0858907,11.299626 18.24908,11.5565142 18.3414883,11.8003797 C18.5338461,12.3838534 18.3678272,13.0548676 17.895992,13.48762 L7.90907154,22.648542 C7.83646022,22.7156749 7.75489391,22.7762108 7.66193922,22.832936 L7.91068966,23.25288 L8.10140811,22.8027388 C7.68948266,22.6229368 7.25581674,22.52838 6.79965517,22.52838 C6.38660776,22.52838 5.98062202,22.6116892 5.57865157,22.7680176 L5.75137931,23.22558 L6.00708012,22.8099589 C5.86419473,22.7193951 5.7559544,22.6319133 5.66943676,22.5343919 L1.37023624,17.7058396 Z" id="Stroke-15"></path>
                </g>
            </g>
        </g>
    </g>
</svg>