<?xml version="1.0" encoding="UTF-8" standalone="no"?>
<svg width="52px" height="51px" viewBox="0 0 52 51" version="1.1" xmlns="http://www.w3.org/2000/svg" xmlns:xlink="http://www.w3.org/1999/xlink">
    <!-- Generator: Sketch 39.1 (31720) - http://www.bohemiancoding.com/sketch -->
    <title>ico_jabones_green</title>
    <desc>Created with Sketch.</desc>
    <defs>
        <polygon id="path-1" points="0 23.6514353 17.748 23.6514353 17.748 0.000141176471 0 0.000141176471"></polygon>
    </defs>
    <g id="supermercado_categoria" stroke="none" stroke-width="1" fill="none" fill-rule="evenodd">
        <g id="Subcategorias_aseo-personal" transform="translate(-263.000000, -136.000000)">
            <g id="icon01-copy-16" transform="translate(263.000000, 136.000000)">
                <g id="jabon_dgreen" transform="translate(17.000000, 14.000000)">
                    <path d="M4.104,22.6632 C2.39443151,22.6632 1.008,21.3039534 1.008,19.6279059 L1.008,9.86484706 C1.008,8.1883527 2.39416724,6.82955294 4.104,6.82955294 L13.644,6.82955294 C15.3538328,6.82955294 16.74,8.1883527 16.74,9.86484706 L16.74,19.6279059 C16.74,21.3039534 15.3535685,22.6632 13.644,22.6632 L4.104,22.6632 Z M17.748,19.6279059 L17.748,9.86484706 C17.748,7.64253485 15.9105046,5.84131765 13.644,5.84131765 L4.104,5.84131765 C1.83749538,5.84131765 0,7.64253485 0,9.86484706 L0,19.6279059 C0,21.8497407 1.83772849,23.6514353 4.104,23.6514353 L13.644,23.6514353 C15.9102715,23.6514353 17.748,21.8497407 17.748,19.6279059 Z" id="Stroke-1" fill="#44D481"></path>
                    <mask id="mask-2" fill="white">
                        <use xlink:href="#path-1"></use>
                    </mask>
                    <g id="Clip-4"></g>
                    <path d="M10.09728,4.58908235 C10.3756315,4.58908235 10.60128,4.36785835 10.60128,4.09496471 L10.60128,0.528847059 C10.60128,0.255953418 10.3756315,0.0347294118 10.09728,0.0347294118 L7.48944,0.0347294118 C7.21108849,0.0347294118 6.98544,0.255953418 6.98544,0.528847059 L6.98544,4.09496471 C6.98544,4.36785835 7.21108849,4.58908235 7.48944,4.58908235 L10.09728,4.58908235 Z M7.99344,4.09496471 L7.99344,0.528847059 L7.48944,1.02296471 L10.09728,1.02296471 L9.59328,0.528847059 L9.59328,4.09496471 L10.09728,3.60084706 L7.48944,3.60084706 L7.99344,4.09496471 Z" id="Stroke-3" fill="#44D481" mask="url(#mask-2)"></path>
                    <path d="M12.96216,6.73496471 C13.2405115,6.73496471 13.46616,6.5137407 13.46616,6.24084706 L13.46616,4.12602353 C13.46616,3.85312989 13.2405115,3.63190588 12.96216,3.63190588 L4.72104,3.63190588 C4.44268849,3.63190588 4.21704,3.85312989 4.21704,4.12602353 L4.21704,6.24084706 C4.21704,6.5137407 4.44268849,6.73496471 4.72104,6.73496471 L12.96216,6.73496471 Z M5.22504,6.24084706 L5.22504,4.12602353 L4.72104,4.62014118 L12.96216,4.62014118 L12.45816,4.12602353 L12.45816,6.24084706 L12.96216,5.74672941 L4.72104,5.74672941 L5.22504,6.24084706 Z" id="Stroke-5" fill="#44D481" mask="url(#mask-2)"></path>
                    <path d="M12.7713864,0.98801888 C12.7698103,0.991943649 12.8866698,1.00913867 13.0387117,1.03649621 C13.2921372,1.08209612 13.5450556,1.13921578 13.7776882,1.20777367 C14.2015454,1.33268631 14.497413,1.48337964 14.5743131,1.59367807 C14.7313871,1.81897066 15.0450092,1.8767695 15.2748076,1.72277538 C15.5046061,1.56878127 15.5635609,1.26130864 15.4064869,1.03601605 C15.1594329,0.681664332 14.7000104,0.447668094 14.0678649,0.261371989 C13.7958078,0.181195528 13.5079871,0.116193439 13.2206736,0.0644959163 C13.0482722,0.0334750036 12.9127868,0.0135393248 12.8317135,0.00360387268 L5.29845357,0.0315575907 C5.02010468,0.0327414429 4.79543721,0.254923069 4.79664474,0.527814142 C4.79785227,0.800705215 5.02447753,1.02096744 5.30282643,1.01978359 L12.7713864,0.98801888 Z" id="Stroke-6" fill="#44D481" mask="url(#mask-2)"></path>
                    <path d="M2.7,19.7534824 C2.7,20.026376 2.92564849,20.2476 3.204,20.2476 C3.48235151,20.2476 3.708,20.026376 3.708,19.7534824 L3.708,11.4593647 C3.708,11.1864711 3.48235151,10.9652471 3.204,10.9652471 C2.92564849,10.9652471 2.7,11.1864711 2.7,11.4593647 L2.7,19.7534824 Z" id="Stroke-7" fill="#44D481" mask="url(#mask-2)"></path>
                </g>
            </g>
        </g>
    </g>
</svg>