<?xml version="1.0" encoding="UTF-8" standalone="no"?>
<svg width="52px" height="51px" viewBox="0 0 52 51" version="1.1" xmlns="http://www.w3.org/2000/svg" xmlns:xlink="http://www.w3.org/1999/xlink">
    <!-- Generator: Sketch 39.1 (31720) - http://www.bohemiancoding.com/sketch -->
    <title>ico_accesorios_grey</title>
    <desc>Created with Sketch.</desc>
    <defs></defs>
    <g id="supermercado_categoria" stroke="none" stroke-width="1" fill="none" fill-rule="evenodd">
        <g id="Subcategorias_aseo-personal" transform="translate(-263.000000, -75.000000)" fill="#D4D4D4">
            <g id="icon01-copy-12" transform="translate(263.000000, 75.000000)">
                <g id="accesotios_aseo_personal_red" transform="translate(17.000000, 12.000000)">
                    <path d="M3.78280338,25.8117417 C4.26726612,25.9801723 4.79605695,25.7204671 4.96255747,25.2317383 C5.12943721,24.7417813 4.87223956,24.2094232 4.38762009,24.040501 C3.90213048,23.8725468 3.37420234,24.1322205 3.20713086,24.621473 C3.0406289,25.1102057 3.29817212,25.6440855 3.78280338,25.8117417 Z M4.14355338,24.756066 C4.23628253,24.7883894 4.28568169,24.8906378 4.25328372,24.9857578 C4.22161749,25.0787077 4.12007233,25.1285796 4.02658658,25.096078 C3.93400586,25.0640496 3.88443558,24.9612918 3.91630747,24.8677383 C3.94841712,24.7737086 4.05004907,24.7237186 4.14355338,24.756066 Z" id="Stroke-1"></path>
                    <path d="M12.1902604,1.19416215 C7.5664305,-0.413735462 2.39090868,2.54818349 0.608091347,7.76867785 C-0.851869256,12.0430574 0.391601799,16.6401978 3.59420478,19.0220456 L3.40935639,18.4230122 L1.49535639,24.0260392 C1.00263397,25.468837 1.7625243,27.0416886 3.19241409,27.538841 C4.62325304,28.0360007 6.18121771,27.2698278 6.67384261,25.8263794 L8.58779361,20.2234959 L8.07646223,20.5803895 C12.0529495,20.6949802 15.8390771,17.8467576 17.2990498,13.5723426 C19.0818454,8.35111496 16.8141074,2.80206568 12.1902604,1.19416215 Z M8.10643777,19.5213619 C7.87699907,19.5147501 7.66990286,19.6592969 7.59510639,19.8782554 L5.68110639,25.4812825 C5.37728258,26.3715216 4.41693834,26.8437978 3.53438676,26.5371462 C2.65284782,26.2306476 2.18427563,25.2607781 2.48805846,24.3712362 L4.40204361,18.7682527 C4.47684755,18.5492723 4.40197878,18.306647 4.21719522,18.1692193 C1.39686222,16.0716743 0.285766249,11.9639276 1.60079982,8.11385613 C3.20356487,3.42059575 7.80215783,0.7888496 11.8481396,2.19580542 C15.894176,3.60278025 17.9091002,8.53320571 16.3063333,13.2271879 C14.9913013,17.0772547 11.6082216,19.622273 8.10643777,19.5213619 Z" id="Stroke-3"></path>
                    <path d="M13.7383434,14.1949731 C13.9245088,14.1034049 14.0018578,13.8768978 13.9111073,13.6890553 C13.8203567,13.5012127 13.5958719,13.4231669 13.4097066,13.514735 L6.85395656,16.7392756 C6.66779117,16.8308437 6.59044217,17.0573508 6.68119274,17.2451934 C6.77194331,17.4330359 6.99642805,17.5110818 7.18259344,17.4195136 L13.7383434,14.1949731 Z M3.91846275,14.3025158 C3.73229569,14.3940804 3.65494257,14.6205861 3.74568972,14.8084304 C3.83643687,14.9962746 4.06092019,15.0743246 4.24708725,14.9827599 L14.7650872,9.80957073 C14.9512543,9.71800604 15.0286074,9.49150035 14.9378603,9.30365611 C14.8471131,9.11581187 14.6226298,9.03776187 14.4364628,9.12932657 L3.91846275,14.3025158 Z M9.71893222,14.0876119 L5.55948231,16.1331007 C5.37330998,16.2246545 5.29594384,16.4511557 5.38668019,16.6390052 C5.47741654,16.8268548 5.70189537,16.9049179 5.88806769,16.8133641 L10.0475677,14.7678506 L14.4193678,12.6171233 C14.6055266,12.5255416 14.6828594,12.2990288 14.5920954,12.1111929 C14.5013314,11.9233569 14.2768411,11.8453274 14.0906822,11.9369092 L9.71893222,14.0876119 Z" id="Stroke-5"></path>
                    <path d="M5.03563483,19.8237892 C5.94861689,20.2204936 6.95882205,20.4911845 8.04964757,20.5787842 C8.33868308,20.6019955 8.59164108,20.3843914 8.61464508,20.092752 C8.63764908,19.8011126 8.42198794,19.5458757 8.13295243,19.5226644 C7.16292927,19.4447659 6.26328198,19.2036996 5.45093098,18.850721 C5.10043092,18.6984234 4.79088331,18.5357624 4.52617529,18.3741014 C4.37166156,18.2797376 4.26932719,18.2090507 4.22300429,18.173566 C3.99206751,17.9966613 3.66272714,18.0421496 3.48740197,18.2751668 C3.31207681,18.5081841 3.35715893,18.8404915 3.58809571,19.0173962 C3.8621181,19.2273058 4.35345228,19.5273707 5.03563483,19.8237892 Z" id="Stroke-7"></path>
                    <path d="M6.8965726,16.7661102 C4.29719508,15.8626577 3.05254908,12.4581844 4.18658931,9.13710017 C5.32134429,5.81596157 8.38016704,3.90797878 10.9793774,4.81205194 C13.5785614,5.71543724 14.8227264,9.11975681 13.6886107,12.441062 C12.5545723,15.7621408 9.49583632,17.6702019 6.8965726,16.7661102 Z M11.3214578,3.81039462 C8.12492326,2.69855651 4.5041649,4.95705437 3.19389303,8.79188623 C1.88441433,12.6267493 3.35772311,16.6566826 6.55449222,17.7677675 C9.75112228,18.8796389 13.3718813,16.6209837 14.6813393,12.7861813 C15.9908484,8.9512291 14.5180927,4.92143288 11.3214578,3.81039462 Z" id="Stroke-9"></path>
                </g>
            </g>
        </g>
    </g>
</svg>