<?xml version="1.0" encoding="UTF-8" standalone="no"?>
<svg width="52px" height="51px" viewBox="0 0 52 51" version="1.1" xmlns="http://www.w3.org/2000/svg" xmlns:xlink="http://www.w3.org/1999/xlink">
    <!-- Generator: Sketch 39.1 (31720) - http://www.bohemiancoding.com/sketch -->
    <title>ico_colombiano_grey</title>
    <desc>Created with Sketch.</desc>
    <defs>
        <polygon id="path-1" points="3.67309859 0.400757576 0.648 0.400757576 0.648 7.74886364 3.67309859 7.74886364 3.67309859 0.400757576"></polygon>
        <polygon id="path-3" points="14.9171143 8.33325571 14.9171143 0.0324269916 0.0617142857 0.0324269916 0.0617142857 8.33325571 14.9171143 8.33325571"></polygon>
    </defs>
    <g id="Restaurantes_Home" stroke="none" stroke-width="1" fill="none" fill-rule="evenodd">
        <g id="iconos" transform="translate(-448.000000, -14.000000)">
            <g id="icon01-copy-8" transform="translate(448.000000, 14.000000)">
                <g id="colombiano_dgreen" transform="translate(13.000000, 12.000000)">
                    <path d="M22.9268571,24.5908333 L1.60457143,24.5908333 C1.30602857,24.5908333 1.06457143,24.3537121 1.06457143,24.0605303 C1.06457143,23.7673485 1.30602857,23.5302273 1.60457143,23.5302273 L22.9345714,23.5302273 C23.2331143,23.5325 23.4730286,23.7711364 23.4707143,24.0643182 C23.4684,24.3575 23.2254,24.5931061 22.9268571,24.5908333" id="Fill-1" fill="#D4D4D4"></path>
                    <path d="M9.68914286,8.10598485 C9.3906,8.10598485 9.14914286,7.86886364 9.14914286,7.57568182 C9.18077143,6.76962121 9.61354286,6.03098485 10.3062857,5.59840909 C10.9604571,5.30295455 11.2458857,4.54234848 10.9450286,3.89992424 C10.8146571,3.62265152 10.5886286,3.40068182 10.3062857,3.27265152 C9.61354286,2.84007576 9.18077143,2.10143939 9.14914286,1.29537879 C9.14914286,1.00295455 9.3906,0.765075758 9.68914286,0.765075758 C9.98768571,0.765075758 10.2291429,1.00295455 10.2291429,1.29537879 C10.2677143,1.78780303 10.5585429,2.22719697 11.0005714,2.46204545 C12.1145143,3.07719697 12.5102571,4.46280303 11.8838571,5.55674242 C11.6755714,5.92037879 11.3700857,6.22037879 11.0005714,6.42416667 C10.5585429,6.65901515 10.2677143,7.09840909 10.2291429,7.59083333 C10.2206571,7.87795455 9.98151429,8.10598485 9.68914286,8.10598485" id="Fill-3" fill="#D4D4D4"></path>
                    <g id="Group-7" transform="translate(12.342857, 0.357121)">
                        <mask id="mask-2" fill="white">
                            <use xlink:href="#path-1"></use>
                        </mask>
                        <g id="Clip-6"></g>
                        <path d="M1.188,7.74886364 C0.889457143,7.74886364 0.648,7.51174242 0.648,7.21856061 C0.679628571,6.4125 1.1124,5.67386364 1.80514286,5.24128788 C2.46162857,4.95037879 2.75245714,4.19128788 2.45622857,3.54734848 C2.32585714,3.26325758 2.09442857,3.03598485 1.80514286,2.90795455 C1.1124,2.47537879 0.679628571,1.73674242 0.648,0.930681818 C0.648,0.638257576 0.889457143,0.400378788 1.188,0.400378788 C1.48654286,0.400378788 1.728,0.638257576 1.728,0.930681818 C1.76657143,1.42310606 2.0574,1.8625 2.49942857,2.09734848 C3.61105714,2.71628788 4.00217143,4.10340909 3.37191429,5.19507576 C3.16517143,5.55340909 2.86354286,5.84886364 2.49942857,6.05189394 C2.0574,6.28674242 1.76657143,6.72613636 1.728,7.21856061 C1.728,7.51174242 1.48654286,7.74886364 1.188,7.74886364" id="Fill-5" fill="#D4D4D4" mask="url(#mask-2)"></path>
                    </g>
                    <g id="Group-10" transform="translate(11.571429, 16.266212)">
                        <mask id="mask-4" fill="white">
                            <use xlink:href="#path-3"></use>
                        </mask>
                        <g id="Clip-9"></g>
                        <path d="M3.402,3.0594697 C4.81525714,3.19431818 6.23854286,2.93143939 7.506,2.30189394 C6.92048571,1.26704545 5.59131429,0.894318182 4.53754286,1.46931818 C3.94894286,1.7905303 3.54394286,2.36098485 3.44057143,3.01401515 L3.402,3.0594697 Z M8.38542857,1.63522727 C8.52274286,1.87462121 8.63151429,2.12840909 8.70942857,2.39280303 C8.78502857,2.63295455 8.67857143,2.89204545 8.45485714,3.01401515 C8.10308571,3.20643939 7.73974286,3.37840909 7.36714286,3.52916667 L7.76057143,3.46098485 C9.83031429,3.16022727 11.8275429,2.49280303 13.6542857,1.49128788 C11.9147143,1.2405303 10.1450571,1.27386364 8.41628571,1.58977273 L8.38542857,1.63522727 Z M1.48885714,3.47613636 C1.76888571,3.55795455 2.05508571,3.61856061 2.34514286,3.65795455 C2.34282857,3.62992424 2.34282857,3.60265152 2.34514286,3.57462121 C2.33434286,3.4155303 2.33434286,3.25643939 2.34514286,3.09734848 C2.06202857,3.19204545 1.78662857,3.30568182 1.51971429,3.43825758 L1.48885714,3.47613636 Z M1.35771429,4.53674242 C1.5552,5.23219697 1.95171429,5.85795455 2.49942857,6.33977273 C3.49457143,7.18068182 4.99885714,7.46856061 6.95057143,7.19583333 C9.67911429,6.91477273 12.0713143,5.28295455 13.2917143,2.87007576 C11.5914857,3.61780303 9.80408571,4.15492424 7.96885714,4.46856061 C6.2208,4.82007576 4.43031429,4.92007576 2.65371429,4.76401515 C2.2248,4.70037879 1.80205714,4.60416667 1.38857143,4.47613636 L1.35771429,4.53674242 Z M5.60057143,8.32462121 C4.20505714,8.40113636 2.83114286,7.96704545 1.74342857,7.10492424 C0.715885714,6.17689394 0.110314286,4.88371212 0.0617142857,3.51401515 C0.0624857143,3.40871212 0.0948857143,3.30643939 0.154285714,3.21856061 C0.401142857,2.73371212 1.18028571,2.30189394 2.54571429,1.83977273 C3.35725714,0.231439394 5.34291429,-0.426136364 6.98065714,0.371590909 C7.15654286,0.45719697 7.32471429,0.557954545 7.48285714,0.673106061 C10.7228571,0.0897727273 14.2714286,-0.00113636364 14.8577143,0.953409091 C14.9371714,1.10568182 14.9371714,1.28598485 14.8577143,1.43825758 L14.8577143,1.49128788 C13.9296857,5.12083333 10.8069429,7.80492424 7.02,8.22613636 C6.54942857,8.28977273 6.07577143,8.32234848 5.60057143,8.32462121 L5.60057143,8.32462121 Z" id="Fill-8" fill="#D4D4D4" mask="url(#mask-4)"></path>
                    </g>
                    <path d="M11.772,22.5530303 C1.11085714,22.5530303 0.108,16.9469697 0,11.1893939 L0,10.6515152 L23.5671429,10.6515152 L23.5671429,11.1893939 C23.6057143,13.1962121 23.3064,15.1954545 22.68,17.1060606 C22.5882,17.3848485 22.2834857,17.5371212 21.9996,17.4469697 C21.7157143,17.3568182 21.5606571,17.0575758 21.6524571,16.7787879 C21.6578571,16.7636364 21.6632571,16.7492424 21.6694286,16.7348485 C22.1978571,15.1121212 22.4578286,13.4159091 22.4408571,11.7121212 L1.09542857,11.7121212 C1.25742857,17.1060606 2.38371429,21.4772727 11.772,21.4772727 L12.6205714,21.4772727 C12.9191143,21.4772727 13.1605714,21.7143939 13.1605714,22.0075758 C13.1605714,22.3007576 12.9191143,22.5378788 12.6205714,22.5378788 L11.772,22.5530303 Z" id="Fill-11" fill="#D4D4D4"></path>
                    <path d="M20.0494286,14.7727273 L1.22657143,14.7727273 C0.928028571,14.7727273 0.686571429,14.5356061 0.686571429,14.2424242 C0.686571429,13.9492424 0.928028571,13.7121212 1.22657143,13.7121212 L20.0494286,13.7121212 C20.3479714,13.7121212 20.5894286,13.9492424 20.5894286,14.2424242 C20.5894286,14.5356061 20.3479714,14.7727273 20.0494286,14.7727273" id="Fill-13" fill="#D4D4D4"></path>
                    <path d="M15.6291429,24.5908333 L7.91485714,24.5908333 C6.92665714,24.5908333 6.12514286,23.8037121 6.12514286,22.8332576 C6.12514286,22.5400758 6.3666,22.3029545 6.66514286,22.3029545 C6.96368571,22.3029545 7.20514286,22.5400758 7.20514286,22.8332576 C7.20514286,23.2181061 7.52297143,23.5302273 7.91485714,23.5302273 L15.6291429,23.5302273 C15.9276857,23.527197 16.1722286,23.7612879 16.1753143,24.0544697 C16.1791714,24.3468939 15.9400286,24.5870455 15.6422571,24.5908333 L15.6291429,24.5908333" id="Fill-15" fill="#D4D4D4"></path>
                </g>
            </g>
        </g>
    </g>
</svg>