<?xml version="1.0" encoding="UTF-8" standalone="no"?>
<svg width="52px" height="51px" viewBox="0 0 52 51" version="1.1" xmlns="http://www.w3.org/2000/svg" xmlns:xlink="http://www.w3.org/1999/xlink">
    <!-- Generator: Sketch 39.1 (31720) - http://www.bohemiancoding.com/sketch -->
    <title>ico_comidarapida_green</title>
    <desc>Created with Sketch.</desc>
    <defs>
        <polygon id="path-1" points="27.5592705 23.80185 0 23.80185 0 -0.00015 27.5592705 -0.00015 27.5592705 23.80185"></polygon>
    </defs>
    <g id="Restaurantes_Home" stroke="none" stroke-width="1" fill="none" fill-rule="evenodd">
        <g id="iconos" transform="translate(-448.000000, -197.000000)">
            <g id="icon01-copy-38" transform="translate(448.000000, 197.000000)">
                <g id="comida_rapida_yellow" transform="translate(12.000000, 13.000000)">
                    <mask id="mask-2" fill="white">
                        <use xlink:href="#path-1"></use>
                    </mask>
                    <g id="Clip-2"></g>
                    <path d="M13.2489189,8.1954 C13.1127027,8.1954 12.978,8.1444 12.8743243,8.0409 C12.666973,7.83615 12.666973,7.5039 12.8743243,7.29915 C13.3911892,6.7869 13.6757297,6.10515 13.6757297,5.37915 C13.6757297,4.6539 13.3911892,3.9729 12.8735676,3.46065 C11.9541081,2.54865 11.9541081,1.06515 12.8735676,0.1539 C13.0801622,-0.0516 13.4161622,-0.0516 13.6227568,0.1539 C13.8301081,0.35865 13.8301081,0.69165 13.6227568,0.8964 C13.1157297,1.39815 13.1164865,2.21565 13.6227568,2.71815 C14.3401622,3.4284 14.7359459,4.3734 14.7359459,5.37915 C14.7359459,6.38565 14.3401622,7.3314 13.6235135,8.04165 C13.5198378,8.1444 13.3843784,8.1954 13.2489189,8.1954 M8.44124324,10.5939 C8.30578378,10.5939 8.17032432,10.54215 8.06664865,10.44015 C7.86005405,10.23465 7.86005405,9.9024 8.06664865,9.69765 C8.58427027,9.1854 8.86881081,8.5044 8.86881081,7.77915 C8.86881081,7.05465 8.58427027,6.37215 8.06664865,5.85915 C7.62167568,5.4189 7.37648649,4.83165 7.37648649,4.20615 C7.37572973,3.5814 7.62091892,2.9934 8.06589189,2.55315 C8.27324324,2.3469 8.60848649,2.34765 8.81583784,2.5524 C9.02243243,2.7579 9.02243243,3.0894 8.81583784,3.2949 C8.57064865,3.5379 8.43594595,3.86115 8.43594595,4.20615 C8.43594595,4.55115 8.57064865,4.87365 8.81583784,5.11665 C9.53324324,5.82915 9.92827027,6.77415 9.92827027,7.77915 C9.92827027,8.7849 9.53324324,9.7299 8.81659459,10.44015 C8.71291892,10.5429 8.5767027,10.5939 8.44124324,10.5939 M4.78459459,14.9409 C3.89616216,15.1884 3.67821622,15.63465 3.57378378,16.1034 C4.08686486,16.05465 4.59313514,15.9924 5.09259459,15.9159 C7.60275676,15.49965 10.4110811,14.61165 12.5852432,13.51365 C12.6541081,13.47915 12.7222162,13.4439 12.7910811,13.40865 C12.834973,13.3854 12.8788649,13.36215 12.922,13.3389 C12.9242703,13.33815 12.9257838,13.3374 12.9272973,13.33665 C12.9613514,13.3194 12.9946486,13.3014 13.0279459,13.28415 C14.3151892,12.61965 15.5169189,11.8674 16.6414595,11.01765 C18.0936757,9.85815 19.477027,8.49315 20.6091351,7.22265 C20.1323784,7.2024 19.5216757,7.3839 18.6763784,8.1924 C16.9358378,10.29465 15.1695676,11.31015 12.6790811,12.6144 C10.2135676,13.90515 7.55810811,14.6874 4.78459459,14.9409 M2.82686486,21.75165 C1.34664865,21.75165 0.0972432432,20.60865 0.00567567568,19.13565 C-0.0412432432,18.3924 0.20772973,17.67465 0.706432432,17.1144 C1.16805405,16.5954 1.79313514,16.2714 2.47951351,16.1904 C2.59,15.54615 2.8087027,14.3769 4.55378378,13.9149 C4.5832973,13.9074 4.61281081,13.90215 4.64308108,13.89915 C7.29248649,13.66365 9.82989189,12.91815 12.1841622,11.6859 C14.6322703,10.40415 16.2388649,9.4809 17.8991892,7.48065 C19.5292432,5.9184 20.6976757,6.09915 21.3923784,6.29865 C21.9281622,5.6784 22.7000541,5.32515 23.5317297,5.32515 C24.1605946,5.32515 24.7569189,5.5284 25.2571351,5.91315 C25.8511892,6.37065 26.2295676,7.0299 26.3234054,7.7694 C26.4187568,8.5194 26.2121622,9.24465 25.7263243,9.86715 C25.5484865,10.0959 25.2155135,10.13865 24.9839459,9.9609 C24.7516216,9.7839 24.71,9.45465 24.8885946,9.22515 C25.1988649,8.8269 25.3320541,8.36865 25.273027,7.90065 C25.2147568,7.43865 24.9778919,7.02765 24.6078378,6.74265 C23.8594054,6.1674 22.7174595,6.31515 22.1423243,7.0479 C20.7453514,8.82915 19.2114054,10.36515 17.5079459,11.68215 C16.2418919,12.71565 14.829027,13.6764 13.4055676,14.27415 C10.7871892,15.6489 8.06059459,16.5399 5.13118919,16.97265 C4.36989189,17.0949 3.63508108,17.1759 2.95248649,17.2074 C2.87075676,17.2134 2.78902703,17.21865 2.7072973,17.2239 C2.24037838,17.2524 1.81205405,17.46015 1.50027027,17.80965 C1.18848649,18.15915 1.03335135,18.6069 1.06210811,19.0704 C1.12264865,20.02215 1.9407027,20.7534 2.92827027,20.69865 C3.22491892,20.6784 3.47086486,20.9034 3.48827027,21.1929 C3.50416216,21.4824 3.28091892,21.7299 2.98881081,21.7464 C2.93432432,21.75015 2.88059459,21.75165 2.82686486,21.75165 M4.40545946,22.6944 C6.64394595,22.91265 10.8363784,22.44315 17.5427568,18.51915 C22.7704324,15.4599 24.9491351,12.99915 25.8572432,11.48415 C25.6218919,11.5749 25.3456757,11.6364 25.0301081,11.6364 C24.4746486,11.6364 23.9275135,11.4399 23.4061081,11.05365 C23.1624324,10.8729 22.9338919,10.77765 22.746973,10.77765 C22.3791892,10.77765 22.0598378,11.1384 21.9992973,11.21115 C20.0491351,13.5609 17.682,15.47415 14.9644865,16.8984 C12.2477297,18.3204 9.31908108,19.1799 6.25951351,19.4529 C5.58221622,19.5114 5.306,19.8294 5.33551351,20.51565 C5.37789189,21.51015 4.99724324,22.12215 4.67032432,22.46115 C4.58481081,22.5489 4.49627027,22.62615 4.40545946,22.6944 M5.34989189,23.80215 C2.95778378,23.80215 1.85821622,23.0709 1.76740541,23.0079 C1.56232432,22.86465 1.48664865,22.5984 1.58654054,22.3704 C1.68643243,22.1424 1.93086486,22.0149 2.17908108,22.0644 C2.38718919,22.1064 2.60059459,22.12815 2.81248649,22.12815 C2.8647027,22.12815 2.91767568,22.1274 2.94718919,22.12515 C3.05691892,22.12215 3.54048649,22.11165 3.90524324,21.7344 C4.08913514,21.5439 4.3032973,21.18465 4.27756757,20.5599 C4.22383784,19.3194 4.92989189,18.51465 6.16567568,18.4074 C9.08297297,18.1464 11.8776757,17.32665 14.4688108,15.96915 C17.0622162,14.61165 19.3203784,12.7854 21.1812432,10.5429 C21.3870811,10.2969 21.9485946,9.72765 22.746973,9.72765 C23.1692432,9.72765 23.6051351,9.8904 24.0395135,10.2114 C24.3747568,10.4604 24.7084865,10.5864 25.0301081,10.5864 C25.6703243,10.5864 26.0275135,10.09515 26.0312973,10.0899 C26.5209189,9.46215 26.7547568,9.17565 27.1565946,9.2754 C27.3601622,9.3264 27.5228649,9.50415 27.5576757,9.7104 C27.5728108,9.93165 27.6590811,13.81815 18.0808108,19.4229 C12.0721622,22.93965 7.94859459,23.80215 5.34989189,23.80215" id="Fill-1" fill="#44D481" mask="url(#mask-2)"></path>
                </g>
            </g>
        </g>
    </g>
</svg>