<?xml version="1.0" encoding="utf-8"?>
<!-- Generator: Adobe Illustrator 19.0.0, SVG Export Plug-In . SVG Version: 6.00 Build 0)  -->
<svg version="1.1" id="Capa_1" xmlns="http://www.w3.org/2000/svg" xmlns:xlink="http://www.w3.org/1999/xlink" x="0px" y="0px"
	 viewBox="-279 371 52 51" style="enable-background:new -279 371 52 51;" xml:space="preserve">
<style type="text/css">
	.st0{fill:#D4D4D4;}
</style>
<title>ico_shushi_grey</title>
<desc>Created with Sketch.</desc>
<g id="Restaurantes_Home">
	<g id="iconos" transform="translate(-634.000000, -75.000000)">
		<g id="icon01-copy-30" transform="translate(634.000000, 75.000000)">
			<g id="sushi_red" transform="translate(9.000000, 14.000000)">
				<path id="Fill-1" class="st0" d="M-262.7,372.8c-2.1,0-3.9,1.7-3.9,3.9c0,2.1,1.8,3.9,3.9,3.9c2.1,0,3.9-1.7,3.9-3.9v0
					C-258.8,374.5-260.5,372.8-262.7,372.8L-262.7,372.8z M-262.7,381.8c-2.8,0-5.1-2.3-5.1-5.1c0-2.8,2.3-5.1,5.1-5.1
					c2.8,0,5.1,2.3,5.1,5.1C-257.6,379.5-259.9,381.7-262.7,381.8L-262.7,381.8z"/>
				<path id="Fill-3" class="st0" d="M-263.6,375.5c-0.1,0-0.2,0.1-0.2,0.2v1.9c0,0.1,0.1,0.2,0.2,0.2h1.9c0.1,0,0.2-0.1,0.2-0.2
					v-1.9c0-0.1-0.1-0.2-0.2-0.2H-263.6z M-261.7,379h-1.9c-0.8,0-1.4-0.6-1.4-1.4v-1.9c0-0.8,0.6-1.4,1.4-1.4h1.9
					c0.8,0,1.4,0.6,1.4,1.4v1.9C-260.3,378.4-261,379-261.7,379L-261.7,379z"/>
				<g id="Group-7" transform="translate(0.000000, 0.340656)">
					<path id="Fill-5" class="st0" d="M-273.9,372.5c-2.1,0-3.9,1.7-3.9,3.9s1.7,3.9,3.9,3.9c2.1,0,3.9-1.7,3.9-3.9
						C-270,374.2-271.8,372.5-273.9,372.5L-273.9,372.5L-273.9,372.5z M-273.9,381.4c-2.8,0-5.1-2.3-5.1-5.1c0-2.8,2.3-5.1,5.1-5.1
						c2.8,0,5.1,2.3,5.1,5.1C-268.9,379.1-271.1,381.4-273.9,381.4L-273.9,381.4z"/>
				</g>
				<path id="Fill-8" class="st0" d="M-274.9,375.5c-0.1,0-0.2,0.1-0.2,0.2v1.9c0,0.1,0.1,0.2,0.2,0.2h1.9c0.1,0,0.2-0.1,0.2-0.2
					v-1.9c0-0.1-0.1-0.2-0.2-0.2H-274.9z M-273,379h-1.9c-0.8,0-1.4-0.6-1.4-1.4v-1.9c0-0.8,0.6-1.4,1.4-1.4h1.9
					c0.8,0,1.4,0.6,1.4,1.4v1.9C-271.6,378.4-272.2,379-273,379L-273,379z"/>
				<g id="Group-12" transform="translate(0.000000, 10.562878)">
					<path id="Fill-10" class="st0" d="M-273.9,373c-2.1,0-3.9,1.7-3.9,3.9s1.7,3.9,3.9,3.9c2.1,0,3.9-1.7,3.9-3.9
						C-270.1,374.7-271.8,373-273.9,373 M-273.9,381.9c-2.8,0-5.1-2.3-5.1-5.1c0-2.8,2.3-5.1,5.1-5.1c2.8,0,5.1,2.3,5.1,5.1
						C-268.9,379.6-271.1,381.9-273.9,381.9"/>
				</g>
				<path id="Fill-13" class="st0" d="M-274.9,386.3c-0.1,0-0.2,0.1-0.2,0.2v1.9c0,0.1,0.1,0.2,0.2,0.2h1.9c0.1,0,0.2-0.1,0.2-0.2
					v-1.9c0-0.1-0.1-0.2-0.2-0.2H-274.9z M-273,389.7h-1.9c-0.8,0-1.4-0.6-1.4-1.4v-1.9c0-0.8,0.6-1.4,1.4-1.4h1.9
					c0.8,0,1.4,0.6,1.4,1.4v1.9C-271.6,389.1-272.2,389.7-273,389.7L-273,389.7z"/>
				<path id="Fill-15" class="st0" d="M-262.7,383.5c-2.1,0-3.9,1.7-3.9,3.9s1.7,3.9,3.9,3.9c2.1,0,3.9-1.7,3.9-3.9
					C-258.8,385.3-260.5,383.5-262.7,383.5 M-262.7,392.5c-2.8,0-5.1-2.3-5.1-5.1c0-2.8,2.3-5.1,5.1-5.1c2.8,0,5.1,2.3,5.1,5.1
					C-257.6,390.2-259.9,392.4-262.7,392.5"/>
				<path id="Fill-17" class="st0" d="M-263.6,386.3c-0.1,0-0.2,0.1-0.2,0.2v1.9c0,0.1,0.1,0.2,0.2,0.2h1.9c0.1,0,0.2-0.1,0.2-0.2
					v-1.9c0-0.1-0.1-0.2-0.2-0.2H-263.6z M-261.7,389.7h-1.9c-0.8,0-1.4-0.6-1.4-1.4v-1.9c0-0.8,0.6-1.4,1.4-1.4h1.9
					c0.8,0,1.4,0.6,1.4,1.4v1.9C-260.3,389.1-261,389.7-261.7,389.7L-261.7,389.7z"/>
				<path id="Fill-19" class="st0" d="M-253.9,393.5c-0.3,0-0.6-0.3-0.6-0.6v-21.3c0-0.3,0.3-0.6,0.6-0.6s0.6,0.3,0.6,0.6v21.3
					C-253.3,393.2-253.6,393.5-253.9,393.5"/>
				<path id="Fill-21" class="st0" d="M-245.2,391.8c-0.2,0-0.4-0.1-0.5-0.3l-10.9-18.3c-0.2-0.3-0.1-0.7,0.2-0.8s0.7-0.1,0.8,0.2
					l10.9,18.3c0.2,0.3,0.1,0.6-0.2,0.8C-245,391.8-245.1,391.8-245.2,391.8"/>
			</g>
		</g>
	</g>
</g>
</svg>
