<?xml version="1.0" encoding="UTF-8" standalone="no"?>
<svg width="52px" height="51px" viewBox="0 0 52 51" version="1.1" xmlns="http://www.w3.org/2000/svg" xmlns:xlink="http://www.w3.org/1999/xlink">
    <!-- Generator: Sketch 39.1 (31720) - http://www.bohemiancoding.com/sketch -->
    <title>ico_hamburguesa_grey</title>
    <desc>Created with Sketch.</desc>
    <defs></defs>
    <g id="Restaurantes_Home" stroke="none" stroke-width="1" fill="none" fill-rule="evenodd">
        <g id="iconos" transform="translate(-324.000000, -14.000000)" fill="#D4D4D4">
            <g id="icon01-copy-6" transform="translate(324.000000, 14.000000)">
                <g id="hamburguesa_red" transform="translate(13.000000, 16.000000)">
                    <path d="M22.14,19.3999259 L4.40756757,19.3999259 C2.88024324,19.3999259 1.64189189,18.1428889 1.64189189,16.5925185 L1.64189189,14.9036296 C1.64189189,14.616963 1.8702973,14.3851111 2.1527027,14.3851111 C2.43510811,14.3851111 2.66351351,14.616963 2.66351351,14.9036296 L2.66351351,16.6147407 C2.66351351,17.5925185 3.44432432,18.3851111 4.40756757,18.3851111 L22.14,18.3851111 C23.1032432,18.3851111 23.8840541,17.5925185 23.8840541,16.6147407 L23.8840541,14.9036296 C23.8840541,14.616963 24.1124595,14.3851111 24.3948649,14.3851111 C24.6772703,14.3851111 24.9056757,14.616963 24.9056757,14.9036296 L24.9056757,16.6147407 C24.8896216,18.1547407 23.6571081,19.3962222 22.14,19.3999259" id="Fill-1"></path>
                    <path d="M24.4094595,8.66659259 C24.1270541,8.66659259 23.8986486,8.43474074 23.8986486,8.14807407 C23.8986486,3.58511111 20.1259459,1.074 13.2664865,1.074 C4.50972973,1.074 2.64162162,4.91844444 2.64162162,8.14807407 C2.64162162,8.43474074 2.41321622,8.66659259 2.13081081,8.66659259 C1.84840541,8.66659259 1.62,8.43474074 1.62,8.14807407 C1.62,5.11844444 3.13054054,-7.40740741e-05 13.2956757,-7.40740741e-05 C23.4608108,-7.40740741e-05 24.9713514,5.08140741 24.9713514,8.14807407 C24.9728108,8.43474074 24.7451351,8.66807407 24.4627297,8.66955556 C24.4452162,8.66955556 24.426973,8.66807407 24.4094595,8.66659259" id="Fill-3"></path>
                    <path d="M8.22405405,6.20740741 C7.99054054,6.21111111 7.80445946,6.40740741 7.80810811,6.64444444 C7.81248649,6.88148148 8.00513514,7.07037037 8.23864865,7.06666667 C8.46924324,7.06222222 8.65459459,6.87111111 8.65459459,6.63703704 C8.65094595,6.39851852 8.45902703,6.20740741 8.22405405,6.20740741 M8.22405405,7.81481481 C7.587,7.81037037 7.07472973,7.2837037 7.07837838,6.63703704 C7.08275676,5.99037037 7.60232432,5.47037037 8.23864865,5.47407407 C8.86986486,5.47851852 9.38067568,5.9962963 9.38432432,6.63703704 C9.38432432,7.28740741 8.86475676,7.81481481 8.22405405,7.81481481" id="Fill-5"></path>
                    <path d="M11.3910811,2.91844444 C11.1531892,2.91844444 10.9605405,3.114 10.9605405,3.35548148 C10.9605405,3.59696296 11.1531892,3.79251852 11.3910811,3.79251852 C11.628973,3.79251852 11.8216216,3.59696296 11.8216216,3.35548148 C11.8099459,3.12288889 11.6202162,2.94066667 11.3910811,2.94066667 L11.3910811,2.91844444 Z M11.3910811,4.53325926 C10.7503784,4.53325926 10.2308108,4.00585185 10.2308108,3.35548148 C10.2308108,2.70511111 10.7503784,2.1777037 11.3910811,2.1777037 C12.0317838,2.1777037 12.5513514,2.70511111 12.5513514,3.35548148 C12.5513514,4.00585185 12.0317838,4.53325926 11.3910811,4.53325926 L11.3910811,4.53325926 Z" id="Fill-7"></path>
                    <path d="M13.2737838,6.20740741 C13.0402703,6.20740741 12.8505405,6.4 12.8505405,6.63703704 C12.8505405,6.87407407 13.0402703,7.06666667 13.2737838,7.06666667 C13.5072973,7.06666667 13.697027,6.87407407 13.697027,6.63703704 C13.697027,6.4 13.5072973,6.20740741 13.2737838,6.20740741 M13.2737838,7.81481481 C12.6367297,7.81481481 12.1208108,7.29111111 12.1208108,6.64444444 C12.1208108,5.99777778 12.6374595,5.47407407 13.2737838,5.47407407 C13.9079189,5.47407407 14.4231081,5.99333333 14.4267568,6.63703704 C14.4267568,7.28444444 13.9115676,7.81111111 13.2737838,7.81481481" id="Fill-9"></path>
                    <path d="M15.6162162,3.00733333 C15.3783243,3.00733333 15.1856757,3.20288889 15.1856757,3.44437037 C15.1856757,3.68585185 15.3783243,3.88140741 15.6162162,3.88140741 C15.8541081,3.88140741 16.0467568,3.68585185 16.0467568,3.44437037 C16.0467568,3.20288889 15.8541081,3.00733333 15.6162162,3.00733333 M15.6162162,4.61474074 C14.9755135,4.61474074 14.4559459,4.08733333 14.4559459,3.43696296 C14.4559459,2.78659259 14.9755135,2.25918519 15.6162162,2.25918519 C16.2569189,2.25918519 16.7764865,2.78659259 16.7764865,3.43696296 L16.7764865,3.44437037 C16.7728378,4.09177778 16.254,4.61474074 15.6162162,4.61474074" id="Fill-11"></path>
                    <path d="M18.3235135,6.20740741 C18.09,6.21111111 17.9039189,6.40740741 17.9075676,6.64444444 C17.9119459,6.88148148 18.1045946,7.07037037 18.3381081,7.06666667 C18.5687027,7.06222222 18.7540541,6.87111111 18.7540541,6.63703704 C18.7504054,6.39851852 18.5584865,6.20740741 18.3235135,6.20740741 M18.3235135,7.81481481 C17.6864595,7.81037037 17.1741892,7.2837037 17.1778378,6.63703704 C17.1822162,5.99037037 17.7017838,5.47037037 18.3381081,5.47407407 C18.9693243,5.47851852 19.4801351,5.9962963 19.4837838,6.63703704 C19.4837838,7.28740741 18.9642162,7.81481481 18.3235135,7.81481481" id="Fill-13"></path>
                    <path d="M24.9494595,13.6814074 L1.59810811,13.6814074 C1.3157027,13.6814074 1.0872973,13.4495556 1.0872973,13.1628889 C1.0872973,12.8762222 1.3157027,12.6443704 1.59810811,12.6443704 L24.9494595,12.6443704 C25.2318649,12.6443704 25.4602703,12.8762222 25.4602703,13.1628889 C25.4602703,13.4495556 25.2318649,13.6814074 24.9494595,13.6814074" id="Fill-15"></path>
                    <path d="M23.49,11.2517778 C22.8974595,11.2577037 22.3253514,11.0317778 21.8918919,10.6221481 C21.6379459,10.3599259 21.2905946,10.2132593 20.9286486,10.2147407 C20.5681622,10.2117778 20.223,10.3591852 19.9727027,10.6221481 C19.0707568,11.4628889 17.6857297,11.4628889 16.7837838,10.6221481 C16.2591081,10.0843704 15.4045946,10.0799259 14.8748108,10.6117778 C14.8711622,10.6154815 14.8682432,10.6184444 14.8645946,10.6221481 C13.9641081,11.4665926 12.5761622,11.4665926 11.6756757,10.6221481 C11.1495405,10.0865926 10.2942973,10.0851111 9.7667027,10.6191852 C9.76524324,10.6206667 9.76451351,10.6214074 9.76378378,10.6221481 C8.86183784,11.4628889 7.47681081,11.4628889 6.57486486,10.6221481 C6.05018919,10.0843704 5.19567568,10.0799259 4.66589189,10.6117778 C4.66224324,10.6154815 4.65932432,10.6184444 4.65567568,10.6221481 C3.75518919,11.4665926 2.36724324,11.4665926 1.46675676,10.6221481 C1.21645946,10.3591852 0.871297297,10.2117778 0.510810811,10.2147407 C0.228405405,10.2147407 0,9.98288889 0,9.69622222 C0,9.40955556 0.228405405,9.1777037 0.510810811,9.1777037 C1.10116216,9.17325926 1.67035135,9.39844444 2.10162162,9.80733333 C2.62264865,10.3428889 3.47278378,10.3488148 4.00037838,9.82066667 C4.00475676,9.81622222 4.00913514,9.81177778 4.01351351,9.80733333 C4.91618919,8.96214815 6.30705405,8.96214815 7.20972973,9.80733333 C7.46002703,10.0695556 7.80591892,10.216963 8.16567568,10.2147407 C8.52543243,10.2154815 8.86986486,10.0680741 9.12162162,9.80733333 C10.0221081,8.96288889 11.4100541,8.96288889 12.3105405,9.80733333 C12.8366757,10.3428889 13.6919189,10.3443704 14.2195135,9.8102963 C14.220973,9.80881481 14.2217027,9.80807407 14.2224324,9.80733333 C15.1251081,8.96214815 16.515973,8.96214815 17.4186486,9.80733333 C17.9433243,10.3451111 18.7978378,10.3495556 19.3276216,9.8177037 C19.3312703,9.814 19.3341892,9.81103704 19.3378378,9.80733333 C20.2405135,8.96214815 21.6313784,8.96214815 22.5340541,9.80733333 C23.0638378,10.3451111 23.9234595,10.3451111 24.4532432,9.80733333 C24.8874324,9.3977037 25.4588108,9.17251852 26.0513514,9.1777037 C26.3337568,9.1777037 26.5621622,9.40955556 26.5621622,9.69622222 C26.5621622,9.98288889 26.3337568,10.2147407 26.0513514,10.2147407 C25.6894054,10.2132593 25.3420541,10.3599259 25.0881081,10.6221481 C24.6546486,11.0317778 24.0825405,11.2577037 23.49,11.2517778" id="Fill-17"></path>
                </g>
            </g>
        </g>
    </g>
</svg>