<?xml version="1.0" encoding="UTF-8" standalone="no"?>
<svg width="52px" height="51px" viewBox="0 0 52 51" version="1.1" xmlns="http://www.w3.org/2000/svg" xmlns:xlink="http://www.w3.org/1999/xlink">
    <!-- Generator: Sketch 39.1 (31720) - http://www.bohemiancoding.com/sketch -->
    <title>ico_postres_green</title>
    <desc>Created with Sketch.</desc>
    <defs></defs>
    <g id="Restaurantes_Home" stroke="none" stroke-width="1" fill="none" fill-rule="evenodd">
        <g id="iconos" transform="translate(-77.000000, -75.000000)" fill="#44D481">
            <g id="icon01-copy-12" transform="translate(77.000000, 75.000000)">
                <g id="postres_blue" transform="translate(13.000000, 13.000000)">
                    <path d="M16.6365815,24.9051724 L5.86065556,24.9051724 C5.16128519,24.8862069 4.56072963,24.3948276 4.39547037,23.7068966 L3.65435926,20.2155172 C3.58621111,19.8896552 3.79235926,19.5689655 4.11435926,19.5 C4.43635926,19.4310345 4.75324815,19.6396552 4.8213963,19.9655172 L5.56250741,23.4568966 C5.60765556,23.5887931 5.72350741,23.6827586 5.86065556,23.6982759 L16.6365815,23.6982759 C16.7745815,23.6844828 16.8912852,23.5896552 16.9347296,23.4568966 L17.6758407,19.9568966 C17.7439889,19.6310345 18.0608778,19.4224138 18.3828778,19.4913793 C18.7048778,19.5603448 18.9110259,19.8810345 18.8428778,20.2068966 L18.1017667,23.6982759 C17.9424704,24.3913793 17.3402111,24.887931 16.6365815,24.9051724" id="Fill-1"></path>
                    <path d="M17.6588037,19.2672414 C16.2541,19.2431034 14.9252111,18.6163793 14.0043593,17.5431034 C12.6933593,16.0025862 10.3967667,15.8301724 8.87450741,17.1568966 C8.73821111,17.2758621 8.61043333,17.4051724 8.49287778,17.5431034 C7.57117407,18.6155172 6.24313704,19.2422414 4.83843333,19.2672414 C2.16958148,19.2672414 0.00502592593,17.0801724 -8.51851855e-05,14.3793103 C0.0195074074,13.9862069 0.0646555556,13.5939655 0.136211111,13.2068966 C0.885840741,9.20948276 3.68928519,5.92155172 7.48769259,4.5862069 C7.7918037,4.45948276 8.14106296,4.60603448 8.26628519,4.9137931 C8.39235926,5.22241379 8.24669259,5.575 7.94258148,5.70172414 C7.92213704,5.71034483 7.90084074,5.71810345 7.87954444,5.72413793 C4.46872963,6.925 1.95747037,9.88793103 1.30324815,13.4827586 C1.24532222,13.7991379 1.20869259,14.1181034 1.19250741,14.4396552 C1.19761852,16.4741379 2.82806296,18.1206897 4.83843333,18.1206897 C5.89132222,18.1086207 6.88969259,17.6491379 7.58991481,16.8534483 C9.3311,14.8086207 12.3815815,14.5793103 14.4021741,16.3422414 C14.5827667,16.4991379 14.7514333,16.6706897 14.9073222,16.8534483 C15.6058407,17.6508621 16.6059148,18.1112069 17.6588037,18.1206897 C19.6657667,18.1155172 21.2919519,16.4706897 21.2962111,14.4396552 C21.2732111,14.1068966 21.2331741,13.7767241 21.1769519,13.4482759 C20.4861,9.88965517 17.9884704,6.96551724 14.6091741,5.75862069 C14.305063,5.63103448 14.1602481,5.27844828 14.2854704,4.97068966 C14.4013222,4.6862069 14.7096926,4.5362069 15.0010259,4.62068966 C18.7849519,5.975 21.5781741,9.25431034 22.3439889,13.2413793 C22.4112852,13.637931 22.4572852,14.037931 22.4802852,14.4396552 C22.4436556,17.1103448 20.2978407,19.2586207 17.6588037,19.2672414" id="Fill-3"></path>
                    <path d="M11.2443593,1.20689655 C10.1054333,1.20689655 9.18287778,2.14051724 9.18287778,3.29310345 C9.18287778,4.44482759 10.1054333,5.37931034 11.2443593,5.37931034 C12.3824333,5.37931034 13.3058407,4.44568966 13.3058407,3.29310345 C13.3058407,2.14051724 12.3832852,1.20689655 11.2443593,1.20689655 M11.2443593,6.5862069 C9.44695185,6.5862069 7.99028519,5.11206897 7.99028519,3.29310345 C7.99028519,1.47413793 9.44695185,0 11.2443593,0 C13.0417667,0 14.4984333,1.47413793 14.4984333,3.29310345 C14.4984333,5.11206897 13.0417667,6.5862069 11.2443593,6.5862069" id="Fill-6"></path>
                    <path d="M3.86732222,14.6981897 C3.5598037,14.6999138 3.30169259,14.464569 3.27102593,14.1550862 C3.06658148,11.965431 4.29324815,9.74991379 6.05658148,9.09474138 C6.36750741,8.98008621 6.70995185,9.14301724 6.82324815,9.45681034 C6.93654444,9.77060345 6.77554444,10.1180172 6.46547037,10.2326724 C5.06843333,10.9464655 4.26684074,12.4723276 4.46361852,14.0430172 C4.49343333,14.3740517 4.25321111,14.6662931 3.92695185,14.6981897 L3.86732222,14.6981897 Z" id="Fill-8"></path>
                </g>
            </g>
        </g>
    </g>
</svg>