<?xml version="1.0" encoding="UTF-8" standalone="no"?>
<svg width="52px" height="51px" viewBox="0 0 52 51" version="1.1" xmlns="http://www.w3.org/2000/svg" xmlns:xlink="http://www.w3.org/1999/xlink">
    <!-- Generator: Sketch 40.3 (33839) - http://www.bohemiancoding.com/sketch -->
    <title>ico_sandwich_grey </title>
    <desc>Created with Sketch.</desc>
    <defs></defs>
    <g id="Restaurantes_Home" stroke="none" stroke-width="1" fill="none" fill-rule="evenodd">
        <g id="iconos" transform="translate(-572.000000, -135.000000)" fill="#D4D4D4">
            <g id="icon01-copy-41" transform="translate(572.000000, 135.000000)">
                <g id="sandwich_red" transform="translate(13.000000, 17.000000)">
                    <path d="M22.14,16.3999259 L4.40756757,16.3999259 C2.88024324,16.3999259 1.64189189,15.1428889 1.64189189,13.5925185 L1.64189189,11.9036296 C1.64189189,11.616963 1.8702973,11.3851111 2.1527027,11.3851111 C2.43510811,11.3851111 2.66351351,11.616963 2.66351351,11.9036296 L2.66351351,13.6147407 C2.66351351,14.5925185 3.44432432,15.3851111 4.40756757,15.3851111 L22.14,15.3851111 C23.1032432,15.3851111 23.8840541,14.5925185 23.8840541,13.6147407 L23.8840541,11.9036296 C23.8840541,11.616963 24.1124595,11.3851111 24.3948649,11.3851111 C24.6772703,11.3851111 24.9056757,11.616963 24.9056757,11.9036296 L24.9056757,13.6147407 C24.8896216,15.1547407 23.6571081,16.3962222 22.14,16.3999259" id="Fill-1"></path>
                    <path d="M22.14,5.39992593 L4.40756757,5.39992593 C2.88024324,5.39992593 1.64189189,4.14288889 1.64189189,2.59251852 L1.64189189,0.90362963 C1.64189189,0.616962963 1.8702973,0.385111111 2.1527027,0.385111111 C2.43510811,0.385111111 2.66351351,0.616962963 2.66351351,0.90362963 L2.66351351,2.61474074 C2.66351351,3.59251852 3.44432432,4.38511111 4.40756757,4.38511111 L22.14,4.38511111 C23.1032432,4.38511111 23.8840541,3.59251852 23.8840541,2.61474074 L23.8840541,0.90362963 C23.8840541,0.616962963 24.1124595,0.385111111 24.3948649,0.385111111 C24.6772703,0.385111111 24.9056757,0.616962963 24.9056757,0.90362963 L24.9056757,2.61474074 C24.8896216,4.15474074 23.6571081,5.39622222 22.14,5.39992593" id="Fill-1-Copy" transform="translate(13.273784, 2.892519) scale(1, -1) translate(-13.273784, -2.892519) "></path>
                    <path d="M24.9494595,7.68140741 L1.59810811,7.68140741 C1.3157027,7.68140741 1.0872973,7.44955556 1.0872973,7.16288889 C1.0872973,6.87622222 1.3157027,6.64437037 1.59810811,6.64437037 L24.9494595,6.64437037 C25.2318649,6.64437037 25.4602703,6.87622222 25.4602703,7.16288889 C25.4602703,7.44955556 25.2318649,7.68140741 24.9494595,7.68140741" id="Fill-15"></path>
                    <path d="M23.49,11.2517778 C22.8974595,11.2577037 22.3253514,11.0317778 21.8918919,10.6221481 C21.6379459,10.3599259 21.2905946,10.2132593 20.9286486,10.2147407 C20.5681622,10.2117778 20.223,10.3591852 19.9727027,10.6221481 C19.0707568,11.4628889 17.6857297,11.4628889 16.7837838,10.6221481 C16.2591081,10.0843704 15.4045946,10.0799259 14.8748108,10.6117778 C14.8711622,10.6154815 14.8682432,10.6184444 14.8645946,10.6221481 C13.9641081,11.4665926 12.5761622,11.4665926 11.6756757,10.6221481 C11.1495405,10.0865926 10.2942973,10.0851111 9.7667027,10.6191852 C9.76524324,10.6206667 9.76451351,10.6214074 9.76378378,10.6221481 C8.86183784,11.4628889 7.47681081,11.4628889 6.57486486,10.6221481 C6.05018919,10.0843704 5.19567568,10.0799259 4.66589189,10.6117778 C4.66224324,10.6154815 4.65932432,10.6184444 4.65567568,10.6221481 C3.75518919,11.4665926 2.36724324,11.4665926 1.46675676,10.6221481 C1.21645946,10.3591852 0.871297297,10.2117778 0.510810811,10.2147407 C0.228405405,10.2147407 0,9.98288889 0,9.69622222 C0,9.40955556 0.228405405,9.1777037 0.510810811,9.1777037 C1.10116216,9.17325926 1.67035135,9.39844444 2.10162162,9.80733333 C2.62264865,10.3428889 3.47278378,10.3488148 4.00037838,9.82066667 C4.00475676,9.81622222 4.00913514,9.81177778 4.01351351,9.80733333 C4.91618919,8.96214815 6.30705405,8.96214815 7.20972973,9.80733333 C7.46002703,10.0695556 7.80591892,10.216963 8.16567568,10.2147407 C8.52543243,10.2154815 8.86986486,10.0680741 9.12162162,9.80733333 C10.0221081,8.96288889 11.4100541,8.96288889 12.3105405,9.80733333 C12.8366757,10.3428889 13.6919189,10.3443704 14.2195135,9.8102963 C14.220973,9.80881481 14.2217027,9.80807407 14.2224324,9.80733333 C15.1251081,8.96214815 16.515973,8.96214815 17.4186486,9.80733333 C17.9433243,10.3451111 18.7978378,10.3495556 19.3276216,9.8177037 C19.3312703,9.814 19.3341892,9.81103704 19.3378378,9.80733333 C20.2405135,8.96214815 21.6313784,8.96214815 22.5340541,9.80733333 C23.0638378,10.3451111 23.9234595,10.3451111 24.4532432,9.80733333 C24.8874324,9.3977037 25.4588108,9.17251852 26.0513514,9.1777037 C26.3337568,9.1777037 26.5621622,9.40955556 26.5621622,9.69622222 C26.5621622,9.98288889 26.3337568,10.2147407 26.0513514,10.2147407 C25.6894054,10.2132593 25.3420541,10.3599259 25.0881081,10.6221481 C24.6546486,11.0317778 24.0825405,11.2577037 23.49,11.2517778" id="Fill-17"></path>
                </g>
            </g>
        </g>
    </g>
</svg>