<?xml version="1.0" encoding="UTF-8" standalone="no"?>
<svg width="52px" height="51px" viewBox="0 0 52 51" version="1.1" xmlns="http://www.w3.org/2000/svg" xmlns:xlink="http://www.w3.org/1999/xlink">
    <!-- Generator: Sketch 39.1 (31720) - http://www.bohemiancoding.com/sketch -->
    <title>ico_internacional_grey </title>
    <desc>Created with Sketch.</desc>
    <defs></defs>
    <g id="Restaurantes_Home" stroke="none" stroke-width="1" fill="none" fill-rule="evenodd">
        <g id="iconos" transform="translate(-200.000000, -14.000000)" fill="#D4D4D4">
            <g id="icon01-copy-4" transform="translate(200.000000, 14.000000)">
                <g id="internacional_yellow" transform="translate(12.000000, 13.000000)">
                    <path d="M27.1121951,24.9254027 L0.47804878,24.9254027 C0.213756098,24.9254027 0,24.7083893 0,24.4400693 C0,24.1717493 0.213756098,23.954736 0.47804878,23.954736 L27.1121951,23.954736 C27.3764878,23.954736 27.5902439,24.1717493 27.5902439,24.4400693 C27.5902439,24.7083893 27.3764878,24.9254027 27.1121951,24.9254027" id="Fill-1"></path>
                    <path d="M3.54432195,21.833136 L24.1755415,21.833136 C23.787639,16.0493493 18.8541756,11.6799627 13.1572,12.073776 C8.00041951,12.4308427 3.89534634,16.597776 3.54432195,21.833136 L3.54432195,21.833136 Z M25.1589561,22.8038027 L2.55407805,22.8038027 L2.55407805,22.311536 C2.70773659,15.980016 7.88841951,10.9741493 14.1249073,11.1301493 C20.1449073,11.2806027 24.9902732,16.1998027 25.1384683,22.311536 L25.1384683,22.8038027 L25.1589561,22.8038027 Z" id="Fill-3"></path>
                    <path d="M6.78139512,20.501936 C6.57378537,20.5033227 6.3887122,20.368816 6.32383415,20.169136 C5.98237073,19.1152693 6.63115122,17.5552693 7.42334634,16.4736693 C8.24012683,15.1840693 9.60529756,14.357616 11.1111512,14.241136 L11.1999317,14.241136 C11.4635415,14.2487627 11.6718341,14.472016 11.664322,14.7396427 L11.664322,14.740336 C11.6691024,14.9968693 11.467639,15.208336 11.2149561,15.2131893 C11.2006146,15.2131893 11.1869561,15.2131893 11.1726146,15.2118027 C10.1960293,15.1702027 9.05554146,15.905136 8.18822439,17.049136 C7.32090732,18.193136 7.06822439,19.3510027 7.23212683,19.8640693 C7.3127122,20.1185227 7.1754439,20.391696 6.92480976,20.4742027 C6.87905366,20.4908427 6.83056585,20.5005493 6.78139512,20.501936" id="Fill-5"></path>
                    <path d="M12.3473171,11.058736 L15.8643902,11.058736 L15.8643902,10.1990027 L12.3473171,10.1990027 L12.3473171,11.0518027 L12.3473171,11.058736 Z M16.342439,12.0294027 L11.8692683,12.0294027 C11.6049756,12.0294027 11.3912195,11.8123893 11.3912195,11.5440693 L11.3912195,9.72060267 C11.3912195,9.45228267 11.6049756,9.23526933 11.8692683,9.23526933 L16.342439,9.23526933 C16.6067317,9.23526933 16.8204878,9.45228267 16.8204878,9.72060267 L16.8204878,11.5440693 C16.8204878,11.8123893 16.6067317,12.0294027 16.342439,12.0294027 L16.342439,12.0294027 Z" id="Fill-7"></path>
                    <path d="M11.6097561,7.63373867 C11.3454634,7.63373867 11.1317073,7.41672533 11.1317073,7.14840533 C11.1480976,6.61245867 11.4205854,6.118112 11.862439,5.82413867 C12.1752195,5.70141867 12.3309268,5.34365867 12.2100488,5.026112 C12.1479024,4.863872 12.0222439,4.73560533 11.862439,4.67320533 C11.4205854,4.379232 11.1480976,3.88488533 11.1317073,3.34893867 C11.1317073,3.08061867 11.3454634,2.86360533 11.6097561,2.86360533 C11.8740488,2.86360533 12.0878049,3.08061867 12.0878049,3.34893867 C12.1062439,3.59784533 12.254439,3.817632 12.4770732,3.92440533 C13.197561,4.36536533 13.4297561,5.315232 12.9954146,6.04669867 C12.8677073,6.26232533 12.6894634,6.442592 12.4770732,6.57293867 C12.254439,6.679712 12.1062439,6.89949867 12.0878049,7.14840533 C12.0878049,7.416032 11.8740488,7.63373867 11.6097561,7.63373867 L11.6097561,7.63373867 Z" id="Fill-9"></path>
                    <path d="M14.9629268,5.88646933 C14.6986341,5.88646933 14.484878,5.669456 14.484878,5.401136 C14.5094634,4.75148267 14.8434146,4.15452267 15.3795122,3.799536 C15.8452683,3.60054933 16.0638049,3.05558933 15.8678049,2.582736 C15.7749268,2.35878933 15.6000976,2.181296 15.3795122,2.08700267 C14.8434146,1.732016 14.5094634,1.135056 14.484878,0.485402667 C14.484878,0.217082667 14.6986341,6.93333333e-05 14.9629268,6.93333333e-05 C15.2272195,6.93333333e-05 15.4409756,0.217082667 15.4409756,0.485402667 C15.4723902,0.845936 15.68,1.16694933 15.9941463,1.33820267 C16.865561,1.86582933 17.1503415,3.011216 16.6306341,3.895216 C16.4742439,4.16076267 16.2557073,4.38262933 15.9941463,4.54140267 C15.6779512,4.71404267 15.4696585,5.03782933 15.4409756,5.401136 C15.4409756,5.669456 15.2272195,5.88646933 14.9629268,5.88646933 L14.9629268,5.88646933 Z" id="Fill-11"></path>
                </g>
            </g>
        </g>
    </g>
</svg>