<?xml version="1.0" encoding="UTF-8" standalone="no"?>
<svg width="52px" height="51px" viewBox="0 0 52 51" version="1.1" xmlns="http://www.w3.org/2000/svg" xmlns:xlink="http://www.w3.org/1999/xlink">
    <!-- Generator: Sketch 39.1 (31720) - http://www.bohemiancoding.com/sketch -->
    <title>ico_mexicano_grey </title>
    <desc>Created with Sketch.</desc>
    <defs></defs>
    <g id="Restaurantes_Home" stroke="none" stroke-width="1" fill="none" fill-rule="evenodd">
        <g id="iconos" transform="translate(-76.000000, -136.000000)" fill="#D4D4D4">
            <g id="icon01-copy-15" transform="translate(76.000000, 136.000000)">
                <g id="burrito_dgreen" transform="translate(18.000000, 11.000000)">
                    <path d="M12.5819224,13.1056511 C12.2907385,13.1071253 12.0537284,12.8771499 12.0522236,12.592629 C12.0514712,12.42457 12.1342366,12.2668305 12.273433,12.1695332 L13.5901558,11.2407862 C13.8121177,11.0565111 14.1446843,11.0845209 14.3320351,11.3019656 C14.5201384,11.5194103 14.4922991,11.8452088 14.2703372,12.0287469 C14.2500221,12.0457002 14.2289545,12.0604423 14.2071345,12.0737101 L12.8904117,13.002457 C12.8136656,13.0665848 12.7196139,13.1071253 12.619543,13.1203931 L12.5819224,13.1056511 Z M3.44762794,17.5282555 C3.15644409,17.5282555 2.92093881,17.2968059 2.92093881,17.012285 C2.92169122,16.8309582 3.01800009,16.6628993 3.17675924,16.5700246 L7.99972689,13.7764128 C8.25103285,13.631941 8.57457046,13.7144963 8.72204342,13.960688 C8.86951638,14.2068796 8.78524611,14.5238329 8.53394016,14.6683047 L3.71097251,17.4619165 C3.64476016,17.5113022 3.56726162,17.5437346 3.48524859,17.5577396 L3.44762794,17.5282555 Z M3.44762794,21.4643735 C3.15644409,21.4643735 2.92093881,21.2329238 2.92093881,20.9484029 C2.92169122,20.7670762 3.01800009,20.5990172 3.17675924,20.5061425 L7.99972689,17.7125307 C8.25103285,17.568059 8.57457046,17.6506143 8.72204342,17.8968059 C8.86951638,18.1429975 8.78524611,18.4599509 8.53394016,18.6044226 L3.71097251,21.3980344 C3.64476016,21.4474201 3.56726162,21.4798526 3.48524859,21.4938575 L3.44762794,21.4643735 Z M13.1311839,3.70761671 C14.2823759,3.69287469 15.3508024,4.29140049 15.9226363,5.27027027 C15.9534852,5.05503686 15.9324177,4.83538084 15.8624433,4.62899263 C15.7247517,4.28476658 15.5456774,3.95823096 15.32823,3.65601966 C14.0942726,1.88697789 11.7693163,0.995085995 8.40602994,0.995085995 C5.04274361,0.995085995 2.71026315,1.87223587 1.49887814,3.67813268 L1.28067836,3.98034398 C1.16104468,4.25307125 1.08204131,4.54054054 1.04743031,4.83538084 C1.60873045,3.94791155 2.586115,3.395086 3.65077947,3.36117936 C4.24819543,2.77960688 5.06682082,2.46928747 5.90801861,2.50614251 C6.52499731,1.74324324 7.46551363,1.3002457 8.45869885,1.3046683 C9.38341449,1.30614251 10.2607281,1.704914 10.8588965,2.3955774 C11.7918887,2.44938575 12.6368485,2.95135135 13.1161356,3.73710074 L13.1311839,3.70761671 Z M9.97857321,5.35135135 C11.6195861,5.32481572 13.0747529,6.37886978 13.5299628,7.92383292 C14.155218,7.73513514 14.7481195,7.45651106 15.2906093,7.0982801 L15.2379404,6.52334152 C15.1137923,5.48771499 14.2026201,4.71670762 13.138708,4.74692875 C13.0837819,4.73660934 13.0281033,4.73660934 12.9731771,4.74692875 L12.4916328,4.89434889 L12.3185778,4.42997543 C12.0296512,3.76511057 11.3472125,3.34717445 10.6106002,3.38329238 L10.3246832,3.38329238 L10.1591523,3.15479115 C9.76263066,2.61670762 9.12834646,2.2960688 8.45117472,2.29238329 C7.69800926,2.28869779 6.99600788,2.66461916 6.59271449,3.28746929 L6.40461123,3.58230958 L6.05850122,3.52334152 C5.39713015,3.41572482 4.72673013,3.65970516 4.29785469,4.16461916 L4.13984795,4.35626536 L3.81631034,4.35626536 C2.74713139,4.33415233 1.83746402,5.11400491 1.71707793,6.15479115 L1.71707793,6.72235872 C1.86379847,6.78280098 2.01428108,6.83144963 2.16852576,6.86977887 C2.33405663,6.91400491 2.48453924,6.94348894 2.63502185,6.97297297 L3.07142142,7.06879607 L3.17675924,7.06879607 L3.2896212,7.06879607 C3.74332627,6.05085995 4.76736043,5.39189189 5.90049448,5.38820639 C6.56487521,5.39041769 7.20743595,5.61670762 7.72133406,6.02948403 L7.84172015,5.94840295 C8.49180502,5.54889435 9.24948497,5.35135135 10.0161939,5.38083538 L9.97857321,5.35135135 Z M4.56872339,7.01719902 C5.64994094,7.2987715 6.70482403,7.67100737 7.72133406,8.13022113 C7.61524382,7.2 6.8184384,6.49164619 5.86287383,6.47911548 C5.37455776,6.47911548 4.90730926,6.67297297 4.56872339,7.01719902 L4.56872339,7.01719902 Z M8.8650019,8.83046683 C9.00796038,8.92407862 9.14339473,9.02727273 9.27130494,9.14004914 C10.1666765,8.43316953 11.2305885,7.96142506 12.3637226,7.76904177 C11.905503,6.91842752 10.9980929,6.39140049 10.0161939,6.40540541 C9.59484255,6.40540541 9.17875814,6.4960688 8.79728472,6.67076167 C8.91917564,7.06289926 8.98012109,7.46977887 8.97786385,7.87960688 C8.98087351,8.2002457 8.94325285,8.51941032 8.8650019,8.83046683 L8.8650019,8.83046683 Z M10.7911793,11.0565111 C11.9047506,13.1572482 12.7625015,20.7199017 10.3472556,24.6044226 C10.0500524,25.0820639 9.68287488,25.514742 9.25625668,25.8869779 C10.3660659,25.8434889 11.4713607,25.7321867 12.5668741,25.5552826 C13.3952809,25.4277641 14.0303175,24.7665848 14.1093209,23.9484029 L15.7947261,8.04914005 C14.6886789,8.72432432 13.4456925,9.15700246 12.1530469,9.31695332 C11.4638366,9.39066339 10.8047227,9.63169533 10.2343936,10.017199 L10.4525934,10.3341523 C10.5872754,10.565602 10.703147,10.807371 10.7987034,11.0565111 L10.7911793,11.0565111 Z M1.13771988,7.64373464 L2.87579402,24.1769042 C2.94200637,24.9840295 3.56425196,25.6422604 4.38062012,25.7690418 C4.89978513,25.8501229 5.35875709,25.9312039 5.88544622,25.968059 C6.78006534,26.0336609 7.66791274,25.770516 8.37593341,25.2309582 C8.65808831,24.9309582 8.90939427,24.6051597 9.12834646,24.2579853 C11.3178684,20.7936118 10.7836552,14.1744472 9.8280906,11.5356265 L9.83561473,11.4398034 C9.66481697,11.1412776 9.45489373,10.8663391 9.2111119,10.6216216 L9.08320168,10.4447174 C8.8191047,10.2044226 8.53168292,9.98918919 8.22545081,9.8034398 L6.96139688,11.041769 L7.56332732,9.44226044 C6.10214118,8.81277641 4.56872339,8.35945946 2.99618011,8.09336609 L2.86826989,8.09336609 L2.45444272,8.004914 C2.27386358,8.004914 2.10080858,7.93120393 1.92775358,7.88697789 C1.65613247,7.83390663 1.39128308,7.75208845 1.13771988,7.64373464 L1.13771988,7.64373464 Z M6.11869427,27 L5.83277731,27 C5.26094339,26.955774 4.75682665,26.8746929 4.26023403,26.7936118 C2.94426361,26.612285 1.93226806,25.5626536 1.82241576,24.2653563 L0.0467209586,7.42260442 C0.00985271915,7.12407862 -0.00519554183,6.82407862 0.00157617561,6.52334152 L0.00157617561,4.93857494 C0.0286630454,4.46756757 0.143029829,4.00540541 0.340162048,3.57493857 L0.400355092,3.47174447 L0.641127268,3.13267813 C2.0556638,1.02457002 4.60634404,0 8.4210782,0 C12.2358124,0 14.7639202,1.04668305 16.2085533,3.1031941 C16.4801744,3.48501229 16.7028886,3.8985258 16.8706767,4.33415233 C16.9933201,4.697543 17.0294359,5.08304668 16.9760146,5.46191646 L16.9760146,6.78869779 C16.9820339,6.97960688 16.9617187,7.17051597 16.9158215,7.35626536 L15.155175,24.0589681 C15.0272648,25.3400491 14.0303175,26.3734644 12.732405,26.5724816 C11.1651286,26.8230958 9.57979429,26.9461916 7.99220276,26.9410319 L6.92377623,26.9410319 C6.65742201,26.9800983 6.38805814,27 6.11869427,27 L6.11869427,27 Z" id="mexicano"></path>
                </g>
            </g>
        </g>
    </g>
</svg>