<?xml version="1.0" encoding="UTF-8" standalone="no"?>
<svg width="52px" height="51px" viewBox="0 0 52 51" version="1.1" xmlns="http://www.w3.org/2000/svg" xmlns:xlink="http://www.w3.org/1999/xlink">
    <!-- Generator: Sketch 39.1 (31720) - http://www.bohemiancoding.com/sketch -->
    <title>ico_pizza_grey</title>
    <desc>Created with Sketch.</desc>
    <defs>
        <polygon id="path-1" points="23.6906492 0.474117647 0 0.474117647 0 25.2350647 23.6906492 25.2350647 23.6906492 0.474117647"></polygon>
    </defs>
    <g id="Restaurantes_Home" stroke="none" stroke-width="1" fill="none" fill-rule="evenodd">
        <g id="iconos" transform="translate(-14.000000, -14.000000)">
            <g id="icon01-copy" transform="translate(14.000000, 14.000000)">
                <g id="pizza_red" transform="translate(14.000000, 12.000000)">
                    <g id="Group-3" transform="translate(0.000000, 0.290665)">
                        <mask id="mask-2" fill="white">
                            <use xlink:href="#path-1"></use>
                        </mask>
                        <g id="Clip-2"></g>
                        <path d="M2.96694194,6.36212353 L11.8856516,24.0344765 C11.9204903,24.1040647 11.9924903,24.1484176 12.0714581,24.1491824 C12.1566194,24.1575941 12.2371355,24.1071235 12.2650065,24.0268294 L20.7811355,6.15565294 L21.1604903,6.15565294 L21.315329,6.15565294 C22.0461677,6.15488824 22.6384258,5.56835882 22.6376516,4.84647647 C22.6368774,4.33871176 22.3388129,3.87682941 21.8727484,3.66271176 C18.7767484,2.3023 15.4361032,1.56894706 12.0482323,1.50624118 L11.8237161,1.50624118 C8.36152258,1.61559412 4.95971613,2.42771176 1.82887742,3.89212353 C1.17700645,4.21941765 0.916877419,5.0063 1.24745806,5.65018235 C1.24823226,5.65018235 1.24823226,5.65094706 1.24823226,5.65094706 C1.48513548,6.08835882 1.94578065,6.36135882 2.44823226,6.36212353 L2.60307097,6.36212353 L2.96694194,6.36212353 Z M12.0714581,25.2197706 C11.5821677,25.2159471 11.1362323,24.9414176 10.9179097,24.5085941 L2.31661935,7.48624118 C1.44410323,7.45565294 0.657522581,6.95706471 0.265006452,6.18624118 C-0.341187097,5.01700588 0.1272,3.58394706 1.31094194,2.98594706 C1.31326452,2.98441765 1.3155871,2.98365294 1.31790968,2.98212353 C7.91171613,-0.273994118 15.6521032,-0.364229412 22.3217806,2.73741765 C23.5210065,3.30482941 24.0281032,4.72488824 23.4544258,5.90941765 C23.0758452,6.69018235 22.2985548,7.20635882 21.4237161,7.25682941 L13.2327484,24.4703588 C13.0299097,24.9238294 12.5808774,25.2213 12.0792,25.2350647 L12.0714581,25.2197706 Z" id="Fill-1" fill="#D4D4D4" mask="url(#mask-2)"></path>
                    </g>
                    <path d="M14.4559742,13.7416118 C14.3963613,13.7416118 14.3475871,13.7890235 14.3475871,13.8486706 L14.3475871,13.8563176 C14.355329,13.9152 14.4041032,13.9603176 14.4637161,13.9633765 C14.5256516,13.9610824 14.5744258,13.9098471 14.5721032,13.8486706 C14.5697806,13.7874941 14.5179097,13.7393176 14.4559742,13.7416118 L14.4559742,13.7416118 Z M14.4559742,15.0263176 C13.7971355,15.0370235 13.2552,14.5185529 13.2443613,13.8677882 C13.2335226,13.2177882 13.7584258,12.6817294 14.4172645,12.6710235 C15.0706839,12.6457882 15.6219097,13.1482 15.6474581,13.7936118 C15.6482323,13.7997294 15.6482323,13.8050824 15.6482323,13.8104353 C15.6699097,14.4604353 15.1542968,15.0049059 14.4962323,15.0263176 L14.4946839,15.0263176 L14.4559742,15.0263176 Z" id="Fill-4" fill="#D4D4D4"></path>
                    <path d="M10.3914581,14.0322765 L10.3914581,14.0322765 C10.0268129,14.0445118 9.74036129,14.3450412 9.74887742,14.7052176 C9.75429677,14.8772765 9.83016774,15.0393941 9.95790968,15.1563941 C10.0887484,15.2741588 10.2606194,15.3376294 10.4379097,15.3322765 C10.6144258,15.3269235 10.7816516,15.2527471 10.9024258,15.1258059 C11.0232,15.0003941 11.0874581,14.8321588 11.0804903,14.6593353 C11.0634581,14.2991588 10.7561032,14.0192765 10.3914581,14.0322765 L10.3914581,14.0322765 Z M10.3914581,16.4028647 C9.39971613,16.3860412 8.60926452,15.5777471 8.62629677,14.5981588 C8.64332903,13.6185706 9.46165161,12.8385706 10.4533935,12.8553941 C11.4451355,12.8722176 12.2355871,13.6797471 12.2185548,14.6593353 C12.2015226,15.6152176 11.4211355,16.3860412 10.4533935,16.4028647 L10.3914581,16.4028647 Z" id="Fill-6" fill="#D4D4D4"></path>
                    <path d="M15.4469419,9.03874706 L15.4469419,9.03874706 C15.0822968,9.05098235 14.7958452,9.35151176 14.8043613,9.71168824 C14.8097806,9.88374706 14.8856516,10.0458647 15.0133935,10.1628647 C15.1442323,10.2798647 15.3161032,10.3433353 15.4933935,10.3387471 C15.6699097,10.3333941 15.8371355,10.2592176 15.9579097,10.1322765 C16.0786839,10.0068647 16.1429419,9.83862941 16.1359742,9.66580588 C16.1189419,9.30562941 15.8115871,9.02574706 15.4469419,9.03874706 L15.4469419,9.03874706 Z M15.4469419,11.4093353 C14.4552,11.3925118 13.6647484,10.5842176 13.6817806,9.60462941 C13.6988129,8.62504118 14.5171355,7.84504118 15.5088774,7.86186471 C16.5006194,7.87868824 17.291071,8.68621765 17.2740387,9.66580588 C17.2570065,10.6216882 16.4766194,11.3925118 15.5088774,11.4093353 L15.4469419,11.4093353 Z" id="Fill-8" fill="#D4D4D4"></path>
                    <path d="M11.2043613,19.4387471 C11.2299097,19.8601 11.5968774,20.1812765 12.0234581,20.1560412 C12.4508129,20.1308059 12.7759742,19.7683353 12.7496516,19.3469824 C12.7256516,18.9439824 12.387329,18.6289235 11.9785548,18.6281588 C11.5512,18.6273941 11.2035871,18.9692176 11.2028129,19.3913353 C11.2028129,19.4073941 11.2035871,19.4226882 11.2043613,19.4387471" id="Fill-10" fill="#D4D4D4"></path>
                    <path d="M9.36178065,7.50925882 L9.31532903,7.50925882 C8.51326452,7.56049412 7.90474839,8.24414118 7.95661935,9.03637647 C8.00771613,9.82861176 8.70061935,10.4296706 9.50268387,10.3784353 C10.2853935,10.3287294 10.8869419,9.67567059 10.8637161,8.90102353 C10.851329,8.51867059 10.6841032,8.15772941 10.3992,7.89925882 C10.1204903,7.64155294 9.7512,7.50161176 9.36952258,7.50925882 L9.36178065,7.50925882 Z M9.36178065,11.4627882 C7.95739355,11.4857294 6.7992,10.3799647 6.77597419,8.99278824 C6.75274839,7.60561176 7.87223226,6.46161176 9.27661935,6.43867059 C10.6810065,6.39125882 11.8585548,7.47637647 11.9088774,8.86278824 C11.9522323,10.2514941 10.8474581,11.4123176 9.44152258,11.4551412 L9.4392,11.4551412 L9.35403871,11.4551412 L9.36178065,11.4627882 Z" id="Fill-12" fill="#D4D4D4"></path>
                    <path d="M3.00565161,7.70815882 C2.70603871,7.71045294 2.46216774,7.47186471 2.45984516,7.17668824 C2.45829677,6.97021765 2.57752258,6.78133529 2.76565161,6.6911 C5.62474839,5.37657059 8.72539355,4.6501 11.8779097,4.55757059 C12.1775226,4.55757059 12.4198452,4.79692353 12.4198452,5.09286471 C12.4198452,5.38880588 12.1775226,5.62815882 11.8779097,5.62815882 C8.89261935,5.72986471 5.95765161,6.41886471 3.24565161,7.65462941 C3.17055484,7.69057059 3.08849032,7.70892353 3.00565161,7.70815882" id="Fill-14" fill="#D4D4D4"></path>
                    <path d="M17.7772645,6.24757059 L17.6301677,6.24757059 C16.5401032,5.97227647 15.4291355,5.78262941 14.3088774,5.68168824 C14.0092645,5.68092353 13.7677161,5.44004118 13.7684903,5.14486471 C13.7692645,4.84892353 14.0131355,4.61033529 14.3119742,4.6111 C14.3421677,4.6111 14.3723613,4.61415882 14.4017806,4.61874706 C15.5909419,4.72504118 16.7684903,4.92692353 17.9243613,5.22286471 C18.1999742,5.33757059 18.3292645,5.65186471 18.2123613,5.9241 C18.1372645,6.10151176 17.9708129,6.22462941 17.7772645,6.24757059" id="Fill-16" fill="#D4D4D4"></path>
                </g>
            </g>
        </g>
    </g>
</svg>