<?xml version="1.0" encoding="UTF-8" standalone="no"?>
<svg width="52px" height="51px" viewBox="0 0 52 51" version="1.1" xmlns="http://www.w3.org/2000/svg" xmlns:xlink="http://www.w3.org/1999/xlink">
    <!-- Generator: Sketch 39.1 (31720) - http://www.bohemiancoding.com/sketch -->
    <title>ico_refrescos_grey </title>
    <desc>Created with Sketch.</desc>
    <defs></defs>
    <g id="Restaurantes_Home" stroke="none" stroke-width="1" fill="none" fill-rule="evenodd">
        <g id="iconos" transform="translate(-324.000000, -136.000000)" fill="#D4D4D4">
            <g id="icon01-copy-19" transform="translate(324.000000, 136.000000)">
                <g id="jugos_refrescos_blue" transform="translate(19.000000, 12.000000)">
                    <g id="Group-7" transform="translate(0.000000, 7.410000)">
                        <path d="M10.7923378,17.6862272 L11.2450435,17.289935 L3.5396087,17.289935 L3.99073101,17.675163 L1.60442667,2.34881298 C1.56576377,2.1004955 1.33244696,1.9304324 1.08329898,1.96896642 C0.834151003,2.00750044 0.663519132,2.24003953 0.702182029,2.48835702 L3.08848638,17.814707 C3.12300443,18.0364037 3.31450823,18.199935 3.5396087,18.199935 L11.2450435,18.199935 C11.4744028,18.199935 11.6681553,18.0303268 11.6977491,17.8036428 L13.6986187,2.4772928 C13.7311505,2.22810379 13.5548396,1.9998118 13.3048172,1.96738838 C13.0547948,1.93496495 12.8257393,2.11068818 12.7932074,2.3598772 L10.7923378,17.6862272 Z" id="Stroke-1"></path>
                        <path d="M0.456391304,0.63882 C0.20426131,0.63882 -0.000130434782,0.842530439 -0.000130434782,1.09382 C-0.000130434782,1.34510956 0.20426131,1.54882 0.456391304,1.54882 L13.9420435,1.54882 C14.1941735,1.54882 14.3985652,1.34510956 14.3985652,1.09382 C14.3985652,0.842530439 14.1941735,0.63882 13.9420435,0.63882 L0.456391304,0.63882 Z" id="Stroke-3"></path>
                        <path d="M12.57,5.35678 C12.82213,5.35678 13.0265217,5.15306956 13.0265217,4.90178 C13.0265217,4.65049044 12.82213,4.44678 12.57,4.44678 L1.75108696,4.44678 C1.49895696,4.44678 1.29456522,4.65049044 1.29456522,4.90178 C1.29456522,5.15306956 1.49895696,5.35678 1.75108696,5.35678 L12.57,5.35678 Z" id="Stroke-5"></path>
                    </g>
                    <path d="M11.7356739,21.85157 C11.9878039,21.85157 12.1921957,21.6478596 12.1921957,21.39657 C12.1921957,21.1452804 11.9878039,20.94157 11.7356739,20.94157 L3.08654348,20.94157 C2.83441348,20.94157 2.63002174,21.1452804 2.63002174,21.39657 C2.63002174,21.6478596 2.83441348,21.85157 3.08654348,21.85157 L11.7356739,21.85157 Z" id="Stroke-8"></path>
                    <g id="Group-13" transform="translate(0.652174, 0.260000)">
                        <path d="M10.8759941,1.06776204 C10.9993976,0.848628817 10.9211993,0.571281384 10.7013331,0.448289207 C10.481467,0.32529703 10.203192,0.403234744 10.0797885,0.622367964 L6.98196241,6.12331796 C6.85855889,6.34245118 6.93675727,6.61979862 7.15662338,6.74279079 C7.37648948,6.86578297 7.6547645,6.78784526 7.77816802,6.56871204 L10.8759941,1.06776204 Z" id="Stroke-9"></path>
                        <path d="M0.927130435,6.510335 L0.601043478,6.835335 L12.6193043,6.835335 L12.2932174,6.510335 L12.2932174,7.032935 L12.9453913,7.032935 L12.9453913,6.510335 C12.9453913,6.33084246 12.7993972,6.185335 12.6193043,6.185335 L0.601043478,6.185335 C0.420950625,6.185335 0.274956522,6.33084246 0.274956522,6.510335 L0.274956522,7.032935 L0.927130435,7.032935 L0.927130435,6.510335 Z" id="Stroke-11"></path>
                    </g>
                </g>
            </g>
        </g>
    </g>
</svg>