<?xml version="1.0" encoding="UTF-8" standalone="no"?>
<svg width="52px" height="51px" viewBox="0 0 52 51" version="1.1" xmlns="http://www.w3.org/2000/svg" xmlns:xlink="http://www.w3.org/1999/xlink">
    <!-- Generator: Sketch 39.1 (31720) - http://www.bohemiancoding.com/sketch -->
    <title>ico_cafes_green</title>
    <desc>Created with Sketch.</desc>
    <defs>
        <polygon id="path-1" points="0 27.3488372 12.727 27.3488372 12.727 0.0384186047 0 0.0384186047"></polygon>
    </defs>
    <g id="Restaurantes_Home" stroke="none" stroke-width="1" fill="none" fill-rule="evenodd">
        <g id="iconos" transform="translate(-138.000000, -197.000000)">
            <g id="icon01-copy-33" transform="translate(138.000000, 197.000000)">
                <g id="cafes_yellow" transform="translate(20.000000, 11.000000)">
                    <path d="M2.028,13.2189302 L10.894,13.2189302 L10.0815,8.91474419 L3.068,8.91474419 L2.028,13.2189302 Z M11.9925,14.1305581 L0.871,14.1305581 L2.3595,8.00311628 L10.8095,8.00311628 L11.9925,14.1305581 Z" id="Fill-1" fill="#44D481"></path>
                    <g id="Group-10" transform="translate(0.000000, 0.612419)">
                        <path d="M2.834,26.4372093 L9.802,26.4372093 L11.102,17.6660465 L1.8785,17.6660465 L1.9695,18.0502326 C4.4395,18.2781395 5.954,19.04 5.954,21.8465116 C5.954,23.6306977 3.5945,25.5646512 2.8015,26.1572093 L2.834,26.4372093 L2.834,26.4372093 Z M10.569,27.3488372 L2.002,27.3488372 L1.8005,25.7404651 L2.0215,25.584186 C2.8535,24.9916279 5.0115,23.1683721 5.0115,21.8530233 C5.0115,19.7823256 4.2315,19.1311628 1.534,18.9423256 L1.196,18.9423256 L0.702,16.7869767 L12.077,16.7869767 L10.569,27.3488372 L10.569,27.3488372 Z" id="Fill-2" fill="#44D481"></path>
                        <path d="M2.268565,20.6874419 L2.554565,22.9925581 C3.063515,22.588186 3.430115,22.0314419 3.601065,21.4037209 C3.594565,21.0716279 2.925065,20.8111628 2.268565,20.6874419 L2.268565,20.6874419 Z M1.852565,24.7376744 L1.202565,19.6651163 L1.755065,19.704186 C2.034565,19.704186 4.485065,19.9386047 4.485065,21.4037209 C4.485065,22.6734884 2.665065,24.0995349 2.457065,24.255814 L1.852565,24.7376744 Z" id="Fill-4" fill="#44D481"></path>
                        <mask id="mask-2" fill="white">
                            <use xlink:href="#path-1"></use>
                        </mask>
                        <g id="Clip-7"></g>
                        <polygon id="Fill-6" fill="#44D481" mask="url(#mask-2)" points="0 15.4325581 12.727 15.4325581 12.727 14.5209302 0 14.5209302"></polygon>
                        <path d="M4.511,5.84099535 L4.29,4.95541395 C4.65465,4.77048372 4.8763,4.3876 4.8555,3.97866977 C4.81325,3.78657674 4.70795,3.61466977 4.5565,3.49029767 C3.9065,2.83913488 3.367,2.12936744 3.692,1.20471628 C3.9715,0.358204651 4.8568,-0.128213953 5.72,0.091227907 L5.7915,0.091227907 L5.7915,0.410297674 L5.9345,0.989832558 C5.8357,1.00871628 5.7343,1.00871628 5.6355,0.989832558 C5.096,0.931227907 4.745,0.989832558 4.563,1.50425116 C4.446,1.82332093 4.5175,2.15541395 5.213,2.80657674 C5.54125,3.09634419 5.74405,3.50266977 5.7785,3.9396 C5.824,4.7848093 5.3079,5.55904186 4.511,5.84099535" id="Fill-8" fill="#44D481" mask="url(#mask-2)"></path>
                        <path d="M7.683,5.84099535 L7.462,4.95541395 C7.82665,4.77048372 8.0483,4.3876 8.0275,3.97866977 C7.9859,3.78657674 7.8806,3.61466977 7.7285,3.49029767 C7.0785,2.83913488 6.539,2.12936744 6.864,1.20471628 C7.1435,0.358204651 8.0288,-0.128213953 8.892,0.091227907 L8.9635,0.091227907 L8.9635,0.403786047 L9.1065,0.98332093 C9.0077,1.00155349 8.9063,1.00155349 8.8075,0.98332093 C8.268,0.924716279 7.917,0.98332093 7.735,1.49773953 C7.618,1.8168093 7.6895,2.14890233 8.385,2.80006512 C8.7139,3.0891814 8.9167,3.49615814 8.9505,3.93308837 C8.9986,4.78090233 8.48185,5.5583907 7.683,5.84099535" id="Fill-9" fill="#44D481" mask="url(#mask-2)"></path>
                    </g>
                </g>
            </g>
        </g>
    </g>
</svg>