<?xml version="1.0" encoding="UTF-8" standalone="no"?>
<svg width="52px" height="51px" viewBox="0 0 52 51" version="1.1" xmlns="http://www.w3.org/2000/svg" xmlns:xlink="http://www.w3.org/1999/xlink">
    <!-- Generator: Sketch 39.1 (31720) - http://www.bohemiancoding.com/sketch -->
    <title>ico_saludable_green</title>
    <desc>Created with Sketch.</desc>
    <defs>
        <polygon id="path-1" points="7.20222222 8.91647059 7.20222222 0.263324505 0.224545778 0.263324505 0.224545778 8.91647059"></polygon>
    </defs>
    <g id="Restaurantes_Home" stroke="none" stroke-width="1" fill="none" fill-rule="evenodd">
        <g id="iconos" transform="translate(-14.000000, -197.000000)">
            <g id="icon01-copy-31" transform="translate(14.000000, 197.000000)">
                <g id="saludable_blue" transform="translate(11.000000, 13.000000)">
                    <g id="Group-3" transform="translate(20.222222, 0.501418)">
                        <mask id="mask-2" fill="white">
                            <use xlink:href="#path-1"></use>
                        </mask>
                        <g id="Clip-2"></g>
                        <path d="M4.78348889,1.36117647 C4.04848889,1.62194118 3.37415556,2.02494118 2.80015556,2.54647059 C1.78904444,3.39529412 1.30682222,4.07588235 1.32237778,4.71058824 C1.33793333,5.34529412 1.86682222,5.99529412 2.93237778,6.77529412 C3.53826667,7.25858824 4.23593333,7.61723529 4.98571111,7.83058824 C4.56571111,7.18517647 4.01815556,6.62847059 3.37571111,6.19411765 L3.22793333,6.09470588 C2.94015556,5.98382353 2.79782222,5.66494118 2.90982222,5.38123529 C2.92226667,5.34988235 2.93782222,5.32005882 2.95571111,5.29176471 L3.22793333,4.85588235 L3.56237778,5.03941176 L3.91237778,5.03941176 C4.47237778,5.03941176 5.96571111,4.93235294 6.12126667,4.64941176 C6.01237778,4.53470588 5.45237778,4.35117647 3.46126667,4.35117647 L3.18126667,4.56529412 L2.48904444,3.74705882 L2.96348889,3.38 L3.28237778,3.12764706 C3.89915556,2.63441176 4.40704444,2.02341176 4.77571111,1.33058824 L4.78348889,1.36117647 Z M5.15682222,8.91647059 C4.0936,8.75664706 3.09493333,8.31235294 2.27126667,7.63176471 C0.910155556,6.63 0.256822222,5.71235294 0.225711111,4.74117647 C0.1946,3.77 0.785711111,2.81411765 2.0846,1.72823529 C2.97904444,0.963529412 4.20015556,0.198823529 5.07126667,0.267647059 C5.5566,0.280647059 5.93926667,0.677529412 5.92682222,1.15394118 C5.92604444,1.18529412 5.92293333,1.21588235 5.91904444,1.24647059 C5.72304444,2.03488235 5.28593333,2.74452941 4.66682222,3.28058824 C5.45704444,3.23394118 6.24026667,3.44958824 6.89126667,3.89235294 C7.09193333,4.08276471 7.20393333,4.34505882 7.20237778,4.61882353 C7.20237778,5.65117647 6.05904444,5.91882353 4.86904444,6.02588235 C5.15448889,6.29505882 5.41504444,6.58947059 5.64682222,6.90529412 C6.29237778,7.76941176 6.16793333,8.28176471 5.95793333,8.56470588 C5.80704444,8.75817647 5.58226667,8.88205882 5.33571111,8.90882353 L5.15682222,8.91647059 Z" id="Fill-1" fill="#44D481" mask="url(#mask-2)"></path>
                    </g>
                    <path d="M1.20571111,5.34972941 C2.20904444,6.16796471 8.20571111,8.34737647 12.8723778,8.34737647 L13.1601556,8.34737647 C18.2546,8.24796471 18.6434889,6.58090588 18.6046,5.02855294 C18.6839333,4.18431765 18.3308222,3.35614118 17.6634889,2.81855294 C16.8079333,2.18384706 15.2446,1.88561176 12.9968222,1.93149412 C8.40015556,1.99267059 2.13126667,4.3862 1.1746,5.33443529 L1.20571111,5.34972941 Z M12.8723778,9.41796471 C10.1213778,9.32467059 7.39604444,8.85590588 4.77571111,8.0262 C1.62571111,7.05502353 0.0157111111,6.16796471 0.000155555555,5.38796471 C-0.0154,4.60796471 1.55571111,3.6062 4.66682222,2.52796471 C7.3486,1.57284706 10.1571556,1.0062 13.0046,0.845611765 C15.5246,0.799729412 17.2590444,1.15914118 18.3246,1.95443529 C19.2563778,2.69696471 19.7689333,3.83561176 19.7012667,5.01325882 C19.7634889,7.97267059 17.7490444,9.33384706 13.1834889,9.42561176 L12.8723778,9.42561176 L12.8723778,9.41796471 Z" id="Fill-4" fill="#44D481"></path>
                    <path d="M12.2812667,25.7367118 C11.1690444,25.7367118 10.2668222,24.8496529 10.2676,23.7553588 C10.2676,23.6995353 10.2699333,23.6437118 10.2746,23.5878882 L10.8968222,16.3231824 C10.8968222,16.0020059 10.9357111,15.6731824 10.9357111,15.3443588 L10.9357111,14.1590647 C10.9357111,13.8631235 11.1791556,13.6237706 11.4801556,13.6237706 C11.7811556,13.6237706 12.0246,13.8631235 12.0246,14.1590647 L12.0246,15.3443588 C12.0246,15.6961235 12.0246,16.0555353 11.9779333,16.4073 L11.3557111,23.6720059 C11.3331556,23.9266529 11.4202667,24.1797706 11.5968222,24.3678882 C11.9600444,24.7395353 12.5604889,24.7517706 12.9384889,24.3946529 C12.9478222,24.3862412 12.9571556,24.3770647 12.9657111,24.3678882 C13.1430444,24.1797706 13.2309333,23.9274176 13.2068222,23.6720059 L12.5846,16.4073 C12.5534889,16.0501824 12.5379333,15.6961235 12.5379333,15.3443588 L12.5379333,14.1590647 C12.5379333,13.8631235 12.7813778,13.6237706 13.0823778,13.6237706 C13.3833778,13.6237706 13.6268222,13.8631235 13.6268222,14.1590647 L13.6268222,15.3443588 C13.6268222,15.6708882 13.6400444,15.9966529 13.6657111,16.3231824 L14.2879333,23.5878882 C14.3781556,24.6821824 13.5490444,25.6411235 12.4360444,25.7305941 C12.3847111,25.7344176 12.3326,25.7367118 12.2812667,25.7367118" id="Fill-6" fill="#44D481"></path>
                    <path d="M14.3112667,12.5226706 L10.1812667,12.5226706 C9.4696,12.4744941 8.93293333,11.8688471 8.98193333,11.1691412 C8.98193333,11.1614941 8.98271111,11.1538471 8.98348889,11.1462 L8.98348889,6.9862 C8.98348889,6.69025882 9.22693333,6.45090588 9.52793333,6.45090588 C9.82893333,6.45090588 10.0723778,6.69025882 10.0723778,6.9862 L10.0723778,11.1462 C10.0607111,11.2601412 10.1034889,11.3733176 10.1890444,11.4520824 L14.3112667,11.4520824 C14.3890444,11.3694941 14.4287111,11.2586118 14.4201556,11.1462 L14.4201556,6.9862 C14.4201556,6.69025882 14.6636,6.45090588 14.9646,6.45090588 C15.2656,6.45090588 15.5090444,6.69025882 15.5090444,6.9862 L15.5090444,11.1462 C15.5712667,11.8443765 15.0454889,12.4599647 14.3346,12.5211412 C14.3268222,12.5219059 14.3190444,12.5219059 14.3112667,12.5226706" id="Fill-8" fill="#44D481"></path>
                    <path d="M12.2345222,12.1937706 C11.9335222,12.1937706 11.6900778,11.9544176 11.6900778,11.6584765 L11.6900778,7.23082941 C11.6900778,6.93488824 11.9335222,6.69553529 12.2345222,6.69553529 C12.5355222,6.69553529 12.7789667,6.93488824 12.7789667,7.23082941 L12.7789667,11.6584765 C12.7789667,11.9544176 12.5355222,12.1937706 12.2345222,12.1937706" id="Fill-10" fill="#44D481"></path>
                    <path d="M12.2501556,7.29200588 C10.4356,7.29353529 8.63037778,7.03582941 6.89126667,6.5273 C6.68437778,6.46918235 6.5646,6.25812353 6.62371111,6.05471176 C6.68282222,5.85206471 6.89748889,5.7343 7.10437778,5.79165294 C7.11371111,5.79471176 7.12304444,5.79777059 7.13237778,5.80082941 C7.17904444,5.80082941 12.1490444,7.38377059 16.5823778,5.86965294 C16.7861556,5.80006471 17.0093778,5.90635882 17.0801556,6.10671176 C17.1509333,6.30706471 17.0428222,6.52653529 16.8390444,6.59612353 C15.3589333,7.07635882 13.8088222,7.31188824 12.2501556,7.29200588" id="Fill-12" fill="#44D481"></path>
                </g>
            </g>
        </g>
    </g>
</svg>