<?xml version="1.0" encoding="UTF-8" standalone="no"?>
<svg width="52px" height="51px" viewBox="0 0 52 51" version="1.1" xmlns="http://www.w3.org/2000/svg" xmlns:xlink="http://www.w3.org/1999/xlink">
    <!-- Generator: Sketch 39.1 (31720) - http://www.bohemiancoding.com/sketch -->
    <title>ico_desayunos_grey </title>
    <desc>Created with Sketch.</desc>
    <defs></defs>
    <g id="Restaurantes_Home" stroke="none" stroke-width="1" fill="none" fill-rule="evenodd">
        <g id="iconos" transform="translate(-200.000000, -136.000000)" fill="#D4D4D4">
            <g id="icon01-copy-17" transform="translate(200.000000, 136.000000)">
                <g id="desayunos_lgreen" transform="translate(13.000000, 13.000000)">
                    <path d="M23.2221958,2.4680511 C20.8659169,0.822482645 17.4933375,-8.66666667e-05 13.20228,-8.66666667e-05 C13.0608014,-8.66666667e-05 12.9170506,0.000799316354 12.7736368,0.00255899543 C12.6454334,0.000803292936 12.500815,-8.66666667e-05 12.35988,-8.66666667e-05 C8.06896095,-8.66666667e-05 4.69635869,0.822433075 2.33887881,2.46820373 C0.809477785,3.53459285 0.000346666667,5.23103685 0.000346666667,7.32498 C0.000346666667,9.27972732 0.569659964,10.7117767 1.55124905,11.6681661 L1.39933161,11.041045 C1.15367966,11.7747828 1.03940766,12.675756 1.0638735,13.8720512 C1.07238288,14.3052298 1.07238288,14.3052298 1.07680174,14.5323045 C1.07950481,14.6724935 1.07950481,14.6724935 1.08292388,14.8514277 C1.08418081,14.913043 1.16277536,18.9784574 1.23979659,22.9065398 C1.27395051,23.6943746 1.58192219,24.388888 2.10774428,24.9092555 C2.65134969,25.4473921 3.3703864,25.74598 4.12654667,25.74598 L21.4347467,25.74598 C22.1913424,25.74598 22.9087614,25.4477045 23.4527506,24.909188 C23.9787813,24.3896925 24.2872969,23.6943125 24.3201466,22.9562896 C24.4910167,14.1825904 24.4680597,15.365357 24.4775063,14.8625082 C24.4809265,14.6787687 24.4809265,14.6787687 24.4835186,14.5423997 C24.4881152,14.3048257 24.4881152,14.3048257 24.4965648,13.8723352 C24.5210001,12.6775453 24.4069372,11.7759697 24.1622145,11.0418018 L24.0100443,11.6681661 C24.9920431,10.7113775 25.5618133,9.27940372 25.5618133,7.32498 C25.5618133,5.23166203 24.7525028,3.5353671 23.2221958,2.4680511 Z M23.1633157,10.7991272 C22.9966948,10.9614706 22.9375806,11.2047969 23.0111455,11.4254915 C23.208371,12.0171681 23.3052569,12.7829733 23.2834735,13.8481088 C23.2750147,14.2810535 23.2750147,14.2810535 23.2706122,14.508487 C23.2678065,14.6560129 23.2678065,14.6560129 23.2643845,14.8398546 C23.2549487,15.3421261 23.2778774,14.1608152 23.1083945,22.8828604 C23.0887499,23.335123 22.908506,23.7413845 22.599658,24.0463959 C22.2811536,24.3616953 21.8699777,24.5326467 21.4347467,24.5326467 L4.12654667,24.5326467 C3.69156161,24.5326467 3.27882745,24.3612542 2.96128391,24.0469053 C2.65246897,23.7412938 2.47253228,23.3355148 2.45328171,22.902377 C2.37588767,18.9552905 2.29727723,14.8890543 2.29602037,14.8274683 C2.29261549,14.6492497 2.29261549,14.6492497 2.29001696,14.5144633 C2.28548242,14.2814118 2.28548242,14.2814118 2.27696306,13.8477356 C2.25515978,12.7816207 2.35215248,12.0168855 2.54989505,11.4262483 C2.62384156,11.2053775 2.56480483,10.9616716 2.39797761,10.7991272 C1.65762,10.0777764 1.21368,8.96109068 1.21368,7.32498 C1.21368,5.61269493 1.8430928,4.29305274 3.03313124,3.46328725 C5.16048777,1.97816719 8.29691425,1.21324667 12.35988,1.21324667 C12.495845,1.21324667 12.6355012,1.21410609 12.7736368,1.215801 C12.9269867,1.21410207 13.0657753,1.21324667 13.20228,1.21324667 C17.2653255,1.21324667 20.4016739,1.97819944 22.5277885,3.46302658 C23.7189129,4.29377904 24.34848,5.61333615 24.34848,7.32498 C24.34848,8.96065221 23.9041836,10.0772792 23.1633157,10.7991272 Z" id="Stroke-1"></path>
                    <path d="M9.35048558,11.4070616 L8.82694413,14.1937922 C8.71128812,14.80478 8.8427682,15.4295413 9.19527132,15.9454565 C9.54728933,16.4606617 10.0809237,16.8097539 10.6926796,16.9255547 L13.4796531,17.4500089 C13.6227071,17.4769781 13.7677601,17.4908067 13.9116467,17.4908067 C15.0373135,17.4908067 16.0046481,16.6883311 16.2118105,15.5822941 L16.7360489,12.7964669 C16.9737642,11.5282621 16.1365317,10.303194 14.8689469,10.0644246 L12.0823278,9.54090413 C11.9409414,9.51402763 11.7955645,9.50014 11.65138,9.50014 C11.3163273,9.50014 11.0447133,9.77175392 11.0447133,10.1068067 C11.0447133,10.4418594 11.3163273,10.7134733 11.65138,10.7134733 C11.7189941,10.7134733 11.7885361,10.7201166 11.857025,10.7331351 L14.6446322,11.2568425 C15.2537417,11.3715779 15.657837,11.9628645 15.5435646,12.5725049 L15.0193111,15.3584131 C14.9195897,15.8908231 14.4535068,16.2774733 13.9116467,16.2774733 C13.843956,16.2774733 13.7741129,16.2708149 13.7042384,16.2576418 L10.9177069,15.7332711 C10.6223555,15.677363 10.36784,15.5108643 10.1970887,15.2609568 C10.0260733,15.0106628 9.96348887,14.7132769 10.0192614,14.4186404 L10.5428825,11.6314878 C10.6430664,11.1001764 11.1095813,10.7134733 11.65138,10.7134733 C11.9864327,10.7134733 12.2580467,10.4418594 12.2580467,10.1068067 C12.2580467,9.77175392 11.9864327,9.50014 11.65138,9.50014 C10.526218,9.50014 9.55885402,10.3020065 9.35048558,11.4070616 Z" id="Stroke-3"></path>
                    <path d="M20.738108,19.7620751 C20.7532547,19.8105504 20.7261835,19.8625233 20.6780275,19.877572 C20.6282088,19.8932942 20.5764954,19.8663112 20.5613547,19.8178608 C20.5456325,19.7680422 20.5726154,19.7163287 20.6210658,19.701188 C20.6706577,19.6856905 20.7225356,19.7127367 20.738108,19.7620751 Z M19.734508,20.0775418 C19.892355,20.5826582 20.4317606,20.8641085 20.9377085,20.7044187 C21.4424044,20.546703 21.7229725,20.0080513 21.5649547,19.5023942 C21.4051753,18.9961566 20.8679027,18.7160527 20.3625608,18.873972 C19.8562684,19.0321884 19.5748182,19.5715939 19.734508,20.0775418 Z" id="Stroke-5"></path>
                    <path d="M18.1430815,18.9991953 C18.1620499,19.0597228 18.1278999,19.125073 18.0659761,19.144482 C18.0045971,19.1637776 17.9392358,19.1296489 17.9199672,19.0683563 C17.9006357,19.0066791 17.9348345,18.9411265 17.9962037,18.9218338 C18.0573992,18.9025957 18.1233424,18.9369984 18.1430815,18.9991953 Z M17.093082,19.3279172 C17.255961,19.8460282 17.8077466,20.1341456 18.325537,19.9713672 C18.8438908,19.8088982 19.132188,19.2572065 18.9696114,18.7385095 C18.8050606,18.22001 18.2537432,17.932387 17.7362896,18.0950595 C17.2184411,18.2578562 16.9306136,18.8095656 17.093082,19.3279172 Z" id="Stroke-7"></path>
                    <path d="M19.0354377,22.2004275 C19.0727945,22.3190225 19.0068651,22.4453795 18.8885964,22.4827275 C18.7711296,22.5194338 18.6452978,22.4537308 18.6084947,22.3359608 C18.5709823,22.2168702 18.6362958,22.0917012 18.7549468,22.0543261 C18.8727674,22.0172126 18.9986278,22.0829305 19.0354377,22.2004275 Z M17.7815739,22.5954068 C17.9610012,23.169578 18.5732579,23.4892675 19.1483392,23.3095547 C19.7236612,23.127876 20.0432754,22.5153192 19.8622661,21.9406865 C19.682429,21.3666448 19.0694884,21.0465981 18.4945598,21.2277006 C17.9196348,21.408802 17.6004674,22.0204655 17.7815739,22.5954068 Z" id="Stroke-9"></path>
                </g>
            </g>
        </g>
    </g>
</svg>