<?xml version="1.0" encoding="UTF-8" standalone="no"?>
<svg width="52px" height="51px" viewBox="0 0 52 51" version="1.1" xmlns="http://www.w3.org/2000/svg" xmlns:xlink="http://www.w3.org/1999/xlink">
    <!-- Generator: Sketch 39.1 (31720) - http://www.bohemiancoding.com/sketch -->
    <title>ico_shushi_grey </title>
    <desc>Created with Sketch.</desc>
    <defs></defs>
    <g id="Restaurantes_Home" stroke="none" stroke-width="1" fill="none" fill-rule="evenodd">
        <g id="iconos" transform="translate(-634.000000, -75.000000)" fill="#44D481">
            <g id="icon01-copy-30" transform="translate(634.000000, 75.000000)">
                <g id="sushi_red" transform="translate(9.000000, 14.000000)">
                    <path d="M16.3304878,1.8313963 C14.1903659,1.84076667 12.462561,3.58024815 12.4719512,5.71584074 C12.4821951,7.85228519 14.2245122,9.57558148 16.3654878,9.56621111 C18.5056098,9.55684074 20.232561,7.81735926 20.2231707,5.68176667 L20.2231707,5.65621111 C20.2095122,3.52232222 18.4689024,1.80072963 16.3304878,1.80584074 L16.3304878,1.8313963 Z M16.3304878,10.7673222 C13.5296341,10.7622111 11.2640244,8.49372963 11.2682927,5.6988037 C11.2734146,2.90387778 13.547561,0.642211111 16.347561,0.647322222 C19.1415854,0.651581481 21.4054878,2.91069259 21.4097561,5.6988037 C21.3867073,8.48861852 19.1262195,10.7443222 16.3304878,10.7673222 L16.3304878,10.7673222 Z" id="Fill-1"></path>
                    <path d="M15.3658537,4.5402 C15.2719512,4.5402 15.195122,4.61601481 15.195122,4.71057037 L15.195122,6.63575556 C15.195122,6.72945926 15.2719512,6.80612593 15.3658537,6.80612593 L17.295122,6.80612593 C17.3890244,6.80612593 17.4658537,6.72945926 17.4658537,6.63575556 L17.4658537,4.71057037 C17.4658537,4.61601481 17.3890244,4.5402 17.295122,4.5402 L15.3658537,4.5402 Z M17.295122,7.99871852 L15.3658537,7.99871852 C14.6112195,7.99871852 14,7.38879259 14,6.63575556 L14,4.71057037 C14,3.95753333 14.6112195,3.34760741 15.3658537,3.34760741 L17.295122,3.34760741 C18.0497561,3.34760741 18.6609756,3.95753333 18.6609756,4.71057037 L18.6609756,6.63575556 C18.6609756,7.38879259 18.0497561,7.99871852 17.295122,7.99871852 L17.295122,7.99871852 Z" id="Fill-3"></path>
                    <g id="Group-7" transform="translate(0.000000, 0.340656)">
                        <path d="M5.06219512,1.49074074 C2.92207317,1.495 1.19,3.23107407 1.19512195,5.36666667 C1.2002439,7.50225926 2.93914634,9.22981481 5.07926829,9.22555556 C7.21597561,9.22044444 8.94634146,7.49033333 8.94634146,5.35814815 C8.95573171,3.21744444 7.2245122,1.47455556 5.07926829,1.46518519 L5.06219512,1.46518519 L5.06219512,1.49074074 Z M5.06219512,10.4266667 C2.26134146,10.4215556 -0.00426829268,8.15307407 -7.47153024e-14,5.35814815 C0.00512195122,2.56322222 2.27926829,0.301555556 5.07926829,0.306666667 C7.87329268,0.310925926 10.1371951,2.57003704 10.1414634,5.35814815 C10.1184146,8.14796296 7.85792683,10.4036667 5.06219512,10.4266667 L5.06219512,10.4266667 Z" id="Fill-5"></path>
                    </g>
                    <path d="M4.09756098,4.5402 C4.00365854,4.5402 3.92682927,4.61601481 3.92682927,4.71057037 L3.92682927,6.63575556 C3.92682927,6.72945926 4.00365854,6.80612593 4.09756098,6.80612593 L6.02682927,6.80612593 C6.12073171,6.80612593 6.19756098,6.72945926 6.19756098,6.63575556 L6.19756098,4.71057037 C6.19756098,4.61601481 6.12073171,4.5402 6.02682927,4.5402 L4.09756098,4.5402 Z M6.02682927,7.99871852 L4.09756098,7.99871852 C3.34292683,7.99871852 2.73170732,7.38879259 2.73170732,6.63575556 L2.73170732,4.71057037 C2.73170732,3.95753333 3.34292683,3.34760741 4.09756098,3.34760741 L6.02682927,3.34760741 C6.78146341,3.34760741 7.39268293,3.95753333 7.39268293,4.71057037 L7.39268293,6.63575556 C7.39268293,7.38879259 6.78146341,7.99871852 6.02682927,7.99871852 L6.02682927,7.99871852 Z" id="Fill-8"></path>
                    <g id="Group-12" transform="translate(0.000000, 10.562878)">
                        <path d="M5.06219512,1.95925926 C2.92207317,1.96351852 1.19,3.69959259 1.19512195,5.83518519 C1.2002439,7.97077778 2.93914634,9.69833333 5.07926829,9.69407407 C7.21597561,9.68896296 8.94634146,7.95885185 8.94634146,5.82666667 C8.94121951,3.68937037 7.20402439,1.95925926 5.06219512,1.95925926 M5.06219512,10.8951852 C2.26134146,10.8900741 -0.00426829268,8.62159259 -7.47153024e-14,5.82666667 C0.00512195122,3.03174074 2.27841463,0.770074074 5.07926829,0.775185185 C7.87670732,0.779444444 10.1414634,3.04366667 10.1414634,5.83518519 C10.1132927,8.62159259 7.8545122,10.8721852 5.06219512,10.8951852" id="Fill-10"></path>
                    </g>
                    <path d="M4.09756098,15.2650148 C4.00365854,15.2650148 3.92682927,15.3408296 3.92682927,15.4353852 L3.92682927,17.3520519 C3.92682927,17.4457556 4.00365854,17.5224222 4.09756098,17.5224222 L6.02682927,17.5224222 C6.12073171,17.5224222 6.19756098,17.4457556 6.19756098,17.3520519 L6.19756098,15.4353852 C6.19756098,15.3408296 6.12073171,15.2650148 6.02682927,15.2650148 L4.09756098,15.2650148 Z M6.02682927,18.7235333 L4.09756098,18.7235333 C3.34292683,18.7235333 2.73170732,18.1136074 2.73170732,17.3605704 L2.73170732,15.4439037 C2.73682927,14.6934222 3.3454878,14.0860519 4.09756098,14.0809407 L6.02682927,14.0809407 C6.77890244,14.0860519 7.38756098,14.6934222 7.39268293,15.4439037 L7.39268293,17.3605704 C7.39268293,18.1136074 6.78146341,18.7235333 6.02682927,18.7235333 L6.02682927,18.7235333 Z" id="Fill-13"></path>
                    <path d="M16.3304878,12.522137 C14.1903659,12.522137 12.454878,14.2539519 12.454878,16.3895444 C12.454878,18.525137 14.1903659,20.2569519 16.3304878,20.2569519 C18.4706098,20.2569519 20.2060976,18.525137 20.2060976,16.3895444 C20.2009756,14.2556556 18.4689024,12.5263963 16.3304878,12.522137 M16.3304878,21.458063 C13.5296341,21.4529519 11.2640244,19.1844704 11.2682927,16.3895444 C11.2734146,13.5946185 13.5467073,11.3329519 16.347561,11.338063 C19.145,11.3423222 21.4097561,13.6065444 21.4097561,16.398063 C21.3815854,19.1844704 19.1228049,21.435063 16.3304878,21.458063" id="Fill-15"></path>
                    <path d="M15.3658537,15.2650148 C15.2719512,15.2650148 15.195122,15.3408296 15.195122,15.4353852 L15.195122,17.3520519 C15.195122,17.4457556 15.2719512,17.5224222 15.3658537,17.5224222 L17.295122,17.5224222 C17.3890244,17.5224222 17.4658537,17.4457556 17.4658537,17.3520519 L17.4658537,15.4353852 C17.4658537,15.3408296 17.3890244,15.2650148 17.295122,15.2650148 L15.3658537,15.2650148 Z M17.295122,18.7235333 L15.3658537,18.7235333 C14.6112195,18.7235333 14,18.1136074 14,17.3605704 L14,15.4439037 C14.005122,14.6934222 14.6137805,14.0860519 15.3658537,14.0809407 L17.295122,14.0809407 C18.0471951,14.0860519 18.6558537,14.6934222 18.6609756,15.4439037 L18.6609756,17.3605704 C18.6609756,18.1136074 18.0497561,18.7235333 17.295122,18.7235333 L17.295122,18.7235333 Z" id="Fill-17"></path>
                    <path d="M25.097561,22.4888037 C24.7671951,22.4888037 24.5,22.2221741 24.5,21.8925074 L24.5,0.596211111 C24.5,0.266544444 24.7671951,-8.51851852e-05 25.097561,-8.51851852e-05 C25.4279268,-8.51851852e-05 25.695122,0.266544444 25.695122,0.596211111 L25.695122,21.8925074 C25.695122,22.2221741 25.4279268,22.4888037 25.097561,22.4888037" id="Fill-19"></path>
                    <path d="M33.8304878,20.7936185 C33.6204878,20.7936185 33.4258537,20.6837296 33.3182927,20.5039889 L22.4341463,2.18917407 C22.2668293,1.90465556 22.362439,1.53835926 22.647561,1.3713963 C22.9326829,1.20443333 23.2997561,1.29984074 23.4670732,1.58435926 L34.3512195,19.8991741 C34.5159756,20.1845444 34.4186585,20.549137 34.1326829,20.7135444 C34.0404878,20.7663593 33.9363415,20.7944704 33.8304878,20.7936185" id="Fill-21"></path>
                </g>
            </g>
        </g>
    </g>
</svg>