<?xml version="1.0" encoding="UTF-8" standalone="no"?>
<svg width="52px" height="51px" viewBox="0 0 52 51" version="1.1" xmlns="http://www.w3.org/2000/svg" xmlns:xlink="http://www.w3.org/1999/xlink">
    <!-- Generator: Sketch 39.1 (31720) - http://www.bohemiancoding.com/sketch -->
    <title>ico_italiano_grey</title>
    <desc>Created with Sketch.</desc>
    <defs>
        <polygon id="path-1" points="3.91905797 0.228642857 0.607026998 0.228642857 0.607026998 13.1215103 3.91905797 13.1215103"></polygon>
        <polygon id="path-3" points="3.49777592 0.228642857 0.185744947 0.228642857 0.185744947 13.1215103 3.49777592 13.1215103 3.49777592 0.228642857"></polygon>
    </defs>
    <g id="Restaurantes_Home" stroke="none" stroke-width="1" fill="none" fill-rule="evenodd">
        <g id="iconos" transform="translate(-386.000000, -14.000000)">
            <g id="icon01-copy-7" transform="translate(386.000000, 14.000000)">
                <g id="italiano_blue" transform="translate(11.000000, 15.000000)">
                    <path d="M24.2276923,6.01016429 C24.1720513,6.01880714 24.1164103,6.01880714 24.0607692,6.01016429 C23.7674615,5.91980714 23.6029231,5.61180714 23.6943333,5.32187857 C23.6943333,5.32109286 23.6951282,5.31952143 23.6951282,5.31873571 C23.9757179,4.16766429 23.2666923,3.00795 22.1053846,2.71802143 C21.5275128,2.53573571 20.9011538,2.57187857 20.3487179,2.82016429 C19.8479487,3.03937857 19.4664103,3.45973571 19.2994872,3.97516429 C19.2072821,4.26587857 18.8941026,4.42773571 18.6,4.33659286 C18.3058974,4.24545 18.1421538,3.93587857 18.234359,3.64516429 C18.4942821,2.83273571 19.0928205,2.16959286 19.8797436,1.82230714 C20.6841538,1.45930714 21.5974615,1.40587857 22.4392308,1.67302143 C24.1927179,2.14052143 25.234,3.92173571 24.7682051,5.65659286 C24.6831538,5.87659286 24.4661538,6.01880714 24.2276923,6.01016429" id="Fill-1" fill="#D4D4D4"></path>
                    <path d="M25.054359,21.7715143 L5.59589744,21.7715143 L5.59589744,18.3929429 L15.2297436,18.3929429 C15.537359,18.3929429 15.7861538,18.6388714 15.7861538,18.9429429 C15.7861538,19.2470143 15.537359,19.4929429 15.2297436,19.4929429 L6.70871795,19.4929429 L6.70871795,20.6715143 L23.9335897,20.6715143 L23.9335897,19.4929429 L19.3392308,19.4929429 C19.0316154,19.4929429 18.7828205,19.2470143 18.7828205,18.9429429 C18.7828205,18.6388714 19.0316154,18.3929429 19.3392308,18.3929429 L25.0464103,18.3929429 L25.0464103,21.7715143 L25.054359,21.7715143 Z" id="Fill-3" fill="#D4D4D4"></path>
                    <path d="M25.3484615,19.4930214 L19.3471795,19.4930214 C19.0395641,19.4930214 18.7907692,19.2470929 18.7907692,18.9430214 C18.7907692,18.63895 19.0395641,18.3930214 19.3471795,18.3930214 L25.3484615,18.3930214 C26.5805128,18.3930214 27.8523077,17.0023071 28.83,14.57445 L29.1320513,13.8358786 L1.48641026,13.8358786 C2.42435897,16.66445 3.77564103,18.3930214 5.08717949,18.3930214 L15.2376923,18.3930214 C15.5453077,18.3930214 15.7941026,18.63895 15.7941026,18.9430214 C15.7941026,19.2470929 15.5453077,19.4930214 15.2376923,19.4930214 L5.08717949,19.4930214 C3.09205128,19.4930214 1.31153846,17.2851643 0.198717949,13.4351643 L0,12.7358786 L30.7774359,12.7358786 L29.8712821,14.9830214 C28.6869231,17.8901643 27.0892308,19.4930214 25.3484615,19.4930214" id="Fill-5" fill="#D4D4D4"></path>
                    <path d="M26.6519718,13.5529429 C26.359459,13.5537286 26.1162282,13.3305857 26.0955615,13.0422286 C26.0955615,12.8379429 25.6345359,8.05294286 18.4250487,7.44008571 C18.1190231,7.41494286 17.8908949,7.14937143 17.9163308,6.84687143 L17.9163308,6.84294286 C17.945741,6.54044286 18.2144077,6.3173 18.5204333,6.34008571 C26.7076128,7.03937143 27.2004333,12.9086571 27.2004333,12.9636571 C27.2234846,13.2661571 26.9929718,13.5301571 26.6869462,13.5529429 L26.6837667,13.5529429 L26.6519718,13.5529429 Z" id="Fill-7" fill="#D4D4D4"></path>
                    <path d="M3.74384615,13.3643714 C3.43623077,13.3643714 3.1874359,13.1176571 3.18823077,12.8135857 C3.18823077,12.7609429 3.19617949,12.7083 3.21128205,12.6572286 C4.23825641,9.94101429 6.47184615,7.84315714 9.26820513,6.96865714 C9.55197436,6.85315714 9.87787179,6.98672857 9.99471795,7.26722857 C10.112359,7.54772857 9.9764359,7.86987143 9.69266667,7.98537143 C9.67358974,7.99322857 9.65371795,8.0003 9.63384615,8.0058 C7.18564103,8.7813 5.22071795,10.6049429 4.28435897,12.9715143 C4.21361538,13.2072286 3.99264103,13.3675143 3.74384615,13.3643714" id="Fill-9" fill="#D4D4D4"></path>
                    <path d="M24.2197436,13.5529429 L24.1005128,13.5529429 C23.8000513,13.4900857 23.6076923,13.1985857 23.6712821,12.9008 L23.6712821,12.9008 C23.6991026,12.5055857 23.5671538,12.1158714 23.305641,11.8165143 C22.8048718,11.1800857 21.5807692,10.3786571 18.5841026,10.1429429 C18.2796667,10.1178 18.0523333,9.85458571 18.0753846,9.55365714 C18.1047949,9.25508571 18.3686923,9.03272857 18.6715385,9.0508 C21.445641,9.2708 23.305641,9.99365714 24.235641,11.1958 C24.6783846,11.7410857 24.8715385,12.4443 24.7682051,13.1365143 C24.7054103,13.3848 24.4780769,13.5568714 24.2197436,13.5529429" id="Fill-11" fill="#D4D4D4"></path>
                    <path d="M6.25564103,13.7651643 C6.18966667,13.7777357 6.12289744,13.7777357 6.05692308,13.7651643 C5.76997436,13.6583071 5.62371795,13.34245 5.73102564,13.0580214 C5.73102564,12.9715929 6.57358974,10.9208786 9.77692308,9.72659286 C10.0598974,9.60795 10.3865897,9.73837857 10.5066154,10.0180929 C10.626641,10.2978071 10.4946923,10.6207357 10.2117179,10.7393786 C10.1966154,10.7456643 10.1815128,10.7511643 10.1664103,10.7558786 C7.46384615,11.7615929 6.79615385,13.3801643 6.76435897,13.4508786 C6.66976923,13.6433786 6.47184615,13.7651643 6.25564103,13.7651643" id="Fill-13" fill="#D4D4D4"></path>
                    <path d="M29.1876923,13.5529429 C28.9118718,13.5521571 28.6789744,13.3510143 28.6392308,13.0815143 C28.5915385,12.7750857 27.3833333,5.52294286 18.2105128,4.73722857 C17.9044872,4.71208571 17.676359,4.4473 17.7017949,4.14401429 L17.7017949,4.14008571 C17.7312051,3.83758571 17.9998718,3.61444286 18.3058974,3.63722857 C28.3769231,4.49365714 29.7282051,12.8300857 29.7361538,12.9165143 C29.7790769,13.2158714 29.5692308,13.4924429 29.2671795,13.5372286 L29.1876923,13.5372286 L29.1876923,13.5529429 Z" id="Fill-15" fill="#D4D4D4"></path>
                    <path d="M1.56589744,13.2858786 L1.41487179,13.2858786 C1.11838462,13.2057357 0.944307692,12.9032357 1.02538462,12.6101643 C1.09692308,12.3587357 2.85358974,6.32445 8.79923077,3.96730714 C9.08458974,3.85416429 9.40889744,3.99166429 9.5225641,4.27373571 C9.63702564,4.55580714 9.49792308,4.87637857 9.2125641,4.98873571 C3.79153846,7.12587857 2.11435897,12.8458786 2.05871795,12.8458786 C2.01102564,13.08395 1.81071795,13.2630929 1.56589744,13.2858786" id="Fill-17" fill="#D4D4D4"></path>
                    <g id="Group-21" transform="translate(9.538462, 0.557229)">
                        <mask id="mask-2" fill="white">
                            <use xlink:href="#path-1"></use>
                        </mask>
                        <g id="Clip-20"></g>
                        <path d="M3.36230769,13.1215071 C3.12782051,13.1222929 2.91797436,12.9777214 2.83769231,12.7600786 C2.71051282,12.4143643 -0.341794872,4.28222143 0.906153846,1.13936429 C1.12315385,0.481721429 1.81628205,0.101435714 2.49589744,0.267221429 C2.78761538,0.362292857 2.94579487,0.674221429 2.84961538,0.962578571 C2.75264103,1.25093571 2.43787179,1.40729286 2.14615385,1.31222143 C2.05394872,1.37665 1.98002564,1.46307857 1.93153846,1.56365 C1.03333333,3.81865 3.03641026,10.1279357 3.87897436,12.3672214 C3.9934359,12.6492929 3.85433333,12.9690786 3.56897436,13.0822214 C3.503,13.10815 3.43305128,13.1215071 3.36230769,13.1215071" id="Fill-19" fill="#D4D4D4" mask="url(#mask-2)"></path>
                    </g>
                    <g id="Group-24" transform="translate(12.717949, 0.557229)">
                        <mask id="mask-4" fill="white">
                            <use xlink:href="#path-3"></use>
                        </mask>
                        <g id="Clip-23"></g>
                        <path d="M2.94102564,13.1215071 C2.70653846,13.1222929 2.49669231,12.9777214 2.41641026,12.7600786 C2.28923077,12.4143643 -0.763076923,4.28222143 0.484871795,1.13936429 C0.701871795,0.481721429 1.395,0.101435714 2.07461538,0.267221429 C2.36633333,0.362292857 2.52451282,0.674221429 2.42833333,0.962578571 C2.33135897,1.25093571 2.01658974,1.40729286 1.72487179,1.31222143 C1.63266667,1.37665 1.55874359,1.46307857 1.51025641,1.56365 C0.612051282,3.81865 2.61512821,10.1279357 3.45769231,12.3672214 C3.57215385,12.6492929 3.43305128,12.9690786 3.14769231,13.0822214 C3.08171795,13.10815 3.01176923,13.1215071 2.94102564,13.1215071" id="Fill-22" fill="#D4D4D4" mask="url(#mask-4)"></path>
                    </g>
                    <path d="M17.7335103,13.6472286 C17.4759718,13.6464429 17.2518179,13.4712286 17.1929974,13.2229429 C17.1294077,12.9715143 15.7224846,7.05508571 16.0404333,3.41722857 C16.0412282,3.11315714 16.2916128,2.86801429 16.5984333,2.8688 C16.9060487,2.86958571 17.1540487,3.11708571 17.1532538,3.42037143 C17.1532538,3.45101429 17.1500744,3.48165714 17.1453051,3.51151429 C16.8432538,6.97651429 18.2581256,12.9400857 18.2740231,12.9400857 C18.3439718,13.2347286 18.1587667,13.5301571 17.8606897,13.6000857 L17.7335103,13.6472286 Z" id="Fill-25" fill="#D4D4D4"></path>
                    <path d="M21.5965872,10.2215143 L21.5171,10.2215143 C21.2126641,10.1806571 20.9988436,9.90408571 21.0401769,9.60315714 L21.0401769,9.6008 C21.1554333,9.1278 20.9201513,8.63908571 20.4758179,8.43008571 C20.3510231,8.40415714 20.2206641,8.43322857 20.1181256,8.50865714 C19.8963564,8.68544286 19.7556641,8.94315714 19.7286385,9.22365714 C19.6928692,9.52065714 19.4194333,9.7328 19.1189718,9.69744286 C19.1126128,9.69665714 19.1070487,9.69587143 19.1006897,9.69508571 C18.7962538,9.65422857 18.5824333,9.37765714 18.6237667,9.07672857 L18.6237667,9.07437143 C18.6889462,8.48901429 18.9965615,7.95708571 19.4742795,7.60508571 C19.8343564,7.35522857 20.283459,7.26408571 20.7142795,7.35365714 C21.7253564,7.66951429 22.3389974,8.68072857 22.1450487,9.7108 C22.1243821,9.99601429 21.8859205,10.2183714 21.5965872,10.2215143" id="Fill-27" fill="#D4D4D4"></path>
                    <path d="M3.84717949,8.43794286 C3.71284615,8.43872857 3.58328205,8.3908 3.48153846,8.30437143 C2.64612821,7.61451429 2.53484615,6.38565714 3.23274359,5.55987143 C3.27805128,5.50565714 3.32653846,5.4538 3.37820513,5.40508571 C4.21520513,4.6068 5.52515385,4.55651429 6.4225641,5.28722857 C6.64194872,5.49937143 6.64671795,5.84744286 6.43130769,6.06508571 C6.2365641,6.26308571 5.92258974,6.28665714 5.69923077,6.12008571 C5.24217949,5.75472857 4.5824359,5.78144286 4.15717949,6.18294286 C3.9735641,6.35344286 3.87182051,6.59387143 3.87897436,6.84294286 C3.89169231,7.08494286 4.00694872,7.31044286 4.19692308,7.46365714 C4.43379487,7.65694286 4.46797436,8.00344286 4.2724359,8.23758571 C4.16751282,8.3633 4.01171795,8.43637143 3.84717949,8.43794286" id="Fill-29" fill="#D4D4D4"></path>
                </g>
            </g>
        </g>
    </g>
</svg>