<?xml version="1.0" encoding="UTF-8" standalone="no"?>
<svg width="52px" height="51px" viewBox="0 0 52 51" version="1.1" xmlns="http://www.w3.org/2000/svg" xmlns:xlink="http://www.w3.org/1999/xlink">
    <!-- Generator: Sketch 39.1 (31720) - http://www.bohemiancoding.com/sketch -->
    <title>ico_asiaticos_grey </title>
    <desc>Created with Sketch.</desc>
    <defs>
        <polygon id="path-1" points="0 25.7723886 22.6639032 25.7723886 22.6639032 -0.000297142857 0 -0.000297142857"></polygon>
    </defs>
    <g id="Restaurantes_Home" stroke="none" stroke-width="1" fill="none" fill-rule="evenodd">
        <g id="iconos" transform="translate(-262.000000, -136.000000)">
            <g id="icon01-copy-18" transform="translate(262.000000, 136.000000)">
                <g id="comida_asiatica_red" transform="translate(14.000000, 13.000000)">
                    <path d="M1.07595484,8.11682857 C0.880083871,8.11682857 0.692374194,8.0054 0.604825806,7.81597143 C0.483890323,7.55522857 0.596664516,7.2462 0.857083871,7.12511429 L16.0778903,0.0486571429 C16.3353419,-0.0716857143 16.6462129,0.039 16.7671484,0.301228571 C16.8880839,0.561228571 16.7753097,0.871 16.5156323,0.991342857 L1.29482581,8.06854286 C1.2236,8.10122857 1.15014839,8.11682857 1.07595484,8.11682857 L1.07595484,8.11682857 Z" id="Fill-1" fill="#D4D4D4"></path>
                    <path d="M1.55991935,9.78068 C1.35217742,9.78068 1.15556452,9.65513714 1.07617742,9.44862286 C0.971564516,9.18119429 1.10437097,8.88033714 1.37146774,8.77559429 L17.2155,2.60988 C17.4818548,2.50513714 17.7830806,2.63736571 17.8876935,2.90628 C17.9915645,3.17370857 17.8595,3.47456571 17.5916613,3.57856571 L1.74837097,9.74502286 C1.68604839,9.76953714 1.62298387,9.78068 1.55991935,9.78068" id="Fill-3" fill="#D4D4D4"></path>
                    <path d="M3.42781613,13.1042971 C3.1406871,13.1042971 2.90846129,12.8717829 2.90846129,12.5842971 L2.90846129,6.50326857 C2.90846129,6.21578286 3.1406871,5.98326857 3.42781613,5.98326857 C3.71494516,5.98326857 3.94717097,6.21578286 3.94717097,6.50326857 L3.94717097,12.5842971 C3.94717097,12.8717829 3.71494516,13.1042971 3.42781613,13.1042971" id="Fill-5" fill="#D4D4D4"></path>
                    <path d="M5.3015,13.1042971 C5.01437097,13.1042971 4.78214516,12.8717829 4.78214516,12.5842971 L4.78214516,5.63189714 C4.78214516,5.34441143 5.01437097,5.11189714 5.3015,5.11189714 C5.58862903,5.11189714 5.82085484,5.34441143 5.82085484,5.63189714 L5.82085484,12.5842971 C5.82085484,12.8717829 5.58862903,13.1042971 5.3015,13.1042971" id="Fill-7" fill="#D4D4D4"></path>
                    <mask id="mask-2" fill="white">
                        <use xlink:href="#path-1"></use>
                    </mask>
                    <g id="Clip-10"></g>
                    <polygon id="Fill-9" fill="#D4D4D4" mask="url(#mask-2)" points="1.07654839 25.7723886 21.5880968 25.7723886 21.5880968 24.7323886 1.07654839 24.7323886"></polygon>
                    <path d="M1.07157742,15.08 C1.44773871,20.4048 5.94238387,24.6524571 11.3318032,24.6524571 C16.7204806,24.6524571 21.2151258,20.4048 21.592029,15.08 L1.07157742,15.08 Z M11.3318032,25.6932 C5.20267419,25.6932 0.124125806,20.7026857 0.00912580645,14.5696571 L0.000222580645,14.04 L22.6641258,14.04 L22.6544806,14.5696571 C22.5394806,20.7026857 17.4601903,25.6932 11.3318032,25.6932 L11.3318032,25.6932 Z" id="Fill-11" fill="#D4D4D4" mask="url(#mask-2)"></path>
                </g>
            </g>
        </g>
    </g>
</svg>