<?xml version="1.0" encoding="UTF-8" standalone="no"?>
<svg width="52px" height="51px" viewBox="0 0 52 51" version="1.1" xmlns="http://www.w3.org/2000/svg" xmlns:xlink="http://www.w3.org/1999/xlink">
    <!-- Generator: Sketch 39.1 (31720) - http://www.bohemiancoding.com/sketch -->
    <title>ico_pollo_grey</title>
    <desc>Created with Sketch.</desc>
    <defs></defs>
    <g id="Restaurantes_Home" stroke="none" stroke-width="1" fill="none" fill-rule="evenodd">
        <g id="iconos" transform="translate(-138.000000, -14.000000)" fill="#D4D4D4">
            <g id="icon01-copy-3" transform="translate(138.000000, 14.000000)">
                <g id="pollo_dgreen" transform="translate(12.000000, 13.000000)">
                    <path d="M18.5386118,19.4554065 C18.2426706,19.4530839 18.0056118,19.2084387 18.0079059,18.9088258 C18.0102,18.6610839 18.1784353,18.4458581 18.4162588,18.3870194 C18.6395529,18.3366968 18.8590235,18.2716645 19.0739059,18.193471 C20.3739059,17.7831484 21.1692,16.4979871 21.5209647,14.2605677 C21.5905529,13.7604387 21.8383176,13.3036645 22.2168471,12.9754065 C22.5632588,12.6564387 23.0289647,12.5046968 23.4939059,12.5573419 L23.7615529,12.5573419 C23.8196706,12.5472774 23.8793176,12.5472774 23.9374353,12.5573419 C24.1660824,12.6603097 24.4276118,12.6603097 24.6562588,12.5573419 C24.8084353,12.4582452 24.8772588,12.2685677 24.8244941,12.0928258 C24.6998471,11.9511484 24.5285529,11.8597935 24.3427294,11.8373419 L24.2586118,11.8373419 C23.9198471,11.8350194 23.6162588,11.6236645 23.4939059,11.3031484 C23.4832,11.2419871 23.4832,11.1792774 23.4939059,11.1173419 C23.5038471,10.8750194 23.4426706,10.6357935 23.3180235,10.4283097 C23.2453765,10.3206968 23.1260824,10.2548903 22.9968471,10.2502452 C22.7903765,10.2889548 22.7062588,10.505729 22.5915529,11.1637935 C22.5915529,11.3341161 22.5303765,11.5044387 22.4921412,11.6592774 C22.4149059,11.9279226 22.2466706,12.1609548 22.0180235,12.3173419 C21.3030235,12.8631484 20.4542,13.2006968 19.5633176,13.2928258 L19.1274353,13.2928258 C18.1073176,13.3253419 17.0979059,13.5080516 16.1297882,13.8347613 C14.6906118,14.3302452 13.5603765,15.4745032 13.0709647,16.9315355 C12.9730824,17.2141161 12.6679647,17.3627613 12.3888471,17.2636645 C12.1280824,17.1715355 11.9797294,16.8936 12.0462588,16.6218581 C12.6373765,14.8388903 14.0176706,13.4383742 15.7780235,12.8360516 C16.8287294,12.4752774 17.9260824,12.2716645 19.0356706,12.2321806 L19.4562588,12.2321806 C20.1613176,12.1586323 20.8327294,11.8907613 21.3986118,11.4579871 C21.4666706,11.3139871 21.5133176,11.1599226 21.5362588,11.0012129 C21.6433176,10.3973419 21.8192,9.39089032 22.8744941,9.19734194 C23.4006118,9.15940645 23.9068471,9.40714839 24.2050824,9.84766452 C24.3886118,10.1379871 24.5063765,10.465471 24.5492,10.8076645 L24.7250824,10.8618581 C25.2496706,10.9733419 25.6855529,11.3418581 25.8874353,11.8450839 C26.0610235,12.4466323 25.8438471,13.0938581 25.3444941,13.4631484 C24.8933176,13.7666323 24.3297294,13.8432774 23.8150824,13.6721806 L23.4709647,13.6721806 C23.2958471,13.6474065 23.1169059,13.6776 22.9586118,13.7573419 L22.8897882,13.8270194 C22.6963176,13.9903742 22.5724353,14.2234065 22.5456706,14.4773419 C22.1250824,17.1483097 21.0927294,18.7121806 19.3874353,19.2541161 C19.1373765,19.3446968 18.8819647,19.4197935 18.6227294,19.4786323 L18.5386118,19.4554065 Z" id="Fill-1"></path>
                    <path d="M0.881629412,20.825729 C0.724864706,20.8241806 0.577276471,20.753729 0.476335294,20.6321806 C-0.130076471,19.7248258 -0.1599,18.5426323 0.399864706,17.6050839 C2.43933529,13.9733419 5.86674706,11.3519226 9.87457059,10.3586323 C13.7669235,9.35218065 17.9498647,9.82443871 20.7869235,11.5973419 C21.0262765,11.7723097 21.0805706,12.1114065 20.9069824,12.353729 C20.7525118,12.5712774 20.4642176,12.6409548 20.2286882,12.5186323 C17.6669235,10.9237935 13.7057471,10.4825032 10.1422176,11.4037935 C6.43492353,12.3405677 3.26215882,14.7599226 1.3481,18.1083097 C1.06974706,18.5999226 1.00857059,19.1867613 1.17986471,19.7263742 L22.9281,19.7263742 C23.0978647,19.7178581 23.2622765,19.6621161 23.4022176,19.5637935 C23.8243353,19.1395355 23.9780412,18.5124387 23.7998647,17.9379871 C23.5597471,16.6164387 23.0114529,15.3715355 22.2016294,14.3070194 C22.0203941,14.0701161 22.0632176,13.7286968 22.2972176,13.5444387 C22.5319824,13.3609548 22.8692176,13.4043097 23.0504529,13.6412129 C23.9703941,14.8481806 24.5921,16.2603097 24.8628059,17.7599226 C25.0310412,19.0218581 24.7557471,19.9121806 24.0292765,20.4463742 C23.7142176,20.6685677 23.3425706,20.7947613 22.9586882,20.8102452 L0.881629412,20.8102452 L0.881629412,20.825729 Z" id="Fill-4"></path>
                    <path d="M10.0963353,8.28371613 C9.80039412,8.28371613 9.56104118,8.04139355 9.56104118,7.74178065 C9.59239412,6.91803871 10.0213941,6.1632 10.7081,5.72113548 C11.3565706,5.4192 11.6395118,4.64190968 11.3412765,3.98539355 C11.2120412,3.70203871 10.9879824,3.4752 10.7081,3.34436129 C10.0213941,2.90229677 9.59239412,2.14745806 9.56104118,1.32371613 C9.56104118,1.02487742 9.80039412,0.781780645 10.0963353,0.781780645 C10.3922765,0.781780645 10.6316294,1.02487742 10.6316294,1.32371613 C10.6698647,1.82694194 10.9581588,2.27597419 11.3963353,2.51597419 C12.5005706,3.14461935 12.8928647,4.56061935 12.2719235,5.67855484 C12.0654529,6.05016774 11.7626294,6.35674839 11.3963353,6.56500645 C10.9581588,6.80500645 10.6698647,7.25403871 10.6316294,7.75726452 C10.6232176,8.05068387 10.3861588,8.28371613 10.0963353,8.28371613" id="Fill-7"></path>
                    <path d="M13.9121412,8.28371613 C13.6162,8.28371613 13.3768471,8.04139355 13.3768471,7.74178065 C13.4082,6.91803871 13.8372,6.1632 14.5239059,5.72113548 C15.1746706,5.42384516 15.4629647,4.64810323 15.1693176,3.99003871 C15.0400824,3.69971613 14.8106706,3.46745806 14.5239059,3.33661935 C13.8372,2.89455484 13.4082,2.13971613 13.3768471,1.31597419 C13.3768471,1.01713548 13.6162,0.77403871 13.9121412,0.77403871 C14.2080824,0.77403871 14.4474353,1.01713548 14.4474353,1.31597419 C14.4872,1.81842581 14.7747294,2.26668387 15.2121412,2.50823226 C16.3140824,3.14074839 16.7017882,4.55829677 16.0770235,5.67390968 C15.8720824,6.04010323 15.5730824,6.34203871 15.2121412,6.54952258 C14.7739647,6.78952258 14.4856706,7.23855484 14.4474353,7.74178065 C14.4474353,8.04139355 14.2080824,8.28371613 13.9121412,8.28371613" id="Fill-9"></path>
                    <polygon id="Fill-12" points="0.147588235 23.945729 24.9087647 23.945729 24.9087647 22.8618581 0.147588235 22.8618581"></polygon>
                </g>
            </g>
        </g>
    </g>
</svg>