<?xml version="1.0" encoding="UTF-8" standalone="no"?>
<svg width="52px" height="51px" viewBox="0 0 52 51" version="1.1" xmlns="http://www.w3.org/2000/svg" xmlns:xlink="http://www.w3.org/1999/xlink">
    <!-- Generator: Sketch 39.1 (31720) - http://www.bohemiancoding.com/sketch -->
    <title>ico_dulcestipicos_grey</title>
    <desc>Created with Sketch.</desc>
    <defs></defs>
    <g id="supermercado_categoria" stroke="none" stroke-width="1" fill="none" fill-rule="evenodd">
        <g id="Subcategorias_snacks" transform="translate(-325.000000, -14.000000)" fill="#D4D4D4">
            <g id="icon01-copy-5" transform="translate(325.000000, 14.000000)">
                <g id="dulces_tipicos_lgreen" transform="translate(19.000000, 12.000000)">
                    <path d="M7.29545455,13.497975 C3.79365729,13.497975 0.954545455,10.6878367 0.954545455,7.22115 C0.954545455,3.7554758 3.79399827,0.945 7.29545455,0.945 C10.7973498,0.945 13.6363636,3.75523542 13.6363636,7.22115 C13.6363636,10.6880771 10.7976908,13.497975 7.29545455,13.497975 Z M7.29545455,2.84217094e-14 C3.26686165,2.84217094e-14 0,3.23352287 0,7.22115 C0,11.2097896 3.26652067,14.442975 7.29545455,14.442975 C11.3248421,14.442975 14.5909091,11.2100154 14.5909091,7.22115 C14.5909091,3.2332971 11.3245012,2.84217094e-14 7.29545455,2.84217094e-14 Z" id="Stroke-1"></path>
                    <path d="M6.81818182,26.4745125 C6.81818182,26.735467 7.0318641,26.9470125 7.29545455,26.9470125 C7.55904499,26.9470125 7.77272727,26.735467 7.77272727,26.4745125 L7.77272727,14.3238375 C7.77272727,14.062883 7.55904499,13.8513375 7.29545455,13.8513375 C7.0318641,13.8513375 6.81818182,14.062883 6.81818182,14.3238375 L6.81818182,26.4745125 Z" id="Stroke-3"></path>
                    <path d="M1.08699552,7.22271267 C1.49282644,7.45705069 1.7537715,7.53005637 2.15290074,7.38645988 C2.55301438,7.24237398 2.70563083,7.02056259 2.86531915,6.58217821 C2.93648843,6.38680079 2.95174956,6.36463993 3.00649247,6.34495094 C3.06053872,6.32553083 3.08655669,6.33280908 3.26720041,6.43690374 C3.67385089,6.67123238 3.9351653,6.7440839 4.33453334,6.59990604 C4.73410982,6.45619356 4.88761105,6.23364932 5.04704461,5.79614193 C5.11836733,5.60042101 5.13345106,5.57849742 5.18699165,5.55923488 C5.24148466,5.53958683 5.2673793,5.54681767 5.44791915,5.65088499 C5.85462813,5.88532161 6.11505053,5.95833851 6.51449677,5.81530277 C6.91492068,5.67043126 7.06741769,5.44881313 7.22672519,5.01168795 C7.29787086,4.81647059 7.31289282,4.79468303 7.36758834,4.77507868 C7.42279291,4.75508344 7.44843544,4.76219096 7.62763995,4.86525584 C8.03557978,5.09987439 8.29668514,5.17259475 8.69644511,5.02863618 C9.09642305,4.88459913 9.24908771,4.66288228 9.40871805,4.22487218 C9.47971271,4.03006978 9.49483214,4.00811163 9.54939966,3.98846118 C9.6053753,3.96821622 9.63137391,3.97542773 9.81251895,4.07951928 C10.2192006,4.31321001 10.4807677,4.38571427 10.8801218,4.24140768 C11.2801652,4.09788659 11.4334767,3.87585032 11.5935132,3.43752096 C11.6646882,3.24257734 11.6799167,3.22048116 11.7349414,3.2006228 C11.9825897,3.11124682 12.1101629,2.84004226 12.0198841,2.59487047 C11.9296054,2.34969867 11.6556614,2.22340122 11.4080131,2.3127772 C11.0083152,2.45702773 10.8556152,2.67859202 10.6958378,3.11621155 C10.6245641,3.31142562 10.6093915,3.33339958 10.5538663,3.3533202 C10.4984478,3.37334432 10.4726347,3.36618914 10.292766,3.26283148 C9.8846735,3.02832891 9.62300865,2.95574817 9.22247233,3.10061546 C8.82312241,3.24442587 8.67045775,3.46614272 8.5108274,3.90415282 C8.43983275,4.09895522 8.42471332,4.12091337 8.3701458,4.14056382 C8.31551285,4.16023782 8.28941015,4.15296797 8.10867459,4.04902147 C7.70193896,3.81509788 7.44012134,3.74252815 7.04110738,3.88707321 C6.64180312,4.03019169 6.48874826,4.25217965 6.3289788,4.69057274 C6.25800007,4.88533187 6.24274948,4.90749497 6.1883339,4.92718265 C6.13564489,4.94604704 6.10947768,4.93871031 5.9286878,4.83449877 C5.52176808,4.59994089 5.26053507,4.52699397 4.86064732,4.67117878 C4.46161648,4.81473975 4.30916875,5.03631647 4.14961868,5.47414728 C4.07831781,5.66980659 4.06288763,5.69217708 4.00805299,5.71189906 C3.95381048,5.73148106 3.92808999,5.72431048 3.74827552,5.62069402 C3.34107292,5.38604643 3.08031923,5.31310337 2.68068862,5.45670031 C2.2801445,5.60076115 2.12719427,5.82286194 1.96747817,6.26132243 C1.89632394,6.45665862 1.88112107,6.47875432 1.8267367,6.49833882 C1.77344215,6.51751281 1.74798311,6.51039003 1.56875059,6.4068962 C1.16140252,6.17168145 0.89995542,6.09863518 0.499423683,6.24336732 C0.251811736,6.3328419 0.124348729,6.60409723 0.21472709,6.84923305 C0.305105451,7.09436888 0.579100733,7.22055726 0.82671268,7.13108268 C0.881105613,7.11142779 0.906612529,7.11855423 1.08699552,7.22271267 Z" id="Stroke-5"></path>
                    <path d="M2.51724954,11.9392902 C2.93861584,12.1593211 3.2077826,12.2230295 3.61713704,12.0746044 C4.02486073,11.9283318 4.18975444,11.7086724 4.3704437,11.2726363 C4.4580345,11.0612666 4.4823604,11.0288771 4.56930535,10.9974245 C4.65457863,10.9667001 4.69321233,10.9758441 4.89585185,11.081447 C5.31771396,11.3012954 5.58646916,11.3649903 5.9956088,11.2177423 C6.40500191,11.0698131 6.57015609,10.8497792 6.75004461,10.4149428 C6.83740014,10.2037813 6.86094813,10.1724145 6.94777908,10.1412358 C7.03412859,10.1101235 7.07261459,10.1192053 7.27413178,10.22427 C7.69607043,10.4442573 7.96478399,10.5079798 8.37385316,10.3613897 C8.78326186,10.2129485 8.94784117,9.99336608 9.12817905,9.55834842 C9.2158584,9.34684456 9.23973636,9.31501786 9.32629061,9.28386726 C9.41261441,9.2527996 9.45149946,9.26196202 9.65361947,9.36716854 C10.0759779,9.58701433 10.3447485,9.65065617 10.7539161,9.50419852 C11.1638988,9.35664782 11.3285358,9.13695737 11.508896,8.70080793 C11.5960108,8.49014625 11.6198459,8.45833774 11.7062902,8.42712857 C11.7936746,8.39568847 11.8329715,8.40490228 12.0370368,8.51057924 C12.4585576,8.72886709 12.7275849,8.79186051 13.1364143,8.64459772 C13.5457095,8.49826327 13.7112247,8.27836836 13.8920339,7.84238302 C13.9796249,7.63117958 14.0040867,7.59863953 14.0916352,7.56680652 C14.3390652,7.47683995 14.4659779,7.20533182 14.3751025,6.96037612 C14.2842272,6.71542043 14.0099766,6.58977692 13.7625466,6.67974348 C13.3551105,6.82788892 13.1895787,7.04808556 13.0099535,7.48120637 C12.9218534,7.69364224 12.898237,7.72501774 12.8111116,7.75616779 C12.7226366,7.7880356 12.6834815,7.77886734 12.4800696,7.67352891 C12.057957,7.45493424 11.7890412,7.3918825 11.3797504,7.53914298 C10.9705567,7.68687473 10.8058509,7.90667871 10.6257213,8.34226986 C10.538508,8.55317 10.5148573,8.58472929 10.428573,8.61578274 C10.3421008,8.6467339 10.3028234,8.63743347 10.0992753,8.53148272 C9.67799493,8.31219991 9.40862525,8.24872882 9.00016393,8.39573274 C8.59101772,8.54298315 8.42625141,8.76259858 8.24541797,9.1988127 C8.15794911,9.40980828 8.13378057,9.44205407 8.04727205,9.4734206 C7.96217865,9.50391029 7.92329873,9.49469034 7.72035545,9.38888125 C7.29949232,9.16945648 7.03017998,9.10590494 6.62181679,9.25304228 C6.21249406,9.4000188 6.04747845,9.61982586 5.86712879,10.0557789 C5.77997165,10.2664599 5.75605372,10.2983257 5.66890548,10.3298157 C5.58315593,10.3606763 5.54437973,10.3514863 5.34108362,10.245541 C4.91981739,10.0260035 4.65094839,9.96236685 4.24227133,10.1096173 C3.83351337,10.2574861 3.66809556,10.4777369 3.48806113,10.9121868 C3.40018927,11.1242377 3.37649268,11.1558045 3.29039126,11.1866944 C3.2032841,11.2182751 3.16527044,11.2092777 2.962825,11.1035639 C2.54155957,10.8835856 2.27277396,10.8198244 1.86363508,10.9677063 C1.61603091,11.057202 1.4885915,11.3284682 1.57899118,11.5735963 C1.66939087,11.8187244 1.94339712,11.9448894 2.19100129,11.8553937 C2.27656012,11.8244688 2.31468023,11.8335116 2.51724954,11.9392902 Z" id="Stroke-7"></path>
                </g>
            </g>
        </g>
    </g>
</svg>