<?xml version="1.0" encoding="UTF-8" standalone="no"?>
<svg width="52px" height="51px" viewBox="0 0 52 51" version="1.1" xmlns="http://www.w3.org/2000/svg" xmlns:xlink="http://www.w3.org/1999/xlink">
    <!-- Generator: Sketch 39.1 (31720) - http://www.bohemiancoding.com/sketch -->
    <title>ico_TODOSsnacks_green</title>
    <desc>Created with Sketch.</desc>
    <defs></defs>
    <g id="supermercado_categoria" stroke="none" stroke-width="1" fill="none" fill-rule="evenodd">
        <g id="Subcategorias_snacks" transform="translate(-15.000000, -75.000000)" fill="#44D481">
            <g id="icon01-copy-7" transform="translate(15.000000, 75.000000)">
                <g id="snacks_dgreen" transform="translate(13.000000, 14.000000)">
                    <path d="M21.8876669,5.78307268 C21.5198984,5.53207969 21.0424426,5.87822594 21.1561836,6.31338398 C21.8849236,9.10144742 19.5733108,13.274768 15.4860547,16.2377934 C11.3987983,19.200819 6.76371227,20.0632361 4.40823022,18.4547512 C4.04051867,18.2036525 3.56296447,18.5496916 3.67661351,18.9848858 C3.81209808,19.5036943 4.02536788,19.976183 4.31959102,20.3954732 C6.53576798,23.5545516 12.466022,22.957704 17.5932086,19.2408953 C22.7211679,15.5233189 25.2076525,10.019385 22.9907544,6.86035052 C22.6966971,6.44129674 22.3266282,6.08265308 21.8876669,5.78307268 Z M17.035764,18.446494 C12.2831091,21.8917966 6.92655344,22.4309046 5.10119909,19.8289294 C4.87588968,19.5078465 4.71106424,19.1426838 4.60448363,18.7345567 L4.14054857,18.8597212 L3.87286692,19.2646912 C6.62449688,21.143693 11.6659497,20.2056662 16.0434996,17.0321945 C20.4210012,13.8587578 22.9352471,9.319609 22.0839992,6.06284632 L21.6200914,6.18811515 L21.352516,6.59315762 C21.6980648,6.82898628 21.9841093,7.10619961 22.209191,7.42695805 C24.0351648,10.0289332 21.7892228,15.0004163 17.035764,18.446494 Z" id="Stroke-1"></path>
                    <path d="M21.4409804,4.65173589 C21.2224139,4.33982243 20.9524316,4.0623253 20.6219255,3.79543268 C20.2551941,3.49928713 19.7310186,3.85771193 19.8626957,4.31458474 C19.9765917,4.70976319 20.0269306,5.14599764 20.0142581,5.61871426 C20.0070374,5.88806231 20.2160075,6.11236162 20.4810058,6.11970081 C20.7460042,6.12703999 20.9666812,5.91463984 20.9739019,5.6452918 C20.9892033,5.07451169 20.9272005,4.53719908 20.7839786,4.0402698 L20.3233371,4.17742727 L20.0247488,4.55942187 C20.2891814,4.77295833 20.4970026,4.98656417 20.6592225,5.21806598 C20.8844402,5.53901847 21.0493821,5.90474338 21.1560878,6.3133494 C21.2240979,6.57377935 21.4869419,6.72886147 21.7431661,6.659735 C21.9993904,6.59060853 22.1519681,6.32345026 22.0839579,6.0630203 C21.9483716,5.54382224 21.7350274,5.07077501 21.4409804,4.65173589 Z" id="Stroke-3"></path>
                    <path d="M2.91403497,16.3669896 C2.54751916,16.0702487 2.02274507,16.428412 2.15426694,16.8855385 C2.29079805,17.3600754 2.49519055,17.7958335 2.76900064,18.1870059 C3.06310408,18.6061261 3.43360039,18.9648089 3.87311026,19.2647637 C4.09319651,19.4149672 4.39140928,19.3553875 4.53918713,19.1316887 C4.68696497,18.9079899 4.62834742,18.6048822 4.40826117,18.4546787 C4.06203967,18.218391 3.7755834,17.9410685 3.55090041,17.6208783 C3.34077991,17.320694 3.18272308,16.983722 3.07567592,16.6116615 L2.61497143,16.7486 L2.31590789,17.1302104 C2.76445459,17.4933657 3.27540299,17.7740507 3.8425127,17.9656852 C4.09407153,18.0506905 4.36579784,17.9123249 4.44943041,17.656637 C4.53306297,17.400949 4.39693184,17.1247625 4.14537301,17.0397572 C3.68492939,16.8841667 3.2739978,16.658425 2.91403497,16.3669896 Z" id="Stroke-5"></path>
                    <path d="M14.2138945,14.3245786 C10.6899079,16.8792514 6.71257685,17.9051794 4.14540816,17.0396534 C3.8937929,16.9548208 3.6221586,17.0933729 3.53869598,17.3491182 C3.45523336,17.6048635 3.591548,17.8809565 3.84316327,17.9657891 C6.74027913,18.9425575 11.0196561,17.8387186 14.7712928,15.1190134 C18.4793595,12.4315403 20.888247,8.73131921 20.9737526,5.64566927 C20.9812162,5.37632807 20.7724486,5.15183409 20.507457,5.14424795 C20.2424654,5.1366618 20.0215968,5.3488562 20.0141331,5.6181974 C19.9382009,8.35837272 17.6980677,11.7993754 14.2138945,14.3245786 Z" id="Stroke-7"></path>
                    <path d="M16.0440482,17.0319157 C20.4215151,13.8592153 22.9358532,9.31930681 22.0838352,6.06246454 C22.0157124,5.80206499 21.7528014,5.64710033 21.4966071,5.71634128 C21.2404128,5.78558222 21.0879506,6.05280864 21.1560734,6.31320819 C21.8854524,9.1012623 19.5738035,13.2751938 15.4866447,16.2374846 C11.3993948,19.2005055 6.76360943,20.0629807 4.40809308,18.4544725 C4.18804622,18.3042093 3.88981784,18.3637083 3.74198134,18.587367 C3.59414485,18.8110257 3.65268292,19.1141493 3.87272978,19.2644124 C6.62438751,21.1434332 11.666545,20.2053535 16.0440482,17.0319157 Z" id="Stroke-9"></path>
                    <path d="M20.1681333,2.73833815 C17.9521385,-0.419716801 12.0218146,0.177364292 6.89481426,3.89403805 C1.76702813,7.61076551 -0.719695365,13.1154547 1.49726847,16.2745828 C1.71616594,16.5869687 1.98671981,16.8648602 2.31689298,17.1306428 C2.52470924,17.2979307 2.82660117,17.2623107 2.99118748,17.0510833 C3.15577379,16.8398559 3.12072899,16.5330087 2.91291273,16.3657208 C2.64934325,16.1535527 2.44138997,15.9399596 2.27901752,15.7082401 C0.452791488,13.1059052 2.69895022,8.13373764 7.45222295,4.68846539 C12.2047547,1.24325202 17.5614446,0.703925955 19.3868556,3.30535243 C19.5976622,3.60508902 19.7556195,3.94153014 19.8627089,4.31436312 C19.9370016,4.57301376 20.2035194,4.72147688 20.457993,4.64596478 C20.7124667,4.57045268 20.8585323,4.29956025 20.7842396,4.04090961 C20.6475125,3.56489263 20.4428125,3.12889174 20.1681333,2.73833815 Z" id="Stroke-11"></path>
                    <path d="M20.7838414,4.04020011 C20.7093147,3.78161903 20.4426627,3.63340514 20.1882575,3.70915512 C19.9338523,3.7849051 19.7880319,4.05593397 19.8625586,4.31451504 C19.9768703,4.7111361 20.0273816,5.14752938 20.0141392,5.61798066 C20.0065578,5.88731846 20.2152273,6.11190672 20.4802155,6.11961257 C20.7452038,6.12731842 20.9661651,5.91522381 20.9737465,5.64588601 C20.9897696,5.07664715 20.9274955,4.53862876 20.7838414,4.04020011 Z" id="Stroke-13"></path>
                    <path d="M3.84284627,17.9657974 C4.09450392,18.0505 4.3660689,17.9118075 4.44940363,17.6560191 C4.53273835,17.4002307 4.39628567,17.1242083 4.14462802,17.0395057 C3.68629688,16.8852412 3.27588545,16.6595454 2.91351401,16.3666649 C2.7060214,16.1989625 2.40406122,16.2339799 2.23906709,16.4448783 C2.07407296,16.6557767 2.1085248,16.9626933 2.31601741,17.1303957 C2.76674604,17.4946894 3.27725537,17.7754315 3.84284627,17.9657974 Z" id="Stroke-15"></path>
                    <path d="M19.3593067,6.19317168 L18.4534476,5.87011923 C17.6834345,8.1007472 15.9733929,10.447965 13.6573183,12.3712204 L14.2646931,13.1268584 C16.7115477,11.095004 18.5277592,8.60205641 19.3593067,6.19317168 Z M14.2646931,13.1268584 C16.7115477,11.095004 18.5277592,8.60205641 19.3593067,6.19317168 C19.571197,5.57935304 18.6653379,5.2563006 18.4534476,5.87011923 C17.6834345,8.1007472 15.9733929,10.447965 13.6573183,12.3712204 C13.1616949,12.7827833 13.7690697,13.5384213 14.2646931,13.1268584 Z M11.1760784,15.2240164 L10.7253616,14.3624866 C10.0594311,14.7224049 9.39024459,15.0245146 8.72853359,15.2650102 L9.05176356,16.1837959 C9.7578767,15.9271626 10.4696049,15.6058471 11.1760784,15.2240164 Z M9.05176356,16.1837959 C9.7578767,15.9271626 10.4696049,15.6058471 11.1760784,15.2240164 C11.7411563,14.9186064 11.2904394,14.0570766 10.7253616,14.3624866 C10.0594311,14.7224049 9.39024459,15.0245146 8.72853359,15.2650102 C8.12590144,15.4840338 8.44913141,16.4028196 9.05176356,16.1837959 Z" id="Stroke-17"></path>
                    <path d="M6.44832,12.2161364 C6.16717714,12.0676818 6.20489143,11.558197 6.53266286,11.0779848 C6.86112,10.5977727 7.35483429,10.3294394 7.63597714,10.4778939 C7.91712,10.6263485 7.87940571,11.1358333 7.55163429,11.6160455 C7.22317714,12.0955606 6.72946286,12.3645909 6.44832,12.2161364" id="Fill-19"></path>
                    <path d="M7.84923429,7.54107273 C7.56877714,7.39331515 7.62912,6.85246667 7.98363429,6.33322424 C8.33814857,5.81398182 8.85312,5.51219394 9.13289143,5.65995152 C9.41334857,5.80770909 9.35300571,6.34855758 8.99849143,6.8678 C8.64397714,7.38773939 8.12969143,7.6888303 7.84923429,7.54107273" id="Fill-21"></path>
                    <path d="M12.6296914,6.96328485 C12.3176914,6.7988 12.3231771,6.28722424 12.6413486,5.82095152 C12.9602057,5.35467879 13.4710629,5.10934545 13.7830629,5.2738303 C14.0943771,5.43831515 14.0895771,5.94989091 13.77072,6.41616364 C13.4525486,6.88243636 12.9416914,7.1277697 12.6296914,6.96328485" id="Fill-23"></path>
                    <path d="M10.8295543,11.5554091 C10.59984,11.4341364 10.5957257,11.0689242 10.82064,10.7392576 C11.0455543,10.4102879 11.4144686,10.2416212 11.6441829,10.3628939 C11.8738971,10.4841667 11.8780114,10.8493788 11.6530971,11.1783485 C11.4281829,11.5080152 11.0592686,11.6766818 10.8295543,11.5554091" id="Fill-25"></path>
                </g>
            </g>
        </g>
    </g>
</svg>