<?xml version="1.0" encoding="UTF-8" standalone="no"?>
<svg width="52px" height="51px" viewBox="0 0 52 51" version="1.1" xmlns="http://www.w3.org/2000/svg" xmlns:xlink="http://www.w3.org/1999/xlink">
    <!-- Generator: Sketch 39.1 (31720) - http://www.bohemiancoding.com/sketch -->
    <title>ico_galletas_grey</title>
    <desc>Created with Sketch.</desc>
    <defs></defs>
    <g id="supermercado_categoria" stroke="none" stroke-width="1" fill="none" fill-rule="evenodd">
        <g id="Subcategorias_snacks" transform="translate(-77.000000, -14.000000)" fill="#D4D4D4">
            <g id="icon01-copy" transform="translate(77.000000, 14.000000)">
                <g id="galletas_red" transform="translate(15.000000, 15.000000)">
                    <path d="M4.06124181,19.7515984 C2.11305161,17.8175263 1.06637473,15.2641853 1.11154022,12.5564098 C1.11306268,12.4762302 1.1446259,12.3965695 1.19977841,12.3352128 C1.25124239,12.2777536 1.32324269,12.2335528 1.38920563,12.2170279 C2.3453476,11.9823176 3.15549128,11.3518229 3.61163468,10.4880222 C3.69411189,10.3318253 3.88366962,10.2608593 4.05315481,10.3232796 C6.36321792,11.1789269 8.72302759,9.50766623 8.72302759,7.18165161 L8.70237883,6.96560903 L8.68105631,6.80551113 C8.67173116,6.72205973 8.70228187,6.62691625 8.76738142,6.55328682 C8.83038594,6.48297383 8.92401322,6.43938672 9.02386257,6.43572019 C10.5737628,6.38412488 11.9052266,5.32440866 12.261212,3.85586137 C12.4198235,3.20183925 13.1189473,2.79206478 13.8268308,2.95085367 C18.5287702,4.01767714 21.8108207,8.03627779 21.8108207,12.7256516 C21.8108207,18.2654198 17.1682017,22.7739097 11.4608207,22.7739097 C8.65099005,22.7739097 6.02579591,21.7016535 4.06124181,19.7515984 Z M22.9211655,12.7256516 C22.9211655,7.53137453 19.2822985,3.07588132 14.0768546,1.89481962 C12.7801033,1.60393707 11.481753,2.36493363 11.1807183,3.60622669 C10.9402346,4.59829434 10.0365911,5.31750705 8.98407009,5.35254716 C8.57670253,5.36750262 8.19580516,5.54482501 7.92917843,5.84245385 C7.6607955,6.14598497 7.53410674,6.54052941 7.57876015,6.9353189 L7.5999299,7.09405016 L7.61588324,7.23975872 C7.61268276,8.76204642 6.01767322,9.89166157 4.44608713,9.30954682 C3.74842072,9.05259965 2.96568615,9.34563752 2.62469014,9.99142186 C2.3141822,10.5794321 1.76437825,11.0073173 1.11580143,11.166532 C0.826373679,11.2390324 0.560519268,11.4022396 0.364518126,11.6210787 C0.136869443,11.8743347 0.00776446187,12.2001759 0.00136413521,12.537553 C-0.0486682339,15.5370261 1.11282476,18.3704579 3.26954579,20.5115498 C5.44303068,22.6689936 8.35352609,23.8577806 11.4608207,23.8577806 C17.7801433,23.8577806 22.9211655,18.8652868 22.9211655,12.7256516 Z" id="Stroke-1"></path>
                    <path d="M13.7326655,8.23540645 C14.4853207,8.23540645 15.0960103,8.83153548 15.0960103,9.56624516 C15.0960103,10.3009548 14.4853207,10.8963097 13.7326655,10.8963097 C12.9800103,10.8963097 12.3693207,10.3009548 12.3693207,9.56624516 C12.3693207,8.83153548 12.9800103,8.23540645 13.7326655,8.23540645" id="Fill-3"></path>
                    <path d="M7.37142069,13.5579097 C8.12407586,13.5579097 8.73476552,14.1540387 8.73476552,14.8887484 C8.73476552,15.6234581 8.12407586,16.2188129 7.37142069,16.2188129 C6.61876552,16.2188129 6.00807586,15.6234581 6.00807586,14.8887484 C6.00807586,14.1540387 6.61876552,13.5579097 7.37142069,13.5579097" id="Fill-5"></path>
                    <path d="M14.6414034,15.3320516 C15.3940586,15.3320516 16.0047483,15.9281806 16.0047483,16.6628903 C16.0047483,17.3976 15.3940586,17.9929548 14.6414034,17.9929548 C13.8887483,17.9929548 13.2780586,17.3976 13.2780586,16.6628903 C13.2780586,15.9281806 13.8887483,15.3320516 14.6414034,15.3320516" id="Fill-7"></path>
                    <path d="M11.4608207,11.7837677 C11.9628552,11.7837677 12.3697172,12.180929 12.3697172,12.6709935 C12.3697172,13.1610581 11.9628552,13.5582194 11.4608207,13.5582194 C10.9587862,13.5582194 10.5519241,13.1610581 10.5519241,12.6709935 C10.5519241,12.180929 10.9587862,11.7837677 11.4608207,11.7837677" id="Fill-9"></path>
                    <path d="M9.64326552,17.106271 C10.1453,17.106271 10.5521621,17.5034323 10.5521621,17.9934968 C10.5521621,18.4835613 10.1453,18.8807226 9.64326552,18.8807226 C9.14123103,18.8807226 8.73436897,18.4835613 8.73436897,17.9934968 C8.73436897,17.5034323 9.14123103,17.106271 9.64326552,17.106271" id="Fill-11"></path>
                    <path d="M8.49342414,1.42916129 C8.49342414,1.6199231 8.33512123,1.77445161 8.1397,1.77445161 C7.94427877,1.77445161 7.78597586,1.6199231 7.78597586,1.42916129 C7.78597586,1.23839948 7.94427877,1.08387097 8.1397,1.08387097 C8.33512123,1.08387097 8.49342414,1.23839948 8.49342414,1.42916129 Z M6.67563103,1.42916129 C6.67563103,2.21852851 7.33105226,2.85832258 8.1397,2.85832258 C8.94834774,2.85832258 9.60376897,2.21852851 9.60376897,1.42916129 C9.60376897,0.639794071 8.94834774,5.68434189e-14 8.1397,5.68434189e-14 C7.33105226,5.68434189e-14 6.67563103,0.639794071 6.67563103,1.42916129 Z" id="Stroke-13"></path>
                    <path d="M5.05674828,5.87272258 C5.05674828,6.3078844 4.69486895,6.66085161 4.24857586,6.66085161 C3.80228277,6.66085161 3.44040345,6.3078844 3.44040345,5.87272258 C3.44040345,5.43731561 3.80253395,5.08381935 4.24857586,5.08381935 C4.69461778,5.08381935 5.05674828,5.43731561 5.05674828,5.87272258 Z M2.33005862,5.87272258 C2.33005862,6.90668493 3.18925597,7.74472258 4.24857586,7.74472258 C5.30789575,7.74472258 6.1670931,6.90668493 6.1670931,5.87272258 C6.1670931,4.8387102 5.30784429,3.99994839 4.24857586,3.99994839 C3.18930743,3.99994839 2.33005862,4.8387102 2.33005862,5.87272258 Z" id="Stroke-15"></path>
                    <path d="M16.9133276,11.7837677 C17.4153621,11.7837677 17.8222241,12.180929 17.8222241,12.6709935 C17.8222241,13.1610581 17.4153621,13.5582194 16.9133276,13.5582194 C16.4112931,13.5582194 16.004431,13.1610581 16.004431,12.6709935 C16.004431,12.180929 16.4112931,11.7837677 16.9133276,11.7837677" id="Fill-17"></path>
                </g>
            </g>
        </g>
    </g>
</svg>