<?xml version="1.0" encoding="UTF-8" standalone="no"?>
<svg width="52px" height="51px" viewBox="0 0 52 51" version="1.1" xmlns="http://www.w3.org/2000/svg" xmlns:xlink="http://www.w3.org/1999/xlink">
    <!-- Generator: Sketch 39.1 (31720) - http://www.bohemiancoding.com/sketch -->
    <title>ico_pasabocas_green</title>
    <desc>Created with Sketch.</desc>
    <defs></defs>
    <g id="supermercado_categoria" stroke="none" stroke-width="1" fill="none" fill-rule="evenodd">
        <g id="Subcategorias_snacks" transform="translate(-201.000000, -75.000000)" fill="#44D481">
            <g id="icon01-copy-10" transform="translate(201.000000, 75.000000)">
                <g id="pasabocas_dgreen" transform="translate(14.000000, 15.000000)">
                    <path d="M12.43,20.6394065 C6.28073856,20.6394065 1.11591582,16.0579895 0.999885717,10.6670438 C0.99398196,10.3927457 0.76538956,10.1751382 0.489310302,10.1810039 C0.213231043,10.1868695 -0.00578947468,10.4139871 0.000114282712,10.6882852 C0.12823138,16.6408125 5.75608207,21.6329548 12.43,21.6329548 C19.117495,21.6329548 24.8013222,16.6368843 24.9291714,10.6968014 C24.9350752,10.4225033 24.7160547,10.1953857 24.4399754,10.18952 C24.1638962,10.1836543 23.9353038,10.4012618 23.9294,10.6755599 C23.8136851,16.0518591 18.5946182,20.6394065 12.43,20.6394065 Z" id="Stroke-1"></path>
                    <path d="M14.0929105,10.179205 C13.9450506,10.0002229 13.8598043,9.69921098 13.915857,9.47644673 L15.1068378,1.9773934 C15.1750447,1.50338742 15.5783551,1.17125161 16.1036429,1.17125161 C16.3526403,1.17125161 16.5507769,1.23679503 16.716428,1.36836929 L22.5746267,6.06570591 C22.8491582,6.30489416 22.9770708,6.64051584 22.9126382,6.96060037 C22.8348902,7.34683277 22.6221573,7.61959531 22.3335403,7.70562178 L15.2524195,10.4770894 C15.3420004,10.4504836 15.0986256,10.5130192 15.048164,10.5237627 C14.9799331,10.5382892 14.9267127,10.544671 14.8700714,10.544671 C14.6148419,10.544671 14.3256844,10.4104771 14.0929105,10.179205 Z M15.2576931,11.4952567 C15.3322316,11.4793872 15.6067139,11.4088584 15.5570535,11.4211934 L22.6605805,8.64360733 C23.2963016,8.45595178 23.7480189,7.87676733 23.8932189,7.15545124 C24.0306144,6.47290588 23.7678001,5.78332439 23.2178952,5.3052619 L17.342659,0.59376506 C16.9933964,0.316344093 16.5742876,0.177703226 16.1036429,0.177703226 C15.0899623,0.177703226 14.2568572,0.86378531 14.1179538,1.82983584 L12.9368764,9.27865821 C12.8073682,9.78529066 12.9831099,10.4058492 13.3556117,10.8489394 C13.7962001,11.2894984 14.3321377,11.5382194 14.8700714,11.5382194 C15.0026139,11.5382194 15.1246082,11.5235909 15.2576931,11.4952567 Z" id="Stroke-3"></path>
                    <path d="M9.53547883,10.3974401 C9.48501727,10.3866967 9.24164246,10.324161 9.26912496,10.3309873 L9.14785714,10.812929 L9.33823442,10.3535738 L2.34752014,7.49357379 C2.00078415,7.35555775 1.79845545,7.09598503 1.72407781,6.68954723 C1.69423262,6.37697939 1.83812443,6.02460088 2.12710945,5.77337036 L8.0167525,1.19412024 C8.18684539,1.0594186 8.38522647,0.993832258 8.63428571,0.993832258 C9.164706,0.993832258 9.56099388,1.32979129 9.62938605,1.83942327 L10.7093781,9.30035838 C10.7457524,9.59015968 10.6630958,9.88202696 10.4911422,10.0524756 C10.2579585,10.2841545 9.96880094,10.4183484 9.71357143,10.4183484 C9.65693018,10.4183484 9.60370972,10.4119667 9.53547883,10.3974401 Z M11.1978391,10.7554272 C11.6045555,10.3522707 11.7740977,9.75360311 11.7004247,9.16802145 L10.6199076,1.70304807 C10.4852504,0.699435493 9.66055072,0.000283870968 8.63428571,0.000283870968 C8.1638816,0.000283870968 7.74496764,0.138780104 7.39688656,0.414487774 L1.48967607,5.00831847 C0.938836215,5.48620591 0.666672578,6.15271092 0.734624262,6.82784378 C0.874459773,7.60090009 1.30013373,8.1470082 1.97122494,8.41408377 L8.95747986,11.2722843 L9.02658933,11.2948708 C8.97692897,11.2825358 9.2514113,11.3530646 9.32594974,11.3689341 C9.45903464,11.3972683 9.581029,11.4118968 9.71357143,11.4118968 C10.2515052,11.4118968 10.7874428,11.1631758 11.1978391,10.7554272 Z" id="Stroke-5"></path>
                    <path d="M23.9290714,10.6865355 C23.9290714,12.1474749 18.7730716,13.6302774 12.4647857,13.6302774 C6.15649987,13.6302774 1.0005,12.1474749 1.0005,10.6865355 C1.0005,10.1802381 1.77338532,9.55413122 3.25899676,9.01567766 C3.51841651,8.92165207 3.65200003,8.63648479 3.55736388,8.37873871 C3.46272774,8.12099262 3.17570872,7.98827094 2.91628896,8.08229653 C1.07010972,8.75143635 0.0005,9.61791679 0.0005,10.6865355 C0.0005,13.0254753 5.55828313,14.6238258 12.4647857,14.6238258 C19.3712883,14.6238258 24.9290714,13.0254753 24.9290714,10.6865355 C24.9290714,9.66586316 23.9522936,8.83021731 22.2607186,8.17486498 C22.0034439,8.07519123 21.7135552,8.20160654 21.6132342,8.45722148 C21.5129133,8.71283642 21.6401494,9.00085482 21.8974242,9.10052857 C23.2407069,9.620945 23.9290714,10.2098496 23.9290714,10.6865355 Z" id="Stroke-7"></path>
                    <path d="M12.4647857,7.7420129 C12.7943488,7.7420129 13.1277925,7.7460445 13.4651545,7.75393967 C13.7412203,7.76040033 13.9702873,7.54328603 13.9767899,7.2690013 C13.9832925,6.99471657 13.7647684,6.76712745 13.4887026,6.76066678 C13.1436192,6.75259092 12.8023344,6.74846452 12.4647857,6.74846452 C12.044077,6.74846452 11.6221807,6.75475303 11.2007238,6.7671331 C10.9247021,6.7752411 10.7075577,7.00413016 10.7157184,7.27837114 C10.723879,7.55261212 10.9542544,7.76835554 11.2302762,7.76024754 C11.641958,7.74815461 12.0540047,7.7420129 12.4647857,7.7420129 Z" id="Stroke-9"></path>
                    <path d="M6.42264286,7.44224516 C6.14192857,7.5636 5.8155,7.43585806 5.69335714,7.15766452 C5.57121429,6.87876129 5.69907143,6.55443871 5.97978571,6.43237419 C6.2605,6.31101935 6.58692857,6.43876129 6.70907143,6.71766452 C6.83192857,6.99656774 6.70335714,7.32089032 6.42264286,7.44224516" id="Fill-11"></path>
                    <path d="M8.62378571,8.78736774 C8.34307143,8.90872258 8.01664286,8.78098065 7.8945,8.5027871 C7.77235714,8.22388387 7.90021429,7.89885161 8.18092857,7.77749677 C8.46164286,7.65614194 8.78807143,7.78388387 8.91021429,8.0627871 C9.03307143,8.34169032 8.9045,8.6660129 8.62378571,8.78736774" id="Fill-13"></path>
                    <path d="M8.24607143,5.18107097 C8.0375,5.2712 7.79535714,5.1768129 7.70464286,4.9695871 C7.61392857,4.76236129 7.70964286,4.52178065 7.9175,4.43165161 C8.12607143,4.34152258 8.36821429,4.43661935 8.45892857,4.64313548 C8.54964286,4.85036129 8.45464286,5.09094194 8.24607143,5.18107097" id="Fill-15"></path>
                    <path d="M15.9465,7.20570968 C15.6657857,7.32706452 15.3393571,7.19932258 15.2172143,6.92112903 C15.0950714,6.64222581 15.2229286,6.31790323 15.5036429,6.19583871 C15.7843571,6.07448387 16.1107857,6.20222581 16.2329286,6.48112903 C16.3557857,6.76003226 16.2272143,7.08435484 15.9465,7.20570968" id="Fill-17"></path>
                    <path d="M18.1475714,8.55076129 C17.8668571,8.67211613 17.5404286,8.54437419 17.4182857,8.26618065 C17.2961429,7.98727742 17.424,7.66295484 17.7047143,7.54089032 C17.9854286,7.41953548 18.3118571,7.54727742 18.434,7.82618065 C18.5568571,8.10508387 18.4282857,8.42940645 18.1475714,8.55076129" id="Fill-19"></path>
                    <path d="M17.7699286,4.94453548 C17.5613571,5.03466452 17.3192143,4.94027742 17.2285,4.73305161 C17.1377857,4.52582581 17.2335,4.28524516 17.4413571,4.19511613 C17.6499286,4.1049871 17.8920714,4.20008387 17.9827857,4.4066 C18.0735,4.61382581 17.9785,4.85440645 17.7699286,4.94453548" id="Fill-21"></path>
                </g>
            </g>
        </g>
    </g>
</svg>