<?xml version="1.0" encoding="UTF-8" standalone="no"?>
<svg width="52px" height="51px" viewBox="0 0 52 51" version="1.1" xmlns="http://www.w3.org/2000/svg" xmlns:xlink="http://www.w3.org/1999/xlink">
    <!-- Generator: Sketch 39.1 (31720) - http://www.bohemiancoding.com/sketch -->
    <title>ico_confiteria_grey</title>
    <desc>Created with Sketch.</desc>
    <defs></defs>
    <g id="supermercado_categoria" stroke="none" stroke-width="1" fill="none" fill-rule="evenodd">
        <g id="Subcategorias_snacks" transform="translate(-263.000000, -14.000000)" fill="#D4D4D4">
            <g id="icon01-copy-4" transform="translate(263.000000, 14.000000)">
                <g id="confiteria_yellow" transform="translate(10.000000, 16.000000)">
                    <polygon id="Stroke-1" points="30.1116872 9.88071428 31.1174629 9.97782278 30.6882933 9.08564824 29.5395754 6.69764824 29.5141653 7.22013825 31.0042166 4.75933825 31.3881122 4.12533973 30.6589652 3.93390214 27.5845036 3.12670214 28.0093786 3.6551034 27.9535837 1.1863034 27.9267876 0.000637673719 27.0047532 0.774145448 23.218907 3.95014545 23.9681289 4.79913455 27.753975 1.62313455 26.8051445 1.2109766 26.8609394 3.6797766 26.8704164 4.09911512 27.2858143 4.20817786 30.3602759 5.01537786 30.0150244 4.18994175 28.5249732 6.65074175 28.3707471 6.90544404 28.4995631 7.17323176 29.648281 9.56123176 30.2248871 8.76616572 25.3362717 8.29416572 25.2230719 9.40871428"></polygon>
                    <polygon id="Stroke-3" points="1.21609084 9.92604139 -0.000158201433 9.91162267 0.7611723 10.836515 2.34558256 12.761315 2.32254014 12.0902812 0.500181165 14.6358812 0.0680619221 15.239496 0.780009162 15.4844775 3.54431685 16.4356775 3.18027902 16.0510772 3.87361235 18.6014772 4.13271241 19.5545668 4.83955893 18.8494177 8.27340508 15.4238177 7.45188722 14.6409823 4.01804107 18.0665823 4.98398765 18.3145228 4.29065431 15.7641228 4.21287789 15.4780252 3.92661648 15.3795225 1.16230879 14.4283225 1.44213678 15.2769188 3.26449576 12.7313188 3.51071053 12.3873885 3.24145334 12.060285 1.65704308 10.135485 1.20212455 11.0459586 6.19576557 11.1051586 6.20973186 9.98524139"></polygon>
                    <path d="M21.5724829,14.2759175 C19.0639468,17.3947867 14.4364176,17.9392005 11.2379114,15.492309 C8.03859733,13.0447994 7.47949775,8.53279517 9.99098191,5.41647396 C12.5005361,2.2972857 17.1265228,1.75299798 20.3257921,4.19989096 C23.5245252,6.64695605 24.0830178,11.1574017 21.5724829,14.2759175 Z M9.08745542,4.72484728 C6.18393936,8.32761256 6.83033032,13.5440693 10.5288168,16.373451 C14.2264741,19.2021985 19.576257,18.5728139 22.4762481,14.9672478 C25.3784295,11.3622398 24.7327486,6.1476529 21.0348345,3.31870898 C17.336398,0.490038629 11.9883221,1.11928645 9.08745542,4.72484728 Z" id="Stroke-5"></path>
                    <path d="M21.967694,5.96312205 C22.2646488,5.85437626 22.4149619,5.53150922 22.3034277,5.24197832 C22.1918936,4.95244743 21.8607479,4.80589215 21.5637932,4.91463795 L7.90143418,9.91783795 C7.60447942,10.0265837 7.45416631,10.3494508 7.56570046,10.6389817 C7.6772346,10.9285126 8.00838029,11.0750678 8.30533505,10.9663221 L21.967694,5.96312205 Z" id="Stroke-7"></path>
                    <path d="M19.645204,3.51674386 C19.9404944,3.40377188 20.0859445,3.0787943 19.9700758,2.79088613 C19.8542071,2.50297796 19.5208967,2.36116416 19.2256063,2.47413614 L8.27258065,6.66453614 C7.97729021,6.77750812 7.83184016,7.1024857 7.94770886,7.39039387 C8.06357756,7.67830204 8.3968879,7.82011584 8.69217833,7.70714386 L19.645204,3.51674386 Z" id="Stroke-9"></path>
                    <path d="M23.1027115,9.17263491 C23.3980309,9.05973481 23.5435641,8.73479265 23.4277691,8.44685628 C23.3119742,8.15891991 22.9787002,8.01702499 22.6833808,8.12992509 L8.88891926,13.4035251 C8.59359991,13.5164252 8.44806665,13.8413674 8.56386163,14.1293037 C8.67965661,14.4172401 9.01293062,14.559135 9.30824997,14.4462349 L23.1027115,9.17263491 Z" id="Stroke-11"></path>
                    <path d="M23.2105204,12.6839001 C23.5058767,12.5710919 23.6515162,12.246195 23.5358155,11.9582226 C23.4201147,11.6702502 23.0868872,11.5282517 22.7915309,11.6410599 L11.6358386,15.9018599 C11.3404823,16.0146681 11.1948427,16.339565 11.3105435,16.6275374 C11.4262442,16.9155098 11.7594718,17.0575083 12.0548281,16.9447001 L23.2105204,12.6839001 Z" id="Stroke-13"></path>
                </g>
            </g>
        </g>
    </g>
</svg>