<?xml version="1.0" encoding="UTF-8" standalone="no"?>
<svg width="52px" height="51px" viewBox="0 0 52 51" version="1.1" xmlns="http://www.w3.org/2000/svg" xmlns:xlink="http://www.w3.org/1999/xlink">
    <!-- Generator: Sketch 39.1 (31720) - http://www.bohemiancoding.com/sketch -->
    <title>ico_frutossecos_green</title>
    <desc>Created with Sketch.</desc>
    <defs></defs>
    <g id="supermercado_categoria" stroke="none" stroke-width="1" fill="none" fill-rule="evenodd">
        <g id="Subcategorias_snacks" transform="translate(-139.000000, -75.000000)" fill="#44D481">
            <g id="icon01-copy-9" transform="translate(139.000000, 75.000000)">
                <g id="frutos_secos_blue" transform="translate(16.000000, 13.000000)">
                    <path d="M8.57905417,3.93359375 L9.6873875,3.93359375 L9.6873875,0.546875 L8.57905417,0.546875 L8.57905417,3.93359375 Z M8.57905417,0.546875 L8.57905417,3.93359375 C8.57905417,4.66276042 9.6873875,4.66276042 9.6873875,3.93359375 L9.6873875,0.546875 C9.6873875,-0.182291667 8.57905417,-0.182291667 8.57905417,0.546875 Z M9.4179883,22.8540912 C9.07577978,22.9673647 8.85744971,23.2368185 8.57530962,23.8104063 L9.57161285,23.8088489 C9.21901488,23.0977644 8.95074953,22.853553 8.44188311,22.8170631 C4.32065734,22.533699 1.57597083,18.5999048 1.57597083,14.5296875 L1.57597083,12.075 L1.07687407,12.619168 C1.60854076,12.5667699 1.89722814,12.508802 2.29621835,12.3972647 C2.34343066,12.3840547 2.34343066,12.3840547 2.38545882,12.3726182 C2.61174285,12.3119145 2.81235786,12.2898437 3.31922083,12.2898437 C3.73398425,12.2898437 3.8851581,12.3336099 4.29442673,12.5332305 C4.97163565,12.863288 5.41427049,12.9929687 6.20722083,12.9929687 C7.00017118,12.9929687 7.44280602,12.863288 8.11986505,12.5333035 C8.52870033,12.3338943 8.6809375,12.2898437 9.09522083,12.2898437 C9.51021152,12.2898437 9.66253822,12.3338969 10.0712184,12.5332305 C10.7484273,12.863288 11.1910622,12.9929687 11.9840125,12.9929687 C12.7774505,12.9929687 13.2203508,12.863405 13.8986297,12.5334993 C14.3084901,12.3340486 14.4617463,12.2898437 14.8783458,12.2898437 C15.3693037,12.2898437 15.5277769,12.3139749 15.8352308,12.4055698 C16.2658912,12.5343965 16.5693983,12.5895874 17.130879,12.6067685 L16.5938875,12.0601562 L16.5938875,14.5296875 C16.5938875,19.128887 13.2675299,22.4602225 9.69335106,22.8017647 C9.57361482,22.8136142 9.50907693,22.8239402 9.4179883,22.8540912 Z M17.7022208,14.5296875 L17.7022208,12.0601562 C17.7022208,11.7647246 17.4644563,11.5227002 17.1652294,11.513544 C16.7093526,11.4995942 16.4999418,11.4615142 16.1561459,11.3586723 C15.7464274,11.2366108 15.4803447,11.1960937 14.8783458,11.1960937 C14.2667336,11.1960937 13.9578041,11.2852006 13.4085463,11.5524864 C12.8694886,11.8146768 12.5804906,11.8992187 11.9840125,11.8992187 C11.3883234,11.8992187 11.0998959,11.8147169 10.5621567,11.552634 C10.0139287,11.285236 9.7056933,11.1960937 9.09522083,11.1960937 C8.4853824,11.1960937 8.17729628,11.28524 7.62892673,11.552707 C7.09133738,11.8147169 6.80290994,11.8992187 6.20722083,11.8992187 C5.61153172,11.8992187 5.32310428,11.8147169 4.78536505,11.552634 C4.2365756,11.2849621 3.92961278,11.1960937 3.31922083,11.1960937 C2.72067,11.1960937 2.42466178,11.2286592 2.09472,11.3171706 C2.04292225,11.3312676 2.04292225,11.3312676 1.99398914,11.344965 C1.65410326,11.4399798 1.42808581,11.4853637 0.966734266,11.530832 C0.683412121,11.5587546 0.4676375,11.7940149 0.4676375,12.075 L0.4676375,14.5296875 C0.4676375,19.1179112 3.58036794,23.5792007 8.36320353,23.9080524 C8.39954007,23.9106605 8.37883952,23.8918161 8.57607882,24.2895886 C8.77908099,24.6989832 9.37069523,24.6980584 9.57238204,24.2880312 C9.7331206,23.9612513 9.7971559,23.8822217 9.77044763,23.8910623 C13.9238951,23.4963672 17.7022208,19.7123872 17.7022208,14.5296875 Z M17.2612625,10.0484375 C17.2612625,10.1118703 17.2567624,10.1577197 17.2544447,10.1652269 C17.2904967,10.048452 17.4195111,9.91328125 17.6444292,9.91328125 L17.6444292,10.4601562 L17.7927485,9.93323239 C17.7013043,9.90816547 17.6072393,9.89609375 17.5122208,9.89609375 C17.0487777,9.89609375 16.861923,9.87025809 16.6075291,9.79553516 C16.5814503,9.7878382 16.5814503,9.7878382 16.5537525,9.77958641 C16.5059948,9.76539259 16.5059948,9.76539259 16.4541991,9.75031684 C16.034371,9.62938028 15.6405968,9.57421875 14.9836375,9.57421875 C14.1895716,9.57421875 13.7465111,9.70378075 13.0682286,10.0336882 C12.6595869,10.2330026 12.5060208,10.2773438 12.0900958,10.2773438 C11.6758125,10.2773438 11.5235753,10.2332932 11.1148899,10.033957 C10.4376773,9.70389768 9.99488231,9.57421875 9.20130417,9.57421875 C8.40849398,9.57421875 7.96575395,9.70378424 7.28747864,10.0336882 C7.19769863,10.0772745 7.16262488,10.0940709 7.11833639,10.1143451 C6.85900704,10.2330599 6.66752793,10.2773438 6.3125125,10.2773438 C5.89893658,10.2773438 5.74678883,10.2332957 5.33809827,10.033957 C4.66088563,9.70389768 4.21809064,9.57421875 3.4245125,9.57421875 C2.65536992,9.57421875 2.32026976,9.62165393 1.82321875,9.76052584 C1.51327168,9.84806528 1.32289214,9.88420811 0.853912722,9.92474168 C1.05187202,9.90755043 1.10734046,10.0104721 1.10794068,10.0354973 C1.10879968,7.19653776 4.69735152,4.77734375 9.18467917,4.77734375 C13.6722505,4.77734375 17.2612625,7.19669477 17.2612625,10.0484375 Z M-0.000237483565,10.0483043 C0.0125049827,10.5861946 0.274865376,11.0730042 0.950841432,11.014301 C1.49284961,10.9674556 1.75250768,10.9181605 2.12666309,10.8124837 C2.52552941,10.7010461 2.75920032,10.6679687 3.4245125,10.6679687 C4.02088257,10.6679687 4.30942421,10.7524724 4.84715995,11.0145535 C5.39537133,11.2819434 5.70330805,11.3710938 6.3125125,11.3710938 C6.83382964,11.3710938 7.18345541,11.290235 7.58473244,11.1065399 C7.63940082,11.081514 7.67913597,11.0624854 7.77709583,11.0149277 C8.31662322,10.752509 8.60550697,10.6679687 9.20130417,10.6679687 C9.79767423,10.6679687 10.0862159,10.7524724 10.6239516,11.0145535 C11.1721713,11.2819475 11.4802574,11.3710938 12.0900958,11.3710938 C12.7012832,11.3710938 13.010936,11.2816838 13.5587649,11.0144805 C14.0973662,10.7525124 14.3864785,10.6679687 14.9836375,10.6679687 C15.5358626,10.6679687 15.825058,10.7084805 16.1436342,10.8002501 C16.1879663,10.8131524 16.1879663,10.8131524 16.2338194,10.8267767 C16.2617767,10.8351068 16.2617767,10.8351068 16.2913471,10.8438345 C16.6503755,10.9492916 16.943666,10.9898437 17.5122208,10.9898437 C17.5091722,10.9898437 17.6444292,11.0070312 17.6444292,11.0070312 C18.2512342,11.0070312 18.3695958,10.6236494 18.3695958,10.0484375 C18.3695958,6.48454015 14.2145021,3.68359375 9.18467917,3.68359375 C4.15515902,3.68359375 0.000642081781,6.48432868 -0.000237483565,10.0483043 Z" id="Stroke-1"></path>
                    <path d="M5.65706315,7.35865053 C6.09597231,6.8517955 6.64238376,6.79026068 7.50094949,7.50545111 C7.66800346,7.64460807 7.91774057,7.62377497 8.05875296,7.45891908 C8.19976534,7.2940632 8.17865447,7.0476121 8.01160051,6.90845514 C6.81131528,5.90861032 5.76979858,6.02590206 5.05521524,6.85110736 C4.85693038,7.08008795 4.72959138,7.30712399 4.66262988,7.47110847 C4.58092068,7.67120911 4.67905876,7.89878957 4.88182742,7.97942364 C5.08459607,8.06005771 5.31521093,7.96321092 5.39692012,7.76311028 C5.43454083,7.67097955 5.52267503,7.51384277 5.65706315,7.35865053 Z" id="Stroke-3"></path>
                    <path d="M10.9843719,8.20125111 C11.2945889,8.05122881 11.6012282,8.00424544 11.8667272,8.10369827 C12.1809982,8.22142051 12.4637013,8.54752102 12.6887669,9.16265841 C12.7630089,9.365573 12.9898821,9.47067458 13.1955022,9.39740936 C13.4011223,9.32414414 13.5076252,9.10025617 13.4333831,8.89734159 C13.1355054,8.08319784 12.6991716,7.57988301 12.1476714,7.37329747 C11.6426648,7.18412788 11.1243396,7.26354585 10.6359965,7.49971072 C10.4616581,7.5840215 10.3288656,7.66957431 10.2473155,7.73257891 C10.0751803,7.86556843 10.0448839,8.11108479 10.1796466,8.28095507 C10.3144093,8.45082534 10.5631993,8.4807231 10.7353345,8.34773359 C10.7765377,8.31590052 10.8645514,8.25919684 10.9843719,8.20125111 Z" id="Stroke-5"></path>
                </g>
            </g>
        </g>
    </g>
</svg>