<?xml version="1.0" encoding="UTF-8" standalone="no"?>
<svg width="52px" height="51px" viewBox="0 0 52 51" version="1.1" xmlns="http://www.w3.org/2000/svg" xmlns:xlink="http://www.w3.org/1999/xlink">
    <!-- Generator: Sketch 39.1 (31720) - http://www.bohemiancoding.com/sketch -->
    <title>ico_chocolates_green</title>
    <desc>Created with Sketch.</desc>
    <defs>
        <polygon id="path-1" points="0 26.6588122 17.5583571 26.6588122 17.5583571 -6.58536585e-05 0 -6.58536585e-05"></polygon>
    </defs>
    <g id="supermercado_categoria" stroke="none" stroke-width="1" fill="none" fill-rule="evenodd">
        <g id="Subcategorias_snacks" transform="translate(-387.000000, -75.000000)">
            <g id="icon01-copy-13" transform="translate(387.000000, 75.000000)">
                <g id="chocolate_red" transform="translate(18.000000, 11.000000)">
                    <path d="M15.2036357,24.2339488 L15.6536357,23.7729732 L0.450064286,23.7729732 L0.900064286,24.2339488 L0.900064286,0.460778049 L0.450064286,0.921753659 L9.88077857,0.921753659 L9.44329139,0.568728419 C9.70577584,1.68501483 10.6738264,2.49147242 11.8065339,2.51531491 L11.8157786,2.05443659 L11.3888711,1.9086633 C11.3516525,2.02304239 11.3516525,2.14509908 11.3888711,2.25947817 L11.8157786,2.11370488 L11.3764944,2.01370523 C11.3561608,2.1074382 11.3529214,2.16882799 11.3529214,2.29809512 C11.3529214,4.03079404 12.4687079,5.53895013 14.0659639,6.02600903 C14.1197107,6.04461705 14.1685771,6.05713162 14.2703027,6.08028867 L14.3679214,5.63029024 L13.9273802,5.53627231 C13.8899213,5.72046041 13.8729214,5.90815059 13.8729214,6.11102195 C13.8729214,7.23025018 14.4945447,8.22591022 15.459014,8.69982554 L15.2036357,8.28419268 L15.2036357,9.40568049 L15.2036357,19.7776317 L15.2036357,24.2339488 Z M16.1036357,9.40568049 L16.1036357,8.28419268 C16.1036357,8.10686278 16.0043379,7.94525372 15.8482574,7.86855983 C15.1936946,7.54692456 14.7729214,6.87296798 14.7729214,6.11102195 C14.7729214,5.96852746 14.7842646,5.84329171 14.8084626,5.72430818 C14.8586759,5.47740586 14.7058761,5.23500245 14.4655401,5.18029182 C14.3936943,5.16393667 14.3654179,5.15669514 14.3366525,5.14687282 C13.1043877,4.77085956 12.2529214,3.61997272 12.2529214,2.29809512 C12.2529214,2.23638664 12.2538147,2.21945762 12.2550627,2.21370453 C12.2727555,2.13214504 12.2684775,2.04719317 12.2426861,1.96793159 C12.2670475,2.04279849 12.2670475,2.12534298 12.2426861,2.20020987 C12.338589,1.90548371 12.128231,1.59994052 11.8250232,1.59355826 C11.1031727,1.57836395 10.4854299,1.06373856 10.3182657,0.352827679 C10.2695719,0.14574377 10.0887138,-0.000197560976 9.88077857,-0.000197560976 L0.450064286,-0.000197560976 C0.201536148,-0.000197560976 6.42857142e-05,0.206188249 6.42857142e-05,0.460778049 L6.42857142e-05,24.2339488 C6.42857142e-05,24.4885386 0.201536148,24.6949244 0.450064286,24.6949244 L15.6536357,24.6949244 C15.9021639,24.6949244 16.1036357,24.4885386 16.1036357,24.2339488 L16.1036357,19.7776317 L16.1036357,9.40568049 Z" id="Stroke-1" fill="#44D481"></path>
                    <path d="M17.1084214,10.4707317 L16.6584214,10.0097561 L16.6584214,19.9977805 L17.3362581,19.6002557 L0.729329502,9.61223135 L0.501492857,10.4707317 L17.1084214,10.4707317 Z M0.273656212,10.4072808 L16.8805848,20.3953052 C17.1805728,20.5757292 17.5584214,20.3541357 17.5584214,19.9977805 L17.5584214,10.0097561 C17.5584214,9.7551663 17.3569496,9.54878049 17.1084214,9.54878049 L0.501492857,9.54878049 C0.0428325949,9.54878049 -0.121871881,10.1693955 0.273656212,10.4072808 Z" id="Stroke-3" fill="#44D481"></path>
                    <path d="M15.0964401,25.9990541 C15.0963429,25.79564 15.1990279,25.7366634 15.2172,25.7366634 L1.00234286,25.7366634 C1.02051494,25.7366634 1.1232,25.79564 1.1232,26.008639 L1.13853128,25.2582727 L0.238725858,25.2391029 L0.223297286,25.9990541 C0.2232,26.448216 0.58952845,26.6586146 1.00234286,26.6586146 L15.2172,26.6586146 C15.6300144,26.6586146 15.9963429,26.448216 15.9963429,26.008639 L16.0116741,25.2582727 L15.1118687,25.2391029 L15.0964401,25.9990541 Z" id="Stroke-5" fill="#44D481"></path>
                    <mask id="mask-2" fill="white">
                        <use xlink:href="#path-1"></use>
                    </mask>
                    <g id="Clip-8"></g>
                    <path d="M7.09071429,6.11312927 L7.41214286,6.11312927 L7.41214286,5.78386098 L7.41214286,2.16190976 L7.41214286,1.83264146 L7.09071429,1.83264146 L2.48335714,1.83264146 L2.16192857,1.83264146 L2.16192857,2.16190976 L2.16192857,5.78386098 L2.16192857,6.11312927 L2.48335714,6.11312927 L7.09071429,6.11312927 Z M2.80478571,5.78386098 L2.80478571,2.16190976 L2.48335714,2.49117805 L7.09071429,2.49117805 L6.76928571,2.16190976 L6.76928571,5.78386098 L7.09071429,5.45459268 L2.48335714,5.45459268 L2.80478571,5.78386098 Z" id="Stroke-7" fill="#44D481" mask="url(#mask-2)"></path>
                    <polygon id="Stroke-9" fill="#44D481" mask="url(#mask-2)" points="13.1443071 5.78392683 13.4657357 5.45465854 8.85837857 5.45465854 9.17980714 5.78392683 9.17980714 2.16197561 8.85837857 2.4912439 11.7248786 2.4912439 11.7248786 1.83270732 8.85837857 1.83270732 8.53695 1.83270732 8.53695 2.16197561 8.53695 5.78392683 8.53695 6.11319512 8.85837857 6.11319512 13.4657357 6.11319512 13.7871643 6.11319512 13.7871643 5.78392683 13.7871643 5.38617073 13.1443071 5.38617073"></polygon>
                    <path d="M7.09071429,10.319861 L7.41214286,10.319861 L7.41214286,9.99059268 L7.41214286,7.15625122 L7.41214286,6.82698293 L7.09071429,6.82698293 L2.48335714,6.82698293 L2.16192857,6.82698293 L2.16192857,7.15625122 L2.16192857,9.99059268 L2.16192857,10.319861 L2.48335714,10.319861 L7.09071429,10.319861 Z M2.80478571,9.99059268 L2.80478571,7.15625122 L2.48335714,7.48551951 L7.09071429,7.48551951 L6.76928571,7.15625122 L6.76928571,9.99059268 L7.09071429,9.66132439 L2.48335714,9.66132439 L2.80478571,9.99059268 Z" id="Stroke-10" fill="#44D481" mask="url(#mask-2)"></path>
                    <path d="M13.5726429,10.319861 L13.8940714,10.319861 L13.8940714,9.99059268 L13.8940714,7.15625122 L13.8940714,6.82698293 L13.5726429,6.82698293 L8.96528571,6.82698293 L8.64385714,6.82698293 L8.64385714,7.15625122 L8.64385714,9.99059268 L8.64385714,10.319861 L8.96528571,10.319861 L13.5726429,10.319861 Z M9.28671429,9.99059268 L9.28671429,7.15625122 L8.96528571,7.48551951 L13.5726429,7.48551951 L13.2512143,7.15625122 L13.2512143,9.99059268 L13.5726429,9.66132439 L8.96528571,9.66132439 L9.28671429,9.99059268 Z" id="Stroke-11" fill="#44D481" mask="url(#mask-2)"></path>
                </g>
            </g>
        </g>
    </g>
</svg>