<?xml version="1.0" encoding="UTF-8" standalone="no"?>
<svg width="52px" height="51px" viewBox="0 0 52 51" version="1.1" xmlns="http://www.w3.org/2000/svg" xmlns:xlink="http://www.w3.org/1999/xlink">
    <!-- Generator: Sketch 39.1 (31720) - http://www.bohemiancoding.com/sketch -->
    <title>ico_desodorantesbebes_grey </title>
    <desc>Created with Sketch.</desc>
    <defs></defs>
    <g id="supermercado_categoria" stroke="none" stroke-width="1" fill="none" fill-rule="evenodd">
        <g id="Subcategorias_bebes" transform="translate(-138.000000, -75.000000)" fill="#D4D4D4">
            <g id="icon01-copy-10" transform="translate(138.000000, 75.000000)">
                <g id="desodorantes_nino_blue" transform="translate(19.000000, 13.000000)">
                    <path d="M1.22785,23.6309286 L1.73340556,24.1309286 L1.73340556,12.1530714 L1.60758612,12.4831506 L3.09608612,10.8081506 C3.23944886,10.6468254 3.2626229,10.4129722 3.15365743,10.2271887 L1.66515743,7.68933156 L1.22785,8.44021429 L12.4150722,8.44021429 L11.9815727,7.68294866 L10.4417949,10.2208058 C10.3284445,10.4076296 10.3504649,10.6455379 10.4962281,10.8089028 L12.0360058,12.5346171 L11.9095167,12.2037857 L11.9095167,24.1309286 L12.4150722,23.6309286 L1.22785,23.6309286 Z M12.9206278,24.1309286 L12.9206278,12.2037857 C12.9206278,12.0819502 12.8756483,11.9643068 12.7941386,11.8729544 L11.2543608,10.1472401 L11.308794,10.7353371 L12.8485718,8.19747991 C13.0507696,7.864218 12.8080471,7.44021429 12.4150722,7.44021429 L1.22785,7.44021429 C0.838214697,7.44021429 0.595037031,7.85776472 0.790542566,8.19109701 L2.27904257,10.7289542 L2.33661388,10.1479922 L0.848113879,11.8229922 C0.767019879,11.9142468 0.722294444,12.0315811 0.722294444,12.1530714 L0.722294444,24.1309286 C0.722294444,24.4070709 0.948639376,24.6309286 1.22785,24.6309286 L12.4150722,24.6309286 C12.6942828,24.6309286 12.9206278,24.4070709 12.9206278,24.1309286 Z" id="Stroke-1"></path>
                    <path d="M10.1573333,21.4430714 C10.3567695,21.4430714 10.5184444,21.2831731 10.5184444,21.0859286 L10.5184444,13.5745 C10.5184444,13.3772554 10.3567695,13.2173571 10.1573333,13.2173571 L3.53744444,13.2173571 C3.33800828,13.2173571 3.17633333,13.3772554 3.17633333,13.5745 L3.17633333,21.0859286 C3.17633333,21.2831731 3.33800828,21.4430714 3.53744444,21.4430714 L10.1573333,21.4430714 Z M3.89855556,21.0859286 L3.89855556,13.5745 L3.53744444,13.9316429 L10.1573333,13.9316429 L9.79622222,13.5745 L9.79622222,21.0859286 L10.1573333,20.7287857 L3.53744444,20.7287857 L3.89855556,21.0859286 Z" id="Stroke-3"></path>
                    <path d="M6.71645,1.00021429 C9.62565916,1.00021429 10.9248389,3.11289139 10.9248389,6.41164286 L11.4303944,5.91164286 L2.13106111,5.91164286 L2.63661667,6.41164286 C2.63661667,3.03884187 3.83320319,1.00021429 6.71645,1.00021429 Z M1.62550556,6.91164286 L2.13106111,6.91164286 L11.4303944,6.91164286 L11.93595,6.91164286 L11.93595,6.41164286 C11.93595,2.63189845 10.3176096,0.000214285714 6.71645,0.000214285714 C3.12766525,0.000214285714 1.62550556,2.55944769 1.62550556,6.41164286 L1.62550556,6.91164286 Z" id="Stroke-4"></path>
                    <path d="M7.49099724,3.05160498 C7.67986824,3.10439309 7.86840922,3.17569166 8.04152475,3.26677803 C8.47203207,3.49329354 8.72347685,3.79305575 8.75186769,4.18615966 C8.76607693,4.38290296 8.93885988,4.53100263 9.13778921,4.51694954 C9.33671855,4.50289644 9.48646377,4.33201221 9.47225453,4.13526891 C9.42349051,3.4600748 9.01021652,2.96738641 8.3807348,2.63617864 C7.99987579,2.43578606 7.62512009,2.3310445 7.36282537,2.29008466 C7.16582972,2.25932189 6.98091795,2.39232536 6.94981337,2.58715622 C6.9187088,2.78198709 7.05319008,2.96486686 7.25018574,2.99562963 C7.29337741,3.00237443 7.37855211,3.02017737 7.49099724,3.05160498 Z" id="Stroke-6"></path>
                </g>
            </g>
        </g>
    </g>
</svg>