<?xml version="1.0" encoding="UTF-8" standalone="no"?>
<svg width="52px" height="51px" viewBox="0 0 52 51" version="1.1" xmlns="http://www.w3.org/2000/svg" xmlns:xlink="http://www.w3.org/1999/xlink">
    <!-- Generator: Sketch 39.1 (31720) - http://www.bohemiancoding.com/sketch -->
    <title>ico_completemtariosbebes_green</title>
    <desc>Created with Sketch.</desc>
    <defs></defs>
    <g id="supermercado_categoria" stroke="none" stroke-width="1" fill="none" fill-rule="evenodd">
        <g id="Subcategorias_bebes" transform="translate(-324.000000, -136.000000)" fill="#44D481">
            <g id="icon01-copy-16" transform="translate(324.000000, 136.000000)">
                <g id="complementarios_bebe_yellow" transform="translate(15.000000, 13.000000)">
                    <path d="M11.2368434,11.8053149 C8.63617105,9.80179516 8.13090432,6.04077436 10.1086553,3.40575354 C12.0871958,0.771263573 15.7993201,0.259499674 18.40053,2.26291369 C21.0016834,4.26696774 21.5066633,8.02719538 19.528718,10.662475 C17.5510637,13.297367 13.838366,13.8089698 11.2368434,11.8053149 Z M19.0219772,1.4350809 C15.9693977,-0.915971455 11.6133222,-0.315430644 9.29147462,2.77618383 C6.9704884,5.86850788 7.56340145,10.2819358 10.6154122,12.6331601 C13.6683049,14.9844536 18.0251198,14.3840927 20.3459886,11.291925 C22.6670619,8.19948497 22.0744693,3.78686806 19.0219772,1.4350809 Z" id="Stroke-1"></path>
                    <path d="M2.01175145,23.9778063 C0.914603975,23.1325538 0.701670556,21.545872 1.53632144,20.4335467 C2.37086419,19.3219816 3.93717412,19.1058799 5.03429945,19.9511154 C6.13216745,20.7970705 6.34527866,22.3836755 5.51065484,23.4953485 C4.67600444,24.607057 3.10961699,24.8231434 2.01175145,23.9778063 Z M5.65582822,19.1233454 C4.10728592,17.9303342 1.89687336,18.2353019 0.719054844,19.8040914 C-0.458677507,21.3736357 -0.158199775,23.6126574 1.39036612,24.8056868 C2.93967507,25.9986274 5.15001847,25.6937058 6.32783849,24.1249143 C7.50570732,22.5560578 7.20496206,20.3170205 5.65582822,19.1233454 Z" id="Stroke-3"></path>
                    <path d="M2.83601097,22.8567708 C2.33913781,22.4740859 2.24254365,21.7554884 2.62061804,21.2519451 C2.99881333,20.7482409 3.70827644,20.6504051 4.20580842,21.0331707 C4.70249563,21.4162737 4.7990859,22.1350157 4.4209953,22.6385806 C4.04275347,23.1423468 3.33340719,23.2399931 2.83601097,22.8567708 Z M4.64970098,20.441863 C3.82948695,19.8108485 2.66022609,19.972091 2.03692863,20.8022377 C1.41362497,21.6323927 1.57287492,22.8171085 2.39211839,23.4480786 C3.21180286,24.07961 4.38124139,23.918629 5.0046847,23.088288 C5.62794595,22.2581895 5.46875282,21.0736105 4.64970098,20.441863 Z" id="Stroke-5"></path>
                    <path d="M5.73628194,20.2242032 C5.5646752,20.4528038 5.60850201,20.7790426 5.83417184,20.952878 C6.05984168,21.1267134 6.38189798,21.0823174 6.55350472,20.8537168 L12.3263047,13.1636597 C12.4979115,12.9350591 12.4540847,12.6088202 12.2284148,12.4349848 C12.002745,12.2611494 11.6806887,12.3055454 11.5090819,12.534146 L5.73628194,20.2242032 Z" id="Stroke-7"></path>
                    <path d="M10.3154931,11.5429094 C10.4871083,11.3143153 10.4432935,10.9880748 10.2176301,10.8142309 C9.99196665,10.6403869 9.66990871,10.6847707 9.49829355,10.9133649 L3.69102688,18.6487363 C3.51941171,18.8773304 3.56322649,19.2035709 3.78888992,19.3774149 C4.01455335,19.5512588 4.33661129,19.506875 4.50822645,19.2782809 L10.3154931,11.5429094 Z" id="Stroke-9"></path>
                    <path d="M12.1985988,3.28485104 C13.5771859,3.66205049 15.0066522,4.35588792 16.4210147,5.44570387 C17.880138,6.56945509 18.8192161,7.73459986 19.346676,8.87187748 C19.528144,9.26314796 19.6459863,9.6212419 19.713119,9.93759865 C19.7517832,10.1197999 19.7652766,10.2426452 19.7663378,10.2972227 C19.7703254,10.5023172 19.9376885,10.6653046 20.1401537,10.6612651 C20.3426188,10.6572257 20.5035166,10.487689 20.4995289,10.2825945 C20.4925051,9.92134671 20.3650227,9.32059731 20.0104073,8.55599681 C19.4321381,7.30916729 18.4172036,6.04990491 16.8649159,4.85440268 C15.3730721,3.70488464 13.8575788,2.96929127 12.3898232,2.56769414 C11.464881,2.31461785 10.7274909,2.23340946 10.2465332,2.24297713 C10.0230319,2.25147173 9.86532606,2.42405861 9.87313972,2.62904018 C9.88095337,2.83402176 10.0513276,2.99377568 10.2536812,2.98586055 C10.6755409,2.97744326 11.3442368,3.0510864 12.1985988,3.28485104 Z" id="Stroke-11"></path>
                    <path d="M10.6432722,5.35660532 C12.0218592,5.73380477 13.4513255,6.42764221 14.8656881,7.51745816 C16.3248114,8.64120937 17.2638894,9.80635414 17.7913493,10.9436318 C17.9728174,11.3349022 18.0906597,11.6929962 18.1577924,12.0093529 C18.1964565,12.1915542 18.2099499,12.3143995 18.2110111,12.368977 C18.2149988,12.5740715 18.3823618,12.7370589 18.584827,12.7330194 C18.7872921,12.7289799 18.9481899,12.5594433 18.9442022,12.3543488 C18.9371785,11.993101 18.809696,11.3923516 18.4550807,10.6277511 C17.8768114,9.38092157 16.861877,8.1216592 15.3095892,6.92615697 C13.8177454,5.77663892 12.3022522,5.04104555 10.8344966,4.63944843 C9.90955434,4.38637214 9.1721642,4.30516374 8.69120651,4.31473141 C8.46770519,4.32322601 8.3099994,4.49581289 8.31781305,4.70079447 C8.3256267,4.90577604 8.49600093,5.06552996 8.69835454,5.05761483 C9.12021421,5.04919755 9.78891009,5.12284068 10.6432722,5.35660532 Z" id="Stroke-13"></path>
                </g>
            </g>
        </g>
    </g>
</svg>