<?xml version="1.0" encoding="UTF-8" standalone="no"?>
<svg width="52px" height="51px" viewBox="0 0 52 51" version="1.1" xmlns="http://www.w3.org/2000/svg" xmlns:xlink="http://www.w3.org/1999/xlink">
    <!-- Generator: Sketch 39.1 (31720) - http://www.bohemiancoding.com/sketch -->
    <title>ico_TODOSbebes_grey</title>
    <desc>Created with Sketch.</desc>
    <defs></defs>
    <g id="Supermercado_categoria" stroke="none" stroke-width="1" fill="none" fill-rule="evenodd">
        <g id="Subcategorias_bebes" transform="translate(-14.000000, -14.000000)" fill="#D4D4D4">
            <g id="icon01-copy" transform="translate(14.000000, 14.000000)">
                <g id="bano_nino_dgreen" transform="translate(14.000000, 13.000000)">
                    <path d="M8.97608333,3.61765357 C8.97608333,3.03267948 8.50453531,2.56786786 7.91108333,2.56786786 C7.31763135,2.56786786 6.84608333,3.03267948 6.84608333,3.61765357 C6.84608333,4.20262767 7.31763135,4.66743929 7.91108333,4.66743929 C8.50453531,4.66743929 8.97608333,4.20262767 8.97608333,3.61765357 Z M7.67941667,3.61765357 C7.67941667,3.48634195 7.77786865,3.38929643 7.91108333,3.38929643 C8.04429802,3.38929643 8.14275,3.48634195 8.14275,3.61765357 C8.14275,3.74896519 8.04429802,3.84601071 7.91108333,3.84601071 C7.77786865,3.84601071 7.67941667,3.74896519 7.67941667,3.61765357 Z" id="Stroke-1"></path>
                    <path d="M19.1285553,15.2487253 C18.3783432,14.8825329 17.5738785,14.5201988 16.7416608,14.184296 C14.3776962,13.2301436 12.2304102,12.6596929 10.4940833,12.6596929 C7.78423835,12.6596929 6.22325,14.1337781 6.22325,16.7011214 C6.22325,19.2691627 7.78410901,20.7433714 10.4940833,20.7433714 C12.2198642,20.7433714 14.3647708,20.1729379 16.7323801,19.2188563 C17.5659319,18.8829579 18.3724583,18.5205981 19.1246927,18.1545651 C19.5965049,17.924984 19.9712683,17.7310876 20.1857306,17.6141778 C20.5263549,17.4040059 20.7174167,17.0788999 20.7174167,16.7011214 C20.7174167,16.3235577 20.5256681,15.9972831 20.2046446,15.7998478 C19.9590189,15.6652992 19.5980132,15.4778765 19.1285553,15.2487253 Z M19.8840833,16.7011214 C19.8840833,16.7898894 19.8454957,16.8555492 19.7624378,16.9069812 C19.0444188,17.297666 17.8236525,17.8916839 16.4170366,18.4585115 C14.1412701,19.3755829 12.0868836,19.9219429 10.4940833,19.9219429 C8.23656932,19.9219429 7.05658333,18.8074632 7.05658333,16.7011214 C7.05658333,14.5955096 8.23666911,13.4811214 10.4940833,13.4811214 C12.0975038,13.4811214 14.1538059,14.0274013 16.4258808,14.9444647 C17.8294486,15.5109781 19.0203784,16.0922931 19.7824361,16.5077135 C19.8453734,16.5470923 19.8840833,16.6129601 19.8840833,16.7011214 Z" id="Stroke-3"></path>
                    <path d="M15.3443981,21.3522206 C14.0168145,21.4833135 12.7229592,21.5533821 11.5425,21.5533821 C8.09448488,21.5533821 5.24716226,21.0207165 3.73903831,19.8154516 C2.43971002,18.7672605 1.9666853,17.4525783 2.06044037,16.0295751 C2.17624942,14.4352453 3.10728107,12.8089987 4.27117714,12.1121069 C6.28530923,10.9103396 6.9080776,9.57777618 6.40451419,8.31586851 L5.86166667,8.52634643 L6.445,8.52634643 C6.445,8.33803574 6.40495253,8.25908501 6.30110341,8.10553667 C6.29022078,8.08870922 6.25217774,8.03033476 6.25217774,8.03033476 C6.23210608,8.00374211 6.21541013,7.97865334 6.17474746,7.91467666 C6.11791013,7.82525155 6.08918941,7.78209331 6.04467774,7.72312048 C5.63773808,7.06368178 5.4075,6.27300279 5.4075,5.483775 C5.4075,3.09144587 7.3771661,1.14991786 9.80416667,1.14991786 C12.2318867,1.14991786 14.2016667,3.0913337 14.2016667,5.483775 C14.2016667,5.79123069 14.1380903,6.23352697 13.9581641,6.71793838 C13.6769743,7.47497946 13.183372,8.10481766 12.4183691,8.54011147 C12.2807702,8.62835077 12.2132541,8.68753411 12.1125679,8.78838277 C11.2780264,9.7454487 11.1078143,10.6450018 11.4547554,11.3776024 C11.9627085,12.4094335 13.0568316,12.7065964 14.7066667,12.7065964 C14.9769,12.7065964 15.0319104,12.7035383 15.782804,12.6544052 C18.9894785,12.4321227 20.829515,11.6405103 21.974205,10.2926643 C22.2414222,9.97802206 22.3812064,9.76940068 22.7273954,9.2090101 C22.7875065,9.12119687 22.9704356,8.82461963 22.9832906,8.80496509 C23.0164607,8.75425026 23.042999,8.71764103 23.066266,8.69014894 L22.6183333,8.32181071 L22.1794395,8.70057385 C22.2783353,8.81191916 22.4830692,9.25464449 22.635867,9.70568383 C23.418351,12.3104163 23.3015526,15.2651261 22.345208,17.3679139 C21.2543257,19.7571086 18.7073659,20.9915128 15.3443981,21.3522206 Z M23.7484723,9.36023226 C23.5422456,8.75041163 23.2901717,8.20531619 23.0572272,7.94304758 C22.8211395,7.67724009 22.3999904,7.68219082 22.1704007,7.95347249 C22.1125911,8.02177991 22.0597096,8.09472914 22.0027419,8.18182895 C21.976544,8.22188369 21.8003456,8.50754884 21.7440707,8.59060697 C21.4154033,9.1216662 21.2965554,9.29904106 21.0796243,9.55447251 C20.1567042,10.6411897 18.6128206,11.3053925 15.703245,11.5070845 C14.9923403,11.5535965 14.9383778,11.5565964 14.7066667,11.5565964 C13.4898625,11.5565964 12.7392392,11.3527277 12.5081275,10.8833269 C12.3687578,10.5888793 12.4486853,10.1664709 12.9711182,9.56604062 C12.9918428,9.54720342 13.007465,9.53350923 13.0311803,9.51809072 C14.0198706,8.9566935 14.6835901,8.10978507 15.0537109,7.11331698 C15.2861739,6.48746207 15.3683333,5.91588462 15.3683333,5.483775 C15.3683333,2.45617649 12.8761888,-8.21428571e-05 9.80416667,-8.21428571e-05 C6.7328339,-8.21428571e-05 4.24083333,2.45631841 4.24083333,5.483775 C4.24083333,6.48691044 4.53149894,7.48510842 5.07921224,8.36665278 C5.12872726,8.43616503 5.1454232,8.4612538 5.18608587,8.52523049 C5.2429232,8.61465559 5.27164392,8.65781384 5.31615559,8.71678667 L5.78416667,8.37356071 L5.26241747,8.63070853 C5.28425194,8.67375363 5.30681626,8.70934078 5.33037807,8.7434419 C5.29541784,8.6917507 5.27833333,8.65806982 5.27833333,8.52634643 C5.27833333,8.5983862 5.29206691,8.66978444 5.31881914,8.73682435 C5.5929028,9.4236659 5.23288347,10.1940142 3.66626271,11.1287667 C2.16493929,12.0276949 1.03856031,13.9951575 0.89648921,15.9512501 C0.779718035,17.7233948 1.3833697,19.4011297 3.00221812,20.7070736 C4.78443781,22.1313985 7.84193141,22.7033821 11.5425,22.7033821 C12.7639048,22.7033821 14.0961832,22.6312327 15.4656546,22.4959819 C19.2016149,22.0952884 22.1096338,20.6858941 23.4094409,17.839121 C24.4852305,15.473702 24.6131639,12.2373039 23.7484723,9.36023226 Z M1.97030655,3.64748055 L1.41666667,3.82859643 L1.30111142,4.39220159 C1.62029358,4.4557867 1.85343684,4.46684643 2.4325,4.46684643 C2.82844897,4.46684643 3.2403441,4.44205022 3.66349546,4.39698356 L3.60083333,3.82531071 L3.02908899,3.71126487 C2.91990772,4.24309462 2.86416667,4.78478788 2.86416667,5.33016786 C2.86416667,5.50259084 2.87414788,5.65366565 2.8979009,5.90857732 C2.90023393,5.93355277 2.90023393,5.93355277 2.90255399,5.95826824 C2.9084038,6.02059654 2.9084038,6.02059654 2.91391373,6.08126765 L3.495,6.03084643 L3.75238537,5.51484543 C3.08698751,5.19235501 2.60732617,4.75783872 2.27828008,4.28579136 C2.13409281,4.08293755 2.06449093,3.9272188 1.97030655,3.64748055 Z M3.23761463,6.54684743 C3.64553065,6.7445472 4.11594593,6.42676226 4.07608627,5.98042521 C4.07019033,5.9155074 4.07019033,5.9155074 4.06425842,5.85231463 C4.06194994,5.82772233 4.06194994,5.82772233 4.05967722,5.80339233 C4.03899322,5.58141665 4.03083333,5.4579093 4.03083333,5.33016786 C4.03083333,4.86187848 4.0787139,4.39657373 4.17257767,3.93935656 C4.25084631,3.55810443 3.93050514,3.21185334 3.53817121,3.25363787 C3.15428993,3.29452217 2.78345683,3.31684643 2.4325,3.31684643 C1.93239649,3.31684643 1.74880472,3.30813729 1.53222191,3.26499127 C1.09302178,3.17749707 0.721888766,3.59051646 0.863026787,4.00971231 C0.989948622,4.38668447 1.09922108,4.63115734 1.31979149,4.9414075 C1.75310148,5.56307446 2.38053992,6.13145928 3.23761463,6.54684743 Z" id="Stroke-5"></path>
                </g>
            </g>
        </g>
    </g>
</svg>