<?xml version="1.0" encoding="UTF-8" standalone="no"?>
<svg width="52px" height="51px" viewBox="0 0 52 51" version="1.1" xmlns="http://www.w3.org/2000/svg" xmlns:xlink="http://www.w3.org/1999/xlink">
    <!-- Generator: Sketch 39.1 (31720) - http://www.bohemiancoding.com/sketch -->
    <title>ico_utensiliosbebes_green</title>
    <desc>Created with Sketch.</desc>
    <defs></defs>
    <g id="supermercado_categoria" stroke="none" stroke-width="1" fill="none" fill-rule="evenodd">
        <g id="Subcategorias_bebes" transform="translate(-200.000000, -197.000000)" fill="#44D481">
            <g id="icon01-copy-23" transform="translate(200.000000, 197.000000)">
                <g id="utensilios_green" transform="translate(18.000000, 12.000000)">
                    <path d="M1.21217072,1.75939214 C0.429984466,2.7857885 0,4.11834786 0,5.54468293 C0,6.31135539 0.154119861,7.05631082 0.44490798,7.83590999 C0.525586156,8.01051683 0.581456351,8.13251098 0.63821555,8.25999489 C0.671707552,8.33521954 0.777525288,8.57663532 0.77354649,8.56760654 C0.861798231,8.76692183 0.922407118,8.89730278 0.997834774,9.04962251 C1.04746887,9.13618268 1.10891215,9.24801687 1.18950922,9.40847266 C1.32569596,9.67959855 1.46225628,9.98410681 1.58971475,10.3140143 C1.99504962,11.3631638 2.21547655,12.4179664 2.15801971,13.3883436 C2.09825355,14.3884229 2.02476486,15.0752297 1.90593173,15.7871493 C1.83353788,16.2208551 1.79542076,16.4137311 1.56230661,17.554638 C1.51104106,17.8045235 1.48215709,17.9454121 1.45616571,18.0733075 C1.41372262,18.2821565 1.37740768,18.4641515 1.3426775,18.6430549 C1.16209708,19.5732679 1.03733634,20.3593741 0.962315933,21.1181553 C0.859882035,22.1542056 0.861524711,23.0591993 0.990409612,23.8363588 C1.11502158,24.5916175 1.44265302,25.2863539 1.922586,25.9200399 C2.37568594,26.5193652 2.80243258,26.9077125 3.32089858,27.1492415 C3.74878655,27.3489561 4.05182933,27.4418309 4.43029099,27.4440892 C4.81040528,27.4463528 5.12246417,27.354453 5.57416815,27.1521801 C6.08857887,26.9219985 6.55364444,26.5409206 7.00348835,25.9947322 C7.51704561,25.3710039 7.86732091,24.6762689 7.99518203,23.9083743 C8.12386202,23.1307832 8.12532173,22.2258285 8.02278029,21.1898119 C7.94770156,20.4312619 7.82294724,19.6453659 7.64243466,18.7154955 C7.60768066,18.5364681 7.57134082,18.354348 7.52886827,18.1453544 C7.50286141,18.017383 7.47395596,17.87639 7.42262815,17.626201 C7.18967242,16.4860692 7.15144817,16.2926273 7.07909713,15.8589051 C6.9603506,15.1470563 6.8870388,14.4602916 6.82761774,13.4599597 C6.82417172,13.4021859 6.82175684,13.3440117 6.82035477,13.2853331 C6.79830737,12.3626156 7.02305452,11.3549505 7.41326924,10.3455099 C7.54466133,10.0056136 7.68546991,9.6905705 7.82593786,9.40901848 C7.90918056,9.24216796 7.97275274,9.12532495 8.00684117,9.0669268 C8.08104229,8.91002909 8.2300912,8.58438441 8.26228705,8.51361495 C8.3486418,8.32370534 8.42634182,8.14975825 8.55329497,7.86176783 C8.85795893,7.13414501 9.00871429,6.36625609 9.00871429,5.54468293 C9.00871429,4.11834786 8.57872982,2.7857885 7.79640933,1.75921592 C6.96747549,0.670429611 5.7789727,0.00956097561 4.50435714,0.00956097561 C3.22974159,0.00956097561 2.04123879,0.670429611 1.21217072,1.75939214 Z M7.04245644,2.34090054 C7.69491772,3.19707002 8.05871429,4.32450732 8.05871429,5.54468293 C8.05871429,6.24012736 7.93274599,6.88176068 7.68136472,7.48231012 C7.5593644,7.75885563 7.48313649,7.92950709 7.40241238,8.107036 C7.36688433,8.18513208 7.21807052,8.51026311 7.1655733,8.62539429 C7.1434818,8.65843785 7.06996442,8.7935597 6.97694912,8.9799983 C6.82365372,9.28726149 6.67069896,9.62948029 6.52791194,9.99885391 C6.09601583,11.1161195 5.84512669,12.2409935 5.87062934,13.3083181 C5.87230297,13.3783623 5.87519254,13.4479716 5.87931783,13.5171334 C5.94064811,14.5496067 6.01752384,15.2697572 6.14220865,16.0172042 C6.21732855,16.4675248 6.25621338,16.6643097 6.49212804,17.818923 C6.54362044,18.0699167 6.57232215,18.209916 6.59813599,18.3369375 C6.64009059,18.5433824 6.67590218,18.7228551 6.71006255,18.8988247 C6.8853689,19.8018763 7.00578752,20.5604593 7.07745871,21.2845816 C7.17237717,22.2435802 7.17104619,23.0687257 7.0581681,23.7508299 C6.96055734,24.3370487 6.68565217,24.8822948 6.27203989,25.3846374 C5.90971272,25.8245653 5.5571558,26.1134528 5.18809455,26.2785955 C4.84960801,26.4301696 4.64890131,26.4892767 4.43591774,26.4880084 C4.22443503,26.4867465 4.03536108,26.4288002 3.72027294,26.2817344 C3.36261515,26.1151183 3.04588693,25.8268898 2.67837577,25.3407749 C2.28628083,24.8230667 2.02469925,24.2683878 1.92751233,23.67935 C1.81433316,22.9968931 1.81283549,22.1717841 1.90764755,21.2128235 C1.97925993,20.4885123 2.09968116,19.7297489 2.27504936,18.8263854 C2.30918603,18.6505392 2.34497282,18.4711912 2.38689805,18.2648903 C2.41269643,18.1379447 2.4413767,17.9980496 2.49280672,17.74736 C2.72887349,16.5920024 2.76764699,16.3958051 2.84280403,15.9455453 C2.96756448,15.1981156 3.04461676,14.4780044 3.10632176,13.4454808 C3.17311898,12.317357 2.92586028,11.1341571 2.47513803,9.96752906 C2.33595683,9.60727905 2.18683179,9.27475339 2.03733317,8.9771257 C1.94651902,8.79632935 1.87464246,8.66550532 1.83121039,8.59201468 C1.77925656,8.48414704 1.72427329,8.36586783 1.65832119,8.21699595 C1.64693825,8.19125842 1.53999025,7.94726401 1.50516146,7.86903687 C1.44552614,7.73509306 1.38662306,7.60647652 1.31849591,7.46243668 C1.08116268,6.8212201 0.95,6.18723076 0.95,5.54468293 C0.95,4.32450732 1.31379657,3.19707002 1.96612362,2.34107677 C2.62440753,1.47643553 3.54298627,0.965658537 4.50435714,0.965658537 C5.46572801,0.965658537 6.38430676,1.47643553 7.04245644,2.34090054 Z" id="Stroke-1"></path>
                    <path d="M10.8517916,1.22636333 C10.0930847,2.22092123 9.61813929,4.00812854 9.61813929,5.54461463 C9.61813929,6.31069639 9.77249072,7.05504414 10.0637258,7.8358417 C10.144404,8.01044854 10.2002742,8.13244269 10.2570334,8.25992659 C10.2905254,8.33515125 10.3963431,8.57656703 10.3923643,8.56753825 C10.4806161,8.76685353 10.541225,8.89723448 10.6166526,9.04955421 C10.6662674,9.13608171 10.7276778,9.24785767 10.8082329,9.40823514 C10.9443504,9.67923185 11.0808417,9.98360173 11.2082359,10.3133672 C11.6135909,11.3626462 11.8339186,12.417613 11.7761674,13.3881343 C11.7167256,14.3888141 11.6433916,15.0755386 11.5245771,15.7870488 C11.4520836,16.2211701 11.4125434,16.4209566 11.1804845,17.5543808 C11.1290838,17.8054075 11.0998317,17.9483407 11.0741174,18.0750712 C11.0315301,18.2849582 10.9951833,18.4673819 10.9604127,18.6467576 C10.7803033,19.5759124 10.6558847,20.360574 10.5809514,21.1180615 C10.4784561,22.1541687 10.4799281,23.0590558 10.6085217,23.8361262 C10.7338407,24.5914731 11.0612766,25.2857949 11.5404778,25.9196446 C11.994021,26.5195559 12.4208416,26.9078051 12.9399554,27.1492844 C13.365961,27.3486031 13.6699336,27.4417628 14.0491144,27.4440209 C14.4285134,27.4462847 14.7396761,27.3546489 15.1926244,27.1522736 C15.7076663,26.9218095 16.172855,26.5404754 16.6218797,25.9943576 C17.1359417,25.3700163 17.486259,24.6755744 17.6133907,23.9078883 C17.7420007,23.1307186 17.7435558,22.2257499 17.6411787,21.1898151 C17.5661397,20.4305099 17.4413345,19.6437619 17.2607641,18.7132782 C17.2260771,18.534535 17.1898013,18.3526746 17.1474669,18.1443018 C17.1213323,18.0156652 17.0926764,17.8758649 17.041446,17.6261327 C16.8093781,16.4926639 16.7698378,16.2928774 16.6973443,15.8587561 C16.5785298,15.147246 16.5051958,14.4605214 16.445757,13.4598914 C16.4423363,13.4022565 16.439938,13.3440799 16.4385523,13.2853989 C16.4167655,12.3628244 16.6415977,11.3553263 17.0317892,10.3460224 C17.1632458,10.0059851 17.3041237,9.69080342 17.4446612,9.40912124 C17.527946,9.24219182 17.5915512,9.12528986 17.625659,9.0668585 C17.6770102,8.96007271 17.8412375,8.60073774 17.8809884,8.51315123 C17.9652178,8.32746715 18.0425692,8.15402698 18.1714343,7.86169953 C18.4763939,7.13337033 18.6275321,6.36540878 18.6275321,5.54461463 C18.6275321,4.00812854 18.1525867,2.22092123 17.4153614,1.25259214 C16.8502127,0.519543037 15.6252457,0.0545778312 14.3067051,0.00437105617 C12.9070403,-0.0489247245 11.608236,0.366927432 10.8517916,1.22636333 Z M16.6630379,1.83640245 C17.2559447,2.61518692 17.6775321,4.20160956 17.6775321,5.54461463 C17.6775321,6.23913518 17.5512415,6.8808413 17.299504,7.48224182 C17.1754677,7.76340602 17.0994515,7.93385223 17.020791,8.10726166 C16.977731,8.20214179 16.8140522,8.56027655 16.7843912,8.625326 C16.7622823,8.6583992 16.6887338,8.79357626 16.595678,8.98008986 C16.4423146,9.2874794 16.2892916,9.6298328 16.1464407,9.9993436 C15.7145918,11.1164022 15.4636211,12.2410303 15.4888204,13.3081157 C15.4904745,13.3781575 15.493344,13.4477644 15.4974487,13.5169238 C15.5588077,14.5498795 15.635712,15.2700379 15.7604827,16.0172166 C15.8357605,16.4680107 15.8759942,16.6713011 16.1109845,17.8190436 C16.1623337,18.0693566 16.1907845,18.2081561 16.216724,18.3358326 C16.2585399,18.5416535 16.2942869,18.7208626 16.3283804,18.8965474 C16.5037413,19.8001868 16.6242092,20.5595925 16.695843,21.2844418 C16.7906128,22.2434001 16.7891948,23.0686012 16.6763074,23.7507616 C16.5792884,24.3366118 16.3044547,24.881421 15.8901792,25.3845691 C15.5285262,25.8244225 15.1760803,26.1133368 14.8069124,26.2785272 C14.4674475,26.4301986 14.2670755,26.4892071 14.0547412,26.4879401 C13.8426056,26.4866768 13.6531947,26.4286273 13.3394888,26.2818521 C12.9807736,26.1149851 12.6641239,25.8269507 12.2965151,25.3407066 C11.9049666,24.8227971 11.6433237,24.2679881 11.5455816,23.6788584 C11.4327421,22.9969872 11.4313999,22.1718868 11.526278,21.2127808 C11.5978128,20.4896475 11.717912,19.7322273 11.892835,18.829828 C11.9270142,18.6535034 11.9628358,18.4737151 12.0049081,18.2663664 C12.0304335,18.1405672 12.0594851,17.9986138 12.1109845,17.7471033 C12.3459273,16.5995937 12.386161,16.3963034 12.4614387,15.9455093 C12.5862094,15.1983306 12.6631138,14.4781722 12.7244713,13.4452403 C12.7915967,12.3171856 12.5444356,11.1337363 12.0936678,9.96690419 C11.9545502,9.60679244 11.8054932,9.27440134 11.6560624,8.97689917 C11.5652886,8.79617732 11.4934431,8.66540785 11.4500282,8.59194639 C11.3980744,8.48407875 11.3430911,8.36579954 11.277139,8.21692765 C11.2657561,8.19119012 11.1588081,7.94719572 11.1239793,7.86896858 C11.064344,7.73502476 11.0054409,7.60640822 10.9373138,7.46236839 C10.6995001,6.81986373 10.5681393,6.18638653 10.5681393,5.54461463 C10.5681393,4.20160956 10.9897267,2.61518692 11.5843971,1.83410054 C12.1046803,1.24480215 13.1304685,0.916364496 14.2707878,0.959785041 C15.3353665,1.00032157 16.301038,1.36686502 16.6630379,1.83640245 Z" id="Stroke-3"></path>
                    <path d="M13.7834821,4.79599024 C13.7834821,4.98457528 13.9353855,5.13745366 14.1227679,5.13745366 C14.3101502,5.13745366 14.4620536,4.98457528 14.4620536,4.79599024 L14.4620536,0.787209756 C14.4620536,0.59862472 14.3101502,0.445746341 14.1227679,0.445746341 C13.9353855,0.445746341 13.7834821,0.59862472 13.7834821,0.787209756 L13.7834821,4.79599024 Z" id="Stroke-5"></path>
                    <path d="M12.0035893,4.79599024 C12.0035893,4.98457528 12.1554927,5.13745366 12.342875,5.13745366 C12.5302573,5.13745366 12.6821607,4.98457528 12.6821607,4.79599024 L12.6821607,0.787209756 C12.6821607,0.59862472 12.5302573,0.445746341 12.342875,0.445746341 C12.1554927,0.445746341 12.0035893,0.59862472 12.0035893,0.787209756 L12.0035893,4.79599024 Z" id="Stroke-7"></path>
                    <path d="M15.5463429,4.79599024 C15.5463429,4.98457528 15.6982462,5.13745366 15.8856286,5.13745366 C16.0730109,5.13745366 16.2249143,4.98457528 16.2249143,4.79599024 L16.2249143,0.787209756 C16.2249143,0.59862472 16.0730109,0.445746341 15.8856286,0.445746341 C15.6982462,0.445746341 15.5463429,0.59862472 15.5463429,0.787209756 L15.5463429,4.79599024 Z" id="Stroke-9"></path>
                    <path d="M4.46296429,8.62789268 C3.27264302,8.62789268 2.26371429,7.27951946 2.26371429,5.57657561 C2.26371429,3.87363176 3.27264302,2.52525854 4.46296429,2.52525854 C5.65328555,2.52525854 6.66221429,3.87363176 6.66221429,5.57657561 C6.66221429,7.27951946 5.65328555,8.62789268 4.46296429,8.62789268 Z M4.46296429,1.84233171 C2.84929481,1.84233171 1.58514286,3.53179557 1.58514286,5.57657561 C1.58514286,7.62135565 2.84929481,9.31081951 4.46296429,9.31081951 C6.07663376,9.31081951 7.34078571,7.62135565 7.34078571,5.57657561 C7.34078571,3.53179557 6.07663376,1.84233171 4.46296429,1.84233171 Z" id="Stroke-11"></path>
                </g>
            </g>
        </g>
    </g>
</svg>