<?xml version="1.0" encoding="UTF-8" standalone="no"?>
<svg width="52px" height="51px" viewBox="0 0 52 51" version="1.1" xmlns="http://www.w3.org/2000/svg" xmlns:xlink="http://www.w3.org/1999/xlink">
    <!-- Generator: Sketch 39.1 (31720) - http://www.bohemiancoding.com/sketch -->
    <title>ico_humectacionbebe_green</title>
    <desc>Created with Sketch.</desc>
    <defs></defs>
    <g id="supermercado_categoria" stroke="none" stroke-width="1" fill="none" fill-rule="evenodd">
        <g id="Subcategorias_bebes" transform="translate(-200.000000, -136.000000)" fill="#44D481">
            <g id="icon01-copy-14" transform="translate(200.000000, 136.000000)">
                <g id="humectacion_bebe_dgreen" transform="translate(18.000000, 12.000000)">
                    <path d="M12.6429818,20.8457889 L12.4246432,21.2607824 C13.8552206,20.2723651 14.7402737,16.7807793 15.3223131,11.3417755 C15.696464,7.84543558 15.8832244,4.09924111 15.9454333,0.885338092 L15.9519941,0.514729791 C15.9569972,0.232086359 15.7276457,0.000288888889 15.4429818,0.000288888889 L0.509163636,0.000288888889 C0.224499708,0.000288888889 -0.00485172405,0.232086359 0.000151361172,0.514729791 L0.00669681572,0.884507568 C0.0688749446,4.09685858 0.25585696,7.84520732 0.630106133,11.3417857 C1.21225336,16.7807381 2.0972377,20.2723253 3.52745154,21.2607473 L3.30916364,20.8457889 L3.30916364,25.4571778 C3.30916364,25.7363884 3.5370914,25.9627333 3.81825455,25.9627333 L12.1338909,25.9627333 C12.4150541,25.9627333 12.6429818,25.7363884 12.6429818,25.4571778 L12.6429818,20.8457889 Z M12.1338909,24.9516222 L3.81825455,24.9516222 L4.32734545,25.4571778 L4.32734545,20.8457889 C4.32734545,20.6803307 4.24581484,20.5253435 4.10905755,20.4308305 C3.04583571,19.696037 2.18445684,16.297582 1.64258478,11.234917 C1.27202265,7.77278639 1.08635182,4.05072249 1.02470598,0.865906353 L1.01817591,0.496959098 L0.509163636,0.505844444 L0.509163636,1.0114 L15.4429818,1.0114 L15.4429818,0.505844444 L14.9339695,0.496959098 L14.9274241,0.866736876 C14.8657474,4.05311095 14.6802965,7.77303804 14.3098323,11.2349273 C13.7680627,16.2976199 12.9066349,19.6960026 11.8431386,20.4307954 C11.7063519,20.5253044 11.6248,20.680309 11.6248,20.8457889 L11.6248,25.4571778 L12.1338909,24.9516222 Z" id="Stroke-1"></path>
                    <path d="M8.60091882,16.7313587 C10.3989409,16.4660926 11.7785871,14.9470628 11.746896,13.2331684 L11.7400546,13.1217088 C11.7351829,13.0247074 11.7297161,12.9535894 11.7192882,12.8755244 C11.6565415,12.3543191 11.4941376,11.821015 11.2132697,11.2080183 C10.8208496,10.34813 10.2944804,9.49452882 9.51314612,8.44712676 C9.23596581,8.07511925 8.97267894,7.743233 8.7070778,7.43185358 C8.51901987,7.20660944 8.26175488,7.07467222 7.97098182,7.07467222 C7.69956487,7.07467222 7.43156832,7.19100689 7.22663753,7.44054604 C6.62976761,8.1663766 6.168166,8.78065937 5.77638524,9.37128959 C5.11656505,10.3672514 4.6977375,11.1797942 4.42433952,12.0011754 C4.11800135,12.9220298 4.12914134,13.7711382 4.46751963,14.5701579 C5.03637503,15.9149693 6.4194896,16.7770056 7.98189091,16.7770056 C8.18395316,16.7770056 8.39182108,16.7613798 8.60091882,16.7313587 Z M5.4061622,14.1783798 C5.16704508,13.6137474 5.15919683,13.0155406 5.391105,12.3184232 C5.63368404,11.5896327 6.01287172,10.8539928 6.62683051,9.92725612 C6.99777551,9.36803707 7.43904098,8.78081691 8.01548069,8.07983058 C8.01941402,8.07504122 7.99466775,8.08578333 7.97098182,8.08578333 C7.94368644,8.08578333 7.92055183,8.07391885 7.9267414,8.08133091 C8.18070756,8.37911268 8.43026676,8.69369451 8.69482834,9.04876612 C9.436352,10.042801 9.92608605,10.8369919 10.2861957,11.6260787 C10.5264942,12.1505338 10.658948,12.5854874 10.7091316,13.0020579 C10.7158924,13.0529857 10.7195839,13.1010089 10.7236299,13.1805617 L10.7299091,13.2758023 C10.7509229,14.4435237 9.75623329,15.5387053 8.45326022,15.7309386 C8.29318266,15.7539177 8.13385737,15.7658944 7.98189091,15.7658944 C6.81943267,15.7658944 5.81211364,15.1380755 5.4061622,14.1783798 Z" id="Stroke-3"></path>
                    <path d="M15.3834182,3.16607778 C15.584249,3.16607778 15.7470545,3.00440283 15.7470545,2.80496667 C15.7470545,2.60553051 15.584249,2.44385556 15.3834182,2.44385556 L0.568872727,2.44385556 C0.368041909,2.44385556 0.205236364,2.60553051 0.205236364,2.80496667 C0.205236364,3.00440283 0.368041909,3.16607778 0.568872727,3.16607778 L15.3834182,3.16607778 Z" id="Stroke-5"></path>
                    <path d="M12.1341818,21.2069 C12.3350126,21.2069 12.4978182,21.045225 12.4978182,20.8457889 C12.4978182,20.6463527 12.3350126,20.4846778 12.1341818,20.4846778 L3.81854545,20.4846778 C3.61771464,20.4846778 3.45490909,20.6463527 3.45490909,20.8457889 C3.45490909,21.045225 3.61771464,21.2069 3.81854545,21.2069 L12.1341818,21.2069 Z" id="Stroke-7"></path>
                    <path d="M12.1341818,24.2787278 C12.3350126,24.2787278 12.4978182,24.1170528 12.4978182,23.9176167 C12.4978182,23.7181805 12.3350126,23.5565056 12.1341818,23.5565056 L3.81854545,23.5565056 C3.61771464,23.5565056 3.45490909,23.7181805 3.45490909,23.9176167 C3.45490909,24.1170528 3.61771464,24.2787278 3.81854545,24.2787278 L12.1341818,24.2787278 Z" id="Stroke-9"></path>
                </g>
            </g>
        </g>
    </g>
</svg>