<?xml version="1.0" encoding="UTF-8" standalone="no"?>
<svg width="52px" height="51px" viewBox="0 0 52 51" version="1.1" xmlns="http://www.w3.org/2000/svg" xmlns:xlink="http://www.w3.org/1999/xlink">
    <!-- Generator: Sketch 39.1 (31720) - http://www.bohemiancoding.com/sketch -->
    <title>ico_cuidadocolita_grey</title>
    <desc>Created with Sketch.</desc>
    <defs></defs>
    <g id="supermercado_categoria" stroke="none" stroke-width="1" fill="none" fill-rule="evenodd">
        <g id="Subcategorias_bebes" transform="translate(-262.000000, -14.000000)" fill="#D4D4D4">
            <g id="icon01-copy-5" transform="translate(262.000000, 14.000000)">
                <g id="cuidado_colita_lgreen" transform="translate(13.000000, 16.000000)">
                    <path d="M23.7366278,10.6031692 L23.3755167,10.2377846 L23.3755167,16.2198615 C23.3755167,17.1288344 22.6474138,17.8655538 21.7490722,17.8655538 L3.76357222,17.8655538 C2.8652306,17.8655538 2.13712778,17.1288344 2.13712778,16.2198615 L2.13712778,10.2377846 L1.77601667,10.6031692 L6.45890556,10.6031692 C6.65834172,10.6031692 6.82001667,10.439581 6.82001667,10.2377846 C6.82001667,10.0359883 6.65834172,9.8724 6.45890556,9.8724 L1.77601667,9.8724 C1.57658051,9.8724 1.41490556,10.0359883 1.41490556,10.2377846 L1.41490556,16.2198615 C1.41490556,17.5324271 2.46635828,18.5963231 3.76357222,18.5963231 L21.7490722,18.5963231 C23.0462862,18.5963231 24.0977389,17.5324271 24.0977389,16.2198615 L24.0977389,10.2377846 C24.0977389,10.0359883 23.9360639,9.8724 23.7366278,9.8724 L18.8320167,9.8724 C18.6325805,9.8724 18.4709056,10.0359883 18.4709056,10.2377846 C18.4709056,10.439581 18.6325805,10.6031692 18.8320167,10.6031692 L23.7366278,10.6031692 Z" id="Stroke-1"></path>
                    <path d="M7.99478333,7.73731154 L8.34732006,8.02354582 L6.68259784,0.432315048 L6.33006111,0.87685 L18.9003389,0.87685 L18.5530337,0.411399309 L16.4167004,8.00263008 L16.7640056,7.73731154 L7.99478333,7.73731154 Z M17.1113107,8.20276223 L19.247644,0.61153146 C19.3133116,0.378188727 19.1401197,0.146080769 18.9003389,0.146080769 L6.33006111,0.146080769 C6.09908781,0.146080769 5.92749049,0.362458247 5.97752438,0.590615721 L7.6422466,8.18184649 C7.67891963,8.34907762 7.82548831,8.46808077 7.99478333,8.46808077 L16.7640056,8.46808077 C16.9253538,8.46808077 17.0671231,8.35977823 17.1113107,8.20276223 Z" id="Stroke-3"></path>
                    <path d="M0.90285,7.73066154 C0.483858285,7.73066154 0.144516667,8.07401903 0.144516667,8.49796923 L0.144516667,9.83600769 C0.144516667,10.2598925 0.483792715,10.6040462 0.90285,10.6040462 L6.46251667,10.6040462 L6.10140556,10.2386615 L6.10140556,11.4115462 C6.10140556,11.6133425 6.26308051,11.7769308 6.46251667,11.7769308 L18.8341833,11.7769308 C19.0336195,11.7769308 19.1952944,11.6133425 19.1952944,11.4115462 L19.1952944,10.2386615 L18.8341833,10.6040462 L24.8380167,10.6040462 C25.257074,10.6040462 25.59635,10.2598925 25.59635,9.83600769 L25.59635,8.49796923 C25.59635,8.07401903 25.2570084,7.73066154 24.8380167,7.73066154 L0.90285,7.73066154 Z M24.8741278,8.49796923 L24.8741278,9.83600769 C24.8741278,9.8567097 24.8577954,9.87327692 24.8380167,9.87327692 L18.8341833,9.87327692 C18.6347472,9.87327692 18.4730722,10.0368652 18.4730722,10.2386615 L18.4730722,11.4115462 L18.8341833,11.0461615 L6.46251667,11.0461615 L6.82362778,11.4115462 L6.82362778,10.2386615 C6.82362778,10.0368652 6.66195283,9.87327692 6.46251667,9.87327692 L0.90285,9.87327692 C0.883071306,9.87327692 0.866738889,9.8567097 0.866738889,9.83600769 L0.866738889,8.49796923 C0.866738889,8.47761174 0.882730604,8.46143077 0.90285,8.46143077 L24.8380167,8.46143077 C24.8581361,8.46143077 24.8741278,8.47761174 24.8741278,8.49796923 Z" id="Stroke-5"></path>
                    <path d="M14.1513701,4.06536268 C14.2251726,3.87789194 14.1348038,3.6653801 13.9495257,3.5907042 C13.7642476,3.5160283 13.5542213,3.60746659 13.4804188,3.79493732 L11.8575854,7.91720655 C11.7837829,8.10467729 11.8741518,8.31718913 12.0594299,8.39186503 C12.244708,8.46654093 12.4547343,8.37510264 12.5285368,8.18763191 L14.1513701,4.06536268 Z" id="Stroke-7"></path>
                    <path d="M11.5826774,4.22427299 C11.487181,4.04711463 11.2678304,3.98183067 11.0927441,4.07845718 C10.9176577,4.1750837 10.8531373,4.39703019 10.9486337,4.57418855 L12.1410226,6.78622701 C12.236519,6.96338537 12.4558696,7.02866933 12.6309559,6.93204282 C12.8060423,6.8354163 12.8705627,6.61346981 12.7750663,6.43631145 L11.5826774,4.22427299 Z" id="Stroke-9"></path>
                </g>
            </g>
        </g>
    </g>
</svg>