<?xml version="1.0" encoding="UTF-8" standalone="no"?>
<svg width="52px" height="51px" viewBox="0 0 52 51" version="1.1" xmlns="http://www.w3.org/2000/svg" xmlns:xlink="http://www.w3.org/1999/xlink">
    <!-- Generator: Sketch 39.1 (31720) - http://www.bohemiancoding.com/sketch -->
    <title>ico_utensilios_grey</title>
    <desc>Created with Sketch.</desc>
    <defs></defs>
    <g id="supermercado_categoria" stroke="none" stroke-width="1" fill="none" fill-rule="evenodd">
        <g id="Subcategorias_bebes" transform="translate(-386.000000, -14.000000)" fill="#D4D4D4">
            <g id="icon01-copy-7" transform="translate(386.000000, 14.000000)">
                <g id="cuidado_oral_nino_red-" transform="translate(18.000000, 12.000000)">
                    <path d="M1.15732857,22.23272 L7.19803764,11.7046461 C7.23892655,11.6334931 7.32976629,11.6088907 7.40075001,11.6496823 L10.0683281,13.1804895 C10.1395069,13.2213932 10.1641093,13.312233 10.1233177,13.3832167 L4.08315129,23.9115066 C3.61942237,24.7193766 2.58857257,24.9986089 1.78091996,24.5350048 C0.972956709,24.0712224 0.693724483,23.0403726 1.15732857,22.23272 Z M4.8926619,24.3760533 L10.9327154,13.8479601 C11.2303108,13.3300975 11.0512239,12.6688536 10.5331167,12.3711177 L7.86553861,10.8403105 C7.34763084,10.5426892 6.68638688,10.7217761 6.38865107,11.2398833 L0.347829023,21.7681539 C-0.372392571,23.0228643 0.0613467147,24.6241123 1.31628004,25.3444619 C2.57106429,26.0647259 4.17231233,25.6309866 4.8926619,24.3760533 Z" id="Stroke-1"></path>
                    <path d="M8.33908184,11.1123446 L8.51163318,11.7493872 L13.9336332,2.30005385 L13.2966515,2.4725887 L15.0386515,3.47192203 L14.8661002,2.83487949 L9.44410016,12.2842128 L10.0810818,12.111678 L8.33908184,11.1123446 Z M10.2536332,12.7487205 L15.6756332,3.29938718 C15.8039121,3.07582571 15.7266556,2.7906022 15.5030818,2.66234464 L13.7610818,1.6630113 C13.5375383,1.53477107 13.2523617,1.61201488 13.1241002,1.83554615 L7.70210016,11.2848795 C7.57382123,11.508441 7.65107776,11.7936645 7.87465149,11.921922 L9.61665149,12.9212554 C9.84019501,13.0494956 10.1253716,12.9722518 10.2536332,12.7487205 Z" id="Stroke-3"></path>
                    <path d="M9.93502735,4.55961828 L10.1075851,5.19662142 L12.3055851,1.36528809 L11.668448,1.53777683 L13.296448,2.47244349 L13.1240323,1.83548151 L10.9260323,5.66614817 L11.5630273,5.49361828 L9.93502735,4.55961828 Z M11.7355677,6.13065183 L13.9335677,2.29998516 C14.0618144,2.07647728 13.9846281,1.79132519 13.761152,1.66302317 L12.133152,0.728356506 C11.9095858,0.600002746 11.6242965,0.677237588 11.4960149,0.900845243 L9.29801489,4.73217858 C9.16976386,4.95573291 9.2470202,5.24092742 9.47057265,5.36918172 L11.0985727,6.30318172 C11.3221179,6.43143185 11.607304,6.35418928 11.7355677,6.13065183 Z" id="Stroke-5"></path>
                    <path d="M9.55650382,15.3100519 C9.71617961,15.4016739 9.91989667,15.3465053 10.0115186,15.1868295 C10.1031405,15.0271537 10.047972,14.8234367 9.88829618,14.7318147 L6.15296285,12.5884814 C5.99328705,12.4968595 5.78956999,12.552028 5.69794806,12.7117038 C5.60632613,12.8713796 5.66149469,13.0750967 5.82117048,13.1667186 L9.55650382,15.3100519 Z" id="Stroke-7"></path>
                    <path d="M2.66945652,16.1840302 C2.50978928,16.0923934 2.30606707,16.1475429 2.21443022,16.3072102 C2.12279338,16.4668774 2.17794291,16.6705996 2.33761015,16.7622364 L3.40627682,17.3755698 C3.56594406,17.4672066 3.76966627,17.4120571 3.86130311,17.2523898 C3.95293995,17.0927226 3.89779042,16.8890004 3.73812318,16.7973636 L2.66945652,16.1840302 Z" id="Stroke-9"></path>
                    <path d="M11.0498667,2.44466667 C11.1372,2.21933333 11.3905333,2.10733333 11.6158667,2.19466667 C11.8412,2.282 11.9532,2.53533333 11.8658667,2.76066667 C11.7785333,2.986 11.5252,3.098 11.2998667,3.01066667 C11.0745333,2.92333333 10.9625333,2.67 11.0498667,2.44466667" id="Fill-11"></path>
                    <path d="M10.2152,3.89946667 C10.3025333,3.67413333 10.5558667,3.56213333 10.7812,3.64946667 C11.0065333,3.7368 11.1185333,3.99013333 11.0312,4.21546667 C10.9438667,4.4408 10.6905333,4.5528 10.4652,4.46546667 C10.2398667,4.37813333 10.1278667,4.1248 10.2152,3.89946667" id="Fill-13"></path>
                </g>
            </g>
        </g>
    </g>
</svg>