<?xml version="1.0" encoding="UTF-8" standalone="no"?>
<svg width="52px" height="51px" viewBox="0 0 52 51" version="1.1" xmlns="http://www.w3.org/2000/svg" xmlns:xlink="http://www.w3.org/1999/xlink">
    <!-- Generator: Sketch 39.1 (31720) - http://www.bohemiancoding.com/sketch -->
    <title>ico_alimentobebe_grey</title>
    <desc>Created with Sketch.</desc>
    <defs></defs>
    <g id="supermercado_categoria" stroke="none" stroke-width="1" fill="none" fill-rule="evenodd">
        <g id="Subcategorias_bebes" transform="translate(-76.000000, -14.000000)" fill="#D4D4D4">
            <g id="icon01-copy-2" transform="translate(76.000000, 14.000000)">
                <g id="alimentos_bebes_red" transform="translate(15.000000, 14.000000)">
                    <path d="M1.3354,6.05152 C1.20544233,6.05152 1.09968571,5.94384054 1.09968571,5.81152 L1.09968571,4.43872 C1.09968571,4.30639946 1.20544233,4.19872 1.3354,4.19872 L20.2915429,4.19872 C20.4215005,4.19872 20.5272571,4.30639946 20.5272571,4.43872 L20.5272571,5.81152 C20.5272571,5.94384054 20.4215005,6.05152 20.2915429,6.05152 L1.3354,6.05152 Z M21.6272571,5.81152 L21.6272571,4.43872 C21.6272571,3.68784054 21.0290138,3.07872 20.2915429,3.07872 L1.3354,3.07872 C0.597929102,3.07872 -0.000314285714,3.68784054 -0.000314285714,4.43872 L-0.000314285714,5.81152 C-0.000314285714,6.56239946 0.597929102,7.17152 1.3354,7.17152 L20.2915429,7.17152 C21.0290138,7.17152 21.6272571,6.56239946 21.6272571,5.81152 Z" id="Stroke-1"></path>
                    <path d="M4.57991117,0.764659791 L4.06795714,1.12 L17.5115286,1.12 L17.0239762,0.819172086 L17.5904762,1.92397209 C17.7310569,2.19813562 18.0633048,2.30435378 18.3325726,2.16121699 C18.6018403,2.0180802 18.7061618,1.67979145 18.565581,1.40562791 L17.999081,0.300827914 C17.9042706,0.115926733 17.7163879,-2.27373675e-13 17.5115286,-2.27373675e-13 L4.06795714,-2.27373675e-13 C3.84178027,-2.27373675e-13 3.6386626,0.140981169 3.55600311,0.355340209 L3.03743168,1.70014021 C2.9264196,1.98802542 3.06563616,2.3130318 3.34838056,2.42606229 C3.63112497,2.53909277 3.95032766,2.397345 4.06133974,2.10945979 L4.57991117,0.764659791 Z" id="Stroke-3"></path>
                    <path d="M4.24034286,22.28496 C3.67588518,22.28496 3.21891429,21.8196805 3.21891429,21.24496 L3.21891429,6.61136 L2.66891429,7.17136 L18.8954857,7.17136 L18.3454857,6.61136 L18.3454857,21.24496 C18.3454857,21.8196805 17.8885148,22.28496 17.3240571,22.28496 L4.24034286,22.28496 Z M19.4454857,21.24496 L19.4454857,6.61136 C19.4454857,6.30208054 19.1992423,6.05136 18.8954857,6.05136 L2.66891429,6.05136 C2.36515767,6.05136 2.11891429,6.30208054 2.11891429,6.61136 L2.11891429,21.24496 C2.11891429,22.4382395 3.06837196,23.40496 4.24034286,23.40496 L17.3240571,23.40496 C18.496028,23.40496 19.4454857,22.4382395 19.4454857,21.24496 Z" id="Stroke-5"></path>
                    <path d="M10.8136286,18.23168 C8.80309758,18.23168 7.17341429,16.5723661 7.17341429,14.52528 C7.17341429,12.4781939 8.80309758,10.81888 10.8136286,10.81888 C12.8241596,10.81888 14.4538429,12.4781939 14.4538429,14.52528 C14.4538429,16.5723661 12.8241596,18.23168 10.8136286,18.23168 Z M10.8136286,10.01888 C8.36915956,10.01888 6.3877,12.0363661 6.3877,14.52528 C6.3877,17.0141939 8.36915956,19.03168 10.8136286,19.03168 C13.2580976,19.03168 15.2395571,17.0141939 15.2395571,14.52528 C15.2395571,12.0363661 13.2580976,10.01888 10.8136286,10.01888 Z" id="Stroke-7"></path>
                </g>
            </g>
        </g>
    </g>
</svg>