<?xml version="1.0" encoding="UTF-8" standalone="no"?>
<svg width="52px" height="51px" viewBox="0 0 52 51" version="1.1" xmlns="http://www.w3.org/2000/svg" xmlns:xlink="http://www.w3.org/1999/xlink">
    <!-- Generator: Sketch 39.1 (31720) - http://www.bohemiancoding.com/sketch -->
    <title>ico_banobebes_green</title>
    <desc>Created with Sketch.</desc>
    <defs></defs>
    <g id="supermercado_categoria" stroke="none" stroke-width="1" fill="none" fill-rule="evenodd">
        <g id="Subcategorias_bebes" transform="translate(-138.000000, -136.000000)" fill="#44D481">
            <g id="icon01-copy-13" transform="translate(138.000000, 136.000000)">
                <g id="bano_bebe_blue" transform="translate(12.000000, 15.000000)">
                    <path d="M17.17512,1.10031429 C16.68792,1.10031429 16.29112,1.48924286 16.29112,1.96774286 C16.29112,2.44702857 16.68792,2.83595714 17.17512,2.83595714 C17.66232,2.83595714 18.05832,2.44702857 18.05832,1.96774286 C18.05832,1.48924286 17.66232,1.10031429 17.17512,1.10031429 M17.17512,3.93674286 C16.06952,3.93674286 15.17032,3.0536 15.17032,1.96774286 C15.17032,0.883457143 16.06952,0.000314285714 17.17512,0.000314285714 C18.27992,0.000314285714 19.17912,0.883457143 19.17912,1.96774286 C19.17912,3.0536 18.27992,3.93674286 17.17512,3.93674286 M12.81272,4.31702857 C12.53352,4.31702857 12.30632,4.54017143 12.30632,4.81438571 C12.30632,5.0886 12.53352,5.31174286 12.81272,5.31174286 C13.09192,5.31174286 13.31912,5.0886 13.31912,4.81438571 C13.31912,4.54017143 13.09192,4.31702857 12.81272,4.31702857 M12.81272,6.41174286 C11.91592,6.41174286 11.18632,5.69517143 11.18632,4.81438571 C11.18632,3.9336 11.91592,3.21702857 12.81272,3.21702857 C13.70952,3.21702857 14.43912,3.9336 14.43912,4.81438571 C14.43912,5.69517143 13.70952,6.41174286 12.81272,6.41174286 M18.51832,7.0246 C17.92712,7.0246 17.44792,7.49602857 17.44792,8.07588571 C17.44792,8.65574286 17.92712,9.12717143 18.51832,9.12717143 C19.10872,9.12717143 19.58952,8.65574286 19.58952,8.07588571 C19.58952,7.49602857 19.10872,7.0246 18.51832,7.0246 M18.51832,10.2279571 C17.31032,10.2279571 16.32712,9.26231429 16.32712,8.07588571 C16.32712,6.88945714 17.31032,5.9246 18.51832,5.9246 C19.72632,5.9246 20.70952,6.88945714 20.70952,8.07588571 C20.70952,9.26231429 19.72632,10.2279571 18.51832,10.2279571 M7.37112,11.9211714 C8.41352,11.9211714 9.49352,11.9918857 10.50152,12.1843857 C11.16232,12.3108857 11.91112,12.4696 12.72392,12.6424571 C16.27992,13.3998857 21.15432,14.4393857 25.23112,14.0449571 C25.25272,14.0426 25.27192,14.0410286 25.29352,14.0410286 C25.31912,14.0410286 25.34392,14.0433857 25.36792,14.0465286 C25.39192,14.0481 25.41672,14.0504571 25.41912,14.0504571 C25.83192,14.0504571 26.21832,13.8186714 26.41272,13.4462429 C26.55112,13.1822429 26.57592,12.8813143 26.48392,12.5976714 C26.39112,12.3148143 26.19192,12.0846 25.92392,11.9502429 C25.62792,11.8017429 25.27512,11.7263143 24.87272,11.7263143 C24.48872,11.7263143 24.18872,11.7978143 24.15592,11.8056714 C22.90872,12.1144571 21.71512,12.2645286 20.50552,12.2645286 C17.94792,12.2645286 15.75592,11.5888143 13.43352,10.8730286 C11.13752,10.1658857 8.77272,9.43674286 6.04952,9.43674286 C5.05672,9.43674286 4.09272,9.53024286 3.10552,9.72431429 C2.73592,9.79581429 2.17752,9.90424286 1.50152,10.4919571 C1.03352,10.8981714 0.98952,11.6021714 1.40232,12.0618143 C1.57992,12.2590286 1.82072,12.3855286 2.08552,12.4232429 C2.57032,12.3305286 4.85832,11.9211714 7.37112,11.9211714 M2.82392,13.4124571 C3.88632,16.8515286 5.53192,20.3094571 10.27752,20.3094571 L18.62472,20.3094571 C21.85672,20.3094571 23.61352,17.3944571 24.47752,15.2023143 C20.43192,15.4066 15.87272,14.4386 12.48632,13.7181 C11.68232,13.5468143 10.94152,13.3888857 10.28792,13.2639571 C7.58072,12.7477429 4.18312,13.1924571 2.82392,13.4124571 M18.62472,21.4102429 L10.27752,21.4102429 C4.23032,21.4102429 2.54232,16.4138857 1.66792,13.4603857 C1.24232,13.3496 0.85832,13.1186 0.56312,12.7893857 C-0.25848,11.8756 -0.17128,10.4754571 0.75912,9.66774286 C1.66232,8.8836 2.45912,8.72802857 2.88792,8.64552857 C3.94792,8.43731429 4.98232,8.33674286 6.04952,8.33674286 C8.94392,8.33674286 11.39192,9.09102857 13.75992,9.82017143 C16.00632,10.5131714 18.11992,11.1645286 20.50552,11.1645286 C21.62152,11.1645286 22.72552,11.0254571 23.88312,10.7386714 C23.99112,10.7119571 24.37832,10.6263143 24.87272,10.6263143 C25.45512,10.6263143 25.97992,10.7418143 26.43352,10.9712429 C26.96872,11.2399571 27.36472,11.6980286 27.54952,12.2613857 L27.54952,12.2613857 C27.73432,12.8255286 27.68472,13.4250286 27.40872,13.9491 C27.06712,14.6036 26.42712,15.0396714 25.69752,15.1323857 C24.79912,17.6364571 22.75832,21.4102429 18.62472,21.4102429" id="Fill-1"></path>
                </g>
            </g>
        </g>
    </g>
</svg>