<?xml version="1.0" encoding="UTF-8" standalone="no"?>
<svg width="52px" height="51px" viewBox="0 0 52 51" version="1.1" xmlns="http://www.w3.org/2000/svg" xmlns:xlink="http://www.w3.org/1999/xlink">
    <!-- Generator: Sketch 39.1 (31720) - http://www.bohemiancoding.com/sketch -->
    <title>ico_otrosnino_grey </title>
    <desc>Created with Sketch.</desc>
    <defs></defs>
    <g id="supermercado_categoria" stroke="none" stroke-width="1" fill="none" fill-rule="evenodd">
        <g id="Subcategorias_bebes" transform="translate(-262.000000, -75.000000)" fill="#D4D4D4">
            <g id="icon01-copy-22" transform="translate(262.000000, 75.000000)">
                <g id="otros_nino_yellow" transform="translate(18.000000, 12.000000)">
                    <path d="M7.86207143,13.8961184 C4.86212856,13.8961184 2.39564286,11.0238569 2.39564286,7.44525 C2.39564286,3.86664313 4.86212856,0.994381579 7.86207143,0.994381579 C10.8613998,0.994381579 13.3277857,3.86676441 13.3277857,7.44525 C13.3277857,11.0237356 10.8613998,13.8961184 7.86207143,13.8961184 Z M7.86207143,-0.000355263158 C4.27181116,-0.000355263158 1.39564286,3.34898815 1.39564286,7.44525 C1.39564286,11.5415118 4.27181116,14.8908553 7.86207143,14.8908553 C11.4517385,14.8908553 14.3277857,11.5413759 14.3277857,7.44525 C14.3277857,3.34912415 11.4517385,-0.000355263158 7.86207143,-0.000355263158 Z" id="Stroke-1"></path>
                    <path d="M5.66935553,16.6009073 C5.43387414,16.9301959 5.67054329,17.3865789 6.07678571,17.3865789 L9.70107143,17.3865789 C10.1105706,17.3865789 10.3464292,16.9237117 10.1043396,16.595174 L8.26505389,14.0990951 C8.06351753,13.8255918 7.65196224,13.8285023 7.45435553,14.1048283 L5.66935553,16.6009073 Z M7.45851754,14.6871681 L9.29780325,17.183247 L9.70107143,16.3918421 L6.07678571,16.3918421 L6.4842159,17.1775138 L8.2692159,14.6814348 L7.45851754,14.6871681 Z" id="Stroke-3"></path>
                    <path d="M7.33686006,16.9808545 C7.18957038,17.5666304 7.21717562,18.204502 7.54739623,18.8129888 C8.02977763,19.7018572 9.06908935,20.3211052 10.7346434,20.5972857 C12.1255737,20.8279283 12.9073608,21.2966039 13.2451569,21.9064052 C13.4550168,22.2852516 13.4806338,22.6966158 13.3955179,23.074236 C13.3801752,23.142305 13.366351,23.1866718 13.3606792,23.2013946 C13.3299725,23.3000059 13.2872509,23.4195706 13.2172239,23.5780129 C13.0988837,23.8457683 12.9487513,24.1136241 12.7659856,24.3611782 C11.9773929,25.4293179 10.8906211,25.7895711 9.2978999,25.0579777 C9.2384152,25.033764 9.16798571,25.0038174 9.06591761,24.9566191 C8.89136395,24.875902 8.69569918,24.7770197 8.48427481,24.65958 C7.87814813,24.3228953 7.27154586,23.9069251 6.70691515,23.4094057 C5.51672398,22.3606792 4.67767149,21.0980401 4.33345194,19.6073918 C3.97843527,18.0697203 3.38317606,17.1447679 2.57082064,16.7740873 C1.92764617,16.4806045 1.26299789,16.570574 0.643977105,16.8818648 C0.437568722,16.9856626 0.280830216,17.0911173 0.184096357,17.1694324 C-0.0300771649,17.3428259 -0.0623921485,17.6560973 0.111918821,17.8691436 C0.28622979,18.0821899 0.601158693,18.1143348 0.815332215,17.9409413 C0.86030501,17.9045316 0.959341818,17.837899 1.09513941,17.7696096 C1.4684464,17.5818824 1.83421105,17.5323711 2.15387715,17.6782358 C2.63843213,17.89934 3.06671157,18.5648283 3.35882955,19.8300689 C3.75397714,21.5412618 4.70806762,22.9770147 6.04384256,24.154021 C6.6661086,24.7023253 7.33118142,25.158391 7.99672983,25.5280826 C8.39883946,25.7514421 8.71549091,25.8978681 8.90471301,25.9721629 C10.9315063,26.9040201 12.5174871,26.3782845 13.5719803,24.9499856 C13.9652199,24.417347 14.1987904,23.8888727 14.3074939,23.5188985 C14.3167085,23.4996043 14.3447594,23.4095783 14.3712916,23.2918669 C14.5052547,22.6975337 14.4647359,22.0468733 14.1209919,21.4263347 C13.6206837,20.5231608 12.5697144,19.8931124 10.8990709,19.616088 C9.5146062,19.3865175 8.74677552,18.9290247 8.42736222,18.3404523 C8.23203691,17.9805327 8.2150424,17.5878422 8.30697508,17.2222229 C8.32544995,17.1487477 8.34223956,17.1002202 8.34935791,17.0835136 C8.45711799,16.8306031 8.33836554,16.5386816 8.08411688,16.4314887 C7.82986823,16.3242958 7.53640217,16.4424232 7.42864209,16.6953337 C7.40221923,16.7573476 7.36869702,16.8542378 7.33686006,16.9808545 Z" id="Stroke-5"></path>
                    <path d="M9.3188449,3.78321904 C9.5777339,3.83839505 9.83650658,3.93766724 10.0757236,4.09061742 C10.8192654,4.56602194 11.2487595,5.45874012 11.1812107,6.96558546 C11.1689091,7.24000175 11.3825722,7.47237999 11.6584404,7.48461677 C11.9343086,7.49685355 12.1679164,7.28431505 12.1802179,7.00989876 C12.2631352,5.16022096 11.6700655,3.92750518 10.6164241,3.25382973 C10.0194936,2.87216523 9.42704986,2.7459 9.00428571,2.7459 C8.72814334,2.7459 8.50428571,2.96857943 8.50428571,3.24326842 C8.50428571,3.51795742 8.72814334,3.74063684 9.00428571,3.74063684 C9.05492286,3.74063684 9.16713972,3.7508867 9.3188449,3.78321904 Z" id="Stroke-7"></path>
                </g>
            </g>
        </g>
    </g>
</svg>