<?xml version="1.0" encoding="UTF-8" standalone="no"?>
<svg width="52px" height="51px" viewBox="0 0 52 51" version="1.1" xmlns="http://www.w3.org/2000/svg" xmlns:xlink="http://www.w3.org/1999/xlink">
    <!-- Generator: Sketch 39.1 (31720) - http://www.bohemiancoding.com/sketch -->
    <title>ico_protectoreslactancia_green</title>
    <desc>Created with Sketch.</desc>
    <defs></defs>
    <g id="supermercado_categoria" stroke="none" stroke-width="1" fill="none" fill-rule="evenodd">
        <g id="Subcategorias_bebes" transform="translate(-14.000000, -197.000000)" fill="#44D481">
            <g id="icon01-copy-18" transform="translate(14.000000, 197.000000)">
                <g id="protectores_lactancia_lgreen" transform="translate(14.000000, 12.000000)">
                    <path d="M12.7065824,24.3433412 C6.28033938,24.3433412 1.07081765,19.1335934 1.07081765,12.7068118 C1.07081765,6.28003018 6.28033938,1.07028235 12.7065824,1.07028235 C19.133477,1.07028235 24.3431118,6.27991713 24.3431118,12.7068118 C24.3431118,19.1337064 19.133477,24.3433412 12.7065824,24.3433412 Z M12.7065824,-0.000305882353 C5.68905943,-0.000305882353 0.000229411765,5.68877102 0.000229411765,12.7068118 C0.000229411765,19.7248525 5.68905943,25.4139294 12.7065824,25.4139294 C19.7247465,25.4139294 25.4137,19.724976 25.4137,12.7068118 C25.4137,5.68864758 19.7247465,-0.000305882353 12.7065824,-0.000305882353 Z" id="Stroke-1"></path>
                    <path d="M13.5404176,4.7853 C13.5404176,5.24565294 13.1672412,5.61882941 12.7068882,5.61882941 C12.2465353,5.61882941 11.8733588,5.24565294 11.8733588,4.7853 C11.8733588,4.32494706 12.2465353,3.95177059 12.7068882,3.95177059 C13.1672412,3.95177059 13.5404176,4.32494706 13.5404176,4.7853" id="Fill-3"></path>
                    <path d="M13.5404176,20.6848353 C13.5404176,21.1451882 13.1672412,21.5183647 12.7068882,21.5183647 C12.2465353,21.5183647 11.8733588,21.1451882 11.8733588,20.6848353 C11.8733588,20.2244824 12.2465353,19.8513059 12.7068882,19.8513059 C13.1672412,19.8513059 13.5404176,20.2244824 13.5404176,20.6848353" id="Fill-5"></path>
                    <path d="M5.57470588,12.7068118 C5.57470588,13.1671647 5.20152941,13.5403412 4.74117647,13.5403412 C4.28082353,13.5403412 3.90764706,13.1671647 3.90764706,12.7068118 C3.90764706,12.2464588 4.28082353,11.8732824 4.74117647,11.8732824 C5.20152941,11.8732824 5.57470588,12.2464588 5.57470588,12.7068118" id="Fill-7"></path>
                    <path d="M21.4508412,12.9028824 C21.3422529,13.3502353 20.8918412,13.6255294 20.4444882,13.5169412 C19.9971353,13.4083529 19.7226059,12.9579412 19.8304294,12.5105882 C19.9390176,12.0632353 20.3894294,11.7887059 20.8367824,11.8965294 C21.2841353,12.0051176 21.5594294,12.4555294 21.4508412,12.9028824" id="Fill-9"></path>
                    <path d="M6.23954118,9.49619412 C5.84036471,9.72484118 5.33107059,9.58642941 5.10165882,9.18725294 C4.87301176,8.78731176 5.01142353,8.27801765 5.41136471,8.04937059 C5.81054118,7.82072353 6.31983529,7.95913529 6.54848235,8.35831176 C6.77712941,8.75825294 6.63871765,9.26754706 6.23954118,9.49619412" id="Fill-11"></path>
                    <path d="M9.17211176,20.3624353 C8.77293529,20.5910824 8.26364118,20.4526706 8.03422941,20.0534941 C7.80558235,19.6535529 7.94399412,19.1442588 8.34393529,18.9156118 C8.74311176,18.6869647 9.25240588,18.8253765 9.48105294,19.2245529 C9.7097,19.6244941 9.57128824,20.1337882 9.17211176,20.3624353" id="Fill-13"></path>
                    <path d="M20.0645059,17.4560176 C19.6653294,17.6846647 19.1560353,17.5462529 18.9266235,17.1470765 C18.6979765,16.7471353 18.8363882,16.2378412 19.2363294,16.0091941 C19.6355059,15.7805471 20.1448,15.9189588 20.3734471,16.3189 C20.6020941,16.7180765 20.4636824,17.2273706 20.0645059,17.4560176" id="Fill-15"></path>
                    <path d="M6.21392353,17.4481412 C5.81474706,17.6767882 5.30545294,17.5383765 5.07604118,17.1392 C4.84739412,16.7392588 4.98580588,16.2299647 5.38574706,16.0013176 C5.78492353,15.7726706 6.29421765,15.9110824 6.52286471,16.3102588 C6.75151176,16.7102 6.6131,17.2194941 6.21392353,17.4481412" id="Fill-17"></path>
                    <path d="M9.17983529,6.57142353 C8.78065882,6.80007059 8.27136471,6.66165882 8.04271765,6.26248235 C7.81330588,5.86254118 7.95171765,5.35324706 8.35165882,5.1246 C8.75083529,4.89595294 9.26012941,5.03436471 9.48877647,5.43354118 C9.71742353,5.83348235 9.57901176,6.34277647 9.17983529,6.57142353" id="Fill-19"></path>
                    <path d="M16.8976294,20.4467059 C16.4556294,20.5751765 15.9929824,20.3205294 15.8645118,19.8785294 C15.7368059,19.4365294 15.9906882,18.9738824 16.4326882,18.8454118 C16.8746882,18.7177059 17.3373353,18.9715882 17.4658059,19.4135882 C17.5942765,19.8555882 17.3396294,20.3182353 16.8976294,20.4467059" id="Fill-21"></path>
                    <path d="M12.7301353,16.3853529 C10.7415196,16.3853529 9.12760588,14.7613445 9.12760588,12.7568235 C9.12760588,10.7523025 10.7415196,9.12829412 12.7301353,9.12829412 C13.0257701,9.12829412 13.2654294,8.88863478 13.2654294,8.593 C13.2654294,8.29736522 13.0257701,8.05770588 12.7301353,8.05770588 C10.1487506,8.05770588 8.05701765,10.1625221 8.05701765,12.7568235 C8.05701765,15.3511249 10.1487506,17.4559412 12.7301353,17.4559412 C15.31152,17.4559412 17.4032529,15.3511249 17.4032529,12.7568235 C17.4032529,12.4611888 17.1635936,12.2215294 16.8679588,12.2215294 C16.572324,12.2215294 16.3326647,12.4611888 16.3326647,12.7568235 C16.3326647,14.7613445 14.718751,16.3853529 12.7301353,16.3853529 Z" id="Stroke-23"></path>
                </g>
            </g>
        </g>
    </g>
</svg>