<?xml version="1.0" encoding="UTF-8" standalone="no"?>
<svg width="52px" height="51px" viewBox="0 0 52 51" version="1.1" xmlns="http://www.w3.org/2000/svg" xmlns:xlink="http://www.w3.org/1999/xlink">
    <!-- Generator: Sketch 39.1 (31720) - http://www.bohemiancoding.com/sketch -->
    <title>ico_huevos_grey</title>
    <desc>Created with Sketch.</desc>
    <defs></defs>
    <g id="supermercado_categoria" stroke="none" stroke-width="1" fill="none" fill-rule="evenodd">
        <g id="Subcategorias_lacteos-y-refrigerados" transform="translate(-15.000000, -75.000000)" fill="#D4D4D4">
            <g id="icon01-copy-7" transform="translate(15.000000, 75.000000)">
                <g id="huevos_red" transform="translate(17.000000, 12.000000)">
                    <path d="M1.797408,14.5489436 C1.520208,14.5489436 1.278288,14.6638154 1.150128,14.8569436 C1.002528,15.0421744 0.975168,15.3049436 1.062288,15.4772513 C2.313648,18.5924308 5.272848,20.5811487 8.617968,20.5811487 C12.017088,20.5811487 14.929488,18.6383795 16.217568,15.5109949 C16.360128,15.2252513 16.213968,14.9596103 16.145568,14.8569436 C16.009488,14.6896615 15.732288,14.5489436 15.497568,14.5489436 L1.797408,14.5489436 Z M8.617968,21.5862769 C4.858128,21.5862769 1.531728,19.3498667 0.142848,15.8886359 C-0.101952,15.4033026 -0.029232,14.7198154 0.337248,14.2646359 C0.626688,13.8266872 1.182528,13.5438154 1.797408,13.5438154 L15.497568,13.5438154 C16.033968,13.5438154 16.607088,13.8266872 16.959168,14.2646359 C17.329968,14.8174564 17.386128,15.425559 17.134848,15.9266872 C15.725808,19.3513026 12.376368,21.5862769 8.617968,21.5862769 L8.617968,21.5862769 Z" id="Fill-1"></path>
                    <path d="M15.554736,13.3178051 C15.526656,13.3178051 15.498576,13.3156513 15.470496,13.3106256 C15.195456,13.2646769 15.010416,13.0047795 15.057216,12.731241 C15.181776,11.9931897 15.245136,11.2278564 15.245136,10.4560615 C15.245136,5.24518974 12.305376,1.00570256 8.692416,1.00570256 C5.078016,1.00570256 2.138256,5.24518974 2.138256,10.4560615 C2.138256,11.2063179 2.198016,11.9515487 2.316096,12.6702154 C2.361456,12.9437538 2.175696,13.2022154 1.900656,13.2474462 C1.631376,13.291959 1.367136,13.1074462 1.321776,12.8331897 C1.195056,12.0606769 1.130256,11.2608821 1.130256,10.4560615 C1.130256,4.69093333 4.522896,-0.000143589744 8.692416,-0.000143589744 C12.861936,-0.000143589744 16.253856,4.69093333 16.253856,10.4560615 C16.253856,11.2838564 16.185456,12.1059077 16.050816,12.899241 C16.009776,13.1440615 15.795936,13.3178051 15.554736,13.3178051" id="Fill-4"></path>
                    <path d="M8.76888,27.2417026 C8.49024,27.2417026 8.26488,27.0169846 8.26488,26.7391385 L8.26488,21.1391385 C8.26488,20.8612923 8.49024,20.6365744 8.76888,20.6365744 C9.04752,20.6365744 9.27288,20.8612923 9.27288,21.1391385 L9.27288,26.7391385 C9.27288,27.0169846 9.04752,27.2417026 8.76888,27.2417026" id="Fill-6"></path>
                    <path d="M13.110696,27.5151692 L4.570056,27.5151692 C4.291416,27.5151692 4.065336,27.2904513 4.065336,27.0126051 C4.065336,26.734759 4.291416,26.510041 4.570056,26.510041 L13.110696,26.510041 C13.389336,26.510041 13.614696,26.734759 13.614696,27.0126051 C13.614696,27.2904513 13.389336,27.5151692 13.110696,27.5151692" id="Fill-8"></path>
                </g>
            </g>
        </g>
    </g>
</svg>