<?xml version="1.0" encoding="UTF-8" standalone="no"?>
<svg width="52px" height="51px" viewBox="0 0 52 51" version="1.1" xmlns="http://www.w3.org/2000/svg" xmlns:xlink="http://www.w3.org/1999/xlink">
    <!-- Generator: Sketch 39.1 (31720) - http://www.bohemiancoding.com/sketch -->
    <title>ico_mantequillas_green</title>
    <desc>Created with Sketch.</desc>
    <defs></defs>
    <g id="supermercado_categoria" stroke="none" stroke-width="1" fill="none" fill-rule="evenodd">
        <g id="Subcategorias_lacteos-y-refrigerados" transform="translate(-325.000000, -136.000000)" fill="#44D481">
            <g id="icon01-copy-19" transform="translate(325.000000, 136.000000)">
                <g id="mantequilla_yellow" transform="translate(10.000000, 20.000000)">
                    <path d="M5.22371167,13.0894066 C5.32488931,13.2373393 5.49219751,13.3257444 5.670985,13.3257444 L25.128135,13.3257444 C25.3067221,13.3257444 25.4738696,13.2375361 25.5750875,13.0898751 C25.5960188,13.0593397 25.6179866,13.028338 25.640967,12.9968962 C25.8266051,12.7429058 26.0730521,12.4670146 26.364778,12.1801974 C26.6233032,11.9260224 26.901969,11.678062 27.1807488,11.4473514 C27.3475593,11.3093036 27.4761343,11.2086146 27.5468763,11.1555742 C27.7869022,10.9756094 27.8361124,10.6344422 27.6567903,10.393556 C27.4774683,10.1526698 27.1375196,10.1032833 26.8974937,10.283248 C26.8136043,10.346146 26.6715743,10.4573719 26.4904641,10.6072537 C26.1893761,10.8564259 25.8881741,11.1244394 25.6054892,11.4023675 C25.2748818,11.7274119 24.9907388,12.0455029 24.7660896,12.3528683 C24.7367237,12.3930468 24.7084142,12.4329982 24.6811825,12.4727249 L25.128135,12.2368556 L5.670985,12.2368556 L6.11825833,12.4731934 C5.46846801,11.5231293 4.69448227,10.7924307 3.87388991,10.2617552 C3.62203624,10.0988819 3.28630516,10.1717466 3.12401358,10.424503 C2.96172199,10.6772593 3.03432641,11.0141937 3.28618009,11.177067 C3.99025908,11.6323935 4.6589936,12.2637274 5.22371167,13.0894066 Z" id="Stroke-1"></path>
                    <path d="M5.89004041,3.96647225 C5.86886516,3.78941022 5.88739184,3.58416586 5.97229877,3.39951307 C6.14672629,3.02017383 6.57427415,2.78273333 7.4203925,2.78273333 C7.63440284,2.78273333 7.8078925,2.60862185 7.8078925,2.39384444 C7.8078925,2.17906704 7.63440284,2.00495556 7.4203925,2.00495556 C6.28909835,2.00495556 5.57855871,2.39955672 5.26861123,3.07362026 C5.11474253,3.40824884 5.08376317,3.75144793 5.12056276,4.05915669 C5.12578498,4.10282356 5.13148706,4.13676716 5.13631769,4.15970491 C5.18057162,4.36984025 5.38618647,4.50418511 5.59557132,4.45977257 C5.80495618,4.41536002 5.93882124,4.2090082 5.89456731,3.99887286 C5.89432748,3.99773406 5.89242387,3.98640217 5.89004041,3.96647225 Z" id="Stroke-3"></path>
                    <path d="M30.34745,9.97095556 C30.6470645,9.97095556 30.88995,9.72719947 30.88995,9.42651111 C30.88995,9.12582275 30.6470645,8.88206667 30.34745,8.88206667 L0.5425,8.88206667 C0.242885523,8.88206667 0,9.12582275 0,9.42651111 C0,9.72719947 0.242885523,9.97095556 0.5425,9.97095556 L30.34745,9.97095556 Z" id="Stroke-5"></path>
                    <path d="M4.19879498,2.26146667 C4.198795,1.62876293 4.73044694,1.09470491 5.36097208,1.09417759 L25.2781678,1.08873331 C25.9086267,1.08873333 26.441295,1.62297695 26.441295,2.2554 L26.442845,7.7 C26.4429306,8.00068835 26.6858855,8.24437478 26.9855,8.24428887 C27.2851145,8.24420296 27.5279306,8.00037724 27.527845,7.69968889 L27.526295,2.25524444 C27.526295,1.02144787 26.5077039,-0.000155555555 25.27802,-0.000155555555 L5.36037224,0.00528890908 C4.13064177,0.00631727185 3.113795,1.02776596 3.113795,2.26162222 L3.11534502,7.70622222 C3.11543063,8.00691057 3.35838554,8.250597 3.658,8.25051109 C3.95761446,8.25042518 4.20043058,8.00659946 4.20034498,7.70591111 L4.19879498,2.26146667 Z" id="Stroke-7"></path>
                </g>
            </g>
        </g>
    </g>
</svg>