<?xml version="1.0" encoding="UTF-8" standalone="no"?>
<svg width="52px" height="51px" viewBox="0 0 52 51" version="1.1" xmlns="http://www.w3.org/2000/svg" xmlns:xlink="http://www.w3.org/1999/xlink">
    <!-- Generator: Sketch 39.1 (31720) - http://www.bohemiancoding.com/sketch -->
    <title>ico_hielo_green</title>
    <desc>Created with Sketch.</desc>
    <defs></defs>
    <g id="supermercado_categoria" stroke="none" stroke-width="1" fill="none" fill-rule="evenodd">
        <g id="Subcategorias_lacteos-y-refrigerados" transform="translate(-325.000000, -197.000000)" fill="#44D481">
            <g id="icon01-copy-26" transform="translate(325.000000, 197.000000)">
                <g id="hielo_red" transform="translate(12.000000, 12.000000)">
                    <path d="M7.0113697,17.0682452 C6.65415758,17.0682452 6.2944,17.013729 5.94397576,16.9030194 C5.07852121,16.6296 4.36324848,16.0433419 3.92882424,15.2532774 L4.40652121,14.8884387 L3.8864,15.1719226 L0.395733333,8.51172903 C-0.0378424242,7.69482581 -0.1176,6.75714839 0.169187879,5.87482581 C0.446642424,4.99418065 1.05670303,4.27456774 1.88821818,3.85269677 L8.65064242,0.391341935 C8.66930909,0.381277419 8.68882424,0.372890323 8.70749091,0.365341935 C9.52203636,-0.038916129 10.4485818,-0.111045161 11.3259152,0.166567742 C12.2168242,0.440825806 12.9439758,1.04553548 13.3716121,1.86663226 L15.6039758,6.13147097 C15.7550061,6.4199871 15.6404606,6.77476129 15.3485818,6.9232129 C15.0550061,7.07334194 14.6994909,6.95843871 14.5484606,6.6716 L12.3152485,2.40508387 C12.0344,1.86411613 11.5558545,1.46740645 10.9678545,1.28624516 C10.3722182,1.09837419 9.75027879,1.1512129 9.20555152,1.43218065 C9.18688485,1.44224516 9.16821818,1.45063226 9.14955152,1.45818065 L2.43294545,4.89605161 C1.88567273,5.17366452 1.48433939,5.64669677 1.30106667,6.2296 C1.11100606,6.81418065 1.16361212,7.43147097 1.44870303,7.96992258 L4.92664242,14.6066323 C4.95294545,14.6494065 4.98349091,14.7072774 5.0064,14.7651484 C5.26009697,15.2163742 5.73355152,15.6038581 6.3054303,15.7850194 C6.87985455,15.9653419 7.49161212,15.9208903 8.02870303,15.6566968 L8.39015758,16.1314065 L8.11779394,15.6105677 L9.04433939,15.1366968 C9.33791515,14.9865677 9.69427879,15.1006323 9.84530909,15.3883097 C9.99633939,15.6759871 9.88179394,16.0307613 9.58991515,16.1792129 L8.66252121,16.6530839 C8.65997576,16.6547613 8.55900606,16.7076 8.55561212,16.7092774 C8.0694303,16.947471 7.54252121,17.0682452 7.0113697,17.0682452 L7.0113697,17.0682452 Z M16.2513697,8.45553548 C15.7448242,8.45637419 15.2306424,8.61237419 14.7919758,8.9076 C14.4025212,9.16927742 14.0928242,9.5232129 13.8951273,9.93250323 C13.8628848,9.99876129 13.8382788,10.0583097 13.8153697,10.1178581 L11.2817939,16.7193419 C11.2724606,16.7428258 11.252097,16.7889548 11.2402182,16.8107613 L10.8982788,17.7106968 C10.6513697,18.351471 10.6742788,19.0509548 10.9619152,19.6808258 C11.2504,20.3106968 11.7654303,20.7904387 12.4094303,21.0336645 L20.0975515,23.9171484 C20.7457939,24.1603742 21.4534303,24.1385677 22.0906424,23.8534065 C22.7278545,23.5682452 23.2148848,23.0599871 23.460097,22.4225677 L26.3763394,14.8230194 L26.3763394,14.8221806 C26.6232485,14.1830839 26.6003394,13.4836 26.3118545,12.853729 C26.0242182,12.2238581 25.5100364,11.7432774 24.8643394,11.5000516 L17.1762182,8.61740645 C16.9140364,8.51843871 16.6323394,8.46392258 16.3387636,8.45469677 C16.3260364,8.45218065 16.2649455,8.45469677 16.2530667,8.45553548 L16.2513697,8.45553548 Z M21.0164606,25.2599226 C20.5633697,25.2599226 20.1102788,25.177729 19.6758545,25.0141806 L11.9877333,22.1315355 C11.0467636,21.7776 10.2984,21.0789548 9.88009697,20.1639226 C9.46094545,19.2472129 9.42870303,18.2273419 9.78761212,17.2938581 L10.1541576,16.3394065 C10.1634909,16.3167613 10.1796121,16.2806968 10.1914909,16.2588903 L12.704703,9.70101935 C12.7394909,9.6096 12.7776727,9.52237419 12.8192485,9.4359871 C13.1111273,8.8296 13.5608242,8.31463226 14.1233697,7.93637419 C14.7588848,7.50863226 15.5055515,7.28218065 16.2802182,7.28218065 C16.2861576,7.28218065 16.3777939,7.28134194 16.3752485,7.28134194 C16.8020364,7.29392258 17.2135515,7.37443871 17.5996121,7.52037419 L25.2860364,10.4030194 C26.2278545,10.7569548 26.9762182,11.4556 27.3936727,12.3697935 C27.8145212,13.2865032 27.8467636,14.3055355 27.4870061,15.2390194 L24.5699152,22.8394065 C24.2118545,23.7695355 23.5050667,24.5092774 22.5810667,24.9236 C22.0796121,25.1475355 21.5476121,25.2599226 21.0164606,25.2599226 L21.0164606,25.2599226 Z" id="Fill-1"></path>
                    <path d="M3.69532121,9.46173548 C3.49168485,9.46173548 3.29398788,9.35857419 3.18283636,9.17321935 C2.63980606,8.26489677 2.49895758,7.42954194 2.76198788,6.6898 C3.13447273,5.64812258 4.18404848,5.24889677 4.2281697,5.23212258 C4.53532121,5.11973548 4.87810909,5.27154194 4.99265455,5.57599355 C5.10804848,5.87792903 4.95362424,6.21425161 4.64986667,6.32999355 C4.63204848,6.33670323 4.0601697,6.56986452 3.88029091,7.0881871 C3.74283636,7.48405806 3.85229091,7.98392903 4.20610909,8.57605806 C4.37326061,8.85450968 4.2782303,9.21515484 3.99653333,9.37954194 C3.90150303,9.43489677 3.79798788,9.46173548 3.69532121,9.46173548" id="Fill-4"></path>
                    <path d="M14.7454788,12.4651548 C14.6572364,12.4651548 14.5656,12.4450258 14.4807515,12.4030903 C14.1871758,12.2571548 14.0683879,11.9048968 14.2151758,11.6147032 C14.6928727,10.6711548 15.3275394,10.1008323 16.0988121,9.91967097 C17.1882667,9.66554194 18.0944485,10.3197355 18.1326303,10.3474129 C18.3956606,10.5411548 18.4499636,10.9085097 18.2548121,11.1685097 C18.0605091,11.427671 17.6905697,11.4813484 17.4266909,11.2926387 C17.4080242,11.2783806 16.9006303,10.9353484 16.3652364,11.063671 C15.9545697,11.1643161 15.5888727,11.5266387 15.2774788,12.1405742 C15.1731152,12.3460581 14.9635394,12.4651548 14.7454788,12.4651548" id="Fill-6"></path>
                </g>
            </g>
        </g>
    </g>
</svg>