<?xml version="1.0" encoding="UTF-8" standalone="no"?>
<svg width="52px" height="51px" viewBox="0 0 52 51" version="1.1" xmlns="http://www.w3.org/2000/svg" xmlns:xlink="http://www.w3.org/1999/xlink">
    <!-- Generator: Sketch 39.1 (31720) - http://www.bohemiancoding.com/sketch -->
    <title>ico_quesos_grey</title>
    <desc>Created with Sketch.</desc>
    <defs></defs>
    <g id="supermercado_categoria" stroke="none" stroke-width="1" fill="none" fill-rule="evenodd">
        <g id="Subcategorias_lacteos-y-refrigerados" transform="translate(-387.000000, -14.000000)" fill="#D4D4D4">
            <g id="icon01-copy-6" transform="translate(387.000000, 14.000000)">
                <g id="queso_lgreen" transform="translate(13.000000, 16.000000)">
                    <path d="M23.7542416,16.3187488 C24.1515915,16.43792 24.5148387,16.1639862 24.5148387,15.782637 L24.5148387,9.22582222 C24.5148387,8.91081536 24.2620962,8.65545185 23.9503226,8.65545185 L20.785,8.65545185 C20.5885074,8.65545185 20.406151,8.75868433 20.3035517,8.92800113 C20.0302116,9.37908659 19.5539254,9.65685926 19.0253226,9.65685926 C18.5000884,9.65685926 18.0228777,9.37845417 17.7481228,8.92704012 C17.6454004,8.75827048 17.4633534,8.65545185 17.2672581,8.65545185 L10.7366129,8.65545185 C10.2069057,8.65545185 9.96887816,9.3261067 10.3778747,9.66621546 C10.5539684,9.81264952 10.6527419,10.0099771 10.6527419,10.2215259 C10.6527419,10.628353 10.32493,10.960563 9.92451613,10.960563 C9.5196868,10.960563 9.19145161,10.6287814 9.19145161,10.2215259 C9.19145161,10.0116811 9.29123094,9.81305692 9.46812712,9.66470541 C9.87482217,9.32363629 9.63611947,8.65545185 9.10758065,8.65545185 L1.37129032,8.65545185 C1.05951667,8.65545185 0.806774194,8.91081536 0.806774194,9.22582222 L0.806774194,11.7142667 C0.806774194,12.1507043 1.27213274,12.4254368 1.64844636,12.2111624 C1.78676694,12.1324022 1.90000843,12.0964148 2.00516129,12.0964148 C2.41217064,12.0964148 2.74306452,12.4320277 2.74306452,12.8452296 C2.74306452,13.2591747 2.41224097,13.5948593 2.00516129,13.5948593 C1.90005447,13.5948593 1.78716687,13.5588753 1.65002364,13.4801983 C1.27369413,13.2643037 0.806774194,13.5389433 0.806774194,13.9761926 L0.806774194,20.9404148 C0.806774194,21.2554217 1.05951667,21.5107852 1.37129032,21.5107852 L12.2825806,21.5107852 C12.7061273,21.5107852 12.9788201,21.0570275 12.7834584,20.6773304 C12.690853,20.4973462 12.6470968,20.3447464 12.6470968,20.1956741 C12.6470968,19.6110449 13.1154009,19.1372296 13.693871,19.1372296 C14.2735507,19.1372296 14.7414516,19.610637 14.7414516,20.1956741 C14.7414516,20.3457961 14.6977328,20.4978334 14.6057053,20.6730442 C14.4061737,21.0529314 14.6787026,21.5107852 15.1043548,21.5107852 L23.9503226,21.5107852 C24.2620962,21.5107852 24.5148387,21.2554217 24.5148387,20.9404148 L24.5148387,18.8569333 C24.5148387,18.4767867 24.1537263,18.2030234 23.7924868,18.3093104 C23.6019801,18.3659195 23.54752,18.3778222 23.4995161,18.3778222 C22.9202418,18.3778222 22.451129,17.9040083 22.451129,17.3193778 C22.451129,16.7347472 22.9202418,16.2609333 23.4995161,16.2609333 C23.5482375,16.2609333 23.6033674,16.2731779 23.7542416,16.3187488 Z M21.3220968,17.3193778 C21.3220968,18.5341103 22.2967818,19.518563 23.4995161,19.518563 C23.6907411,19.518563 23.8187029,19.4905959 24.0690812,19.4161378 C24.0953544,19.4083328 23.9503226,18.8569333 23.9503226,18.8569333 L23.3858065,18.8569333 L23.3858065,20.9404148 L23.9503226,20.3700444 L15.1043548,20.3700444 L15.1043548,20.9404148 L15.6030044,21.2077854 C15.7757834,20.8788323 15.8704839,20.5495 15.8704839,20.1956741 C15.8704839,18.9809761 14.8974477,17.9964889 13.693871,17.9964889 C12.4915039,17.9964889 11.5180645,18.981384 11.5180645,20.1956741 C11.5180645,20.5469166 11.6114527,20.8726079 11.7817028,21.2034992 L12.2825806,20.9404148 L12.2825806,20.3700444 L1.37129032,20.3700444 L1.93580645,20.9404148 L1.93580645,13.9761926 L1.37129032,13.9761926 L1.09255701,14.4721869 C1.38711394,14.6411697 1.68335707,14.7356 2.00516129,14.7356 C3.03686998,14.7356 3.87209677,13.8881006 3.87209677,12.8452296 C3.87209677,11.8029934 3.03669146,10.9556741 2.00516129,10.9556741 C1.68416453,10.9556741 1.38899154,11.0494781 1.09413428,11.2173709 L1.37129032,11.7142667 L1.93580645,11.7142667 L1.93580645,9.22582222 L1.37129032,9.79619259 L9.10758065,9.79619259 L9.10758065,9.22582222 L8.74703417,8.78693904 C8.32079514,9.14439844 8.06241935,9.65873016 8.06241935,10.2215259 C8.06241935,11.2586855 8.89603094,12.1013037 9.92451613,12.1013037 C10.9492394,12.1013037 11.7817742,11.2575994 11.7817742,10.2215259 C11.7817742,9.65700066 11.5238756,9.14177659 11.0953511,8.78542898 L10.7366129,9.22582222 L10.7366129,9.79619259 L17.2672581,9.79619259 L16.7863934,9.52460433 C17.2635563,10.3085685 18.101799,10.7976 19.0253226,10.7976 C19.9525044,10.7976 20.7906976,10.3087612 21.2664483,9.52364331 L20.785,9.79619259 L23.9503226,9.79619259 L23.3858065,9.22582222 L23.3858065,15.782637 L23.9503226,15.782637 L24.1108975,15.2358277 C23.8231789,15.1489477 23.6937115,15.1201926 23.4995161,15.1201926 C22.2967818,15.1201926 21.3220968,16.1046453 21.3220968,17.3193778 Z" id="Stroke-1"></path>
                    <path d="M5.0025,16.8884222 C5.0025,15.9348284 5.7674336,15.1610148 6.71056452,15.1610148 C7.65397668,15.1610148 8.41782258,15.9342968 8.41782258,16.8884222 C8.41782258,17.8416093 7.65409851,18.6142 6.71056452,18.6142 C5.76731184,18.6142 5.0025,17.8410779 5.0025,16.8884222 Z M9.54685484,16.8884222 C9.54685484,15.3047833 8.27802009,14.0202741 6.71056452,14.0202741 C5.14357648,14.0202741 3.87346774,15.3051273 3.87346774,16.8884222 C3.87346774,18.4709665 5.14364061,19.7549407 6.71056452,19.7549407 C8.27795586,19.7549407 9.54685484,18.4713101 9.54685484,16.8884222 Z" id="Stroke-3"></path>
                    <path d="M17.6791935,14.7642815 C17.6791935,13.9862968 18.3033845,13.353837 19.071129,13.353837 C19.8372125,13.353837 20.4606452,13.9862487 20.4606452,14.7642815 C20.4606452,15.5404908 19.839017,16.1682074 19.071129,16.1682074 C18.3015793,16.1682074 17.6791935,15.5404416 17.6791935,14.7642815 Z M21.5896774,14.7642815 C21.5896774,13.3572499 20.4617687,12.2130963 19.071129,12.2130963 C17.6791174,12.2130963 16.5501613,13.357008 16.5501613,14.7642815 C16.5501613,16.1708924 17.6784638,17.3089481 19.071129,17.3089481 C20.4624202,17.3089481 21.5896774,16.1706502 21.5896774,14.7642815 Z" id="Stroke-5"></path>
                    <path d="M20.5154236,7.22512975 C20.5403059,7.52030456 20.7847004,7.7470963 21.0779032,7.7470963 L23.6529032,7.7470963 C24.0753218,7.7470963 24.3480938,7.29552886 24.1549622,6.91595006 C23.1576797,4.95590186 21.7497461,3.41630146 20.0405222,2.25168331 C18.7916995,1.40076993 17.4565827,0.79843502 16.1213229,0.400975446 C15.653174,0.261624109 15.2175299,0.157665225 14.824963,0.0838494011 C14.5852471,0.0387747084 14.4100966,0.0135212687 14.3100875,0.00293923868 C14.2019064,-0.00850747221 14.0927558,0.0118675858 13.9957643,0.0616137197 L12.0925385,1.03776187 C11.8412997,1.16662007 11.7225681,1.46292201 11.8143157,1.73208408 C11.8674191,1.88787494 11.8940323,2.03133085 11.8940323,2.16887407 C11.8940323,2.91254204 11.2973532,3.51576296 10.5617742,3.51576296 C10.1202466,3.51576296 9.71673126,3.29721971 9.46794581,2.93584493 C9.30705443,2.70214119 9.00024221,2.62408732 8.74899847,2.75294275 L1.1151275,6.66812794 C0.585604442,6.93970455 0.776808244,7.7470963 1.37064516,7.7470963 L16.9746774,7.7470963 C17.2675531,7.7470963 17.511789,7.52079492 17.5370841,7.22598772 C17.6046134,6.43895341 18.2479019,5.83391111 19.0254839,5.83391111 C19.8054815,5.83391111 20.4491384,6.4388003 20.5154236,7.22512975 Z M16.4122707,7.12746414 L16.9746774,6.60635556 L1.37064516,6.60635556 L1.62616282,7.68532391 L9.26003379,3.77013873 L8.54108644,3.58723655 C8.9984399,4.25156806 9.74610766,4.6565037 10.5617742,4.6565037 C11.921049,4.6565037 13.0230645,3.54240585 13.0230645,2.16887407 C13.0230645,1.89664224 12.9735574,1.62977888 12.8818134,1.36062703 L12.3480645,1.54635556 L12.6035906,2.05494924 L14.5068164,1.0788011 L14.1924931,1.13747558 C14.263534,1.14499246 14.4091023,1.16598071 14.6183926,1.20533435 C14.9741695,1.27223242 15.3723942,1.3672618 15.8022579,1.49521699 C17.032748,1.86149034 18.2633813,2.41668776 19.4092587,3.19745707 C20.966648,4.25861923 22.2442597,5.65571035 23.1508442,7.4375018 L23.6529032,6.60635556 L21.0779032,6.60635556 L21.6403829,7.1283221 C21.5245932,5.75472908 20.3949985,4.69317037 19.0254839,4.69317037 C17.6584596,4.69317037 16.530077,5.7544658 16.4122707,7.12746414 Z" id="Stroke-7"></path>
                </g>
            </g>
        </g>
    </g>
</svg>