<?xml version="1.0" encoding="UTF-8" standalone="no"?>
<svg width="52px" height="51px" viewBox="0 0 52 51" version="1.1" xmlns="http://www.w3.org/2000/svg" xmlns:xlink="http://www.w3.org/1999/xlink">
    <!-- Generator: Sketch 39.1 (31720) - http://www.bohemiancoding.com/sketch -->
    <title>ico_bebidaslacteas_grey</title>
    <desc>Created with Sketch.</desc>
    <defs></defs>
    <g id="supermercado_categoria" stroke="none" stroke-width="1" fill="none" fill-rule="evenodd">
        <g id="Subcategorias_lacteos-y-refrigerados" transform="translate(-139.000000, -14.000000)">
            <g id="icon01-copy-2" transform="translate(139.000000, 14.000000)">
                <g id="lacteos_blue" transform="translate(14.000000, 14.000000)">
                    <path d="M12.0668087,3.33951726 C13.3139492,3.34341739 13.8670759,3.34511747 14.5541297,3.34711763 C14.7741669,3.3477582 14.9741873,3.21948023 15.0653906,3.01923355 C15.419645,2.24142934 16.2027392,1.76501009 16.9397309,1.97053737 C17.274109,2.05547114 17.5552691,2.37517866 17.6861017,2.81604083 C17.7785513,3.12756536 18.1158684,3.29525414 18.4200344,3.18089716 C18.7791788,3.04586997 19.087921,2.91660242 19.6308555,2.67960638 C19.7527045,2.62638256 19.7527045,2.62638256 19.8736731,2.57360278 C20.2675209,2.40197539 20.522091,2.29489089 20.7881782,2.19150161 L20.58536,1.66952 L20.1740281,2.04952801 C20.3046022,2.19086524 20.477175,2.30583234 20.7351419,2.44532062 C20.8655942,2.51585895 21.3664058,2.76764379 21.3596726,2.76418642 C21.8850304,3.03394711 22.1497265,3.23898722 22.1598335,3.30108367 C22.1925423,3.45443056 22.0685764,3.78291216 21.7754453,4.27131119 C21.718173,4.36673528 21.6557979,4.46697357 21.576409,4.59187979 C20.9822768,5.52665614 20.9515324,5.5784831 20.8593856,5.89126793 L21.440171,5.49122072 C20.0493324,5.38257675 19.0218468,5.52685824 18.3095699,6.04107855 C18.1642501,6.14599057 18.0779277,6.31412317 18.0773628,6.49335504 C18.0763832,7.88462155 18.1705421,9.01328606 18.4259824,11.259041 C18.7556684,14.1575428 18.8347843,15.2649689 18.7294198,16.6304364 C18.481104,20.0108992 15.5293788,22.6965018 11.991898,22.6855227 C8.42150275,22.6749437 5.48874291,19.970218 5.29414351,16.3704908 C5.25282418,15.518723 5.3086648,14.8044734 5.49654079,13.262286 C5.60368127,12.3828193 5.64312748,12.0260742 5.67821767,11.5542535 C5.70790826,11.1410173 5.7269488,10.8280901 5.76978178,10.0805132 C5.79700848,9.60531738 5.81054648,9.37660719 5.82809631,9.10480289 C5.88934592,8.15619521 5.95740356,7.42264251 6.05905486,6.70304913 C6.07821142,6.56743907 6.04700836,6.42951026 5.97134736,6.31535039 C5.53975374,5.66414729 4.95386978,5.52088381 3.53840608,5.43374288 C3.14267551,5.40944957 2.98945469,5.39809045 2.81287248,5.3779333 L2.74936,5.93432 L2.93743129,5.40684565 C2.87115072,5.38321327 2.80933152,5.27980748 2.68266009,4.90005687 C2.6602541,4.83270867 2.6602541,4.83270867 2.63635004,4.76164628 C2.587139,4.61650851 2.54640399,4.50736791 2.49861828,4.39891807 C2.42481901,4.23914711 2.37508209,4.15493637 2.18960992,3.8566411 C2.14743809,3.78869313 2.13079474,3.76164148 2.10790004,3.72361728 C1.96889065,3.49274635 1.91603195,3.35753997 1.91877452,3.33860862 C1.9391616,3.18987913 2.11183288,3.05682784 2.69251039,2.78235815 C3.34668644,2.47309105 3.62070778,2.3082674 3.87532659,2.00174697 L3.25433306,2.17062078 C4.20334387,2.51337217 4.87714328,2.80020278 5.46956992,3.1341524 C5.77275288,3.30505599 6.15675119,3.16093283 6.27261628,2.83275114 C6.69326087,1.64129769 8.78852315,1.70126942 9.03292485,2.88514051 C9.08650796,3.14469475 9.31470339,3.33114608 9.57972973,3.33191763 C10.2666759,3.33391747 10.8197492,3.33561739 12.0668087,3.33951726 Z M10.1297952,2.65869949 C9.6494741,0.332045421 6.00457491,0.227719147 5.21650372,2.45988886 L6.01955008,2.1584876 C5.36168037,1.78764785 4.6374317,1.47934142 3.63478694,1.11721922 C3.41288267,1.03707472 3.16454947,1.10460678 3.01379341,1.28609303 C2.90262656,1.41992018 2.71424442,1.5332319 2.26523431,1.74551251 C1.27806335,2.21211459 0.903043474,2.50108493 0.809739541,3.18233146 C0.757337907,3.54393086 0.877640895,3.85165186 1.14840172,4.30133952 C1.17463837,4.34491413 1.19398699,4.37636286 1.23847525,4.44803168 C1.39435803,4.69873828 1.43601965,4.76927655 1.47789792,4.85981501 C1.50565548,4.9230411 1.53611585,5.00465305 1.57566247,5.1212876 C1.59755166,5.18635994 1.59755166,5.18635994 1.62020859,5.25445328 C1.85459286,5.95711816 2.04659295,6.27827928 2.56128871,6.46179435 L2.68584752,6.4907067 C2.88855373,6.51384596 3.05423768,6.52612904 3.42294832,6.54876117 C4.48972396,6.61442979 4.89093504,6.71253607 5.03777264,6.93408961 L4.95006514,6.54639087 C4.84382837,7.29844501 4.77334406,8.05815332 4.71042369,9.03263711 C4.69264443,9.30799465 4.67899396,9.53860493 4.65161563,10.016447 C4.60909579,10.7585586 4.59026734,11.0680002 4.56119969,11.4725904 C4.52797519,11.9193014 4.48971436,12.265326 4.38476047,13.1268441 C4.189294,14.7313382 4.1300625,15.4889601 4.17561802,16.4278593 C4.40283093,20.6310343 7.83159821,23.7932008 11.9885007,23.8055175 C16.1096285,23.8183081 19.55469,20.6838474 19.8462553,16.7145443 C19.9590197,15.2532288 19.8771154,14.106772 19.5388068,11.1324643 C19.2880548,8.9279274 19.1964195,7.82951305 19.1972605,6.54774635 C19.1972877,6.52231305 18.9651501,6.94916145 18.9651501,6.94916145 C19.4072798,6.62997091 20.2041083,6.51807873 21.352949,6.60781928 C21.6167428,6.62842527 21.858961,6.46158446 21.9337344,6.20777207 C21.9795838,6.05213975 22.0386282,5.95260665 22.521642,5.1926581 C22.6057312,5.06035669 22.6728086,4.95256163 22.7357579,4.84767897 C23.1762551,4.11374655 23.3706011,3.59877354 23.259624,3.09144975 C23.1717581,2.54652879 22.7471078,2.21758424 21.8712673,1.76785774 C20.9304264,1.28475487 21.054055,1.35160348 20.9966919,1.28951199 C20.840574,1.12052543 20.5969864,1.06421506 20.3825418,1.14753839 C20.0991437,1.25765394 19.8328407,1.36967386 19.4262467,1.54685567 C19.3042422,1.60008742 19.3042422,1.60008742 19.1827921,1.65313713 C18.6566066,1.88282204 18.3619275,2.00620153 18.0258856,2.13254284 L18.7598183,2.49739917 C18.5250526,1.70631648 17.971467,1.07683375 17.2277781,0.888292911 C15.9150807,0.522053828 14.6105845,1.3156839 14.0461294,2.55500645 L14.5573903,2.22712237 C13.8704441,2.22512253 13.3173708,2.22342261 12.0703113,2.21952274 C10.8231708,2.21562261 10.2700441,2.21392253 9.58299027,2.21192237 L10.1297952,2.65869949 Z" id="Stroke-1" fill="#D4D4D4"></path>
                    <path d="M10.44088,18.83512 C11.72088,18.44152 11.71528,20.26072 10.80568,20.37112 C10.00968,20.48232 9.41688,19.17272 10.44088,18.83512" id="Fill-3" fill="#D4D4D4"></path>
                    <path d="M14.87464,19.01944 C15.66584,20.41464 13.44744,20.89144 13.42264,19.64024 C13.39704,18.95784 14.19384,18.47704 14.87464,19.01944" id="Fill-5" fill="#D4D4D4"></path>
                    <path d="M9.38688,8.49752 C9.35408,8.49752 9.32128,8.49832 9.28688,8.50152 C8.45888,8.58152 8.34288,9.19832 8.33168,9.45912 C8.31248,9.92152 8.56448,10.45032 9.01968,10.53352 C9.02048,10.53352 9.02128,10.53432 9.02208,10.53432 C9.36208,10.59672 9.82608,10.59272 10.10208,10.20792 C10.34768,9.86552 10.36928,9.31832 10.15248,8.93352 C9.99008,8.64392 9.73328,8.49752 9.38688,8.49752" id="Fill-7" fill="#D4D4D4"></path>
                    <path d="M10.95272,10.81792 C10.58232,11.33472 10.00712,11.61072 9.33032,11.61072 C9.16952,11.61072 9.00232,11.59552 8.83032,11.56352 C7.90472,11.39312 7.24152,10.46992 7.28552,9.41472 C7.33192,8.33472 8.08152,7.56672 9.19672,7.45872 C10.00632,7.39312 10.68632,7.74752 11.06552,8.42032 C11.48072,9.15952 11.43432,10.14512 10.95272,10.81792 L10.95272,10.81792 Z M9.86152,2.95872 L5.82152,2.92512 L3.72552,1.83152 L1.58552,3.17392 L2.58232,5.72832 L5.51032,6.53792 L5.07432,17.43952 C5.07432,17.43952 12.92312,18.74752 12.92312,7.09872 L12.92312,3.11152 L9.86152,2.95872 Z" id="Fill-9" fill="#D4D4D4"></path>
                    <path d="M10.10232,10.20832 C9.82632,10.59232 9.36232,10.59712 9.02152,10.53392 L9.01992,10.53392 C8.56392,10.44992 8.31272,9.92192 8.33192,9.45952 C8.34312,9.19792 8.45912,8.58112 9.28712,8.50112 C9.32152,8.49872 9.35432,8.49792 9.38712,8.49792 C9.73272,8.49792 9.98952,8.64352 10.15272,8.93312 C10.36952,9.31792 10.34792,9.86592 10.10232,10.20832 M9.19672,7.45872 C8.08152,7.56672 7.33192,8.33472 7.28632,9.41472 C7.24152,10.46992 7.90472,11.39312 8.83032,11.56352 C9.00232,11.59552 9.16952,11.61072 9.33032,11.61072 C10.00712,11.61072 10.58232,11.33472 10.95272,10.81792 C11.43432,10.14512 11.48072,9.15952 11.06552,8.42032 C10.68632,7.74752 10.00632,7.39312 9.19672,7.45872" id="Fill-11" fill="#FFFFFF"></path>
                    <path d="M16.2387536,10.138392 C15.559968,10.8802688 14.7173981,10.6276002 14.2534309,9.73317357 C13.7920018,8.8436398 14.106915,8.11255408 15.2570241,8.04670601 C16.2270795,7.99857409 17.0356808,9.27066227 16.2387536,10.138392 Z M13.5432891,10.1015464 C14.2375358,11.4399013 15.7243215,11.8857563 16.828473,10.6789754 C18.1566325,9.23281747 16.8434962,7.16699692 15.2143326,7.24785171 C13.4308609,7.34995059 12.834329,8.73482734 13.5432891,10.1015464 Z" id="Stroke-13" fill="#D4D4D4"></path>
                    <path d="M18.2371744,3.21254736 C18.4579488,3.20469696 18.6305578,3.01935997 18.6227074,2.7985856 C18.614857,2.57781123 18.42952,2.40520224 18.2087456,2.41305264 L14.5415456,2.54345264 C14.3207712,2.55130304 14.1481622,2.73664003 14.1560126,2.9574144 C14.163863,3.17818877 14.3492,3.35079776 14.5699744,3.34294736 L18.2371744,3.21254736 Z" id="Stroke-15" fill="#D4D4D4"></path>
                </g>
            </g>
        </g>
    </g>
</svg>