<?xml version="1.0" encoding="UTF-8" standalone="no"?>
<svg width="52px" height="51px" viewBox="0 0 52 51" version="1.1" xmlns="http://www.w3.org/2000/svg" xmlns:xlink="http://www.w3.org/1999/xlink">
    <!-- Generator: Sketch 39.1 (31720) - http://www.bohemiancoding.com/sketch -->
    <title>ico_carnesfrias_green</title>
    <desc>Created with Sketch.</desc>
    <defs></defs>
    <g id="supermercado_categoria" stroke="none" stroke-width="1" fill="none" fill-rule="evenodd">
        <g id="Subcategorias_lacteos-y-refrigerados" transform="translate(-201.000000, -197.000000)" fill="#44D481">
            <g id="icon01-copy-24" transform="translate(201.000000, 197.000000)">
                <g id="carnes_frias_dgreen" transform="translate(14.000000, 13.000000)">
                    <path d="M23.5384292,2.11008418 C23.1039146,1.43973675 22.4101784,1.14823843 21.5584365,1.53325325 L22.182693,2.19598467 C22.21921,2.12262813 22.2671353,2.00631842 22.3134874,1.85507053 C22.459448,1.37879744 22.4917136,0.875572545 22.330329,0.385839028 C22.3184107,0.350408423 22.3184107,0.350408423 22.3054801,0.314931258 C22.2175208,0.0782798699 21.9651037,-0.050560108 21.7249448,0.0186115518 C21.3606464,0.123538436 21.0458142,0.327479422 20.7773205,0.597773576 C20.5447347,0.831918962 20.3897372,1.0655999 20.3045185,1.23663249 L21.2018031,1.35100496 C21.0441873,0.626708539 20.5958661,0.208402287 19.990709,0.104083945 C19.6958185,0.0532500668 19.3973321,0.0803587886 19.1095451,0.154215553 C18.9983494,0.18275246 18.9114762,0.212347561 18.8554089,0.235187352 C18.5466992,0.360944571 18.4549152,0.758926849 18.6766822,1.01015943 C18.7376568,1.07923549 18.8423943,1.22369842 18.9490198,1.42331435 C19.1074331,1.71988328 19.2078946,2.03368852 19.2252234,2.3486417 L19.7559877,1.83829298 C18.2029347,1.66853661 16.855662,2.48589653 16.1849029,4.28154047 L16.1615939,4.36658347 C16.1392135,4.49124277 16.0761659,4.7441405 15.9567718,5.10700145 C15.7539384,5.72345005 15.4633781,6.41355604 15.0693812,7.15923594 C13.9362001,9.30389846 12.1999523,11.4541975 9.73205144,13.46708 C8.27631638,14.6544144 6.60353666,15.7587112 4.69875883,16.7633712 C3.04308242,17.601675 2.18557995,18.9124367 2.29570761,20.3136398 L2.79464232,19.7893996 C2.50080667,19.7767113 2.21041162,19.697938 1.9375472,19.5737562 C1.75768606,19.4919007 1.6287136,19.4122239 1.56829271,19.366774 C1.3136888,19.1752554 0.948931511,19.2820027 0.834445021,19.5815366 C0.812908663,19.6378828 0.784858576,19.7253706 0.7577567,19.8371472 C0.691411479,20.1107755 0.664608358,20.3933279 0.703054371,20.6722888 C0.793199737,21.3263757 1.23032933,21.7971958 2.00029517,21.9115882 L1.79880822,21.0295097 C1.65842948,21.1268387 1.46878369,21.2969143 1.28107027,21.5416469 C1.05766115,21.8329181 0.893627743,22.1656714 0.816927401,22.5393238 C0.766119431,22.7868393 0.911125173,23.0324793 1.15046026,23.1043291 C1.64783016,23.2536425 2.15109864,23.1983476 2.6247747,23.0214081 C2.79293045,22.9585942 2.92176853,22.8940054 3.00245734,22.8452092 L2.30515935,22.2620163 C1.99156954,23.1371215 2.31294912,23.8143833 2.98796278,24.2104021 C3.25437764,24.3667031 3.51361801,24.4496528 3.70343742,24.4850763 C4.03050225,24.5461121 4.31826211,24.2599727 4.26398782,23.9276825 C4.22313342,23.4995839 4.25866918,23.0829614 4.41148118,22.7009774 C4.42520386,22.6666748 4.43979587,22.6329741 4.45527144,22.5999005 L4.02150857,22.3917361 L3.73662042,22.7829688 C3.9402193,22.9350247 4.15718911,23.0702145 4.38639784,23.1866585 C4.49320964,23.2399012 4.66870105,23.3085224 4.90984815,23.3744327 C6.27997583,23.7489157 7.93760292,23.5733547 9.72225902,22.4705931 C12.3184783,21.0622809 14.6081741,19.3168429 16.5890095,17.319679 C18.5756324,15.3166798 20.1494227,13.1705234 21.3541285,11.0229493 C21.7766611,10.2697197 22.1231496,9.56928249 22.3990265,8.93922183 C22.4961735,8.71735264 22.5776834,8.51969917 22.6442311,8.34845652 C22.6849616,8.24364736 22.7120696,8.16965807 22.7262278,8.12868294 C23.3092016,5.98311983 23.1943592,4.19767227 22.1045284,3.00346388 L22.0114394,3.74240473 C22.0735291,3.70201408 22.138225,3.66514723 22.20533,3.63168801 C22.5979891,3.43590413 23.0147928,3.37468197 23.3296712,3.38720183 C23.6676953,3.41220981 23.9223911,3.10299132 23.8396845,2.78060759 C23.7939157,2.60220441 23.6997689,2.35899111 23.5384292,2.11008418 Z M23.4105249,2.41806113 C22.9068635,2.39741937 22.3405368,2.4806042 21.7812895,2.75945061 C21.6820755,2.80891976 21.5857293,2.86382246 21.4926063,2.92440083 C21.2414223,3.08780112 21.196889,3.44130682 21.3995173,3.66334168 C22.2105438,4.55204356 22.3047146,6.01610976 21.8103019,7.83939597 C21.7756417,7.93624482 21.6778171,8.18797021 21.521438,8.54511644 C21.2581222,9.14648963 20.9258334,9.81822159 20.519422,10.5427126 C19.3557165,12.6171974 17.8334439,14.6930999 15.9116962,16.630689 C13.9953534,18.5628286 11.7804265,20.2512702 9.24550601,21.6271707 C7.67449913,22.5970278 6.2873975,22.7439373 5.15998696,22.4357937 C4.98140481,22.3869836 4.86351128,22.3408845 4.81354471,22.315985 C4.63682451,22.2261905 4.46641472,22.1200114 4.30639672,22.0005035 C4.06332341,21.8189664 3.71707851,21.9071684 3.58774571,22.1835717 C3.56431054,22.2336561 3.54231698,22.2844508 3.52172969,22.3359129 C3.3023589,22.8842739 3.25425334,23.4482651 3.30021109,23.9477702 C3.30590704,24.0096784 3.3119882,24.056531 3.31685789,24.0863453 L3.87740829,23.5289515 C3.78630235,23.5119496 3.62415467,23.4600669 3.46918149,23.3691468 C3.16668472,23.1916772 3.06788883,22.9834789 3.20757208,22.5936781 C3.36157067,22.1639289 2.89785657,21.7760965 2.51027409,22.0104852 C2.47729088,22.0304317 2.40044322,22.0689568 2.29255779,22.1092569 C1.99630853,22.2199195 1.69319538,22.2532229 1.42329974,22.1721987 L1.7568326,22.7372039 C1.80147651,22.5197172 1.90040961,22.3190245 2.03921507,22.1380559 C2.15886894,21.9820564 2.27659043,21.8764829 2.34112321,21.8317403 C2.70156265,21.5818363 2.57182648,21.0138715 2.13963626,20.9496618 C1.80257452,20.8995851 1.68644774,20.7745082 1.65383807,20.5378953 C1.63462402,20.3984798 1.65033882,20.2328179 1.69006113,20.0689907 C1.70658756,20.0008306 1.72216579,19.9522423 1.72971498,19.9324911 L0.995867292,20.1472538 C1.10836074,20.2318738 1.29520388,20.3473019 1.54404653,20.4605513 C1.92095054,20.6320819 2.32736716,20.7423275 2.75374625,20.7607393 C3.04175816,20.7731761 3.27555396,20.5275224 3.25268096,20.2364991 C3.17596042,19.2603497 3.80105604,18.3048406 5.13514253,17.6293049 C7.10278332,16.591563 8.82876402,15.4521452 10.3342045,14.2242698 C12.9042273,12.128094 14.7228058,9.87583059 15.9158184,7.61793065 C16.3359894,6.8227137 16.6478629,6.0819869 16.8675375,5.41435478 C17.0016483,5.00676731 17.0757959,4.70934472 17.106109,4.54049987 L17.0827999,4.62554286 C17.5972808,3.24826065 18.5303435,2.68219258 19.6529723,2.80490146 C19.9474898,2.83709368 20.200217,2.59408746 20.1837366,2.29455274 C20.1577506,1.82225339 20.0144063,1.37449835 19.793392,0.96073264 C19.6475159,0.687634867 19.4997519,0.483826087 19.3923921,0.362201682 L19.2136653,1.13717376 C19.232161,1.12963929 19.2790283,1.113673 19.3453652,1.09664851 C19.5143137,1.05329009 19.6857494,1.03772019 19.8296194,1.06252082 C20.0556336,1.10148165 20.1921951,1.22890042 20.2642998,1.56024504 C20.3614608,2.0067321 20.9582051,2.08279617 21.1615844,1.67461751 C21.204193,1.58910269 21.3044423,1.43796252 21.4541144,1.28728679 C21.6148676,1.12545568 21.7937743,1.00956403 21.987558,0.953749559 L21.4070228,0.657429853 C21.5078961,0.96124493 21.4882272,1.26800714 21.3966313,1.56688673 C21.3672489,1.66276229 21.3394397,1.73025224 21.325467,1.75832089 C21.1222142,2.1666215 21.5374259,2.60742412 21.9497235,2.4210523 C22.3263892,2.25078727 22.5392425,2.34022527 22.7358952,2.64361123 C22.8302674,2.78920393 22.8888296,2.94049027 22.9105326,3.02508686 L23.4105249,2.41806113 Z" id="Stroke-1"></path>
                    <path d="M11.9101714,15.2302778 C11.8512,15.3066667 10.4112,17.1191667 6.46971429,18.8893056 C6.40662857,18.9177778 6.3408,18.9309722 6.27634286,18.9309722 C6.09325714,18.9309722 5.91771429,18.8233333 5.83885714,18.6427778 C5.73188571,18.3983333 5.84091429,18.1129167 6.08228571,18.0038889 C9.80914286,16.3302778 11.1462857,14.6476389 11.1593143,14.6309722 C11.3156571,14.4302778 11.5988571,14.3865278 11.8066286,14.5316667 C11.9156571,14.6073611 11.9883429,14.7261111 12.0075429,14.8580556 C12.0274286,14.9906944 11.9924571,15.1254167 11.9101714,15.2302778" id="Fill-3"></path>
                </g>
            </g>
        </g>
    </g>
</svg>