<?xml version="1.0" encoding="UTF-8" standalone="no"?>
<svg width="52px" height="51px" viewBox="0 0 52 51" version="1.1" xmlns="http://www.w3.org/2000/svg" xmlns:xlink="http://www.w3.org/1999/xlink">
    <!-- Generator: Sketch 39.1 (31720) - http://www.bohemiancoding.com/sketch -->
    <title>ico_leche_grey</title>
    <desc>Created with Sketch.</desc>
    <defs></defs>
    <g id="supermercado_categoria" stroke="none" stroke-width="1" fill="none" fill-rule="evenodd">
        <g id="Subcategorias_lacteos-y-refrigerados" transform="translate(-77.000000, -14.000000)" fill="#D4D4D4">
            <g id="icon01-copy" transform="translate(77.000000, 14.000000)">
                <g id="leche_red" transform="translate(19.000000, 13.000000)">
                    <path d="M5.17431818,24.8790278 L5.65159091,24.8790278 L5.65159091,24.3929167 L5.65159091,7.12277778 L5.65159091,6.63666667 L5.17431818,6.63666667 L0.477272727,6.63666667 L7.56970244e-17,6.63666667 L0,7.12277778 L0,24.3929167 L0,24.8790278 L0.477272727,24.8790278 L5.17431818,24.8790278 Z M0.954545455,24.3929167 L0.954545455,7.12277778 L0.477272727,7.60888889 L5.17431818,7.60888889 L4.69704545,7.12277778 L4.69704545,24.3929167 L5.17431818,23.9068056 L0.477272727,23.9068056 L0.954545455,24.3929167 Z" id="Stroke-1"></path>
                    <polygon id="Stroke-3" points="13.9533409 24.8790278 14.4306136 24.8790278 14.4306136 24.3929167 14.4306136 7.12277778 14.4306136 6.63666667 13.9533409 6.63666667 5.17561364 6.63666667 5.17561364 7.60888889 13.9533409 7.60888889 13.4760682 7.12277778 13.4760682 24.3929167 13.9533409 23.9068056 4.96902273 23.9068056 4.96902273 24.8790278"></polygon>
                    <path d="M11.3625,3.10541667 L11.8397727,3.10541667 L11.8397727,2.61930556 L11.8397727,0.485972222 L11.8397727,-0.000138888889 L11.3625,-0.000138888889 L3.0675,-0.000138888889 L2.59022727,-0.000138888889 L2.59022727,0.485972222 L2.59022727,2.61930556 L2.59022727,3.10541667 L3.0675,3.10541667 L11.3625,3.10541667 Z M3.54477273,2.61930556 L3.54477273,0.485972222 L3.0675,0.972083333 L11.3625,0.972083333 L10.8852273,0.485972222 L10.8852273,2.61930556 L11.3625,2.13319444 L3.0675,2.13319444 L3.54477273,2.61930556 Z" id="Stroke-4"></path>
                    <path d="M12.9617459,4.60583374 C12.9545159,4.59562229 12.9545159,4.59562229 12.9472857,4.58541121 C12.7049634,4.24318495 11.9475964,3.17542101 11.9251346,3.14372712 C11.6098975,2.69892268 11.4428936,2.4617002 11.4203366,2.42659264 L10.621618,2.95896292 C10.6571751,3.01430349 10.8081894,3.22881353 11.1511618,3.71275277 C11.1738319,3.7447406 11.9310299,4.81226633 12.173076,5.15410248 C12.180296,5.16429926 12.180296,5.16429926 12.1875158,5.1744962 C13.0026611,6.32579593 13.5010102,7.03762181 13.6545056,7.2748524 L14.4515398,6.73986982 C14.2867475,6.48517957 13.7904213,5.77624325 12.9617459,4.60583374 Z" id="Stroke-5"></path>
                    <path d="M4.40850908,4.87885246 C3.6385083,3.68723811 3.3474158,3.23672622 3.22480606,3.04677527 L2.8264415,2.42961608 L2.42746082,3.04636226 C2.30008515,3.24326017 2.10949644,3.53331485 1.21367751,4.89496773 C0.505914418,5.97077479 0.17162617,6.48001543 0.0177796457,6.71809996 L0.815129445,7.25259449 C0.966748316,7.01795736 1.3015032,6.50800585 2.00554937,5.43784857 C2.90665708,4.06815668 3.09496008,3.7815806 3.22453918,3.58127663 L2.42719394,3.58086362 C2.5499464,3.77103567 2.84118014,4.22176618 3.61092982,5.41299188 C4.25475937,6.40938303 4.6164408,6.9692639 4.7711933,7.20919396 L5.56898852,6.67538937 C5.41401624,6.43511856 5.05234554,5.8752543 4.40850908,4.87885246 Z" id="Stroke-6"></path>
                </g>
            </g>
        </g>
    </g>
</svg>