<?xml version="1.0" encoding="UTF-8" standalone="no"?>
<svg width="52px" height="51px" viewBox="0 0 52 51" version="1.1" xmlns="http://www.w3.org/2000/svg" xmlns:xlink="http://www.w3.org/1999/xlink">
    <!-- Generator: Sketch 39.1 (31720) - http://www.bohemiancoding.com/sketch -->
    <title>ico_helados_green</title>
    <desc>Created with Sketch.</desc>
    <defs></defs>
    <g id="supermercado_categoria" stroke="none" stroke-width="1" fill="none" fill-rule="evenodd">
        <g id="Subcategorias_lacteos-y-refrigerados" transform="translate(-263.000000, -197.000000)" fill="#44D481">
            <g id="icon01-copy-25" transform="translate(263.000000, 197.000000)">
                <g id="helados_lgreen" transform="translate(19.000000, 12.000000)">
                    <path d="M8.07338045,24.5201967 C8.03836459,24.826836 7.81758437,25.1742052 7.49749133,25.3644479 C7.09543143,25.6035803 6.50075316,25.5982276 6.08130841,25.3541506 C5.75871112,25.1623147 5.54375322,24.822421 5.50658767,24.4543529 L5.50928,20.2199351 C5.50928,19.9378221 5.28989953,19.7091243 5.01928,19.7091243 C4.74866047,19.7091243 4.52928,19.9378221 4.52928,20.2199351 L4.52928,24.507827 C4.60232443,25.2580314 5.00047628,25.8875934 5.5997151,26.2438906 C6.31861059,26.6622444 7.27852443,26.6708845 7.98300192,26.2518837 C8.57454021,25.9003115 8.97838296,25.264917 9.05049806,24.5748224 L9.04777955,20.22216 C9.04741186,19.9400473 8.82773352,19.7116604 8.55711424,19.7120437 C8.28649496,19.712427 8.06741276,19.9414353 8.06778045,20.2235481 L8.07338045,24.5201967 Z" id="Stroke-1"></path>
                    <path d="M12.4772225,1.54519135 C11.8350422,1.06852026 11.1085199,0.732294827 10.182356,0.441578278 C7.52328018,-0.316479348 4.47916673,-0.097217048 2.22426,1.09147654 C0.973304353,1.73368564 0.0388378783,2.92390018 0.000512932614,4.21916496 L0.0163802803,19.927568 C0.016669463,20.2094243 0.235900478,20.4377714 0.506273945,20.4378324 L13.4429739,20.4407513 C13.7060704,20.4408107 13.9222545,20.2242639 13.9326941,19.9502095 L13.9403941,19.7480743 L13.9190795,4.2699227 C13.9818645,3.20785304 13.433647,2.24514624 12.4772225,1.54519135 Z M12.9607805,19.728553 L12.9534659,19.9096716 L13.44308,19.9299405 L13.4431861,19.4191297 L0.506486055,19.4162108 L0.99637972,19.9264753 L0.98027972,4.23436717 C1.00565212,3.38529028 1.70199461,2.49837034 2.66186752,2.0055714 C4.69405394,0.934318693 7.48938148,0.732976019 9.91185387,1.42342408 C10.7320997,1.68106831 11.3657538,1.97431548 11.9114755,2.37937642 C12.6134393,2.89311927 12.9808224,3.53826863 12.9399802,4.23972202 L12.9607805,19.728553 Z" id="Stroke-3"></path>
                    <path d="M4.10977,17.6590216 C4.10977,17.9411346 4.32915047,18.1698324 4.59977,18.1698324 C4.87038953,18.1698324 5.08977,17.9411346 5.08977,17.6590216 L5.08977,5.09380541 C5.08977,4.81169238 4.87038953,4.58299459 4.59977,4.58299459 C4.32915047,4.58299459 4.10977,4.81169238 4.10977,5.09380541 L4.10977,17.6590216 Z" id="Stroke-5"></path>
                    <path d="M8.85115,17.6590216 C8.85115,17.9411346 9.07053047,18.1698324 9.34115,18.1698324 C9.61176953,18.1698324 9.83115,17.9411346 9.83115,17.6590216 L9.83115,5.09380541 C9.83115,4.81169238 9.61176953,4.58299459 9.34115,4.58299459 C9.07053047,4.58299459 8.85115,4.81169238 8.85115,5.09380541 L8.85115,17.6590216 Z" id="Stroke-7"></path>
                </g>
            </g>
        </g>
    </g>
</svg>