<?xml version="1.0" encoding="UTF-8" standalone="no"?>
<svg width="52px" height="51px" viewBox="0 0 52 51" version="1.1" xmlns="http://www.w3.org/2000/svg" xmlns:xlink="http://www.w3.org/1999/xlink">
    <!-- Generator: Sketch 39.1 (31720) - http://www.bohemiancoding.com/sketch -->
    <title>ico_delicatessen_grey</title>
    <desc>Created with Sketch.</desc>
    <defs></defs>
    <g id="supermercado_categoria" stroke="none" stroke-width="1" fill="none" fill-rule="evenodd">
        <g id="Subcategorias_lacteos-y-refrigerados" transform="translate(-77.000000, -75.000000)" fill="#D4D4D4">
            <g id="icon01-copy-9" transform="translate(77.000000, 75.000000)">
                <g id="Group" transform="translate(12.000000, 12.000000)">
                    <path d="M0.471356903,26.0682102 C0.216214366,26.3233528 0.216214366,26.7370206 0.471356903,26.9921631 C0.72649944,27.2473056 1.14016723,27.2473056 1.39530976,26.9921631 L8.52037643,19.8670964 C8.77551897,19.6119539 8.77551897,19.1982861 8.52037643,18.9431436 C8.26523389,18.688001 7.85156611,18.688001 7.59642357,18.9431436 L0.471356903,26.0682102 Z" id="Stroke-1"></path>
                    <path d="M19.0716636,7.59642357 C18.816521,7.85156611 18.816521,8.26523389 19.0716636,8.52037643 C19.3268061,8.77551897 19.7404739,8.77551897 19.9956164,8.52037643 L27.1206831,1.39530976 C27.3758256,1.14016723 27.3758256,0.72649944 27.1206831,0.471356903 C26.8655406,0.216214366 26.4518728,0.216214366 26.1967302,0.471356903 L19.0716636,7.59642357 Z" id="Stroke-3"></path>
                    <path d="M10.9350267,9.17242667 C10.9350267,8.50485888 11.7663204,7.89842667 12.92396,7.89842667 C14.080789,7.89842667 14.91196,8.50491822 14.91196,9.17242667 C14.91196,9.84078709 14.0809572,10.44736 12.92396,10.44736 C11.7661522,10.44736 10.9350267,9.84084647 10.9350267,9.17242667 Z M16.2186267,9.17242667 C16.2186267,7.67833168 14.7295262,6.59176 12.92396,6.59176 C11.1176225,6.59176 9.62836,7.67818323 9.62836,9.17242667 C9.62836,10.6674 11.1174004,11.7540267 12.92396,11.7540267 C14.7297484,11.7540267 16.2186267,10.6672515 16.2186267,9.17242667 Z M5.53102667,14.4606933 C5.53102667,9.0725374 8.49942044,5.53989333 12.9230267,5.53989333 C17.3474465,5.53989333 20.31596,9.0723876 20.31596,14.4606933 C20.31596,20.623286 17.1428909,24.19256 12.9230267,24.19256 C8.7039982,24.19256 5.53102667,20.6231202 5.53102667,14.4606933 Z M21.6226267,14.4606933 C21.6226267,8.39617494 18.1243143,4.23322667 12.9230267,4.23322667 C7.72252452,4.23322667 4.22436,8.39634352 4.22436,14.4606933 C4.22436,21.3127448 7.94583685,25.4992267 12.9230267,25.4992267 C17.901027,25.4992267 21.6226267,21.31293 21.6226267,14.4606933 Z" id="Stroke-5"></path>
                    <path d="M17.355593,17.1976858 C17.2508467,17.8139886 17.067663,18.4295152 16.7889053,18.999486 C16.1830685,20.2382294 15.2178549,21.0881551 13.7935491,21.4066042 C13.5420262,21.4628402 13.3837149,21.7123281 13.4399509,21.9638509 C13.4961869,22.2153738 13.7456747,22.3736851 13.9971976,22.3174491 C15.7181453,21.9326762 16.9040596,20.8884108 17.6273362,19.4095405 C17.9488249,18.7521984 18.1569851,18.0527469 18.2757313,17.3540717 C18.3472129,16.9334907 18.3732834,16.602578 18.3753481,16.4040806 C18.3780288,16.1463616 18.1712795,15.935266 17.9135606,15.9325852 C17.6558416,15.9299045 17.444746,16.1366538 17.4420652,16.3943728 C17.4404825,16.5465361 17.4182069,16.8292799 17.355593,17.1976858 Z" id="Stroke-7"></path>
                    <path d="M7.73256573,20.0852473 C8.0198803,20.5313451 8.37903157,20.9311498 8.81591098,21.2709737 C9.10072073,21.4925111 9.51119623,21.4412188 9.73273366,21.156409 C9.9542711,20.8715993 9.90297876,20.4611238 9.61816902,20.2395863 C9.30092614,19.992821 9.04067328,19.7031093 8.83110326,19.3777212 C8.58296684,18.9924532 8.41694384,18.5761855 8.31895226,18.1598271 C8.26122077,17.9145306 8.23945718,17.7309959 8.2367263,17.6429031 C8.22554606,17.2822503 7.92411584,16.9989468 7.56346306,17.010127 C7.20281027,17.0213073 6.9195068,17.3227375 6.93068703,17.6833903 C6.95006552,18.3085026 7.15842669,19.1938125 7.73256573,20.0852473 Z" id="Stroke-9"></path>
                </g>
            </g>
        </g>
    </g>
</svg>