<?xml version="1.0" encoding="UTF-8" standalone="no"?>
<svg width="52px" height="51px" viewBox="0 0 52 51" version="1.1" xmlns="http://www.w3.org/2000/svg" xmlns:xlink="http://www.w3.org/1999/xlink">
    <!-- Generator: Sketch 39.1 (31720) - http://www.bohemiancoding.com/sketch -->
    <title>ico_arepas_green</title>
    <desc>Created with Sketch.</desc>
    <defs></defs>
    <g id="supermercado_categoria" stroke="none" stroke-width="1" fill="none" fill-rule="evenodd">
        <g id="Subcategorias_lacteos-y-refrigerados" transform="translate(-201.000000, -136.000000)" fill="#44D481">
            <g id="icon01-copy-17" transform="translate(201.000000, 136.000000)">
                <g id="arepas_dgreen" transform="translate(15.000000, 12.000000)">
                    <path d="M13.9174122,21.7522298 C14.0733615,21.9709662 14.3790745,22.0232543 14.6002413,21.8690187 C14.821408,21.7147831 14.8742772,21.4124296 14.7183278,21.1936932 L7.50902781,11.0818471 C7.35307846,10.8631107 7.04736546,10.8108226 6.82619872,10.9650582 C6.60503197,11.1192938 6.55216284,11.4216474 6.70811219,11.6403837 L13.9174122,21.7522298 Z" id="Stroke-1"></path>
                    <path d="M15.8435961,16.4327525 C16.0034155,16.6487392 16.310012,16.6956955 16.5283986,16.5376324 C16.7467852,16.3795693 16.7942632,16.0763419 16.6344439,15.8603552 L12.7109439,10.5579706 C12.5511245,10.3419839 12.244528,10.2950276 12.0261414,10.4530907 C11.8077548,10.6111538 11.7602768,10.9143811 11.9200961,11.1303678 L15.8435961,16.4327525 Z" id="Stroke-2"></path>
                    <path d="M8.42744614,21.7082063 C8.58726553,21.924193 8.89386204,21.9711494 9.1122486,21.8130862 C9.33063517,21.6550231 9.37811324,21.3517958 9.21829386,21.1358091 L5.29479386,15.8334245 C5.13497447,15.6174377 4.82837796,15.5704814 4.6099914,15.7285445 C4.39160483,15.8866077 4.34412676,16.189835 4.50394614,16.4058217 L8.42744614,21.7082063 Z" id="Stroke-3"></path>
                    <path d="M10.45807,25.6191923 C5.22668953,25.6191923 0.98007,21.4192389 0.98007,16.2453462 C0.98007,12.0603398 3.78241742,8.41135169 7.78172827,7.25352141 L7.21729055,7.02652488 C7.93486747,8.28461429 9.28835822,9.07996154 10.78007,9.07996154 C12.1896967,9.07996154 13.4777758,8.37222576 14.2293039,7.2250054 L13.6528402,7.41773229 C17.3898006,8.74153466 19.93607,12.2554692 19.93607,16.2453462 C19.93607,21.4192389 15.6894505,25.6191923 10.45807,25.6191923 Z M13.9832998,6.50526771 C13.7692068,6.42942617 13.5304895,6.5092356 13.4068361,6.6979946 C12.834149,7.57221114 11.8540433,8.11073077 10.78007,8.11073077 C9.64483096,8.11073077 8.61604939,7.50619129 8.07084945,6.55032127 C7.95892752,6.35409451 7.72503546,6.26003154 7.50641173,6.32332474 C3.09191754,7.60135368 7.00000001e-05,11.6273052 7.00000001e-05,16.2453462 C7.00000001e-05,21.9545303 4.68545047,26.5884231 10.45807,26.5884231 C16.2306895,26.5884231 20.91607,21.9545303 20.91607,16.2453462 C20.91607,11.8428912 18.106793,7.96599768 13.9832998,6.50526771 Z" id="Stroke-4"></path>
                    <path d="M17.2273279,1.3771462 C17.1712128,1.53930686 16.9936564,1.62531761 16.8310091,1.57017332 C16.6677402,1.51491062 16.5809903,1.33948944 16.6370741,1.1782028 C16.6930376,1.01674786 16.8702923,0.930925756 17.0335483,0.986184036 C17.1965153,1.04134448 17.283238,1.21662746 17.2273279,1.3771462 Z M15.7101897,0.863447042 C15.4780626,1.53100056 15.8377841,2.25841083 16.5134483,2.48710711 C17.1880553,2.71582744 17.9231071,2.35975842 18.1542116,1.69190274 C18.3863928,1.02531063 18.0264732,0.297844847 17.3508717,0.0691698104 C16.6757806,-0.159332447 15.941469,0.196202093 15.7101897,0.863447042 Z" id="Stroke-6"></path>
                    <path d="M13.0553064,4.16433991 C12.9276127,4.53254959 12.5216059,4.72913151 12.1491317,4.60278256 C11.7766351,4.47642598 11.5782112,4.07505379 11.7060554,3.70640937 C11.8338701,3.3382605 12.2393952,3.14191451 12.6116883,3.26820206 C12.9843152,3.39460281 13.1827845,3.79555373 13.0553064,4.16433991 Z M10.779119,3.39180305 C10.4756584,4.26684533 10.9466318,5.21953152 11.8311883,5.51958667 C12.7157402,5.81964027 13.6790476,5.35322249 13.9824554,4.47833245 C14.2850211,3.60302961 13.8139549,2.65137393 12.9296317,2.35139794 C12.0453158,2.05142441 11.082653,2.51752382 10.779119,3.39180305 Z" id="Stroke-8"></path>
                </g>
            </g>
        </g>
    </g>
</svg>