<?xml version="1.0" encoding="UTF-8" standalone="no"?>
<svg width="52px" height="51px" viewBox="0 0 52 51" version="1.1" xmlns="http://www.w3.org/2000/svg" xmlns:xlink="http://www.w3.org/1999/xlink">
    <!-- Generator: Sketch 39.1 (31720) - http://www.bohemiancoding.com/sketch -->
    <title>ico_salsas_grey</title>
    <desc>Created with Sketch.</desc>
    <defs></defs>
    <g id="supermercado_categoria" stroke="none" stroke-width="1" fill="none" fill-rule="evenodd">
        <g id="Subcategorias_lacteos-y-refrigerados" transform="translate(-263.000000, -14.000000)" fill="#D4D4D4">
            <g id="icon01-copy-4" transform="translate(263.000000, 14.000000)">
                <g id="salsa_blue" transform="translate(21.000000, 12.000000)">
                    <path d="M8.0039375,8.39222791 L8.4414375,8.83176279 L8.4414375,7.04787907 C8.4414375,6.582112 8.06420127,6.20271628 7.6001875,6.20271628 L6.3264375,6.20271628 L6.3264375,6.64225116 L6.76094089,6.69360697 C6.77061911,6.6109595 6.77229962,6.52798995 6.7656532,6.44500021 L6.32114985,1.13259544 C6.25792199,0.490927006 5.72236554,0.000251162791 5.0783125,0.000251162791 L4.3314375,0.000251162791 C3.70335905,0.000251162791 3.17236216,0.495360133 3.1092605,1.1254105 L2.66484585,6.44348408 C2.65745455,6.52408677 2.65939394,6.60786857 2.66943411,6.69360697 L3.1039375,6.64225116 L3.1039375,6.20271628 L1.8095625,6.20271628 C1.34606292,6.20271628 0.9683125,6.58222368 0.9683125,7.04787907 L0.9683125,8.83176279 L1.4058125,8.39222791 L0.8408125,8.39222791 C0.377221803,8.39222791 0.0001875,8.7718261 0.0001875,9.2373907 L0.0001875,25.7783442 C0.0001875,26.2439088 0.377221803,26.623507 0.8408125,26.623507 L8.5889375,26.623507 C9.04924678,26.623507 9.4101875,26.2475956 9.4101875,25.7984372 L9.4101875,9.2373907 C9.4101875,8.77173531 9.03243708,8.39222791 8.5689375,8.39222791 L8.0039375,8.39222791 Z M8.5351875,9.2373907 L8.5351875,25.7984372 C8.5351875,25.7690386 8.55880916,25.7444372 8.5889375,25.7444372 L0.8408125,25.7444372 C0.86088999,25.7444372 0.8751875,25.7588319 0.8751875,25.7783442 L0.8751875,9.2373907 C0.8751875,9.25690294 0.86088999,9.27129767 0.8408125,9.27129767 L1.4058125,9.27129767 L1.8433125,9.27129767 L1.8433125,8.83176279 L1.8433125,7.04787907 C1.8433125,7.06772051 1.82931208,7.08178605 1.8095625,7.08178605 L3.1039375,7.08178605 L3.59592537,7.08178605 L3.53844089,6.59089536 C3.53520208,6.5632374 3.98052915,1.20618104 3.98052915,1.20618104 C3.99846194,1.02772779 4.15762605,0.87932093 4.3314375,0.87932093 L5.0783125,0.87932093 C5.27124918,0.87932093 5.43140911,1.02605916 5.44981888,1.21274706 L5.89360015,6.51706967 C5.89545067,6.54021101 5.83444963,7.08178605 5.83444963,7.08178605 L6.3264375,7.08178605 L7.6001875,7.08178605 C7.58074283,7.08178605 7.5664375,7.06739882 7.5664375,7.04787907 L7.5664375,8.83176279 L7.5664375,9.27129767 L8.0039375,9.27129767 L8.5689375,9.27129767 C8.54918792,9.27129767 8.5351875,9.25723213 8.5351875,9.2373907 Z" id="Stroke-1"></path>
                    <polygon id="Stroke-3" points="6.32025 7.08203721 6.32025 6.20296744 3.104 6.20296744 3.104 7.08203721"></polygon>
                    <polygon id="Stroke-5" points="7.882875 9.27129767 7.882875 8.39222791 1.406 8.39222791 1.406 9.27129767"></polygon>
                    <polygon id="Stroke-7" points="8.8985 13.8053512 8.8985 12.9262814 0.461 12.9262814 0.461 13.8053512"></polygon>
                    <polygon id="Stroke-9" points="8.8988125 22.3998279 8.8988125 21.5207581 0.3438125 21.5207581 0.3438125 22.3998279"></polygon>
                </g>
            </g>
        </g>
    </g>
</svg>