<?xml version="1.0" encoding="UTF-8" standalone="no"?>
<svg width="52px" height="51px" viewBox="0 0 52 51" version="1.1" xmlns="http://www.w3.org/2000/svg" xmlns:xlink="http://www.w3.org/1999/xlink">
    <!-- Generator: Sketch 39.1 (31720) - http://www.bohemiancoding.com/sketch -->
    <title>ico_alimentoscingelados_green</title>
    <desc>Created with Sketch.</desc>
    <defs></defs>
    <g id="supermercado_categoria" stroke="none" stroke-width="1" fill="none" fill-rule="evenodd">
        <g id="Subcategorias_lacteos-y-refrigerados" transform="translate(-139.000000, -197.000000)" fill="#44D481">
            <g id="icon01-copy-23" transform="translate(139.000000, 197.000000)">
                <g id="alimentos_congelados_blue" transform="translate(14.000000, 13.000000)">
                    <path d="M9.44905842,0.0267422731 C8.15734651,0.082358436 6.78062987,0.220003812 5.38588965,0.414587191 C4.73772283,0.505014417 4.12812254,0.601902856 3.57470311,0.69886232 C3.24146269,0.757246272 2.99999806,0.802886824 2.86801218,0.829402279 C2.64588198,0.874027381 2.4651877,1.03585185 2.39572924,1.25236497 C0.161161091,8.21787068 0.577052611,16.9318241 2.15632735,24.8629454 C2.21889444,25.1771575 2.50714705,25.3935795 2.8249843,25.3649776 C2.9505026,25.3536823 3.17863677,25.3285917 3.49485646,25.2865878 C4.01795635,25.2171037 4.59985617,25.1244678 5.22608312,25.0055133 C7.01658526,24.6654 8.8079641,24.1818599 10.4857037,23.5277357 C11.5086297,23.1289129 12.4588647,22.6771531 13.3221878,22.168304 C13.6198718,21.9928468 13.7195424,21.6082914 13.5448082,21.3093756 C13.3700741,21.0104597 12.9871034,20.9103767 12.6894194,21.0858339 C11.8870834,21.5587368 10.9967305,21.9820275 10.0332647,22.3576676 C8.43400346,22.9811944 6.71430989,23.4453848 4.99373962,23.7722143 C4.39109123,23.8866899 3.83189251,23.9757119 3.33092961,24.0422555 C3.03271163,24.0818681 2.82196176,24.1050469 2.71340856,24.1148155 L3.38206551,24.6168477 C1.84173693,16.8813141 1.43423414,8.34312514 3.58552076,1.63722124 L3.11323782,2.06018393 C3.23548201,2.03562554 3.4668846,1.99188687 3.78955566,1.93535468 C4.32932203,1.84078724 4.924766,1.74614877 5.55790899,1.65781756 C6.91616188,1.46832461 8.2547673,1.33448963 9.50260764,1.2807624 C11.4811384,1.19557445 13.0753201,1.32045667 14.1172052,1.68659859 C14.4430069,1.80109267 14.7995546,1.62870109 14.9135769,1.30155124 C15.0275992,0.974401383 14.855918,0.616378239 14.5301163,0.501884165 C13.3035267,0.070832892 11.5731942,-0.0647148677 9.44905842,0.0267422731 Z" id="Stroke-1"></path>
                    <path d="M15.6384468,25.8713215 C17.0098007,25.8471786 18.473272,25.7342894 19.9456346,25.5612163 C20.5304178,25.4924763 21.0765629,25.4188134 21.569447,25.3450881 C21.8663524,25.3006772 22.08047,25.2659455 22.1971127,25.245746 C22.4203745,25.2070828 22.605318,25.050126 22.6804881,24.835518 C25.0985917,17.9319136 24.9141273,9.20651378 23.5460893,1.23988902 C23.4918688,0.924141739 23.2094864,0.700106065 22.8910265,0.720177421 C22.7633298,0.728225674 22.5311826,0.747515699 22.2093723,0.781636709 C21.6769822,0.838085145 21.0847347,0.916552677 20.4473562,1.0206776 C18.6248074,1.31841709 16.8013023,1.76268632 15.0932862,2.38447317 C14.0944929,2.74807426 13.1634667,3.16341788 12.313039,3.63463765 C12.0108203,3.8020962 11.9010163,4.18385857 12.0677847,4.48732777 C12.2345532,4.79079697 12.6147424,4.90105538 12.916961,4.73359683 C13.7071207,4.29577144 14.5790757,3.90678031 15.5193271,3.56449082 C17.1467549,2.97204137 18.8969398,2.5456355 20.648081,2.25956145 C21.261494,2.15935165 21.8306957,2.08393748 22.3406318,2.0298698 C22.6442173,1.99768114 22.8587813,1.97985217 22.9693307,1.97288465 L22.3142678,1.45317304 C23.648559,9.22327636 23.8293027,17.7726849 21.5012976,24.4190614 L21.984673,24.0088333 C21.8771218,24.0274584 21.6723766,24.0606698 21.3852753,24.1036143 C20.9048149,24.1754813 20.3715217,24.2474107 19.8002977,24.3145569 C18.3658857,24.4831689 16.9419605,24.5930076 15.6165344,24.6163419 C13.618275,24.6515215 12.0134758,24.484633 10.9745322,24.0881577 C10.65187,23.9650253 10.2908933,24.1278585 10.1682683,24.4518559 C10.0456433,24.7758533 10.2078055,25.1383237 10.5304678,25.2614561 C11.753138,25.7280441 13.4939381,25.9090758 15.6384468,25.8713215 Z" id="Stroke-3"></path>
                    <polygon id="Fill-5" points="8.44455357 13.8718069 8.73473214 14.1631862 9.61419643 13.2800828 10.0874107 13.2800828 9.20258929 14.1685655 9.49276786 14.4590483 10.6677679 13.2800828 12.2784821 13.2800828 10.716875 14.8481517 9.329375 14.8481517 9.329375 15.2605655 10.3070536 15.2605655 9.48383929 16.0862897 9.77401786 16.377669 10.5963393 15.5510483 10.5963393 16.5327724 11.0070536 16.5327724 11.0070536 15.139531 12.5686607 13.5714621 12.5686607 15.1888414 11.3945536 16.3687034 11.6838393 16.6600828 12.5686607 15.7716 12.5686607 16.2467724 11.6891964 17.1298759 11.979375 17.4212552 12.5686607 16.829531 12.5686607 17.6032552 12.979375 17.6032552 12.979375 16.829531 13.5686607 17.4212552 13.8579464 17.1298759 12.979375 16.2467724 12.979375 15.7716 13.8633036 16.6600828 14.1534821 16.3687034 12.979375 15.1888414 12.979375 13.5714621 14.5409821 15.139531 14.5409821 16.5327724 14.9508036 16.5327724 14.9508036 15.5510483 15.7740179 16.377669 16.0641964 16.0862897 15.2409821 15.2605655 16.2186607 15.2605655 16.2186607 14.8481517 14.8311607 14.8481517 13.2686607 13.2800828 14.8802679 13.2800828 16.0552679 14.4590483 16.3454464 14.1685655 15.460625 13.2800828 15.9338393 13.2800828 16.8133036 14.1631862 17.1034821 13.8718069 16.5141964 13.2800828 17.2847321 13.2800828 17.2847321 12.867669 16.5141964 12.867669 17.1034821 12.2759448 16.8133036 11.9845655 15.9338393 12.867669 15.460625 12.867669 16.3454464 11.9800828 16.0552679 11.6887034 14.8802679 12.867669 13.2686607 12.867669 14.8311607 11.2996 16.2186607 11.2996 16.2186607 10.8880828 15.2409821 10.8880828 15.9016964 10.2246345 15.6115179 9.93325517 14.9508036 10.5967034 14.9508036 9.61497931 14.5409821 9.61497931 14.5409821 11.0082207 12.979375 12.5771862 12.979375 10.9589103 14.1534821 9.77904828 13.8633036 9.48766897 12.979375 10.3761517 12.979375 9.90097931 13.8579464 9.01787586 13.5686607 8.72649655 12.979375 9.31822069 12.979375 8.54449655 12.5686607 8.54449655 12.5686607 9.31822069 11.979375 8.72649655 11.6891964 9.01787586 12.5686607 9.90097931 12.5686607 10.3761517 11.6838393 9.48766897 11.3945536 9.77904828 12.5686607 10.9589103 12.5686607 12.5771862 11.0070536 11.0082207 11.0070536 9.61497931 10.5963393 9.61497931 10.5963393 10.5967034 9.935625 9.93325517 9.64633929 10.2246345 10.3070536 10.8880828 9.329375 10.8880828 9.329375 11.2996 10.716875 11.2996 12.2784821 12.867669 10.6677679 12.867669 9.49276786 11.6887034 9.20258929 11.9800828 10.0874107 12.867669 9.61419643 12.867669 8.73473214 11.9845655 8.44455357 12.2759448 9.03383929 12.867669 8.26330357 12.867669 8.26330357 13.2800828 9.03383929 13.2800828"></polygon>
                    <path d="M6.84553571,10.6565034 C7.19071368,10.6565034 7.47053571,10.3755235 7.47053571,10.0289172 C7.47053571,9.68231095 7.19071368,9.40133103 6.84553571,9.40133103 L1.78928571,9.40133103 C1.44410775,9.40133103 1.16428571,9.68231095 1.16428571,10.0289172 C1.16428571,10.3755235 1.44410775,10.6565034 1.78928571,10.6565034 L6.84553571,10.6565034 Z" id="Stroke-7"></path>
                    <path d="M6.84553571,17.0070483 C7.19071368,17.0070483 7.47053571,16.7260684 7.47053571,16.3794621 C7.47053571,16.0328558 7.19071368,15.7518759 6.84553571,15.7518759 L1.78928571,15.7518759 C1.44410775,15.7518759 1.16428571,16.0328558 1.16428571,16.3794621 C1.16428571,16.7260684 1.44410775,17.0070483 1.78928571,17.0070483 L6.84553571,17.0070483 Z" id="Stroke-9"></path>
                    <path d="M23.7354464,10.6565034 C24.0806244,10.6565034 24.3604464,10.3755235 24.3604464,10.0289172 C24.3604464,9.68231095 24.0806244,9.40133103 23.7354464,9.40133103 L18.6791964,9.40133103 C18.3340185,9.40133103 18.0541964,9.68231095 18.0541964,10.0289172 C18.0541964,10.3755235 18.3340185,10.6565034 18.6791964,10.6565034 L23.7354464,10.6565034 Z" id="Stroke-11"></path>
                    <path d="M23.7354464,17.0070483 C24.0806244,17.0070483 24.3604464,16.7260684 24.3604464,16.3794621 C24.3604464,16.0328558 24.0806244,15.7518759 23.7354464,15.7518759 L18.6791964,15.7518759 C18.3340185,15.7518759 18.0541964,16.0328558 18.0541964,16.3794621 C18.0541964,16.7260684 18.3340185,17.0070483 18.6791964,17.0070483 L23.7354464,17.0070483 Z" id="Stroke-13"></path>
                </g>
            </g>
        </g>
    </g>
</svg>