<?xml version="1.0" encoding="UTF-8" standalone="no"?>
<svg width="52px" height="51px" viewBox="0 0 52 51" version="1.1" xmlns="http://www.w3.org/2000/svg" xmlns:xlink="http://www.w3.org/1999/xlink">
    <!-- Generator: Sketch 39.1 (31720) - http://www.bohemiancoding.com/sketch -->
    <title>ico_TODOSlacteosyrefrigerados_grey</title>
    <desc>Created with Sketch.</desc>
    <defs></defs>
    <g id="supermercado_categoria" stroke="none" stroke-width="1" fill="none" fill-rule="evenodd">
        <g id="Subcategorias_lacteos-y-refrigerados" transform="translate(-15.000000, -14.000000)" fill="#D4D4D4">
            <g id="icon01" transform="translate(15.000000, 14.000000)">
                <g id="refrigerados_blue" transform="translate(17.000000, 13.000000)">
                    <path d="M2.28673333,21.1026811 C2.28673333,21.3534482 2.49566712,21.5567351 2.7534,21.5567351 C3.01113288,21.5567351 3.22006667,21.3534482 3.22006667,21.1026811 L3.22006667,12.226573 C3.22006667,11.9758058 3.01113288,11.7725189 2.7534,11.7725189 C2.49566712,11.7725189 2.28673333,11.9758058 2.28673333,12.226573 L2.28673333,21.1026811 Z" id="Stroke-1"></path>
                    <path d="M12.2646,7.87582703 L12.7089751,8.1912245 C12.4475927,7.39819905 11.7437884,6.84512432 10.9259333,6.84512432 L6.64726667,6.84512432 C5.82894251,6.84512432 5.12568324,7.39796878 4.86422493,8.1912245 L5.3086,7.87582703 L0.4666,7.87582703 L0.933266667,8.32988108 L0.933266667,2.00036757 C0.933266667,1.40750063 1.49984985,0.908043243 2.2206,0.908043243 L15.3526,0.908043243 C16.0733501,0.908043243 16.6399333,1.40750063 16.6399333,2.00036757 L16.6399333,8.32988108 L17.1066,7.87582703 L12.2646,7.87582703 Z M17.5732667,8.78393514 L17.5732667,8.32988108 L17.5732667,2.00036757 C17.5732667,0.884877026 16.5693909,-6.48648648e-05 15.3526,-6.48648648e-05 L2.2206,-6.48648648e-05 C1.00380915,-6.48648648e-05 -6.66666667e-05,0.884877026 -6.66666667e-05,2.00036757 L-6.66666667e-05,8.32988108 L-6.66666667e-05,8.78393514 L0.4666,8.78393514 L5.3086,8.78393514 L5.64901958,8.78393514 L5.75297507,8.46853766 C5.89581337,8.03517107 6.25446029,7.75323243 6.64726667,7.75323243 L10.9259333,7.75323243 C11.3183453,7.75323243 11.6774796,8.03545312 11.8202249,8.46853766 L11.9241804,8.78393514 L12.2646,8.78393514 L17.1066,8.78393514 L17.5732667,8.78393514 Z M1.8026,22.9640432 C1.29893034,22.9640432 0.935933333,22.700892 0.935933333,22.4516108 L0.935933333,8.32988108 L0.469266667,8.78393514 L17.1039333,8.78393514 L16.6372667,8.32988108 L16.6372667,22.4516108 C16.6372667,22.700892 16.2742697,22.9640432 15.7706,22.9640432 L1.8026,22.9640432 Z M17.5706,22.4516108 L17.5706,8.32988108 L17.5706,7.87582703 L17.1039333,7.87582703 L0.469266667,7.87582703 L0.0026,7.87582703 L0.0026,8.32988108 L0.0026,22.4516108 C0.0026,23.2701061 0.833075414,23.8721514 1.8026,23.8721514 L15.7706,23.8721514 C16.7401246,23.8721514 17.5706,23.2701061 17.5706,22.4516108 Z" id="Stroke-2"></path>
                    <path d="M14.961,11.4484541 C15.2187329,11.4484541 15.4276667,11.2451671 15.4276667,10.9944 C15.4276667,10.7436329 15.2187329,10.5403459 14.961,10.5403459 L12.679,10.5403459 C12.4212671,10.5403459 12.2123333,10.7436329 12.2123333,10.9944 C12.2123333,11.2451671 12.4212671,11.4484541 12.679,11.4484541 L14.961,11.4484541 Z" id="Stroke-4"></path>
                    <path d="M15.1693333,6.52274595 C15.4270662,6.52274595 15.636,6.31945902 15.636,6.06869189 C15.636,5.81792476 15.4270662,5.61463784 15.1693333,5.61463784 L12.8873333,5.61463784 C12.6296005,5.61463784 12.4206667,5.81792476 12.4206667,6.06869189 C12.4206667,6.31945902 12.6296005,6.52274595 12.8873333,6.52274595 L15.1693333,6.52274595 Z" id="Stroke-6"></path>
                </g>
            </g>
        </g>
    </g>
</svg>